<?xml version="1.0" standalone="no"?>
<!DOCTYPE svg PUBLIC "-//W3C//DTD SVG 20010904//EN"
 "http://www.w3.org/TR/2001/REC-SVG-20010904/DTD/svg10.dtd">
<svg version="1.0" xmlns="http://www.w3.org/2000/svg"
 width="260.000000pt" height="260.000000pt" viewBox="0 0 260.000000 260.000000"
 preserveAspectRatio="xMidYMid meet">
<metadata>
Created by potrace 1.14, written by Peter Selinger 2001-2017
</metadata>
<g transform="translate(0.000000,260.000000) scale(0.100000,-0.100000)"
fill="#000000" stroke="none">
<path d="M1354 2279 c32 -115 40 -165 40 -269 1 -171 0 -172 -93 -46 l-79 107
-19 -28 c-11 -15 -35 -55 -53 -88 -19 -33 -42 -72 -53 -86 -16 -22 -17 -32 -8
-65 12 -41 13 -150 2 -198 -5 -26 -7 -28 -20 -13 -19 24 -51 21 -96 -10 -37
-25 -67 -33 -178 -50 -45 -6 -68 11 -99 72 -12 22 -29 52 -40 68 l-19 27 -62
-47 c-34 -27 -64 -50 -67 -53 -3 -3 -32 -25 -65 -49 -33 -25 -66 -52 -72 -60
-18 -21 -16 -177 3 -264 50 -226 235 -430 458 -504 69 -22 99 -27 201 -27 66
-1 134 2 150 6 29 6 33 2 129 -132 113 -159 142 -189 211 -224 128 -64 294
-59 467 13 73 31 190 105 226 144 l24 25 -99 57 c-54 32 -164 97 -244 145
l-146 87 -54 -28 c-30 -16 -61 -28 -69 -28 -8 -1 -45 25 -81 57 -36 31 -73 64
-83 72 -9 8 -29 26 -44 40 l-28 25 -319 4 c-176 1 -323 5 -327 8 -5 2 -8 32
-8 66 1 113 61 207 168 259 l66 33 262 3 262 3 50 87 c77 135 94 190 100 317
5 129 -9 201 -62 310 -39 78 -119 172 -191 224 -47 33 -48 34 -41 10z"/>
<path d="M720 1854 c11 -13 10 -16 -9 -21 -31 -8 -24 -45 11 -57 22 -8 32 -6
48 9 37 33 15 85 -37 85 -22 0 -24 -2 -13 -16z"/>
<path d="M830 1691 c0 -6 5 -13 10 -16 15 -9 121 6 114 16 -7 12 -124 12 -124
0z"/>
</g>
</svg>
