<svg id="Layer_1" data-name="Layer 1" xmlns="http://www.w3.org/2000/svg" viewBox="0 0 2537.21 3272.67"><defs><style>.cls-1{opacity:0.2;}.cls-2{fill:#650000;}.cls-3{fill:#969696;}.cls-4{fill:#c66b44;}.cls-13,.cls-5{fill:none;}.cls-6{opacity:0.25;}.cls-7{fill:#021168;}.cls-8{opacity:0.4;}.cls-9{fill:#fff;}.cls-10{fill:#feb845;}.cls-11{fill:#f48d40;}.cls-12{fill:#ef2e4a;}.cls-13{stroke:#021168;stroke-linecap:round;stroke-linejoin:round;stroke-width:35.34px;}.cls-14{fill:#b1411e;}.cls-15{fill:#ff3867;}.cls-16{fill:#ff9878;}.cls-17{fill:#993419;}.cls-18{fill:#efd1b1;}.cls-19{opacity:0.35;}.cls-20{fill:#ffb031;}</style></defs><g class="cls-1"><ellipse class="cls-2" cx="1268.6" cy="3029.52" rx="1083.62" ry="243.15"/></g><path class="cls-3" d="M2042.71,894.18c-56.07,428.46-103.55,706.66-169.35,992.24q-17.91,77.7,5.83,150a5,5,0,0,1,1,3q26.25,77.23,99.88,147.22c31.68,30,65,53.88,92.46,71.22-47.25-47.21-76.49-112-76.49-183.54,0-144,118.55-261.14,264.26-261.14a266.68,266.68,0,0,1,61.8,7.29c-97.67-52.15-241.65-151.82-221.66-278.42,8.09-51.2,22.12-125.58,38.37-211.71,50.91-269.82,120.64-639.36,113-833.06-4.85-123.32-52.18-220-133.28-272.4-64.41-41.56-143.35-49.78-217.67-23.1,13.7,17.37,54.87,74.13,91.4,171C2032.46,479.4,2073.82,656.38,2042.71,894.18Z"/><path class="cls-3" d="M2260.31,1823.4c-140,0-253.93,112.57-253.93,250.93s113.92,250.94,253.93,250.94a254.59,254.59,0,0,0,140.58-42.1c40.69-28.29,81.17-73.1,102.21-143.81a262.84,262.84,0,0,0,11.1-66.42C2513.44,1935.22,2399.85,1823.4,2260.31,1823.4Zm0,372.65c-67.91,0-123.16-54.6-123.16-121.72s55.25-121.71,123.16-121.71,123.17,54.6,123.17,121.71S2328.23,2196.05,2260.31,2196.05Z"/><path class="cls-3" d="M1871.2,2043.25c-325.12-140.86-635.52-133.36-838.85-102.18-208.6,32-350,94.66-366.31,102.1-18.24,53.22-52.38,104.07-102,151-40.42,38.27-83.46,66.68-114.05,84.52,35.87,20.26,200.7,107.52,455.18,153.49,265,47.85,683.9,59.38,1176.09-157-30.09-18-70.28-45.16-108.16-81C1923.58,2147.26,1889.45,2096.44,1871.2,2043.25Z"/><path class="cls-4" d="M1674.22,2935.55c66.32,6.09,139.2,11,151.65,8.73,4.59-11.66,26.31-84.58,41.8-137.57-59.29,12.53-134.66,20.48-211.82,25.46Z"/><path class="cls-3" d="M1263,2583.17c-394.62,0-608.82-56-651.2-68.35C622,2594.59,625.5,2758.76,626,2785c64.14,20.08,163.73,31.38,265.58,37.6.13,0,.25,0,.37,0s.1,0,.15,0c178.76,10.88,364.16,6.16,376.28,5.83,12.48.33,200.47,5.12,380.4-6.06,0,0,0,0,.08,0a2.91,2.91,0,0,1,.3,0c100.32-6.25,198-17.47,261.45-37.19-13.36-100.56-15.14-219.59-15.36-248.18C1858.34,2545,1660.12,2583.17,1263,2583.17Zm155,77.91c-48.87.81-97.74,1-146.61,1.12-48.87-.11-97.74-.32-146.6-1.14q-73.31-1-146.61-4,73.3-3,146.61-4c48.86-.82,97.73-1,146.6-1.14,48.87.09,97.74.31,146.61,1.12s97.74,2,146.6,4Q1491.23,2660.08,1417.92,2661.08Z"/><path class="cls-4" d="M2260.31,1962.83c-62.22,0-112.83,50-112.83,111.5s50.61,111.51,112.83,111.51,112.84-50,112.84-111.51S2322.53,1962.83,2260.31,1962.83Z"/><path class="cls-4" d="M728.38,2938.07c62.23,5,129.84,7.14,139.82,2.26,3.28-12,12.82-77,17.18-107.91-78-4.91-154.34-12.83-214.45-25.41Z"/><path class="cls-4" d="M2276.43,2334.94c-5.34.32-10.7.53-16.12.53a265,265,0,0,1-131.13-34.56c-.08,0-.16,0-.23,0-.35-.15-15.4-7-38.18-20.06a5.07,5.07,0,0,1-2.57,2.59c-219,96.58-442,156.68-662.89,178.62q-96.16,9.57-191.72,9.56a1857.55,1857.55,0,0,1-330.73-29.41c-270.46-48.94-440.56-144.37-463.14-157.55-19,10.6-31.15,16.11-31.46,16.25-.08,0-.15,0-.23,0a265,265,0,0,1-131.13,34.56c-5.42,0-10.78-.21-16.12-.53a5,5,0,0,1,0,1.92c-42.1,182.28,12.08,285.41,59.88,376.4,15.54,29.58,30.22,57.52,41.22,86.94,40.42,108.08,9.29,252.63,1.7,284.05,25.78,1,123.81,4.25,171.56-.23,37.66-3.55,69.42-183,80.62-295.43-.11-6.58-3.6-199.54-15.27-280.26a5.08,5.08,0,0,1,1.81-4.65,5.3,5.3,0,0,1,5-.92c2.11.71,216.45,70.21,655.74,70.21,439.51,0,634.25-46.8,636.16-47.26a5.17,5.17,0,0,1,4.43.92,5.09,5.09,0,0,1,2,4c0,1.41.17,142.78,15.87,257.46,0,0,0,.07,0,.1s0,.05,0,.08c11.18,112.45,43,292.17,80.65,295.72,47.75,4.49,145.77,1.2,171.56.23-7.59-31.42-38.72-176,1.7-284.05,11-29.42,25.68-57.35,41.22-86.94,47.8-91,102-194.12,59.88-376.4A5,5,0,0,1,2276.43,2334.94Z"/><path class="cls-4" d="M389.74,2074.33c0-61.48-50.62-111.5-112.84-111.5s-112.83,50-112.83,111.5,50.61,111.51,112.83,111.51S389.74,2135.82,389.74,2074.33Z"/><path class="cls-3" d="M504.75,892.87c56,428.18,103.46,706.1,169.17,991.29,11.46,49.71,10.06,98.72-3.75,146,36.86-16,171.2-70.09,360.23-99.13,203-31.17,512.19-38.84,836.73,99.42-13.88-47.37-15.32-96.48-3.84-146.29C1929,1598.91,1976.45,1321,2032.46,892.87c30.81-235.44-10-410.54-49.66-516C1942,268.36,1894,209.43,1888.87,203.32c-15.32-9.38-299.82-180.52-620.23-180.55s-605,171.17-620.29,180.55c-5.12,6.11-53.1,65-93.93,173.58C514.76,482.33,473.94,657.43,504.75,892.87Z"/><path class="cls-3" d="M541.15,2074.33c0,71.49-29.23,136.33-76.48,183.54,27.45-17.34,60.78-41.2,92.46-71.22q73.65-69.84,99.92-147.32a5.09,5.09,0,0,1,1-2.93q23.63-72.17,5.82-150C598.06,1600.9,550.58,1322.7,494.5,894.18c-31.11-237.8,10.25-414.78,50.44-521.36,36.52-96.9,77.69-153.66,91.39-171-74.31-26.68-153.26-18.46-217.66,23.1C337.57,277.24,290.23,374,285.38,497.29c-7.62,193.69,62.09,563.2,113,833,16.25,86.15,30.29,160.55,38.38,211.77,20,126.6-124,226.27-221.65,278.42a266.6,266.6,0,0,1,61.79-7.29C422.61,1813.19,541.15,1930.34,541.15,2074.33Z"/><path class="cls-3" d="M530.82,2074.33c0-138.36-113.91-250.93-253.92-250.93-139.54,0-253.13,111.82-253.89,249.54a262.82,262.82,0,0,0,11.09,66.42c21.06,70.73,61.55,115.55,102.27,143.84a254.53,254.53,0,0,0,140.53,42.07C416.91,2325.27,530.82,2212.7,530.82,2074.33Zm-377.08,0c0-67.11,55.25-121.71,123.16-121.71s123.17,54.6,123.17,121.71-55.26,121.72-123.17,121.72S153.74,2141.45,153.74,2074.33Z"/><path class="cls-5" d="M696,2124.34c18.07,165.32,522,202.53,571.37,205.78,49.41-3.25,553.3-40.46,571.36-205.78,4.74-41.88-25.78-93-35.84-108.56-299.91-112.15-581.51-103.7-770.55-74.71-132.59,20.33-238,53-301.4,76.11C720.09,2034.22,691.41,2083.66,696,2124.34Z"/><path class="cls-5" d="M670.17,2030.16c16.8-7.28,53.93-22.5,107.21-39.65l-.48.14c-80-288.44-149.19-795.51-186.51-1132s71.79-509.12,71.79-509.12S559.07,697.94,769,897.48c154.86,147.2,353.42,194.41,446.91,209a341.25,341.25,0,0,0,106.37-.09c92.74-14.74,289-62,443.51-209,209.91-199.54,106.8-547.91,106.8-547.91s109.11,172.67,71.79,509.12c-37.26,335.89-106.24,841.84-186.12,1130.53,35.36,11.82,71,25.18,106.88,40.4l.94-2.75s-4.44-10.81-7-32.33a288,288,0,0,1,4.24-110.38C1929,1598.91,1976.45,1321,2032.46,892.87q3-23.32,5.17-45.86c1.7-29,3.67-62.37,5.31-90a1133.43,1133.43,0,0,0-5.59-142.52c-2.78-22.68-6.21-48.09-10.31-73.94-5.16-29.24-11.28-56.28-17.9-81.11,2.53,16.14,3.67,26.77,3.67,26.77S1931,295.57,1837.74,224.45s-341-154.1-570.36-154.1-477.07,83-570.37,154.1S531.75,483.26,531.75,483.26s-.07-19.8,2.66-46.39c-31.48,106.94-55.22,260.68-29.66,456,56,428.18,103.46,706.1,169.17,991.29C685.38,1933.87,684,1982.88,670.17,2030.16Z"/><path class="cls-5" d="M2288.55,2000.2c-40.88-22-81.45-15.36-103.76-8.63a112.31,112.31,0,0,0-23.71,29.73c4.11,19.78,23.72,93.23,91,110.28,56.47,14.31,96.49-6.61,114.28-19.24a109,109,0,0,0,5.24-19.86,114.35,114.35,0,0,1-7.2,18.48C2363.39,2113.06,2350.2,2033.3,2288.55,2000.2Z"/><path class="cls-5" d="M2067.64,1609.19c-11-52.35,10.09-130.88,23.79-201.51S2244.05,644.38,2207.59,451C2171.33,258.72,2041,200.56,1903.26,204.86c5.71,7.44,14.52,19.67,25.11,36.64,34,26.81,110.05,99.2,154.6,237.8,58.64,182.42,36,297-9.33,617.06S1944.19,1825,1961.69,1878.87c15,46.07,61.38,55.6,74.47,57.39a264.87,264.87,0,0,1,187.67-120.52C2201.94,1801,2089.72,1723.18,2067.64,1609.19Z"/><path class="cls-5" d="M2065,2253c2.55,1.65,5.1,3.32,7.55,4.87-2.56-2.56-5-5.2-7.5-7.86,1.23,1.56,1.94,2.41,1.94,2.41Z"/><path class="cls-5" d="M2052.13,2256.75l-82.45,24.05s-396,145.22-698.37,147.72v.06l-3.93,0-3.94,0v-.06C961.05,2426,565.07,2280.8,565.07,2280.8l-80.74-23.55c-12.42,8.28-24.09,15.51-34.3,21.47,35.87,20.26,200.7,107.52,455.18,153.49,265,47.85,683.9,59.38,1176.09-157C2072.38,2269.92,2062.5,2263.68,2052.13,2256.75Z"/><path class="cls-5" d="M1910.94,198.49c-3.35,1-6.71,2.1-10.06,3.3.46.57,1,1.3,1.52,2A86,86,0,0,1,1910.94,198.49Z"/><path class="cls-5" d="M2494.47,2002.74s-65-127.33-205.58-143.79c-123.95-14.52-208,51.3-256.31,104.54a247,247,0,0,0-26.2,110.84c0,65.67,25.7,125.5,67.62,170.27-77.49-110-20.35-234.19-20.35-234.19s-5.14,233.24,197.25,227.85,250.27-235.52,250.27-235.52a182,182,0,0,1,9.1,27.85,247.07,247.07,0,0,0-16.6-55.09A111.18,111.18,0,0,1,2494.47,2002.74Zm-234.16,193.31c-67.91,0-123.16-54.6-123.16-121.72s55.25-121.71,123.16-121.71,123.17,54.6,123.17,121.71S2328.23,2196.05,2260.31,2196.05Z"/><path class="cls-5" d="M1786.76,2909.64l-96.46,6.43L1676,2830.79q-10,.72-20.12,1.38l18.37,103.38c66.32,6.09,139.2,11,151.65,8.73,4.59-11.66,26.31-84.58,41.8-137.57-14.19,3-29.32,5.73-45.15,8.23Z"/><path class="cls-5" d="M844.45,2916.07,748,2909.64l-35.91-95.12c-14.37-2.3-28.16-4.79-41.15-7.51l57.45,131.06c62.23,5,129.84,7.14,139.82,2.26,3.28-12,12.82-77,17.18-107.91q-13.33-.84-26.57-1.8Z"/><path class="cls-5" d="M1927.2,2509.83h-6.74c-1,0-70.73,18-70.73,18s-101.06,19.08-207.55,31.47c174.67-13.85,255.72-33.32,257-33.62a5.17,5.17,0,0,1,4.43.92,5.09,5.09,0,0,1,2,4c0,1.18.13,99.62,9.26,198.78.15-15.24.4-39.09.4-39.09Z"/><path class="cls-5" d="M2173.65,3084.25c-.09-.37-.19-.82-.29-1.21a7.85,7.85,0,0,1-.06,1.22Z"/><path class="cls-5" d="M283.85,2238.26c202.39,5.39,197.25-227.85,197.25-227.85s60.66,131.8-27.77,244.14c47.73-45.65,77.49-109.55,77.49-180.22a246.91,246.91,0,0,0-23.32-104.86c-47.34-54.13-133-125.59-261.63-110.52-140.61,16.46-205.59,143.79-205.59,143.79a102.5,102.5,0,0,1-.15-18.86q-3.65,9.28-6.54,18.91C34,2004.64,82.28,2232.9,283.85,2238.26Zm-7-285.64c67.91,0,123.17,54.6,123.17,121.71s-55.26,121.72-123.17,121.72-123.16-54.6-123.16-121.72S209,1952.62,276.9,1952.62Z"/><path class="cls-5" d="M633.9,204.91c-138.57-5-270.27,52.69-306.74,246.08s102.46,886.06,116.16,956.69,34.78,149.16,23.79,201.51c-22,113.38-133.08,191-155.81,206.29a264.88,264.88,0,0,1,189.53,120.45c15.5-2.53,58-13.36,72.23-57.06,17.5-53.84-66.63-462.46-111.95-782.51s-68-434.64-9.33-617.06c46.77-145.47,128.23-218,159.33-241.45a436.09,436.09,0,0,1,25.22-36.06c-5.35-1.92-10.72-3.61-16.11-5.17A82.77,82.77,0,0,1,633.9,204.91Z"/><path class="cls-5" d="M1263,2583.17c-394.62,0-608.82-56-651.2-68.35C622,2594.59,625.5,2758.76,626,2785c8,2.51,16.58,4.89,25.64,7.13h0s4-106.75.71-175.89c0,0,330,88.07,615,88.88,285-.81,615-88.88,615-88.88-3.33,69.14.71,175.89.71,175.89l1.63.19c9.14-2.24,17.8-4.62,25.89-7.13-13.36-100.56-15.14-219.59-15.36-248.18C1858.34,2545,1660.12,2583.17,1263,2583.17Zm155,77.91c-48.87.81-97.74,1-146.61,1.12-48.87-.11-97.74-.32-146.6-1.14q-73.31-1-146.61-4,73.3-3,146.61-4c48.86-.82,97.73-1,146.6-1.14,48.87.09,97.74.31,146.61,1.12s97.74,2,146.6,4Q1491.23,2660.08,1417.92,2661.08Z"/><path class="cls-5" d="M464.67,2257.87c2.2-1.39,4.5-2.9,6.78-4.38l-2-.59C467.83,2254.56,466.29,2256.25,464.67,2257.87Z"/><path class="cls-5" d="M2276.43,2334.94c-5.34.32-10.7.53-16.12.53a265,265,0,0,1-131.13-34.56c-.08,0-.16,0-.23,0-.35-.15-15.4-7-38.18-20.06a5.07,5.07,0,0,1-2.57,2.59c-215.72,95.14-435.36,154.79-653,177.54,73-5.37,163.24-15.75,255.94-35.64,217.91-46.76,345.19-114.59,345.19-114.59l23.33,3.3s-230.41,186.16-794,186.36h-.88C701.21,2500.16,475.11,2314,475.11,2314l16.23-2.3c-27.8-13.5-45.38-23.45-51.62-27.09-19,10.6-31.15,16.11-31.46,16.25-.08,0-.15,0-.23,0a265,265,0,0,1-131.13,34.56c-5.42,0-10.78-.21-16.12-.53a5,5,0,0,1,0,1.92c-38.81,168,4.18,268.76,48.58,354.75.8-3.83,1.83-8.05,1.83-8.05,3,4.82,62,65.26,87,123.45s28,162.89,32,168.82,66,14.82,66,14.82,25.47-85,34.72-211.4-29.35-350.67-29.35-350.67S865,2531.29,1267.38,2532c402.36-.67,765.9-103.38,765.9-103.38s-38.61,224.23-29.35,350.67,34.72,211.4,34.72,211.4,62-8.9,66-14.82,7-110.64,32-168.82,84-118.63,87-123.45c0,0,1.82,7.45,2.49,11.54,45-86.76,89.71-188,50.38-358.24A5,5,0,0,1,2276.43,2334.94ZM303.18,2561.44c-23-77.54-12-149.65-12-149.65s28,8.89,38.48,72.11,34,203,34,203S326.17,2639,303.18,2561.44Zm1928.4,0c-23,77.55-60.48,125.45-60.48,125.45s23.49-139.77,34-203,38.48-72.11,38.48-72.11S2254.57,2483.9,2231.58,2561.44Z"/><path class="cls-5" d="M592.55,1540.34c-.07-.36-.13-.71-.2-1.07l0,.28Z"/><path class="cls-5" d="M286.52,2131.58c65.26-16.54,85.69-86.11,90.62-108.35a112.07,112.07,0,0,0-23.43-30.47c-21.27-7-64.21-15.81-107.51,7.44-61.35,33-74.71,112.07-75.85,110.75a0,0,0,0,0,0,0C187.1,2123.38,228,2146.41,286.52,2131.58Z"/><g class="cls-6"><path class="cls-2" d="M481.1,2010.41s5.14,233.24-197.25,227.85C82.28,2232.9,34,2004.64,33.59,2002.79A246.9,246.9,0,0,0,23,2072.94a262.82,262.82,0,0,0,11.09,66.42c21.06,70.73,61.55,115.55,102.27,143.84a255.57,255.57,0,0,0,317-28.65C541.76,2142.21,481.1,2010.41,481.1,2010.41Z"/></g><g class="cls-6"><path class="cls-2" d="M2250.9,2238.26c-202.39,5.39-197.25-227.85-197.25-227.85s-57.14,124.17,20.35,234.19a255.59,255.59,0,0,0,326.89,38.57c40.69-28.29,81.17-73.1,102.21-143.81a262.84,262.84,0,0,0,11.1-66.42,248.5,248.5,0,0,0-3.93-42.35,182,182,0,0,0-9.1-27.85S2453.29,2232.88,2250.9,2238.26Z"/></g><g class="cls-6"><path class="cls-2" d="M844.45,2916.07l14.36-85.45c-51.85-3.77-102.22-9-146.73-16.1L748,2909.64Z"/></g><g class="cls-6"><path class="cls-2" d="M1786.76,2909.64l35.76-94.7c-44.57,7-94.86,12.14-146.55,15.85l14.33,85.28Z"/></g><g class="cls-6"><path class="cls-2" d="M1882.39,2616.27s-330.05,88.07-615,88.88c-285-.81-615-88.88-615-88.88,3.33,69.14-.71,175.89-.71,175.89h0c63.43,15.7,150.82,25,239.94,30.47.13,0,.25,0,.37,0s.1,0,.15,0c178.76,10.88,364.16,6.16,376.28,5.83,12.48.33,200.47,5.12,380.4-6.06,0,0,0,0,.08,0a2.91,2.91,0,0,1,.3,0c87.53-5.45,173.06-14.69,235.56-30.06l-1.63-.19S1879.06,2685.41,1882.39,2616.27Z"/></g><g class="cls-6"><path class="cls-2" d="M2136.61,2807c-25,58.18-28,162.89-32,168.82s-66,14.82-66,14.82-25.47-85-34.72-211.4,29.35-350.67,29.35-350.67-363.54,102.71-765.9,103.38c-402.37-.67-765.91-103.38-765.91-103.38s38.61,224.23,29.35,350.67-34.72,211.4-34.72,211.4-62-8.9-66-14.82-7-110.64-32-168.82-84-118.63-87-123.45c0,0-1,4.22-1.83,8.05q5.67,11,11.3,21.65c15.54,29.58,30.22,57.52,41.22,86.94,40.42,108.08,9.29,252.63,1.7,284.05,25.78,1,123.81,4.25,171.56-.23,37.66-3.55,69.42-183,80.62-295.43-.11-6.58-3.6-199.54-15.27-280.26a5.08,5.08,0,0,1,1.81-4.65,5.3,5.3,0,0,1,5-.92c2.11.71,216.45,70.21,655.74,70.21,156.77,0,282.37-6,379.21-13.64,106.49-12.39,207.55-31.47,207.55-31.47s69.72-18,70.73-18h6.74l-12,180.52s-.25,23.85-.4,39.09c1.82,19.79,4,39.6,6.61,58.68,0,0,0,.07,0,.1s0,.05,0,.08c11.18,112.45,43,292.17,80.65,295.72,47.55,4.47,144.94,1.23,171.21.24a7.85,7.85,0,0,0,.06-1.22c-8-33.62-38-176,2-282.84,11-29.42,25.68-57.35,41.22-86.94q4.72-9,9.5-18.16c-.67-4.09-2.49-11.54-2.49-11.54C2220.58,2688.38,2161.61,2748.82,2136.61,2807Z"/></g><g class="cls-6"><path class="cls-7" d="M1263.44,2428.52v.06l3.94,0,3.93,0v-.06c302.4-2.5,698.37-147.72,698.37-147.72l82.45-24.05a601,601,0,0,1-79-62.55c-49.56-46.94-83.69-97.76-101.94-150.95-22.85-9.9-45.62-19-68.3-27.47,10.06,15.53,40.58,66.68,35.84,108.56-18.06,165.32-521.95,202.53-571.36,205.78-49.42-3.25-553.3-40.46-571.37-205.78-4.6-40.68,24.08-90.12,34.94-107.16-36.36,13.22-59,23.28-64.91,26-18.24,53.22-52.38,104.07-102,151a602.12,602.12,0,0,1-79.75,63.05l80.74,23.55S961.05,2426,1263.44,2428.52Z"/></g><g class="cls-6"><path class="cls-7" d="M2042.94,757c-1.64,27.62-3.61,61-5.31,90C2040.6,815.86,2042.29,785.87,2042.94,757Z"/></g><g class="cls-6"><path class="cls-2" d="M1961.69,1878.87c-17.5-53.84,66.64-462.46,111.95-782.51s68-434.64,9.33-617.06c-44.55-138.6-120.61-211-154.6-237.8,18.34,29.4,41.94,73.05,63.91,131.32,40.18,106.58,81.54,283.56,50.43,521.36-56.07,428.46-103.55,706.66-169.35,992.24q-17.91,77.7,5.83,150a5,5,0,0,1,1,3q26.25,77.23,99.88,147.22c28.84,27.34,59,49.51,84.91,66.35l2-.58s-.71-.85-1.94-2.41c-42.81-46.42-69-108.07-69-175.68a257.25,257.25,0,0,1,40.11-138.07C2023.07,1934.47,1976.66,1924.94,1961.69,1878.87Z"/></g><g class="cls-6"><path class="cls-7" d="M1865.12,2029.62c.67.28,1.34.54,2,.83a286.92,286.92,0,0,1-8.08-35.91c2.57,21.52,7,32.33,7,32.33Z"/></g><g class="cls-6"><path class="cls-2" d="M451.78,479.3c-58.64,182.42-36,297,9.33,617.06S590.56,1825,573.06,1878.87c-14.2,43.7-56.73,54.53-72.23,57.06a257.24,257.24,0,0,1,40.32,138.4c0,69-27.32,131.83-71.74,178.57l2,.59c26.07-16.9,56.55-39.23,85.68-66.84q73.65-69.84,99.92-147.32a5.09,5.09,0,0,1,1-2.93q23.63-72.17,5.82-150c-26.1-113.22-49.3-225.33-71.31-346.08l-.16-.79,0-.28c-33.41-183.47-64.08-387-97.85-645.09-31.11-237.8,10.25-414.78,50.44-521.36,2-5.26,4-10.35,6-15.37,1.77-4.91,3.69-9.68,5.8-14.22.11-.24.23-.48.34-.71,19.2-45.52,38.68-80.43,54.05-104.67C580,261.28,498.55,333.83,451.78,479.3Z"/></g><g class="cls-6"><path class="cls-7" d="M2027,540.56c4.1,25.85,7.53,51.26,10.31,73.94C2034.66,588.5,2031.16,563.83,2027,540.56Z"/></g><g class="cls-6"><path class="cls-2" d="M1872.57,349.57s103.11,348.37-106.8,547.91c-154.56,146.91-350.77,194.22-443.51,209a341.25,341.25,0,0,1-106.37.09c-93.49-14.64-292.05-61.85-446.91-209-209.91-199.54-106.8-547.91-106.8-547.91S553.07,522.24,590.39,858.69s106.47,843.52,186.51,1132l.48-.14a1648.4,1648.4,0,0,1,253-59.48c180.19-27.66,443.94-36.73,727.84,58.19,79.88-288.69,148.86-794.64,186.12-1130.53C1981.68,522.24,1872.57,349.57,1872.57,349.57Z"/></g><g class="cls-6"><path class="cls-2" d="M276.9,2185.84c62.22,0,112.84-50,112.84-111.51a109.74,109.74,0,0,0-12.6-51.1c-4.93,22.24-25.36,91.81-90.62,108.35-58.54,14.83-99.42-8.2-116.16-20.6A112.9,112.9,0,0,0,276.9,2185.84Z"/></g><g class="cls-6"><path class="cls-2" d="M2252.11,2131.58c-67.31-17-86.92-90.5-91-110.28a109.8,109.8,0,0,0-13.6,53c0,61.49,50.61,111.51,112.83,111.51a113,113,0,0,0,106.08-73.5C2348.6,2125,2308.58,2145.89,2252.11,2131.58Z"/></g><g class="cls-8"><path class="cls-9" d="M467.11,1609.19c11-52.35-10.09-130.88-23.79-201.51S290.7,644.38,327.16,451,495.33,199.86,633.9,204.91a82.77,82.77,0,0,0-13.68-8.29c-69.49-20.11-141.78-10.3-201.55,28.27C337.57,277.24,290.23,374,285.38,497.29c-7.62,193.69,62.09,563.2,113,833,16.25,86.15,30.29,160.55,38.38,211.77,20,126.6-124,226.27-221.65,278.42a263.35,263.35,0,0,1,96.19-5C334,1800.16,445.15,1722.57,467.11,1609.19Z"/></g><g class="cls-8"><path class="cls-9" d="M40.28,2002.74s65-127.33,205.59-143.79c128.63-15.07,214.29,56.39,261.63,110.52A254.4,254.4,0,0,0,276.9,1823.4c-107.75,0-200,66.7-236.77,160.48A102.5,102.5,0,0,0,40.28,2002.74Z"/></g><g class="cls-8"><path class="cls-9" d="M246.2,2000.2c43.3-23.25,86.24-14.49,107.51-7.44a113.12,113.12,0,0,0-76.81-29.93c-62.22,0-112.83,50-112.83,111.5a109.52,109.52,0,0,0,6.28,36.62C171.49,2112.27,184.85,2033.15,246.2,2000.2Z"/></g><g class="cls-8"><path class="cls-9" d="M291.18,2411.79s-11,72.11,12,149.65,60.47,125.45,60.47,125.45-23.49-139.77-34-203S291.18,2411.79,291.18,2411.79Z"/></g><g class="cls-8"><path class="cls-9" d="M2288.89,1859c140.61,16.46,205.58,143.79,205.58,143.79a111.18,111.18,0,0,0-.8-27.24c-38.9-89.36-128.85-152.1-233.36-152.1a254.47,254.47,0,0,0-227.73,140.09C2080.89,1910.25,2164.94,1844.43,2288.89,1859Z"/></g><g class="cls-8"><path class="cls-9" d="M1903.26,204.86c137.69-4.3,268.07,53.86,304.33,246.13,36.46,193.39-102.46,886.06-116.16,956.69s-34.78,149.16-23.79,201.51c22.08,114,134.3,191.83,156.19,206.55a264.34,264.34,0,0,1,98.28,4.74c-97.67-52.15-241.65-151.82-221.66-278.42,8.09-51.2,22.12-125.58,38.37-211.71,50.91-269.82,120.64-639.36,113-833.06-4.85-123.32-52.18-220-133.28-272.4C2057,185.2,1982.28,176,1910.94,198.49a86,86,0,0,0-8.54,5.26C1902.69,204.12,1903,204.46,1903.26,204.86Z"/></g><g class="cls-8"><path class="cls-9" d="M2260.31,1962.83a113.13,113.13,0,0,0-75.52,28.74c22.31-6.73,62.88-13.32,103.76,8.63,61.65,33.1,74.84,112.86,75.88,110.76a114.35,114.35,0,0,0,7.2-18.48,110.76,110.76,0,0,0,1.52-18.15C2373.15,2012.85,2322.53,1962.83,2260.31,1962.83Z"/></g><g class="cls-8"><path class="cls-9" d="M531.75,483.26s72-187.69,165.26-258.81,341.06-154.1,570.37-154.1,477.06,83,570.36,154.1,175.07,261.77,175.07,261.77-1.14-10.63-3.67-26.77c-8.28-31-17.34-58.6-26.34-82.55C1942,268.36,1894,209.43,1888.87,203.32c-15.32-9.38-299.82-180.52-620.23-180.55s-605,171.17-620.29,180.55c-5.12,6.11-53.1,65-93.93,173.58-6.76,18-13.54,38-20,60C531.68,463.46,531.75,483.26,531.75,483.26Z"/></g><g class="cls-6"><path class="cls-7" d="M550.92,357.45c2-5.11,4.09-10.07,6.14-14.93-.11.23-.23.47-.34.71C554.61,347.77,552.69,352.54,550.92,357.45Z"/></g><g class="cls-8"><path class="cls-9" d="M550.92,357.45c2-5.11,4.09-10.07,6.14-14.93-.11.23-.23.47-.34.71C554.61,347.77,552.69,352.54,550.92,357.45Z"/></g><g class="cls-8"><path class="cls-9" d="M2205.09,2483.9c-10.5,63.22-34,203-34,203s37.49-47.9,60.48-125.45,12-149.65,12-149.65S2215.58,2420.68,2205.09,2483.9Z"/></g><g class="cls-8"><path class="cls-9" d="M1264.78,2500.36h.88c563.58-.2,794-186.36,794-186.36l-23.33-3.3s-127.28,67.83-345.19,114.59c-92.7,19.89-182.89,30.27-255.94,35.64-3.3.34-6.59.76-9.88,1.08q-96.16,9.57-191.72,9.56a1857.55,1857.55,0,0,1-330.73-29.41C707.18,2406.75,564.09,2347,491.34,2311.7l-16.23,2.3S701.21,2500.16,1264.78,2500.36Z"/></g><path class="cls-2" d="M276.9,2348C124.29,2348,.14,2225.26.14,2074.33s124.15-273.7,276.76-273.7,276.76,122.78,276.76,273.7S429.5,2348,276.9,2348Zm0-512.07c-133.12,0-241.42,106.93-241.42,238.36S143.78,2312.7,276.9,2312.7s241.42-106.93,241.42-238.37S410,1836,276.9,1836Z"/><path class="cls-2" d="M276.9,2208.62c-74.81,0-135.67-60.24-135.67-134.29s60.86-134.27,135.67-134.27,135.67,60.24,135.67,134.27S351.71,2208.62,276.9,2208.62Zm0-233.22c-55.32,0-100.33,44.38-100.33,98.93s45,98.94,100.33,98.94,100.33-44.38,100.33-98.94S332.22,1975.4,276.9,1975.4Z"/><path class="cls-2" d="M2073.13,3109.11c-27,0-53.8-.6-73.19-2.42-23.82-2.24-51.88-23.76-79.33-166.37-9.72-50.46-16.29-101.07-19.54-128.62-189.89,50.89-607.91,40.24-632.47,39.56-24.53.68-442.5,11.35-632.46-39.56-3.25,27.55-9.83,78.16-19.54,128.62-27.45,142.61-55.51,164.13-79.33,166.37-56.53,5.31-176,.28-181,.06a17.69,17.69,0,0,1-16.29-22.3c.44-1.61,43.24-162,.5-276.28-10.5-28.08-24.86-55.41-40.05-84.34-48-91.43-102.27-194.69-65.87-373.87-49.19-10.63-177.2-52.46-222.33-204.12-19.5-65.51-15.65-128.93,11.45-188.53,26.52-58.34,74.84-106.15,136-134.63,83.54-38.87,275.56-143.69,254.5-277.08-8-50.88-22-125.12-38.26-211.09-51.11-270.88-121.1-641.85-113.38-838.12,5.12-130,55.58-232.85,142.09-289.57C475.14,160.61,561.57,151,643,179.89,691.78,150.84,959.65.11,1268.31,0h.29c308.8,0,576.82,150.84,625.58,179.89,81.47-28.93,167.89-19.28,238.38,26.93,86.51,56.72,137,159.56,142.09,289.57,7.72,196.28-62.28,567.28-113.39,838.17-16.22,86-30.22,160.17-38.26,211-21.06,133.39,171,238.21,254.51,277.08,61.2,28.48,109.51,76.3,136,134.63,27.1,59.6,30.95,123,11.45,188.53-45.14,151.66-173.15,193.49-222.34,204.13,36.41,179.18-17.82,282.43-65.86,373.87-15.19,28.93-29.55,56.25-40.05,84.33-42.73,114.28.06,274.67.5,276.28a17.69,17.69,0,0,1-16.29,22.3C2177.63,3106.89,2124.92,3109.11,2073.13,3109.11Zm-156.83-338a17.66,17.66,0,0,1,17.58,15.92c.07.71,7.19,71.48,20.74,143,25.32,133.59,48.54,141.43,48.77,141.5,40.12,3.76,117.19,1.91,154.61.69-10.83-49.95-31.81-176.28,5.64-276.43,11.28-30.17,26.14-58.44,41.87-88.39,49.07-93.4,99.81-190,58.75-367.7a17.68,17.68,0,0,1,15.61-21.57c6.57-.63,162.14-17.34,211.25-182.37,17-57.1,13.72-112.21-9.75-163.82h0c-23-50.66-65.21-92.28-118.78-117.21-90.79-42.25-299.3-157.49-274.49-314.63,8.12-51.39,22.16-125.86,38.43-212.08,47.94-254,120.37-637.95,112.81-830.23-4.66-118.29-49.46-211.12-126.16-261.41-63.2-41.43-141.37-48.89-214.47-20.48a17.66,17.66,0,0,1-15.76-1.48c-2.87-1.79-290.33-179-614.31-179.07h-.28c-324.29.11-611.23,177.27-614.09,179.07a17.62,17.62,0,0,1-15.77,1.48C565.4,187.47,487.23,194.94,424,236.37c-76.69,50.29-121.49,143.12-126.15,261.41-7.56,192.27,64.87,576.15,112.79,830.17,16.27,86.25,30.33,160.74,38.44,212.14,24.82,157.14-183.69,272.38-274.48,314.63-53.56,24.93-95.75,66.55-118.78,117.22-23.47,51.61-26.75,106.72-9.75,163.82C95.41,2301.5,255.71,2318,257.33,2318.13a17.67,17.67,0,0,1,15.61,21.57c-41.05,177.71,9.69,274.29,58.76,367.7,15.73,29.94,30.59,58.22,41.87,88.39,37.46,100.15,16.47,226.48,5.64,276.43,37.42,1.22,114.51,3.07,154.75-.72.09,0,23.31-7.88,48.63-141.47,13.55-71.5,20.67-142.27,20.74-143a17.67,17.67,0,0,1,23-15.06c173.81,56.41,637.08,44.05,641.75,43.94h1c4.65.12,468,12.44,641.75-43.94A17.88,17.88,0,0,1,1916.3,2771.13Z"/><path class="cls-2" d="M2260.31,2348c-152.6,0-276.76-122.78-276.76-273.71s124.16-273.7,276.76-273.7,276.76,122.78,276.76,273.7S2412.92,2348,2260.31,2348Zm0-512.07c-133.12,0-241.42,106.93-241.42,238.36s108.3,238.37,241.42,238.37,241.42-106.93,241.42-238.37S2393.43,1836,2260.31,1836Z"/><path class="cls-2" d="M2260.31,2208.62c-74.81,0-135.67-60.24-135.67-134.29s60.86-134.27,135.67-134.27S2396,2000.3,2396,2074.33,2335.12,2208.62,2260.31,2208.62Zm0-233.22c-55.32,0-100.33,44.38-100.33,98.93s45,98.94,100.33,98.94,100.33-44.38,100.33-98.94S2315.63,1975.4,2260.31,1975.4Z"/><path class="cls-2" d="M978.1,2657.09c97.4-14,195.16-17.2,293.21-17.66,98,.39,195.82,3.58,293.21,17.66-97.39,14.09-195.16,17.28-293.21,17.67-98-.46-195.81-3.66-293.21-17.67Z"/><path class="cls-2" d="M406.14,2313.88a17.66,17.66,0,0,1-7.22-33.79c.78-.36,79.8-36.21,150.1-103,92-87.43,126.51-184.26,102.66-287.79-65.91-286-113.45-564.52-169.57-993.44-31.46-240.39,10.44-419.52,51.13-527.46,44.43-117.84,96.16-178,98.34-180.54A17.67,17.67,0,1,1,658.23,211c-1.16,1.35-50.75,59.81-92.6,171.6-38.89,103.88-78.87,276.44-48.49,508.6,56,427.71,103.34,705.31,169,990.09,26.55,115.22-12.68,226.58-113.46,322-74.68,70.73-155.89,107.46-159.31,109A17.54,17.54,0,0,1,406.14,2313.88Z"/><path class="cls-2" d="M2131.07,2313.88a17.54,17.54,0,0,1-7.2-1.54c-3.42-1.53-84.63-38.26-159.31-109-100.77-95.45-140-206.81-113.46-322,65.62-284.75,113-562.34,169-990.09,30.39-232.16-9.59-404.72-48.48-508.6-42.13-112.55-92.11-171-92.61-171.62a17.67,17.67,0,0,1,26.67-23.19c2.18,2.51,53.91,62.7,98.33,180.54,40.69,107.94,82.59,287.07,51.13,527.46-56.13,429-103.67,707.49-169.56,993.44-23.86,103.53,10.68,200.36,102.65,287.79,70.3,66.83,149.32,102.68,150.11,103a17.67,17.67,0,0,1-7.23,33.79Z"/><path class="cls-7" d="M1875,2057a17.21,17.21,0,0,1-7-1.47c-322.7-140.32-631-133-832.87-102.17-219.28,33.51-363.93,101.26-365.37,101.94a17.67,17.67,0,0,1-15.15-31.93c6-2.85,149.85-70.34,373.91-104.75,206.75-31.76,522.67-39.39,853.57,104.51a17.67,17.67,0,0,1-7,33.87Z"/><path class="cls-7" d="M1233.59,2484.14a1869.34,1869.34,0,0,1-332.95-29.62c-291.74-52.78-462.89-156.34-470-160.73a17.67,17.67,0,0,1,18.47-30.12c1.7,1,173.82,105,459.55,156.39,263.48,47.42,680.41,58.57,1170.34-157.49a17.67,17.67,0,1,1,14.26,32.33c-220.19,97.1-444.49,157.54-666.69,179.62Q1329.76,2484.15,1233.59,2484.14Z"/><path class="cls-2" d="M1916.28,2806.47a17.66,17.66,0,0,1-17.48-15.27c-12.22-89.21-15.16-194.14-15.86-238.74-61.53,12.1-255.51,43.28-620,43.28-360.39,0-567.21-45.25-636.65-63.74,9.39,91.67,12.13,249.15,12.26,256.5a17.68,17.68,0,0,1-17.37,18h-.31a17.68,17.68,0,0,1-17.66-17.37c0-2-3.44-198-15.14-279a17.67,17.67,0,0,1,23.06-19.29c2.09.69,215.14,69.56,651.81,69.56,437.39,0,631.28-46.43,633.19-46.9a17.68,17.68,0,0,1,21.9,17.16c0,1.4.16,142,15.74,255.74a17.67,17.67,0,0,1-15.1,19.91A18.1,18.1,0,0,1,1916.28,2806.47Z"/><path class="cls-2" d="M828.83,2966.08c-23.86,0-57.56-1.63-105.41-5.57A17.67,17.67,0,0,1,708.69,2950L646,2807a17.67,17.67,0,1,1,32.36-14.18l58.45,133.32c48.06,3.66,101.38,5.67,120.92,3.54,3.47-18.35,10.31-63.52,16-104.44a17.67,17.67,0,1,1,35,4.89c-3.45,24.64-15,106-19.21,118.44C886.53,2957.49,883.62,2966.08,828.83,2966.08Z"/><path class="cls-2" d="M1808.62,2967.54c-24.15,0-66-2.77-140.44-9.68a17.67,17.67,0,0,1-15.76-14.5l-20.05-112.84a17.67,17.67,0,1,1,34.79-6.18l17.69,99.55c54,4.82,110.77,8.68,131.93,8.38,7.3-22.18,25.38-82.74,41.29-137.33a17.67,17.67,0,0,1,33.93,9.89c-41.94,143.93-45.72,150.16-47.15,152.51C1841.26,2963.25,1838.66,2967.54,1808.62,2967.54Z"/><path class="cls-10" d="M2346,1605.76c-116.69-55.08-271.74-6.93-273.49-6.37-1.38.45-85.41,28.66-126.76,82.52a5.21,5.21,0,0,1-7.24,1,5.06,5.06,0,0,1-1-7.15c18.62-24.24,44.8-43.28,69-57.23-14.49-16.24-77.07-72.21-237.44-51.84-107.87,13.69-237.16,59.57-336.52,100.5a4.92,4.92,0,0,1-1.64,2l-.25.17-.1.05c-11.88,7.08-23.62,14.9-35,22.94s-22.66,16.49-33.37,25.51a353.33,353.33,0,0,0-30.73,28.57c-9.53,10.23-18.45,21.1-25.62,33.18,6.41-12.49,14.71-24,23.68-34.86s19-20.92,29.22-30.69,21.09-18.9,32.12-27.8c1.39-1.11,2.81-2.16,4.21-3.26-71,30.57-119.55,55.11-120.72,55.7a5.1,5.1,0,0,1-2.36.57h-6.65a5.18,5.18,0,0,1-2.37-.57c-1.12-.57-45.76-23.15-112.06-52,10.83,8.75,21.46,17.73,31.54,27.32,10.22,9.77,20.24,19.78,29.23,30.69s17.26,22.37,23.67,34.86c-7.17-12.08-16.09-22.95-25.62-33.18a353.33,353.33,0,0,0-30.73-28.57c-10.71-9-22-17.4-33.37-25.51-11.11-7.82-22.53-15.41-34.07-22.33-100.22-41.62-233-89.31-343.34-103.32-160.33-20.36-222.93,35.58-237.44,51.84,24.15,14,50.33,33,68.95,57.23a5.06,5.06,0,0,1-1,7.15,5.21,5.21,0,0,1-7.24-1c-41.36-53.86-125.38-82.07-126.76-82.52-1.74-.56-156.8-48.71-273.4,6.33-5.38,2.44-129.21,60.49-64.13,208q13.64,30.9,33.83,52.52c-.25-4.47-.41-8.92-.48-13.41a239.13,239.13,0,0,1,1-27.55,142.56,142.56,0,0,1,4.89-27.1c2.59-8.78,6.17-17.45,12-24.57-5.09,7.62-7.73,16.39-9.44,25.16a137.9,137.9,0,0,0-2.25,26.76,233.82,233.82,0,0,0,1.53,26.84c.92,8.26,2.18,16.59,3.8,24.61a148.94,148.94,0,0,0,57.11,31.22c28.93,8.46,60.6,8.8,91.27,4a164.78,164.78,0,0,1-9.45-23.86,172.63,172.63,0,0,1-6-26.65,138.94,138.94,0,0,1-1.36-27.09c.19-9,2-17.93,4-26.61-1.21,8.86-2.13,17.74-1.46,26.6a136.28,136.28,0,0,0,3.85,26.16,167.72,167.72,0,0,0,8.19,25,153.75,153.75,0,0,0,11.92,23.06l.13.2a5.31,5.31,0,0,1,.52,1.35c38.37-7.46,74.46-22.55,100.62-39.63,67.75-44.21,78.93-116.9,79-117.63a5.14,5.14,0,0,1,2.3-3.56A5.24,5.24,0,0,1,517,1749c3.43,1,81,23.23,123.17,91,4.51-10,9.52-19.6,14.82-29.14q10.54-18.75,22.62-36.51c8.15-11.76,16.53-23.35,25.64-34.37,8.92-11.15,18.52-21.73,28.27-32.13-9.11,11-18,22.06-26.21,33.67-8.38,11.47-16,23.46-23.33,35.55s-14,24.61-20.1,37.29a336,336,0,0,0-16.1,38.69l-.06.17c-1.82,5.73-52.41,166.67-34.36,300.45a5.11,5.11,0,0,1-3,5.33c-1,.44-59.36,26.92-115.31,76.87-23.61-6.16-55.29-8.41-89.91,5.77-72.08,29.53-106.19,89.81-99,175.78S318.88,2637.49,437.58,2706s202.65,59.2,302.81,26.2a63.66,63.66,0,0,0,22.89-13.22c113.82-52.51,192.64-190.52,206.6-216.33-29.72-18-197.94-131.08-99-321.66,106.91-206,391.87-192.6,394.72-192.43h6.36c2.58-.16,287.51-13.61,394.44,192.44,98.89,190.58-69.32,303.62-99,321.66,13.81,25.53,91.07,160.84,202.88,214.59a63.61,63.61,0,0,0,24.74,15c100.17,33,184.13,42.27,302.82-26.2s126.26-202.6,133.45-288.58-26.91-146.25-99-175.78a140.3,140.3,0,0,0-88.49-6.14c-55.8-49.72-113.86-76.06-114.86-76.5a5.11,5.11,0,0,1-3-5.33c18.2-134.85-33.33-297.23-34.41-300.6v0a336,336,0,0,0-16.1-38.69c-6.15-12.68-12.82-25.15-20.1-37.29s-15-24.08-23.33-35.55c-8.19-11.61-17.1-22.7-26.21-33.67,9.75,10.4,19.35,21,28.27,32.13,9.11,11,17.49,22.61,25.64,34.37s15.59,24,22.62,36.51c5.3,9.54,10.3,19.11,14.82,29.14,42.15-67.74,119.74-90,123.16-91a5.26,5.26,0,0,1,4.22.64,5.1,5.1,0,0,1,2.29,3.56c.11.73,11.29,73.42,79,117.63,26.18,17.08,62.27,32.18,100.65,39.64a5.15,5.15,0,0,1,.26-.93,2.86,2.86,0,0,1,.24-.42l.13-.21a152.79,152.79,0,0,0,11.91-23.06,166.61,166.61,0,0,0,8.2-25,137.06,137.06,0,0,0,3.85-26.16c.67-8.86-.25-17.74-1.46-26.6,2.05,8.68,3.85,17.57,4,26.61a138.94,138.94,0,0,1-1.36,27.09,172.63,172.63,0,0,1-6,26.65,165.35,165.35,0,0,1-9.45,23.87c30.67,4.77,62.34,4.43,91.27-4a148.83,148.83,0,0,0,57.11-31.23c1.62-8,2.88-16.34,3.8-24.6a233.82,233.82,0,0,0,1.53-26.84,137.9,137.9,0,0,0-2.25-26.76c-1.71-8.77-4.35-17.54-9.44-25.16,5.79,7.12,9.36,15.79,11.95,24.57a141,141,0,0,1,4.9,27.1,239.13,239.13,0,0,1,1,27.55c-.07,4.49-.23,8.94-.48,13.41q20.13-21.65,33.83-52.52C2475.25,1666,2351.32,1608.15,2346,1605.76Z"/><path class="cls-9" d="M1647.1,2415.78c49.89-69.48,53.28-146.93,10.08-230.19-103.9-200.19-382.14-187-385-186.89h-6.94c-3.06-.16-281.41-13.21-385.24,186.88-43.21,83.26-39.82,160.71,10.06,230.19,36.73,51.15,86.52,79,89,80.35,2.93,1.41,154.33,73.2,286.2,73.2h6.65c131.86,0,283.27-71.79,286.2-73.2C1560.59,2494.78,1610.37,2466.93,1647.1,2415.78Z"/><path class="cls-5" d="M709.24,2705.55l-.12.09a2.4,2.4,0,0,1-.21.31Z"/><path class="cls-5" d="M426.47,2559.42c1.33,2.68,2.81,5.33,4.21,8a4.21,4.21,0,0,0,0-.52C429.3,2564.41,427.83,2561.92,426.47,2559.42Z"/><path class="cls-5" d="M1891.45,1853a336,336,0,0,0-16.1-38.69q-4.59-9.43-9.56-18.71l-.09-.14h0q-5-9.32-10.46-18.43c-7.34-12.09-15-24.08-23.33-35.55-8.19-11.61-17.1-22.7-26.21-33.67,9.75,10.4,19.35,21,28.27,32.13,9.11,11,17.49,22.61,25.64,34.37,3.73,5.45,7.32,11,10.82,16.63,72-68.4,176.85-125.34,193.49-98.28,14.74,24,68.23,133.33,167.16,139.28a136.72,136.72,0,0,0-1.55-23.87,137.66,137.66,0,0,1,3.88,24,153.21,153.21,0,0,0,46.74-5.44c36.71-9.9,63.78-25.59,83.74-43a53,53,0,0,0-5.08-10,53.77,53.77,0,0,1,5.89,9.24c50.27-44.5,54.73-100,54.73-100l.16.16a129.66,129.66,0,0,0-8.08-16.69c-17.85-11.25-75-43.78-153.35-54.07-88.13-11.57-213.83,6.72-287.06,43.4a173.22,173.22,0,0,0-25.34,26.2,5.21,5.21,0,0,1-7.24,1,5.06,5.06,0,0,1-1-7.15c18.61-24.24,44.8-43.28,69-57.23a116.86,116.86,0,0,0-20-17.31c-51.72-8.91-152.08-17.38-295.56,9.79-204.22,38.68-358.45,143.12-376.55,155.75-3.06,4.15-6,8.39-8.64,12.84,6.41-12.49,14.71-24,23.68-34.86,6-7.28,12.47-14.14,19.14-20.82-19.22,13.58-60.78,41.82-77.07,44.1-18.81-2.63-71.31-39.87-84.22-49.2q6.64,6.46,13,13.19a340,340,0,0,1,30.13,36s-1.21-.86-3.35-2.34a155.78,155.78,0,0,1,8.21,13.92,161.72,161.72,0,0,0-10.68-15.61c-30.41-20.64-179-116.32-372.52-153-151.13-28.62-254.4-17.7-303.39-8.37a114.56,114.56,0,0,0-18,15.89c24.15,14,50.33,33,68.95,57.23a5.06,5.06,0,0,1-1,7.15,5.21,5.21,0,0,1-7.24-1,174.33,174.33,0,0,0-25.31-26.18c-73.23-36.69-199-55-287.11-43.42-78,10.25-135,42.55-153.14,53.93a132.93,132.93,0,0,0-8.13,16.72c.07.82,4.83,55.77,54.74,100a53.61,53.61,0,0,1,5.9-9.26,53.8,53.8,0,0,0-5.09,10c20,17.43,47,33.12,83.73,43a153.34,153.34,0,0,0,46.76,5.44,137.66,137.66,0,0,1,3.88-24,136.72,136.72,0,0,0-1.55,23.87c98.92-6,152.4-115.32,167.13-139.28,16.65-27.06,121.55,29.89,193.51,98.29,3.51-5.62,7.09-11.18,10.83-16.64,8.15-11.76,16.53-23.35,25.64-34.37,8.92-11.15,18.52-21.73,28.27-32.13-9.11,11-18,22.06-26.21,33.67-8.38,11.47-16,23.46-23.33,35.55s-14,24.61-20.1,37.29a336,336,0,0,0-16.1,38.69l-.06.17c-1.82,5.73-52.41,166.67-34.36,300.45a5.11,5.11,0,0,1-3,5.33c-.23.1-3.69,1.67-9.42,4.58,12.08-4.08,18.63-4.63,18.63-4.63s-21.33,32.27-71.55,69.8c-41.82,31.27-71.58,83.52-80.36,100.11,62.81-12.84,150.24,31.7,213.52,114.43a380.07,380.07,0,0,1,22,32.13c21.28,0,122.6-2.55,182.6-51.61-.6-.83-1.21-1.64-1.81-2.47-21.11-16.86-175.45-143.07-209.93-257.12-37-122.49,0-217.32,0-217.32s49.08,165.08,172,308.67c4.54-23.35,13.09-48.22,26.77-74.58,106.91-206,391.87-192.6,394.72-192.43h6.36c2.58-.16,287.51-13.61,394.43,192.44,14.41,27.75,23.11,53.85,27.44,78.27C1819.09,2114.77,1869,1946.85,1869,1946.85s37,94.83,0,217.32-212.4,259.07-212.4,259.07c67.17,55.59,187.32,52.09,187.32,52.09l-18.16,35.56c-19.41,41.7-24.63,73.89-25,97.81.2-4.69.52-9.46,1.08-14.36,5.62-49.37,29-103,65.72-151.1,2.85-3.72,5.76-7.34,8.69-10.9-5.13,2.81-8.1,4.23-8.07,3.47.08-3.09,31.59-37.58,74.95-66.21,43.54-30.88,89.32-46.33,127.56-42.42-9.77-18.18-39-68.18-79.5-98.48-50.21-37.53-71.54-69.8-71.54-69.8s6.58.56,18.71,4.66c-5.77-2.93-9.24-4.51-9.48-4.61a5.11,5.11,0,0,1-3-5.33c18.2-134.85-33.33-297.23-34.41-300.6Z"/><path class="cls-5" d="M1270.54,2463.8c185.5,0,320.32-89.88,414.52-194.68a236.05,236.05,0,0,0-11.32-45.36c-5.36-8.75-121.48-193-405.15-193-282.34,0-398.72,182.54-405.09,192.87a238.41,238.41,0,0,0-10.82,41.73C947,2371.8,1082.86,2463.8,1270.54,2463.8Z"/><path class="cls-5" d="M2015.72,1613.36c2.58-1.39,5.11-2.71,7.6-4-3-.89-8-2.24-14.83-3.81A95.65,95.65,0,0,1,2015.72,1613.36Z"/><path class="cls-5" d="M1832.17,2706a36.26,36.26,0,0,1-4.47-9.42c-11.57-12.49-19.55-28.5-23.73-47.31.29,2.29.5,4.33.56,6.1C1805.11,2671.64,1827.48,2700.14,1832.17,2706Z"/><path class="cls-11" d="M257,1826.67c-36.7-9.9-63.77-25.59-83.73-43a85.09,85.09,0,0,0-4.35,15.16,137.9,137.9,0,0,0-2.25,26.76,233.82,233.82,0,0,0,1.53,26.84c.92,8.26,2.18,16.59,3.8,24.61a148.94,148.94,0,0,0,57.11,31.22c28.93,8.46,60.6,8.8,91.27,4a164.78,164.78,0,0,1-9.45-23.86,172.63,172.63,0,0,1-6-26.65,138.94,138.94,0,0,1-1.36-27.09c0-.86.11-1.71.16-2.56A153.34,153.34,0,0,1,257,1826.67Z"/><path class="cls-11" d="M473.25,1692.65c-14.73,24-68.21,133.31-167.13,139.28,0,.91,0,1.82.09,2.73a136.28,136.28,0,0,0,3.85,26.16,167.72,167.72,0,0,0,8.19,25,153.75,153.75,0,0,0,11.92,23.06l.13.2a5.31,5.31,0,0,1,.52,1.35c38.37-7.46,74.46-22.55,100.62-39.63,67.75-44.21,78.93-116.9,79-117.63a5.11,5.11,0,0,1,2.3-3.56A5.24,5.24,0,0,1,517,1749c3.43,1,81,23.23,123.17,91,4.51-10,9.52-19.6,14.82-29.14q5.67-10.08,11.79-19.87C594.8,1722.54,489.9,1665.59,473.25,1692.65Z"/><path class="cls-11" d="M117.75,1683c-12.79,32-15.21,75,9.4,130.8q13.64,30.9,33.83,52.52c-.25-4.47-.41-8.92-.48-13.41a239.13,239.13,0,0,1,1-27.55,141.78,141.78,0,0,1,4.89-27.1,87.41,87.41,0,0,1,6.06-15.31C122.58,1738.73,117.82,1683.78,117.75,1683Z"/><g class="cls-6"><path class="cls-7" d="M1200.3,1732c3.9,4.14,7.71,8.35,11.32,12.73a236.33,236.33,0,0,1,15.46,20.94c2.14,1.48,3.35,2.34,3.35,2.34A340,340,0,0,0,1200.3,1732Z"/></g><g class="cls-6"><path class="cls-7" d="M1348.6,1723.9q5-5,10.08-9.87c10.26-9.76,21.09-18.9,32.12-27.8,1.39-1.11,2.81-2.16,4.21-3.26-71,30.57-119.55,55.11-120.72,55.7a5.1,5.1,0,0,1-2.36.57h-6.65a5.18,5.18,0,0,1-2.37-.57c-1.12-.57-45.76-23.15-112.06-52,10.83,8.75,21.46,17.73,31.54,27.32,1.65,1.58,3.28,3.17,4.92,4.77,12.91,9.33,65.41,46.57,84.22,49.2C1287.82,1765.72,1329.38,1737.48,1348.6,1723.9Z"/></g><g class="cls-6"><path class="cls-7" d="M1986.53,1601.2c-30.94-21.71-96.26-49.93-217.48-34.53-107.87,13.69-237.16,59.57-336.52,100.5a4.92,4.92,0,0,1-1.64,2l-.25.17-.1.05c-11.87,7.08-23.62,14.9-35,22.94s-22.66,16.49-33.37,25.51a353.33,353.33,0,0,0-30.73,28.57,231,231,0,0,0-17,20.34c18.1-12.63,172.33-117.07,376.55-155.75C1834.45,1583.82,1934.81,1592.29,1986.53,1601.2Z"/></g><g class="cls-6"><path class="cls-7" d="M852.09,1611c193.55,36.66,342.11,132.34,372.52,153-4.68-6.1-9.7-12-14.94-17.57a353.33,353.33,0,0,0-30.73-28.57c-10.71-9-22-17.4-33.37-25.51-11.11-7.82-22.53-15.41-34.07-22.33-100.22-41.62-233-89.31-343.34-103.32-123.87-15.73-189.37,14.08-219.46,35.95C597.69,1593.29,701,1582.37,852.09,1611Z"/></g><g class="cls-6"><path class="cls-7" d="M1865.79,1795.6a1.09,1.09,0,0,0-.08-.15h0Z"/></g><path class="cls-11" d="M2233.42,1832.11c0,.85.14,1.7.16,2.56a138.94,138.94,0,0,1-1.36,27.09,172.63,172.63,0,0,1-6,26.65,165.35,165.35,0,0,1-9.45,23.87c30.67,4.77,62.34,4.43,91.27-4a148.83,148.83,0,0,0,57.11-31.23c1.62-8,2.88-16.34,3.8-24.6a233.82,233.82,0,0,0,1.53-26.84,137.9,137.9,0,0,0-2.25-26.76,85.32,85.32,0,0,0-4.36-15.18c-20,17.45-47,33.14-83.74,43A153.21,153.21,0,0,1,2233.42,1832.11Z"/><path class="cls-11" d="M2364.71,1782.89a86.84,86.84,0,0,1,6.06,15.33,141.8,141.8,0,0,1,4.9,27.1,239.13,239.13,0,0,1,1,27.55c-.08,4.49-.23,8.94-.48,13.41q20.13-21.65,33.83-52.52c24.59-55.76,22.26-98.69,9.54-130.69l-.16-.16S2415,1738.39,2364.71,1782.89Z"/><path class="cls-11" d="M2063.93,1692.65c-16.64-27.06-121.53,29.88-193.49,98.28q6.11,9.81,11.8,19.88c5.3,9.54,10.3,19.11,14.82,29.14,42.15-67.74,119.74-90,123.16-91a5.26,5.26,0,0,1,4.22.64,5.1,5.1,0,0,1,2.29,3.56c.11.73,11.29,73.42,79,117.63,26.17,17.08,62.26,32.18,100.64,39.64a4.45,4.45,0,0,1,.26-.93,2.86,2.86,0,0,1,.24-.42l.13-.21a152.79,152.79,0,0,0,11.91-23.06,166.61,166.61,0,0,0,8.2-25,137.06,137.06,0,0,0,3.85-26.16c.06-.91.05-1.82.09-2.73C2132.16,1826,2078.67,1716.61,2063.93,1692.65Z"/><g class="cls-6"><path class="cls-2" d="M979.08,2496.13c2.93,1.41,154.33,73.2,286.2,73.2h6.65c131.86,0,283.27-71.79,286.2-73.2,2.46-1.35,52.24-29.2,89-80.35,32.78-45.65,45.34-94.75,38-146.66-94.2,104.8-229,194.68-414.52,194.68-187.68,0-323.52-92-417.86-198.39-8.55,53.29,3.87,103.64,37.42,150.37C926.83,2466.93,976.62,2494.78,979.08,2496.13Z"/></g><g class="cls-8"><path class="cls-9" d="M566.13,1655.73c-43.24-36.78-100.31-56-101.45-56.34-1.74-.56-156.8-48.71-273.4,6.33-3,1.34-41.93,19.66-65.4,60.52C144,1654.86,201,1622.56,279,1612.31,367.17,1600.74,492.9,1619,566.13,1655.73Z"/></g><g class="cls-8"><path class="cls-9" d="M2258.17,1612.31c78.36,10.29,135.5,42.82,153.35,54.07-23.44-41-62.57-59.3-65.5-60.62-116.69-55.08-271.74-6.93-273.49-6.37-1.14.37-58.19,19.55-101.42,56.32C2044.34,1619,2170,1600.74,2258.17,1612.31Z"/></g><g class="cls-8"><path class="cls-9" d="M1268.59,2030.81c283.67,0,399.79,184.2,405.15,193a300.6,300.6,0,0,0-16.56-38.17c-103.9-200.19-382.14-187-385-186.89h-6.94c-3.06-.16-281.41-13.21-385.24,186.88a298.87,298.87,0,0,0-16.54,38.09C869.87,2213.35,986.25,2030.81,1268.59,2030.81Z"/></g><path class="cls-12" d="M2193.17,1494.2c-69.28-19.69-176.5-1.16-389.32,54.29s-525.51,181.08-525.51,181.08l-5.41,3-5.41-3S954.82,1603.93,742,1548.49s-320-74-389.33-54.29-109.24,43.91-124.21,82.17v9.17S351.24,1548.64,478,1599s205.3,183.87,332.65,221.83,371.39,94.08,462.29,95.06c90.89-1,334.94-57.1,462.29-95.06s205.89-171.46,332.64-221.83,249.53-13.46,249.53-13.46v-9.17C2302.41,1538.11,2262.45,1513.88,2193.17,1494.2Z"/><path class="cls-11" d="M311.93,2458.28s79.9,210.18,248.39,209.31,124.32-217,124.32-217,139.25,39.16,160.38-97.45c0,0-55.38-127.57-182.49-192.74,0,0-16.77-4.79-18.45-5.11s-17.75-2.31-17.75-2.31l3.47-7.38s-4.34-149,43.43-235.18c0,0-3.28,182.2,176.84,348.95,0,0-18.9,75.85,29.51,150.11S980,2502.19,980,2502.19,885.63,2716,672.9,2750.71,304.12,2646.75,311.93,2458.28Z"/><g class="cls-8"><path class="cls-9" d="M311.65,2439.17s13.74-125.06,99.29-159.8,197.15,33.44,232.33,88.59c0,0-3-44.09-71.66-98l-29.52-24.4s52.54-49.09,79-65.6,50.93-15.75,50.93-15.75-42.25-19.42-78.87-3.5-96.79,65.1-96.79,65.1-63.25-7.6-121,29.8S303.26,2381,311.65,2439.17Z"/></g><g class="cls-6"><path class="cls-2" d="M1953.11,1574.12c-177.17,66-247.81,160.09-401.83,221.33s-282.69,72.83-282.69,72.83-128.68-11.58-282.7-72.83-224.65-155.3-401.83-221.33-279.21-5.77-279.21-5.77c87.85,0,157.07,24.32,196.65,42.57A218.22,218.22,0,0,1,557,1648c34,31,107.82,95.81,166,129.41,78.17,45.17,142.64,61.88,271.09,91.17S1268.59,1915,1268.59,1915s146-17.17,274.47-46.47,192.92-46,271.09-91.17c58.16-33.6,132-98.42,166-129.41a218.22,218.22,0,0,1,55.54-37c39.58-18.25,108.81-42.57,196.66-42.57C2232.33,1568.35,2130.28,1508.08,1953.11,1574.12Z"/></g><path class="cls-11" d="M2225.24,2458.28s-79.9,210.18-248.39,209.31-124.32-217-124.32-217-139.25,39.16-160.38-97.45c0,0,55.39-127.57,182.49-192.74,0,0,16.78-4.79,18.45-5.11s17.75-2.31,17.75-2.31l-3.47-7.38s4.34-149-43.43-235.18c0,0,3.28,182.2-176.83,348.95,0,0,18.9,75.85-29.52,150.11s-100.37,92.69-100.37,92.69,94.32,213.82,307.06,248.52S2233.06,2646.75,2225.24,2458.28Z"/><g class="cls-8"><path class="cls-9" d="M2225.52,2439.17s-13.74-125.06-99.29-159.8-197.15,33.44-232.32,88.59c0,0,3-44.09,71.65-98l29.53-24.4s-52.55-49.09-79-65.6-50.92-15.75-50.92-15.75,42.24-19.42,78.86-3.5,96.79,65.1,96.79,65.1,63.25-7.6,121,29.8S2233.91,2381,2225.52,2439.17Z"/></g><path class="cls-2" d="M310.64,1920.7c-13.77-35.61-16.76-76.82-3-112.64-1.52,32.56,10.45,64.34,29.67,90.09a42.22,42.22,0,0,0,3.5,4.19,18.24,18.24,0,0,1,.76,25.78c-9.54,10.37-26.88,5.78-31-7.42Z"/><path class="cls-2" d="M149.86,1882.69c.76-35.92,3.49-81.46,28.53-109-11.41,24.7-6.16,52.65-.8,78.17a241.66,241.66,0,0,0,7.09,24.85c7.77,26.84-33.11,33.93-34.82,6Z"/><path class="cls-13" d="M2014.33,1620.05"/><path class="cls-7" d="M1271.93,1751.81h-6.65a17.61,17.61,0,0,1-7.49-1.67c-2.88-1.34-291-135.48-542.7-190.13a17.67,17.67,0,0,1,7.5-34.53c238.84,51.86,509.15,173.82,546,190.72,36.54-17.11,300.21-138.43,524.07-184a17.67,17.67,0,0,1,7,34.63c-235.55,47.89-517.3,181.86-520.12,183.21A17.76,17.76,0,0,1,1271.93,1751.81Z"/><path class="cls-13" d="M522.88,1620.05"/><path class="cls-2" d="M1865.59,2768.7a18,18,0,0,1-4.16-.49c-201.44-48.64-286.07-193.39-310-244-44.05,19.24-166.57,67.9-279.46,67.9h-6.65c-113.47,0-236.67-49.16-280.14-68.2-27,52.44-123.86,213.59-309.36,244.24a17.67,17.67,0,0,1-5.76-34.87c198.71-32.83,289.61-237.56,290.5-239.63a17.68,17.68,0,0,1,23.87-8.89c1.5.72,151.34,72,280.89,72h6.65c129.55,0,279.39-71.29,280.89-72a17.67,17.67,0,0,1,24.25,9.84c.67,1.83,71.1,185.77,292.65,239.26a17.67,17.67,0,0,1-4.13,34.84Z"/><path class="cls-2" d="M2047.18,2249a17.57,17.57,0,0,1-11.74-4.47c-54.09-48.16-111.06-73.84-111.64-74.1a17.69,17.69,0,0,1-10.32-18.5c17.89-132.58-33.43-293.52-34-295.13a17.64,17.64,0,0,1,1.28-13.86c43.06-79.44,132.3-105,136.08-106.06a17.66,17.66,0,0,1,22.23,14.53c.09.62,10.79,68,73.46,108.87,47.12,30.75,127.47,55,192.54,35.73,42-12.46,73.44-41.85,93.51-87.34,60.2-136.48-52.88-189.26-57.73-191.44-112.59-53.16-262.21-5.3-263.71-4.81a17.67,17.67,0,1,1-11-33.59c6.66-2.17,164.62-52.65,289.49,6.31,1.22.54,149.45,69.59,75.26,237.79-24.45,55.42-63.4,91.41-115.78,107-75.82,22.51-168.19-5-221.91-40-53.54-34.94-75.56-84.71-84.13-112.6-24,10.15-67.63,33.39-93.65,76.21,10,33.38,47.28,168.25,34.54,290.39a532.5,532.5,0,0,1,108.9,74.26,17.67,17.67,0,0,1-11.75,30.87Z"/><path class="cls-2" d="M496.4,2243.44a17.67,17.67,0,0,1-11.51-31.08,535.36,535.36,0,0,1,102.29-68.49c-12.74-122.14,24.51-257,34.54-290.39-26-42.81-69.6-66-93.65-76.2-8.57,27.88-30.6,77.65-84.12,112.59-53.73,35.05-146.09,62.53-221.92,40-52.38-15.55-91.34-51.54-115.78-107-74.19-168.2,74-237.25,75.55-237.93,124.51-58.78,283.14-9.44,289.83-7.3a17.67,17.67,0,0,1-10.71,33.67c-1.5-.47-152.24-47.2-264.32,5.72-5.07,2.33-117.87,55.9-58,191.58,20.07,45.49,51.53,74.88,93.51,87.34,65.06,19.32,145.42-5,192.54-35.73,62.66-40.9,73.37-108.25,73.47-108.93a17.71,17.71,0,0,1,22.22-14.47c3.78,1,93,26.62,136.08,106.06a17.64,17.64,0,0,1,1.28,13.86c-.52,1.61-51.84,162.55-33.95,295.13a17.67,17.67,0,0,1-10.34,18.51c-.51.23-53.34,24-105.5,68.74A17.58,17.58,0,0,1,496.4,2243.44Z"/><path class="cls-2" d="M2196.37,1902.34c21.57-26,34.65-60.07,33.17-94.28,14,36.57,10.84,78.89-4,114.94-13.63,25.75-48.94.78-29.18-20.66Z"/><path class="cls-2" d="M2352.53,1876.67a254.83,254.83,0,0,0,11.74-50.82c1.93-17.56,2.55-35.78-5.45-52.2,6.62,6.46,11.33,15,15,23.8,10.66,27.35,13.42,56.2,13.54,85.56-2.13,27.62-42.56,20.3-34.82-6.34Z"/><path class="cls-2" d="M1560.49,2518.35a17.67,17.67,0,0,1-8.39-33.23c8.14-4.41,191.08-106.61,94-293.72-100-192.72-370.44-180.31-373.19-180.15-.32,0-.65,0-1,0h-6.65l-1,0c-2.69-.17-273.17-12.56-373.17,180.15-97.17,187.27,86.16,289.48,94,293.74a17.67,17.67,0,0,1-16.77,31.1c-2.24-1.2-221.93-122.73-108.6-341.12,109.35-210.72,388-200.09,406-199.18h5.71c18-.92,296.65-11.53,406,199.18,113.33,218.39-106.36,339.92-108.6,341.12A17.62,17.62,0,0,1,1560.49,2518.35Z"/><path class="cls-2" d="M602.25,2137.07c34.79-2.4,69.26,13.48,94.73,35.92,8.08,6.9,15.07,15,21.87,23-8.67-5.75-17.34-11.39-26.74-15.63-22-10.44-46.65-15.56-70.48-11.88-3.81.74-8.26,1.4-11.44,3-22.9,4.55-30.55-28.49-7.94-34.44Z"/><path class="cls-2" d="M1922.83,2171c-28.42-8.91-60.75-3.41-88,8.42-4.25,1.84-8.32,4.06-12.56,6.13,6.66-6.67,13.54-13.33,21.25-18.91,24.27-18.11,54.61-30.58,85.42-30.45,22.87,4.74,17,38.13-6.09,34.81Z"/><path class="cls-2" d="M609.41,2774.73a348.63,348.63,0,0,1-68.94-6.91c-168-33.81-258.18-164.38-253.88-367.66,1.83-86.43,52.75-159.2,126.71-181.08,86.44-25.55,181.88,23.73,255.29,131.89a17.67,17.67,0,0,1-29.24,19.84c-65.3-96.19-144-139.11-216-117.84-59.15,17.5-99.9,77-101.4,147.94-2.76,130.32,34.13,293.75,225.53,332.27,172.33,34.67,302.61-91,303.9-92.33A17.67,17.67,0,0,1,876.18,2666C871.09,2671,764.16,2774.73,609.41,2774.73Z"/><path class="cls-2" d="M524.55,2258.43c-30,21.56-51.74,56.86-51.08,94.73-9.75-30.07-4.39-63.54,9.31-91.85,5.35-10.88,11.06-21,19.11-30.45,19.73-20.61,46.71,12.17,22.66,27.57Z"/><path class="cls-2" d="M433.34,2251.24c-29.79,30.41-55.9,70-56.13,114.14-10.66-40.27,2.08-83.14,19.64-119.81a182.41,182.41,0,0,1,9.14-16.81c15.31-22.07,46.05,3.15,27.35,22.48Z"/><path class="cls-2" d="M1927.42,2774.73c-154.78,0-261.69-103.71-266.77-108.74a17.66,17.66,0,0,1,24.82-25.14h0c1.3,1.28,131.6,127,303.91,92.33,191.39-38.52,228.29-201.95,225.53-332.27-1.51-71-42.26-130.44-101.41-147.94-72-21.29-150.72,21.66-216,117.84a17.67,17.67,0,1,1-29.24-19.84c73.42-108.15,168.86-157.44,255.29-131.89,74,21.88,124.88,94.65,126.71,181.08,4.3,203.28-85.87,333.85-253.89,367.66A348.53,348.53,0,0,1,1927.42,2774.73Z"/><path class="cls-2" d="M2036.42,2232.62c25.86,33.49,40,79.44,26.94,120.54.51-29.06-12.07-56.39-31.46-77.3-5.87-6.24-12.61-12.83-19.62-17.43-25.09-16.63,5.25-49.65,24.14-25.81Z"/><path class="cls-2" d="M2131.07,2229.15a253.38,253.38,0,0,1,27.47,66.75c5.49,22.69,7.25,47,1.08,69.48.15-22.56-7.1-43.76-17.59-63.18-10.37-18.45-23.53-36.32-38.54-51-18.87-19.56,12.58-44.8,27.58-22.09Z"/><path class="cls-2" d="M1271.93,1933a15.93,15.93,0,0,1-2-.11c-14.21-1.57-349.72-39.51-496.6-108.87-102.13-48.23-184.44-121.5-224.42-160.88A213.76,213.76,0,0,0,462.14,1611c-59.14-18.14-148.06-33.8-235.78-5.48a17.67,17.67,0,0,1-22-23c2.37-6.39,61.15-156,315.43-101.25l51.09,11c198.6,42.61,239.93,51.47,393.53,103.85,143.51,48.93,275.91,105.14,307.51,118.76,31.59-13.62,164-69.83,307.51-118.76,153.59-52.38,194.92-61.24,393.49-103.84l51.12-11,3.72,17.27-3.72-17.27c254.26-54.71,313.06,94.86,315.44,101.25a17.67,17.67,0,0,1-22,23c-133.79-43.19-272,17.25-293.47,27.35-17.11,19.16-116.6,126.48-253.56,191.16-146.88,69.36-482.38,107.3-496.59,108.87A15.93,15.93,0,0,1,1271.93,1933ZM329.15,1554.67c54.81,0,104.94,10.78,143.36,22.56A249.15,249.15,0,0,1,573.76,1638c38.38,37.8,117.3,108.1,214.71,154.1,136,64.2,455.37,102.23,483.46,105.48,28.09-3.25,347.49-41.28,483.46-105.48,140.9-66.55,243.36-183.95,244.38-185.13a17.69,17.69,0,0,1,5.34-4.19c6-3.06,135.48-67.81,277.8-42.2-32.32-33.93-104.1-76.4-251.42-44.71l-51.15,11c-196.89,42.24-237.87,51-389.49,102.73-162.33,55.34-310.35,120.11-311.82,120.75a17.63,17.63,0,0,1-14.2,0c-1.47-.64-149.5-65.41-311.82-120.75-151.64-51.7-192.61-60.49-389.53-102.74l-51.11-11c-147.3-31.68-219.09,10.77-251.43,44.73A386.22,386.22,0,0,1,329.15,1554.67Z"/><path class="cls-2" d="M1896.35,1869a17.68,17.68,0,0,1-15.72-9.58l-47.39-92.08a17.67,17.67,0,0,1,31.42-16.18l47.39,92.08a17.68,17.68,0,0,1-15.7,25.76Z"/><path class="cls-2" d="M640.86,1869a17.68,17.68,0,0,1-15.65-25.84l49.58-95.06a17.66,17.66,0,1,1,31.32,16.34l-49.58,95.06A17.66,17.66,0,0,1,640.86,1869Z"/><path class="cls-10" d="M1748.12,1074.31a4.48,4.48,0,0,1-2.27-4.06c.11-2.82,8.15-282.34-157.81-343-166.32-60.81-244.23,33.47-315.67,144.13l0,0a4.49,4.49,0,0,1-.65.66,4.4,4.4,0,0,1-.62.6l0,0a4.66,4.66,0,0,1-.58.23,4.71,4.71,0,0,1-1,.39,4.38,4.38,0,0,1-.81,0,4,4,0,0,1-.91,0,4.38,4.38,0,0,1-.91-.35,5.32,5.32,0,0,1-.66-.26s0,0,0,0a28,28,0,0,1-1.26-1.26s0,0,0,0c-71.44-110.66-149.33-205-315.67-144.13-166,60.69-157.91,340.21-157.81,343a4.49,4.49,0,0,1-2.26,4.06c-65.43,37.24-145.72,115-156.71,211.65-8.14,71.57,23.23,140.54,93.25,205,192.41,177.09,538.35,182.88,543,182.94s350.55-5.85,543-182.94c70-64.44,101.4-133.41,93.26-205C1893.84,1189.33,1813.54,1111.55,1748.12,1074.31ZM1200.05,1135c8.27-12.08,54.19-10.34,68.55-9.49,14.38-.85,60.3-2.58,68.56,9.49,3.3,4.83,4,12.79-30.16,46.34-17.07,16.78-35.3,32.4-35.48,32.56a4.47,4.47,0,0,1-5.83,0c-.18-.16-18.41-15.78-35.48-32.56C1196.08,1147.83,1196.75,1139.87,1200.05,1135Zm277.27,98.8a237.58,237.58,0,0,1-24.69,30.42c-.73,11.73-6.09,75.07-38.68,115.27a4.5,4.5,0,0,1-3.49,1.66,3.86,3.86,0,0,1-.58,0,4.49,4.49,0,0,1-3.51-2.61l-2.68-6c-13.22,30.5-58.64,120.35-135.09,120.35s-121.86-89.85-135.08-120.35l-2.68,6a4.48,4.48,0,0,1-3.51,2.61,3.77,3.77,0,0,1-.58,0,4.46,4.46,0,0,1-3.48-1.66c-32.6-40.2-38-103.52-38.69-115.27a237.58,237.58,0,0,1-24.69-30.42,4.49,4.49,0,0,1,7.49-4.94c.48.73,48.36,72.48,99,68.64,28.92-2.18,47.1-16,63.14-28.18,13.22-10,24.64-18.73,39.09-18.73s25.88,8.68,39.11,18.73c16,12.19,34.21,26,63.12,28.18,50.65,3.81,98.52-67.91,99-68.64a4.49,4.49,0,0,1,7.49,4.94Z"/><ellipse class="cls-9" cx="1268.61" cy="1309.28" rx="260.3" ry="214.55"/><path class="cls-14" d="M1947.92,754.35a4.48,4.48,0,0,1,2.75-8c20.14,0,73-4.93,75.44-27.28,3.3-29.69-21.31-71.39-99.66-100.37a172,172,0,0,1-20.34,35.4c-9,12.07-19.7,23-32.13,31.63a108.86,108.86,0,0,1-41.08,17.74c-14.68,3-29.79,2.62-44.35.14,14.67,1.75,29.65,1.3,43.86-2.33a105.37,105.37,0,0,0,38.92-19.17,134.91,134.91,0,0,0,29.29-31.9,162.8,162.8,0,0,0,19.07-38.37c.76-3.92,9.57-51.76-1.51-105-15.31-73.56-59.37-122.1-131-144.26-138.55-42.88-200.58,89-204.61,98a188.54,188.54,0,0,0-7.28,47.94c-.39,16.35,1.3,32.86,6,48.58a120.46,120.46,0,0,0,22.86,43.33c10.5,12.77,23.89,23.08,38.44,31.18-14.89-7.43-28.86-17.19-40.14-29.71a123.86,123.86,0,0,1-25.43-43.43c-5.59-16-8.11-33-8.47-50a197.63,197.63,0,0,1,4.67-46.92c-17.34-8-111.47-46.67-304.67-46.67s-287.32,38.7-304.66,46.67a197.63,197.63,0,0,1,4.67,46.92c-.35,16.94-2.88,33.94-8.47,50a123.86,123.86,0,0,1-25.43,43.43c-11.28,12.52-25.25,22.28-40.14,29.71,14.55-8.1,27.94-18.41,38.44-31.18A120.46,120.46,0,0,0,955.87,557c4.71-15.72,6.4-32.23,6-48.58a188.54,188.54,0,0,0-7.28-47.94c-4-9-66.11-140.85-204.61-98-71.59,22.16-115.65,70.7-131,144.26-11.07,53.22-2.29,101-1.52,105a162.9,162.9,0,0,0,19.08,38.38,134.91,134.91,0,0,0,29.29,31.9,105.34,105.34,0,0,0,38.93,19.17c14.2,3.63,29.18,4.08,43.85,2.33-14.56,2.48-29.67,2.82-44.35-.14a108.79,108.79,0,0,1-41.08-17.74c-12.43-8.58-23.09-19.56-32.13-31.63a172,172,0,0,1-20.34-35.4c-78.36,29-103,70.68-99.66,100.37,2.48,22.35,55.3,27.27,75.44,27.28a4.48,4.48,0,0,1,2.75,8c-135.6,104.91-190.88,263.43-191.1,311.85,0,9,1.88,10.77,1.9,10.78,13,7.64,84.47-13.22,126.47-28.17a4.48,4.48,0,0,1,4.77,7.3c-89.42,95.45-102.44,203.67-97.62,277.64,3.87,59.31,19.62,97.68,23.88,101.17,4.53,2.9,29.5-23.21,54.57-61.27a4.47,4.47,0,0,1,3.74-2,4.35,4.35,0,0,1,1.23.17,4.49,4.49,0,0,1,3.26,4.18c2.64,90.06,105.2,312.59,392.68,387.2,157.75,40.94,247.07,108.6,294.23,158.15,36.64,38.51,54.1,71.84,61.3,88.46,7.21-16.62,24.67-50,61.31-88.46,47.16-49.55,136.48-117.21,294.23-158.15,287.47-74.61,390-297.14,392.68-387.2a4.5,4.5,0,0,1,8.24-2.34c25.06,38,50,64.09,54.66,61.2,4.16-3.42,19.91-41.77,23.77-101.06,4.83-74-8.19-182.22-97.62-277.68a4.49,4.49,0,0,1,4.78-7.3c42,15,113.48,35.82,126.5,28.16,0,0,1.91-1.77,1.87-10.77C2138.8,1017.78,2083.52,859.26,1947.92,754.35Zm-297.86-242c8.86-19.31,25.49-33.62,46.81-40.3s44.44-4.94,65.55,4.75c43.74,20.08,64.51,68.7,46.3,108.37-8.87,19.3-25.49,33.61-46.81,40.3a87.9,87.9,0,0,1-26.25,4,94.29,94.29,0,0,1-39.31-8.73C1652.62,600.61,1631.85,552,1650.06,512.32ZM728.49,585.15c-18.21-39.68,2.56-88.3,46.3-108.38s94.14-4.13,112.36,35.54h0c18.21,39.67-2.55,88.29-46.3,108.37a94,94,0,0,1-39.23,8.68C770.31,629.37,741.37,613.18,728.49,585.15Zm1089.15,912.39c-195.29,179.74-545.48,185.28-549,185.31h-.09c-3.51,0-353.7-5.57-549-185.31-72.25-66.49-104.58-138-96.1-212.59,11.24-98.83,92-178.31,158.86-217.1-.23-13.87-.25-78.65,16.43-148.73,25-104.94,75.92-174.22,147.33-200.32,169.61-62,250,30.61,322.51,141.89,72.48-111.28,152.88-203.92,322.52-141.89,71.41,26.1,122.35,95.38,147.33,200.32,16.69,70.08,16.66,134.86,16.43,148.73,66.82,38.79,147.63,118.27,158.87,217.1C1922.22,1359.52,1889.89,1431.05,1817.64,1497.54Z"/><path class="cls-10" d="M951.6,573.34s-8.86,28.64-48.15,53.4-130.23,93.88-196.68,75-97.32-75.07-97.65-131,5.5-132.59,91.19-191.94,179.78-24.6,220.89,23.45,44.14,75,44.07,109.72S951.6,573.34,951.6,573.34Z"/><path class="cls-10" d="M1585.31,573.34s8.87,28.64,48.15,53.4,130.23,93.88,196.69,75,97.32-75.07,97.64-131-5.5-132.59-91.19-191.94-179.78-24.6-220.89,23.45-44.13,75-44.07,109.72S1585.31,573.34,1585.31,573.34Z"/><path class="cls-9" d="M1094.52,1274c2.37,20.54,9.69,63.22,31.25,93.92L1153.6,1306C1131.33,1303,1110.72,1288.94,1094.52,1274Z"/><path class="cls-2" d="M1370.16,1306.49c-31.56-2.38-51.7-17.69-67.88-30-11.94-9.08-22.24-16.91-33.68-16.91s-21.73,7.83-33.66,16.9c-16.19,12.3-36.33,27.61-67.89,30-1.3.09-2.6.13-3.89.14l-24.58,54.69a308,308,0,0,0,22,43.62c13.49-8,58.91-32.72,108-32.72s94.52,24.67,108,32.72a307.55,307.55,0,0,0,22-43.62l-24.58-54.69C1372.76,1306.62,1371.46,1306.58,1370.16,1306.49Z"/><path class="cls-15" d="M1165.39,1412.55c22,33.84,56.89,71.41,103.21,71.41s81.2-37.57,103.22-71.41c-13.09-7.68-57.16-31.36-103.22-31.36S1178.48,1404.87,1165.39,1412.55Z"/><path class="cls-16" d="M879,516.06c-11.36-24.75-37-39-64.93-39a85.23,85.23,0,0,0-35.53,7.87c-39.24,18-58,61.29-41.88,96.47s61.21,49.14,100.46,31.13S895.14,551.24,879,516.06Z"/><path class="cls-2" d="M1268.6,1204.61c29.88-25.87,60.68-57,60.92-64.79-4.55-5.1-34.68-6.86-60.64-5.29h-.55c-26-1.58-56.09.19-60.64,5.29C1207.93,1147.6,1238.73,1178.74,1268.6,1204.61Z"/><path class="cls-9" d="M1411.45,1368c21.56-30.71,28.88-73.39,31.24-93.93-16.2,14.92-36.81,28.94-59.08,32Z"/><path class="cls-16" d="M1700.1,612.53c19.09,8.77,40.09,10.31,59.12,4.34,18.87-5.91,33.55-18.51,41.34-35.47,16.15-35.18-2.64-78.46-41.88-96.47-19.1-8.77-40.1-10.3-59.12-4.34s-33.56,18.51-41.34,35.47C1642.07,551.24,1660.86,594.52,1700.1,612.53Z"/><path class="cls-5" d="M1363,1296.59c2.55.4,5.15.74,7.88,1,11.62.87,23.09-2.26,33.87-7.56C1387,1294.93,1373.73,1296.78,1363,1296.59Z"/><path class="cls-5" d="M1329.52,1139.82c-4.55-5.1-34.68-6.86-60.64-5.29h-.55c-26-1.58-56.09.19-60.64,5.29.24,7.78,31,38.92,60.91,64.79C1298.48,1178.74,1329.28,1147.6,1329.52,1139.82Z"/><path class="cls-5" d="M1094.52,1274c2.37,20.54,9.69,63.22,31.25,93.92L1153.6,1306C1131.33,1303,1110.72,1288.94,1094.52,1274Z"/><path class="cls-5" d="M1499.34,1776.5c-132.88,38.22-230.73,161.26-230.73,161.26s-97.86-123-230.74-161.26S668,1686.38,567.64,1514.38c55.27,94.76,163.17,201.5,345.43,248.81,157.75,40.94,247.07,108.6,294.23,158.15,36.64,38.51,54.1,71.84,61.3,88.46,7.21-16.62,24.67-50,61.31-88.46,47.16-49.55,136.48-117.21,294.23-158.15,182.12-47.27,290-153.9,345.31-248.61C1869,1686.42,1632.15,1738.31,1499.34,1776.5Z"/><path class="cls-2" d="M1268.6,1486.69c-48.11,0-83.92-39.5-105.5-72.65l-1.56-2.39,2.47-1.45c12.68-7.45,57.7-31.74,104.59-31.74s91.92,24.29,104.6,31.74l2.47,1.45-1.56,2.39C1352.54,1447.18,1316.72,1486.69,1268.6,1486.69Zm-99.34-73.22c21,31.48,54.82,67.76,99.34,67.76S1347,1445,1368,1413.47c-15-8.53-56.48-29.55-99.35-29.55S1184.3,1404.94,1169.26,1413.47Z"/><path class="cls-5" d="M1700.1,612.53c19.09,8.77,40.09,10.31,59.12,4.34,18.87-5.91,33.55-18.51,41.34-35.47,16.15-35.18-2.64-78.46-41.88-96.47-19.1-8.77-40.1-10.3-59.12-4.34s-33.56,18.51-41.34,35.47C1642.07,551.24,1660.86,594.52,1700.1,612.53Z"/><path class="cls-5" d="M881,521.06c-14.54-10.84-51.89-33-88.3-8.23-46,31.38-37.95,90.51-37.78,91.75,21.34,17.09,53.34,21.21,82.23,7.95C874.52,595.36,893.26,555.25,881,521.06Z"/><path class="cls-5" d="M2067.78,1395.67c-5.67,6-28.08-8.76-39.13-16.67,23.81,35.1,46.62,58.61,51.07,55.85,4.16-3.42,19.91-41.77,23.77-101.06,4.55-69.64-6.74-169.63-82.67-260.75.44,1,23.3,52.5,47,124.75C2091.66,1270.75,2075.37,1387.63,2067.78,1395.67Z"/><path class="cls-5" d="M469.44,1395.67c-7.6-8-23.89-124.92,0-197.88,23.71-72.43,46.63-124,47-124.76-75.93,91.11-87.23,191.09-82.69,260.72,3.87,59.31,19.62,97.68,23.88,101.17,4.32,2.76,27.16-20.81,51-55.92C497.51,1386.91,475.1,1401.65,469.44,1395.67Z"/><path class="cls-5" d="M2107.69,1076.35c-1.23-.28-12.4-2.83-26-5.77C2091,1073,2099.82,1074.94,2107.69,1076.35Z"/><path class="cls-5" d="M1947.92,754.35a4.48,4.48,0,0,1,2.75-8c15,0,48.32-2.76,65.23-13.47-3.18-11.41-12.19-39-28.46-54.13-17.72-16.49-60.85-32.1-73.39-36.41-2.51,4-5.12,7.94-7.94,11.76-9,12.07-19.7,23-32.13,31.63a108.86,108.86,0,0,1-41.08,17.74c-14.68,3-29.79,2.62-44.35.14,14.67,1.75,29.65,1.3,43.86-2.33a105.37,105.37,0,0,0,38.92-19.17s42.86-71.11,18.54-173.59-159.8-132-228.41-93.8c-59.26,33-71.26,133.32-73.43,160.08a118.48,118.48,0,0,0,16.17,25.58c10.5,12.77,23.89,23.08,38.44,31.18-14.89-7.43-28.86-17.19-40.14-29.71a121,121,0,0,1-14.92-20.37c-3.74-4.9-6.58-11.29-8.77-18.32-.6-1.57-1.2-3.15-1.74-4.74-5.59-16-8.11-33-8.47-50-.06-3.38,0-6.75.11-10.11-244.57-92.07-565-9.28-600.2.3.09,3.26.16,6.53.1,9.81-.35,16.94-2.88,33.94-8.47,50a123.86,123.86,0,0,1-25.43,43.43c-11.28,12.52-25.25,22.28-40.14,29.71,14.55-8.1,27.94-18.41,38.44-31.18a118,118,0,0,0,14.62-22.45c.07-.88,4.58-62.65-31.06-128.76-35.9-66.58-163.86-90.9-235.65,0S649.65,659,649.65,659a8.76,8.76,0,0,1-6.29.43,127.84,127.84,0,0,0,22.52,22.61,105.34,105.34,0,0,0,38.93,19.17c14.2,3.63,29.18,4.08,43.85,2.33-14.56,2.48-29.67,2.82-44.35-.14a108.79,108.79,0,0,1-41.08-17.74c-12.43-8.58-23.09-19.56-32.13-31.63a179,179,0,0,1-10-15c-4.92,1.49-28.33,9.29-54.29,30.11-24.25,19.45-40.72,52.8-45.64,63.64,16.88,10.75,50.25,13.51,65.32,13.52a4.48,4.48,0,0,1,2.75,8c-135.6,104.91-190.88,263.43-191.1,311.85,0,9,1.88,10.77,1.9,10.78,4.33,2.55,15.2,1.92,29.28-.6,0-.1,4.61-57.25,17.63-103S492.45,832.15,551.51,796c0,0-70.35,143.31-59.93,172.84s92.07,2.6,92.07,30.39S494.19,1244,504.61,1274s45.16,4.82,54.72,16.11,41.11,226.1,219.44,330.32,408.32,117.67,489.84,199.18c81.51-81.51,311.5-95,489.83-199.18s209.89-319,219.45-330.32,44.29,13.9,54.71-16.11-79-247-79-274.84,81.64-.86,92.06-30.39S1985.7,796,1985.7,796c59.06,36.19,91.48,131.73,104.51,177.47s17.61,102.77,17.63,103c14.09,2.51,25,3.14,29.31.59,0,0,1.91-1.77,1.87-10.77C2138.8,1017.78,2083.52,859.26,1947.92,754.35Zm-297.86-242c8.86-19.31,25.49-33.62,46.81-40.3s44.44-4.94,65.55,4.75c43.74,20.08,64.51,68.7,46.3,108.37-8.87,19.3-25.49,33.61-46.81,40.3a87.9,87.9,0,0,1-26.25,4,94.29,94.29,0,0,1-39.31-8.73C1652.62,600.61,1631.85,552,1650.06,512.32ZM728.49,585.15c-18.21-39.68,2.56-88.3,46.3-108.38s94.14-4.13,112.36,35.54h0c18.21,39.67-2.55,88.29-46.3,108.37a94,94,0,0,1-39.23,8.68C770.31,629.37,741.37,613.18,728.49,585.15Zm1089.15,912.39c-195.29,179.74-545.48,185.28-549,185.31h-.09c-3.51,0-353.7-5.57-549-185.31-72.25-66.49-104.58-138-96.1-212.59,11.24-98.83,92-178.31,158.86-217.1-.23-13.87-.25-78.65,16.43-148.73,25-104.94,75.92-174.22,147.33-200.32,169.61-62,250,30.61,322.51,141.89,72.48-111.28,152.88-203.92,322.52-141.89,71.41,26.1,122.35,95.38,147.33,200.32,16.69,70.08,16.66,134.86,16.43,148.73,66.82,38.79,147.63,118.27,158.87,217.1C1922.22,1359.52,1889.89,1431.05,1817.64,1497.54Z"/><path class="cls-5" d="M955.87,557a139.54,139.54,0,0,0,3.83-16.63,207.4,207.4,0,0,1-11.86,37.09A122,122,0,0,0,955.87,557Z"/><path class="cls-5" d="M455.55,1070.58c-14,3-25.36,5.62-26.09,5.78C437.34,1075,446.22,1073,455.55,1070.58Z"/><path class="cls-5" d="M768.35,1411.17C866.78,1534.77,1034.69,1595,1268.6,1595s403-85.12,495.63-162.41,104.28-185.9,71.25-287.93a365.31,365.31,0,0,0-87.36-70.34,4.48,4.48,0,0,1-2.27-4.06c0-.7.55-18.7-1.27-46.25,0,0-50.12-234.12-196-264.51-145.22-30.26-265.86,96.62-267,97.82q-4.62,7-9.19,14l0,0a4.49,4.49,0,0,1-.65.66,4.4,4.4,0,0,1-.62.6l0,0a4.66,4.66,0,0,1-.58.23,4.71,4.71,0,0,1-1,.39,4.38,4.38,0,0,1-.81,0,4,4,0,0,1-.91,0,4.38,4.38,0,0,1-.91-.35,5.32,5.32,0,0,1-.66-.26s0,0,0,0a28,28,0,0,1-1.26-1.26s0,0,0,0c-85.7-120-203.52-151.81-309.47-99.7s-158.07,264-158.07,264a13.89,13.89,0,0,1-5-5.85c-1.39,24.23-.95,39.78-.92,40.43a4.49,4.49,0,0,1-2.26,4.06,364.92,364.92,0,0,0-87.36,70.34S669.92,1287.56,768.35,1411.17Zm292.81-183.54a4.49,4.49,0,0,1,6.22,1.27c0,.08.64,1,1.67,2.41,1.23-3.92,2.7-8.33,2.7-8.33s47.76,47.77,105.08,29.53,71-54.47,72.91-52.72h0c-5.91-5.38-12.8-11.8-19.53-18.41-34.13-33.55-33.46-41.51-30.16-46.34,8.27-12.08,54.19-10.34,68.55-9.49,14.38-.85,60.3-2.58,68.56,9.49,3.3,4.83,4,12.79-30.16,46.34-7.12,7-14.42,13.77-20.55,19.33h0s15,50.39,88.4,56c48.45,3.67,75.94-9.91,89-19.56,3.71-4.87,5.84-8,5.94-8.2a4.49,4.49,0,0,1,7.49,4.94,237.58,237.58,0,0,1-24.69,30.42c-.73,11.73-6.09,75.07-38.68,115.27a4.5,4.5,0,0,1-3.49,1.66,3.86,3.86,0,0,1-.58,0,4.49,4.49,0,0,1-3.51-2.61l-2.68-6c-13.22,30.5-58.64,120.35-135.09,120.35s-121.86-89.85-135.08-120.35l-2.68,6a4.48,4.48,0,0,1-3.51,2.61,3.77,3.77,0,0,1-.58,0,4.46,4.46,0,0,1-3.48-1.66c-32.6-40.2-38-103.52-38.69-115.27a237.58,237.58,0,0,1-24.69-30.42A4.49,4.49,0,0,1,1061.16,1227.63Z"/><path class="cls-5" d="M1268.6,1259.6c-11.42,0-21.73,7.83-33.66,16.9-16.19,12.3-36.33,27.61-67.89,30-1.3.09-2.6.13-3.89.14l-24.58,54.69a308,308,0,0,0,22,43.62c13.49-8,58.91-32.72,108-32.72s94.52,24.67,108,32.72a307.55,307.55,0,0,0,22-43.62l-24.58-54.69c-1.29,0-2.59-.05-3.89-.14-31.56-2.38-51.7-17.69-67.88-30C1290.34,1267.43,1280,1259.6,1268.6,1259.6Z"/><path class="cls-2" d="M1410.92,1373.44l-31.29-69.64,3.61-.49c18.42-2.53,37.8-13.06,57.61-31.3l5.4-5-.84,7.3c-2.58,22.35-10.14,64.43-31.73,95.18Zm-23.36-65.31,24.36,54.22c16.84-26.23,24.08-59.74,27.14-81.45C1421.54,1295.85,1404.26,1305,1387.56,1308.13Z"/><path class="cls-5" d="M1896.71,655.59l-25.38,26.49A130.64,130.64,0,0,0,1896.71,655.59Z"/><g class="cls-8"><path class="cls-9" d="M2015.9,732.85c5.73-3.62,9.58-8.16,10.21-13.81,3.3-29.69-21.31-71.39-99.66-100.37a166.8,166.8,0,0,1-12.4,23.64c12.54,4.31,55.67,19.92,73.39,36.41C2003.71,693.86,2012.72,721.44,2015.9,732.85Z"/></g><g class="cls-8"><path class="cls-9" d="M1578.81,563.13c2.19,7,5,13.42,8.77,18.32A125.73,125.73,0,0,1,1578.81,563.13Z"/></g><g class="cls-8"><path class="cls-9" d="M1568.71,498.32a194.19,194.19,0,0,1,4.56-36.81c-17.34-8-111.47-46.67-304.67-46.67s-287.32,38.7-304.66,46.67a194.87,194.87,0,0,1,4.57,37.11C1003.69,489,1324.14,406.25,1568.71,498.32Z"/></g><g class="cls-8"><path class="cls-9" d="M1661.46,414.69c68.61-38.21,204.1-8.68,228.41,93.8s-18.54,173.59-18.54,173.59l25.38-26.49c1.32-1.79,2.67-3.57,3.91-5.41a162.8,162.8,0,0,0,19.07-38.37c.76-3.92,9.57-51.76-1.51-105-15.31-73.56-59.37-122.1-131-144.26-138.55-42.88-200.58,89-204.61,98a188.54,188.54,0,0,0-7.28,47.94c-.39,16.35,1.3,32.86,6,48.58a121.75,121.75,0,0,0,6.69,17.75C1590.2,548,1602.2,447.69,1661.46,414.69Z"/></g><g class="cls-8"><path class="cls-9" d="M566.86,669.16c26-20.82,49.37-28.62,54.29-30.11a167.37,167.37,0,0,1-10.39-20.38c-78.36,29-103,70.68-99.66,100.37.63,5.62,4.44,10.14,10.12,13.76C526.14,722,542.61,688.61,566.86,669.16Z"/></g><g class="cls-8"><path class="cls-9" d="M649.65,659s-40.53-119,31.27-209.9,199.75-66.58,235.65,0C952.21,515.25,947.7,577,947.63,577.9l.21-.42a207.4,207.4,0,0,0,11.86-37.09,168.44,168.44,0,0,0,2.18-31.95,188.54,188.54,0,0,0-7.28-47.94c-4-9-66.11-140.85-204.61-98-71.59,22.16-115.65,70.7-131,144.26-11.07,53.22-2.29,101-1.52,105a162.9,162.9,0,0,0,19.08,38.38c2.14,3.17,4.41,6.27,6.77,9.29A8.76,8.76,0,0,0,649.65,659Z"/></g><g class="cls-8"><path class="cls-9" d="M1548.55,759.49c145.91,30.39,196,264.51,196,264.51-5.48-82.65-32.07-251.26-156.54-296.78C1428.82,669,1350.62,753,1281.56,857.31,1282.69,856.11,1403.33,729.23,1548.55,759.49Z"/></g><g class="cls-8"><path class="cls-9" d="M797.3,1035.67s52.11-211.91,158.07-264,223.77-20.32,309.47,99.7c-71.44-110.66-149.33-205-315.67-144.13-127.48,46.62-152.29,222.34-156.89,302.6A13.89,13.89,0,0,0,797.3,1035.67Z"/></g><g class="cls-6"><path class="cls-7" d="M792.66,512.83c36.41-24.81,73.76-2.61,88.3,8.23-.61-1.68-1.21-3.36-2-5-11.36-24.75-37-39-64.93-39a85.23,85.23,0,0,0-35.53,7.87c-39.24,18-58,61.29-41.88,96.47a63.63,63.63,0,0,0,18.23,23.18C754.71,603.34,746.63,544.21,792.66,512.83Z"/></g><path class="cls-11" d="M725.64,1490.94c192.41,177.09,538.35,182.88,543,182.94s350.55-5.85,543-182.94c70-64.44,101.4-133.41,93.26-205-6.19-54.35-34.3-102.74-69.35-141.31,33,102,21.39,210.63-71.25,287.93S1502.52,1595,1268.6,1595s-401.82-60.22-500.25-183.82-66.61-266.52-66.61-266.52c-35.06,38.57-63.17,87-69.35,141.31C624.25,1357.53,655.62,1426.5,725.64,1490.94Z"/><g class="cls-6"><path class="cls-7" d="M2024.35,1063.3a2.43,2.43,0,0,1,.25-.2l-.57-.19Z"/></g><g class="cls-6"><path class="cls-7" d="M512.62,1063.1c.07.07.17.12.25.19.11-.12.2-.25.31-.38Z"/></g><path class="cls-17" d="M1985.7,796s70.35,143.31,59.93,172.84-92.06,2.6-92.06,30.39S2043,1244,2032.6,1274s-45.16,4.82-54.71,16.11-41.11,226.1-219.45,330.32-408.32,117.67-489.83,199.18c-81.52-81.51-311.51-95-489.84-199.18s-209.89-319-219.44-330.32S515,1304,504.61,1274s79-247,79-274.84-81.64-.86-92.07-30.39S551.51,796,551.51,796C492.45,832.15,460,927.69,447,973.43s-17.62,102.85-17.63,103l.09,0c.73-.16,12.1-2.76,26.09-5.78,24-6.09,50.88-14.6,71-21.77a4.48,4.48,0,0,1,4.77,7.3q-7.86,8.4-14.93,16.92c-.33.74-23.25,52.33-47,124.76-23.89,73-7.6,189.84,0,197.88,5.66,6,28.07-8.76,39.13-16.67,1.19-1.76,2.39-3.53,3.59-5.35a4.47,4.47,0,0,1,3.74-2,4.35,4.35,0,0,1,1.23.17,4.49,4.49,0,0,1,3.26,4.18c1,33,15.35,83.68,47.25,138.39C668,1686.38,905,1738.3,1037.87,1776.5s230.74,161.26,230.74,161.26,97.85-123,230.73-161.26,369.68-90.08,470.11-261.92c32-54.78,46.4-105.58,47.37-138.59a4.5,4.5,0,0,1,8.24-2.34c1.19,1.82,2.39,3.59,3.59,5.35,11,7.91,33.46,22.65,39.13,16.67,7.59-8,23.88-124.92,0-197.88-23.66-72.25-46.52-123.77-47-124.75q-7.1-8.52-15-16.93a4.49,4.49,0,0,1,4.78-7.3c20.12,7.17,47,15.68,71,21.77,13.64,2.94,24.81,5.49,26,5.77l.15,0c0-.18-4.62-57.28-17.63-103S2044.76,832.15,1985.7,796Z"/><path class="cls-18" d="M1166.37,1297.54c28.92-2.18,47.1-16,63.14-28.18,13.22-10,24.64-18.73,39.09-18.73s25.88,8.68,39.11,18.73c14.52,11,30.82,23.38,55.24,27.23,10.78.19,24-1.66,41.75-6.61,26.58-13.08,49-39.48,59.19-52.88-13.1,9.65-40.59,23.23-89,19.56-73.39-5.56-88.4-56-88.4-56h0c-8.57,7.77-14.82,13.14-14.93,13.23a4.47,4.47,0,0,1-5.83,0c-.11-.09-6.86-5.88-16-14.15h0c-1.93-1.75-15.59,34.48-72.91,52.72S1071.75,1223,1071.75,1223s-1.47,4.41-2.7,8.33C1077.9,1243.79,1121,1301,1166.37,1297.54Z"/><g class="cls-8"><ellipse class="cls-9" cx="1268.6" cy="1142.69" rx="64.68" ry="17.75"/></g><path class="cls-2" d="M1268.61,1696h-.18c-14.56-.14-358.8-5.65-557.79-188.79-75.52-69.5-109.25-144.79-100.27-223.78,11.42-100.39,90.59-181.37,158.68-223-.1-54.41,8.88-294.17,172.51-354C1123.12,640,1210,745.56,1283.45,859.34a17.67,17.67,0,0,1-29.69,19.16c-71-110-142.67-196.45-300.06-138.9C796.81,797,804.44,1067.06,804.53,1069.78a17.7,17.7,0,0,1-8.91,16c-62.74,35.71-139.71,110-150.14,201.68-7.64,67.15,22.34,132.35,89.09,193.79,188.89,173.85,530.78,179.42,534.22,179.46a17.67,17.67,0,0,1-.18,35.33Z"/><ellipse class="cls-2" cx="1005.39" cy="1087.35" rx="87.66" ry="109.75"/><ellipse class="cls-9" cx="1038.38" cy="1064.6" rx="28.13" ry="44.49"/><g class="cls-19"><ellipse class="cls-9" cx="977.48" cy="1123.31" rx="23.48" ry="37.14" transform="translate(-136.63 135.35) rotate(-7.41)"/></g><ellipse class="cls-2" cx="1531.82" cy="1087.35" rx="87.66" ry="109.75"/><ellipse class="cls-9" cx="1498.83" cy="1064.6" rx="28.13" ry="44.49"/><g class="cls-19"><ellipse class="cls-9" cx="1559.74" cy="1123.31" rx="37.14" ry="23.48" transform="translate(244.78 2525.26) rotate(-82.59)"/></g><path class="cls-2" d="M1162.55,1319.84c-61,0-111.48-75.44-113.66-78.74a17.67,17.67,0,0,1,29.49-19.47h0c12.16,18.37,51.73,65.41,87,62.76,25-1.88,40.85-13.9,56.14-25.53,13.86-10.53,28.18-21.42,47.07-21.42a17.67,17.67,0,1,1,0,35.34c-7,0-15.24,6.28-25.69,14.22-16.63,12.64-39.42,30-74.87,32.63Q1165.28,1319.84,1162.55,1319.84Z"/><path class="cls-2" d="M1126.75,1394.37a17.67,17.67,0,0,1-13.73-6.54c-38-46.85-41.58-121.69-41.71-124.86a17.67,17.67,0,0,1,35.3-1.52h0c0,.52,2.07,41.45,17.86,77.22l19.69-43.81a17.67,17.67,0,0,1,32.23,14.48L1142.87,1384a17.72,17.72,0,0,1-13.84,10.28A19.38,19.38,0,0,1,1126.75,1394.37Z"/><path class="cls-2" d="M1268.6,1506.12c-99.18,0-149.38-133.15-151.46-138.82a17.67,17.67,0,0,1,33.15-12.23h0c.43,1.16,43.76,115.71,118.31,115.71a17.67,17.67,0,1,1,0,35.34Z"/><path class="cls-2" d="M1159.06,1428.83a17.67,17.67,0,0,1-9.68-32.46c2.34-1.53,57.93-37.33,119.22-37.33a17.67,17.67,0,1,1,0,35.33c-50.59,0-99.44,31.29-99.93,31.61A17.61,17.61,0,0,1,1159.06,1428.83Z"/><path class="cls-2" d="M630,607.49c9.9,39.19,35.77,77.21,75.57,90.55,13.51,4.6,28.28,6.2,43.13,5.54-14.39,3.56-29.7,5.07-45.08,3.07-48.47-6.13-87.15-45.25-107.19-88.14-11.87-25.9,28.15-38.89,33.57-11Z"/><path class="cls-2" d="M975.75,453.86c13.4,70.41-9.93,149.92-81.18,177.67,43-26,63.26-74.25,57.42-123.08-1.52-15-4.64-30.35-10.06-44.34-10.22-25.15,28.16-36.9,33.82-10.25Z"/><path class="cls-2" d="M801.67,642.54c-36.33,0-70.06-19-85.16-51.9-10.43-22.73-10.49-48.47-.16-72.47,10.06-23.37,28.86-42.33,52.94-53.38s50.72-13,75-5.34c24.93,7.81,44.41,24.63,54.85,47.37s10.5,48.47.16,72.47c-10.06,23.37-28.85,42.33-52.94,53.38A107,107,0,0,1,801.67,642.54ZM814.1,490.2A72.12,72.12,0,0,0,784,496.91c-16.12,7.4-28.63,19.91-35.22,35.23-6.32,14.69-6.39,30.23-.18,43.76,13.11,28.57,50.34,39.63,83,24.65,16.12-7.4,28.63-19.91,35.23-35.23,6.32-14.69,6.38-30.23.17-43.76h0C860.8,508,849,498,833.71,493.17A65.34,65.34,0,0,0,814.1,490.2Z"/><path class="cls-2" d="M1268.61,2039.92h-.07a17.62,17.62,0,0,1-16.84-12.51c-.51-1.6-55.47-167.84-344.2-242.77-169.16-43.91-267.62-134.07-320.43-202-43.66-56.14-70.36-115.36-82-161.68-.19.25-.39.49-.58.73-12.85,16-36.74,45.65-58.74,31.91-16.84-10.53-28-64.86-31.57-92.11C406.28,1301,406,1191.84,477.3,1088c-38.09,10.71-73.69,16.79-88.48,8.1-7.62-4.48-11.88-12.89-12.64-25-2.86-45,43.65-194.32,167.15-307-25-5.32-51.41-17-54.25-42.58C485,684.8,510.79,635,593.67,601.51,588,551.41,583,391,743.44,341.36c128.6-39.79,200.14,55.88,223.22,94.88,35.38-14,130.34-43.56,301.94-43.56s266.58,29.55,302,43.56c23.07-39,94.6-134.69,223.22-94.88,160.4,49.65,155.46,210,149.76,260.15,82.89,33.49,108.67,83.29,104.59,120-2.84,25.57-29.27,37.26-54.25,42.58,123.5,112.67,170,261.95,167.15,307-.77,12.11-5,20.52-12.65,25-14.77,8.69-50.38,2.61-88.47-8.1,71.29,103.87,71,213,63.13,273.55-3.55,27.26-14.72,81.59-31.56,92.13-22,13.74-45.9-16-58.74-31.91l-.59-.73c-11.65,46.31-38.35,105.54-82,161.68-52.81,67.89-151.27,158-320.43,202C1341,1859.57,1286,2025.81,1285.49,2027.48A17.7,17.7,0,0,1,1268.61,2039.92ZM515.9,1358.45a17.44,17.44,0,0,1,4.83.68,17.66,17.66,0,0,1,12.84,16.47C534.75,1416,560.73,1491.25,615,1561c49.45,63.57,141.87,148,301.42,189.45,227.87,59.14,319.06,171.72,352.22,230,33.17-58.27,124.36-170.85,352.23-230,159.55-41.41,252-125.88,301.42-189.45,54.23-69.73,80.21-145,81.4-185.38a17.67,17.67,0,0,1,32.42-9.2c13,19.77,28.42,39.34,38.41,49.33,7.24-19.77,18.25-63.85,16.48-119.81-1.93-61.23-19.92-151-94.71-230.8a17.67,17.67,0,0,1,18.82-28.72c41.23,14.67,91.56,28.48,110.93,29-.45-37.1-49.43-194.89-186.14-300.66a17.67,17.67,0,0,1,10.8-31.65h0c33.47,0,61.68-9.45,62.35-15.55,2.67-24-20.58-61.46-94.9-87.94a17.66,17.66,0,0,1-11.38-20.22c1.53-7.51,35.79-185-123.4-234.3-129.37-40.07-186.42,85.62-188.79,91a17.68,17.68,0,0,1-24.47,8.48c-.83-.44-91.51-46.57-301.47-46.57S968,474.15,967.08,474.61a17.72,17.72,0,0,1-24.41-8.5c-2.38-5.33-60-130.85-188.78-91C594.69,424.39,629,601.91,630.48,609.44a17.69,17.69,0,0,1-11.38,20.2c-74.31,26.47-97.57,63.92-94.9,88,.67,6.09,28.88,15.49,62.35,15.54a17.67,17.67,0,0,1,10.8,31.65c-136.71,105.78-185.68,263.57-186.14,300.66,19.37-.55,69.71-14.37,110.92-29A17.67,17.67,0,0,1,541,1065.12c-74.79,79.83-92.79,169.57-94.71,230.8-1.77,56,9.24,100,16.48,119.81,10-10,25.39-29.56,38.42-49.33A17.68,17.68,0,0,1,515.9,1358.45Zm1553.8,67.85Zm-1602.18,0ZM405.44,1065m1726.33,0Z"/><path class="cls-2" d="M1268.6,1696a17.67,17.67,0,0,1-.18-35.33c3.44,0,345.33-5.61,534.22-179.46,66.75-61.44,96.73-126.64,89.09-193.79-10.43-91.72-87.4-166-150.14-201.68a17.7,17.7,0,0,1-8.91-16c.09-2.72,7.72-272.81-149.17-330.18-157.39-57.55-229,28.85-300.06,138.9a17.67,17.67,0,0,1-29.69-19.16C1327.2,745.56,1414.08,640,1595.65,706.42c163.63,59.83,172.61,299.59,172.51,354,68.09,41.67,147.26,122.65,158.68,223,9,79-24.75,154.28-100.27,223.78-199,183.14-543.23,188.65-557.79,188.79Z"/><path class="cls-2" d="M1268.6,1228.2a17.6,17.6,0,0,1-11.48-4.25c-.76-.65-18.76-16.08-36.15-33.17-29.08-28.6-42.77-47.14-31.8-63.18,3.59-5.24,13.13-19.11,79.43-15.25,66.32-3.87,75.84,10,79.43,15.25h0c11,16-2.7,34.58-31.79,63.18-17.39,17.09-35.39,32.52-36.15,33.17A17.61,17.61,0,0,1,1268.6,1228.2ZM1228.86,1148c9.22,10.51,24.44,25.35,39.74,39.07,15.3-13.71,30.51-28.54,39.72-39a281.93,281.93,0,0,0-38.65-.3,18.92,18.92,0,0,1-2.13,0A280.6,280.6,0,0,0,1228.86,1148Zm-13.5,2.51Zm106.49,0Zm-3-2.9h0Z"/><path class="cls-2" d="M1374.67,1319.84c-1.83,0-3.65-.07-5.5-.21-35.45-2.67-58.23-20-74.87-32.63-10.45-7.94-18.7-14.22-25.7-14.22a17.67,17.67,0,1,1,0-35.34c18.9,0,33.23,10.89,47.08,21.42,15.3,11.63,31.11,23.65,56.15,25.53,35.54,2.62,74.84-44.39,87-62.76a17.67,17.67,0,0,1,29.49,19.47C1486.14,1244.4,1435.69,1319.84,1374.67,1319.84Z"/><path class="cls-2" d="M1410.46,1394.37a19.38,19.38,0,0,1-2.28-.14,17.72,17.72,0,0,1-13.84-10.28l-33.52-74.61a17.67,17.67,0,0,1,32.23-14.48l19.69,43.81c15.79-35.77,17.83-76.7,17.86-77.22a17.67,17.67,0,0,1,35.3,1.52c-.13,3.17-3.73,78-41.71,124.86A17.67,17.67,0,0,1,1410.46,1394.37Z"/><path class="cls-2" d="M1268.6,1506.12a17.67,17.67,0,1,1,0-35.34c74.56,0,117.89-114.55,118.32-115.71a17.67,17.67,0,0,1,33.15,12.23C1418,1373,1367.79,1506.12,1268.6,1506.12Z"/><path class="cls-2" d="M1378.16,1428.84a17.61,17.61,0,0,1-9.62-2.86h0c-.49-.32-49.34-31.61-99.94-31.61a17.67,17.67,0,1,1,0-35.33c61.3,0,116.89,35.8,119.23,37.33a17.67,17.67,0,0,1-9.67,32.47Z"/><path class="cls-2" d="M1940.82,618.51c-26.75,58.47-86.31,103.39-152.27,85.07,44.26,3.26,83.7-20.6,104-59.12a155.37,155.37,0,0,0,13.65-32.72,41.85,41.85,0,0,0,1-4.25,17.94,17.94,0,0,1,20-15.57c12.53,1.36,19.48,15.69,13.54,26.59Z"/><path class="cls-2" d="M1595.28,464.11c-15.73,43.21-16.53,95.4,11.4,134.08,9.37,13.14,21.91,24.27,36,33.34-66.43-26-91.21-96.47-83.37-163.51a128.74,128.74,0,0,1,2.5-15.51c7-25.24,43.56-12.65,33.51,11.6Z"/><path class="cls-2" d="M1735.66,642.6a107.37,107.37,0,0,1-44.8-9.93c-24.08-11-42.89-30-52.94-53.38-10.33-24-10.27-49.74.16-72.47h0c10.44-22.74,29.92-39.56,54.85-47.37,24.27-7.61,50.9-5.71,75,5.34s42.88,30,52.94,53.38c10.33,24,10.27,49.74-.17,72.47s-29.91,39.56-54.84,47.38A101.12,101.12,0,0,1,1735.66,642.6Zm-12.55-152.4a65.34,65.34,0,0,0-19.61,3c-15.27,4.78-27.09,14.86-33.3,28.39h0c-6.21,13.53-6.15,29.07.18,43.76,6.59,15.32,19.1,27.83,35.22,35.23s33.76,8.73,49.68,3.74c15.26-4.78,27.09-14.86,33.3-28.39s6.14-29.07-.18-43.76c-6.59-15.32-19.1-27.83-35.23-35.23A72,72,0,0,0,1723.11,490.2Zm-69,24h0Z"/><path class="cls-20" d="M1273.66,526.21c12.21-1.67,107.11,0,232.26-66.93,11-27.4,57.28-145.66,59.66-209.17l-132.3,43.62a7.49,7.49,0,0,1-8-2.2L1268.6,104.25,1112,291.53a7.51,7.51,0,0,1-8.06,2.2L971.63,250.11c2.37,63.52,48.62,181.77,59.66,209.17C1139.33,526.21,1261.44,524.54,1273.66,526.21Z"/><path class="cls-5" d="M1080.08,448c-8-21.24-54-121.79-54-121.79l113.14,27.29L1268.6,190.6l131.69,165.46,102-31.19L1468,450.17l-.17,0c12.34,2.61,25,5.62,38.05,9.13,11-27.4,57.28-145.66,59.66-209.17l-132.3,43.62a7.49,7.49,0,0,1-8-2.2L1268.6,104.25,1112,291.53a7.51,7.51,0,0,1-8.06,2.2L971.63,250.11c2.37,63.52,48.62,181.77,59.66,209.17C1048.12,454.74,1064.41,451,1080.08,448Z"/><g class="cls-1"><path class="cls-2" d="M1467.47,348.71,1380.38,374,1268,240,1157.52,371.86l-96.58-22.1s39.22,81.42,46.07,98.62c41,21.33,88.56,33.3,121.47,39.65a234.07,234.07,0,0,0,79.68,1.68c32.88-5,81.37-15.71,129.92-39.56l.14,0Z"/></g><g class="cls-8"><path class="cls-9" d="M1019.15,390.71l-14.38-97.89s123.34,32.92,126.12,30.75,137.72-164.16,137.72-164.16,126.58,163.73,148.14,165,112-29.24,112-29.24-9,104.61-7,104,53.82-140.34,39.08-147.49S1432,286.09,1425.79,285.46,1278.5,103.31,1264.2,109.51,1116,293.05,1112,291.53,983.16,250.37,977.49,252,994.34,369.92,1019.15,390.71Z"/></g><path class="cls-20" d="M1098.77,354s55.09,89.06,55.09,87.63S1119.8,354,1119.8,354Z"/><path class="cls-20" d="M1441,354S1385.9,443,1385.9,441.6,1420,354,1420,354Z"/><path class="cls-2" d="M1259.4,540.27c-144.22,0-236-54.24-241.64-57.7a17.7,17.7,0,0,1-7.13-8.3c-2.73-6.55-66.76-161.13-63.85-234.35A17.67,17.67,0,0,1,970,223.84l130.49,43L1255.05,82a17.68,17.68,0,0,1,27.11,0l154.59,184.85,130.49-43a17.67,17.67,0,0,1,23.19,16.08c2.91,73.22-61.12,227.8-63.85,234.35a17.64,17.64,0,0,1-9.21,9.38C1420.64,526.08,1333.15,540.27,1259.4,540.27ZM1041,455c31.55,16.64,214,102.15,455.68-.92,10.57-26.3,49.3-125.66,57.17-188.64l-117.38,38.7a17.64,17.64,0,0,1-19.08-5.45L1268.6,120.89,1119.87,298.73a17.67,17.67,0,0,1-19.08,5.45l-117.38-38.7C991.37,329.22,1030.94,430.21,1041,455Zm469.32,12.43h0Z"/><path class="cls-20" d="M1268,240c-1.45,1.44-110.44,131.88-110.44,131.88L1268.6,492.34Z"/><g class="cls-8"><path class="cls-9" d="M1245.66,297.88c-.78.78-59.76,71.36-59.76,71.36l60.11,65.2Z"/></g><polygon class="cls-20" points="1380.38 373.96 1268.6 492.34 1369.77 353.97 1380.38 373.96"/></svg>