<svg width="3139" height="2680" viewBox="0 0 3139 2680" fill="none" xmlns="http://www.w3.org/2000/svg">
<g opacity="0.2">
<path d="M1579.46 2679.78C2273.11 2679.78 2835.41 2580.5 2835.41 2458.04C2835.41 2335.58 2273.11 2236.3 1579.46 2236.3C885.823 2236.3 323.515 2335.58 323.515 2458.04C323.515 2580.5 885.823 2679.78 1579.46 2679.78Z" fill="#000072"/>
</g>
<path d="M1854.09 173.48C1876.85 124.11 1904.8 84.5699 1947.62 73.1699L1994.05 104.17L1877.97 209.37L1854.09 173.48Z" fill="#198BFD"/>
<path d="M2078.4 566.89C2047.62 549.29 2016.41 532.76 1984.79 517.3C1804.04 428.94 1608.89 375.87 1396.51 364.82C1300.36 25.7396 1679.09 -127.25 1887.24 223.3C1889.38 223.11 1891.51 222.93 1893.6 222.79C2140.06 202.78 2336.18 394.26 2078.4 566.89Z" fill="#198BFD"/>
<g opacity="0.6">
<path d="M1893.6 222.79C1891.51 222.93 1889.38 223.11 1887.24 223.3C1679.09 -127.25 1300.36 25.7396 1396.54 364.82C1403.4 365.18 1410.19 365.7 1417.01 366.15C1406.1 282.98 1425.49 214.07 1463.33 165.21C1475.09 181.69 1517.24 182.71 1562.33 166.67C1610.96 149.35 1644.49 118.75 1637.21 98.3096C1634.98 92.0396 1629.14 87.4796 1620.76 84.6396C1719.36 80.1696 1834.22 139.07 1920.07 283.64C1922.21 283.46 1924.34 283.27 1926.43 283.13C2040.77 273.85 2144.24 310.13 2196.62 368.86C2174.48 276.55 2043.34 210.63 1893.6 222.79Z" fill="white"/>
</g>
<path d="M2078.4 590.1C2074.36 590.103 2070.38 589.048 2066.87 587.04C1857.36 467.27 1631.41 400.3 1395.29 388.04C1390.45 387.791 1385.81 386.032 1382.02 383.009C1378.23 379.987 1375.48 375.854 1374.16 371.19C1322.54 189.19 1401.71 63.71 1503.07 20.13C1615.84 -28.36 1780.82 8.91 1899.66 199.08C2046.66 189.8 2180.47 252.54 2214.66 348.41C2231.36 395.2 2237.52 488.32 2091.31 586.23C2087.49 588.77 2083 590.117 2078.4 590.1ZM1414.66 342.6C1647.19 357.25 1869.92 423.46 2077.18 539.52C2157.72 482.15 2190.97 420.14 2170.93 363.96C2143 285.64 2019.41 233.96 1889.47 246.41C1885.09 246.836 1880.68 246.004 1876.75 244.012C1872.83 242.019 1869.55 238.949 1867.3 235.16C1762.3 58.42 1617.96 21.16 1521.41 62.73C1424.4 104.45 1383.43 213.27 1414.66 342.6Z" fill="#0F156D"/>
<path d="M1906.4 210.16L1948.1 287.69C1955.68 302.27 1936.22 315.47 1925.47 303.22L1868.12 236.44C1847.12 209.39 1888.68 180.82 1906.4 210.16Z" fill="#0F156D"/>
<path d="M1877.97 232.589C1877.02 232.589 1876.06 232.529 1875.11 232.409C1871.8 231.999 1868.61 230.876 1865.77 229.119C1862.93 227.362 1860.5 225.012 1858.65 222.229L1834.77 186.339C1832.58 183.041 1831.26 179.235 1830.95 175.284C1830.65 171.333 1831.36 167.369 1833.01 163.769C1852.01 122.609 1883.87 66.1094 1941.64 50.7694C1944.83 49.9174 1948.16 49.755 1951.41 50.293C1954.66 50.8311 1957.76 52.0572 1960.49 53.8894L2006.92 84.8394C2009.86 86.7967 2012.32 89.399 2014.1 92.4482C2015.88 95.4973 2016.94 98.9129 2017.21 102.435C2017.47 105.957 2016.92 109.492 2015.61 112.772C2014.3 116.051 2012.26 118.988 2009.64 121.359L1893.54 226.569C1889.28 230.437 1883.73 232.582 1877.97 232.589ZM1880.73 171.589L1882.36 174.039L1956.36 106.909L1944.18 98.7894C1920.66 108.699 1900.54 131.769 1880.73 171.609V171.589Z" fill="#0F156D"/>
<g opacity="0.2">
<path d="M2078.4 566.889C2047.62 549.289 2016.41 532.759 1984.79 517.299C2008.79 428.389 1940.27 326.979 1893.6 222.789C2140.06 202.779 2336.18 394.259 2078.4 566.889Z" fill="#000072"/>
</g>
<path d="M325.635 1493.28L899.055 1089.28L862.685 956.949L246.704 1398L203.375 1452.17L270.174 1528.01L325.635 1493.28Z" fill="#AD5833"/>
<g opacity="0.2">
<path d="M874.754 1000.81L302.424 1404.09L246.964 1438.82L229.714 1419.24L203.375 1452.17L270.174 1528.01L325.635 1493.28L899.055 1089.28L874.754 1000.81Z" fill="#000072"/>
</g>
<path d="M325.634 1493.28L270.204 1528C247.918 1502.74 225.644 1477.47 203.384 1452.18L246.704 1398L325.634 1493.28Z" fill="#F7EBD1"/>
<path d="M203.374 1452.17L98.1244 1472.67L19.1943 1528.01L141.464 1684.32L235.874 1611.58L270.174 1528.01L203.374 1452.17Z" fill="#FBB987"/>
<path d="M270.184 1546.58C267.546 1546.58 264.938 1546.02 262.534 1544.94C260.129 1543.85 257.985 1542.26 256.244 1540.28L189.434 1464.44C186.548 1461.16 184.909 1456.97 184.805 1452.61C184.7 1448.24 186.138 1443.98 188.864 1440.57L232.204 1386.4C233.265 1385.07 234.507 1383.89 235.894 1382.9L851.894 941.811C854.327 940.068 857.145 938.94 860.108 938.521C863.071 938.102 866.091 938.405 868.911 939.405C871.732 940.405 874.269 942.071 876.307 944.262C878.344 946.454 879.822 949.105 880.614 951.991L916.994 1084.31C918.004 1088 917.852 1091.91 916.56 1095.51C915.268 1099.1 912.899 1102.22 909.774 1104.42L336.354 1508.42C336.084 1508.61 335.794 1508.8 335.514 1508.98L280.054 1543.71C277.102 1545.58 273.68 1546.58 270.184 1546.58ZM227.614 1451.58L273.684 1503.89L315.354 1477.79L877.695 1081.56L851.835 987.561L259.604 1411.61L227.614 1451.58Z" fill="#0F156D"/>
<path d="M325.645 1511.85C322.911 1511.85 320.211 1511.25 317.737 1510.09C315.263 1508.93 313.077 1507.24 311.335 1505.13L232.405 1409.85C230.848 1407.97 229.677 1405.81 228.958 1403.48C228.239 1401.14 227.986 1398.7 228.214 1396.27C228.441 1393.84 229.145 1391.48 230.284 1389.32C231.424 1387.17 232.977 1385.26 234.855 1383.7C236.733 1382.14 238.899 1380.97 241.229 1380.25C243.56 1379.53 246.009 1379.28 248.437 1379.51C250.865 1379.74 253.225 1380.44 255.381 1381.58C257.538 1382.72 259.449 1384.27 261.005 1386.15L339.935 1481.43C342.184 1484.14 343.614 1487.44 344.059 1490.94C344.503 1494.43 343.943 1497.98 342.445 1501.18C340.946 1504.37 338.571 1507.06 335.596 1508.95C332.621 1510.84 329.169 1511.85 325.645 1511.85Z" fill="#0F156D"/>
<path d="M640.825 1289.77C638.17 1289.77 635.546 1289.21 633.131 1288.11C630.715 1287.01 628.564 1285.4 626.825 1283.4L543.414 1187.72C540.178 1184.01 538.548 1179.16 538.885 1174.25C539.221 1169.33 541.496 1164.75 545.209 1161.51C548.923 1158.28 553.769 1156.65 558.684 1156.98C563.598 1157.32 568.178 1159.6 571.414 1163.31L654.835 1259C657.176 1261.69 658.695 1264.99 659.21 1268.52C659.724 1272.05 659.213 1275.65 657.737 1278.89C656.261 1282.13 653.882 1284.89 650.885 1286.81C647.888 1288.74 644.399 1289.77 640.835 1289.77H640.825Z" fill="#0F156D"/>
<path d="M98.1244 1472.67C169.194 1528.87 206.894 1588.44 180.124 1654.51C180.124 1684.51 181.634 1711.41 169.344 1732.9C160.188 1748.77 156.867 1767.35 159.954 1785.41L163.104 1803.5C198.314 1859.02 158.504 1906.25 130.694 1875.72C123.144 1867.43 119.894 1856.1 120.864 1844.93C125.604 1790.36 131.034 1730.76 127.464 1666.46L19.1943 1528L98.1244 1472.67Z" fill="#00AAFF"/>
<path d="M141.474 1702.9C138.651 1702.9 135.865 1702.26 133.327 1701.03C130.79 1699.79 128.569 1697.99 126.834 1695.76L4.54441 1539.45C2.99265 1537.46 1.86191 1535.18 1.22108 1532.74C0.580253 1530.3 0.442761 1527.76 0.817027 1525.27C1.19129 1522.77 2.06947 1520.38 3.39799 1518.24C4.72652 1516.09 6.47757 1514.24 8.54441 1512.8L87.4744 1457.47C89.6072 1455.98 92.0299 1454.96 94.5844 1454.47L199.834 1433.97C203.014 1433.35 206.301 1433.57 209.369 1434.61C212.436 1435.65 215.176 1437.49 217.314 1439.92L284.124 1515.76C286.413 1518.36 287.93 1521.55 288.504 1524.96C289.078 1528.38 288.687 1531.88 287.374 1535.09L253.064 1618.66C251.824 1621.69 249.806 1624.33 247.214 1626.33L152.794 1699C149.561 1701.52 145.577 1702.9 141.474 1702.9ZM45.8844 1532L144.734 1658.38L220.544 1599.92L248.544 1531.63L196.404 1472.43L105.544 1490.15L45.8844 1532Z" fill="#0F156D"/>
<path d="M55.3642 1554.82L137.364 1512.3C151.584 1505.16 164.094 1524.21 152.064 1534.43L81.0642 1593.5C53.7042 1614.06 25.7842 1572.1 55.3742 1554.82H55.3642Z" fill="#0F156D"/>
<path d="M96.6546 1606.16L174.235 1562.06C183.725 1556.68 193.425 1569.06 186.075 1576.97L125.545 1642.52C99.6146 1667.47 66.4846 1625.78 96.6746 1606.16H96.6546Z" fill="#0F156D"/>
<path d="M149.735 1894.66C140.645 1894.66 131.495 1890.36 123.865 1881.96C114.865 1872.1 110.415 1858.3 111.635 1844.13L111.995 1840.03C116.455 1788.81 121.505 1730.85 118.375 1669.88L11.8846 1533.73C11.1089 1532.74 10.5436 1531.59 10.2232 1530.38C9.90288 1529.16 9.83419 1527.89 10.0213 1526.64C10.2085 1525.39 10.6475 1524.2 11.3117 1523.13C11.9759 1522.06 12.8514 1521.13 13.8846 1520.41L92.8146 1465.07C94.4522 1463.92 96.4151 1463.34 98.4126 1463.39C100.41 1463.45 102.336 1464.15 103.905 1465.39C186.165 1530.44 214.165 1592.9 189.465 1656.28V1663.36C189.595 1690.44 189.725 1716.01 177.465 1737.51C169.398 1751.51 166.463 1767.89 169.165 1783.82L172.005 1800.12C195.115 1837.88 187.615 1873.45 168.545 1888.01C163.187 1892.25 156.569 1894.59 149.735 1894.66ZM32.5446 1530L134.805 1660.74C135.983 1662.23 136.681 1664.04 136.805 1665.94C140.325 1729.3 135.125 1788.94 130.545 1841.64L130.185 1845.73C129.405 1854.73 132.115 1863.41 137.635 1869.46C144.135 1876.61 151.125 1877.95 157.285 1873.24C168.235 1864.89 174.865 1839.24 155.285 1808.47C154.628 1807.44 154.183 1806.29 153.975 1805.09L150.835 1787C147.392 1766.81 151.098 1746.04 161.315 1728.29C171.145 1711.11 171.025 1689.03 170.895 1663.46V1654.51C170.882 1653.31 171.102 1652.12 171.545 1651C193.685 1596.28 170.235 1543.17 97.7547 1484.24L32.5446 1530Z" fill="#0F156D"/>
<path d="M2722.63 1453.79C2801.55 1228.85 2946.82 976.469 3101.25 720.299C3107.33 710.209 3122.78 717.299 3119.09 728.489C3023.09 1019.2 2928.96 1291.49 2817.55 1503.18C2805.36 1471.91 2773.03 1456 2722.63 1453.79Z" fill="#FFB774"/>
<g opacity="0.2">
<path d="M2729.16 1435.59C2726.94 1441.67 2724.77 1447.74 2722.63 1453.79C2730.64 1454.12 2738.63 1454.9 2746.55 1456.11C2742.23 1448.15 2736.31 1441.16 2729.16 1435.59Z" fill="#000072"/>
<path d="M3112.97 716.1C3112.87 717.131 3112.62 718.142 3112.22 719.1C2995.85 996.95 2882.67 1257.1 2757.61 1458.21C2788.19 1465.14 2808.47 1479.92 2817.55 1503.21C2928.96 1291.52 3023.08 1019.21 3119.09 728.52C3121.06 722.53 3117.54 717.75 3112.97 716.1Z" fill="#000072"/>
</g>
<path d="M2817.54 1521.76C2817.19 1521.76 2816.84 1521.76 2816.49 1521.76C2812.94 1521.56 2809.51 1520.34 2806.63 1518.25C2803.75 1516.16 2801.53 1513.28 2800.23 1509.96C2796.88 1501.36 2786.68 1475.19 2721.82 1472.37C2718.93 1472.25 2716.1 1471.45 2713.57 1470.03C2711.03 1468.62 2708.87 1466.63 2707.24 1464.23C2705.62 1461.83 2704.58 1459.08 2704.21 1456.2C2703.83 1453.33 2704.14 1450.41 2705.1 1447.67C2787.34 1213.26 2944.49 944.37 3085.34 710.74C3088.96 704.749 3094.65 700.298 3101.34 698.239C3108.02 696.18 3115.23 696.656 3121.59 699.577C3127.95 702.498 3133 707.659 3135.8 714.074C3138.59 720.489 3138.92 727.707 3136.72 734.35C3042.2 1020.52 2947.94 1295.35 2833.97 1511.86C2832.4 1514.85 2830.03 1517.35 2827.14 1519.1C2824.24 1520.84 2820.92 1521.76 2817.54 1521.76ZM2748.2 1437.55C2777.28 1441.9 2799.73 1451.71 2815.38 1466.9C2911.97 1276.45 2994.87 1042.76 3076.71 797.26C2952.72 1004.93 2823.05 1234 2748.21 1437.55H2748.2Z" fill="#0F156D"/>
<path d="M296.235 1355.05C331.295 1304.56 418.475 1302.68 409.465 1410.77C407.76 1429.71 403.411 1448.32 396.545 1466.06L296.235 1730C191.055 2034.7 353.495 2384.68 824.765 2333.6C934.015 2614.51 1486.4 2642.37 1602.48 2366.1C1740.23 2640.82 2252.48 2735.23 2424.31 2393.19C2783.7 2441.03 3081.31 1936.62 2823.61 1532.67C2884.29 1520.02 2896.61 1487.35 2888.46 1449.73C2884.16 1429.88 2873.99 1411.8 2860.46 1396.73C2751.08 1274.85 2599.63 1340.25 2606.97 1501.73C2627.38 1728.46 2623.05 1919.48 2507.97 1950.56C2338.19 2013.34 2182.63 1886.56 2185.04 1734.34C2185.37 1713.6 2190.04 1693.18 2197.48 1673.83C2546.26 768.691 2110.19 436.051 1711.97 325.771C1269.57 218.691 738.975 464.771 827.185 1235.25L864.325 1597.68C749.795 1599.23 644.555 1736.98 704.915 1890.2C611.745 1882 564.605 1785.93 604.715 1523C609.175 1493.72 610.465 1464 607.205 1434.53C579.785 1186.94 305.835 1171.3 296.205 1350" fill="#FF83B6"/>
<path d="M2693.61 1528.24C2623.24 1570.09 2608.48 1705.99 2693.61 1767.9C2720.71 1699.03 2842.96 1664.2 2792.61 1571.34C2765.02 1543.83 2732.25 1528.87 2693.61 1528.24Z" fill="white"/>
<path d="M2685.48 1755.52C2635.9 1707.91 2630.92 1650.52 2652.98 1587.21C2666.11 1603.21 2677.66 1619.77 2681.98 1638.86C2724.4 1629.19 2765.82 1621.38 2788.77 1648.07C2775.25 1682.05 2734.44 1718.42 2685.48 1755.52Z" fill="#09CBFF"/>
<g opacity="0.2">
<path d="M1575.38 331.2C1973.61 441.49 2409.68 774.13 2060.89 1679.27C2053.44 1698.62 2048.79 1719.04 2048.46 1739.77C2046.1 1888.77 2195.07 2013.35 2360.6 1959.7C2257.92 1933.59 2183.28 1840.11 2184.95 1734.31C2185.28 1713.57 2189.95 1693.15 2197.39 1673.8C2546.17 768.661 2110.1 436.02 1711.88 325.74C1614.32 302.12 1512.48 295.74 1413.88 308.28C1468.33 310.706 1522.41 318.382 1575.38 331.2Z" fill="#000072"/>
</g>
<g opacity="0.2">
<path d="M2453.41 2159C2281.62 2501 1769.33 2406.63 1631.59 2131.91C1553.73 2294.48 1384.2 2393.29 1206.19 2380.28C966.815 2390.13 849.925 2265.14 827.095 2089.83C825.935 2080.95 646.095 2195.75 474.815 2103.49C344.455 2033.26 271.815 1881.38 297.405 1726.9L296.235 1729.99C191.055 2034.69 353.495 2384.67 824.765 2333.59C934.015 2614.5 1486.4 2642.36 1602.48 2366.09C1740.23 2640.81 2252.48 2735.22 2424.31 2393.18C2702.1 2430.18 2942.89 2137.18 2918.96 1815.71C2896.35 2078.71 2675.54 2289.51 2453.41 2159Z" fill="#000072"/>
</g>
<g opacity="0.2">
<path d="M2792.66 1571.34C2780.29 1558.8 2765.83 1548.52 2749.92 1540.96C2751.82 1542.68 2753.68 1544.45 2755.51 1546.28C2803.57 1635 2694.18 1670.77 2660.69 1733.84C2669.6 1747.03 2680.74 1758.55 2693.61 1767.9C2720.71 1699 2842.96 1664.2 2792.66 1571.34Z" fill="#000072"/>
</g>
<path d="M1459.33 1488.59H1459.2C1459.25 1488.61 1459.29 1488.61 1459.33 1488.59C1493.42 1481.11 1523.78 1461.59 1549.09 1425.86C1521.88 1379.66 1490.09 1346.86 1471.59 1352.86C1438.72 1358.06 1422.47 1412.06 1459.33 1488.58V1488.59Z" fill="#FC4F8B"/>
<g opacity="0.6">
<path d="M1711.88 325.74C1269.48 218.66 738.884 464.74 827.094 1235.22L864.234 1597.65C770.604 1598.92 683.234 1691.23 687.424 1808.6C687.308 1843.74 696.733 1878.25 714.694 1908.46C728.405 1931.26 746.702 1950.95 768.424 1966.31C721.904 1875.13 727.134 1769.08 782.984 1692.84C836.574 1619.66 916.554 1601.55 938.574 1597.32C931.308 1488.2 924.041 1379.08 916.774 1269.96C881.244 959.609 946.154 734.41 1065.21 583.03C1087.27 609.63 1156.34 604.499 1226.06 569.719C1300.53 532.579 1347.54 475.72 1331.06 442.63C1321.64 423.74 1293.51 416.75 1257.24 421.15C1420.41 332.41 1618.52 316.149 1801.56 360.479C1823.06 366.426 1844.61 373.043 1866.22 380.33C1816.16 358.445 1764.58 340.201 1711.88 325.74Z" fill="white"/>
</g>
<path d="M2048.98 2636.34H2048.79C1867.25 2636.28 1690.95 2546.74 1603.61 2414.29C1537.08 2521.29 1398.28 2584.69 1229.73 2582.54C1138.22 2581.31 1047.13 2559.4 973.245 2520.84C896.875 2480.99 840.805 2425.06 810.075 2358.36C603.975 2376.72 436.395 2318.55 336.895 2193.76C238.435 2070.28 215.025 1894.08 274.285 1722.41C274.365 1722.18 274.445 1721.96 274.535 1721.73L374.815 1457.81C380.916 1442.09 384.791 1425.6 386.325 1408.81C389.145 1374.99 381.495 1352.27 365.325 1346.46C349.655 1340.82 327.695 1350.4 315.325 1368.26C312.379 1372.5 308.107 1375.63 303.182 1377.17C298.257 1378.71 292.96 1378.56 288.127 1376.76C283.294 1374.95 279.2 1371.58 276.493 1367.19C273.785 1362.8 272.618 1357.63 273.175 1352.5C273.042 1351.26 273.006 1350 273.065 1348.75C277.505 1266.26 334.365 1209.31 414.575 1207.04C509.035 1204.29 613.575 1280.76 630.305 1431.97C633.595 1461.7 632.715 1493.51 627.675 1526.49C603.565 1684.58 610.315 1788.88 647.725 1836.49C653.876 1844.45 661.518 1851.13 670.225 1856.17C655.455 1789.35 667.125 1722.28 704.155 1667.1C737.285 1617.71 786.325 1585.1 838.765 1576.61L804.015 1237.54C754.015 800.54 903.015 567.75 1036.86 449.54C1209.86 296.64 1464.29 241.92 1717.36 303.17L1718.09 303.36C1899.71 353.66 2142.26 465.36 2266.42 712C2389.14 955.74 2373.21 1282.15 2219.08 1682.15C2212.08 1700.21 2208.45 1717.88 2208.19 1734.67C2207.13 1801.39 2240.09 1865.02 2296.37 1904.88C2354.8 1946.26 2428.96 1954.95 2499.85 1928.76C2500.51 1928.51 2501.18 1928.3 2501.85 1928.12C2605.23 1900.21 2601.31 1697.95 2583.85 1503.78C2583.85 1503.43 2583.79 1503.09 2583.77 1502.78C2579.88 1417.11 2617.61 1347.45 2682.23 1321.01C2746.07 1294.89 2820.98 1317.95 2877.73 1381.19C2894.73 1400.08 2906.25 1422.08 2911.18 1444.82C2916.93 1471.32 2913.74 1494.15 2901.71 1512.68C2892.44 1526.95 2878.12 1538.16 2858.96 1546.16C2917.19 1647.37 2946.43 1760.26 2943.75 1874.53C2941.09 1988.18 2907.89 2098.11 2847.75 2192.44C2799.29 2268.44 2735.75 2329.44 2663.99 2368.92C2592.73 2408.1 2514.79 2424.92 2437.53 2418.02C2361.22 2557 2220.54 2636.33 2048.98 2636.34ZM1602.54 2342.87C1606.85 2342.87 1611.07 2344.07 1614.73 2346.33C1618.4 2348.59 1621.36 2351.83 1623.28 2355.68C1692.41 2493.53 1867.41 2589.85 2048.85 2589.91H2049.02C2208.26 2589.91 2337.48 2514.42 2403.61 2382.75C2405.79 2378.44 2409.25 2374.92 2413.51 2372.66C2417.78 2370.41 2422.64 2369.53 2427.42 2370.16C2572.85 2389.55 2715.34 2313.74 2808.61 2167.45C2903.46 2018.71 2952.08 1777.12 2804.09 1545.13C2802.08 1541.96 2800.85 1538.35 2800.54 1534.61C2800.22 1530.86 2800.82 1527.1 2802.28 1523.64C2803.73 1520.17 2806.01 1517.12 2808.91 1514.73C2811.81 1512.34 2815.25 1510.69 2818.92 1509.92C2834.34 1506.71 2854.46 1500.19 2862.79 1487.36C2867.9 1479.49 2868.9 1468.78 2865.79 1454.63C2862.56 1439.76 2854.73 1425.08 2843.16 1412.18C2799.22 1363.18 2745.63 1345.18 2699.79 1363.95C2653.95 1382.72 2627.3 1434.86 2630.12 1500.14C2650.18 1723.48 2650.02 1935.14 2514.98 1972.66C2429.79 2003.83 2340.38 1992.96 2269.52 1942.77C2200.74 1894.05 2160.45 1815.98 2161.75 1733.94C2162.1 1711.67 2166.81 1688.63 2175.75 1665.46C2324.97 1278.19 2341.53 964.46 2224.95 732.88C2108.54 501.6 1878.54 396.05 1706.04 348.21C1467.87 290.68 1229.19 341.54 1067.58 484.33C887.515 643.44 812.325 902.18 850.155 1232.58L887.335 1595.28C887.662 1598.49 887.319 1601.73 886.327 1604.79C885.335 1607.86 883.716 1610.69 881.573 1613.09C879.429 1615.5 876.808 1617.43 873.877 1618.77C870.945 1620.11 867.767 1620.83 864.545 1620.87C818.145 1621.5 772.545 1648.47 742.685 1693.02C706.415 1747.07 700.495 1815.83 726.425 1881.66C727.875 1885.34 728.36 1889.33 727.835 1893.25C727.31 1897.17 725.792 1900.89 723.425 1904.06C721.057 1907.23 717.92 1909.74 714.309 1911.36C710.698 1912.97 706.735 1913.64 702.795 1913.29C664.415 1909.92 633.605 1893.75 611.195 1865.23C564.895 1806.29 555.265 1693.23 581.765 1519.52C586.175 1490.52 586.985 1462.82 584.125 1437.11C570.695 1315.8 491.755 1253.43 419.415 1253.43C418.235 1253.43 417.055 1253.43 415.875 1253.43C384.195 1254.33 350.275 1268.13 332.235 1301.78C348.535 1297.13 365.545 1297.17 381.045 1302.78C398.765 1309.15 439.275 1332.62 432.595 1412.69C430.7 1433.8 425.863 1454.53 418.225 1474.3L318.055 1737.9C264.165 1894.35 284.765 2053.9 373.195 2164.81C438.275 2246.42 569.035 2337.94 822.265 2310.5C827.342 2309.95 832.46 2311.09 836.825 2313.74C841.189 2316.39 844.557 2320.41 846.405 2325.17C901.985 2468.07 1079.28 2534.08 1230.4 2536.11C1232.85 2536.11 1235.31 2536.11 1237.77 2536.11C1368.77 2536.11 1525.57 2489.27 1581.13 2357.04C1582.85 2352.95 1585.71 2349.43 1589.37 2346.91C1593.02 2344.39 1597.33 2342.98 1601.76 2342.83L1602.54 2342.87Z" fill="#0F156D"/>
<path d="M824.774 2356.8C820.086 2356.8 815.506 2355.38 811.64 2352.73C807.774 2350.08 804.801 2346.31 803.114 2341.94C763.254 2238.75 770.754 2111.67 820.324 2014.32C763.244 2001.27 712.034 1959.32 683.864 1900.15C682.551 1897.4 681.793 1894.41 681.633 1891.37C681.473 1888.32 681.915 1885.27 682.932 1882.4C683.95 1879.52 685.524 1876.88 687.565 1874.61C689.605 1872.34 692.072 1870.5 694.824 1869.19C697.577 1867.88 700.561 1867.12 703.607 1866.96C706.652 1866.8 709.699 1867.24 712.574 1868.26C715.449 1869.27 718.095 1870.85 720.362 1872.89C722.629 1874.93 724.471 1877.4 725.784 1880.15C752.404 1936.04 804.314 1972.15 858.044 1972.15C862.231 1972.15 866.338 1973.29 869.933 1975.43C873.527 1977.58 876.475 1980.65 878.465 1984.34C880.455 1988.02 881.412 1992.17 881.236 1996.36C881.06 2000.54 879.757 2004.6 877.464 2008.1C819.704 2096.26 807.224 2223.68 846.464 2325.18C847.822 2328.7 848.302 2332.49 847.865 2336.23C847.427 2339.98 846.085 2343.56 843.953 2346.67C841.822 2349.78 838.965 2352.32 835.631 2354.08C832.296 2355.84 828.584 2356.76 824.814 2356.76L824.774 2356.8Z" fill="#0F156D"/>
<path d="M860.545 1574.74C950.345 1558.1 1046.89 1594.23 1104.83 1664.8C1162.83 1733.03 1186.13 1822.42 1192.32 1909.13C1195.64 1957.07 1194.16 2005.22 1187.91 2052.86L1185.66 2068.59C1180.77 2094.14 1180.25 2121.54 1190.47 2145.9C1228.13 2230.2 1307.84 2214.04 1358.47 2149.63C1363.47 2143.26 1373.47 2149.78 1369.84 2156.92C1351.58 2193.84 1317.77 2227.42 1275.84 2236.29C1221.24 2247.29 1172.03 2213.17 1147.76 2165.83C1136.7 2144.06 1130.77 2120.05 1130.42 2095.63C1130.18 2074.55 1134.42 2052.63 1135.84 2031.71C1144.84 1934.78 1142.08 1832.63 1096.74 1744.71C1070.96 1695.19 1029.74 1652.94 977.165 1632.9C942.431 1619.34 904.752 1615.1 867.875 1620.62C837.935 1624.26 830.565 1580.98 860.495 1574.78L860.545 1574.74Z" fill="#0F156D"/>
<path d="M1175.12 2144.13C1225.12 2133.47 1273.12 2105.97 1291.99 2056.58C1296.82 2044.82 1314.4 2050.31 1311.7 2062.7C1298.94 2123.78 1244.85 2167.51 1189.07 2188.41C1157.73 2199.49 1143.07 2153.06 1175.07 2144.13H1175.12Z" fill="#0F156D"/>
<path d="M879.775 2021.4C870.547 2021.37 861.359 2020.21 852.415 2017.94C846.512 2016.38 841.462 2012.56 838.355 2007.3C835.249 2002.05 834.338 1995.78 835.818 1989.86C837.298 1983.94 841.051 1978.84 846.265 1975.66C851.478 1972.48 857.733 1971.49 863.675 1972.89C903.785 1982.95 934.755 1951.38 944.625 1915.04C953.965 1880.65 946.225 1835.04 893.675 1819.58C887.88 1817.75 883.033 1813.72 880.175 1808.36C877.316 1803 876.674 1796.73 878.386 1790.9C880.098 1785.06 884.028 1780.14 889.332 1777.17C894.635 1774.2 900.89 1773.44 906.755 1775.03C985.665 1798.19 1004.92 1870.15 989.425 1927.21C975.795 1977.4 935.085 2021.4 879.775 2021.4Z" fill="#0F156D"/>
<path d="M859.644 1868.49C834.644 1807.95 899.644 1744.76 960.644 1767.72C970.169 1771.35 978.611 1777.35 985.174 1785.15C991.064 1792.35 1005.44 1815.62 991.374 1819.24C990.054 1819.49 988.691 1819.38 987.426 1818.93C986.161 1818.48 985.038 1817.7 984.174 1816.67C965.624 1795.79 941.174 1793.67 918.434 1805.45C895.524 1817.93 884.814 1838.69 880.434 1865.45C879.274 1876.51 863.854 1878.69 859.644 1868.52V1868.49Z" fill="#0F156D"/>
<path d="M2800.39 1528.25C2803.02 1508.87 2786.08 1487.32 2768.72 1476.8C2747.65 1463.38 2720.72 1460.56 2697.26 1470.8C2695.4 1471.58 2693.31 1471.63 2691.41 1470.95C2689.51 1470.27 2687.93 1468.91 2686.98 1467.12C2686.03 1465.34 2685.78 1463.26 2686.28 1461.31C2686.78 1459.35 2688 1457.65 2689.68 1456.54C2703.09 1447.78 2718.47 1442.5 2734.42 1441.19C2785.98 1437.6 2841.35 1472.62 2846.83 1528.19C2849.83 1564 2797.18 1563.89 2800.39 1528.19V1528.25Z" fill="#0F156D"/>
<path d="M1425.07 1510.93C1404.73 1510.93 1382.87 1507.93 1359.5 1501.93C1357.14 1501.32 1354.92 1500.25 1352.97 1498.79C1351.02 1497.32 1349.38 1495.48 1348.13 1493.38C1346.89 1491.28 1346.08 1488.95 1345.74 1486.54C1345.39 1484.12 1345.53 1481.66 1346.14 1479.29C1346.75 1476.93 1347.82 1474.71 1349.28 1472.76C1350.75 1470.81 1352.59 1469.16 1354.69 1467.92C1356.79 1466.68 1359.12 1465.87 1361.53 1465.53C1363.95 1465.18 1366.41 1465.32 1368.77 1465.93C1392.16 1471.93 1413.35 1474.5 1432.66 1473.48C1416.52 1430.34 1415.19 1391.37 1429.46 1364.19C1437.88 1348.14 1451.31 1337.75 1467.37 1334.79C1504.42 1324.64 1544.37 1381.36 1565.09 1416.45C1566.91 1419.54 1567.8 1423.09 1567.65 1426.67C1567.49 1430.25 1566.31 1433.71 1564.23 1436.63C1528.96 1486.32 1483.08 1510.93 1425.07 1510.93ZM1476.54 1370.78C1475.86 1370.98 1475.16 1371.13 1474.45 1371.24C1469.55 1372.01 1465.45 1375.44 1462.33 1381.43C1454.63 1396.1 1453.12 1425.54 1469.72 1466.32C1491.5 1458.61 1510.28 1444.8 1526.61 1424.73C1502.2 1386.2 1482.65 1371.69 1476.54 1370.78Z" fill="#0F156D"/>
<path d="M1507.19 1477.32C1505.28 1477.32 1503.41 1476.72 1501.84 1475.62C1500.27 1474.51 1499.09 1472.95 1498.44 1471.14L1477.65 1412.72C1476.91 1410.42 1477.09 1407.92 1478.16 1405.75C1479.23 1403.58 1481.1 1401.91 1483.38 1401.1C1485.66 1400.29 1488.16 1400.41 1490.36 1401.41C1492.56 1402.42 1494.28 1404.25 1495.15 1406.5L1515.94 1464.92C1516.77 1467.24 1516.63 1469.79 1515.58 1472.02C1514.52 1474.24 1512.62 1475.95 1510.3 1476.78C1509.31 1477.13 1508.25 1477.32 1507.19 1477.32Z" fill="#0F156D"/>
<path d="M1851.6 1237.01C1861.38 1151.96 1816.06 1076.89 1750.37 1069.33C1684.69 1061.78 1623.51 1124.6 1613.73 1209.66C1603.95 1294.71 1649.27 1369.79 1714.95 1377.34C1780.64 1384.9 1841.82 1322.07 1851.6 1237.01Z" fill="#0F156D"/>
<path d="M1746.76 1208.28C1750.43 1176.77 1733.45 1148.9 1708.82 1146.02C1684.19 1143.15 1661.25 1166.37 1657.58 1197.88C1653.91 1229.39 1670.89 1257.26 1695.52 1260.13C1720.14 1263 1743.08 1239.79 1746.76 1208.28Z" fill="white"/>
<g opacity="0.35">
<path d="M1798.57 1294.5C1809.68 1271.81 1807.55 1247.96 1793.82 1241.24C1780.09 1234.52 1759.96 1247.47 1748.85 1270.17C1737.74 1292.86 1739.87 1316.71 1753.6 1323.43C1767.33 1330.15 1787.46 1317.2 1798.57 1294.5Z" fill="white"/>
</g>
<path d="M1202.51 1375.54C1264.22 1369.65 1307.74 1296.76 1299.73 1212.75C1291.71 1128.73 1235.19 1065.39 1173.48 1071.28C1111.77 1077.16 1068.25 1150.05 1076.26 1234.07C1084.28 1318.09 1140.8 1381.42 1202.51 1375.54Z" fill="#0F156D"/>
<path d="M1221.94 1259.82C1245.08 1257.6 1261.41 1230.56 1258.42 1199.44C1255.44 1168.31 1234.26 1144.88 1211.13 1147.09C1188 1149.31 1171.66 1176.35 1174.65 1207.47C1177.64 1238.6 1198.81 1262.04 1221.94 1259.82Z" fill="white"/>
<g opacity="0.35">
<path d="M1167.54 1322.53C1180.77 1316.72 1183.44 1293.68 1173.51 1271.07C1163.58 1248.46 1144.8 1234.85 1131.57 1240.66C1118.33 1246.48 1115.66 1269.52 1125.59 1292.12C1135.52 1314.73 1154.3 1328.34 1167.54 1322.53Z" fill="white"/>
</g>
<path d="M2722.63 1453.79L2693.63 1528.24C2736.29 1532.12 2771.23 1544.4 2792.63 1571.34L2817.52 1503.18C2797.54 1464.27 2762.67 1454.08 2722.63 1453.79Z" fill="#FFB774"/>
<path d="M2722.63 1453.79L2693.63 1528.24C2736.29 1532.12 2771.23 1544.4 2792.63 1571.34L2817.52 1503.18C2797.54 1464.27 2762.67 1454.08 2722.63 1453.79Z" fill="#FFB774"/>
<g opacity="0.2">
<path d="M2722.63 1453.79L2693.63 1528.24C2736.29 1532.12 2771.23 1544.4 2792.63 1571.34L2817.52 1503.18C2797.54 1464.27 2762.67 1454.08 2722.63 1453.79Z" fill="#000072"/>
</g>
<path d="M2726.54 1457.39C2719.41 1483.15 2712.44 1507.59 2703.73 1532.18L2694.61 1517.45C2714.06 1518.65 2733.47 1521.91 2751.97 1528.85C2771.08 1535.93 2789.24 1547.56 2802.23 1563.74L2781.23 1567.15L2806.14 1499L2806.75 1508.75C2793.59 1481.06 2765.42 1467.58 2735.94 1466.02L2729.62 1465.6C2729.99 1464.68 2727.07 1458.6 2726.56 1457.39H2726.54ZM2722.16 1442.89C2753.16 1440.76 2786.95 1449.21 2809.63 1471.71C2817.21 1479.31 2823.55 1488.05 2828.41 1497.61C2829.19 1499.09 2829.64 1500.71 2829.75 1502.37C2829.87 1504.03 2829.63 1505.69 2829.06 1507.26C2829.06 1507.36 2804.13 1575.42 2804.14 1575.53C2801.26 1584.45 2788.64 1586.41 2783.14 1578.94C2762.07 1551.94 2725.95 1543.29 2692.65 1539.04C2691.21 1538.94 2689.8 1538.55 2688.5 1537.89C2687.21 1537.23 2686.07 1536.31 2685.15 1535.2C2684.22 1534.08 2683.54 1532.78 2683.13 1531.39C2682.73 1530 2682.61 1528.54 2682.78 1527.1C2693.65 1498.1 2708.46 1470.03 2722.17 1442.89H2722.16Z" fill="#0F156D"/>
<path d="M2693.61 1779.51C2691.16 1779.51 2688.77 1778.73 2686.78 1777.29C2644.72 1746.71 2621.16 1694.95 2623.78 1638.86C2626.2 1586.49 2650.69 1540.28 2687.7 1518.27C2689.58 1517.23 2691.68 1516.67 2693.82 1516.64C2734.55 1517.3 2770.56 1532.94 2800.88 1563.12C2801.68 1563.92 2802.35 1564.83 2802.88 1565.82C2839.41 1633.24 2794.65 1674.6 2755.15 1711.1C2734.52 1730.16 2713.15 1749.87 2704.43 1772.15C2703.79 1773.8 2702.77 1775.28 2701.46 1776.47C2700.15 1777.67 2698.58 1778.55 2696.87 1779.04C2695.82 1779.36 2694.72 1779.52 2693.61 1779.51ZM2696.77 1539.94C2667.94 1558.69 2648.94 1596.63 2646.95 1639.94C2644.95 1683.81 2660.34 1723.05 2689.61 1749.7C2701.75 1728.83 2720.82 1711.2 2739.38 1694.06C2777.11 1659.19 2809.74 1629.06 2783.24 1578.38C2758.12 1553.83 2729.78 1541.24 2696.77 1539.94Z" fill="#0F156D"/>
<path d="M2797.67 1655.27C2794.91 1655.27 2792.25 1654.29 2790.14 1652.5C2764.72 1630.84 2732.43 1629.26 2691.4 1647.71C2689.82 1648.42 2688.09 1648.77 2686.34 1648.73C2684.6 1648.68 2682.89 1648.25 2681.34 1647.45C2679.79 1646.66 2678.44 1645.52 2677.39 1644.13C2676.34 1642.74 2675.61 1641.14 2675.26 1639.43C2670.5 1615.89 2656.65 1599.82 2642.4 1585.96C2641.31 1584.9 2640.44 1583.63 2639.84 1582.23C2639.23 1580.83 2638.91 1579.33 2638.89 1577.8C2638.87 1576.28 2639.15 1574.77 2639.71 1573.35C2640.28 1571.93 2641.11 1570.64 2642.17 1569.55C2643.24 1568.46 2644.5 1567.58 2645.9 1566.98C2647.3 1566.38 2648.81 1566.06 2650.33 1566.04C2651.86 1566.01 2653.37 1566.29 2654.78 1566.86C2656.2 1567.42 2657.49 1568.26 2658.58 1569.32C2672.15 1582.51 2686.58 1598.8 2694.36 1621.39C2738.24 1605.01 2775.49 1609.5 2805.2 1634.83C2807.01 1636.37 2808.3 1638.43 2808.9 1640.72C2809.5 1643.02 2809.38 1645.45 2808.56 1647.67C2807.74 1649.9 2806.26 1651.82 2804.31 1653.18C2802.36 1654.54 2800.05 1655.27 2797.67 1655.27Z" fill="#0F156D"/>
<path d="M2693.61 1779.51C2691.16 1779.51 2688.77 1778.73 2686.78 1777.29C2644.72 1746.71 2621.16 1694.95 2623.78 1638.86C2626.2 1586.49 2650.69 1540.28 2687.7 1518.27C2689.58 1517.23 2691.68 1516.67 2693.82 1516.64C2734.55 1517.3 2770.56 1532.94 2800.88 1563.12C2801.68 1563.92 2802.35 1564.83 2802.88 1565.82C2839.41 1633.24 2794.65 1674.6 2755.15 1711.1C2734.52 1730.16 2713.15 1749.87 2704.43 1772.15C2703.79 1773.8 2702.77 1775.28 2701.46 1776.47C2700.15 1777.67 2698.58 1778.55 2696.87 1779.04C2695.82 1779.36 2694.72 1779.52 2693.61 1779.51ZM2696.77 1539.94C2667.94 1558.69 2648.94 1596.63 2646.95 1639.94C2644.95 1683.81 2660.34 1723.05 2689.61 1749.7C2701.75 1728.83 2720.82 1711.2 2739.38 1694.06C2777.11 1659.19 2809.74 1629.06 2783.24 1578.38C2758.12 1553.83 2729.78 1541.24 2696.77 1539.94Z" fill="#0F156D"/>
<path d="M2797.67 1655.27C2794.91 1655.27 2792.25 1654.29 2790.14 1652.5C2764.72 1630.84 2732.43 1629.26 2691.4 1647.71C2689.82 1648.42 2688.09 1648.77 2686.34 1648.73C2684.6 1648.68 2682.89 1648.25 2681.34 1647.45C2679.79 1646.66 2678.44 1645.52 2677.39 1644.13C2676.34 1642.74 2675.61 1641.14 2675.26 1639.43C2670.5 1615.89 2656.65 1599.82 2642.4 1585.96C2641.31 1584.9 2640.44 1583.63 2639.84 1582.23C2639.23 1580.83 2638.91 1579.33 2638.89 1577.8C2638.87 1576.28 2639.15 1574.77 2639.71 1573.35C2640.28 1571.93 2641.11 1570.64 2642.17 1569.55C2643.24 1568.46 2644.5 1567.58 2645.9 1566.98C2647.3 1566.38 2648.81 1566.06 2650.33 1566.04C2651.86 1566.01 2653.37 1566.29 2654.78 1566.86C2656.2 1567.42 2657.49 1568.26 2658.58 1569.32C2672.15 1582.51 2686.58 1598.8 2694.36 1621.39C2738.24 1605.01 2775.49 1609.5 2805.2 1634.83C2807.01 1636.37 2808.3 1638.43 2808.9 1640.72C2809.5 1643.02 2809.38 1645.45 2808.56 1647.67C2807.74 1649.9 2806.26 1651.82 2804.31 1653.18C2802.36 1654.54 2800.05 1655.27 2797.67 1655.27Z" fill="#0F156D"/>
<g opacity="0.6">
<path d="M538.246 1365.86C546.362 1355.52 531.025 1329.94 503.99 1308.72C476.955 1287.5 448.46 1278.68 440.344 1289.01C432.228 1299.35 447.565 1324.94 474.6 1346.16C501.635 1367.38 530.13 1376.2 538.246 1365.86Z" fill="white"/>
</g>
<path d="M2009.36 866.645C2051.12 857.563 2076.03 809.068 2064.99 758.329C2053.96 707.589 2011.16 673.819 1969.4 682.901C1927.64 691.983 1902.73 740.478 1913.77 791.218C1924.81 841.958 1967.6 875.728 2009.36 866.645Z" fill="#F4609C"/>
<path d="M1305.82 1858.84C1347.58 1849.76 1372.48 1801.26 1361.45 1750.52C1350.41 1699.78 1307.61 1666.01 1265.86 1675.09C1224.1 1684.18 1199.19 1732.67 1210.22 1783.41C1221.26 1834.15 1264.06 1867.92 1305.82 1858.84Z" fill="#F4609C"/>
<path d="M2660.44 2012.59C2684.83 1979.08 2686.46 1938.7 2664.08 1922.41C2641.7 1906.11 2603.77 1920.08 2579.38 1953.59C2554.98 1987.11 2553.35 2027.49 2575.74 2043.78C2598.12 2060.07 2636.04 2046.11 2660.44 2012.59Z" fill="#F4609C"/>
<path d="M2688.34 1896.27C2702.87 1896.27 2714.64 1882.89 2714.64 1866.39C2714.64 1849.89 2702.87 1836.51 2688.34 1836.51C2673.82 1836.51 2662.04 1849.89 2662.04 1866.39C2662.04 1882.89 2673.82 1896.27 2688.34 1896.27Z" fill="#F4609C"/>
<path d="M1446.43 1846.8C1463.62 1843.07 1473.87 1823.11 1469.33 1802.22C1464.79 1781.33 1447.17 1767.43 1429.99 1771.17C1412.8 1774.91 1402.55 1794.87 1407.09 1815.76C1411.63 1836.64 1429.25 1850.54 1446.43 1846.8Z" fill="#F4609C"/>
<path d="M1372.29 1940.17C1389.47 1936.44 1399.73 1916.47 1395.18 1895.59C1390.64 1874.7 1373.03 1860.8 1355.84 1864.54C1338.65 1868.28 1328.4 1888.24 1332.94 1909.13C1337.48 1930.01 1355.1 1943.91 1372.29 1940.17Z" fill="#F4609C"/>
<path d="M1971.45 1018.96C1998.55 1013.06 2014.72 981.59 2007.55 948.66C2000.39 915.729 1972.61 893.812 1945.51 899.706C1918.41 905.601 1902.25 937.074 1909.41 970.005C1916.57 1002.94 1944.35 1024.85 1971.45 1018.96Z" fill="#F4609C"/>
<path d="M544.103 1536.16C562.22 1533.37 573.236 1507.28 568.708 1477.9C564.18 1448.52 545.824 1426.96 527.707 1429.75C509.591 1432.55 498.575 1458.63 503.102 1488.01C507.63 1517.39 525.987 1538.95 544.103 1536.16Z" fill="#F4609C"/>
<path d="M513.335 1618.31C528.27 1616.01 538.021 1598.86 535.116 1580.01C532.211 1561.15 517.749 1547.74 502.815 1550.04C487.881 1552.34 478.129 1569.49 481.034 1588.34C483.939 1607.19 498.401 1620.61 513.335 1618.31Z" fill="#F4609C"/>
<path d="M2090.28 969.336C2107.07 965.684 2117.08 946.187 2112.64 925.788C2108.21 905.388 2091 891.811 2074.21 895.463C2057.42 899.114 2047.41 918.611 2051.84 939.011C2056.28 959.41 2073.49 972.987 2090.28 969.336Z" fill="#F4609C"/>
<path d="M1948.47 609.094C1951.66 584.565 1937.88 562.548 1917.69 559.918C1897.5 557.288 1878.54 575.042 1875.34 599.571C1872.15 624.101 1885.93 646.118 1906.12 648.748C1926.31 651.377 1945.27 633.624 1948.47 609.094Z" fill="#F4609C"/>
<path d="M2015.72 1858.83C2257.56 1602.93 2627.05 1913.38 2424.31 2393.17C2280.37 2702.71 1763.44 2668.66 1602.48 2366.08C1923.75 2349.21 2241.68 2153.28 2015.72 1858.83Z" fill="#FF83B6"/>
<g opacity="0.2">
<path d="M2475.21 2037.71C2467.91 2099.64 2450.55 2166.44 2420.76 2236.94C2303.85 2488.36 1940.86 2513.1 1722.42 2351.38C1682.83 2359.06 1642.76 2363.97 1602.48 2366.08C1763.48 2668.66 2280.37 2702.71 2424.31 2393.17C2481.26 2258.38 2493.05 2137 2475.21 2037.71Z" fill="#000072"/>
</g>
<path d="M2045.07 2633C1955.58 2633 1863.99 2611.39 1785.56 2571.57C1695.85 2526.02 1625.46 2458.76 1581.98 2377.04C1580.15 2373.59 1579.22 2369.74 1579.27 2365.83C1579.32 2361.93 1580.35 2358.1 1582.28 2354.7C1584.2 2351.31 1586.95 2348.45 1590.27 2346.39C1593.59 2344.34 1597.38 2343.15 1601.27 2342.95C1816.27 2331.66 1997.2 2244.95 2051.49 2127.16C2086.56 2051.08 2068.33 1965.56 1997.3 1873.01C1993.94 1868.63 1992.25 1863.2 1992.54 1857.68C1992.82 1852.17 1995.06 1846.94 1998.85 1842.93C2101.29 1734.54 2234.75 1712.81 2347.18 1786.22C2482.63 1874.67 2571.23 2105.22 2445.69 2402.22C2445.58 2402.47 2445.47 2402.72 2445.35 2402.97C2380.65 2542.12 2236.53 2628.02 2059.84 2632.77C2054.93 2632.89 2049.99 2633 2045.07 2633ZM1641.67 2386.47C1725.37 2511.77 1887.79 2590.98 2058.6 2586.39C2217.14 2582.14 2345.88 2506.39 2403.08 2383.8C2518 2111.47 2441.54 1903.29 2321.79 1825.1C2234.24 1767.91 2130.11 1782.05 2046.26 1861.1C2135.56 1986.91 2121.9 2085.26 2093.66 2146.55C2027.46 2290.17 1825.32 2368.56 1641.67 2386.42V2386.47Z" fill="#0F156D"/>
<g opacity="0.2">
<path d="M734.225 1921.12C820.385 1990.49 949.355 1890.17 899.055 1809.69C981.895 1855.53 990.765 1950.53 890.545 1990.49C825.775 2013.21 771.055 1999.56 734.225 1921.12Z" fill="#000072"/>
</g>
<path d="M1995.7 2438.24C1903.86 2446.55 1810.91 2434.85 1725.48 2400.02C1255.78 2208.45 1608.89 1611.35 1893.32 1815.78C1902.6 1822.45 1911.47 1829.68 1919.88 1837.42C1924.42 1841.58 1929.21 1845.46 1934.23 1849.03C1898.01 1884.64 1878.98 1954.38 1906.56 2034.89C1910.97 2047.47 1917.19 2057.6 1924.62 2065.44C1964.92 2060.29 2001 2018.78 1980.89 1951.69C1964.83 1910.83 1959.39 1881.95 1965.8 1866.39C1982.94 1873.4 2001.21 1877.23 2019.71 1877.68C2022.96 1877.77 2026.21 1877.82 2029.51 1877.82C2040.51 1877.82 2051.75 1877.35 2063.31 1876.42C2065.63 1876.28 2067.95 1876.05 2070.31 1875.82C2090.94 1873.89 2111.46 1870.93 2131.78 1866.95C2429.54 1762.62 2564.54 2386.74 1995.7 2438.24Z" fill="#FFB774"/>
<g opacity="0.2">
<path d="M2169.82 2136.54C2137.12 2134.14 2119.21 2106.94 2122.82 2043.6C2123.28 2036.41 2122.29 2029.21 2119.92 2022.41C2117.56 2015.61 2113.86 2009.35 2109.04 2004C2100.18 1994.26 2101.04 1978.67 2111.6 1970.81C2153.43 1939.67 2305.38 1973.55 2288.13 2043.49C2286.64 2050.23 2286.03 2057.13 2286.32 2064.03C2286.99 2098.51 2280.81 2124.25 2261.61 2133.34C2257.92 2135.15 2254.78 2137.93 2252.54 2141.38C2250.31 2144.83 2249.05 2148.83 2248.9 2152.94C2245.96 2221.51 2187.39 2203.23 2188.03 2157.49C2188.2 2146.74 2180.54 2137.33 2169.82 2136.54Z" fill="#000072"/>
</g>
<path d="M2149.7 2109.06C2117 2106.66 2099.09 2079.45 2102.7 2016.12C2103.16 2008.93 2102.17 2001.73 2099.81 1994.93C2097.44 1988.13 2093.74 1981.87 2088.92 1976.52C2080.06 1966.78 2080.92 1951.18 2091.48 1943.32C2133.31 1912.19 2285.26 1946.06 2268.01 2016.01C2266.52 2022.75 2265.91 2029.65 2266.2 2036.55C2266.87 2071.03 2260.69 2096.76 2241.49 2105.85C2237.8 2107.66 2234.66 2110.44 2232.43 2113.9C2230.19 2117.35 2228.93 2121.35 2228.78 2125.46C2225.84 2194.03 2167.27 2175.75 2167.91 2130.01C2168.08 2119.26 2160.42 2109.84 2149.7 2109.06Z" fill="#5E3F96"/>
<g opacity="0.6">
<path d="M2122.84 2030.88C2123.3 2023.69 2122.31 2016.49 2119.94 2009.69C2117.58 2002.89 2113.88 1996.63 2109.06 1991.27C2100.2 1981.53 2101.06 1965.94 2111.62 1958.08C2138.1 1938.37 2208.67 1944.74 2252.55 1969.79C2214.49 1932.98 2122.55 1920.18 2091.5 1943.32C2080.94 1951.18 2080.08 1966.78 2088.94 1976.52C2093.76 1981.87 2097.46 1988.13 2099.83 1994.93C2102.19 2001.73 2103.18 2008.94 2102.72 2016.12C2099.61 2070.47 2112.39 2098.12 2136.72 2106.45C2125.84 2091.78 2120.75 2067.34 2122.84 2030.88Z" fill="white"/>
<path d="M2188.05 2144.76C2188.2 2134.02 2180.54 2124.6 2169.82 2123.76C2168.82 2123.69 2167.91 2123.52 2166.95 2123.41C2167.62 2125.53 2167.96 2127.74 2167.95 2129.96C2167.65 2151.76 2180.8 2167.29 2194.95 2170.18C2190.21 2162.57 2187.81 2153.73 2188.05 2144.76Z" fill="white"/>
</g>
<g opacity="0.2">
<path d="M1986.79 2224.11C1973.41 2195.5 1985.47 2161.86 2019.79 2158.73C2027.23 2158.1 2034.51 2156.21 2041.32 2153.15C2085.32 2133.02 2168.21 2184.95 2139.15 2281.42C2135.76 2292.64 2129.06 2302.57 2119.93 2309.92C2110.8 2317.27 2099.67 2321.7 2087.98 2322.63C2021.34 2328.05 1970.15 2314.27 1988.83 2260.63C1992.97 2248.66 1992.23 2235.55 1986.79 2224.11Z" fill="#000072"/>
</g>
<path d="M1962.62 2200C1949.24 2171.39 1961.31 2137.76 1995.62 2134.63C2003.06 2134 2010.34 2132.11 2017.15 2129.05C2061.15 2108.92 2144.05 2160.84 2114.99 2257.32C2111.59 2268.54 2104.89 2278.47 2095.76 2285.82C2086.63 2293.17 2075.5 2297.6 2063.81 2298.53C1997.17 2303.95 1945.99 2290.17 1964.67 2236.53C1968.8 2224.55 1968.06 2211.44 1962.62 2200Z" fill="#FA6469"/>
<g opacity="0.6">
<path d="M1993.42 2260.68C1997.58 2248.7 1996.86 2235.57 1991.42 2224.11C1978.04 2195.5 1990.1 2161.86 2024.42 2158.73C2031.86 2158.1 2039.14 2156.21 2045.95 2153.15C2061.6 2145.99 2082.17 2147.99 2100.88 2157.84C2078.31 2129.02 2041.69 2117.84 2017.16 2129.04C2010.35 2132.1 2003.07 2133.99 1995.63 2134.62C1961.35 2137.75 1949.28 2171.38 1962.63 2199.99C1968.07 2211.45 1968.79 2224.58 1964.63 2236.56C1953.86 2267.46 1966.34 2285.1 1991.63 2293.49C1988.47 2284.78 1988.8 2274 1993.42 2260.68Z" fill="white"/>
</g>
<g opacity="0.2">
<path d="M2267.88 1871C2394.13 2007.66 2360.77 2346.11 1963.32 2394.51C1966.15 2390.72 1968.29 2386.46 1969.62 2381.92C1976.76 2358.86 1961.23 2334.08 1937.1 2333.44C1915.64 2332.88 1906.26 2351.11 1920.82 2371.7C1923.89 2376.11 1926.42 2380.86 1928.36 2385.86C1929.96 2390.1 1932.34 2394 1935.36 2397.36C1845.16 2404.8 1754.05 2392.95 1670.19 2358.76C1644.92 2348.56 1620.55 2336.26 1597.32 2321.99C1630.55 2351.99 1672.84 2378.55 1725.51 2399.99C1810.94 2434.82 1903.89 2446.52 1995.73 2438.21C2466.98 2395.57 2455.15 1959.84 2267.88 1871Z" fill="#000072"/>
</g>
<path d="M1900.45 2349.52C1885.89 2328.93 1895.28 2310.7 1916.73 2311.27C1940.87 2311.91 1956.4 2336.68 1949.26 2359.74C1941.49 2384.85 1918.55 2390.16 1908 2363.68C1906.05 2358.68 1903.52 2353.93 1900.45 2349.52Z" fill="#47EF92"/>
<g opacity="0.2">
<path d="M1735.46 2187.73C1765.41 2155.5 1828.81 2168.86 1835.26 2214.64C1837.5 2230.49 1842.19 2245.98 1850.51 2259.64C1941.88 2409.9 1561.86 2300.32 1722.84 2198.52C1727.5 2195.49 1731.74 2191.86 1735.46 2187.73Z" fill="#000072"/>
</g>
<path d="M1723.54 2152.5C1753.49 2120.26 1816.89 2133.62 1823.34 2179.4C1825.57 2195.25 1830.27 2210.74 1838.59 2224.4C1929.96 2374.66 1549.94 2265.08 1710.92 2163.28C1715.58 2160.24 1719.82 2156.62 1723.54 2152.5Z" fill="#47EF92"/>
<g opacity="0.6">
<path d="M1850.37 2250L1850.6 2250.41C1848.05 2242.29 1844.53 2234.5 1840.13 2227.21C1842.63 2235.19 1846.07 2242.84 1850.37 2250Z" fill="white"/>
<path d="M1722.7 2188.84C1727.36 2185.8 1731.6 2182.17 1735.32 2178.04C1758.58 2153.04 1802.02 2155.48 1823.32 2179.29C1816.78 2133.6 1753.47 2120.29 1723.54 2152.5C1719.82 2156.63 1715.58 2160.26 1710.92 2163.3C1664.12 2192.9 1663.09 2223.14 1682.86 2247.47C1680.48 2229 1691.21 2208.76 1722.7 2188.84Z" fill="white"/>
</g>
<g opacity="0.2">
<path d="M1673.54 2081.34C1593.83 2108.43 1589.96 2043.17 1619.37 2010.92L1623.37 1993.51C1625.5 1984.32 1629.63 1975.71 1635.47 1968.3C1641.31 1960.89 1648.71 1954.86 1657.14 1950.64L1684.7 1936.85C1690.65 1933.88 1697.13 1932.15 1703.77 1931.78C1710.4 1931.41 1717.04 1932.4 1723.27 1934.7C1754.83 1946.3 1777.27 1964.02 1783.43 1992.6C1784.72 1998.77 1784.7 2005.15 1783.39 2011.31C1782.07 2017.48 1779.48 2023.31 1775.79 2028.42L1761.25 2048.84C1756.28 2055.71 1752.47 2063.36 1749.97 2071.47C1734.95 2121.71 1689.67 2115.72 1673.54 2081.34Z" fill="#000072"/>
</g>
<path d="M1662.84 2051.9C1583.13 2078.99 1579.27 2013.73 1608.67 1981.48L1612.67 1964.07C1614.8 1954.88 1618.93 1946.27 1624.77 1938.86C1630.61 1931.44 1638.02 1925.41 1646.45 1921.19L1674 1907.41C1679.95 1904.44 1686.43 1902.71 1693.07 1902.34C1699.7 1901.97 1706.34 1902.96 1712.57 1905.25C1744.14 1916.86 1766.57 1934.58 1772.74 1963.16C1774.02 1969.33 1774.01 1975.71 1772.69 1981.87C1771.38 1988.04 1768.79 1993.87 1765.1 1998.98L1750.56 2019.4C1745.58 2026.27 1741.77 2033.91 1739.27 2042.02C1724.31 2092.27 1679.02 2086.28 1662.84 2051.9Z" fill="#09CBFF"/>
<g opacity="0.6">
<path d="M1619.32 2010.92L1623.32 1993.51C1625.45 1984.32 1629.58 1975.71 1635.42 1968.3C1641.26 1960.89 1648.66 1954.86 1657.09 1950.64L1684.65 1936.85C1690.6 1933.88 1697.08 1932.15 1703.72 1931.78C1710.35 1931.41 1716.99 1932.4 1723.22 1934.7C1745.29 1942.81 1762.87 1953.93 1773.57 1969.7C1773.46 1967.52 1773.18 1965.35 1772.74 1963.21C1766.56 1934.63 1744.14 1916.91 1712.57 1905.3C1706.34 1903.01 1699.7 1902.02 1693.07 1902.39C1686.43 1902.76 1679.95 1904.49 1674 1907.46L1646.45 1921.24C1638.02 1925.46 1630.61 1931.49 1624.77 1938.91C1618.93 1946.32 1614.8 1954.93 1612.67 1964.12L1608.67 1981.53C1590.41 2001.53 1585 2034.3 1602.6 2049.76C1603.38 2036.22 1609.47 2021.72 1619.32 2010.92Z" fill="white"/>
</g>
<path d="M1939.9 2464C1861.72 2464 1785.52 2449.59 1716.7 2421.52C1508.38 2336.52 1474.78 2186.71 1473.29 2104.95C1470.74 1965.4 1554.77 1825.39 1673.07 1772.04C1763.72 1731.15 1856.94 1748.31 1935.56 1820.33C1958.78 1841.56 1988.89 1853.69 2020.34 1854.48C2050.96 1855.27 2086.42 1851.92 2125.79 1844.48C2203.44 1817.9 2279.67 1834.88 2335.2 1891.21C2409.33 1966.38 2432.51 2096.92 2391.59 2208.65C2360.88 2292.51 2268.88 2436.84 1997.81 2461.38C1978.45 2463.11 1959.11 2464 1939.9 2464ZM1769.21 1797.14C1743.61 1797.14 1717.72 1802.84 1692.16 1814.37C1591.67 1859.69 1517.53 1984.24 1519.71 2104.1C1521.92 2225.55 1598.11 2323.01 1734.23 2378.53C1813.1 2410.7 1902.81 2423.35 1993.61 2415.14C2239.19 2392.91 2321.05 2266.22 2347.99 2192.68C2382.99 2097.21 2364.09 1986.68 2302.13 1923.81C2258.69 1879.75 2200.93 1867.34 2139.46 1888.88C2138.39 1889.26 2137.28 1889.56 2136.15 1889.77C2092.25 1898.18 2054 1901.83 2019.15 1900.9C1976.51 1899.81 1935.7 1883.36 1904.22 1854.57C1862.66 1816.5 1816.41 1797.12 1769.21 1797.12V1797.14Z" fill="#0F156D"/>
<path d="M2015.72 1858.83C1934.11 1728.11 1792.85 1848.38 1849.72 2014.37C1882.22 2107.27 2015.72 2067.75 1980.88 1951.69C1949.77 1872.59 1958.47 1838.36 2015.72 1858.83Z" fill="#FF67A0"/>
<path d="M2015.72 1858.83C1988.04 1848.94 1971.72 1851.83 1965.8 1866.39C1954.63 1861.88 1944.03 1856.05 1934.23 1849.03C1898.01 1884.64 1878.98 1954.38 1906.56 2034.89C1910.97 2047.47 1917.19 2057.6 1924.62 2065.44C1895.18 2069.2 1863.47 2053.6 1849.73 2014.37C1818.34 1922.72 1847.31 1845.04 1893.32 1815.78C1930.65 1792.11 1979.17 1800.28 2015.72 1858.83Z" fill="#FF67A0"/>
<g opacity="0.2">
<path d="M1893.44 2076.86C1944.31 2071.41 1989.85 2027.52 1964.44 1956.58C1944.16 1913.38 1937.31 1882.84 1945.44 1866.39C1967.37 1873.86 1990.33 1877.89 2013.49 1878.32C2017.59 1878.42 2021.69 1878.47 2025.85 1878.47C2006.51 1890.21 2010.97 1924.47 2036.23 1978.28C2074.2 2084.37 1953.4 2130 1893.44 2076.86Z" fill="#000072"/>
</g>
<path d="M2072.54 1879.35C2069.29 1878.19 2066.22 1877.21 2063.3 1876.42C2065.62 1876.28 2067.94 1876.05 2070.3 1875.82C2071.06 1877 2071.8 1878.14 2072.54 1879.35Z" fill="#FF67A0"/>
<path d="M1916.05 2089.17C1880.67 2089.17 1844.11 2068.61 1827.81 2022.04C1789.24 1909.46 1832.33 1818.39 1892.43 1789.8C1932.54 1770.72 1991.14 1775.61 2035.43 1846.53C2037.99 1850.62 2039.21 1855.4 2038.92 1860.22C2038.63 1865.03 2036.85 1869.63 2033.83 1873.39C2030.8 1877.15 2026.68 1879.87 2022.04 1881.17C2017.4 1882.48 2012.46 1882.31 2007.92 1880.68C1995.57 1876.27 1989.37 1876.07 1986.92 1876.29C1985.92 1880.59 1984.45 1897.29 2002.51 1943.18C2002.75 1943.79 2002.96 1944.4 2003.15 1945.02C2025.79 2020.49 1988.47 2070.35 1944.21 2084.72C1935.12 2087.67 1925.62 2089.17 1916.05 2089.17ZM1934.14 1826.62C1926.6 1826.67 1919.16 1828.41 1912.38 1831.72C1869.82 1851.97 1842.96 1923.01 1871.69 2006.85C1883.09 2039.44 1909.13 2047.3 1929.85 2040.56C1953.95 2032.74 1972.18 2004.56 1958.91 1959.24C1935.5 1899.38 1933.83 1863.6 1953.49 1843.32C1956.36 1840.33 1959.66 1837.78 1963.28 1835.76C1953.81 1829.71 1944 1826.62 1934.14 1826.62Z" fill="#0F156D"/>
<path d="M1700.38 2090.32C1683.66 2090.32 1667.76 2081.11 1657.38 2065.73C1613.79 2077.73 1595.12 2061.45 1587.71 2050.14C1574.71 2030.32 1579.35 1998.34 1598.02 1976.04L1601.39 1961.45C1603.9 1950.59 1608.77 1940.42 1615.67 1931.66C1622.56 1922.9 1631.31 1915.78 1641.28 1910.81L1668.84 1897C1676.21 1893.33 1684.24 1891.2 1692.45 1890.74C1700.67 1890.28 1708.89 1891.5 1716.61 1894.33C1755.48 1908.62 1777.56 1930.33 1784.11 1960.67C1785.73 1968.42 1785.72 1976.42 1784.08 1984.17C1782.44 1991.92 1779.21 1999.24 1774.58 2005.67L1760.04 2026.09C1755.8 2031.92 1752.55 2038.42 1750.42 2045.31C1742.42 2072.18 1725.42 2088.53 1703.8 2090.16C1702.66 2090.27 1701.52 2090.32 1700.38 2090.32ZM1662.84 2040.32C1665.05 2040.32 1667.2 2040.95 1669.06 2042.13C1670.92 2043.31 1672.4 2044.99 1673.34 2046.98C1679.34 2059.83 1690.9 2067.9 1702.06 2067.08C1713.54 2066.21 1723.06 2055.88 1728.18 2038.73C1731.06 2029.41 1735.45 2020.62 1741.18 2012.73L1755.72 1992.3C1758.48 1988.5 1760.41 1984.17 1761.4 1979.59C1762.39 1975 1762.41 1970.26 1761.47 1965.67C1756.66 1943.41 1739.88 1927.67 1708.65 1916.21C1703.91 1914.47 1698.85 1913.72 1693.8 1914C1688.75 1914.28 1683.81 1915.59 1679.28 1917.85L1651.72 1931.63C1644.81 1935.08 1638.74 1940.02 1633.96 1946.09C1629.18 1952.16 1625.8 1959.22 1624.06 1966.75L1620.06 1984.16C1619.62 1986.1 1618.68 1987.89 1617.33 1989.36C1604.2 2003.76 1599.56 2025.8 1607.22 2037.48C1614.4 2048.48 1633.36 2049.74 1659.22 2040.97C1660.39 2040.55 1661.61 2040.32 1662.84 2040.29V2040.32Z" fill="#0F156D"/>
<path d="M1803.54 2309.67C1754.84 2309.67 1690.68 2283.03 1668.14 2246.93C1658.67 2231.77 1643.29 2192.32 1704.7 2153.49C1708.51 2150.98 1711.97 2147.99 1715.01 2144.6C1733.06 2125.17 1762.32 2118.14 1789.59 2126.71C1814.5 2134.53 1831.41 2153.62 1834.81 2177.78C1837.02 2193.44 1841.62 2207.11 1848.48 2218.39C1879.12 2268.77 1859.48 2291.22 1845.03 2300.12C1834.32 2306.7 1819.78 2309.67 1803.54 2309.67ZM1766.54 2146.38C1753.23 2146.38 1740.48 2151.38 1732.06 2160.38C1727.66 2165.25 1722.65 2169.52 1717.14 2173.1C1684.95 2193.45 1675.14 2214.15 1687.87 2234.62C1712.96 2274.81 1803.17 2298.62 1832.87 2280.33C1845.49 2272.56 1844.08 2255.77 1828.67 2230.43C1820.16 2216.43 1814.5 2199.81 1811.84 2181C1808.78 2159.28 1790.41 2151.27 1782.65 2148.83C1777.42 2147.2 1771.97 2146.37 1766.48 2146.38H1766.54Z" fill="#0F156D"/>
<path d="M2038.14 2311.24C1998.55 2311.24 1971.79 2302.53 1958.42 2285.24C1947.88 2271.62 1946.29 2253.96 1953.67 2232.76C1956.83 2223.63 1956.27 2213.64 1952.11 2204.92C1943.24 2185.97 1943.54 2164.92 1952.9 2148.6C1961.39 2133.82 1976.17 2124.75 1994.54 2123.07C2000.68 2122.57 2006.68 2121.02 2012.29 2118.5C2037.23 2107.07 2071.13 2114.34 2096.63 2136.57C2129.77 2165.47 2140.77 2211.86 2126.07 2260.67C2122.05 2274.15 2114.03 2286.09 2103.08 2294.92C2092.13 2303.74 2078.75 2309.03 2064.72 2310.09C2055.3 2310.85 2046.44 2311.23 2038.14 2311.24ZM2038.03 2136.34C2032.5 2136.25 2027.02 2137.37 2021.95 2139.6C2013.95 2143.21 2005.39 2145.44 1996.64 2146.18C1985.88 2147.18 1977.72 2151.99 1973.03 2160.18C1967.52 2169.79 1967.56 2183.18 1973.14 2195.11C1979.87 2209.31 1980.75 2225.58 1975.6 2240.42C1970.89 2253.92 1971.28 2263.95 1976.78 2271.06C1987.38 2284.77 2018.78 2290.55 2062.84 2286.98C2072.22 2286.27 2081.15 2282.74 2088.47 2276.85C2095.79 2270.96 2101.15 2262.98 2103.84 2253.98C2121.13 2196.58 2093.84 2164.98 2081.36 2154.08C2068.28 2142.65 2052.18 2136.34 2038.03 2136.34Z" fill="#0F156D"/>
<path d="M2199.62 2182.36H2198.69C2177.97 2181.76 2155.88 2161.52 2156.33 2129.86C2156.38 2125.6 2153.61 2120.99 2148.85 2120.65C2106.73 2117.56 2087.31 2082.17 2091.13 2015.47C2091.51 2009.82 2090.75 2004.16 2088.9 1998.81C2087.05 1993.46 2084.14 1988.54 2080.35 1984.33C2077.08 1980.72 2074.6 1976.47 2073.06 1971.85C2071.53 1967.23 2070.97 1962.34 2071.43 1957.49C2071.84 1952.87 2073.21 1948.39 2075.47 1944.34C2077.73 1940.29 2080.82 1936.77 2084.54 1934C2116.73 1910 2198.1 1917.92 2245.79 1949.6C2273.79 1968.2 2285.68 1992.77 2279.26 2018.78C2278.11 2023.47 2277.66 2028.88 2277.8 2036.32C2278.63 2079.78 2268.38 2105.95 2246.44 2116.32C2244.66 2117.23 2243.15 2118.6 2242.08 2120.3C2241.01 2121.99 2240.42 2123.94 2240.36 2125.94C2238.61 2167.67 2217.54 2182.35 2199.62 2182.36ZM2140.3 1943.22C2122.19 1943.22 2106.83 1946.38 2098.43 1952.64C2097.33 1953.48 2096.41 1954.55 2095.74 1955.77C2095.07 1956.99 2094.66 1958.33 2094.54 1959.72C2094.39 1961.35 2094.58 1962.99 2095.09 1964.54C2095.61 1966.09 2096.45 1967.51 2097.54 1968.72C2103.42 1975.2 2107.93 1982.8 2110.81 1991.05C2113.69 1999.31 2114.88 2008.06 2114.31 2016.79C2109.87 2094.51 2139.43 2096.68 2150.56 2097.49C2167.06 2098.7 2179.79 2113.06 2179.56 2130.18C2179.32 2146.91 2189.81 2158.88 2199.37 2159.18C2209.28 2159.61 2216.37 2146.05 2217.22 2125C2217.44 2118.77 2219.36 2112.72 2222.77 2107.5C2226.18 2102.29 2230.95 2098.1 2236.56 2095.4C2249.19 2089.4 2255.27 2069.71 2254.64 2036.81C2254.33 2028.9 2255.05 2020.99 2256.78 2013.27C2260.78 1997.03 2252.78 1982.13 2232.99 1968.99C2207.02 1951.71 2169.97 1943.22 2140.3 1943.22Z" fill="#0F156D"/>
<path d="M1927.54 2392.82C1914.73 2392.82 1903.47 2383.61 1897.24 2367.98C1895.63 2363.83 1893.53 2359.89 1890.99 2356.23C1881.17 2342.35 1879.12 2327.68 1885.36 2316.01C1891.03 2305.41 1902.83 2299.24 1917.06 2299.68C1924.2 2299.86 1931.19 2301.71 1937.48 2305.08C1943.77 2308.44 1949.18 2313.23 1953.29 2319.06C1957.78 2325.38 1960.76 2332.65 1961.99 2340.3C1963.21 2347.95 1962.66 2355.78 1960.37 2363.19C1954.89 2380.9 1942.71 2392.25 1928.6 2392.81L1927.54 2392.82ZM1909.95 2342.82C1913.54 2347.97 1916.51 2353.53 1918.8 2359.38C1921.62 2366.47 1925.22 2369.61 1927.58 2369.61H1927.68C1930.29 2369.51 1935.23 2365.89 1938.19 2356.32C1939.43 2352.34 1939.74 2348.13 1939.08 2344.02C1938.43 2339.9 1936.84 2335.99 1934.43 2332.59C1932.41 2329.66 1929.73 2327.26 1926.6 2325.57C1923.47 2323.88 1919.99 2322.96 1916.43 2322.88C1911.26 2322.77 1907.27 2324.22 1905.82 2326.95C1904.37 2329.68 1904.64 2335.35 1909.93 2342.83L1909.95 2342.82Z" fill="#0F156D"/>
<path d="M714.244 567.719C736.538 531.332 746.224 488.613 741.804 446.169C730.794 338.999 634.974 260.999 527.774 271.999C420.574 282.999 342.604 378.829 353.614 485.999C364.624 593.169 460.444 671.169 567.614 660.169C596.433 657.239 624.233 647.908 648.984 632.859L739.284 653.109L714.244 567.719Z" fill="white"/>
<g opacity="0.5">
<path d="M531.614 309.33C631.744 299.05 721.934 366.43 742.354 462.73C742.393 455.777 742.059 448.827 741.354 441.91C730.354 334.71 634.534 256.74 527.354 267.74C420.174 278.74 342.174 374.57 353.184 481.74C353.904 488.686 354.992 495.589 356.444 502.42C356.804 404 431.444 319.62 531.614 309.33Z" fill="white"/>
</g>
<path d="M547.315 678.4C492.924 678.301 440.647 657.329 401.267 619.811C361.888 582.293 338.411 531.092 335.68 476.77C332.949 422.448 351.172 369.15 386.59 327.872C422.008 286.593 471.918 260.484 526.025 254.93C642.375 242.99 746.925 327.93 758.875 444.42C763.481 487.974 754.366 531.879 732.805 570L755.805 648.31C756.645 651.176 756.723 654.212 756.03 657.118C755.337 660.024 753.898 662.698 751.854 664.877C749.811 667.055 747.234 668.663 744.379 669.541C741.524 670.418 738.489 670.535 735.575 669.88L651.875 651.11C626.502 665.452 598.424 674.361 569.425 677.27C562.079 678.025 554.699 678.402 547.315 678.4ZM548.035 288.12C541.855 288.14 535.68 288.474 529.535 289.12C431.925 299.12 360.665 386.71 370.685 484.32C373.752 514.193 384.327 542.805 401.427 567.492C418.526 592.179 441.593 612.138 468.481 625.513C495.369 638.887 525.204 645.241 555.208 643.983C585.212 642.725 614.41 633.897 640.085 618.32C643.884 616.016 648.426 615.267 652.765 616.23L714.635 630.11L697.775 572.64C697.101 570.343 696.916 567.93 697.231 565.556C697.546 563.183 698.355 560.902 699.605 558.86C716.06 531.902 725.047 501.051 725.641 469.472C726.236 437.894 718.418 406.727 702.99 379.168C687.561 351.609 665.078 328.651 637.847 312.651C610.616 296.651 579.618 288.184 548.035 288.12Z" fill="#000072"/>
<g opacity="0.3">
<path d="M715.344 565.84C686.603 590.213 652.21 606.991 615.31 614.639C578.409 622.287 540.181 620.561 504.12 609.618C468.06 598.676 435.318 578.866 408.891 552.002C382.464 525.137 363.194 492.075 352.844 455.84C352.325 465.925 352.582 476.035 353.614 486.08C364.614 593.27 460.444 671.25 567.614 660.25C596.433 657.319 624.233 647.989 648.984 632.94L739.284 653.19L714.224 567.77C714.624 567.1 714.974 566.46 715.344 565.84Z" fill="#000072"/>
</g>
<path d="M610.105 411.311C593.215 394.421 565.835 397.451 548.955 414.311L546.325 416.941L543.695 414.311C526.805 397.431 499.435 394.401 482.545 411.311C474.438 419.421 469.884 430.419 469.884 441.886C469.884 453.353 474.438 464.35 482.545 472.461L485.175 475.081L538.265 528.171C540.402 530.308 543.302 531.509 546.325 531.509C549.348 531.509 552.247 530.308 554.385 528.171L607.475 475.081L610.105 472.461C618.211 464.35 622.765 453.353 622.765 441.886C622.765 430.419 618.211 419.421 610.105 411.311Z" fill="#FF0068"/>
</svg>
