<svg id="Layer_1" data-name="Layer 1" xmlns="http://www.w3.org/2000/svg" xmlns:xlink="http://www.w3.org/1999/xlink" viewBox="0 0 2202.67 3173.87"><defs><style>.cls-1{mask:url(#mask);filter:url(#luminosity-noclip-2);}.cls-2{mix-blend-mode:multiply;fill:url(#linear-gradient);}.cls-3{opacity:0.2;}.cls-4{fill:#000072;}.cls-5{fill:#4d5b6b;}.cls-6{fill:#5f5f82;}.cls-7{opacity:0.6;}.cls-8{fill:#fff;}.cls-9{opacity:0.3;}.cls-10{fill:#6e7189;}.cls-11{fill:#42477f;}.cls-12{fill:#efefef;}.cls-13{fill:none;stroke:#000072;stroke-linejoin:round;stroke-width:47.2px;}.cls-14{mask:url(#mask-2);}.cls-15{fill:url(#linear-gradient-2);}.cls-16{fill:#c0becc;}.cls-17{opacity:0.7;}.cls-18{fill:#05cc0a;}.cls-19{filter:url(#luminosity-noclip);}</style><filter id="luminosity-noclip" x="211.85" y="-9725.87" width="1723.57" height="32766" filterUnits="userSpaceOnUse" color-interpolation-filters="sRGB"><feFlood flood-color="#fff" result="bg"/><feBlend in="SourceGraphic" in2="bg"/></filter><mask id="mask" x="211.85" y="-9725.87" width="1723.57" height="32766" maskUnits="userSpaceOnUse"><g class="cls-19"/></mask><linearGradient id="linear-gradient" x1="1073.6" y1="1458.84" x2="1066.46" y2="3112.71" gradientUnits="userSpaceOnUse"><stop offset="0"/><stop offset="0.93" stop-color="#fff"/></linearGradient><filter id="luminosity-noclip-2" x="211.85" y="1439.07" width="1723.57" height="930.44" filterUnits="userSpaceOnUse" color-interpolation-filters="sRGB"><feFlood flood-color="#fff" result="bg"/><feBlend in="SourceGraphic" in2="bg"/></filter><mask id="mask-2" x="211.85" y="1439.07" width="1723.57" height="930.44" maskUnits="userSpaceOnUse"><g class="cls-1"><polygon class="cls-2" points="465.13 2337.28 211.84 1439.07 1935.41 1465.37 1760.35 2369.51 465.13 2337.28"/></g></mask><linearGradient id="linear-gradient-2" x1="1073.6" y1="1458.84" x2="1066.46" y2="3112.71" gradientUnits="userSpaceOnUse"><stop offset="0" stop-color="#fff"/><stop offset="0.93" stop-color="#cdeeff"/></linearGradient></defs><g class="cls-3"><ellipse class="cls-4" cx="1097.66" cy="2951.73" rx="1085.61" ry="222.14"/></g><path class="cls-5" d="M472.15,2339.6C375.3,2386,299.54,2454.47,262.63,2563.86l249.23,257.61Z"/><path class="cls-4" d="M511.86,2841.05a19.56,19.56,0,0,1-14.08-6L248.55,2577.47a19.57,19.57,0,0,1-4.48-19.87c35.35-104.77,107.19-181.85,219.62-235.66a19.58,19.58,0,0,1,28,16.06l39.71,481.86a19.6,19.6,0,0,1-19.52,21.19ZM285.15,2559l202.69,209.51L455,2370.36C371.08,2416.33,315.28,2478.31,285.15,2559Z"/><ellipse class="cls-6" cx="262.63" cy="2751.93" rx="225.31" ry="276.72" transform="translate(-1523.25 641.78) rotate(-34.79)"/><g class="cls-7"><path class="cls-8" d="M88.22,2566.24c102.19-71,255.72-26.81,342.92,98.7,54.82,78.9,70.35,171.14,49,246.42,42.48-80.65,33-193.83-32.44-288-87.2-125.51-240.73-169.7-342.93-98.7-37.95,26.37-63.45,64.93-76.09,109.4A189.2,189.2,0,0,1,88.22,2566.24Z"/></g><g class="cls-9"><path class="cls-4" d="M445.76,2839.39c-102.2,71-255.73,26.81-342.93-98.7-32.88-47.32-51.62-99.45-56.75-149.83-43.5,80.75-34.36,194.82,31.51,289.63,87.2,125.51,240.74,169.7,342.93,98.7,63.66-44.24,92.36-122.74,83.89-206A189.08,189.08,0,0,1,445.76,2839.39Z"/></g><path class="cls-4" d="M309.43,3032.75a258.15,258.15,0,0,1-71.41-10.4c-69.09-19.88-131.78-66.3-176.51-130.69-93.23-134.18-78.85-306,32.05-383.07,54.36-37.77,123.14-47.39,193.68-27.08,69.08,19.88,131.77,66.3,176.51,130.68s66.36,139.34,60.89,211c-5.58,73.19-38.59,134.3-92.95,172.06C396,3020.09,354,3032.75,309.43,3032.75ZM216,2510.32c-36.74,0-71.07,10.27-100.09,30.43-93.16,64.73-103.13,212.12-22.23,328.56,39.61,57,94.72,98,155.17,115.4,59,17,116,9.31,160.49-21.61s71.57-81.65,76.25-142.87c4.78-62.73-14.4-128.67-54-185.68s-94.72-98-155.18-115.4A218.36,218.36,0,0,0,216,2510.32Z"/><ellipse class="cls-8" cx="318.98" cy="2826" rx="112.11" ry="107.27" transform="translate(-1904.86 1053.27) rotate(-45)"/><ellipse class="cls-8" cx="116.27" cy="2799.44" rx="38.14" ry="51.22" transform="translate(-1576.52 566.77) rotate(-34.79)"/><ellipse class="cls-8" cx="158.92" cy="2665.94" rx="38.14" ry="51.22" transform="translate(-1492.72 567.23) rotate(-34.79)"/><ellipse class="cls-8" cx="294.61" cy="2622.28" rx="38.14" ry="51.22" transform="translate(-1443.55 636.84) rotate(-34.79)"/><path class="cls-5" d="M1730.53,2339.6c96.84,46.35,172.61,114.87,209.51,224.26l-249.22,257.61Z"/><path class="cls-4" d="M1690.81,2841.05a19.59,19.59,0,0,1-19.51-21.19L1711,2338a19.58,19.58,0,0,1,28-16.06c112.43,53.81,184.27,130.89,219.62,235.66a19.55,19.55,0,0,1-4.48,19.87l-249.23,257.62A19.56,19.56,0,0,1,1690.81,2841.05Zm56.83-470.69-32.81,398.11L1917.53,2559C1887.4,2478.31,1831.6,2416.33,1747.64,2370.36Z"/><ellipse class="cls-6" cx="1940.04" cy="2751.93" rx="276.72" ry="225.31" transform="matrix(0.57, -0.82, 0.82, 0.57, -1426.91, 2774.99)"/><g class="cls-7"><path class="cls-8" d="M2114.46,2566.24c-102.2-71-255.73-26.81-342.93,98.7-54.82,78.9-70.35,171.14-49,246.42-42.48-80.65-33-193.83,32.44-288,87.2-125.51,240.74-169.7,342.93-98.7,37.95,26.37,63.46,64.93,76.09,109.4A189.27,189.27,0,0,0,2114.46,2566.24Z"/></g><g class="cls-9"><path class="cls-4" d="M1756.92,2839.39c102.19,71,255.72,26.81,342.92-98.7,32.88-47.32,51.62-99.45,56.75-149.83,43.5,80.75,34.36,194.82-31.51,289.63-87.2,125.51-240.74,169.7-342.93,98.7-63.66-44.24-92.36-122.74-83.89-206A189,189,0,0,0,1756.92,2839.39Z"/></g><path class="cls-4" d="M1893.25,3032.75c-44.6,0-86.55-12.65-122.27-37.48-54.36-37.76-87.37-98.87-93-172.06-5.47-71.68,16.16-146.63,60.89-211s107.43-110.8,176.52-130.68c70.54-20.3,139.32-10.69,193.67,27.08,110.9,77,125.28,248.89,32,383.07-44.73,64.39-107.42,110.81-176.51,130.69A258.08,258.08,0,0,1,1893.25,3032.75Zm93.42-522.43a218.36,218.36,0,0,0-60.4,8.83c-60.46,17.4-115.57,58.38-155.18,115.4s-58.79,122.95-54,185.68c4.67,61.22,31.74,112,76.24,142.87s101.5,38.59,160.49,21.61c60.45-17.4,115.56-58.38,155.18-115.4,80.89-116.44,70.92-263.83-22.24-328.56C2057.75,2520.6,2023.41,2510.32,1986.67,2510.32Z"/><ellipse class="cls-8" cx="1883.69" cy="2826" rx="107.27" ry="112.11" transform="translate(-1446.57 2159.69) rotate(-45)"/><ellipse class="cls-8" cx="2086.4" cy="2799.44" rx="51.22" ry="38.14" transform="translate(-1403.08 2915.56) rotate(-55.21)"/><ellipse class="cls-8" cx="2043.75" cy="2665.94" rx="51.22" ry="38.14" transform="translate(-1311.75 2823.24) rotate(-55.21)"/><ellipse class="cls-8" cx="1908.06" cy="2622.28" rx="51.22" ry="38.14" transform="translate(-1334.17 2693.06) rotate(-55.21)"/><path class="cls-10" d="M542.22,1607l-10.54,598.69c-6.12,347.45,292.08,626.12,637.62,589.31q7.6-.81,15.19-1.79c294.55-37.89,510.2-296.9,501.24-593.74L1667.85,1607Z"/><path class="cls-4" d="M1109.14,2817.73c-147.22,0-290.56-55.29-400.88-156.25A604.31,604.31,0,0,1,512.09,2205.3l10.55-598.69a19.57,19.57,0,0,1,19.58-19.24H1667.85a19.58,19.58,0,0,1,19.57,19l17.89,592.47A603.61,603.61,0,0,1,1563.92,2606c-96.1,114.31-230,187.68-376.93,206.59q-7.8,1-15.62,1.84A588,588,0,0,1,1109.14,2817.73ZM561.46,1626.54,551.26,2206a565.12,565.12,0,0,0,183.45,426.6c117.54,107.56,275.2,159.64,432.52,142.88q7.38-.78,14.75-1.73c284.8-36.64,492.94-283.29,484.17-573.73l-17.31-573.47Z"/><g class="cls-3"><path class="cls-4" d="M1692.14,2087.57q-9.5-77.91-22.29-155.35c-2.48-15-5.77-31.11-16.57-41.6-.74-13.37-1.72-26.71-3.32-40-6.52-54.09-25.92-110.68-70.36-142.21-18.85-13.37-40.94-21.31-62.84-28.68-239.16-80.54-497.75-113-745.93-67.31-57.72,10.63-117.45,26.9-159.86,67.47-35.28,33.74-54.84,81.28-63.21,129.37-5.15,29.54-6.4,59.5-6.17,89.53a86.11,86.11,0,0,0-21.83,28c-14.61,30.57-7.9,68.51,11.44,96.33s49.63,46.5,81.47,58.09L634,2101.43c-9.75-39.21-17.51-86.42,10.89-115.15a60,60,0,0,1,10.49-8.45c17.06-10.89,38.47-12.11,57.57-5.42q8.51,3,16.84,6.28c62.62,24.8,120.35,61,183.5,84.4a495.57,495.57,0,0,0,305.21,12c75.34-21.38,144.66-60.47,219.74-82.75l.12,0a26.75,26.75,0,0,1,22,3c29.75,19.16,52.45,50.05,61.39,84.54,13.66,52.7-2.69,110.88-37.47,152.77,35.57,7.52,71.88,15.08,108,11.09s72.74-21.56,90.37-53.36C1699.64,2159.77,1696.38,2122.34,1692.14,2087.57Z"/></g><path class="cls-10" d="M1935.87,2344.25c-75.28,134.89-183.4,221.64-295.54,241.22l-77.21-94.67-94.63-116,54-53.43,117.85-116.62c27.37-69,4.67-151.08-40.92-239.14l-59.8-157.31,122.71-76.65A1006.18,1006.18,0,0,1,1776.07,1828c112.23,110.77,178.92,233.34,192.65,343.73a334.68,334.68,0,0,1,2.6,35.21C1972.35,2255,1959.28,2302.29,1935.87,2344.25Z"/><g class="cls-7"><path class="cls-8" d="M1498.08,2365.41l117.85-116.62a163.54,163.54,0,0,0,8.27-28l-101.72,100.66-54,53.43,9,11Z"/><path class="cls-8" d="M1971.32,2207a334.68,334.68,0,0,0-2.6-35.21c-13.73-110.39-80.42-233-192.65-343.73a1006.18,1006.18,0,0,0-113.75-96.33l-122.71,76.65,8.84,23.25L1649,1769.78a799.17,799.17,0,0,1,122.71,108.55s148.6,161.78,172.64,337.43a309.33,309.33,0,0,1,2.6,35.2c.89,41-8.54,81.48-25.88,118.55q7.61-12.33,14.83-25.26C1959.28,2302.29,1972.35,2255,1971.32,2207Z"/></g><path class="cls-10" d="M798.63,2222.86,774.05,2252h0l-103.88,122.9L580,2481.45C373.11,2416.13,206.8,2332,175.65,2185.2,164.89,2106.57,188,2029.27,232,1958.14c30.16-48.71,70.13-94.44,115.82-135.74,54.89-49.6,118-92.69,182.22-126.48l78.21,126L580,1943.6l-21.42,119.32-.62,3.39c23.6,9.73,46.44,19.73,68.25,30.26a.44.44,0,0,0,.33.14c2.55,1.27,5.14,2.5,7.74,3.77,2.17,1.09,4.29,2.13,6.42,3.21,2.88,1.42,5.76,2.93,8.64,4.39,7.12,3.64,14.2,7.46,21.19,11.38q22.51,12.45,42.8,26c2.46,1.65,5,3.31,7.41,5C752.05,2172.22,778.58,2196.1,798.63,2222.86Z"/><g class="cls-7"><path class="cls-8" d="M798.63,2222.86,774.05,2252h0c-82.46-83.16-230.21-149.47-300.69-209.22,53.1,13.12,104.21,30.78,152.87,53.81a.44.44,0,0,0,.33.14c2.55,1.27,5.14,2.5,7.74,3.77,2.17,1.09,4.29,2.13,6.42,3.21,2.88,1.42,5.76,2.93,8.64,4.39,7.12,3.64,14.2,7.46,21.19,11.38q21.74,12.24,42.8,26c2.46,1.65,5,3.31,7.41,5C752.05,2172.22,778.58,2196.1,798.63,2222.86Z"/></g><path class="cls-4" d="M590.37,1945.49l-13.14,124.3-11.83-21.57c68.23,28,137.29,59.88,195.62,107,19.74,16.08,38.32,34.27,54.24,55.17a20.58,20.58,0,0,1-.76,25.87c-54.33,64.58-163.65,194.68-218.3,259a21.23,21.23,0,0,1-22.63,6.52c-84.63-27-168.44-57.56-245.8-102.84-109.49-64.06-195.09-161-172.17-296.35,30.79-191.34,203.47-336.57,365.63-423.39a18.93,18.93,0,0,1,24.9,6.77q19.61,31.47,37.69,63.87c11.91,21.79,23.53,43.66,33.4,66.53a10.69,10.69,0,0,1-18,11.14c-8.15-9.48-15.66-19.37-23.13-29.27-22.17-29.79-42.61-60.77-62.17-92.32l24.9,6.77a900.74,900.74,0,0,0-131.29,85.12c-116.51,89.53-231.82,234.07-211.5,383.06,29,125.73,157.81,191.09,268.39,237,39.79,16.14,80.67,30.16,121.91,43.28l-22.66,6.55c54.35-64.64,164.36-194,219.08-258.27l-.76,25.86c-26.75-35.47-64-64-104.07-88.07-41-24.76-85.42-44.82-130.14-64.16a17.78,17.78,0,0,1-9.16-20.22l30.91-121.12c3.37-12.51,22-9.25,20.79,3.74Z"/><path class="cls-4" d="M551.35,2084l-89.89-42.47c-11.49-5.53-4.91-23,7.34-19.66l95.75,26.75c25.8,8.5,11.92,45.84-13.2,35.38Z"/><path class="cls-4" d="M1609.47,1960.44C1640,2016.26,1668,2078.2,1669,2144a193.28,193.28,0,0,1-11.12,67.7,15.73,15.73,0,0,1-4.28,6.47l-171.8,170,1.35-25.35,171.8,210.67-17.88-6.67c88.11-15.85,164.11-72.81,220.66-141.17a622.59,622.59,0,0,0,49.13-69.29c20.48-32.7,36.78-68.38,42.56-106.54C1965,2139.4,1910.82,2026.1,1847,1938.51c-53.88-73.78-122-136.88-195.78-191.55l21.13.77-122.71,76.61c-21.42,12.64-40.82-18.2-20-32l122.71-76.61a18.74,18.74,0,0,1,21.13.77c133.24,98.72,254.31,229.74,301.6,392.56,12.85,47.49,19.61,97.93,11.61,146.91-6.57,43.06-24.68,83.62-47.59,120.13a659.52,659.52,0,0,1-52.27,73.71c-61.77,74.77-145.81,136.94-243.25,154.3a18.64,18.64,0,0,1-17.89-6.66l-171.8-210.67a19,19,0,0,1,1.35-25.35L1627,2191.35l-4.26,6.46a157.27,157.27,0,0,0,12.25-54.44c2.46-60.17-20.13-117.84-45.67-172.52-6-13.1,12.7-23.11,20.12-10.41Z"/><path class="cls-5" d="M902.48,1894.85"/><rect class="cls-8" x="893.58" y="1882.27" width="69.51" height="166.76"/><path class="cls-4" d="M963.09,2063.19H893.58A14.16,14.16,0,0,1,879.43,2049V1882.26a14.16,14.16,0,0,1,14.15-14.16h69.51a14.17,14.17,0,0,1,14.16,14.16V2049A14.17,14.17,0,0,1,963.09,2063.19Zm-55.35-28.32h41.19V1896.42H907.74Z"/><ellipse class="cls-11" cx="932.37" cy="2089.54" rx="61.35" ry="42.87"/><ellipse class="cls-8" cx="932.37" cy="2089.54" rx="61.35" ry="42.87"/><path class="cls-4" d="M932.37,2146.57c-42.34,0-75.51-25.06-75.51-57s33.17-57,75.51-57,75.51,25,75.51,57S974.72,2146.57,932.37,2146.57Zm0-85.74c-25.14,0-47.2,13.41-47.2,28.7s22.06,28.71,47.2,28.71,47.2-13.41,47.2-28.71S957.51,2060.83,932.37,2060.83Z"/><rect class="cls-8" x="1219.43" y="1882.27" width="69.51" height="166.76"/><g class="cls-9"><rect class="cls-4" x="897.26" y="1871.97" width="69.51" height="166.76"/></g><g class="cls-9"><rect class="cls-4" x="1223.11" y="1871.97" width="69.51" height="166.76"/></g><path class="cls-4" d="M1288.94,2063.19h-69.5a14.17,14.17,0,0,1-14.16-14.16V1882.26a14.17,14.17,0,0,1,14.16-14.16h69.5a14.17,14.17,0,0,1,14.16,14.16V2049A14.17,14.17,0,0,1,1288.94,2063.19Zm-55.35-28.32h41.19V1896.42h-41.19Z"/><ellipse class="cls-8" cx="1258.23" cy="2089.54" rx="61.35" ry="42.87"/><path class="cls-4" d="M1258.22,2146.57c-42.34,0-75.51-25.06-75.51-57s33.17-57,75.51-57,75.52,25,75.52,57S1300.57,2146.57,1258.22,2146.57Zm0-85.74c-25.14,0-47.19,13.41-47.19,28.7s22,28.71,47.19,28.71,47.2-13.41,47.2-28.71S1283.37,2060.83,1258.22,2060.83Z"/><g class="cls-9"><path class="cls-4" d="M296.8,1816.13c2.07-.14,4.1-.29,6.18-.33a6.17,6.17,0,0,1-.47.75Z"/></g><g class="cls-3"><path class="cls-4" d="M608.25,1821.93,580,1943.6l-21.42,119.32q-42.62-10.07-85.24-20.16c-14.68-3.49-31-8.11-38.46-21.23-8.26-14.49-2.13-32.43,1.13-48.81,7.88-39.64-3.82-82.68-30.63-112.89a133.3,133.3,0,0,0-57.53-37.43c54.89-49.6,118-92.69,182.22-126.48Z"/></g><g class="cls-3"><path class="cls-4" d="M670.12,2374.88,580,2481.45C373.11,2416.13,206.8,2332,175.65,2185.2,164.89,2106.57,188,2029.27,232,1958.14c3.35-3.21,6.75-6.32,10.19-9.39l7.13.47c-47.62,53.24-39.65,139.61.23,198.89S353.72,2245,417.43,2277.19C498,2318,582.67,2353.79,670.12,2374.88Z"/></g><g class="cls-3"><path class="cls-4" d="M1935.87,2344.25c-75.28,134.89-183.4,221.64-295.54,241.22l-77.21-94.67c3.25-7.79,6.65-15.53,10-23.27q21.6-49.41,41.82-99.44c-40.73,20.15-86.8,29-132,22.13a363.58,363.58,0,0,0,39.5-68.81l117.85-116.62c27.37-69,4.67-151.08-40.92-239.14l-59.8-157.31,122.71-76.65A1006.18,1006.18,0,0,1,1776.07,1828c-18.5,21.71-31.25,49.13-37.48,77.07-11.09,49.89-4.95,101.8,1.37,152.54,4.5,35.95,9,72.41,7.62,108.41a82.66,82.66,0,0,0,13.29,48.95c.06.09.13.18.19.28,18.78,28.17,49.7,49.46,83.53,51.06,37.2,1.75,72.36-20.2,95.86-49.08,11.33-13.93,20.44-29.36,28.27-45.5a334.68,334.68,0,0,1,2.6,35.21C1972.35,2255,1959.28,2302.29,1935.87,2344.25Z"/></g><path class="cls-12" d="M268.68,916.72C396.94-68.95,1724.75-73.7,1879.46,893c4,25,11.66,49.35,15.53,74.36,71.17,460.62-41.07,760.49-733.45,762.78-22.14-.49-44.35-1.15-66.48-.26-622.37,24.89-963.82-207.28-833.78-786.64C263.29,934.33,265.43,925.32,268.68,916.72Z"/><g class="cls-7"><path class="cls-8" d="M274.66,1020.49c2-9,4.15-18,7.4-26.56C410.32,8.26,1738.12,3.51,1892.83,970.25c2.06,12.82,5.07,25.48,8,38.13q-2.68-20.26-5.88-41c-3.87-25-11.53-49.36-15.53-74.36C1724.75-73.7,396.94-68.95,268.68,916.72c-3.25,8.6-5.39,17.61-7.4,26.56-33.41,148.84-35.62,274.71-10,379.24C241.83,1234.79,249.1,1134.38,274.66,1020.49Z"/></g><g class="cls-3"><path class="cls-4" d="M1161.54,1588.74c-22.14-.45-44.35-1-66.48-.24-500.46,18.22-819.2-115-857.28-442.08-43.86,430.45,290,604.32,857.28,583.66,22.13-.81,44.34-.21,66.48.23,623.55-1.87,776.53-223.53,748.81-573.9C1884.94,1423.86,1696.29,1587.13,1161.54,1588.74Z"/></g><path class="cls-4" d="M994.2,1135.76h106.11c22.22,0,37.54,20.4,29,39-13.91,30.33-40,49.54-81.39,54.68-43.63-7.49-69.7-26.65-82.56-54.15C956.65,1156.52,971.7,1135.76,994.2,1135.76Z"/><path class="cls-4" d="M1007.3,1755.31c-325,0-553.95-77.08-681.12-229.62-114.92-137.82-144.5-335.51-87.92-587.58a232.28,232.28,0,0,1,7.36-27c31-233.94,131.27-429.74,290.08-566.32C679,221.48,865.11,152,1059.68,149.18c195.72-2.78,385.26,61.55,534,181.39,165,132.9,271.85,326.12,309.08,558.75,1.83,11.43,4.5,22.8,7.33,34.83,3,12.79,6.11,26,8.22,39.65,42.73,276.55,13.59,456.28-94.48,582.76C1705.6,1684.91,1489,1752.7,1161.62,1753.78h-.6l-6.59-.15c-19.29-.44-39.23-.88-58.43-.13Q1050.54,1755.31,1007.3,1755.31Zm64.6-1559c-3.86,0-7.67,0-11.53.08-336.2,4.93-704.15,230.51-768.29,723.39a24.2,24.2,0,0,1-1.32,5.3c-2.73,7.22-4.61,15.18-6.45,23.39-53.2,237-26.92,421,78.12,547,128.56,154.2,374.71,225.13,731.69,210.87,20.67-.83,41.37-.36,61.38.1l6.26.14c312.65-1.07,517.46-63.44,626.19-190.68,98.34-115.1,124.16-283.15,83.72-544.89-1.83-11.83-4.6-23.6-7.53-36.06s-5.89-25.06-8-38.18C1778.51,411.61,1408.38,196.29,1071.9,196.29Z"/><path class="cls-4" d="M1048,1243.54a13.72,13.72,0,0,1-2.4-.2c-46.14-7.92-77.42-28.82-93-62.1a39.79,39.79,0,0,1,2.56-38.89c8.26-13,22.87-20.75,39.06-20.75h106.11c16.18,0,30.8,7.74,39.12,20.71a39.36,39.36,0,0,1,2.79,38.3c-16.57,36.13-47.7,57.27-92.52,62.83A14.5,14.5,0,0,1,1048,1243.54Zm-53.76-93.62c-6.46,0-12.13,2.85-15.17,7.63a11.85,11.85,0,0,0-.8,11.69c11.34,24.27,34.27,39.27,70,45.82,33.75-4.66,56.07-19.81,68.2-46.26a11.28,11.28,0,0,0-.88-11.2c-3.09-4.81-8.8-7.68-15.29-7.68Z"/><path class="cls-13" d="M252.26,916.72"/><ellipse class="cls-8" cx="1049.49" cy="1149.28" rx="46.45" ry="10.4"/><path class="cls-6" d="M411.93,1204.17c66.81-664.8,815-187.56,367.52,23.44a211,211,0,0,0-69.31,52.93c-86.69,100.14-196.76,122.56-261.73,46.67C420,1294,407.48,1248.53,411.93,1204.17Z"/><path class="cls-6" d="M1722.75,1199.31c-66.8-664.8-815-187.55-367.51,23.45a210.71,210.71,0,0,1,69.31,52.93c86.69,100.13,196.76,122.55,261.73,46.66C1714.67,1289.19,1727.21,1243.67,1722.75,1199.31Z"/><path class="cls-4" d="M1047.61,1313.55h-.31a14.16,14.16,0,0,1-13.85-14.46l1.89-88.1a14.16,14.16,0,1,1,28.31.61l-1.89,88.1A14.16,14.16,0,0,1,1047.61,1313.55Z"/><path class="cls-4" d="M933.16,1355.05c42.67-9.83,67.22-52.16,110.09-63.72a13.11,13.11,0,0,1,8.92.27c15.62,5.43,29.29,13.93,41.56,22.89s23.49,18.51,34.66,27.55c3.78,3,10.07,8.55,14.75,10,18.42,6.69,36.31-7.69,50.29-18.66A4.36,4.36,0,0,1,1200,1339a92.67,92.67,0,0,1-14.74,18.12c-18.66,18.71-44.13,23.85-66.6,7.93-14-8.88-27.73-18.88-40.88-27.58-11.75-7.75-23.34-14.62-35.29-19.29l8.91.27c-40.31,11.94-72.15,56.42-118.19,49.56-7.1-1.18-7.14-11.85,0-13Z"/><ellipse class="cls-4" cx="1415.35" cy="1065.05" rx="91.25" ry="109.1"/><ellipse class="cls-8" cx="1382.31" cy="1074.49" rx="20.53" ry="37.21"/><ellipse class="cls-4" cx="737.46" cy="1065.05" rx="91.25" ry="109.1"/><ellipse class="cls-8" cx="770.5" cy="1074.49" rx="20.53" ry="37.21"/><path class="cls-10" d="M1998.74,1146.46c-.19,8-.52,16-1,24C1396.42,788,789.86,762,176.87,1170.49c-8.35-150.18,26-297.81,86.37-434.68C293.59,667,330.54,601,372,538.67c89.67-134.93,200.44-252.12,310.88-340.9C831,78.65,978.45,10.69,1073.74,19.66,1342.57-4.84,2014.5,547.21,1998.74,1146.46Z"/><g class="cls-7"><path class="cls-8" d="M176.65,1164.67c.1,1.94.12,3.87.22,5.82a2065.68,2065.68,0,0,1,197.9-117A1992.37,1992.37,0,0,0,176.65,1164.67Z"/><path class="cls-8" d="M1073.74,19.66c-57.72-5.44-134.6,17.4-219.16,62.69,68.69-31.85,130.68-47.23,179.15-42.67,265.81-24.22,925.62,515.25,925.16,1106.65,13,7.91,25.91,15.92,38.86,24.16.47-8,.8-16,1-24C2014.5,547.21,1342.57-4.84,1073.74,19.66Z"/></g><path class="cls-4" d="M1997.73,1189.37a18.86,18.86,0,0,1-10.13-2.95C1367.7,792.06,778.83,792,187.34,1186.2A18.88,18.88,0,0,1,158,1171.54c-9.49-171.25,33.66-348.32,128.26-526.28,101.28-190.52,233.86-330,327.24-413.43C782.88,80.49,960.87-8.41,1073.66.71c121.52-10,313,86.08,494.46,249.34,133.13,119.74,245,261,323.48,408.35,92.47,173.62,134.51,346.28,125,513.17a18.89,18.89,0,0,1-18.85,17.8ZM1077,854.89c5,0,9.91,0,14.88.07,291.29,3.12,590,98,888.14,282.15,3.92-288.89-157.61-607.55-437.15-859C1380,131.66,1205.55,39.05,1094.45,37.71a18.78,18.78,0,0,1-9.09,2.33h-23.6a18.8,18.8,0,0,1-9-2.25C950.28,39.85,789.51,125.2,638.68,260,418.38,456.84,190.15,787.55,194.6,1136.3,484.3,949.51,781,854.89,1077,854.89Z"/><path class="cls-10" d="M1878,765.29l22.85-40.63c237.52-418.22-169.34-732.29-474.24-497.48a164.83,164.83,0,0,1-73.49,32.48l-27.43,4.57C1291.1,417.88,1552.21,765.29,1878,765.29Z"/><g class="cls-7"><path class="cls-8" d="M1325.67,264.23l8.13,6c24.94,18.49,58.59,21.5,85.69,6.36a174.19,174.19,0,0,0,21.26-14c193.85-149.29,428.86-76.67,513.33,103.49-68.76-205.51-321.39-297.61-527.49-138.89a164.83,164.83,0,0,1-73.49,32.48l-27.43,4.57"/></g><g class="cls-9"><path class="cls-4" d="M1742.05,160.15c135.56,92.8,200.38,291.58,69.49,522h0c-14.57,25.92-43.12,41.13-72.68,37.93q-23.19-2.5-45.8-7.21c-8.51-1.76-12.28,10.34-4.25,13.65,43.76,18,90.06,30.59,138.11,35.91a75.24,75.24,0,0,0,73.91-37.8h0C2058,447.89,1933,216.8,1742.05,160.15Z"/></g><path class="cls-10" d="M829.83,248.37c0,120.68-51.49,226-131.63,312.86C597.11,670.82,450.37,750.91,304.11,795.18l-26.85-38.56q-7.36-10.41-14-20.81c-161-248.35-61.12-474,117.47-550.31,88.73-38,196.91-39,302.15,12.27a441.54,441.54,0,0,1,40.21,22.33,172,172,0,0,0,78.21,26.05Z"/><g class="cls-7"><path class="cls-8" d="M378.8,228c88.73-38,196.91-39,302.15,12.27a443.84,443.84,0,0,1,40.21,22.32,171.85,171.85,0,0,0,78.21,26.06h0a28,28,0,0,0,30.24-26.89q.23-6.66.22-13.37l-28.55-2.22a172,172,0,0,1-78.21-26.05,441.54,441.54,0,0,0-40.21-22.33c-105.24-51.3-213.42-50.26-302.15-12.27-117.3,50.13-200.64,164.68-198.4,307.78C195.38,370.17,273.36,273,378.8,228Z"/></g><path class="cls-4" d="M1322.57,245.6c6.66-1,20.8-3.64,27.07-4.63a144.21,144.21,0,0,0,38.28-12.34c21.25-10.11,38.84-27,58.92-39.26,183.8-122.17,434.6-57.71,517.58,151.9,56.44,143.86,12.07,309.12-77.36,429.13-7.39,9.87-22.82,1.31-18.19-10.15,9.46-22.67,20.75-44.68,30.85-66.09C1975,545,1984,362.65,1851.94,242.92c-68.28-62.11-165.5-88.61-256.11-71.8-51,8.93-99.95,30.59-142.69,60.5-15.13,11.25-31.26,23.58-48.58,31.62-23.29,11.76-50.21,15.76-75.79,19.61-24.4,3.32-30.72-32.26-6.2-37.25Z"/><path class="cls-4" d="M828.4,267.18c-6.87-.42-21.36-1.6-27.82-2a191,191,0,0,1-87.41-28.52c-7.58-4.72-23.06-13.46-31-17.55-126.64-66.84-288.16-54-391.26,49.27-107.23,104.5-113.2,263.35-50.1,393.5,20.34,44.58,48,84,71.85,127.34,5.93,10.61-8.86,21.34-17.08,11.92-33.07-37.59-63.5-79.12-84.79-125C110.54,474.73,176.09,238.67,396.46,158.81c98.94-35.14,211.37-22.55,303.4,25.93L716.92,194c14.13,8.72,30.71,19,46.34,24.46,21.33,8.36,45.42,9.27,68,11.07,24.53,2.72,22.1,38.62-2.89,37.65Z"/><g class="cls-3"><path class="cls-4" d="M1998.74,1146.16c-.19,8.13-.51,16.2-1,24.33-589.38-387.33-1183.9-413.66-1784.71,0-8.18-152.07,25.45-301.55,84.66-440.13C139.93,478.9,237.81,250.42,412.85,173.15L431,178.93c-76,40.38-121.24,134.76-106.3,221.69,8.93,51.85,38.91,98.59,79.57,130.13,27.52,21.31,59.95,35.69,94.18,40.09,70.87,9,141.46-21,212.79-18.11q6.38.28,12.77.86c74.29,6.88,142.33,46.78,212.51,74.4,150.52,59.21,315.8,62.61,471.93,103.27C1644,792.67,1855.71,943.68,1998.74,1146.16Z"/></g><path class="cls-10" d="M1149,781.07q-66.33.57-132.71,0C544.48,777-92,1163.55,176.59,1560.75c45,66.55,105.34,117.33,173.16,149.42Q686.1,1869.25,1023.33,1958a232.62,232.62,0,0,0,118.56,0q337.2-88.92,673.58-247.78c67.83-32.09,128.14-82.87,173.17-149.42C2257.28,1163.55,1620.74,777,1149,781.07Zm681.37,751.46c-37,47.57-86.6,83.91-142.34,106.8q-276.66,113.7-553.9,177.08a217.85,217.85,0,0,1-97.46,0q-277.29-63.5-553.89-177.08c-55.74-22.89-105.39-59.23-142.39-106.8-220.88-283.84,302.53-560.13,690.43-557.2q54.59.42,109.12,0C1527.86,972.4,2051.22,1248.69,1830.34,1532.53Z"/><g class="cls-7"><path class="cls-8" d="M1016.26,831.41q66.33.57,132.71,0c383.83-3.34,876.7,251.93,902.45,561.12,27.59-331.32-498-615-902.45-611.46q-66.33.57-132.71,0c-404.48-3.52-930,280.14-902.46,611.46C139.56,1083.34,632.43,828.07,1016.26,831.41Z"/></g><g class="cls-3"><path class="cls-4" d="M1988.64,1466.36c-45,66.54-105.34,117.33-173.17,149.42q-336.33,159.08-673.58,247.78a232.62,232.62,0,0,1-118.56,0q-337.19-88.92-673.58-247.78c-67.82-32.09-128.13-82.88-173.16-149.42-33.23-49.13-52.59-98.1-60.14-146.18-12.07,77.53,4.85,158.82,60.14,240.57,45,66.55,105.34,117.33,173.16,149.42Q686.1,1869.25,1023.33,1958a232.62,232.62,0,0,0,118.56,0q337.2-88.92,673.58-247.78c67.83-32.09,128.14-82.87,173.17-149.42,55.28-81.75,72.2-163,60.14-240.57C2041.22,1368.26,2021.86,1417.23,1988.64,1466.36Z"/></g><path class="cls-4" d="M1085.36,1840.78a238,238,0,0,1-52.95-6c-185.54-42.51-372.89-102.41-556.85-178-60.06-24.69-112-63.64-150.1-112.65-62.26-80-73.2-166.83-31.62-251.06,45.24-91.65,151.46-177.76,299.09-242.45,139-60.9,298.54-95.26,438-94.19,36.11.27,72.73.27,108.84,0,2.06,0,4.13,0,6.19,0,137.9,0,294.88,34.21,431.81,94.21,147.64,64.69,253.86,150.8,299.1,242.45,41.57,84.23,30.64,171-31.62,251.06-38.14,49-90,88-150.1,112.65-184,75.63-371.31,135.53-556.85,178A237.94,237.94,0,0,1,1085.36,1840.78Zm-60.65-846.61c-132.84,0-284.3,33.06-416.62,91C468.59,1146.34,369,1226.1,327.69,1309.8c-35.21,71.34-25.94,142.38,27.57,211.15,34.11,43.83,80.67,78.73,134.66,100.92C672,1696.72,857.32,1756,1040.85,1798a200.22,200.22,0,0,0,89,0c183.53-42,368.89-101.3,550.93-176.15,54-22.19,100.55-57.09,134.66-100.92,53.51-68.77,62.78-139.81,27.56-211.15-41.31-83.7-140.89-163.46-280.39-224.59-134.3-58.85-288.43-91.93-422.57-91-36.3.28-73.11.28-109.4,0h0Z"/><path class="cls-4" d="M1082.61,1984.48a251.26,251.26,0,0,1-64.07-8.29C793,1916.75,565.25,1833,341.66,1727.21c-72.4-34.24-134.89-88.15-180.72-155.9-81.22-120.1-88.71-249.65-21.65-374.66,64-119.23,193.84-230.39,365.71-313,163.53-78.6,349.94-122.86,511.42-121.48,43.92.37,88.47.37,132.38,0,161.68-1.44,347.9,42.88,511.42,121.48,171.88,82.6,301.76,193.76,365.72,313,67,125,59.57,254.56-21.66,374.66-45.82,67.75-108.31,121.66-180.71,155.9-223.59,105.77-451.33,189.54-676.88,249A251.28,251.28,0,0,1,1082.61,1984.48ZM1008.53,799.9c-333.37,0-714.78,188.7-836,414.6-60.87,113.45-54.26,226.38,19.65,335.65,42,62.15,99.3,111.58,165.58,142.93,221.51,104.78,447.05,187.74,670.36,246.6a214.05,214.05,0,0,0,108.91,0c223.31-58.86,448.85-141.83,670.35-246.6,66.29-31.35,123.55-80.78,165.59-142.93,73.9-109.27,80.51-222.2,19.65-335.65-122.1-227.61-508.46-417.64-843.53-414.57-44.14.38-88.89.38-133,0h0C1013.58,799.91,1011.05,799.9,1008.53,799.9Z"/><g class="cls-9"><path class="cls-4" d="M1065.57,28.8C957.3,23,849.57,96.07,814.9,198.8c-2.94,8.69-5.52,17.79-11.31,24.91-9.54,11.76-26.23,15.71-41.25,13.75s-28.85-8.93-42.35-15.79c-11.37-5.78-24.58-14.8-22.9-27.45.82-6.17,5.18-11.2,9.43-15.74,88.15-94.19,214.16-151.9,343.06-157.12"/></g><g class="cls-14"><polygon class="cls-15" points="465.13 2337.28 211.84 1439.07 1935.41 1465.37 1760.35 2369.51 465.13 2337.28"/></g><rect class="cls-16" x="509.18" y="2904.85" width="1175.18" height="103.83" rx="27.14"/><g class="cls-9"><path class="cls-4" d="M1679.64,2916.75V2930a27.21,27.21,0,0,1-27.13,27.14H531.6a27.16,27.16,0,0,1-22.42-11.9v36.27a27.22,27.22,0,0,0,27.14,27.14H1657.23a27.21,27.21,0,0,0,27.13-27.14V2932A26.88,26.88,0,0,0,1679.64,2916.75Z"/></g><path class="cls-16" d="M1763.56,2264.07,1706,2834.81a73.07,73.07,0,0,1-23.13,46.35l-25.67,23.69H536.32l-25.68-23.69a73,73,0,0,1-23.12-46.35L430,2264.07a81,81,0,0,1,3.11-33c8.17-25,27.14-38.65,53-45.12,1.18-.28,2.31-.56,3.49-.8a128.09,128.09,0,0,1,26.15-2.45H1677.8a123.05,123.05,0,0,1,29.64,3.25c25.87,6.47,44.84,20.16,53,45.12a9.09,9.09,0,0,1,.33,1.18A80.92,80.92,0,0,1,1763.56,2264.07Z"/><g class="cls-17"><path class="cls-8" d="M526.11,2874.93l-57.53-570.75a80.9,80.9,0,0,1,3.11-32.94c8.17-25,27.14-38.65,53-45.12,1.18-.28,2.32-.57,3.5-.8a127.23,127.23,0,0,1,26.14-2.46H1716.39a122.56,122.56,0,0,1,29.64,3.26,104.51,104.51,0,0,1,14.32,4.76c-8.21-24.8-27.13-38.43-52.91-44.88a123.05,123.05,0,0,0-29.64-3.25H515.74a128.09,128.09,0,0,0-26.15,2.45c-1.18.24-2.31.52-3.49.8-25.86,6.47-44.83,20.16-53,45.12a81,81,0,0,0-3.11,33l57.53,570.74a73,73,0,0,0,23.12,46.35l25,23.08A73,73,0,0,1,526.11,2874.93Z"/></g><path class="cls-4" d="M1657.23,3027.56H536.32a46.07,46.07,0,0,1-46-46V2932a46.06,46.06,0,0,1,46-46H1657.23a46.06,46.06,0,0,1,46,46v49.56A46.06,46.06,0,0,1,1657.23,3027.56ZM536.32,2923.72a8.37,8.37,0,0,0-8.26,8.26v49.56a8.37,8.37,0,0,0,8.26,8.26H1657.23a8.37,8.37,0,0,0,8.25-8.26V2932a8.37,8.37,0,0,0-8.25-8.26Z"/><path class="cls-4" d="M1657.23,2923.72H536.32a18.88,18.88,0,0,1-12.81-5L497.84,2895a91.85,91.85,0,0,1-29.1-58.3l-57.52-570.78a98.4,98.4,0,0,1,3.95-40.66c9.71-29.67,32-49,66.39-57.58a140.24,140.24,0,0,1,34.17-3.83H1677.82a140.15,140.15,0,0,1,34.16,3.83c34.35,8.54,56.69,27.91,66.39,57.58,4.09,12.46,5.41,26.14,4,40.66l-57.52,570.78a91.76,91.76,0,0,1-29.1,58.3l-25.67,23.7A18.87,18.87,0,0,1,1657.23,2923.72ZM543.7,2886H1649.85l20.24-18.69a54,54,0,0,0,17.14-34.35l57.52-570.78a60.85,60.85,0,0,0-2.26-25.13c-5.55-16.95-18.14-27.33-39.62-32.68a103.09,103.09,0,0,0-25-2.72H515.73a103.18,103.18,0,0,0-25.06,2.72c-21.48,5.35-34.07,15.73-39.62,32.68a61,61,0,0,0-2.26,25.13l57.52,570.78a54.09,54.09,0,0,0,17.14,34.35Z"/><g class="cls-9"><path class="cls-4" d="M1763.56,2264.07,1706,2834.81a73.07,73.07,0,0,1-23.13,46.35l-25.67,23.69H536.32l-25.68-23.69a73,73,0,0,1-23.12-46.35L430,2264.07a81,81,0,0,1,3.11-33c8.17-25,27.14-38.65,53-45.12,1.18-.28,2.31-.56,3.49-.8l21.67,3C478,2194,470.72,2238,471.94,2271.76a2465.91,2465.91,0,0,0,27.61,289.74c9,57.72,21.24,117.84,58.53,162.78,53.66,64.7,144.37,81.79,227.39,94.72,170.47,26.57,351.09,52,510.47-13.92,84.67-35.07,157.35-93.93,223-157.88,116.67-113.6,218.47-256.08,241.88-414.9A80.92,80.92,0,0,1,1763.56,2264.07Z"/></g><g class="cls-9"><path class="cls-4" d="M1192.83,2484.13a269.29,269.29,0,0,0-71.2,12.07q-12.36-20.31-9.11-43.2a270,270,0,0,0,71.24-12A63.19,63.19,0,0,1,1192.83,2484.13Z"/><path class="cls-4" d="M1121.63,2519.79a23.6,23.6,0,0,1-20.15-11.32c-11.11-18.23-15.26-38-12.32-58.78a23.59,23.59,0,0,1,22.54-20.28,247.81,247.81,0,0,0,65-11,23.59,23.59,0,0,1,27.16,10.22c11.15,18.25,15.28,38.05,12.29,58.83a23.59,23.59,0,0,1-22.54,20.22,247.15,247.15,0,0,0-65,11A23.39,23.39,0,0,1,1121.63,2519.79Zm71.2-35.66h0Z"/><path class="cls-4" d="M1048.58,2442.55s-7.9,9.6-20.29,12.5c-8.55,2-16.92.38-21.33-.86-6.69,8.71-15.41,16.36-23.79,22.59,6.52-1.51,13-3.21,19.34-5.18q12.43,20.25,9.11,43.16a269.22,269.22,0,0,0-71.19,12.07q-12.37-20.31-9.11-43.2a278.3,278.3,0,0,0,32.64-3.17c15-9.25,40.11-27.43,45.2-47.85-4.14-.92-12.34-3.44-18.35-9.28-8.37-8.12-9.24-19.57-9.24-19.57s12.66,1.74,21,9.86a28.63,28.63,0,0,1,5.14,6.85,40,40,0,0,1,8.68-15.86c10.49-11.41,27.2-14.54,27.2-14.54s-.22,15.32-10.67,26.73a46.7,46.7,0,0,1-14.63,10.24,42.78,42.78,0,0,1-5.75,18.65,35.81,35.81,0,0,1,11.45-5C1036.41,2437.72,1048.58,2442.55,1048.58,2442.55Z"/><path class="cls-4" d="M940.43,2550.43a23.6,23.6,0,0,1-20.16-11.33C909.12,2520.78,905,2501,908,2480.26A23.61,23.61,0,0,1,930.49,2460a243.7,243.7,0,0,0,25.08-2.21,127.57,127.57,0,0,0,20.4-16.08c-.54-.49-1.08-1-1.61-1.5-14.07-13.64-16.06-31.31-16.32-34.71a23.61,23.61,0,0,1,26.75-25.16,68.17,68.17,0,0,1,17.37,5.12c15.1-14.14,34.77-18.18,37.11-18.62a23.59,23.59,0,0,1,27.94,23.53,70.27,70.27,0,0,1-8.58,30.79,23.61,23.61,0,0,1,8.17,36.35c-2.17,2.63-13.94,16-33.13,20.48-.68.16-1.36.31-2,.44a85.71,85.71,0,0,1,3.35,39.66,23.6,23.6,0,0,1-22.53,20.21,247.28,247.28,0,0,0-65,11A23.41,23.41,0,0,1,940.43,2550.43Z"/><path class="cls-4" d="M1158.46,2564.81s-16.84,2.55-31.21-4.65a41.41,41.41,0,0,1-6.57-4.17c1.3,13.92-6.77,26.06-6.77,26.06s-12.35-10.59-14.56-25.21c-1.59-10.87,2.9-20.92,5.32-25.33-14.51-13.89-40.55-21.31-56.52-24.72-5.74,1.4-11.44,2.94-17.1,4.72q-12.43-20.3-9.11-43.16a269.29,269.29,0,0,0,71.2-12.07,63.5,63.5,0,0,1,9.11,43.16,276.24,276.24,0,0,0-37,3.87c10.75,3.1,22.71,7.51,33,13.73,3.59-2.55,10.71-6.84,19.52-7.73,12.69-1.32,24,5,24,5s-9.37,8.47-22.06,9.79a39.9,39.9,0,0,1-12.74-.93,46.92,46.92,0,0,1,12.95,15.47,50.53,50.53,0,0,1,17.79,4.76C1152,2550.61,1158.46,2564.81,1158.46,2564.81Z"/><path class="cls-4" d="M1113.91,2605.65a23.6,23.6,0,0,1-15.37-5.69c-3.17-2.72-19.18-17.43-22.52-39.61a58.49,58.49,0,0,1,.5-19.58,137.46,137.46,0,0,0-28.08-9.71c-3.61,1-7,1.93-10.31,3a23.6,23.6,0,0,1-27.2-10.18c-11.19-18.28-15.35-38.08-12.34-58.86a23.6,23.6,0,0,1,22.53-20.21,247.28,247.28,0,0,0,65-11,23.58,23.58,0,0,1,27.17,10.22,87.38,87.38,0,0,1,13.14,41.75,69.59,69.59,0,0,1,26.87,8,23.6,23.6,0,0,1,6.36,35.89,74.48,74.48,0,0,1,20.31,25.41,23.6,23.6,0,0,1-18,33.07,85.79,85.79,0,0,1-24.35-.35,60.39,60.39,0,0,1-4.08,7.33,23.57,23.57,0,0,1-19.65,10.53Z"/></g><path class="cls-8" d="M1198.06,2403.67a87.82,87.82,0,0,1,10.31,54.65,277.28,277.28,0,0,0-80.73,15.24,87.76,87.76,0,0,1-10.31-54.65,277.16,277.16,0,0,0,80.73-15.24m0-18.88a18.91,18.91,0,0,0-6.2,1.05,259,259,0,0,1-75.26,14.2,18.88,18.88,0,0,0-18,16.46,106.72,106.72,0,0,0,12.48,66.12,18.86,18.86,0,0,0,22.76,8.77,259.83,259.83,0,0,1,75.26-14.21,18.89,18.89,0,0,0,18-16.46,106.73,106.73,0,0,0-12.48-66.11,18.88,18.88,0,0,0-16.56-9.82Z"/><path class="cls-8" d="M1039.19,2339.29s-.25,19.38-12.1,33.79a52.45,52.45,0,0,1-16.62,13,58.31,58.31,0,0,1-6.5,23.6,39.9,39.9,0,0,1,13-6.37,37.5,37.5,0,0,1,9.62-1.2,49.79,49.79,0,0,1,18.21,3.59s-9,12.14-23,15.86a37.73,37.73,0,0,1-9.63,1.2,50.11,50.11,0,0,1-14.55-2.29c-7.61,11-17.5,20.69-27,28.57,7.37-1.9,14.69-4,21.94-6.56a87.89,87.89,0,0,1,10.31,54.65,277.22,277.22,0,0,0-80.73,15.24,87.85,87.85,0,0,1-10.32-54.65,279.77,279.77,0,0,0,37-4c17-11.7,45.46-34.73,51.22-60.55-4.68-1.2-14-4.36-20.8-11.77-9.46-10.26-10.45-24.73-10.45-24.73s14.34,2.17,23.8,12.43a36.61,36.61,0,0,1,5.84,8.67,53,53,0,0,1,9.87-20.07c11.86-14.4,30.83-18.37,30.83-18.37m0-18.88a18.84,18.84,0,0,0-3.87.4c-2.61.55-25.91,5.88-41.54,24.85-.08.1-.16.19-.23.29a66.92,66.92,0,0,0-21.88-8,19.22,19.22,0,0,0-2.82-.21A18.87,18.87,0,0,0,950,2357.92c.15,2.16,1.84,21.51,15.4,36.23a54.66,54.66,0,0,0,10.07,8.51c-6.88,10.54-18.69,22.13-34,33.1a255.2,255.2,0,0,1-30.41,3.08,18.87,18.87,0,0,0-18,16.46,106.69,106.69,0,0,0,12.48,66.11,18.86,18.86,0,0,0,22.76,8.77,260,260,0,0,1,75.26-14.21,18.87,18.87,0,0,0,18-16.46,106.35,106.35,0,0,0-8.39-57.9,55.83,55.83,0,0,0,13.41-1.83c19.86-5.26,32-21.1,33.33-22.89a18.88,18.88,0,0,0-7.54-28.47,61.9,61.9,0,0,0-10.7-3.44c15.55-19,16.29-42.79,16.33-45.45a18.87,18.87,0,0,0-18.88-19.12Zm0,37.76h0Z"/><path class="cls-8" d="M1095.33,2423.07a87.87,87.87,0,0,1,10.31,54.64,278.59,278.59,0,0,0-42,4.86c12.2,3.92,25.76,9.53,37.47,17.42,4.08-3.27,12.13-8.69,22.11-9.83a35.78,35.78,0,0,1,4-.22c12.71,0,23.21,6.6,23.21,6.6s-10.61,10.72-25,12.37a32.6,32.6,0,0,1-3.91.22,41.9,41.9,0,0,1-10.49-1.4,58.4,58.4,0,0,1,14.64,19.6,52.5,52.5,0,0,1,20.21,6c16.29,9.11,23.59,27.07,23.59,27.07a55.27,55.27,0,0,1-8.28.55c-7.08,0-17.59-1.1-27.14-6.43a45.86,45.86,0,0,1-7.42-5.3c1.47,17.62-7.68,33-7.68,33s-14-13.4-16.49-31.89c-1.83-13.78,3.27-26.48,6-32.07-16.42-17.6-45.93-27-64.05-31.29q-9.79,2.63-19.43,6a87.85,87.85,0,0,1-10.32-54.65,277.22,277.22,0,0,0,80.74-15.24m0-18.89a18.83,18.83,0,0,0-6.2,1.05,259.37,259.37,0,0,1-75.27,14.21,18.88,18.88,0,0,0-18,16.47,106.7,106.7,0,0,0,12.48,66.11,18.86,18.86,0,0,0,22.76,8.77c4.4-1.53,8.92-3,13.48-4.27,17.08,4.48,31.5,10.58,41.49,17.47a71.46,71.46,0,0,0-2.39,28.84c3.24,24.38,20.23,41.22,22.16,43.06a18.85,18.85,0,0,0,13,5.23,19.86,19.86,0,0,0,2.55-.17,18.88,18.88,0,0,0,13.67-9,77.85,77.85,0,0,0,6.36-14.38,82.72,82.72,0,0,0,19.66,2.33,73.67,73.67,0,0,0,11.4-.81,18.89,18.89,0,0,0,14.37-25.73c-1-2.46-10.39-24.39-31.79-36.39a62.29,62.29,0,0,0,8.72-7.1,18.87,18.87,0,0,0-3.37-29.26c-1.54-1-15.61-9.5-33.26-9.5-.68,0-1.36,0-2,0a106.49,106.49,0,0,0-13.28-57.09,18.89,18.89,0,0,0-16.56-9.83Z"/><path class="cls-18" d="M1127.64,2473.56a277.62,277.62,0,0,1,80.73-15.25,87.8,87.8,0,0,0-10.31-54.64,277.16,277.16,0,0,1-80.73,15.24A87.75,87.75,0,0,0,1127.64,2473.56Z"/><path class="cls-18" d="M992.6,2442.46c-7.25,2.52-14.57,4.66-21.94,6.56,9.46-7.88,19.35-17.57,27-28.57,5,1.55,14.47,3.67,24.18,1.09,14-3.72,23-15.86,23-15.86s-13.79-6.11-27.83-2.39a39.9,39.9,0,0,0-13,6.37,58.31,58.31,0,0,0,6.5-23.6,52.45,52.45,0,0,0,16.62-13c11.85-14.41,12.1-33.79,12.1-33.79s-19,4-30.83,18.37a53,53,0,0,0-9.87,20.08,36.76,36.76,0,0,0-5.84-8.68c-9.46-10.26-23.8-12.43-23.8-12.43s1,14.47,10.45,24.73c6.83,7.41,16.12,10.57,20.8,11.77-5.76,25.81-34.27,48.85-51.22,60.55a278.1,278.1,0,0,1-37,4,87.85,87.85,0,0,0,10.32,54.65,277.22,277.22,0,0,1,80.73-15.24A87.89,87.89,0,0,0,992.6,2442.46Z"/><path class="cls-18" d="M1134,2554.54c16.29,9.09,35.42,5.88,35.42,5.88s-7.3-18-23.59-27.06a52.35,52.35,0,0,0-20.21-6,58.4,58.4,0,0,0-14.64-19.6,39.73,39.73,0,0,0,14.4,1.18c14.43-1.65,25-12.37,25-12.37s-12.77-8-27.19-6.38c-10,1.14-18,6.56-22.11,9.83-11.71-7.89-25.27-13.5-37.47-17.42a278.59,278.59,0,0,1,42-4.86,87.87,87.87,0,0,0-10.31-54.64,277.22,277.22,0,0,1-80.74,15.24,87.85,87.85,0,0,0,10.32,54.65q9.64-3.36,19.42-6c18.12,4.33,47.64,13.69,64.05,31.29-2.71,5.59-7.81,18.29-6,32.07,2.46,18.49,16.49,31.89,16.49,31.89s9.15-15.38,7.68-33A45.86,45.86,0,0,0,1134,2554.54Z"/></svg>