<svg width="441" height="464" viewBox="0 0 441 464" fill="none" xmlns="http://www.w3.org/2000/svg">
<path d="M225.493 463.211C333.524 463.211 421.101 449.348 421.101 432.246C421.101 415.144 333.524 401.28 225.493 401.28C117.461 401.28 29.8848 415.144 29.8848 432.246C29.8848 449.348 117.461 463.211 225.493 463.211Z" fill="#DDDDDD"/>
<path d="M423.383 374.374C415.6 386.066 397.633 382.357 381.69 372.341C377.603 369.78 373.741 366.877 370.144 363.665C374.86 349.647 372.56 332.503 366.934 313.875C383.492 314.768 401.536 324.782 413.383 337.239C424.915 349.353 430.597 363.774 423.383 374.374Z" fill="#B3DF33"/>
<path d="M408.47 384.331C396.678 384.331 381.364 377.289 368.349 365.675C367.956 365.324 367.674 364.865 367.539 364.355C367.404 363.845 367.421 363.306 367.59 362.806C371.656 350.712 370.625 335.412 364.351 314.654C364.226 314.24 364.203 313.802 364.283 313.378C364.363 312.953 364.544 312.554 364.811 312.214C365.081 311.877 365.427 311.608 365.82 311.429C366.214 311.251 366.644 311.168 367.076 311.188C389.453 312.4 415.72 329.674 425.62 349.694C430.526 359.614 430.52 368.665 425.602 375.892C422.532 380.511 417.772 383.373 411.854 384.126C410.732 384.266 409.601 384.334 408.47 384.331ZM373.243 362.795C385.965 373.69 401.04 380.083 411.176 378.776C415.567 378.213 418.912 376.229 421.138 372.881C425.906 365.876 423.578 357.705 420.8 352.08C413.253 336.829 391.826 319.84 370.628 316.934C375.967 335.988 376.803 350.697 373.243 362.795Z" fill="#1B360E"/>
<path d="M394.573 322.117C395.151 322.066 396.385 322.317 395.974 323.11C395.933 323.21 395.863 323.295 395.772 323.354C395.682 323.413 395.575 323.442 395.468 323.438C395.36 323.435 395.256 323.397 395.17 323.332C395.083 323.267 395.02 323.177 394.987 323.074C394.806 322.64 395.159 322.318 395.387 321.983C396.423 320.457 397.262 318.806 397.881 317.069C398.495 315.362 398.928 313.596 399.174 311.8C399.411 310.055 399.529 308.011 398.932 306.324C398.872 306.162 398.577 306.11 398.541 306.324C398.31 307.711 398.358 309.143 398.197 310.541C398.048 311.972 397.771 313.387 397.371 314.769C396.922 316.236 396.33 317.656 395.603 319.007C395.278 319.619 394.928 320.222 394.556 320.807C394.23 321.315 393.77 321.798 393.642 322.399C393.17 324.613 396.244 325.707 397.219 323.598C398.133 321.606 394.899 319.999 394.469 321.972C394.465 321.989 394.464 322.006 394.468 322.023C394.471 322.04 394.478 322.056 394.489 322.07C394.499 322.084 394.513 322.095 394.528 322.103C394.544 322.111 394.561 322.115 394.578 322.115L394.573 322.117Z" fill="#1B360E"/>
<path d="M412.009 337.746C413.379 337.304 414.67 336.216 415.75 335.291C416.902 334.304 417.929 333.179 418.807 331.942C420.51 329.547 421.747 326.626 421.812 323.658C421.812 323.548 421.661 323.538 421.627 323.634C420.651 326.327 419.513 328.924 417.761 331.214C416.912 332.334 415.955 333.369 414.904 334.303C413.826 335.253 412.556 335.896 411.448 336.785C410.995 337.151 411.486 337.923 412.011 337.749L412.009 337.746Z" fill="#1B360E"/>
<path d="M419.826 344.661C420.83 344.607 421.76 343.949 422.576 343.414C423.427 342.858 424.223 342.222 424.952 341.514C425.663 340.823 426.227 339.982 426.805 339.182C427.079 338.802 427.346 338.415 427.598 338.018C427.826 337.66 428.151 337.205 428.171 336.77C428.172 336.741 428.165 336.711 428.151 336.685C428.137 336.658 428.115 336.637 428.09 336.622C428.064 336.607 428.034 336.599 428.004 336.6C427.974 336.601 427.945 336.61 427.92 336.626C427.554 336.811 427.27 337.257 427.013 337.566C426.709 337.925 426.393 338.275 426.061 338.61C425.411 339.272 424.643 339.8 423.925 340.399C423.206 340.997 422.503 341.513 421.758 342.025C421.014 342.537 420.01 342.944 419.405 343.651C419.096 344.015 419.272 344.695 419.826 344.667V344.661Z" fill="#1B360E"/>
<path d="M405.019 329.849L405.073 329.885C405.163 329.937 405.264 329.965 405.368 329.965C405.472 329.965 405.574 329.937 405.663 329.885C406.387 329.454 406.776 328.747 407.042 327.973C407.353 327.04 407.568 326.077 407.683 325.101C407.807 324.125 407.714 323.175 407.649 322.195C407.595 321.396 407.67 320.124 407.07 319.508C407.047 319.485 407.018 319.467 406.987 319.456C406.956 319.445 406.923 319.442 406.89 319.446C406.857 319.45 406.825 319.461 406.798 319.48C406.77 319.498 406.747 319.522 406.73 319.55C406.567 319.933 406.61 320.333 406.644 320.741C406.693 321.254 406.716 321.77 406.712 322.286C406.689 323.274 406.481 324.307 406.301 325.28C406.138 326.176 405.95 327.104 405.608 327.951C405.47 328.311 405.266 328.642 405.006 328.927C404.766 329.186 404.666 329.63 405.019 329.856V329.849Z" fill="#1B360E"/>
<path d="M425.816 356.872C426.374 356.628 426.775 355.914 427.148 355.451C427.561 354.936 428.006 354.447 428.48 353.987C429.518 353.015 430.653 352.153 431.869 351.415C433.195 350.555 434.614 349.846 436.097 349.3C436.822 349.039 437.523 348.73 438.24 348.448C438.958 348.167 439.764 348.014 440.442 347.645C440.478 347.629 440.507 347.601 440.524 347.566C440.541 347.531 440.545 347.491 440.534 347.453C440.524 347.415 440.501 347.383 440.468 347.361C440.436 347.339 440.397 347.33 440.358 347.334C439.59 347.299 438.779 347.541 438.027 347.674C437.181 347.804 436.348 348.005 435.536 348.276C433.983 348.834 432.349 349.414 430.917 350.24C429.647 350.986 428.477 351.893 427.437 352.937C426.925 353.447 426.449 353.994 426.014 354.573C425.631 355.088 425.084 355.812 425.148 356.485C425.15 356.563 425.172 356.639 425.212 356.705C425.252 356.772 425.308 356.827 425.375 356.866C425.443 356.905 425.519 356.926 425.597 356.926C425.674 356.927 425.751 356.908 425.819 356.871L425.816 356.872Z" fill="#1B360E"/>
<g opacity="0.3">
<path d="M423.383 374.374C415.6 386.066 397.634 382.357 381.69 372.341C383.084 366.56 385.431 360.894 385.123 354.974C384.901 350.64 383.269 346.214 384.54 342.065C388.388 344.82 392.237 347.578 396.086 350.34L395.933 348.824C398.065 350.88 400.875 352.319 403.83 352.457C406.785 352.595 409.866 351.319 411.559 348.9C412.86 347.045 413.283 344.728 413.446 342.48C413.567 340.734 413.546 338.981 413.384 337.239C424.915 349.352 430.597 363.774 423.383 374.374Z" fill="#1B360E"/>
</g>
<path d="M396.781 357.087C396.777 366.789 394.111 376.304 389.074 384.596C378.759 401.705 359.11 413.263 336.569 413.263C309.159 413.263 286.016 396.167 278.734 372.78C277.155 367.698 276.353 362.408 276.354 357.087C276.354 338.239 286.305 321.56 301.579 311.374C311.44 304.787 323.518 300.919 336.569 300.919C363.19 300.919 385.783 317.036 393.727 339.389C395.752 345.069 396.786 351.056 396.781 357.087Z" fill="#B3DF33"/>
<g opacity="0.6">
<path d="M301.637 320.344C311.5 313.758 323.577 309.889 336.627 309.889C363.248 309.889 385.841 326.005 393.787 348.359C395.263 352.512 396.211 356.834 396.609 361.224C396.716 359.858 396.771 358.479 396.771 357.087C396.776 351.056 395.743 345.069 393.717 339.389C385.773 317.036 363.18 300.919 336.559 300.919C323.508 300.919 311.43 304.787 301.569 311.374C286.296 321.56 276.345 338.239 276.345 357.087C276.345 358.713 276.428 360.31 276.572 361.895C277.927 344.768 287.499 329.774 301.637 320.344Z" fill="white"/>
</g>
<path d="M389.074 382.69C383.817 391.982 376.185 399.71 366.959 405.082C357.733 410.454 347.244 413.278 336.568 413.263C309.158 413.263 286.016 395.025 278.733 370.075C281.145 372.255 283.689 374.284 286.351 376.151C296.48 383.28 308.036 388.218 319.771 392.351C324.507 394.025 329.314 395.579 334.279 396.397C345.987 398.333 358.054 396.072 369.291 392.286C376.281 389.941 383.129 386.946 389.074 382.69Z" fill="#D4ED7A"/>
<path d="M336.569 416.727C308.435 416.727 283.296 399.077 275.423 373.809C273.742 368.394 272.887 362.757 272.888 357.087C272.888 324.206 301.454 297.455 336.566 297.455C371.677 297.455 400.242 324.206 400.242 357.087C400.224 367.417 397.388 377.547 392.039 386.385C380.758 405.099 359.502 416.727 336.569 416.727ZM336.569 304.384C305.277 304.384 279.814 328.026 279.814 357.087C279.813 362.06 280.563 367.004 282.037 371.754C289.013 394.152 311.436 409.798 336.564 409.798C357.084 409.798 376.067 399.456 386.104 382.802C390.802 375.044 393.295 366.152 393.313 357.082C393.318 328.026 367.861 304.384 336.569 304.384Z" fill="#1B360E"/>
<path d="M262.919 352.241L263.298 352.117C263.23 352.294 263.163 352.465 263.096 352.644C263.038 352.514 262.977 352.377 262.919 352.241Z" fill="#D4ED7A"/>
<path d="M311.274 311.159C312.673 310.601 312.927 308.024 313.169 306.733C313.528 304.864 313.688 302.963 313.647 301.06C313.548 297.356 312.722 293.365 310.517 290.309C310.484 290.258 310.434 290.22 310.376 290.202C310.318 290.184 310.255 290.186 310.199 290.21C310.143 290.234 310.096 290.276 310.069 290.33C310.041 290.384 310.033 290.447 310.047 290.506C310.46 292.246 310.977 293.921 311.266 295.681C311.561 297.47 311.855 299.236 311.892 301.06C311.937 302.865 311.796 304.67 311.471 306.446C311.318 307.259 311.112 308.06 310.913 308.861C310.741 309.562 310.451 310.307 310.822 310.975C310.867 311.052 310.935 311.111 311.017 311.145C311.099 311.178 311.189 311.184 311.274 311.161V311.159Z" fill="#1B360E"/>
<path d="M330.866 312.239C332.631 307.605 333.479 302.672 333.361 297.715C333.305 295.346 333.156 292.809 332.398 290.56C332.013 289.421 331.598 288.283 331.211 287.145C330.834 286.027 330.466 284.723 329.796 283.743C329.778 283.716 329.752 283.697 329.722 283.688C329.691 283.679 329.659 283.68 329.63 283.693C329.6 283.705 329.576 283.727 329.562 283.755C329.547 283.783 329.542 283.816 329.549 283.847C329.711 285.021 330.212 286.185 330.502 287.341C330.783 288.519 330.96 289.72 331.03 290.929C331.193 293.264 331.59 295.559 331.653 297.907C331.764 302.657 331.122 307.395 329.752 311.944C329.537 312.67 330.606 312.933 330.866 312.252V312.239Z" fill="#1B360E"/>
<path d="M344.095 301.054C344.002 300.626 344.438 300.042 344.597 299.65C344.864 299 345.101 298.33 345.36 297.67C345.848 296.437 346.36 295.22 346.887 294.006C347.414 292.791 347.604 291.5 348.048 290.265C348.523 288.946 349.079 287.663 349.599 286.362C349.659 286.211 349.437 286.143 349.352 286.258C348.446 287.535 347.625 288.87 346.796 290.195C346.366 290.878 345.843 291.496 345.412 292.171C344.981 292.846 344.714 293.622 344.408 294.352C343.808 295.783 343.216 297.23 342.714 298.701C342.351 299.762 341.738 301.465 343.142 302.015C343.73 302.244 344.208 301.581 344.095 301.06V301.054Z" fill="#1B360E"/>
<path d="M354.393 313.088C355.19 312.332 355.709 311.208 356.228 310.25C356.77 309.256 357.283 308.25 357.768 307.232C358.792 305.135 359.632 302.954 360.279 300.712C360.888 298.535 361.371 296.255 361.334 293.985C361.297 291.771 361.228 289.319 360.589 287.184C360.578 287.143 360.552 287.108 360.516 287.084C360.481 287.061 360.438 287.051 360.396 287.057C360.354 287.063 360.316 287.084 360.288 287.116C360.26 287.147 360.244 287.188 360.244 287.231C360.106 289.508 360.179 291.698 359.756 293.96C359.358 296.12 359.046 298.284 358.431 300.4C357.806 302.48 357.02 304.508 356.08 306.466C355.6 307.489 355.081 308.492 354.567 309.5C354.096 310.426 353.463 311.408 353.266 312.428C353.139 313.078 353.884 313.566 354.393 313.078V313.088Z" fill="#1B360E"/>
<path d="M372.834 313.413L372.927 313.337L372.565 313.433C373.497 313.758 374.354 312.294 374.785 311.745C375.367 310.997 376.01 310.301 376.707 309.661C377.421 309.003 378.187 308.552 378.838 307.843C379.153 307.498 379.459 307.141 379.776 306.799C380.093 306.458 380.521 306.228 380.843 305.884C380.875 305.85 380.896 305.808 380.905 305.763C380.914 305.718 380.909 305.671 380.892 305.628C380.875 305.585 380.846 305.548 380.808 305.521C380.771 305.495 380.726 305.479 380.68 305.477C380.166 305.51 379.755 305.703 379.261 305.823C379.015 305.865 378.771 305.919 378.53 305.986C378.316 306.063 378.109 306.149 377.891 306.209C376.881 306.515 375.995 307.394 375.241 308.099C374.501 308.796 373.82 309.553 373.203 310.361C372.696 311.022 371.518 312.585 372.408 313.335C372.377 313.215 372.344 313.096 372.313 312.976L372.296 313.096C372.277 313.165 372.282 313.238 372.309 313.304C372.336 313.371 372.384 313.426 372.446 313.462C372.508 313.498 372.58 313.512 372.651 313.503C372.722 313.494 372.788 313.462 372.839 313.411L372.834 313.413Z" fill="#1B360E"/>
<path d="M377.04 326.706C377.635 326.19 378.015 325.359 378.48 324.72C379.025 323.976 379.629 323.277 380.286 322.63C381.629 321.302 383.154 320.176 384.676 319.053C386.199 317.929 387.626 316.776 388.905 315.376C389.521 314.696 390.132 314.007 390.716 313.299C391.3 312.592 392.11 312.161 392.682 311.465C392.76 311.37 392.718 311.185 392.57 311.196C391.757 311.255 391.084 311.865 390.44 312.317C389.688 312.844 389.051 313.472 388.348 314.055C386.742 315.389 384.946 316.514 383.257 317.742C381.647 318.915 380.047 320.115 378.671 321.564C378.04 322.215 377.475 322.926 376.983 323.687C376.532 324.395 375.974 325.431 376.061 326.289C376.065 326.402 376.101 326.511 376.165 326.603C376.23 326.696 376.319 326.768 376.423 326.811C376.527 326.854 376.641 326.866 376.752 326.846C376.863 326.826 376.965 326.774 377.048 326.698L377.04 326.706Z" fill="#1B360E"/>
<path d="M391.747 335.978C392.585 336.559 393.881 335.287 394.494 334.822C395.46 334.089 396.429 333.359 397.39 332.624C398.324 331.905 399.257 331.185 400.189 330.466C401.136 329.737 401.84 328.651 402.581 327.73C402.616 327.704 402.639 327.664 402.644 327.621C402.65 327.577 402.638 327.533 402.611 327.499C402.585 327.464 402.545 327.441 402.502 327.435C402.458 327.43 402.414 327.442 402.38 327.468C401.264 327.956 400.023 328.374 399.044 329.121C398.065 329.867 397.047 330.636 396.055 331.397L393.182 333.622C392.694 333.996 392.175 334.367 391.816 334.868C391.619 335.143 391.38 335.717 391.747 335.972V335.978Z" fill="#1B360E"/>
<path d="M388.291 349.247C389.088 349.281 389.479 348.661 390.08 348.226C390.809 347.686 391.566 347.186 392.347 346.726C394.058 345.75 395.917 345.048 397.769 344.384C399.93 343.612 402.088 342.82 404.274 342.108C405.359 341.756 406.456 341.423 407.554 341.116C408.096 340.964 408.622 340.745 409.18 340.628C409.792 340.504 410.395 340.481 410.994 340.278C411.056 340.258 411.111 340.219 411.15 340.166C411.189 340.112 411.21 340.048 411.21 339.982C411.21 339.916 411.189 339.852 411.15 339.799C411.111 339.746 411.056 339.706 410.994 339.686C409.977 339.27 408.595 339.285 407.51 339.341C406.287 339.428 405.077 339.657 403.906 340.023C401.444 340.742 399.028 341.678 396.623 342.553C394.658 343.267 392.679 344.031 390.931 345.189C389.875 345.889 387.49 347.645 388.137 349.141C388.153 349.17 388.177 349.194 388.205 349.211C388.234 349.228 388.266 349.237 388.3 349.237L388.291 349.247Z" fill="#1B360E"/>
<path d="M395.344 358.976C395.894 359.25 396.414 359.139 396.995 359.037C397.551 358.957 398.11 358.906 398.671 358.884C399.814 358.794 400.963 358.863 402.087 359.089C403.192 359.318 404.251 359.705 405.339 360.03C405.91 360.203 406.411 360.315 406.925 360.627C407.385 360.918 407.876 361.158 408.388 361.344C408.417 361.352 408.448 361.352 408.478 361.344C408.507 361.337 408.534 361.321 408.555 361.3C408.577 361.278 408.592 361.252 408.6 361.222C408.608 361.193 408.608 361.162 408.6 361.133C408.4 360.626 408.086 360.171 407.682 359.804C407.242 359.386 406.78 358.942 406.307 358.557C405.272 357.713 403.968 357.269 402.672 357.014C401.393 356.754 400.085 356.672 398.784 356.77C398.11 356.833 397.444 356.966 396.798 357.167C396.177 357.349 395.453 357.557 395.154 358.189C395.029 358.456 395.065 358.829 395.361 358.976H395.344Z" fill="#1B360E"/>
<path d="M387.082 373.822C387.941 374.287 388.897 374.05 389.847 374.011C390.886 373.967 391.927 373.951 392.968 373.952C394.965 373.952 396.957 374.074 398.952 374.115C400.948 374.156 402.855 374.211 404.807 374.621C406.714 375.024 408.558 375.566 410.438 376.068C410.486 376.084 410.539 376.082 410.585 376.061C410.631 376.04 410.668 376.003 410.689 375.957C410.709 375.91 410.711 375.858 410.695 375.81C410.679 375.762 410.645 375.722 410.601 375.697C409.018 374.686 407.116 373.993 405.301 373.536C403.359 373.048 401.383 372.56 399.406 372.227C397.404 371.92 395.381 371.776 393.356 371.794C392.251 371.794 391.145 371.819 390.041 371.872C389.096 371.918 387.865 371.776 387.084 372.36C386.608 372.718 386.471 373.489 387.084 373.824L387.082 373.822Z" fill="#1B360E"/>
<g opacity="0.3">
<path d="M396.781 357.087C396.777 366.789 394.111 376.304 389.074 384.596C378.759 401.705 359.11 413.263 336.569 413.263C309.159 413.263 286.016 396.167 278.734 372.78C277.155 367.698 276.353 362.408 276.354 357.087C276.354 338.239 286.305 321.56 301.579 311.374C316.182 314.66 329.322 323.505 336.821 335.541C339.169 339.307 340.998 343.347 343.763 346.873C350.235 355.109 362.03 359.614 372.851 357.622C382.779 355.786 391.275 348.378 393.727 339.389C395.752 345.069 396.786 351.056 396.781 357.087Z" fill="#1B360E"/>
</g>
<path d="M379.969 405.956C373.441 419.129 349.583 405.86 358.15 391.59C365.899 378.54 377.014 379.052 379.463 387.788C380.642 393.448 380.671 399.557 379.969 405.956Z" fill="#B3DF33"/>
<path d="M371.146 413.673C365.255 413.673 359.089 410.118 355.997 404.881C353.272 400.268 353.334 395.124 356.17 390.408C360.783 382.638 367.119 378.462 373.113 379.26C377.249 379.808 380.454 382.765 381.687 387.17C381.701 387.221 381.714 387.273 381.724 387.323C382.879 392.864 383.054 399.043 382.264 406.217C382.235 406.485 382.158 406.747 382.038 406.989C379.986 411.128 376.306 413.494 371.674 413.67C371.499 413.67 371.321 413.673 371.146 413.673ZM371.725 383.783C368.566 383.783 364.081 386.113 360.136 392.769C357.666 396.885 358.686 400.349 359.974 402.527C362.258 406.399 367.218 409.219 371.503 409.041C373.455 408.97 376.08 408.248 377.717 405.27C378.399 398.808 378.234 393.26 377.218 388.331C376.467 385.729 374.797 384.129 372.502 383.827C372.245 383.796 371.987 383.781 371.728 383.783H371.725Z" fill="#1B360E"/>
<path d="M370.158 397.7C370.443 393.634 372.573 389.606 376.619 388.024C377.376 387.739 378.188 387.633 378.992 387.714C379.796 387.795 380.571 388.061 381.255 388.491C387.923 392.662 394.008 398.554 395.576 404.454C388.027 407.36 380.486 407.648 372.963 402.961C371.077 401.788 370.01 399.79 370.158 397.7Z" fill="#D4ED7A"/>
<g opacity="0.3">
<path d="M378.661 398.648C376.779 397.476 375.709 395.477 375.855 393.387C375.983 391.402 376.578 389.475 377.594 387.764C377.26 387.816 376.933 387.903 376.618 388.024C372.572 389.606 370.438 393.641 370.157 397.7C370.009 399.79 371.079 401.788 372.962 402.961C380.485 407.648 388.026 407.352 395.575 404.454C395.339 403.594 395.026 402.757 394.64 401.953C389.306 402.78 383.98 401.961 378.661 398.648Z" fill="#1B360E"/>
</g>
<path d="M385.145 408.884C380.429 408.884 375.986 407.565 371.742 404.92C369.14 403.294 367.649 400.471 367.854 397.539C368.234 392.107 371.269 387.637 375.777 385.873C376.868 385.454 378.043 385.296 379.206 385.411C380.37 385.525 381.491 385.909 382.48 386.533C386.347 388.951 395.581 395.477 397.807 403.862C397.954 404.412 397.892 404.997 397.633 405.505C397.374 406.012 396.937 406.406 396.405 406.61C392.467 408.126 388.725 408.884 385.145 408.884ZM378.442 389.993C378.108 389.992 377.777 390.053 377.466 390.174C374.084 391.498 372.666 395.013 372.466 397.863C372.379 399.102 373.023 400.274 374.189 401C379.845 404.524 385.747 405.19 392.616 403.045C390.665 398.84 386.136 394.264 380.036 390.45C379.558 390.151 379.006 389.993 378.442 389.993Z" fill="#1B360E"/>
<g opacity="0.3">
<path d="M361.77 387.809C360.236 390.434 359.721 393.531 360.324 396.511C360.58 397.744 361.209 399.113 362.52 399.453C363.769 399.778 365.084 398.965 365.748 397.944C366.411 396.923 366.607 395.696 366.958 394.545C368.08 390.863 370.965 387.669 374.69 385.985C375.367 385.679 376.11 385.416 376.855 385.511C377.6 385.607 378.319 386.183 378.284 386.876C374.209 388.113 372.002 392.106 370.557 395.828C370.178 396.804 369.817 397.822 369.94 398.85C370.131 400.443 371.428 401.718 372.744 402.766C374.959 404.524 377.387 405.995 379.971 407.143C378.95 410.485 374.551 412.159 370.84 411.551C367.129 410.942 364.029 408.646 361.282 406.27C359.819 405.008 358.368 403.632 357.747 401.879C357.23 400.426 357.344 398.853 357.461 397.326C357.687 394.399 357.978 391.309 359.853 388.941" fill="#1B360E"/>
</g>
<path d="M344.608 365.275C344.625 376.097 341.877 386.744 336.625 396.206C325.941 415.442 305.587 428.437 282.24 428.437C253.849 428.437 229.875 409.215 222.333 382.918C220.695 377.18 219.865 371.242 219.869 365.275C219.869 344.082 230.178 325.328 245.996 313.875C256.528 306.219 269.219 302.103 282.24 302.119C309.814 302.119 333.215 320.242 341.444 345.376C343.548 351.799 344.616 358.516 344.608 365.275Z" fill="#B3DF33"/>
<g opacity="0.6">
<path d="M245.997 321.492C256.529 313.836 269.22 309.72 282.241 309.736C309.815 309.736 333.216 327.859 341.445 352.994C343.157 358.226 344.18 363.659 344.489 369.155C344.566 367.872 344.609 366.579 344.609 365.276C344.618 358.517 343.549 351.8 341.445 345.376C333.216 320.243 309.815 302.119 282.241 302.119C269.22 302.103 256.529 306.219 245.997 313.875C230.179 325.328 219.87 344.082 219.87 365.275C219.87 366.529 219.916 367.773 219.987 369.015C220.533 359.662 223.149 350.547 227.647 342.328C232.146 334.11 238.413 326.993 245.997 321.492Z" fill="white"/>
</g>
<path d="M336.625 394.053C325.941 414.574 305.587 428.437 282.24 428.437C253.849 428.437 229.875 407.931 222.333 379.877C224.819 382.315 227.454 384.596 230.223 386.707C240.716 394.722 252.686 400.273 264.841 404.921C269.745 406.8 274.725 408.55 279.869 409.474C292 411.651 304.495 409.105 316.133 404.851C323.37 402.214 330.467 398.848 336.625 394.053Z" fill="#D4ED7A"/>
<path d="M282.24 431.901C253.119 431.901 227.111 412.151 219.002 383.874C217.275 377.825 216.399 371.565 216.4 365.275C216.4 328.54 245.933 298.655 282.235 298.655C318.537 298.655 348.067 328.54 348.067 365.275C348.071 376.683 345.174 387.906 339.648 397.887C328.001 418.867 306 431.901 282.24 431.901ZM282.24 305.584C249.757 305.584 223.333 332.36 223.333 365.267C223.33 370.912 224.114 376.53 225.663 381.958C232.928 407.278 256.192 424.964 282.24 424.964C303.486 424.964 323.165 413.297 333.597 394.514C338.551 385.562 341.149 375.498 341.145 365.267C341.145 332.36 314.718 305.584 282.24 305.584Z" fill="#1B360E"/>
<path d="M205.952 359.824L206.344 359.686L206.136 360.277C206.074 360.133 206.016 359.978 205.952 359.824Z" fill="#D4ED7A"/>
<path d="M256.133 313.545C256.891 313.137 257.124 312.161 257.358 311.387C257.652 310.365 257.878 309.325 258.033 308.273C258.374 306.213 258.517 304.125 258.459 302.038C258.327 297.972 257.483 293.672 255.249 290.205C255.216 290.153 255.166 290.115 255.107 290.097C255.049 290.078 254.986 290.081 254.929 290.105C254.873 290.129 254.827 290.172 254.799 290.227C254.772 290.281 254.764 290.344 254.779 290.404C255.223 292.313 255.743 294.163 256.045 296.105C256.371 298.14 256.67 300.151 256.709 302.215C256.759 304.205 256.625 306.196 256.307 308.162C256.145 309.095 255.936 310.014 255.727 310.936C255.541 311.749 255.219 312.608 255.584 313.4C255.638 313.491 255.726 313.557 255.829 313.584C255.932 313.611 256.041 313.597 256.133 313.545Z" fill="#1B360E"/>
<path d="M276.312 314.828C277.205 312.149 277.927 309.53 278.324 306.724C278.732 304.015 278.92 301.276 278.885 298.536C278.829 295.835 278.664 292.993 277.865 290.405C277.472 289.132 277.052 287.863 276.663 286.592C276.275 285.346 275.914 283.917 275.219 282.806C275.154 282.702 274.948 282.733 274.967 282.874C275.13 284.076 275.596 285.249 275.873 286.432C276.196 287.799 276.409 289.189 276.512 290.589C276.699 293.246 277.101 295.871 277.172 298.541C277.319 303.896 276.706 309.375 275.198 314.525C274.988 315.244 276.078 315.534 276.312 314.833V314.828Z" fill="#1B360E"/>
<path d="M290.009 302.295C289.864 301.807 290.347 301.107 290.521 300.657C290.802 299.922 291.043 299.171 291.308 298.429C291.805 297.045 292.337 295.676 292.884 294.31C293.43 292.944 293.643 291.503 294.11 290.116C294.606 288.641 295.186 287.197 295.736 285.74C295.791 285.59 295.573 285.512 295.487 285.634C294.554 287.086 293.71 288.592 292.856 290.091C292.441 290.82 291.957 291.495 291.518 292.206C291.059 292.95 290.773 293.804 290.457 294.616C289.849 296.18 289.269 297.757 288.743 299.351C288.389 300.431 287.556 302.415 288.873 303.171C289.451 303.496 290.205 302.952 290.012 302.295H290.009Z" fill="#1B360E"/>
<path d="M300.662 315.766C301.53 314.906 302.06 313.603 302.599 312.514C303.193 311.321 303.757 310.113 304.29 308.89C305.325 306.564 306.169 304.157 306.812 301.693C307.43 299.263 307.908 296.743 307.873 294.227C307.837 291.758 307.767 289.075 307.12 286.68C307.108 286.639 307.083 286.604 307.047 286.58C307.012 286.557 306.969 286.547 306.927 286.553C306.886 286.558 306.847 286.579 306.819 286.61C306.791 286.642 306.775 286.683 306.775 286.725C306.646 289.252 306.723 291.693 306.31 294.206C305.915 296.613 305.596 299.021 304.975 301.385C304.336 303.75 303.52 306.063 302.535 308.305C302.033 309.473 301.49 310.621 300.946 311.771C300.459 312.815 299.738 313.976 299.564 315.124C299.471 315.735 300.156 316.262 300.662 315.763V315.766Z" fill="#1B360E"/>
<path d="M319.794 316.139L319.885 316.051L319.625 316.16C320.29 316.191 320.664 315.726 321.043 315.239C321.342 314.852 321.623 314.459 321.906 314.06C322.486 313.256 323.131 312.501 323.837 311.805C324.583 311.062 325.43 310.432 326.113 309.634C326.245 309.482 326.398 309.351 326.535 309.204C326.715 309.011 326.85 308.772 327.037 308.583C327.112 308.507 327.401 308.316 327.541 308.208C327.748 308.045 327.901 307.855 328.088 307.679C328.275 307.503 328.076 307.237 327.855 307.281C327.64 307.305 327.428 307.346 327.219 307.403C326.974 307.487 326.744 307.617 326.5 307.705C326.256 307.793 326.013 307.804 325.77 307.89C325.528 307.977 325.299 308.095 325.076 308.186C323.994 308.63 323.124 309.463 322.311 310.286C321.538 311.076 320.827 311.927 320.187 312.829C319.872 313.256 319.599 313.714 319.374 314.195C319.245 314.465 319.147 314.749 319.082 315.041C319.035 315.22 319.035 315.408 319.082 315.587C319.097 315.665 319.126 315.74 319.166 315.808C319.303 315.971 319.329 316 319.23 315.908C319.189 316.205 319.6 316.313 319.783 316.139H319.794Z" fill="#1B360E"/>
<path d="M324.143 331.064C324.771 330.446 325.172 329.513 325.659 328.776C326.198 327.961 326.804 327.192 327.47 326.476C328.846 324.993 330.425 323.712 332.001 322.452C333.637 321.151 335.172 319.814 336.519 318.201C337.096 317.509 337.675 316.818 338.223 316.104C338.512 315.71 338.834 315.34 339.184 314.999C339.564 314.642 340.018 314.379 340.348 313.969C340.422 313.878 340.389 313.681 340.238 313.699C339.402 313.805 338.733 314.447 338.091 314.948C337.328 315.542 336.678 316.218 335.977 316.872C334.315 318.401 332.435 319.707 330.663 321.1C329.001 322.401 327.353 323.743 325.947 325.328C325.275 326.069 324.676 326.871 324.158 327.725C323.67 328.539 323.081 329.677 323.169 330.653C323.213 331.14 323.776 331.435 324.154 331.062L324.143 331.064Z" fill="#1B360E"/>
<path d="M339.475 341.537C340.013 341.756 340.54 341.421 340.976 341.129C341.476 340.774 341.957 340.394 342.418 339.99C343.417 339.167 344.418 338.349 345.412 337.52C346.37 336.722 347.404 335.964 348.305 335.102C349.206 334.24 349.894 333.183 350.639 332.214C350.748 332.071 350.543 331.918 350.409 331.986C349.253 332.573 347.983 333.089 346.965 333.913C345.906 334.773 344.859 335.652 343.812 336.528C342.794 337.38 341.777 338.235 340.761 339.091C340.288 339.488 339.746 339.904 339.416 340.441C339.236 340.732 339.052 341.361 339.475 341.534V341.537Z" fill="#1B360E"/>
<path d="M335.815 356.435C336.628 356.365 336.979 355.802 337.589 355.296C338.325 354.673 339.101 354.098 339.911 353.574C341.612 352.498 343.479 351.706 345.349 350.972C347.637 350.079 349.924 349.17 352.241 348.351C353.379 347.948 354.542 347.58 355.698 347.224C356.295 347.042 356.886 346.799 357.5 346.687C358.115 346.575 358.717 346.546 359.315 346.351C359.378 346.331 359.433 346.291 359.472 346.238C359.511 346.185 359.531 346.12 359.531 346.055C359.531 345.989 359.511 345.924 359.472 345.871C359.433 345.818 359.378 345.779 359.315 345.759C358.26 345.334 356.768 345.355 355.65 345.454C354.362 345.583 353.092 345.855 351.865 346.268C349.327 347.081 346.84 348.126 344.359 349.107C342.419 349.875 340.474 350.689 338.748 351.881C337.907 352.464 337.13 353.093 336.509 353.909C335.974 354.612 335.278 355.389 335.628 356.297C335.639 356.337 335.664 356.373 335.698 356.398C335.731 356.424 335.772 356.438 335.815 356.438V356.435Z" fill="#1B360E"/>
<path d="M343.127 367.329C343.675 367.594 344.203 367.482 344.777 367.365C345.369 367.262 345.967 367.194 346.566 367.163C347.751 367.06 348.945 367.139 350.107 367.395C351.258 367.654 352.357 368.087 353.466 368.485C354.075 368.705 354.605 368.859 355.148 369.223C355.608 369.542 356.098 369.814 356.611 370.036C356.732 370.087 356.862 369.94 356.823 369.827C356.625 369.289 356.308 368.802 355.898 368.402C355.432 367.932 354.948 367.426 354.434 366.994C353.364 366.106 352.021 365.607 350.673 365.317C349.355 365.026 348.002 364.935 346.657 365.046C345.945 365.116 345.242 365.264 344.561 365.488C343.945 365.683 343.194 365.911 342.919 366.558C342.808 366.82 342.819 367.181 343.12 367.326L343.127 367.329Z" fill="#1B360E"/>
<path d="M334.58 383.971C335.374 384.511 336.413 384.217 337.325 384.175C338.365 384.124 339.405 384.1 340.446 384.103C342.575 384.103 344.698 384.235 346.827 384.3C348.878 384.362 350.893 384.448 352.898 384.916C354.903 385.385 356.801 385.99 358.744 386.591C358.973 386.661 359.084 386.344 358.907 386.221C357.269 385.116 355.295 384.349 353.396 383.832C351.321 383.239 349.218 382.75 347.094 382.368C344.964 382.015 342.804 381.927 340.646 381.935C339.542 381.935 338.436 381.974 337.332 382.036C336.327 382.093 335.185 381.955 334.422 382.687C334.027 383.071 334.167 383.672 334.585 383.958L334.58 383.971Z" fill="#1B360E"/>
<g opacity="0.3">
<path d="M241.793 313.013C239.917 312.702 238.025 312.491 236.127 312.38L244.972 311.904C243.89 312.235 242.83 312.604 241.793 313.013Z" fill="#4D1348"/>
</g>
<g opacity="0.3">
<path d="M344.609 365.275C344.626 376.097 341.878 386.744 336.626 396.206C325.942 415.442 305.588 428.437 282.241 428.437C253.85 428.437 229.876 409.215 222.334 382.918C220.696 377.18 219.866 371.242 219.87 365.275C219.87 344.082 230.179 325.328 245.997 313.875C261.121 317.57 274.734 327.516 282.502 341.049C284.942 345.277 286.828 349.831 289.692 353.789C296.397 363.05 308.613 368.114 319.821 365.875C330.107 363.811 338.905 355.482 341.45 345.375C343.553 351.798 344.619 358.516 344.609 365.275Z" fill="#1B360E"/>
</g>
<path d="M327.194 420.222C320.434 435.028 295.72 420.114 304.59 404.068C312.617 389.395 324.134 389.972 326.666 399.793C327.892 406.158 327.924 413.027 327.194 420.222Z" fill="#B3DF33"/>
<path d="M318.082 428.611C312.453 428.611 306.373 425.118 303.026 419.867C299.679 414.616 299.521 408.466 302.572 402.954C307.269 394.368 313.756 389.702 319.922 390.465C324.274 391.008 327.632 394.282 328.906 399.221C328.919 399.266 328.928 399.313 328.938 399.362C330.124 405.542 330.304 412.445 329.491 420.459C329.465 420.71 329.398 420.955 329.294 421.184C327.263 425.634 323.603 428.262 319.004 428.582C318.698 428.6 318.387 428.611 318.082 428.611ZM318.654 395.002C315.401 395.002 310.739 397.643 306.62 405.177C303.595 410.646 305.509 415.172 306.921 417.385C309.541 421.493 314.486 424.269 318.683 423.972C321.49 423.775 323.593 422.303 324.934 419.594C325.655 412.235 325.484 405.921 324.416 400.302C323.612 397.261 321.768 395.347 319.35 395.044C319.119 395.016 318.887 395.002 318.654 395.002Z" fill="#1B360E"/>
<path d="M317.032 410.939C317.326 406.374 319.535 401.832 323.726 400.058C324.507 399.739 325.355 399.621 326.193 399.713C327.032 399.805 327.834 400.104 328.528 400.585C335.436 405.273 341.738 411.899 343.361 418.534C335.54 421.799 327.729 422.124 319.943 416.854C318.983 416.208 318.21 415.322 317.699 414.284C317.188 413.247 316.958 412.093 317.032 410.939Z" fill="#D4ED7A"/>
<g opacity="0.3">
<path d="M325.841 412.004C324.882 411.358 324.11 410.472 323.6 409.434C323.09 408.396 322.861 407.243 322.934 406.09C323.06 403.875 323.673 401.716 324.73 399.765C324.384 399.826 324.045 399.924 323.72 400.058C319.529 401.839 317.321 406.374 317.026 410.939C316.952 412.093 317.181 413.246 317.691 414.284C318.201 415.321 318.974 416.207 319.932 416.854C327.724 422.124 335.534 421.799 343.35 418.534C343.106 417.57 342.779 416.63 342.374 415.722C336.866 416.65 331.349 415.73 325.841 412.004Z" fill="#1B360E"/>
</g>
<path d="M332.55 423.23C327.652 423.23 323.046 421.745 318.643 418.768C317.355 417.894 316.316 416.699 315.63 415.302C314.943 413.905 314.632 412.353 314.727 410.799C315.112 404.828 318.213 399.904 322.82 397.942C323.956 397.468 325.193 397.287 326.417 397.417C327.641 397.547 328.813 397.982 329.824 398.684C333.809 401.388 343.322 408.685 345.599 417.995C345.729 418.53 345.665 419.094 345.417 419.585C345.169 420.076 344.754 420.463 344.246 420.675C340.156 422.37 336.276 423.23 332.55 423.23ZM319.335 411.087C319.289 411.839 319.44 412.589 319.772 413.265C320.104 413.941 320.607 414.519 321.23 414.941C327.14 418.939 333.306 419.657 340.496 417.159C338.552 412.266 333.744 406.914 327.231 402.496C326.857 402.233 326.423 402.066 325.969 402.012C325.515 401.957 325.054 402.016 324.629 402.184C321.053 403.703 319.55 407.779 319.335 411.087Z" fill="#1B360E"/>
<g opacity="0.3">
<path d="M308.343 399.817C306.748 402.815 306.22 406.265 306.846 409.602C307.111 410.988 307.762 412.53 309.123 412.91C310.424 413.276 311.78 412.369 312.467 411.212C313.153 410.056 313.356 408.687 313.72 407.391C314.315 405.319 315.335 403.394 316.713 401.737C318.092 400.08 319.8 398.728 321.73 397.767C322.431 397.422 323.193 397.126 323.972 397.233C324.751 397.341 325.491 397.99 325.452 398.768C321.224 400.161 318.947 404.649 317.448 408.835C317.056 409.929 316.682 411.076 316.809 412.232C317.005 414.021 318.35 415.457 319.715 416.634C321.982 418.595 324.497 420.25 327.195 421.557C326.137 425.315 321.58 427.196 317.737 426.512C313.894 425.827 310.683 423.248 307.837 420.574C306.328 419.156 304.819 417.608 304.175 415.641C303.64 414.005 303.757 412.238 303.879 410.521C304.113 407.235 304.415 403.756 306.355 401.089" fill="#1B360E"/>
</g>
<path d="M276.865 372.557C276.856 382.181 274.672 391.678 270.476 400.339C269.002 403.407 267.307 406.363 265.404 409.184C249.955 432.114 220.439 447.62 186.568 447.62C177.845 447.633 169.154 446.581 160.686 444.486C123.428 435.241 96.2784 406.535 96.2784 372.557C96.2752 370.26 96.4012 367.965 96.6557 365.683C99.2023 342.356 114.583 322.12 136.877 309.879C147.955 303.805 160.742 299.694 174.504 298.17C178.51 297.72 182.537 297.497 186.568 297.5C236.436 297.5 276.865 331.103 276.865 372.557Z" fill="#B3DF33"/>
<path d="M270.476 400.339C257.198 428.044 224.634 447.62 186.563 447.62C136.695 447.62 96.2734 414.018 96.2734 372.557C96.2734 334.503 130.336 303.067 174.495 298.17C167.99 319.225 167.198 342.165 172.616 363.544C176.612 379.309 183.619 386.962 185.673 389.296C196.081 401.091 208.603 405.205 213.73 406.815C240.62 415.273 264.56 403.467 270.476 400.339Z" fill="#D4ED7A"/>
<path d="M186.567 451.086C134.871 451.086 92.8125 415.857 92.8125 372.557C92.8125 333.326 127.768 299.865 174.124 294.728C178.255 294.264 182.41 294.034 186.567 294.037C238.268 294.037 280.329 329.261 280.329 372.557C280.329 382.688 278.065 392.54 273.6 401.839C259.261 431.753 225.099 451.086 186.567 451.086ZM186.567 300.966C182.667 300.963 178.77 301.181 174.894 301.616C132.047 306.365 99.7418 336.865 99.7418 372.56C99.7418 412.04 138.691 444.16 186.567 444.16C222.448 444.16 254.158 426.372 267.353 398.845C271.367 390.488 273.401 381.644 273.401 372.56C273.401 333.081 234.448 300.966 186.567 300.966Z" fill="#1B360E"/>
<path d="M94.98 367.966C93.9734 368.335 93.2009 369.023 92.3211 369.618C91.4096 370.231 90.4649 370.793 89.4915 371.302C87.4538 372.373 85.3219 373.144 83.1655 373.933C80.8888 374.764 78.6121 375.608 76.2476 376.102C73.8082 376.611 71.3104 376.915 68.9117 377.566C68.8903 377.569 68.8697 377.576 68.8511 377.587C68.8325 377.597 68.8162 377.612 68.8031 377.629C68.79 377.646 68.7805 377.666 68.775 377.686C68.7695 377.707 68.7681 377.729 68.771 377.75C68.7739 377.772 68.7809 377.792 68.7918 377.811C68.8026 377.83 68.817 377.846 68.8342 377.859C68.8513 377.872 68.8708 377.882 68.8917 377.887C68.9125 377.893 68.9342 377.894 68.9556 377.891C71.4128 377.891 73.9025 377.504 76.3289 377.127C78.9146 376.725 81.51 376.499 84.0502 375.842C86.2472 375.274 88.4263 374.313 90.4298 373.258C91.4534 372.721 92.4439 372.124 93.3961 371.469C94.336 370.819 95.3231 370.181 95.8907 369.165C96.2159 368.594 95.6711 367.726 94.98 367.979V367.966Z" fill="#1B360E"/>
<path d="M96.511 381.771C96.4612 381.76 96.4127 381.744 96.3663 381.722C96.1093 381.613 95.815 381.757 95.6231 381.919C94.6181 382.771 93.8684 383.989 92.9496 384.946C92.031 385.87 91.0318 386.711 89.9639 387.458C88.9003 388.229 87.8498 389.084 86.674 389.688C85.4543 390.312 84.1095 390.724 82.815 391.163C82.7719 391.168 82.7328 391.191 82.7064 391.226C82.68 391.26 82.6685 391.304 82.6743 391.347C82.6802 391.39 82.7029 391.429 82.7375 391.456C82.7721 391.482 82.8158 391.494 82.8589 391.488C84.3111 391.543 85.6641 391.233 87.0545 390.855C88.471 390.47 89.8712 390.042 91.1201 389.252C92.3448 388.459 93.4658 387.517 94.4571 386.447C95.4328 385.411 96.5923 384.09 96.9062 382.662C96.9599 382.418 96.9257 382.085 96.7094 381.919C96.6476 381.87 96.5956 381.794 96.5175 381.771H96.511Z" fill="#1B360E"/>
<path d="M101.808 399.099C100.772 399.138 100.019 400.169 99.3147 400.832C98.4626 401.626 97.5823 402.385 96.6738 403.109C94.8431 404.577 92.9119 405.916 90.8942 407.114C88.9638 408.267 87.0644 409.58 85.0105 410.507C82.7858 411.508 80.4311 412.229 78.1625 413.131C77.969 413.208 77.969 413.551 78.2161 413.53C80.5904 413.326 82.8102 412.663 85.0349 411.843C87.3441 410.993 89.6729 410.259 91.8244 409.036C93.9204 407.829 95.9167 406.457 97.7942 404.932C98.7439 404.169 99.6562 403.358 100.538 402.519C101.284 401.808 102.52 400.912 102.509 399.796C102.506 399.611 102.432 399.434 102.301 399.303C102.17 399.172 101.993 399.097 101.808 399.094V399.099Z" fill="#1B360E"/>
<path d="M110.394 414.296C109.94 414.81 109.895 415.571 109.695 416.208C109.491 416.87 109.218 417.509 108.882 418.114C108.158 419.415 107.156 420.518 106.081 421.529C104.943 422.599 103.741 423.591 102.518 424.554C101.931 425.016 101.38 425.539 100.747 425.948C100.066 426.377 99.3602 426.767 98.6333 427.114C98.4024 427.229 98.5324 427.556 98.7569 427.569C100.399 427.658 102.266 427.053 103.657 426.205C105.143 425.299 106.514 424.129 107.758 422.913C108.935 421.763 110.043 420.474 110.809 419.01C111.198 418.3 111.469 417.531 111.612 416.733C111.737 415.956 111.843 414.902 111.248 414.294C111.134 414.181 110.98 414.118 110.82 414.118C110.66 414.118 110.506 414.181 110.392 414.294L110.394 414.296Z" fill="#1B360E"/>
<path d="M127.26 428.21C126.3 427.753 125.347 428.293 124.471 428.753C123.586 429.219 122.747 429.768 121.965 430.392C120.296 431.737 118.831 433.318 117.616 435.085C116.447 436.768 115.265 438.791 114.917 440.834C114.605 442.668 114.624 445.332 116.107 446.698C116.17 446.758 116.25 446.795 116.336 446.805C116.422 446.815 116.509 446.797 116.584 446.753C116.659 446.71 116.718 446.643 116.751 446.563C116.785 446.484 116.792 446.395 116.771 446.311C116.515 445.387 116.176 444.495 116.298 443.516C116.42 442.537 116.785 441.597 117.133 440.691C117.776 438.967 118.642 437.334 119.711 435.837C120.76 434.402 121.99 433.109 123.372 431.991C124.076 431.412 124.803 430.852 125.554 430.335C126.305 429.818 127.153 429.413 127.38 428.504C127.395 428.448 127.391 428.39 127.369 428.337C127.348 428.283 127.309 428.239 127.26 428.21Z" fill="#1B360E"/>
<path d="M143.916 438.212C143.937 438.256 143.958 438.299 143.977 438.341L143.937 438.016C143.794 438.515 144.073 439.123 144.156 439.621C144.251 440.176 144.232 440.744 144.101 441.291C143.823 442.455 143.256 443.53 142.452 444.417C141.614 445.353 140.58 446.113 139.547 446.82C139.023 447.167 138.461 447.454 137.872 447.674C137.232 447.928 136.581 448.025 135.921 448.217C135.876 448.231 135.836 448.26 135.808 448.298C135.78 448.337 135.765 448.383 135.765 448.431C135.765 448.478 135.78 448.525 135.808 448.563C135.836 448.602 135.876 448.63 135.921 448.645C136.607 448.807 137.442 448.734 138.136 448.645C138.862 448.548 139.577 448.384 140.273 448.157C141.774 447.684 143.049 446.656 144.033 445.446C145.016 444.236 145.773 442.82 145.939 441.236C146.035 440.534 145.98 439.82 145.776 439.143C145.655 438.796 145.471 438.475 145.233 438.196C145.116 438.047 144.975 437.919 144.815 437.819C144.717 437.764 144.49 437.725 144.433 437.686C144.094 437.451 143.761 437.894 143.914 438.203L143.916 438.212Z" fill="#1B360E"/>
<path d="M238.487 323.105C242.027 316.23 246.676 310.125 251.353 304.001C251.467 303.853 251.243 303.633 251.095 303.742C244.734 308.359 240.074 315.044 236.733 322.081C236.179 323.247 237.882 324.278 238.487 323.105Z" fill="#1B360E"/>
<path d="M248.003 332.422C252.882 328.469 257.923 324.58 262.213 319.97C264.074 317.976 265.94 315.812 267.215 313.387C268.463 311.014 269.539 308.234 269.98 305.581C269.995 305.527 269.988 305.469 269.96 305.42C269.932 305.372 269.886 305.336 269.832 305.321C269.778 305.306 269.72 305.313 269.671 305.341C269.622 305.369 269.587 305.415 269.572 305.469C269.102 306.794 268.655 308.154 267.98 309.393C267.319 310.554 266.583 311.671 265.776 312.737C264.129 315.003 262.477 317.205 260.53 319.23C256.32 323.609 251.407 327.233 247.221 331.635C246.717 332.165 247.462 332.863 248.008 332.42L248.003 332.422Z" fill="#1B360E"/>
<path d="M267.402 340.425C268.815 339.774 270.066 338.701 271.323 337.788C272.638 336.831 273.948 335.865 275.253 334.891C276.483 333.97 277.893 333.102 278.933 331.963C279.465 331.383 279.958 330.781 280.504 330.21C281.083 329.609 281.706 329.056 282.248 328.421C282.285 328.383 282.307 328.333 282.31 328.28C282.313 328.226 282.297 328.174 282.264 328.131C282.232 328.089 282.185 328.06 282.132 328.05C282.08 328.039 282.026 328.048 281.979 328.075C280.587 328.787 279.283 329.659 277.883 330.366C276.455 331.087 275.203 332.254 273.93 333.214C272.656 334.173 271.402 335.108 270.129 336.043C268.856 336.979 267.41 337.853 266.301 339.003C265.553 339.779 266.491 340.851 267.402 340.429V340.425Z" fill="#1B360E"/>
<path d="M264.457 359.97C265.609 359.871 266.693 359.297 267.744 358.848C268.96 358.328 270.183 357.809 271.383 357.272C273.777 356.212 276.197 355.215 278.641 354.28C283.406 352.467 288.417 351.088 292.983 348.801C293.02 348.778 293.049 348.743 293.066 348.702C293.082 348.661 293.084 348.616 293.073 348.574C293.061 348.531 293.036 348.493 293.002 348.466C292.967 348.439 292.925 348.424 292.88 348.422C287.735 348.748 282.715 350.624 277.95 352.488C275.593 353.407 273.262 354.386 270.957 355.423C269.756 355.962 268.57 356.531 267.409 357.154C266.311 357.742 265.001 358.311 264.171 359.268C263.958 359.513 264.077 360.009 264.464 359.977L264.457 359.97Z" fill="#1B360E"/>
<path d="M277.297 372.233C278.11 373.515 280.387 372.988 281.592 372.686C283.124 372.294 284.593 371.687 285.953 370.88C287.334 370.09 288.538 369.025 289.492 367.752C290.359 366.573 291.162 365.163 291.461 363.719C291.498 363.536 291.264 363.356 291.121 363.522C290.199 364.59 289.352 365.65 288.259 366.55C287.192 367.458 286.059 368.287 284.87 369.028C283.704 369.732 282.445 370.267 281.13 370.619C280.447 370.799 279.751 370.931 279.061 371.077C278.411 371.215 277.674 371.414 277.3 371.998C277.279 372.033 277.268 372.074 277.268 372.116C277.268 372.157 277.279 372.198 277.3 372.233H277.297Z" fill="#1B360E"/>
<path d="M265.479 385.658C265.952 386.404 267.162 386.243 267.929 386.247C269.305 386.247 270.653 386.092 272.024 385.964C274.715 385.712 277.417 385.518 280.123 385.585C282.557 385.66 284.979 385.972 287.353 386.517C288.522 386.777 289.646 386.97 290.778 387.387C291.973 387.827 292.952 388.603 294.063 389.195C294.1 389.216 294.145 389.223 294.187 389.214C294.229 389.205 294.267 389.182 294.294 389.147C294.32 389.113 294.333 389.07 294.331 389.027C294.329 388.984 294.311 388.943 294.281 388.912C293.513 387.988 292.422 387.354 291.428 386.7C290.409 386.03 289.298 385.307 288.164 384.848C285.673 383.838 282.991 383.521 280.319 383.432C277.352 383.331 274.384 383.594 271.432 383.89C270.91 383.942 264.826 384.63 265.479 385.658Z" fill="#1B360E"/>
<path d="M271.902 396.586C273.267 397.198 274.829 397.276 276.293 397.438C277.907 397.615 279.506 397.904 281.079 398.303C282.64 398.7 284.146 399.264 285.691 399.717C287.216 400.15 288.717 400.662 290.189 401.25C290.614 401.422 290.773 400.803 290.475 400.574C289.127 399.511 287.684 398.576 286.163 397.78C284.699 397.041 283.081 396.589 281.492 396.199C279.887 395.807 278.257 395.523 276.613 395.35C275.06 395.188 273.325 395.134 271.897 395.838C271.621 395.973 271.606 396.454 271.897 396.586H271.902Z" fill="#1B360E"/>
<g opacity="0.3">
<path d="M266.186 404.935C265.941 406.352 265.681 407.769 265.408 409.184C249.959 432.114 220.443 447.62 186.572 447.62C177.848 447.634 169.155 446.581 160.686 444.486C162.338 443.688 163.942 442.794 165.49 441.808C171.226 438.144 176.386 432.825 177.7 426.151C179.277 418.207 175.143 410.292 170.533 403.641C166.498 397.829 161.896 392.278 156.03 388.322C143.39 379.786 134.452 382.025 119.657 377.437C113.36 375.486 105.391 372.087 96.6553 365.683C99.2019 342.356 114.583 322.12 136.877 309.879C139.594 308.904 141.841 308.253 143.435 307.809C152.235 305.323 160.263 304.605 165.275 304.16C176.236 303.184 184.574 303.706 186.384 303.822C195.443 304.422 214.935 305.923 233.242 317.007C237.964 319.863 242.375 323.204 246.404 326.976C247.975 328.47 252.717 333.105 256.851 339.335C267.228 354.986 267.989 371.959 268.282 380.75C268.597 390.393 267.474 397.591 266.186 404.935Z" fill="#1B360E"/>
</g>
<path d="M260.656 428.626C249.512 446.87 219.628 423.536 233.724 404.007C246.5 386.133 261.429 388.697 263.185 401.904C263.772 410.394 262.736 419.358 260.656 428.626Z" fill="#B3DF33"/>
<path d="M249.532 437.92C249.247 437.92 248.963 437.92 248.676 437.899C241.067 437.515 233.18 431.882 229.497 424.217C226.022 416.979 226.765 409.038 231.534 402.426C238.927 392.083 247.989 387.058 255.765 389C261.216 390.358 264.986 395.048 265.848 401.544C265.848 401.6 265.861 401.657 265.864 401.707C266.436 409.923 265.591 418.919 263.275 429.21C263.212 429.497 263.102 429.772 262.95 430.023C259.829 435.142 255.087 437.92 249.532 437.92ZM252.483 393.999C248.163 393.999 242.043 396.994 235.912 405.573C231.006 412.37 232.822 418.709 234.354 421.885C237.176 427.761 243.313 432.231 248.946 432.516C252.732 432.713 255.897 431.005 258.123 427.585C260.237 418.038 261.015 409.721 260.499 402.177C259.912 397.936 257.715 395.041 254.464 394.231C253.816 394.073 253.151 393.995 252.483 393.999Z" fill="#1B360E"/>
<path d="M248.859 414.923C249.961 409.017 253.554 403.449 259.299 401.785C261.452 401.162 263.788 401.754 265.479 403.228C273.751 410.43 280.928 420.059 282 428.966C271.288 431.995 261.052 431.19 251.718 423.093C250.57 422.1 249.702 420.823 249.2 419.389C248.699 417.956 248.581 416.416 248.859 414.923Z" fill="#D4ED7A"/>
<g opacity="0.3">
<path d="M260.178 417.698C259.03 416.704 258.162 415.426 257.66 413.993C257.159 412.559 257.041 411.019 257.319 409.526C257.856 406.654 258.986 403.865 260.661 401.557C260.2 401.581 259.743 401.656 259.298 401.78C253.553 403.444 249.96 409.012 248.858 414.918C248.58 416.411 248.698 417.951 249.199 419.384C249.701 420.818 250.569 422.095 251.717 423.089C261.051 431.186 271.287 431.991 281.999 428.961C281.835 427.667 281.563 426.39 281.186 425.143C273.829 425.489 266.777 423.422 260.178 417.698Z" fill="#1B360E"/>
</g>
<path d="M271.159 433.287C263.237 433.287 256.236 430.581 249.953 425.128C248.453 423.823 247.32 422.15 246.664 420.274C246.008 418.398 245.853 416.384 246.212 414.429C247.632 406.826 252.359 400.99 258.552 399.198C261.562 398.325 264.815 399.074 267.251 401.195C271.993 405.324 283.188 416.265 284.677 428.644C284.754 429.281 284.601 429.925 284.245 430.46C283.889 430.995 283.354 431.384 282.736 431.56C278.668 432.71 274.809 433.286 271.159 433.287ZM251.507 415.418C251.318 416.448 251.401 417.511 251.747 418.5C252.094 419.489 252.692 420.37 253.483 421.057C260.733 427.348 268.857 429.255 278.895 426.979C277.208 420.148 271.689 412.208 263.709 405.259C262.675 404.358 261.27 404.021 260.047 404.374C254.997 405.838 252.325 411.042 251.507 415.418Z" fill="#1B360E"/>
<g opacity="0.3">
<path d="M239.277 399.053C236.726 402.71 235.495 407.126 235.787 411.575C235.914 413.424 236.522 415.53 238.226 416.245C239.852 416.927 241.778 415.958 242.854 414.557C243.931 413.157 244.412 411.403 245.091 409.771C246.192 407.163 247.824 404.812 249.882 402.868C251.941 400.924 254.381 399.43 257.048 398.479C258.016 398.141 259.066 397.876 260.057 398.137C261.047 398.399 261.919 399.36 261.745 400.37C256.022 401.523 252.334 407.017 249.724 412.242C249.039 413.609 248.372 415.045 248.356 416.574C248.332 418.94 249.86 421.02 251.446 422.771C254.097 425.686 257.118 428.24 260.434 430.368C258.463 435.101 252.225 436.838 247.32 435.342C242.415 433.846 238.634 429.976 235.345 426.042C233.598 423.955 231.874 421.7 231.344 419.033C230.903 416.815 231.334 414.528 231.764 412.31C232.577 408.061 233.526 403.571 236.48 400.404" fill="#1B360E"/>
</g>
<path d="M228.314 290.457C228.314 323.99 204.365 352.688 170.455 364.436C159.442 368.229 147.871 370.153 136.223 370.127C101.381 370.127 71.0669 353.392 55.4243 328.704C48.2185 317.357 44.1318 304.324 44.1318 290.461C44.1318 269.068 53.8762 249.642 69.7351 235.332C86.4851 220.196 110.088 210.776 136.223 210.776C154.128 210.776 170.832 215.194 184.974 222.846C211.002 236.925 228.314 261.943 228.314 290.457Z" fill="#B3DF33"/>
<path d="M134.421 295.323C131.788 310.587 135.66 326.685 144.052 339.719C150.641 349.964 159.894 358.333 170.455 364.437C159.442 368.231 147.871 370.155 136.223 370.129C85.3614 370.129 44.1318 334.464 44.1318 290.462C44.1318 246.46 85.3614 210.787 136.223 210.787C154.128 210.787 170.832 215.206 184.974 222.857C180.271 226.252 175.737 229.863 171.603 233.915C165.929 239.474 161.064 245.787 156.33 252.166C146.631 265.254 137.178 279.262 134.421 295.323Z" fill="#D4ED7A"/>
<g opacity="0.6">
<path d="M52.5 291.226C52.5 247.218 93.7313 211.551 144.591 211.551C146.499 211.551 148.389 211.613 150.267 211.714C145.614 211.097 140.925 210.787 136.231 210.785C85.3692 210.785 44.1396 246.45 44.1396 290.461C44.1396 332.796 82.307 367.407 130.492 369.97C86.3254 364.097 52.5 331.082 52.5 291.226Z" fill="white"/>
</g>
<g opacity="0.3">
<path d="M221.074 290.457C221.074 323.99 198.13 352.688 165.64 364.436C155.12 368.223 144.02 370.149 132.839 370.127C99.4573 370.127 70.4114 353.392 55.4307 328.704C69.1869 342.137 85.2653 352.437 103.528 357.079C113.035 359.497 123.155 360.281 132.536 357.38C141.918 354.478 150.459 347.46 153.741 337.849C156.647 329.343 155.261 319.96 153.38 311.144C151.722 303.386 149.265 292.64 141.601 283.624C129.72 269.65 116.955 273.732 96.7351 261.587C89.3423 257.147 79.0548 249.39 69.1413 235.335C85.1986 220.2 107.805 210.779 132.845 210.779C150.002 210.779 166.007 215.197 179.557 222.849C204.487 236.925 221.074 261.943 221.074 290.457Z" fill="#1B360E"/>
</g>
<path d="M136.223 373.583C83.5332 373.583 40.666 336.291 40.666 290.452C40.666 244.614 83.5332 207.313 136.223 207.313C154.095 207.313 171.523 211.631 186.623 219.801C214.898 235.088 231.778 261.501 231.778 290.452C231.778 307.474 225.911 323.837 214.81 337.775C204.039 351.296 189.093 361.647 171.59 367.709C160.345 371.611 148.447 373.583 136.223 373.583ZM136.223 214.241C87.3532 214.241 47.5937 248.429 47.5937 290.452C47.5937 332.476 87.3516 366.655 136.223 366.655C147.67 366.655 158.804 364.805 169.32 361.157C203.054 349.471 224.85 321.718 224.85 290.452C224.85 264.086 209.326 239.953 183.326 225.891C169.237 218.279 152.948 214.246 136.223 214.246V214.241Z" fill="#1B360E"/>
<path d="M216.423 300.797C216.81 301.74 218.31 301.821 219.203 301.986C220.583 302.242 221.979 302.446 223.376 302.602C226.272 302.927 229.194 302.991 232.089 302.615C234.744 302.272 237.418 301.498 239.955 300.663C241.22 300.244 242.469 299.782 243.71 299.299C244.829 298.865 246.178 298.444 247.105 297.673C247.137 297.64 247.159 297.599 247.168 297.554C247.176 297.509 247.172 297.462 247.155 297.42C247.137 297.377 247.108 297.341 247.071 297.315C247.033 297.289 246.988 297.274 246.943 297.273C245.773 297.354 244.546 297.956 243.456 298.367C242.21 298.837 240.958 299.286 239.691 299.693C237.166 300.522 234.552 301.055 231.903 301.28C229.192 301.501 226.47 301.317 223.772 300.997C222.39 300.834 221.008 300.624 219.635 300.421C218.767 300.294 217.144 299.819 216.487 300.563C216.456 300.593 216.433 300.632 216.422 300.674C216.411 300.717 216.411 300.761 216.423 300.803V300.797Z" fill="#1B360E"/>
<path d="M226.488 282.863C226.925 283.712 228.735 283.543 229.548 283.552C231.004 283.567 232.461 283.533 233.913 283.439C236.678 283.26 239.442 282.847 242.103 282.045C244.601 281.292 247.05 280.113 249.356 278.905C250.535 278.288 251.691 277.628 252.836 276.953C253.927 276.303 255.352 275.616 256.173 274.634C256.207 274.597 256.229 274.549 256.234 274.499C256.24 274.448 256.229 274.397 256.203 274.353C256.178 274.31 256.139 274.275 256.092 274.255C256.045 274.235 255.993 274.231 255.944 274.242C254.748 274.517 253.556 275.41 252.503 276.031C251.301 276.732 250.086 277.412 248.847 278.044C246.366 279.326 243.734 280.291 241.012 280.916C238.187 281.567 235.287 281.755 232.393 281.855C231.006 281.902 229.596 281.866 228.215 282.007C227.89 282.04 226.088 282.105 226.483 282.874L226.488 282.863Z" fill="#1B360E"/>
<path d="M213.586 271.058C214.181 271.417 214.724 271.105 215.356 270.895C216.049 270.66 216.724 270.375 217.396 270.082C218.975 269.396 220.555 268.708 222.139 268.03C225.221 266.713 228.319 265.453 231.508 264.394C234.588 263.367 237.741 262.571 240.94 262.013C242.482 261.745 244.03 261.512 245.583 261.302C246.923 261.12 248.551 261.073 249.788 260.519C249.827 260.495 249.859 260.46 249.879 260.419C249.898 260.378 249.906 260.332 249.9 260.287C249.894 260.241 249.875 260.199 249.846 260.164C249.816 260.129 249.777 260.104 249.733 260.091C248.398 259.842 246.793 260.182 245.455 260.354C243.978 260.543 242.503 260.748 241.034 260.987C237.728 261.524 234.38 262.177 231.155 263.091C227.939 264.026 224.78 265.145 221.692 266.443C220.157 267.077 218.637 267.744 217.123 268.427C216.337 268.781 215.552 269.138 214.804 269.565C214.252 269.879 213.602 270.118 213.478 270.782C213.465 270.834 213.469 270.89 213.49 270.94C213.51 270.99 213.546 271.033 213.592 271.061L213.586 271.058Z" fill="#1B360E"/>
<path d="M219.806 259.944C220.722 260.237 221.943 258.874 222.571 258.318C223.628 257.386 224.67 256.438 225.722 255.5C227.869 253.589 230.051 251.706 232.379 250.016C234.643 248.357 237.045 246.894 239.558 245.644C240.762 245.047 241.983 244.486 243.211 243.942C244.362 243.433 245.827 242.978 246.777 242.154C246.809 242.121 246.83 242.079 246.839 242.034C246.848 241.989 246.843 241.943 246.826 241.9C246.809 241.858 246.78 241.821 246.742 241.795C246.705 241.769 246.66 241.754 246.614 241.752C245.422 241.837 244.152 242.502 243.06 242.97C241.711 243.547 240.373 244.144 239.054 244.782C236.272 246.128 233.481 247.605 230.934 249.358C228.51 251.047 226.186 252.877 223.974 254.838C222.826 255.845 221.639 256.866 220.611 257.996C220.465 258.159 218.933 259.668 219.811 259.948L219.806 259.944Z" fill="#1B360E"/>
<path d="M53.7421 252.321C50.9579 250.868 48.4277 248.973 46.2501 246.71C45.1621 245.583 44.1506 244.367 43.1163 243.193C42.6171 242.625 42.2284 241.975 41.778 241.371C41.5536 241.072 41.36 240.75 41.1275 240.457C40.8722 240.132 40.5518 239.882 40.2949 239.56C40.142 239.37 39.8753 239.581 39.9176 239.779C40.007 240.194 40.0119 240.625 40.142 241.032C40.2575 241.391 40.4347 241.742 40.5811 242.089C40.8982 242.845 41.3551 243.534 41.7357 244.258C42.5228 245.756 43.5538 247.023 44.7231 248.236C47.0271 250.633 49.7147 252.63 52.6753 254.144C53.8819 254.762 54.952 252.95 53.7421 252.321Z" fill="#1B360E"/>
<path d="M48.8063 263.15C47.4289 262.751 45.9571 262.618 44.5488 262.348C43.1861 262.086 41.8298 261.789 40.4833 261.426C37.7594 260.688 35.107 259.686 32.7327 258.139C30.1226 256.438 28.0736 254.085 25.6977 252.103C24.4357 251.051 23.0762 250.138 21.8061 249.102C20.5361 248.067 19.2481 247.005 17.9032 246.053C17.7406 245.943 17.6056 246.172 17.7113 246.301C18.8253 247.662 20.0661 248.93 21.2532 250.226C22.3997 251.48 23.434 252.818 24.6488 254.01C26.8962 256.219 29.2526 258.505 31.931 260.19C34.328 261.694 37.0146 262.732 39.7369 263.467C41.1891 263.859 42.6641 264.171 44.1407 264.443C45.5799 264.709 47.0679 265.048 48.5315 265.093C49.66 265.129 49.8519 263.467 48.7949 263.153L48.8063 263.15Z" fill="#1B360E"/>
<path d="M47.8173 314.457C46.8871 313.759 45.0853 314.655 44.1437 315.026C42.8816 315.517 41.6598 316.106 40.4896 316.787C35.7826 319.581 31.9926 323.687 29.5842 328.602C29.015 329.783 28.5239 331.071 28.4116 332.386C28.3612 332.991 28.2929 333.601 28.262 334.209C28.2246 334.925 28.3336 335.65 28.2539 336.357C28.2539 336.398 28.3173 336.406 28.3255 336.367C28.5483 335.175 29.2849 333.827 29.9061 332.789C30.5469 331.719 31.0185 330.542 31.5746 329.428C33.8013 324.946 37.2747 321.203 41.5775 318.648C42.6655 317.997 43.8018 317.431 44.9763 316.955C45.8691 316.6 47.6401 316.352 48.0662 315.394C48.1505 315.235 48.1721 315.05 48.1266 314.877C48.0811 314.703 47.9719 314.552 47.8206 314.455L47.8173 314.457Z" fill="#1B360E"/>
<path d="M56.0298 330.669C55.3012 330.851 54.6719 331.414 54.0897 331.864C53.4555 332.352 52.8473 332.882 52.2586 333.43C51.0763 334.531 49.9688 335.707 48.7963 336.819C47.697 337.86 46.4708 338.693 45.3162 339.659C44.7064 340.168 44.2494 340.706 43.5274 341.08C42.7631 341.477 41.9386 341.553 41.1417 341.831C41.0051 341.878 40.9791 342.1 41.1417 342.135C42.5679 342.451 43.9778 341.701 45.3699 341.6C46.9164 341.488 48.3573 340.112 49.4582 339.138C50.6925 338.045 51.8211 336.839 52.9969 335.686C54.119 334.583 55.3793 333.227 56.8364 332.575C57.9422 332.087 57.1405 330.392 56.033 330.669H56.0298Z" fill="#1B360E"/>
<path d="M64.0905 340.694C63.6661 340.839 63.3392 340.751 62.9326 341.109C62.4773 341.508 62.1764 342.143 61.8447 342.649C61.1617 343.687 60.477 344.723 59.8086 345.77C58.3808 348.012 57.0441 350.323 55.9838 352.763C54.9614 355.058 54.262 357.483 53.9055 359.97C53.7429 361.219 53.9234 362.31 54.1413 363.533C54.3494 364.697 54.5543 365.972 55.1869 366.987C55.2025 367.023 55.2304 367.052 55.2654 367.068C55.3004 367.085 55.3403 367.089 55.3778 367.079C55.4154 367.069 55.4481 367.046 55.4701 367.014C55.492 366.982 55.5018 366.943 55.4976 366.904C55.5593 365.725 55.3479 364.535 55.4976 363.351C55.6439 362.131 55.9187 360.897 56.1204 359.682C56.5321 357.311 57.2692 355.008 58.3109 352.839C59.3403 350.653 60.5876 348.578 61.8691 346.534C62.5309 345.484 63.2075 344.443 63.8807 343.4C64.1637 342.961 64.5052 342.547 64.6174 342.033C64.7133 341.604 64.5133 341.195 64.4922 340.99C64.4915 340.943 64.48 340.896 64.4586 340.853C64.4371 340.811 64.4062 340.774 64.3683 340.745C64.3304 340.716 64.2864 340.696 64.2397 340.687C64.1929 340.678 64.1447 340.679 64.0986 340.691L64.0905 340.694Z" fill="#1B360E"/>
<path d="M78.4387 351.906L77.9866 351.758C77.8076 351.707 77.6181 351.705 77.4381 351.752C77.2581 351.8 77.0943 351.895 76.9637 352.028C74.3106 354.855 72.097 358.065 70.3971 361.549C69.58 363.233 68.8812 364.972 68.3057 366.753C67.9805 367.747 67.9317 368.573 67.9187 369.604C67.9057 370.58 67.8016 371.565 67.8764 372.546C67.8862 372.671 68.0829 372.764 68.1447 372.619C68.4553 371.887 68.7009 371.137 69.0196 370.407C69.4099 369.514 69.9238 368.734 70.2279 367.805C70.784 366.038 71.4616 364.311 72.2558 362.637C73.8665 359.312 75.9532 356.239 78.4501 353.516C78.6892 353.255 78.8502 352.849 78.7201 352.493C78.6648 352.343 78.6339 351.971 78.4387 351.907V351.906Z" fill="#1B360E"/>
<path d="M87.1929 357.768C85.9732 357.017 84.8837 358.219 84.1259 359.069C83.2054 360.107 82.3531 361.203 81.5743 362.351C78.5005 366.924 76.563 372.165 75.9232 377.637C75.598 380.345 75.7947 383.222 76.8567 385.768C76.9185 385.918 77.1998 385.983 77.2307 385.768C77.3933 384.588 77.4209 383.412 77.6177 382.236C77.8112 381.098 77.8714 379.924 77.9706 378.768C78.4039 373.933 79.9137 369.258 82.3891 365.083C82.9962 364.062 83.6579 363.076 84.3714 362.126C85.0463 361.229 85.8984 359.814 86.9734 359.409C87.6824 359.144 87.8792 358.199 87.1864 357.773L87.1929 357.768Z" fill="#1B360E"/>
<g opacity="0.3">
<path d="M62.1979 201.529L62.076 207.048C62.0283 205.203 62.0689 203.363 62.1979 201.529Z" fill="#4D1348"/>
</g>
<g opacity="0.3">
<path d="M61.8984 215.394L62.0757 207.04C62.1423 209.606 62.3764 212.165 62.7766 214.7C62.4839 214.924 62.1912 215.163 61.8984 215.394Z" fill="#4D1348"/>
</g>
<path d="M49.9454 318.368C23.2331 315.984 26.1635 267.485 48.4021 266.402C42.2441 284.164 42.7586 301.486 49.9454 318.368Z" fill="#B3DF33"/>
<path d="M49.9475 321.056C49.8671 321.057 49.7868 321.053 49.7068 321.045C34.4203 319.68 27.852 305.271 28.1285 291.591C28.3984 278.207 35.4042 264.332 48.2725 263.704C48.713 263.683 49.152 263.77 49.551 263.958C49.9501 264.146 50.2969 264.429 50.5611 264.782C50.8253 265.135 50.9989 265.548 51.0665 265.984C51.1342 266.42 51.0939 266.865 50.9492 267.282C45.0428 284.309 45.5404 301.142 52.4259 317.309C52.5991 317.719 52.6684 318.165 52.6275 318.608C52.5866 319.051 52.4368 319.477 52.1915 319.847C51.9461 320.218 51.6129 320.523 51.2213 320.734C50.8298 320.945 50.3922 321.055 49.9475 321.056ZM44.4297 270.027C37.4744 273.008 33.6967 282.489 33.5161 291.7C33.3226 301.309 37.0434 311.343 45.6104 314.629C40.5073 300.124 40.1105 285.159 44.4297 270.034V270.027Z" fill="#1B360E"/>
<path d="M31.4802 299.447C20.6702 301.844 11.437 298.971 3.7808 290.828C3.1735 290.181 2.82972 289.33 2.81678 288.443C2.80385 287.556 3.1227 286.695 3.71087 286.031C11.655 276.995 21.8628 273.346 34.7245 275.99C30.981 283.802 29.8995 291.621 31.4802 299.447Z" fill="#D4ED7A"/>
<g opacity="0.6">
<path d="M32.6189 281.23C33.2044 279.438 33.9074 277.687 34.7232 275.987C21.8615 273.336 11.6537 276.986 3.71283 286.028C3.16155 286.654 2.84809 287.454 2.82728 288.288C2.80647 289.123 3.07964 289.938 3.59899 290.591C11.1707 282.482 20.7394 279.111 32.6189 281.23Z" fill="white"/>
<path d="M30.9259 289.288C30.0598 292.705 29.7122 296.233 29.8949 299.753C30.4202 299.66 30.9471 299.566 31.4805 299.447C30.8005 296.106 30.6137 292.683 30.9259 289.288Z" fill="white"/>
</g>
<path d="M24.3344 302.961C15.8032 302.961 8.2543 299.519 1.81771 292.671C0.747192 291.537 0.14006 290.044 0.115979 288.485C0.0918982 286.926 0.652607 285.414 1.68761 284.248C10.4887 274.237 21.7877 270.569 35.2675 273.353C35.6683 273.435 36.045 273.608 36.3691 273.858C36.6932 274.108 36.9561 274.428 37.1379 274.795C37.3197 275.161 37.4157 275.565 37.4184 275.974C37.4212 276.383 37.3307 276.787 37.1539 277.156C33.6884 284.388 32.6688 291.709 34.121 298.92C34.2608 299.612 34.1236 300.331 33.7389 300.922C33.3542 301.514 32.7527 301.931 32.0638 302.083C29.527 302.656 26.9351 302.951 24.3344 302.961ZM26.8192 277.833C18.5483 277.833 11.6043 281.129 5.73528 287.807C5.58942 287.968 5.50933 288.178 5.51084 288.395C5.51234 288.613 5.59533 288.822 5.74341 288.981C12.1654 295.811 19.5972 298.538 28.3934 297.274C27.5803 290.875 28.4064 284.442 30.8799 278.085C29.5326 277.92 28.1766 277.836 26.8192 277.833Z" fill="#1B360E"/>
<g opacity="0.3">
<path d="M35.0171 275.634H34.8887C34.8743 275.636 34.8606 275.641 34.8496 275.651C34.8398 275.661 34.8346 275.675 34.835 275.69C34.835 275.704 34.8406 275.717 34.8507 275.727C34.8608 275.738 34.8744 275.743 34.8887 275.743L35.0171 275.753C35.0337 275.752 35.0494 275.745 35.061 275.733C35.0671 275.728 35.0719 275.721 35.0752 275.713C35.0785 275.705 35.0802 275.697 35.0802 275.689C35.0802 275.68 35.0785 275.672 35.0752 275.664C35.0719 275.657 35.0671 275.65 35.061 275.644C35.0493 275.633 35.0335 275.626 35.0171 275.626V275.634Z" fill="#4D1348"/>
</g>
<g opacity="0.3">
<path d="M33.3937 278.783C32.7042 282.905 32.026 287.213 33.2928 291.194C33.5888 292.124 34.0084 293.049 34.7288 293.708C36.5274 295.351 39.5896 294.668 41.2825 292.916C42.9754 291.165 43.6535 288.688 44.2666 286.336C43.7787 297.011 46.9564 307.469 49.999 317.711C50.108 318.082 50.2007 318.534 49.9307 318.812C49.6364 319.113 49.1339 318.986 48.7387 318.836C43.5169 316.874 37.882 314.568 35.1435 309.708C34.4556 308.487 33.9856 307.157 33.5482 305.825C32.0455 301.257 30.8519 296.5 31.0535 291.695C31.1804 288.693 31.8488 285.743 32.5171 282.812C32.7302 281.872 32.9676 280.885 33.6197 280.175" fill="#1B360E"/>
</g>
<g opacity="0.3">
<path d="M7.80666 282.125C6.01782 283.622 5.8243 286.662 7.41149 288.373C8.82956 289.903 11.1111 290.2 13.1943 290.293C19.8879 290.592 27.1571 289.48 31.9235 284.779C30.9413 287.115 30.4343 289.623 30.432 292.158C30.4298 294.692 30.9324 297.202 31.9105 299.54L23.0314 299.387C21.2425 299.356 19.3658 299.309 17.7624 298.496C16.8745 298.044 16.1118 297.377 15.2304 296.91C13.5781 296.032 11.6348 295.913 9.86384 295.3C7.80122 294.575 6.03136 293.196 4.82255 291.375C4.15743 290.365 3.67119 289.202 3.65655 287.994C3.64192 286.785 4.15905 285.535 5.15918 284.857" fill="#1B360E"/>
</g>
<path d="M179.783 360.666C158.57 363.327 158.185 325.415 182.242 324.258C204.181 323.104 211.484 336.375 202.254 345.983C195.983 351.74 188.329 356.518 179.783 360.666Z" fill="#B3DF33"/>
<path d="M177.703 363.501C172.499 363.501 168.073 361.274 165.067 357.09C160.624 350.902 160.106 341.228 163.807 333.565C167.3 326.337 173.971 321.967 182.112 321.577C194.809 320.905 204.391 324.862 207.718 332.147C210.055 337.255 208.738 343.127 204.197 347.855C204.158 347.895 204.118 347.934 204.077 347.972C198.01 353.542 190.448 358.489 180.96 363.096C180.695 363.224 180.41 363.309 180.118 363.346C179.317 363.448 178.51 363.499 177.703 363.501ZM184.909 326.89C184.097 326.89 183.255 326.912 182.383 326.958C174.01 327.36 170.187 332.739 168.66 335.91C165.823 341.779 166.154 349.364 169.445 353.947C171.655 357.025 174.956 358.435 179.022 358.048C187.803 353.748 194.796 349.172 200.368 344.062C203.319 340.958 204.212 337.436 202.818 334.388C201.111 330.651 195.525 326.881 184.909 326.881V326.89Z" fill="#1B360E"/>
<path d="M183.145 342.901C188.449 340.082 195.044 339.418 199.926 342.874C201.757 344.175 202.749 346.364 202.651 348.605C202.178 359.562 199.121 371.176 192.827 377.568C183.781 371.082 178.029 362.577 178.539 350.231C178.6 348.713 179.058 347.238 179.866 345.953C180.674 344.667 181.804 343.615 183.145 342.901Z" fill="#D4ED7A"/>
<g opacity="0.3">
<path d="M188.035 353.482C188.096 351.964 188.553 350.489 189.361 349.203C190.169 347.917 191.299 346.865 192.64 346.152C195.219 344.781 198.104 343.926 200.95 343.801C200.643 343.455 200.3 343.144 199.926 342.874C195.047 339.418 188.449 340.082 183.145 342.901C181.803 343.614 180.671 344.666 179.862 345.951C179.053 347.237 178.594 348.713 178.533 350.231C178.02 362.577 183.774 371.082 192.821 377.568C193.729 376.632 194.557 375.621 195.294 374.544C190.451 369.012 187.672 362.209 188.035 353.482Z" fill="#1B360E"/>
</g>
<path d="M192.826 380.262C192.263 380.262 191.714 380.086 191.256 379.758C180.383 371.962 175.344 362.266 175.848 350.118C175.934 348.133 176.535 346.204 177.593 344.522C178.651 342.839 180.129 341.461 181.881 340.524C188.711 336.894 196.22 336.946 201.482 340.675C204.04 342.485 205.482 345.493 205.344 348.723C205.071 355.005 203.495 370.576 194.746 379.459C194.496 379.714 194.197 379.916 193.867 380.054C193.537 380.192 193.183 380.263 192.826 380.262ZM192.193 343.22C189.412 343.22 186.622 344.101 184.403 345.28C183.48 345.776 182.701 346.503 182.144 347.391C181.586 348.278 181.27 349.296 181.226 350.343C180.827 359.938 184.402 367.474 192.447 373.904C196.735 368.326 199.504 359.059 199.961 348.487C200.02 347.118 199.412 345.809 198.371 345.072C196.498 343.749 194.351 343.22 192.193 343.22Z" fill="#1B360E"/>
<g opacity="0.3">
<path d="M189.58 325.517C185.129 325.802 180.908 327.593 177.611 330.596C176.245 331.848 174.977 333.637 175.484 335.419C175.972 337.118 177.923 338.021 179.689 337.985C181.455 337.949 183.126 337.236 184.825 336.749C187.551 335.985 190.406 335.795 193.209 336.193C196.012 336.59 198.702 337.566 201.108 339.058C201.977 339.603 202.839 340.259 203.252 341.199C203.665 342.139 203.457 343.417 202.557 343.91C198.088 340.153 191.499 340.696 185.783 341.909C184.29 342.235 182.748 342.602 181.545 343.535C179.68 344.991 179.005 347.484 178.629 349.819C178.004 353.709 177.891 357.664 178.294 361.583C173.363 362.993 168.117 359.199 166.229 354.428C164.341 349.657 165.009 344.292 166.034 339.267C166.577 336.601 167.265 333.846 169.02 331.768C170.483 330.043 172.536 328.953 174.537 327.904C178.372 325.899 182.469 323.839 186.783 324.164" fill="#1B360E"/>
</g>
<path d="M42.8492 132.642C112.328 3.05686 287.243 124.727 219.294 229.381C211.459 241.446 200.136 250.906 186.796 256.294C97.6626 292.287 -18.2122 197.886 38.0518 139.318C39.9482 137.322 41.5623 135.076 42.8492 132.642Z" fill="#B3DF33"/>
<g opacity="0.6">
<path d="M45.3731 142.335C47.2696 140.341 48.8852 138.098 50.1754 135.667C79.7433 80.5186 128.405 70.8833 169.319 86.0673C127.037 66.8633 74.2044 74.1699 42.8492 132.649C41.5602 135.08 39.9445 137.323 38.047 139.316C0.494317 178.406 39.6244 233.455 96.3048 255.048C43.677 231.694 9.4613 179.718 45.3731 142.335Z" fill="white"/>
</g>
<g opacity="0.3">
<path d="M146.05 80.9366C194.786 100.466 230.07 158.182 195.267 211.034C188.12 221.909 177.809 230.331 165.726 235.163C117.22 254.482 60.0065 231.9 32.8633 199.395C55.1084 241.423 124.618 275.52 182.404 252.013C195.189 246.81 206.043 237.678 213.553 226.03C253.886 163.475 204.965 94.6099 146.05 80.9366Z" fill="#1B360E"/>
</g>
<path d="M144.647 267.692C129.556 267.692 113.999 265 98.6983 259.619C70.7273 249.777 46.5487 232.117 32.3794 211.158C14.491 184.699 15.6407 157.639 35.5489 136.916C37.2275 135.148 38.6566 133.158 39.7966 131.003C59.7454 93.7951 90.6371 73.2332 126.778 73.1096H127.115C166.52 73.1096 206.242 97.459 226.054 133.79C234.153 148.644 238.334 164.869 238.142 180.71C237.929 198.288 232.564 215.298 222.194 231.269C213.866 244.094 202.072 253.859 188.087 259.507C174.573 264.961 159.846 267.692 144.647 267.692ZM127.118 80.0373H126.803C93.3237 80.1543 64.5932 99.4186 45.903 134.28C44.4638 136.991 42.6616 139.494 40.5463 141.718C16.6652 166.575 28.7741 193.465 38.1183 207.281C58.5616 237.511 101.146 260.862 144.35 260.865C158.241 260.865 172.187 258.455 185.493 253.08C198.153 247.969 208.834 239.121 216.391 227.493C234.93 198.953 236.199 166.851 219.979 137.105C201.341 102.939 164.059 80.0373 127.118 80.0373Z" fill="#1B360E"/>
<path d="M179.399 178.004C184.365 168.091 182.991 157.351 176.33 154.014C169.669 150.677 160.243 156.007 155.278 165.919C150.312 175.832 151.686 186.572 158.347 189.909C165.008 193.246 174.433 187.916 179.399 178.004Z" fill="#1B360E"/>
<path d="M177.336 172.534C178.783 168.713 178.141 164.927 175.901 164.078C173.661 163.23 170.672 165.64 169.224 169.461C167.776 173.282 168.418 177.068 170.658 177.917C172.898 178.766 175.888 176.356 177.336 172.534Z" fill="white"/>
<g opacity="0.35">
<path d="M161.507 183.794C163.258 183.664 164.497 181.136 164.275 178.148C164.053 175.16 162.454 172.843 160.703 172.974C158.952 173.104 157.712 175.631 157.934 178.619C158.156 181.607 159.756 183.924 161.507 183.794Z" fill="white"/>
</g>
<path d="M104.262 147.234C108.857 138.062 107.586 128.124 101.423 125.036C95.2599 121.949 86.5389 126.881 81.9439 136.053C77.349 145.225 78.6202 155.163 84.7832 158.251C90.9463 161.338 99.6673 156.406 104.262 147.234Z" fill="#1B360E"/>
<path d="M102.361 142.183C103.701 138.646 103.107 135.142 101.034 134.357C98.9614 133.571 96.1948 135.802 94.8549 139.339C93.515 142.875 94.1091 146.379 96.1819 147.164C98.2547 147.95 101.021 145.719 102.361 142.183Z" fill="white"/>
<g opacity="0.35">
<path d="M87.7108 152.597C89.331 152.477 90.478 150.138 90.2726 147.374C90.0672 144.61 88.5872 142.467 86.9669 142.588C85.3467 142.708 84.1997 145.046 84.4051 147.81C84.6105 150.574 86.0905 152.717 87.7108 152.597Z" fill="white"/>
</g>
<path d="M112.126 168.694C115.846 172.668 123.543 173.826 130.856 171.784C123.929 209.751 92.7524 206.671 112.126 168.694Z" fill="#1B360E"/>
<path d="M112.407 200.688C111.245 200.703 110.095 200.448 109.047 199.944C108 199.441 107.083 198.701 106.369 197.784C102.077 192.395 103.588 181.196 110.41 167.821C110.55 167.545 110.755 167.307 111.006 167.128C111.258 166.948 111.549 166.831 111.855 166.788C112.161 166.745 112.473 166.776 112.765 166.879C113.056 166.982 113.318 167.154 113.529 167.38C116.697 170.761 123.612 171.81 130.339 169.93C130.654 169.842 130.985 169.836 131.303 169.911C131.62 169.987 131.914 170.142 132.155 170.362C132.396 170.582 132.577 170.86 132.681 171.169C132.786 171.478 132.81 171.809 132.751 172.13C129.4 190.49 120.94 198.829 114.712 200.394C113.958 200.586 113.184 200.685 112.407 200.688ZM112.767 171.742C106.667 184.589 107.059 192.468 109.381 195.382C110.426 196.696 111.906 197.125 113.772 196.655C118.774 195.4 125.256 187.903 128.372 174.304C122.395 175.321 116.635 174.371 112.767 171.746V171.742Z" fill="#1B360E"/>
<path d="M131.348 173.644C120.228 176.298 105.058 171.278 107.639 157.462C107.722 156.933 108.527 156.922 108.615 157.445C109.599 162.509 111.401 166.621 116.095 168.639C120.533 170.615 125.861 170.667 130.658 169.879C133.08 169.575 133.719 173.072 131.344 173.644H131.348Z" fill="#1B360E"/>
<path d="M107.205 195.569C107.66 186.163 118.364 177.098 128.112 181.985C124.635 194.034 112.183 204.554 107.205 195.569Z" fill="#FF67A0"/>
<g opacity="0.3">
<path d="M114.558 183.153L114.636 183.138C118.84 182.366 122.011 186.989 119.886 190.697C117.934 194.092 115.412 197.015 112.809 198.917C118.474 198.517 125.612 190.645 128.111 181.98C123.394 179.621 118.453 180.528 114.558 183.153Z" fill="#4D1348"/>
</g>
<path d="M112.375 200.091C109.799 200.091 107.626 198.708 106.195 196.128C106.09 195.941 106.04 195.727 106.05 195.512C106.315 190.032 109.771 184.569 114.856 181.598C119.34 178.978 124.23 178.749 128.629 180.948C128.869 181.069 129.06 181.27 129.168 181.517C129.275 181.764 129.294 182.04 129.219 182.299C126.645 191.224 119.317 199.347 113.222 200.036C112.941 200.07 112.658 200.089 112.375 200.091ZM108.379 195.292C109.517 197.166 111.018 197.961 112.963 197.748C117.933 197.185 124.184 190.235 126.708 182.624C123.267 181.229 119.509 181.564 116.024 183.6C111.768 186.08 108.73 190.747 108.379 195.292Z" fill="#1B360E"/>
<path d="M157.571 252.848C157.532 254.77 158.127 256.817 158.474 258.702C158.775 260.467 159.21 262.207 159.775 263.906C160.898 267.158 162.741 270.479 165.466 272.644C165.605 272.753 165.858 272.61 165.736 272.436C165.249 271.725 164.639 271.082 164.24 270.31C163.842 269.538 163.427 268.739 163.066 267.944C162.347 266.397 161.941 264.701 161.562 263.042C161.19 261.416 160.868 259.774 160.554 258.135C160.207 256.336 160.082 254.306 159.415 252.605C159.043 251.661 157.596 251.732 157.573 252.854L157.571 252.848Z" fill="#1B360E"/>
<path d="M172.366 252.861L172.328 252.877C172.203 252.916 172.092 252.993 172.013 253.098C171.933 253.202 171.887 253.329 171.883 253.461C171.826 255.412 172.27 257.377 172.746 259.26C173.204 261.145 173.901 262.963 174.818 264.672C175.742 266.289 176.785 267.835 177.939 269.297C178.944 270.608 180.118 272.492 181.595 273.304C181.757 273.395 182.013 273.24 181.939 273.039C181.365 271.479 179.79 270.112 178.804 268.791C177.737 267.41 176.829 265.911 176.1 264.325C175.355 262.61 174.775 260.828 174.366 259.003C173.924 257.108 173.729 255.136 173.075 253.3C173.036 253.174 172.958 253.063 172.853 252.984C172.748 252.904 172.621 252.859 172.489 252.854C172.449 252.847 172.407 252.847 172.366 252.854V252.861Z" fill="#1B360E"/>
<path d="M183.145 245.795C184.223 247.805 185.955 249.485 187.25 251.378C188.606 253.336 189.823 255.387 190.892 257.517C191.934 259.664 192.773 261.903 193.398 264.207C193.696 265.331 193.93 266.471 194.101 267.622C194.263 268.655 194.169 269.993 194.675 270.925C194.697 270.961 194.729 270.99 194.767 271.008C194.805 271.026 194.848 271.033 194.889 271.027C194.931 271.022 194.971 271.004 195.003 270.977C195.035 270.949 195.058 270.913 195.07 270.873C195.436 269.905 195.083 268.563 194.945 267.56C194.782 266.349 194.533 265.158 194.286 263.961C193.764 261.525 193.032 259.139 192.099 256.829C191.236 254.594 190.132 252.461 188.807 250.465C187.506 248.514 185.963 246.226 183.904 245.035C183.417 244.752 182.886 245.313 183.145 245.795Z" fill="#1B360E"/>
<path d="M198.337 242.456C198.583 243.246 199.113 243.643 199.697 244.201C200.311 244.79 200.906 245.395 201.472 246.031C202.697 247.402 203.792 248.883 204.744 250.455C206.619 253.566 207.593 256.995 208.877 260.361C208.89 260.4 208.916 260.433 208.951 260.454C208.986 260.476 209.028 260.485 209.068 260.479C209.109 260.474 209.147 260.454 209.175 260.424C209.202 260.394 209.219 260.355 209.221 260.314C209.334 256.601 207.707 252.96 205.816 249.829C204.866 248.243 203.762 246.753 202.521 245.382C201.888 244.681 201.217 244.015 200.511 243.386C199.872 242.822 199.36 242.329 198.485 242.263C198.462 242.264 198.44 242.271 198.419 242.282C198.399 242.293 198.381 242.308 198.367 242.326C198.353 242.344 198.343 242.365 198.338 242.388C198.333 242.41 198.333 242.434 198.337 242.456Z" fill="#1B360E"/>
<path d="M202.548 228.235C203.106 229.022 204.155 229.35 204.988 229.778C205.978 230.289 206.949 230.834 207.887 231.437C209.835 232.691 211.647 234.144 213.293 235.774C214.913 237.367 216.373 239.115 217.651 240.994C218.274 241.919 218.817 242.89 219.381 243.851C219.663 244.33 219.96 244.801 220.228 245.286C220.463 245.707 220.58 246.122 220.983 246.395C221.008 246.409 221.036 246.418 221.065 246.42C221.094 246.422 221.123 246.417 221.15 246.406C221.177 246.395 221.201 246.378 221.22 246.356C221.239 246.335 221.253 246.309 221.261 246.281C221.424 245.424 220.723 244.216 220.37 243.435C219.856 242.342 219.257 241.291 218.581 240.29C217.315 238.335 215.843 236.522 214.19 234.881C212.532 233.243 210.709 231.781 208.749 230.52C207.736 229.862 206.685 229.265 205.602 228.731C204.732 228.308 203.688 227.7 202.693 227.893C202.659 227.903 202.628 227.92 202.602 227.944C202.576 227.967 202.555 227.996 202.542 228.029C202.528 228.061 202.523 228.097 202.525 228.132C202.527 228.167 202.537 228.201 202.555 228.232L202.548 228.235Z" fill="#1B360E"/>
<path d="M215.317 220.27C216.142 220.795 217.196 220.892 218.127 221.123C219.136 221.373 220.129 221.681 221.102 222.045C223.022 222.781 224.844 223.753 226.525 224.937C228.206 226.128 229.745 227.506 231.113 229.046C231.847 229.84 232.53 230.68 233.157 231.56C233.7 232.343 234.12 233.26 234.759 233.969C234.881 234.104 235.169 234.006 235.144 233.806C235.016 232.831 234.484 231.904 234.025 231.042C233.499 230.042 232.894 229.086 232.217 228.181C230.891 226.47 229.331 224.953 227.582 223.676C225.81 222.368 223.869 221.305 221.812 220.517C220.756 220.105 219.668 219.779 218.56 219.541C217.568 219.33 216.412 219.053 215.426 219.421C215.341 219.447 215.265 219.497 215.208 219.566C215.15 219.634 215.113 219.717 215.102 219.806C215.09 219.894 215.104 219.984 215.142 220.065C215.18 220.146 215.24 220.214 215.316 220.261L215.317 220.27Z" fill="#1B360E"/>
<path d="M213.746 204.762C214.138 205.705 215.117 205.554 215.997 205.547C217.451 205.517 218.903 205.681 220.314 206.035C222.905 206.709 225.447 207.777 227.881 208.878C230.194 209.922 232.478 210.992 234.597 212.392C236.676 213.77 238.338 215.565 240.333 217.032C240.496 217.152 240.644 216.928 240.58 216.785C239.632 214.609 237.541 212.903 235.685 211.498C233.629 209.932 231.41 208.593 229.067 207.504C226.724 206.405 224.316 205.454 221.854 204.658C220.492 204.23 219.077 203.91 217.642 203.882C216.384 203.858 215.177 204.25 213.941 204.422C213.906 204.431 213.872 204.448 213.843 204.47C213.814 204.493 213.79 204.521 213.771 204.553C213.753 204.585 213.742 204.62 213.737 204.656C213.733 204.693 213.736 204.73 213.746 204.765V204.762Z" fill="#1B360E"/>
<path d="M233.559 191.256C235.424 191.193 237.246 190.674 239.134 190.693C241.163 190.715 243.168 191.056 245.151 191.472C247.201 191.905 249.249 192.351 251.304 192.754C252.102 192.886 252.883 193.107 253.631 193.414C254.508 193.796 255.113 194.377 255.869 194.928C255.986 195.013 256.108 194.873 256.089 194.766C255.807 193.125 253.802 192.177 252.473 191.526C250.371 190.498 248.001 189.889 245.723 189.399C243.56 188.934 241.353 188.568 239.135 188.562C237.125 188.562 234.676 188.766 233.118 190.188C232.721 190.55 233.027 191.274 233.561 191.256H233.559Z" fill="#1B360E"/>
<path d="M214.665 179.266C216.312 178.941 217.917 178.367 219.543 177.946C221.17 177.524 222.822 177.155 224.479 176.853C227.717 176.268 231 175.967 234.29 175.953C237.533 175.951 240.774 176.141 243.995 176.521C247.388 176.903 250.72 177.96 254.006 178.859C254.332 178.951 254.572 178.446 254.245 178.29C251.118 176.797 247.874 176.082 244.527 175.257C241.231 174.444 237.679 174.109 234.282 174.119C230.827 174.127 227.379 174.45 223.983 175.085C220.731 175.693 217.094 176.495 214.209 178.191C213.611 178.542 214.024 179.398 214.665 179.271V179.266Z" fill="#1B360E"/>
<path d="M230.808 157.621C231.505 158.759 233.572 157.868 234.572 157.657C236.407 157.268 238.221 157.25 240.082 157.444C241.848 157.626 243.593 157.912 245.364 158.073C246.216 158.151 247.071 158.246 247.924 158.34C248.828 158.441 249.751 158.665 250.66 158.649C250.804 158.649 250.882 158.433 250.739 158.363C249.948 157.984 249.05 157.805 248.218 157.53C247.27 157.214 246.32 156.897 245.38 156.564C243.549 155.906 241.641 155.487 239.703 155.317C237.805 155.13 235.89 155.264 234.037 155.715C233.432 155.878 230.045 156.38 230.808 157.621Z" fill="#1B360E"/>
<path d="M214.697 144.572C215.687 145.005 217.323 143.98 218.274 143.652C219.738 143.146 221.125 142.439 222.582 141.91C225.395 140.89 228.295 140.128 231.247 139.633C234.174 139.146 237.278 138.759 240.241 138.799C241.733 138.819 243.22 138.885 244.712 138.9C245.507 138.9 246.31 138.95 247.101 139.025C247.772 139.089 248.501 139.289 249.164 139.152C249.281 139.128 249.275 138.98 249.195 138.921C248.641 138.516 247.867 138.422 247.206 138.246C246.432 138.04 245.657 137.858 244.878 137.672C243.355 137.329 241.802 137.135 240.241 137.092C238.635 137.028 237.02 136.89 235.413 136.988C233.882 137.091 232.358 137.271 230.845 137.527C227.719 138.033 224.652 138.85 221.689 139.967C220.226 140.518 218.676 141.069 217.36 141.918C216.515 142.465 214.718 143.27 214.596 144.385C214.595 144.423 214.604 144.461 214.623 144.494C214.642 144.527 214.67 144.554 214.703 144.572H214.697Z" fill="#1B360E"/>
<path d="M217.767 128.186C218.513 127.643 219.081 126.929 219.739 126.287C220.438 125.612 221.2 125.005 222.016 124.477C223.814 123.301 225.794 122.464 227.83 121.795C229.952 121.099 232.024 120.263 234.149 119.579C236.395 118.855 238.67 118.673 240.979 118.312C241.142 118.288 241.113 118.057 240.979 118.016C238.727 117.341 236.263 118.032 234.024 118.408C231.568 118.818 229.096 119.078 226.73 119.886C224.657 120.595 222.624 121.491 220.803 122.719C219.19 123.805 217.139 125.303 216.544 127.243C216.342 127.894 217.168 128.621 217.77 128.186H217.767Z" fill="#1B360E"/>
<path d="M200.889 120.974C202.79 118.777 205.33 117.102 207.662 115.403C210.209 113.515 212.874 111.793 215.64 110.244C218.405 108.734 221.259 107.267 224.259 106.304C225.747 105.827 227.265 105.579 228.813 105.354C229.626 105.234 230.439 105.037 231.252 104.953C232.008 104.875 232.769 104.953 233.519 104.822C233.652 104.798 233.633 104.606 233.519 104.57C232.789 104.341 232.01 104.375 231.252 104.328C230.387 104.273 229.527 104.182 228.66 104.253C227.126 104.379 225.607 104.725 224.106 105.044C220.854 105.714 217.714 106.843 214.78 108.399C211.82 109.984 209.023 111.849 206.306 113.815C205.047 114.726 203.806 115.661 202.582 116.621C201.336 117.596 200.305 118.561 199.679 120.036C199.368 120.763 200.261 121.698 200.89 120.969L200.889 120.974Z" fill="#1B360E"/>
<path d="M128.489 86.6121C129.26 86.4023 129.377 85.3892 129.497 84.7159C129.671 83.7177 129.795 82.7115 129.868 81.7009C130.031 79.4746 130.099 77.1865 129.868 74.9635C129.624 72.8501 129.273 70.7507 128.814 68.6732C128.375 66.5966 127.918 64.3963 126.876 62.5278C126.739 62.2838 126.274 62.3651 126.312 62.6806C126.574 64.7492 127.226 66.7624 127.592 68.8163C128.003 71.1142 128.079 73.3877 128.164 75.7115C128.244 77.8949 128.206 80.081 128.05 82.2603C128.016 82.7401 127.313 86.9341 128.496 86.6121H128.489Z" fill="#1B360E"/>
<path d="M114.306 77.5671C115.186 73.5308 115.355 69.5986 114.675 65.5021C114.025 61.6073 112.13 57.68 109.787 54.5154C109.774 54.4984 109.756 54.4867 109.735 54.4825C109.714 54.4783 109.693 54.4818 109.675 54.4925C109.656 54.5031 109.643 54.5201 109.636 54.5402C109.63 54.5604 109.631 54.5822 109.639 54.6016C110.488 56.3767 111.167 58.228 111.667 60.1307C112.155 62.0171 112.438 63.9393 112.748 65.8599C113.333 69.6838 113.481 73.5618 113.189 77.4191C113.144 78.0566 114.165 78.1964 114.306 77.5703V77.5671Z" fill="#1B360E"/>
<path d="M101.98 91.1086C102.373 90.1589 102.183 89.1002 102.071 88.1001C101.947 86.9975 101.843 85.8884 101.687 84.7891C101.362 82.4978 100.576 80.3072 99.6784 78.1834C97.9644 74.1178 95.4698 70.4979 92.071 67.6731C91.9555 67.5756 91.7636 67.6975 91.8514 67.8358C94.0793 71.5322 96.2422 75.344 97.8554 79.3575C98.6881 81.4277 99.4036 83.5581 99.6817 85.7778C99.8947 87.4854 99.7923 90.3557 101.576 91.2663C101.613 91.2866 101.653 91.2984 101.695 91.301C101.736 91.3036 101.778 91.2968 101.817 91.2813C101.855 91.2657 101.89 91.2416 101.918 91.2109C101.946 91.1802 101.967 91.1436 101.98 91.1037V91.1086Z" fill="#1B360E"/>
<path d="M86.8304 86.8885C86.9263 85.8884 86.6059 84.8216 86.4384 83.8345C86.2709 82.8474 86.0693 81.8098 85.8205 80.8129C85.3599 78.8701 84.746 76.9669 83.9845 75.1212C83.2771 73.4592 82.4184 71.7061 81.2199 70.3417C80.6133 69.6457 79.8132 69.0846 79.1058 68.496C78.3984 67.9073 77.7463 67.2942 76.9429 66.8258C76.8899 66.7971 76.8284 66.7882 76.7695 66.8007C76.7105 66.8132 76.6579 66.8463 76.6211 66.894C76.5843 66.9418 76.5657 67.0011 76.5687 67.0613C76.5716 67.1215 76.5959 67.1787 76.6372 67.2226C77.2666 67.9365 77.974 68.5756 78.5448 69.3367C79.0765 70.0457 79.3969 70.8491 79.8783 71.5874C80.8768 73.1226 81.8005 74.6252 82.4802 76.336C83.1446 78.0717 83.7168 79.8413 84.1943 81.6374C84.4577 82.5725 84.7325 83.5043 85.0285 84.4297C85.3131 85.3192 85.5164 86.3226 86.0205 87.1113C86.0694 87.1932 86.1437 87.2569 86.2321 87.2927C86.3205 87.3285 86.4181 87.3344 86.5102 87.3095C86.6023 87.2847 86.6837 87.2304 86.7421 87.155C86.8005 87.0796 86.8326 86.9871 86.8336 86.8918L86.8304 86.8885Z" fill="#1B360E"/>
<path d="M78.8245 101.492L78.9562 101.539C79.5726 101.765 79.9905 101.108 79.9108 100.586C79.7677 99.6495 79.3595 98.7697 79.0018 97.8981C78.6668 97.085 78.322 96.2719 77.9398 95.4587C77.1532 93.8178 76.2129 92.255 75.1314 90.7915C73.2758 88.2806 70.8137 85.8169 67.7629 84.8964C67.6003 84.846 67.4377 85.0867 67.5824 85.2054C68.8397 86.183 70.0407 87.2308 71.1796 88.344C72.3536 89.5615 73.3853 90.9085 74.2548 92.3592C75.2013 93.8829 75.9786 95.5287 76.7186 97.1614C77.0975 97.9989 77.4422 98.8478 77.7853 99.6999C77.9886 100.202 78.2504 101.279 78.8245 101.489V101.492Z" fill="#1B360E"/>
<path d="M64.4601 103.226C64.8098 101.7 64.2975 100.108 63.6763 98.7258C63.0063 97.2231 62.0907 95.8555 61.0906 94.5561C60.0726 93.2308 58.9066 92.0875 57.6918 90.9476C56.412 89.7458 55.3126 88.3456 54.08 87.1015C53.9629 86.9828 53.7043 87.1016 53.7775 87.2772C54.3629 88.6644 55.2411 89.9052 56.1713 91.0842C57.2186 92.416 58.1341 93.8487 59.1928 95.1741C60.1741 96.3891 61.0357 97.6962 61.7655 99.077C62.481 100.448 62.8729 101.962 63.5543 103.339C63.7413 103.715 64.3674 103.624 64.452 103.222L64.4601 103.226Z" fill="#1B360E"/>
<path d="M62.9708 118.237C62.0503 116.624 60.6827 115.238 59.3931 113.911C58.062 112.526 56.6426 111.228 55.1438 110.026C53.7319 108.874 52.2157 107.856 50.6148 106.985C49.0487 106.163 47.1542 105.432 45.3686 105.371C45.2943 105.367 45.2211 105.389 45.1612 105.433C45.1012 105.477 45.0582 105.54 45.0391 105.612C45.0201 105.684 45.0263 105.76 45.0567 105.828C45.087 105.896 45.1397 105.951 45.2059 105.985C46.0012 106.431 46.8712 106.711 47.6632 107.155C48.421 107.579 49.1821 107.995 49.9399 108.421C51.5319 109.318 53.0462 110.345 54.4673 111.493C55.8496 112.615 57.1684 113.824 58.4418 115.071C59.7151 116.318 60.9478 117.735 62.4114 118.801C62.7577 119.055 63.1627 118.574 62.9724 118.24L62.9708 118.237Z" fill="#1B360E"/>
<path d="M49.667 123.566C49.7906 121.917 48.7596 120.117 47.8392 118.829C46.8114 117.395 45.5511 116.034 44.0989 115.019C43.3508 114.495 42.4954 114.22 41.6888 113.814C40.8416 113.386 40.0301 112.902 39.1991 112.443C38.3258 111.955 37.4102 111.575 36.5142 111.127C35.5742 110.654 34.7156 110.209 33.7106 109.909C33.5479 109.859 33.3853 110.098 33.5317 110.218C34.2458 110.788 35.0075 111.295 35.8084 111.734C36.5987 112.191 37.3452 112.721 38.1371 113.176C38.8771 113.604 39.6463 113.999 40.3553 114.477C41.1391 115.004 41.7197 115.699 42.4011 116.339C43.5801 117.45 44.8404 118.408 45.8471 119.706C46.3374 120.365 46.7726 121.063 47.148 121.794C47.5237 122.496 47.7823 123.29 48.1921 123.965C48.6019 124.64 49.6053 124.329 49.6557 123.566H49.667Z" fill="#1B360E"/>
<path d="M51.8336 138.432C51.9963 136.545 50.2838 135.195 48.843 134.309C46.8444 133.08 44.7677 131.964 42.6748 130.905C41.634 130.38 40.5802 129.93 39.5085 129.471C38.4368 129.013 37.3147 128.76 36.191 128.406C35.0266 128.038 33.9143 127.603 32.7288 127.31C31.753 127.069 30.7497 126.659 29.7333 126.822C29.5381 126.853 29.5577 127.11 29.6845 127.201C30.4456 127.749 31.4246 127.889 32.2962 128.198C33.3175 128.56 34.3648 128.936 35.3681 129.346C36.3715 129.756 37.2806 130.401 38.2709 130.873C39.2613 131.345 40.2224 131.858 41.1981 132.348C43.0504 133.278 44.8571 134.285 46.659 135.309C48.2771 136.23 49.8805 137.061 50.8758 138.693C51.1555 139.152 51.7914 138.928 51.8336 138.433V138.432Z" fill="#1B360E"/>
<path d="M33.3119 145.8C32.1833 144.465 31.2515 143.005 30.1993 141.616C29.1945 140.289 27.9794 139.135 26.6021 138.201C25.2833 137.305 23.7774 136.537 22.2113 136.207C20.6762 135.882 18.915 135.719 17.3977 136.196C17.3673 136.205 17.3408 136.225 17.3219 136.25C17.3031 136.276 17.293 136.308 17.293 136.34C17.293 136.371 17.3031 136.403 17.3219 136.429C17.3408 136.454 17.3673 136.474 17.3977 136.483C18.8808 136.909 20.351 137.171 21.7885 137.745C23.2733 138.341 24.7027 139.009 26.0167 139.944C27.3307 140.879 28.3536 142.019 29.3261 143.26C30.3262 144.533 31.1669 145.899 32.5785 146.755C33.2013 147.13 33.7478 146.306 33.3168 145.798L33.3119 145.8Z" fill="#1B360E"/>
<path d="M35.487 157.023C35.4057 156.273 34.5666 155.925 33.9746 155.574C32.9452 154.964 31.8931 154.399 30.8197 153.873C28.8195 152.897 26.8111 152.185 24.5864 151.944C22.3659 151.708 20.1228 151.804 17.9303 152.227C15.8276 152.633 13.7021 152.811 11.9328 154.138C11.7848 154.248 11.8629 154.546 12.0727 154.463C13.947 153.768 15.9469 153.476 17.9417 153.606C20.0899 153.744 22.2528 153.56 24.3962 153.783C26.5395 154.006 28.4487 154.785 30.392 155.666C31.2686 156.065 32.1614 156.418 33.0623 156.762C33.7274 157.019 34.7324 157.6 35.4106 157.151C35.4337 157.138 35.4529 157.118 35.4664 157.095C35.4798 157.072 35.4869 157.046 35.487 157.019V157.023Z" fill="#1B360E"/>
<path d="M23.9267 171.896C22.9038 170.649 20.6547 170.393 19.1618 170.127C17.4926 169.824 15.7971 169.691 14.101 169.728C12.3817 169.785 10.6861 170.147 9.0939 170.798C7.61404 171.379 6.06262 172.049 4.80717 173.036C4.69171 173.125 4.81693 173.335 4.95191 173.285C6.41551 172.732 7.76853 171.951 9.33295 171.659C10.9868 171.358 12.7708 171.402 14.4474 171.398C16.1101 171.39 17.7698 171.54 19.4041 171.846C20.7832 172.111 22.3313 172.852 23.7396 172.595C24.0844 172.533 24.1088 172.107 23.9267 171.888V171.896Z" fill="#1B360E"/>
<path d="M30.825 187.983C29.3761 187.153 27.2604 187.363 25.652 187.418C23.8111 187.483 21.98 187.674 20.144 187.82C18.3413 187.968 16.532 188.019 14.7238 187.973C12.9122 187.922 11.1835 187.54 9.39143 187.35C9.35505 187.35 9.31959 187.361 9.28946 187.382C9.25933 187.402 9.23588 187.431 9.22201 187.465C9.20814 187.498 9.20447 187.535 9.21147 187.571C9.21846 187.607 9.2358 187.64 9.26133 187.665C11.9674 189.895 16.163 189.675 19.4366 189.454C21.3311 189.323 23.2224 189.129 25.1284 189.018C26.07 188.968 27.0148 188.944 27.958 188.97C28.8654 188.994 29.8233 189.121 30.7128 188.91C31.1389 188.809 31.2007 188.197 30.8332 187.986L30.825 187.983Z" fill="#1B360E"/>
<path d="M30.267 195.528C29.4913 195.92 28.8668 196.608 28.2098 197.169C27.5008 197.774 26.7739 198.357 26.0291 198.919C24.5302 200.041 22.9734 201.083 21.3651 202.041C19.8072 202.973 18.2622 203.926 16.7027 204.855C15.109 205.804 13.3738 206.481 11.707 207.294C11.5297 207.378 11.663 207.619 11.8322 207.59C13.7267 207.265 15.5318 206.588 17.3613 206.004C19.1616 205.43 20.8919 204.655 22.5197 203.695C24.132 202.741 25.6842 201.689 27.1674 200.545C27.9122 199.974 28.6457 199.386 29.3596 198.774C30.0735 198.163 30.9273 197.519 31.4151 196.678C31.8493 195.927 30.9988 195.17 30.2768 195.54L30.267 195.528Z" fill="#1B360E"/>
<path d="M43.7577 206.232C42.9803 206.372 42.3234 207.091 41.7314 207.577C41.0273 208.156 40.3296 208.746 39.6531 209.366C38.3157 210.544 37.055 211.806 35.8786 213.145C34.75 214.472 33.6198 215.793 32.5433 217.165C31.5383 218.447 30.2665 219.902 29.8876 221.522C29.8828 221.543 29.8841 221.565 29.8913 221.585C29.8986 221.606 29.9115 221.624 29.9286 221.637C29.9457 221.65 29.9662 221.658 29.9877 221.66C30.0093 221.663 30.031 221.658 30.0503 221.649C31.3968 220.77 32.3855 219.248 33.4084 218.033C34.5177 216.695 35.7007 215.42 36.9519 214.214C38.1814 213.048 39.3653 211.836 40.6256 210.702C41.2761 210.12 41.9152 209.54 42.577 208.975C43.1966 208.445 44.1317 207.917 44.4667 207.157C44.6944 206.642 44.3236 206.134 43.7593 206.235L43.7577 206.232Z" fill="#1B360E"/>
<path d="M45.1824 220.86C43.8912 221.265 42.787 222.449 41.7673 223.288C40.5899 224.249 39.463 225.272 38.323 226.277C37.2269 227.243 36.0284 228.173 35.0933 229.298C34.6201 229.869 34.1712 230.458 33.6948 231.025C33.2183 231.593 32.719 232.058 32.2848 232.626C32.1645 232.788 32.3922 232.974 32.5434 232.884C33.1711 232.517 33.724 232.039 34.3322 231.653C34.9404 231.268 35.5698 230.899 36.1747 230.5C37.3879 229.698 38.4515 228.645 39.5345 227.68C40.6176 226.716 41.6974 225.799 42.73 224.808L44.3237 223.276C44.836 222.789 45.4279 222.219 45.7255 221.564C45.8882 221.211 45.6182 220.723 45.184 220.86H45.1824Z" fill="#1B360E"/>
<path d="M60.2145 221.867C58.7915 222.733 57.7361 224.392 56.8433 225.769C55.8253 227.329 54.843 228.915 53.9161 230.529C53.011 232.072 52.1965 233.665 51.4768 235.302C51.1206 236.13 50.7385 236.945 50.3823 237.771C50.0847 238.464 49.6391 239.278 49.7871 240.048C49.7937 240.072 49.8057 240.094 49.8223 240.113C49.8388 240.131 49.8594 240.146 49.8826 240.155C49.9057 240.165 49.9307 240.169 49.9556 240.167C49.9805 240.165 50.0046 240.158 50.0262 240.145C50.6311 239.82 50.9385 239.083 51.2735 238.504C51.7418 237.701 52.1679 236.878 52.6574 236.081C53.6071 234.543 54.5064 232.977 55.422 231.416C56.3077 229.898 57.2206 228.401 58.1606 226.924C59.0761 225.491 60.2746 223.899 60.6389 222.208C60.6521 222.153 60.649 222.095 60.63 222.042C60.6111 221.989 60.5772 221.942 60.5323 221.908C60.4873 221.873 60.4334 221.853 60.377 221.848C60.3206 221.844 60.2642 221.856 60.2145 221.883V221.867Z" fill="#1B360E"/>
<path d="M258.914 77.676C255.613 77.6142 252.302 77.6516 249.015 78.0533C229.593 80.439 211.765 87.9732 196.275 103.079L188.957 97.4135C191.258 94.5148 193.744 91.7684 196.4 89.1913C212.212 73.8267 232.481 66.2437 253.258 67.7674C257.893 68.3301 261.134 69.5774 263.074 71.0085C267.144 73.9959 265.466 77.798 258.914 77.676Z" fill="#B3DF33"/>
<path d="M194.943 103.325C194.524 103.326 194.113 103.214 193.753 103L187.767 99.3942C187.47 99.2152 187.217 98.9717 187.027 98.6818C186.837 98.3919 186.715 98.063 186.67 97.7195C186.624 97.3759 186.656 97.0265 186.764 96.6971C186.872 96.3677 187.052 96.0667 187.292 95.8165C196.389 86.3324 206.711 78.6778 217.969 73.0575C220.47 71.8102 229.588 67.5804 241.874 65.5233C248.446 64.4207 257.445 64.0044 263.001 68.2488C264.108 69.0928 267.05 71.3386 266.603 74.487C266.224 77.1475 263.623 78.4761 262.77 78.9136C259.963 80.3479 257.416 80.1088 254.718 79.8535C253.858 79.7738 252.97 79.6909 251.989 79.6437C252.001 79.6437 250.825 79.6437 244.184 80.1674C237.132 80.7219 226.887 83.828 218.081 88.0773C210.216 91.8813 202.947 96.8118 196.504 102.713C196.079 103.105 195.522 103.323 194.943 103.325ZM192.658 96.9435L194.672 98.1566C201.122 92.4587 208.322 87.6705 216.071 83.9256C225.503 79.3722 236.127 76.175 243.819 75.5701C250.649 75.0318 251.967 75.0236 252.207 75.0366C253.299 75.0871 254.286 75.1798 255.157 75.2627C257.795 75.5115 259.132 75.5879 260.674 74.8074C261.781 74.2414 262 73.9259 262.043 73.8154C262.02 73.734 261.846 73.1779 260.204 71.9257C256.943 69.4343 250.542 68.7643 242.64 70.0848C230.979 72.0363 222.384 76.0221 220.028 77.1979C210.082 82.1644 200.881 88.7961 192.658 96.9435Z" fill="#1B360E"/>
<g opacity="0.3">
<path d="M258.913 77.676C255.612 77.6142 252.301 77.6516 249.014 78.0533C229.592 80.4389 211.764 87.9732 196.274 103.079L188.956 97.4134C191.257 94.5148 193.743 91.7683 196.399 89.1913C196.58 89.8031 196.973 90.3303 197.508 90.6776C199.055 91.6534 201.041 90.5849 202.566 89.5686C218.049 79.1835 236.274 71.402 254.865 72.8949C256.558 73.0266 258.29 73.2348 259.929 72.8022C261.112 72.4847 262.194 71.8688 263.071 71.0134C267.143 73.9959 265.465 77.798 258.913 77.676Z" fill="#1B360E"/>
</g>
<path d="M148.285 78.9689L141.618 77.6988C142.527 72.7486 142.626 67.4747 142.071 61.9244C140.608 47.1665 134.49 30.4928 126.606 13.0727C122.134 3.96591 129.101 -1.55348 134.958 6.01332C135.344 6.62153 135.713 7.22974 136.076 7.83794C149.51 30.3091 151.011 54.3658 148.285 78.9689Z" fill="#B3DF33"/>
<path d="M148.285 81.2781C148.14 81.2782 147.996 81.2646 147.854 81.2374L141.187 79.9706C140.586 79.858 140.055 79.5123 139.71 79.0091C139.364 78.506 139.231 77.8863 139.341 77.2857C142.873 58.054 133.265 33.3777 124.498 14.0257C121.409 7.74034 123.14 2.87957 126.069 1.05169C128.544 -0.493217 132.838 -0.489965 136.783 4.60336C136.828 4.66353 136.872 4.72533 136.911 4.78875C149.797 25.2873 154.013 48.2463 150.572 79.2323C150.507 79.7939 150.238 80.3124 149.817 80.6894C149.395 81.0664 148.85 81.2758 148.285 81.2781ZM144.247 75.8514L146.251 76.2319C149.069 47.6576 144.969 26.3215 133.069 7.33704C131.177 4.93836 129.39 4.4196 128.515 4.96275C127.46 5.62137 126.811 8.25423 128.678 12.0482C137.425 31.3482 146.932 55.7659 144.249 75.8514H144.247Z" fill="#1B360E"/>
<g opacity="0.3">
<path d="M148.284 78.9688L141.616 77.6987C142.525 72.7485 142.625 67.4747 142.07 61.9244C143.34 61.9016 144.641 60.869 145.127 59.6152C145.75 57.9889 145.435 56.1806 145.15 54.4649C143.565 44.7076 143.433 34.7421 141.693 25.0124C140.639 19.0848 138.899 13.1182 136.074 7.83789C149.508 30.309 151.009 54.3657 148.284 78.9688Z" fill="#1B360E"/>
</g>
</svg>
