<svg id="Layer_1" data-name="Layer 1" xmlns="http://www.w3.org/2000/svg" viewBox="0 0 2461.79 3084.98"><defs><style>.cls-1{opacity:0.3;}.cls-2{fill:#650000;}.cls-3{fill:#d2623a;}.cls-4{fill:#f9d6b6;}.cls-5{opacity:0.6;}.cls-6{fill:#fff;}.cls-7{fill:#f92b49;}.cls-8{fill:#3a0176;}.cls-9{fill:#f4832f;}.cls-10{opacity:0.2;}.cls-11{fill:#9660ea;}.cls-12{fill:#f44242;}</style></defs><g class="cls-1"><ellipse class="cls-2" cx="1305.65" cy="2885.87" rx="1124.99" ry="199.11"/></g><path class="cls-3" d="M832.78,2423.78,641.3,2455.93C533.62,2442,372.16,2347,382.18,2084.26c.88-23-3.39-46-14.18-66.27a128.42,128.42,0,0,0-24.54-32.86c-69-66.06-185.78-10.85-211,2.24a54.76,54.76,0,0,1-10.84,4.44c-77.67,20.65-157.25-63.7-61.12-180.14,113.48-120.5,287.6-115.57,401.79-38.29,52.64,35.6,92.56,86.6,108,147.72l165,369.43Z"/><path class="cls-4" d="M343.46,1985.13c-69-66.06-185.78-10.85-211,2.24a54.76,54.76,0,0,1-10.84,4.44c-77.67,20.65-157.25-63.7-61.12-180.14,113.48-120.5,287.6-115.57,401.79-38.29C459,1773.55,309.17,1782.69,343.46,1985.13Z"/><g class="cls-1"><path class="cls-2" d="M832.78,2423.78,641.3,2455.93C533.62,2442,372.16,2347,382.18,2084.26c.88-23-3.39-46-14.18-66.27a128.42,128.42,0,0,0-24.54-32.86c-69-66.06-185.78-10.85-211,2.24a54.76,54.76,0,0,1-10.84,4.44c-77.67,20.65-157.25-63.7-61.12-180.14q5-5.34,10.18-10.35c-13.42,71,45.52,113.92,103.35,98.53a54.85,54.85,0,0,0,10.85-4.44c25.19-13.09,142-68.3,211-2.24A128.63,128.63,0,0,1,420.41,1926c10.79,20.26,15.07,43.32,14.19,66.27-10,262.74,146.86,317.06,254.54,331l89.47,26.46Z"/></g><path class="cls-3" d="M2074.27,2774.7,2064,2806.47,2020.81,2941l-1.92,6L1868,2842.83a127.82,127.82,0,0,0-72.57-22.62H1636.1c-183.37,49-423.16,50.83-607.4,0H799.54A127.52,127.52,0,0,0,727,2842.83L576.07,2947l-1.2-6.57-21-113.16-27.39-148,49.57-169.08.06,0c.21-.28,1-1,2.24-2.36a397.29,397.29,0,0,1,30.4-27.11c27.55-22.4,73-54.71,137.64-86.65l-85.17-160.42-85.17-294.06L711.9,1809.26S976.5,1698,1046.39,1680s217.16,29.85,265.63,27,515.29,0,515.29,0l118.79,127.18,7.78,8.32,7.5,20.49,32.59,89.16,56.25,153.8-185.07,184.58-16.59,103.35v0c114,56.25,168,113.65,170.28,116.12l.05,0Z"/><g class="cls-5"><path class="cls-6" d="M780.65,2422.65s-149.85,51.6-185.78,131.26l-18.79-52.72L739.67,2398Z"/></g><g class="cls-5"><path class="cls-6" d="M1859.69,2434.56s114.55,59.33,140.36,98.58l16.3-20.95-165.75-110.5Z"/></g><g class="cls-1"><path class="cls-2" d="M1794.9,1913.57S1861,1929,1941.23,2044.75L1816,2084l-62.93-147.52"/></g><path class="cls-4" d="M1735.63,2452c-55.58,360.46-757.71,406.11-849.2,0-44.94-266.44,64.11-415.66,64.11-415.66,179.83-274.93,492-324.18,702-14.4,0,0,117.47,222.73,87,417.17"/><g class="cls-1"><path class="cls-2" d="M923.33,1822.31c261.71,63.24,523.35,62,784.94,0l-75.84-130.81-646.05,35.91"/></g><g class="cls-5"><path class="cls-6" d="M820.4,2427.66l-29.57,5-77.06-105.38-165-369.43c-15.39-61.12-55.32-112.11-107.95-147.71-114.2-77.29-288.31-82.22-401.8,38.28C23.11,1867.63,12,1886,4.92,1903.13c3.51-25.69,16.71-55.43,43.22-87.58,113.48-120.5,287.6-115.57,401.8-38.29,52.63,35.6,92.56,86.6,108,147.72l165,369.43Z"/></g><path class="cls-7" d="M875.23,2171.19h312.42a32.64,32.64,0,0,1,32.63,32.64v104.36a32.63,32.63,0,0,1-32.63,32.64h-196"/><g class="cls-1"><path class="cls-8" d="M1220.28,2253.06v55.16a32.61,32.61,0,0,1-32.64,32.59h-196l-37.8-55.1h233.82A32.66,32.66,0,0,0,1220.28,2253.06Z"/></g><g class="cls-5"><path class="cls-6" d="M1220.28,2203.83v32.64a32.65,32.65,0,0,0-32.64-32.64h-290l-22.4-32.65h312.41A32.66,32.66,0,0,1,1220.28,2203.83Z"/></g><path class="cls-6" d="M977.92,2235.79h129.74a11.3,11.3,0,0,1,11.3,11.3v32.17a11.29,11.29,0,0,1-11.3,11.29h-81.21"/><path class="cls-3" d="M991.62,2321.11q2.7,79.44-76.68,71.2v5.48c-2,68.85-101.88,80.68-194.77-34.62a.89.89,0,0,0-.22-.27c-5.75-7.12-11.5-14.79-17.14-23a9.29,9.29,0,0,1-.55-.77c-1.15-1.58-2.24-3.17-3.34-4.82C408,2327,445.72,2144.47,445.72,2144.47c23.77-182.55,240.11-322.16,240.11-322.16L611,2045.89c62.55,7.66,118.63,20.59,164.26,41.84,3.28,1.53,6.46,3.12,9.64,4.71l47.7-42.66c18.79-16.87,41.57-28.92,66.33-33.74,35.87-7,55.48,3.06,52.8,36.36-1.32,16.93-9.37,32.54-21.58,44.31-22.62,22-40.64,44.59-52.8,68-9.91,19-1.1,42.67,19,50.23,25.91,9.8,55.6,15.77,87.14,20.05,16.11,2.13,30.4,12,37.36,26.67C1034.23,2290,1023.44,2309.39,991.62,2321.11Z"/><g class="cls-5"><path class="cls-6" d="M633.63,2050.17l-45,4.27a2,2,0,0,0-.22,3.86c37.31,7.57,142.45,31.59,177.69,67.94l25.33-29.44-80.79-28.75"/></g><g class="cls-5"><path class="cls-6" d="M450.48,2192.87c.77-3.07,1.54-6.35,2.19-9.8,16.71-86.43,90.32-175.38,151.12-236.39,23.49-23.61,45.13-43,60.79-56.47s45.08-39.65,45.08-39.65l-13.53-14.35-35.38,2.08-9.09-9.59-7.78,8.33-7.51,20.48C570.81,1911.3,464.72,2016,448.51,2140.62,448.51,2140.62,443.86,2163.24,450.48,2192.87Z"/></g><path class="cls-4" d="M991.62,2322.73q2.7,79.45-76.68,71.2v5.48c-2,68.85-101.88,80.68-194.77-34.61a1.09,1.09,0,0,0-.22-.28c-9.14-12.27-15.33-20.54-17.14-22.95-.38-.49-.55-.76-.55-.76-66.16-169.46,73-251.45,73-251.45,3.28,1.53,6.46,3.12,9.64,4.71l47.7-42.67c18.79-16.87,41.57-28.92,66.33-33.74,35.87-7,55.48,3.07,52.8,36.37-1.32,16.92-9.37,32.53-21.58,44.31-22.62,22-40.64,44.58-52.8,68-9.91,19-1.1,42.66,19,50.22,25.91,9.81,55.6,15.78,87.14,20,16.11,2.13,30.4,12,37.36,26.67C1034.23,2291.57,1023.44,2311,991.62,2322.73Z"/><path class="cls-2" d="M876.9,2224.26l-54.84-55.85c-2.18-2.09.51-5.84,3.18-4.46L896,2197.48c22.82,12.63.37,44.21-19.06,26.78Z"/><path class="cls-2" d="M856.62,2293.57c36.17,17,78.07,18.69,117.29,14.95l16.8-2.19.71-.1c23.84-2.06,25.1,33.34,1.1,32.91-36.72-1.61-73.69-8-107.42-22.85-11.13-5-21.8-10.6-31.64-18.25a2.74,2.74,0,0,1,3.16-4.47Z"/><path class="cls-2" d="M814.24,2346.94c32.84,15.74,68.1,27.71,104.29,30.94,24.31,3.53,16.65,39-7,32.13A276,276,0,0,1,858,2384.74a366.29,366.29,0,0,1-46.82-33.27c-2.51-2,.28-6.14,3.08-4.53Z"/><path class="cls-2" d="M702.27,2354.53a13.7,13.7,0,0,1-12.76-8.72c-69.59-178.29,77.28-267.34,78.78-268.22a13.69,13.69,0,0,1,13.92,23.58h0c-5.26,3.13-128.16,78.49-67.19,234.68a13.7,13.7,0,0,1-12.75,18.68Z"/><path class="cls-2" d="M783,2100.58a13.39,13.39,0,0,1-3.68-.51,13.68,13.68,0,0,1-9.52-16.86c30.66-110.11,68.12-151.37,69.7-153.07a13.69,13.69,0,0,1,20.12,18.57c-.55.61-34.92,39.44-63.44,141.84A13.7,13.7,0,0,1,783,2100.58Z"/><path class="cls-4" d="M574.87,2940.38a100.19,100.19,0,0,1-12.27,9.91c-78.54,53.9-158-41.95-196.3-134.18-9-21.58-15.72-40.21-20.76-56A401.23,401.23,0,0,1,334.81,2720a197.27,197.27,0,0,0-24.87-61.78c-38.83-63.87-12.1-110.42,26.24-84-6.36-49.29,30.72-70.49,71.2-36.53-.71-43.49,25.79-54.12,51.87-36.48,9.53,6.46,16.76,15.83,21.63,26.34l17.8,38.45c22.18-59.2,56.3-72.18,77.45-56,18,13.8,26.45,48.74,10.18,94.31,0,0-19.17,59.32,0,107.68,2.85,7.12,6,16.21,9.09,26.62l.11.27c.11.28.17.55.28.83C612.49,2796.06,627,2890.87,574.87,2940.38Z"/><g class="cls-5"><path class="cls-6" d="M582.32,2537.43c-21.15-16.21-55.32-3.23-77.51,56L487.07,2555c-4.93-10.52-12.16-19.88-21.69-26.34-26.07-17.64-52.53-7-51.81,36.47-40.48-34-77.61-12.76-71.2,36.53-25.69-17.69-46.23-2.57-45.19,28.54-16.87-48.36,7.28-78.27,39.71-55.92-6.41-49.29,30.72-70.49,71.2-36.53-.71-43.49,25.74-54.12,51.81-36.48,9.53,6.46,16.76,15.83,21.69,26.34L499.34,2566c22.18-59.2,56.36-72.18,77.5-56,10.79,8.27,18.07,24.21,18.73,45.4C592.28,2547.68,587.74,2541.6,582.32,2537.43Z"/></g><path class="cls-2" d="M515.41,2982.27a96.34,96.34,0,0,1-27.38-4c-60.62-17.94-110.46-92.24-136.88-155.8-15.64-37.6-26.55-70.91-32.42-99a180.22,180.22,0,0,0-22.84-56.65c-30-49.3-24.86-88.87-6.51-106.21a38.23,38.23,0,0,1,30.67-10c2.87-18.1,11.89-32.35,26-40.06s31.2-7.62,48.39-.19c5.2-17,15.16-25.05,21.95-28.73,15.24-8.26,34.22-6,52.08,6.07,11.5,7.79,20.95,19.22,27.35,33l3.21,6.94c23.86-38.42,53.48-45.27,74.43-37.6,30.48,11.17,50.77,56.85,28.46,119.56-1.1,3.57-16.51,55.57-.31,96.44,27.48,69.35,52.14,201.7-29.72,257.86C554.07,2976.08,534.91,2982.27,515.41,2982.27ZM315.6,2583.15a5.11,5.11,0,0,0-3.65,1.31c-5.5,5.19-10.1,28.84,12,65.26a213.27,213.27,0,0,1,26.92,67c3.75,17.93,12.1,48.64,30.59,93.12,29.56,71.08,75,124.81,115.87,136.89,19.47,5.76,37.76,2.51,55.92-9.95,64.93-44.54,40-162.5,17.76-218.65-21.1-53.25-1.22-116.16-.36-118.82l.16-.48c15.43-43.13,4.86-73-8.71-77.95-12.65-4.65-33.23,11.36-48.06,50.92a16.43,16.43,0,0,1-30.3,1.13L466,2534.47c-3.88-8.4-9.41-15.2-16-19.64-7.14-4.85-14-6.51-18-4.37-4.14,2.24-8.47,10.51-8.19,27a16.43,16.43,0,0,1-27,12.87c-13.41-11.27-26.84-15.49-35-11-7.82,4.28-11.39,16.86-9.32,32.81a16.44,16.44,0,0,1-25.61,15.65C325,2586.47,319.77,2583.15,315.6,2583.15Z"/><path class="cls-2" d="M331.26,2722.48a16.24,16.24,0,0,1-6.18-1.22,16.42,16.42,0,0,1-9-21.4c34-83.58,122.53-154,226-126.93a16.43,16.43,0,1,1-8.32,31.79c-85.19-22.3-158.7,37.21-187.28,107.51A16.45,16.45,0,0,1,331.26,2722.48Z"/><path class="cls-2" d="M367.25,2639a16.42,16.42,0,0,1-13.85-7.57l-31-48.38A16.43,16.43,0,0,1,350,2565.35l31,48.38A16.44,16.44,0,0,1,367.25,2639Z"/><path class="cls-2" d="M434.61,2604.35a16.44,16.44,0,0,1-14.46-8.61l-27.2-50.2a16.43,16.43,0,1,1,28.89-15.66l27.21,50.21a16.44,16.44,0,0,1-14.44,24.26Z"/><path class="cls-2" d="M576.08,2526.5A16.43,16.43,0,0,1,564,2499c2.29-2.48,57.27-61.57,175.16-119.77a16.43,16.43,0,0,1,14.55,29.47c-111.87,55.22-165,112-165.51,112.54A16.41,16.41,0,0,1,576.08,2526.5Z"/><path class="cls-2" d="M2018.89,2963.4a16.41,16.41,0,0,1-9.32-2.91l-150.92-104.13a110.77,110.77,0,0,0-63.21-19.7H1638.23c-188.89,50-428.44,50-611.73,0h-227a110.77,110.77,0,0,0-63.21,19.7L585.41,2960.49a16.43,16.43,0,0,1-18.66-27L717.67,2829.3a143.56,143.56,0,0,1,81.87-25.5h229.17a16.61,16.61,0,0,1,4.37.59c179,49.36,414,49.34,598.76,0a16.46,16.46,0,0,1,4.24-.56h159.36a143.56,143.56,0,0,1,81.87,25.5l150.93,104.14a16.43,16.43,0,0,1-9.35,30Z"/><path class="cls-2" d="M731.32,2817.57l55.13-93.36c1.53-2.74,6-.83,5,2.17l-30,104.19a16.56,16.56,0,0,1-20.5,11.34c-10.3-2.8-15.21-15.25-9.68-24.34Z"/><path class="cls-2" d="M1187.64,2357.26h-196a16.43,16.43,0,1,1,0-32.86h196a16.23,16.23,0,0,0,16.21-16.21V2203.83a16.22,16.22,0,0,0-16.21-16.2H875.23a16.44,16.44,0,0,1,0-32.87h312.41a49.13,49.13,0,0,1,49.07,49.07v104.36A49.12,49.12,0,0,1,1187.64,2357.26Z"/><path class="cls-2" d="M1107.66,2304.25h-81.2a13.7,13.7,0,1,1,0-27.39h78.8v-27.37H977.92a13.7,13.7,0,0,1,0-27.39h129.74a25,25,0,0,1,25,25v32.17A25,25,0,0,1,1107.66,2304.25Zm0-54.76h0Z"/><path class="cls-6" d="M1062.36,2105.93H979.29a28.75,28.75,0,0,1-28.75-28.75h0a28.76,28.76,0,0,1,28.75-28.76h83.07a28.76,28.76,0,0,1,28.76,28.76h0A28.76,28.76,0,0,1,1062.36,2105.93Z"/><path class="cls-2" d="M1062.36,2122.36H979.29a45.19,45.19,0,0,1,0-90.37h83.07a45.19,45.19,0,1,1,0,90.37Zm-83.07-57.51a12.33,12.33,0,0,0,0,24.65h83.07a12.33,12.33,0,1,0,0-24.65Z"/><rect class="cls-2" x="992.53" y="2105.93" width="55.91" height="60.25"/><path class="cls-7" d="M1719.76,2171.19H1407.34a32.64,32.64,0,0,0-32.64,32.64v104.36a32.64,32.64,0,0,0,32.64,32.64h196Z"/><g class="cls-1"><path class="cls-8" d="M1719.74,2171.18l-116.39,169.63h-196a32.61,32.61,0,0,1-32.64-32.59V2203.83a32.64,32.64,0,0,1,11.45-24.82v77a32.62,32.62,0,0,0,32.64,32.65h196l80.56-117.49Z"/></g><g class="cls-5"><path class="cls-6" d="M1719.74,2171.18l-22.41,32.65h-290a32.65,32.65,0,0,0-32.64,32.64v-32.64a32.66,32.66,0,0,1,32.64-32.65Z"/></g><path class="cls-6" d="M1617.06,2235.79H1487.32a11.29,11.29,0,0,0-11.29,11.3v32.17a11.28,11.28,0,0,0,11.29,11.29h81.21"/><path class="cls-3" d="M2147.28,2198.35c-12.22,54.55-62.77,132.93-251.24,137.64-1.09,1.64-2.19,3.23-3.34,4.82a7.68,7.68,0,0,1-.55.76c-5.64,8.16-11.39,15.83-17.14,22.95a1.82,1.82,0,0,0-.22.28,339.88,339.88,0,0,1-26.23,29.08v0c-84.51,83.42-166.73,67.87-168.53,5.48v-5.48a113.1,113.1,0,0,1-28.32-.21q-50.52-7.32-48.36-71c-31.82-11.72-42.61-31.16-29.19-59.48,6.95-14.68,21.25-24.54,37.35-26.67,31.55-4.27,61.23-10.24,87.14-20a35.94,35.94,0,0,0,19-50.22c-12.15-23.39-30.17-46-52.79-68-12.22-11.78-20.27-27.39-21.58-44.31-2.69-33.3,16.92-43.33,52.8-36.37,24.75,4.82,47.54,16.87,66.32,33.74l47.71,42.67c3.17-1.59,6.35-3.18,9.64-4.71,45.62-21.26,101.71-34.18,164.25-41.85l-50.82-151.82-11.83-35.33-12.22-36.42s10.79,7,27.88,19.82c7.12,5.37,15.34,11.83,24.37,19.23,56.2,46.11,142.19,129.64,175.82,231.08a1.07,1.07,0,0,0,.05.27,277.11,277.11,0,0,1,12,51.76S2153.9,2168.72,2147.28,2198.35Z"/><g class="cls-5"><path class="cls-6" d="M1964.13,2050.17l45,4.27a2,2,0,0,1,.22,3.86c-37.32,7.57-142.46,31.59-177.69,67.94l-25.33-29.44,80.78-28.75"/></g><g class="cls-5"><path class="cls-6" d="M2147.28,2198.35c-.77-3.07-1.54-6.35-2.2-9.81-16.7-86.42-90.31-175.37-151.11-236.39-23.49-23.6-45.13-43-60.79-56.46s-25.36-21-25.36-21l13.53-14.35,15.66-16.6,9.09-9.58,7.78,8.32,7.5,20.49c65.56,53.78,171.66,158.45,187.87,283.11C2149.25,2146.1,2153.9,2168.72,2147.28,2198.35Z"/></g><path class="cls-4" d="M1603.37,2322.73q-2.71,79.45,76.68,71.2v5.48c2,68.85,101.87,80.68,194.76-34.61a1.09,1.09,0,0,1,.22-.28c9.15-12.27,15.34-20.54,17.14-22.95a7.68,7.68,0,0,0,.55-.76c66.16-169.46-73-251.45-73-251.45-3.29,1.53-6.47,3.12-9.64,4.71l-47.71-42.67c-18.79-16.87-41.57-28.92-66.33-33.74-35.87-7-55.48,3.07-52.8,36.37,1.32,16.92,9.37,32.53,21.58,44.31,22.62,22,40.64,44.58,52.8,68a35.94,35.94,0,0,1-19,50.22c-25.91,9.81-55.59,15.78-87.14,20-16.1,2.13-30.4,12-37.36,26.67C1560.76,2291.57,1571.55,2311,1603.37,2322.73Z"/><path class="cls-2" d="M611.62,2042.07c61.12,4.61,122.4,14.84,178.72,41.24l-13.53,1.76,28.77-27c9.1-8.59,20.62-19.76,30.34-27.25,27.6-20.7,72.32-39.13,107-25.88,27.74,12,28.79,48.22,19.79,72.33-5.17,14.66-15,27.12-26.14,37.64-17.22,17.69-33.09,37.07-44.37,58.79a19.48,19.48,0,0,0,1.27,20.23c3.46,5.53,9.87,7.29,15.87,9.35a332.1,332.1,0,0,0,45.45,11.44c13.1,2.8,27.52,3.64,40.37,6.8,46.43,11.78,69.13,78.9,23.84,107a102.56,102.56,0,0,1-21.31,10.63l11.47-17.06c.35,11.5-.15,23.46-3.27,35.87-10.16,43.95-52,59.09-92.77,53.7l19.7-17.76c.53,78.86-78.59,90.06-136.12,59-47.51-24.39-83.11-64.12-112.46-107.06l14.26,7.81c-30.91-.87-62-3.54-92.9-9.77-80-14.66-162.44-62-176.36-149.88-12.59-87.19,39.27-180,94.95-247.09a751.87,751.87,0,0,1,151-135.89c18.58-10.78,40.68-23,59.67-32.71,174.33-91.4,370.42-145,568-141.42,143.35,1.8,285.88,32.35,419.59,83.21a1634.94,1634.94,0,0,1,195.75,90c87,60.35,165.54,135.81,214.7,230.74,75.27,148.51,24.26,268.15-143.63,301.87-30.8,6.14-61.83,8.83-92.69,9.67l13.21-7.23c-29.23,42.75-64.74,82.32-112,106.57-56.55,30.49-134.66,20-134.08-57.8l18.13,16.35c-11.37,1.1-23.21,1.39-35.61-.81-44.38-7.18-61.55-46.66-59.18-87.3l10.74,16c-25.17-8.26-49.49-29.78-45.23-59.16,3.22-26.78,21.93-50,47.57-56.76,6.84-1.89,14.5-2.62,21.43-3.69,23.34-3.6,46.59-8.38,68.68-16.36a20,20,0,0,0,15.15-18.1,20.37,20.37,0,0,0-2.3-10.44,206.42,206.42,0,0,0-19.87-30.6c-12.06-16.57-27.32-28.92-39.68-44.29-14.83-20.7-21.59-46.07-13.33-71.49,21.24-50.65,98.24-22.75,130.45,1.48,10.36,7.29,21.55,18.55,31.12,26.75l29.38,26.31c.14.08-18.43-2.39-18.4-2.37,29.25-12.76,59.49-20.89,89.73-26.58s60.66-8.88,91-10.78a5.49,5.49,0,0,1,1.33,10.88c-57.67,10.87-116.7,26.25-167.1,55.75a15.15,15.15,0,0,1-18.45-2.42c-10.08-9.43-34.41-30.51-44.07-39.45-12.86-12-28-22.1-44.49-28.08-13.32-4.65-32.12-9.56-45.18-4.85-6.27,3.33-5.93,9.78-5.81,17.63.55,16.06,10.41,30,22.08,40.34,19.57,19.76,37.36,41.58,50.44,66.54,9,16.74,7.88,38.74-3.24,54.37-9.39,14.72-26.55,20.65-42.42,25.22-23,6.95-46.4,11.17-70,14.47a52.74,52.74,0,0,0-7.44,1.38,31.24,31.24,0,0,0-19.59,15.73c-3.47,7.36-6.42,15.76-2.73,22.56,2.64,5.49,11.78,11.4,22.38,15.17a16.2,16.2,0,0,1,10.76,15.5c-.39,16.19,1.07,34.62,12.61,45.44,11.43,10.4,30,10.94,45.94,9.34a16.46,16.46,0,0,1,18.13,16.34c-.35,8.94,1.06,18.72,6.12,26,18.33,24.52,56.21,14.62,80.35,2.42,40.93-21,73.56-57.44,99.49-95.58a16.67,16.67,0,0,1,13.21-7.24c91.74-1.94,217.57-25.4,236.86-131.2,10.53-75-37.52-159-83.79-215.74-40.42-50.31-98.21-100.72-147.35-134.22-244-133.58-530.39-204-807-151.35-139.19,25.4-273.36,78.1-395.81,148.74C642.91,1872,593,1918.05,550.18,1968.6c-47.71,57.52-97.56,143.13-86.83,219.59,19.46,105.27,144.78,128,236,130a18,18,0,0,1,14.25,7.81,367.21,367.21,0,0,0,44.49,54.48c24.14,23.7,52.14,44.32,84.79,51.42,26.47,6.07,54.59-3.64,54.18-33.62v-4.4a17.85,17.85,0,0,1,17.83-17.86c42,4.79,60.88-9.74,59.18-52.73a17.22,17.22,0,0,1,11.47-17.06c10.52-3.69,19.45-9.51,21.9-14.61,3.58-6.48.71-14.57-2.62-21.71-4-8.24-12.71-14.51-22.2-16.17-32.14-4.69-64.28-10.31-94.72-22.54C860.41,2220,848.27,2184,862.7,2158.3c13.18-24.91,31-46.77,50.72-66.35a112.78,112.78,0,0,0,11.94-12.57c8.29-10.79,13.53-28,9.52-40.8-3-7.22-9.18-7.41-17.48-7.88-26.06.43-51.91,11.59-72.3,27.84-14.23,11.7-38,32.63-52.19,44.52a11.68,11.68,0,0,1-13.54,1.76c-25.42-13.88-53.23-24-81.69-32.33A855.63,855.63,0,0,0,610.3,2053a5.49,5.49,0,0,1,1.32-10.88Z"/><path class="cls-2" d="M1772.92,2168.41l-54.84,55.85c-15.8,15.3-38.84-7.29-23.81-23.39a17,17,0,0,1,4.75-3.39l70.72-33.53c2.7-1.38,5.36,2.39,3.18,4.46Z"/><path class="cls-2" d="M1741.52,2298c-29.73,22-66.09,32.24-102.22,37.77-12.21,1.82-24.49,2.65-36.84,3.33a16.54,16.54,0,0,1-2.08-33,17.39,17.39,0,0,1,3.89.2c22.2,3.28,45.41,4.9,67.8,3.22s45.92-6,66.29-16c2.85-1.8,5.89,2.37,3.16,4.47Z"/><path class="cls-2" d="M1783.82,2351.47c-29.88,24.7-63.35,45.79-100.38,58.54-23.73,6.9-31.32-28.84-6.79-32.15,36.12-3.26,71.31-15.2,104.1-30.92,2.82-1.55,5.6,2.46,3.07,4.53Z"/><path class="cls-2" d="M1892.71,2354.53a13.7,13.7,0,0,1-12.75-18.68c61-156.19-61.93-231.55-67.19-234.68a13.69,13.69,0,0,1,13.93-23.58c1.49.88,148.36,89.93,78.77,268.22A13.7,13.7,0,0,1,1892.71,2354.53Z"/><path class="cls-2" d="M1810.12,2107.76a13.69,13.69,0,0,1-13.18-10c-28.91-103.79-62.2-149.69-62.54-150.14a13.69,13.69,0,0,1,22-16.33c1.48,2,36.48,49.75,66.94,159.12a13.68,13.68,0,0,1-9.52,16.86A13.39,13.39,0,0,1,1810.12,2107.76Z"/><path class="cls-4" d="M2285,2658.26a197.25,197.25,0,0,0-24.86,61.78c-3.56,16.92-10,40.64-21.91,72.13-2.9,7.5-6.08,15.5-9.59,23.94-38.34,92.23-117.75,188.08-196.24,134.18a97.76,97.76,0,0,1-11.61-9.31c-57.84-53.84-35.16-162.56-17-215.74.16-.44.32-.87.43-1.26,1.54-4.43,3.07-8.43,4.44-11.94a118.77,118.77,0,0,0,6.68-24.65v-.1c6.63-41.74-6.68-82.93-6.68-82.93-16.27-45.57-7.78-80.51,10.19-94.31,21.14-16.21,55.26-3.23,77.44,56l17.8-38.45c4.88-10.51,12.11-19.88,21.69-26.34,26-17.64,52.58-7,51.82,36.48,40.47-34,77.61-12.76,71.2,36.53C2297.13,2547.84,2323.86,2594.39,2285,2658.26Z"/><g class="cls-5"><path class="cls-6" d="M2295.7,2637.5c1.87-32.37-18.89-48.47-45.13-30.4,6.41-49.29-30.72-70.49-71.2-36.53.77-43.49-25.8-54.11-51.81-36.48-9.59,6.47-16.82,15.83-21.69,26.35l-17.8,38.45c-22.18-59.21-56.31-72.19-77.45-56a40.77,40.77,0,0,0-10.57,12.6c.66-21.25,8-37.14,18.79-45.46,21.14-16.21,55.26-3.23,77.44,56l17.8-38.45c4.88-10.51,12.11-19.88,21.69-26.34,26-17.64,52.58-7,51.82,36.48,40.47-34,77.61-12.76,71.2,36.53C2292.8,2550.8,2317.72,2584.86,2295.7,2637.5Z"/></g><path class="cls-2" d="M2079.58,2982.27c-19.51,0-38.66-6.19-56.47-18.41-81.85-56.16-57.19-188.51-29.72-257.86,16.31-41.15.78-92.93-.3-96.42-22.32-62.73-2-108.41,28.46-119.58,20.94-7.67,50.56-.81,74.42,37.6l3.22-6.94c6.39-13.81,15.85-25.24,27.34-33,17.86-12.1,36.84-14.33,52.08-6.07,6.8,3.68,16.75,11.75,22,28.73,17.18-7.43,34.24-7.55,48.38.19s23.11,22,26,40.06a38.23,38.23,0,0,1,30.68,10c18.34,17.34,23.44,56.91-6.52,106.22a180.31,180.31,0,0,0-22.84,56.64c-5.88,28.11-16.78,61.42-32.41,99-26.43,63.55-76.27,137.86-136.89,155.8A96.27,96.27,0,0,1,2079.58,2982.27Zm-42.22-462.19a13,13,0,0,0-4.51.78c-13.57,5-24.14,34.82-8.71,77.95.06.16.11.32.16.48.86,2.66,20.75,65.57-.35,118.82-22.25,56.15-47.17,174.11,17.75,218.65,18.16,12.46,36.45,15.72,55.93,9.95,40.82-12.08,86.31-65.81,115.86-136.89,18.49-44.46,26.84-75.18,30.59-93.12a213.36,213.36,0,0,1,26.92-67c22.13-36.42,17.53-60.07,12-65.26-4-3.74-12.43,1.58-14.93,3.3a16.43,16.43,0,0,1-25.6-15.65c2.06-16-1.51-28.53-9.33-32.81-8.18-4.48-21.6-.26-35,11a16.43,16.43,0,0,1-27-12.87c.28-16.46-4-24.73-8.19-27-4-2.14-10.86-.47-18,4.37-6.55,4.44-12.07,11.24-16,19.64l-17.8,38.44a16.43,16.43,0,0,1-30.29-1.13C2067.74,2536.63,2050,2520.08,2037.36,2520.08Z"/><path class="cls-2" d="M2263.72,2722.48a16.45,16.45,0,0,1-15.23-10.25c-28.58-70.3-102.09-129.79-187.28-107.51a16.43,16.43,0,1,1-8.32-31.79c103.52-27.11,192.07,43.35,226.05,126.93a16.42,16.42,0,0,1-9,21.4A16.24,16.24,0,0,1,2263.72,2722.48Z"/><path class="cls-2" d="M2227.74,2639a16.44,16.44,0,0,1-13.82-25.31l31-48.38a16.43,16.43,0,1,1,27.66,17.74l-31,48.38A16.41,16.41,0,0,1,2227.74,2639Z"/><path class="cls-2" d="M2160.37,2604.35a16.44,16.44,0,0,1-14.43-24.26l27.2-50.21a16.43,16.43,0,1,1,28.89,15.66l-27.2,50.2A16.43,16.43,0,0,1,2160.37,2604.35Z"/><path class="cls-2" d="M2018.91,2526.52a16.4,16.4,0,0,1-12.1-5.31c-.74-.8-53.87-57.43-165.51-112.54a16.43,16.43,0,1,1,14.55-29.47c117.9,58.2,172.88,117.29,175.16,119.77a16.44,16.44,0,0,1-12.1,27.55Z"/><path class="cls-2" d="M1833.49,2830.57l-30-104.19c-1-3,3.52-4.93,5-2.17l55.14,93.36a16.58,16.58,0,0,1-5.84,22.69c-9.12,5.56-21.53.57-24.34-9.69Z"/><path class="cls-2" d="M1603.37,2357.26h-196a49.12,49.12,0,0,1-49.07-49.07V2203.83a49.13,49.13,0,0,1,49.07-49.07h312.42a16.44,16.44,0,0,1,0,32.87H1407.34a16.22,16.22,0,0,0-16.21,16.2v104.36a16.23,16.23,0,0,0,16.21,16.21h196a16.43,16.43,0,0,1,0,32.86Z"/><path class="cls-2" d="M1568.53,2304.25h-81.21a25,25,0,0,1-25-25v-32.17a25,25,0,0,1,25-25h129.74a13.7,13.7,0,0,1,0,27.39H1489.72v27.37h78.81a13.7,13.7,0,0,1,0,27.39Z"/><path class="cls-6" d="M1532.62,2105.93h83.07a28.76,28.76,0,0,0,28.76-28.75h0a28.76,28.76,0,0,0-28.76-28.76h-83.07a28.76,28.76,0,0,0-28.75,28.76h0A28.75,28.75,0,0,0,1532.62,2105.93Z"/><path class="cls-2" d="M1615.69,2122.36h-83.07a45.19,45.19,0,0,1,0-90.37h83.07a45.19,45.19,0,1,1,0,90.37Zm-83.07-57.51a12.33,12.33,0,0,0,0,24.65h83.07a12.33,12.33,0,1,0,0-24.65Z"/><rect class="cls-2" x="1546.54" y="2105.93" width="55.91" height="60.25" transform="translate(3149 4272.11) rotate(180)"/><path class="cls-9" d="M2045,1205.85c-58.39,120.5.22,250.69-53.73,426.55l-58.88,37.41-336.57,98.7c-182.38,47-372.65,44.64-569.72,0l-306.55-98.7-96.72-71.42A522.42,522.42,0,0,1,576,1482.77c-14.84-54-20.76-110-18.68-165.9,1.48-41.41,1.92-82.27.5-122.19C555.64,1135.14,547.1,1076,533.3,1018l-20-84.13c367-452.79,1403.61-379.78,1597.44,40.15C2110.74,974,2103.46,1085.35,2045,1205.85Z"/><path class="cls-7" d="M2239.47,1021s302.15,144.7,174.36,338.23-325,217.52-429,148-34.69-320.73-34.69-320.73"/><g class="cls-1"><path class="cls-2" d="M2425.56,1314.62c-5,16.66-13.09,33.8-24.64,51.33-127.78,193.55-325,217.54-429,148s-34.72-320.74-34.72-320.74l72-41.18c-10.52,79.36-11.56,189.39,51.92,231.78C2148.86,1442.46,2302.82,1434.57,2425.56,1314.62Z"/></g><g class="cls-5"><path class="cls-6" d="M2413.84,1359.21q-10,15.12-20.54,28.92c125-192.74-175.43-336.62-175.43-336.62L1945,1207.6c3-13.25,5.15-21.08,5.15-21.08L2239.45,1021S2541.62,1165.7,2413.84,1359.21Z"/></g><path class="cls-2" d="M2111.59,1559.18c-50.71,0-98.27-13.13-135.93-38.28-112.64-75.23-44.36-328-41.4-338.77a16.43,16.43,0,0,1,31.68,8.75c-18.38,66.72-49.2,251.15,28,302.7,45.26,30.23,108,40.15,172.17,27.2,90.29-18.22,173.4-78.81,234-170.61,27.16-41.12,35.11-83,23.65-124.45-30.9-111.73-189.79-189.13-191.39-189.9a16.43,16.43,0,0,1,14.2-29.64c7.08,3.4,173.89,84.54,208.84,210.69,14.14,51.05,4.76,102-27.87,151.41-65.48,99.15-156,164.75-254.94,184.71A309.21,309.21,0,0,1,2111.59,1559.18Z"/><path class="cls-3" d="M2110.74,974s-7.28,111.34-65.72,231.84a253.74,253.74,0,0,0-10.41,24.81v.06c-40.47,113.65,7,237.81-43.32,401.68l-58.88,37.41-336.57,98.7c-182.38,47-372.65,44.64-569.72,0l-306.55-98.7-96.72-71.42A522.42,522.42,0,0,1,576,1482.77c-14.84-54-20.76-110-18.68-165.9,1.26-35.6,1.76-70.76,1-105.27q-.16-8.46-.49-16.92C555.64,1135.14,547.1,1076,533.3,1018l-20-84.13C880.27,481.07,1916.91,554.08,2110.74,974Z"/><path class="cls-3" d="M2016.71,1435.9q154.14,27.58,244.7-69.83c40.26-43.3,65.31-99.16,69.83-158.11,11.65-152-112.47-231.4-223.92-204.71l-140.79,193.37"/><g class="cls-1"><path class="cls-2" d="M2331.25,1207.93c-4.55,59-29.58,114.86-69.83,158.12q-90.54,97.44-244.72,69.84l-4.87-23.23c8.71-11.28,9.58-33.19,8.49-51.43q148.62,23.83,236.88-71.14c38.83-41.79,63.48-95.25,69.23-151.83C2331.36,1159.4,2333.17,1182.68,2331.25,1207.93Z"/></g><g class="cls-5"><path class="cls-6" d="M2331.25,1207.93a255.81,255.81,0,0,1-11.17,57.57c1.37-7.89,2.35-15.78,3-23.77,11.51-149.69-108.72-229-218.8-205.83l3.5-32.76C2219,976.75,2342.92,1056.11,2331.25,1207.93Z"/></g><path class="cls-4" d="M1860.64,1598.39c52.95-157-58.42-233.69-58.42-233.69,164.31-273.85,84-487.45,84-487.45-53.56-218-418.08-323.15-549.53-52.8-235.51-370.76-814.26-75-511.19,522,0,0-102.24,87.63-60.25,202.65C979.13,1732,1513.4,1778.43,1860.64,1598.39Z"/><path class="cls-2" d="M1342.39,1725.85q-40,0-80.26-2.35c-214.26-12.59-398.61-72.36-505.8-164a13.72,13.72,0,0,1-4-5.71c-38-104.18,31.79-185.85,56.3-210.33-159.93-322.87-67.4-561,96.7-654.53,71.35-40.64,153.77-52.14,232.09-32.39,78,19.69,146,68.34,197.8,141.25,60-104.94,165.34-159.43,286-146.62,134.83,14.33,249,105.58,278,222.05,6,16.68,75.33,222.53-79.35,488.37,27.51,24.73,99.44,105.4,53.66,241.17a13.77,13.77,0,0,1-6.67,7.78C1723.3,1685,1535.65,1725.85,1342.39,1725.85ZM776.91,1541c201.48,168.71,720.86,227,1072.47,47.75,44.77-141.28-50.82-209.94-55-212.83a13.74,13.74,0,0,1-3.94-18.3c158.63-264.38,83.67-473.54,82.9-475.62a11.75,11.75,0,0,1-.47-1.53c-25.6-104.15-132.64-189.14-254.54-202.09-118.12-12.51-216.31,42.86-269.39,152a13.69,13.69,0,0,1-23.87,1.36c-112.3-176.8-289.27-185.64-406.18-119-154.36,87.94-239.34,316.07-81.24,627.51a13.69,13.69,0,0,1-3.3,16.59C830.57,1360.14,741.88,1438.19,776.91,1541Zm1083.73,57.35h0Z"/><g class="cls-1"><path class="cls-2" d="M2034.61,1230.72c-40.47,113.65,7,237.81-43.32,401.68l-58.88,37.41-336.57,98.7c-182.38,47-372.65,44.64-569.72,0l-306.55-98.7-96.72-71.42A522.42,522.42,0,0,1,576,1482.77c-14.84-54-20.76-110-18.68-165.9,1.26-35.6,1.76-70.76,1-105.27C586.9,1739.89,1957.78,1746.68,2021,1232c.92-7.51,11.36-8.54,13.64-1.32h0Z"/></g><path class="cls-6" d="M789.46,1914.69h-.06a187.12,187.12,0,0,1-62.6-64.35l-37.13-164.59-7.95-35.33c31.61-148.26,244.39-152,329.07,62.66,10.13,25.74,16.86,52.91,17.8,80.57C1033.52,1942.3,888.43,1976.64,789.46,1914.69Z"/><g class="cls-5"><path class="cls-6" d="M1015.06,1869.29a194.48,194.48,0,0,0,2.9-41.63c-.93-27.66-7.67-54.82-17.8-80.57C922.28,1549.59,736,1537,682,1651.68l-.28-1.26c31.61-148.26,244.39-152,329.07,62.66,10.13,25.74,16.86,52.91,17.8,80.57C1029.57,1823.39,1024.53,1848.58,1015.06,1869.29Z"/></g><path class="cls-7" d="M789.46,1914.69h-.06a187.12,187.12,0,0,1-62.6-64.35l-37.13-164.59C718,1623.86,800.41,1602.28,870,1723.1c17.2,29.8,29.2,62.5,33.85,96.56C915.38,1904.78,876.65,1935.78,789.46,1914.69Z"/><g class="cls-1"><path class="cls-2" d="M789.46,1914.69h-.06a187.12,187.12,0,0,1-62.6-64.35l-27.88-123.57a186.34,186.34,0,0,0,57.62,56.36h.06c95,59.48,232.55,30.18,239-103.79q8.13,15.86,15.23,33.74c10.13,25.74,16.86,52.91,17.8,80.57C1033.52,1942.3,888.43,1976.64,789.46,1914.69Z"/></g><path class="cls-6" d="M741.75,1855.81c-79.69-25.3-155.33-108.06-150.62-186,1.48-25,11.18-49.51,31.72-71.42,0,0,17.8,36.26,58.87,52,0,0-22.4,70.27,91.47,127.35,13.42,6.4,22,14.45,26.45,22.94C814.38,1828.65,785.4,1861.29,741.75,1855.81Z"/><path class="cls-2" d="M751.57,1872.87a95.86,95.86,0,0,1-11.89-.75,16.51,16.51,0,0,1-2.93-.65c-73.35-23.27-139.53-89.62-157.37-157.76-12.42-47.47-1.55-91.22,31.44-126.53a16.43,16.43,0,0,1,26.76,4c.12.23,15.82,30.82,50,43.92a16.43,16.43,0,0,1,9.77,20.32c-.6,2.14-15.31,58.31,83.22,107.67,36.72,17.49,43.48,45.78,37.45,66.38C811.39,1852.15,786.91,1872.87,751.57,1872.87Zm-6.36-33.19c22.48,2.29,38-8.17,41.28-19.45,2.93-10-4.49-20.08-20.34-27.63-94.81-47.5-104.07-105.43-102.5-132.28a133.37,133.37,0,0,1-41.75-34.1c-14.79,23.31-18.4,49.86-10.73,79.17C626,1762,683.45,1819.46,745.21,1839.68Z"/><path class="cls-2" d="M889.4,1960.56c-69.56,0-140-38.82-176.8-102A16.43,16.43,0,0,1,741,1842c43.59,74.75,129.66,97.06,188.52,80.11,54.69-15.76,84.81-62.41,82.64-128-.79-23.82-6.39-49.07-16.65-75.08-49-124.17-136.26-162.45-196.25-157.47-52.14,4.32-90.07,38.8-101.48,92.23a16.43,16.43,0,0,1-32.14-6.87c14.38-67.35,64.54-112.61,130.91-118.11,71.16-5.93,174,37.23,229.53,178.16,11.64,29.52,18,58.47,18.92,86,2.68,80.63-37.09,140.68-106.38,160.65A177.64,177.64,0,0,1,889.4,1960.56Z"/><path class="cls-3" d="M557.72,1369.61c-116,58.72-245.26-31.38-283.6-146.4-48.53-141.85,52-360.11,243.13-272.76C560.54,1073.39,571.15,1214.74,557.72,1369.61Z"/><g class="cls-1"><path class="cls-2" d="M562.6,1285.54q-1.15,41.32-4.88,84.07c-116,58.72-245.26-31.38-283.6-146.4-18-52.47-15.5-115.34,4.38-169.35-.44,27.61,3.51,55,12.05,80C327.63,1245.07,449.77,1333,562.6,1285.54Z"/></g><g class="cls-5"><path class="cls-6" d="M526.5,978.77C342.26,904.06,246.41,1116.85,294,1256.08a245.51,245.51,0,0,0,13.47,32.42,250.72,250.72,0,0,1-33.3-65.29c-48.53-141.85,52-360.11,243.13-272.76Q522.17,964.43,526.5,978.77Z"/></g><path class="cls-7" d="M2136.32,963.05l-25.58,11c-41.35-89.66-121.2-163.49-224.72-219.8-54.72-29.74-116.06-54.6-181.84-74.27a1241.86,1241.86,0,0,0-134.9-32c-158-28.59-331.14-30.56-495.07-3-109.92,18.52-215.63,50.28-310,96.18-99.19,48.26-185.67,112.17-251,192.74l10.9,45.73-57.34-45.73c-13.31-153.41,3.5-285.25,42.56-397.09,5.58-16,11.66-31.6,18.12-46.77C619.72,273.44,799.7,138.65,1000.32,70.89,1108.66,34.2,1223.08,17.16,1333,17.33a824.11,824.11,0,0,1,204.62,15.88A774.78,774.78,0,0,1,1664,70.73l.33.16C1828.84,135.69,1965.11,256,2050,418.52a803.11,803.11,0,0,1,58.39,144.82,36.66,36.66,0,0,0,1.09,3.72c1.26,4.33,2.52,8.71,3.73,13.09.05.17.05.38.11.6C2144.48,695,2153.9,823.44,2136.32,963.05Z"/><g class="cls-1"><path class="cls-8" d="M524.2,979.59l-2-1.64c.43-.49.82-1,1.26-1.48Z"/></g><g class="cls-10"><path class="cls-2" d="M2108.55,969.41c-3.67,9.63-8.43,21.74-12.21,31.43C2052.19,923.67,1978.58,859.32,1886,809c-54.72-29.74-116.06-54.6-181.84-74.27a1241.86,1241.86,0,0,0-134.9-32c-158-28.59-331.14-30.56-495.07-3-109.92,18.52-215.63,50.28-310,96.18C670.11,841.68,587.41,901.6,523.44,976.47L513.3,933.86c65.29-80.57,151.77-144.48,251-192.74,94.32-45.9,200-77.66,310-96.18,163.93-27.6,337.06-25.63,495.07,3a1241.86,1241.86,0,0,1,134.9,32C1770,699.61,1831.3,724.47,1886,754.21,1987.78,809.53,2066.65,881.83,2108.55,969.41Z"/></g><path class="cls-2" d="M1886,770.64a16.51,16.51,0,0,1-7.86-2c-86.89-47.28-194.71-83.45-311.8-104.57-154.63-28-318.93-29.81-475.14-5.26C973.29,677.34,865.7,710,771.46,755.9A16.44,16.44,0,0,1,748,743.63c-50.28-326.2,31.73-557.25,243.74-686.76a16.71,16.71,0,0,1,3.29-1.54C1100.21,19.71,1216.51.89,1331.46.89h1.18C1451-4.42,1564.49,14,1670,55.44c.41.16.81.34,1.21.53l.59.29a16.94,16.94,0,0,1,2.57,1.64c169.76,131.24,244.36,359.27,228.07,697.1A16.44,16.44,0,0,1,1886,770.64ZM1313.25,608.8a1457.89,1457.89,0,0,1,259,22.94c110.33,19.91,212.9,52.91,298.47,95.91C1881.5,416.7,1811.16,206.38,1656,85.26,1555.28,46,1446.86,28.63,1333.74,33.74c-.25,0-.56,0-.76,0-111.43-.31-223.83,17.85-325.65,52.11-193.77,119.25-271.1,331.43-230,630.91,92.22-42.31,196-72.7,308.8-90.42A1466.86,1466.86,0,0,1,1313.25,608.8Z"/><g class="cls-5"><path class="cls-6" d="M522.12,970.88l2.08,8.71-5.64-4.49C519.77,973.68,520.92,972.25,522.12,970.88Z"/></g><g class="cls-5"><path class="cls-6" d="M2144.76,850.44C2136.7,492,1940.3,227.26,1664.31,118.54l-.33-.16a774.78,774.78,0,0,0-126.36-37.52A824.11,824.11,0,0,0,1333,65c-109.92-.17-224.34,16.87-332.68,53.56C715,214.89,471.51,446.78,462.64,856.69,453.06,417,704.12,170.91,1000.32,70.89,1108.66,34.2,1223.08,17.16,1333,17.33a824.11,824.11,0,0,1,204.62,15.88A774.78,774.78,0,0,1,1664,70.73l.33.16C1952.4,184.38,2153.79,467.87,2144.76,850.44Z"/></g><path class="cls-2" d="M836.54,1934.83c-14.78,0-31.52-2.29-50.34-6.84a13.69,13.69,0,1,1,6.44-26.62c40.24,9.75,68.37,7.7,83.61-6,14.21-12.83,18.93-37.67,14-73.82-4.23-31.15-15-62-32.1-91.58-31.29-54.27-69-83.57-103.43-80.21-24.68,2.36-46.13,21.6-56,50.2a13.69,13.69,0,0,1-25.89-8.93c13.41-38.87,43.79-65.13,79.28-68.53,26.76-2.55,79.27,6.22,129.77,93.79,18.85,32.72,30.8,66.89,35.51,101.58,6.19,45.66-1.49,78.57-22.82,97.83C880.41,1928.46,861.22,1934.83,836.54,1934.83Z"/><path class="cls-6" d="M1569.28,647.9c-95.46-17.3-196.41-24.81-297.51-22a1426.42,1426.42,0,0,0-183.1,16.65C1041.79,624.68,1009,507.53,1130.35,463c0,0,168.91-21.25,304.69-3.45,49.89,6.51,95.35,18.34,126.24,38.45Z"/><path class="cls-11" d="M1115.4,638.65c13.8-1.92,27.6-3.56,41.46-5C1143,635.09,1129.14,636.78,1115.4,638.65Z"/><path class="cls-11" d="M1378.73,626.76q24.33,1,48.42,3Q1403.07,627.83,1378.73,626.76Z"/><path class="cls-11" d="M1465.11,633.11q21,2.14,41.73,5Q1486.14,635.31,1465.11,633.11Z"/><path class="cls-11" d="M1569.28,647.9q-14.87-2.71-30-5.09C1549.4,644.4,1559.37,646,1569.28,647.9Z"/><g class="cls-5"><path class="cls-6" d="M1562.16,514.48c-129.53-57.07-406.94-22.18-406.94-22.18-88.46,32.48-95,103.46-73.94,146.57-42.56-26.57-65.78-133.75,49.07-175.87,0,0,316-39.77,430.93,35Z"/></g><path class="cls-4" d="M542.81,1062.69c-132.94-54.45-208.44,218,15.79,193.37"/><g class="cls-10"><path class="cls-2" d="M546.49,1107.87c-66-9.86-112.17,60.63-103.57,120.82-67.25-63.7.17-206.87,99.91-166Z"/></g><path class="cls-2" d="M622.84,1614.83a16.41,16.41,0,0,1-14.4-8.51,539.66,539.66,0,0,1-48.34-119.19c-14.93-54.38-21.41-111.86-19.26-170.86,1.64-45,1.81-84.53.51-121-2-56.45-10.09-114.83-24.05-173.51l-20-84.13a16.44,16.44,0,0,1,3.22-14.15c98.57-121.62,251.15-213.65,441.24-266.15,171.17-47.28,368.3-60.46,555.08-37.13,311.43,38.9,546.51,168.59,628.84,346.91a16.43,16.43,0,0,1-29.84,13.78c-77.53-167.95-303-290.59-603.07-328.08C1165.23,611.9,742.46,684.48,531.16,938l18.12,76.2c14.45,60.78,22.83,121.33,24.91,179.94,1.33,37.26,1.16,77.61-.51,123.36-2,55.66,4.06,109.81,18.11,161a507.35,507.35,0,0,0,45.43,112,16.45,16.45,0,0,1-14.38,24.37Z"/><path class="cls-2" d="M481.48,1404.63c-25.11,0-50.61-5.19-75.9-15.6-66.84-27.49-123.18-89-147-160.62-31.75-92.84-4.37-209.42,63.71-271.05,54-48.89,125.69-56.64,201.83-21.82a16.43,16.43,0,1,1-13.66,29.88C446,936,388.6,941.62,344.3,981.73c-58,52.47-82,156.21-54.63,236.16,21,62.9,70.15,116.79,128.41,140.75,31.45,12.95,79.92,22.8,132.23-3.67a16.43,16.43,0,0,1,14.84,29.32A184,184,0,0,1,481.48,1404.63Z"/><path class="cls-2" d="M530.8,1274.09c-76.6,0-107.72-37.22-119.83-61.22-21.73-43.1-12-102,23.26-140.1,30.36-32.84,73.29-42.3,114.81-25.28a16.43,16.43,0,1,1-12.46,30.41c-39.34-16.11-65.89,3.85-78.22,17.18-25.82,27.92-33.57,72.19-18,103,16.78,33.28,58.15,48.08,116.48,41.66a16.43,16.43,0,0,1,3.6,32.67A273.53,273.53,0,0,1,530.8,1274.09Z"/><path class="cls-6" d="M1824.66,1948.73h.06a187.06,187.06,0,0,0,62.6-64.36l37.13-164.58,7.94-35.33c-31.6-148.26-244.38-152-329.06,62.66-10.13,25.74-16.87,52.91-17.8,80.56C1580.6,1976.33,1725.69,2010.67,1824.66,1948.73Z"/><path class="cls-7" d="M1824.66,1948.73h.06a187.06,187.06,0,0,0,62.6-64.36l37.13-164.58c-28.31-61.89-110.74-83.47-180.36,37.35-17.19,29.8-29.19,62.49-33.85,96.56C1698.74,1938.81,1737.47,1969.81,1824.66,1948.73Z"/><g class="cls-1"><path class="cls-2" d="M1932.41,1684.44l-7.94,35.32-37.14,164.59a187,187,0,0,1-62.6,64.35h0c-99,62-244.06,27.61-239.13-121,.93-27.66,7.67-54.82,17.8-80.57.11-.33.27-.65.38-1,12.49,125.64,145.58,152,238.25,94h.06a187.06,187.06,0,0,0,62.6-64.36l23.94-106C1930.06,1674.52,1931.31,1679.4,1932.41,1684.44Z"/></g><g class="cls-5"><path class="cls-6" d="M1930.88,1678c-55.27-112.22-239.68-98.47-317.07,97.71-10.13,25.75-16.87,52.91-17.8,80.57-.6,18.9,1.15,35.93,5,51.16-10.79-21.47-16.54-48-15.5-79.75.93-27.66,7.67-54.82,17.8-80.57C1686.76,1535.62,1894.56,1536.12,1930.88,1678Z"/></g><path class="cls-6" d="M1872.38,1889.83c-57,7.17-89-50.67-31.49-78,113.87-57,91.52-127.34,91.52-127.34,41.08-15.72,58.88-52,58.88-52a119.51,119.51,0,0,1,24.75,38.84C2049,1757.23,1963.3,1861,1872.38,1889.83Z"/><path class="cls-2" d="M1862.55,1906.91c-35.35,0-59.82-20.72-66.46-43.42-6-20.6.72-48.89,37.75-66.52,99.86-50,83.1-107,82.92-107.53a16.42,16.42,0,0,1,9.77-20.32c34.19-13.11,49.89-43.69,50-44a16.55,16.55,0,0,1,12.37-8.92,16.36,16.36,0,0,1,14.36,5c33,35.31,43.86,79.07,31.44,126.54-17.84,68.13-84,134.48-157.38,157.76a17.11,17.11,0,0,1-2.92.65A96,96,0,0,1,1862.55,1906.91Zm9.84-17.06h0Zm78.08-195.5c1.59,26.85-7.62,84.75-102.21,132.14-16.15,7.69-23.56,17.77-20.63,27.78,3.3,11.28,18.81,21.7,41.27,19.44,61.77-20.22,119.23-77.69,134-134.29,7.67-29.3,4-55.85-10.73-79.16A133.22,133.22,0,0,1,1950.47,1694.35Z"/><path class="cls-4" d="M2071,1144.62c57.77-46.29,142.81-26.13,134.7,74.07-3.48,42.94-28.51,82-68.07,99.07-33.4,14.41-75.8,13.27-117-27.33"/><g class="cls-10"><path class="cls-2" d="M2205.72,1218.67c-2.3,28.09-13.81,54.49-32.54,74.16.28-2,.49-4,.66-6,7.61-94-66.66-117.54-123.62-81.94l20.81-60.24C2128.76,1098.34,2213.82,1118.49,2205.72,1218.67Z"/></g><path class="cls-2" d="M1724.71,1994.6a177.26,177.26,0,0,1-49.2-6.84c-69.29-20-109.06-80-106.38-160.64.91-27.59,7.28-56.54,18.91-86,55.59-140.94,158.36-184.1,229.54-178.16,66.37,5.5,116.52,50.76,130.9,118.11a16.43,16.43,0,0,1-32.14,6.86c-11.4-53.42-49.34-87.9-101.48-92.22-59.91-5-147.27,33.29-196.24,157.47-10.26,26-15.86,51.25-16.65,75.08-2.17,65.56,27.94,112.21,82.64,128,58.84,17,144.92-5.35,188.52-80.1a16.43,16.43,0,1,1,28.39,16.55C1864.7,1955.77,1794.28,1994.6,1724.71,1994.6Z"/><path class="cls-2" d="M1777.58,1968.87c-24.68,0-43.87-6.38-58.06-19.18-21.33-19.25-29-52.16-22.82-97.82,4.71-34.7,16.65-68.87,35.51-101.58,50.5-87.59,103-96.36,129.77-93.79,35.49,3.4,65.87,29.66,79.28,68.53a13.69,13.69,0,0,1-25.89,8.93c-9.87-28.61-31.32-47.84-56-50.2-34.44-3.27-72.14,25.94-103.43,80.21-17.08,29.61-27.88,60.42-32.1,91.58-4.91,36.15-.19,61,14,73.81,15.24,13.76,43.37,15.79,83.61,6.05a13.69,13.69,0,0,1,6.44,26.62Q1799.69,1968.86,1777.58,1968.87Z"/><path class="cls-2" d="M1991.3,1648.87a16.45,16.45,0,0,1-15.72-21.26c25.78-84,25.14-155.94,24.52-225.5-.64-71.31-1.24-138.66,30.15-203.41,56.22-115.93,64-224.69,64.12-225.78a16.45,16.45,0,0,1,9.92-14l16.86-7.22C2152.77,682.31,2083,439.73,1924.3,267.8c-149-161.43-358.77-244.52-590.54-234-.25,0-.51,0-.77,0h-1.79c-265.71,0-506.6,96.4-661.16,264.67-146.6,159.6-209.46,372.9-186.84,634a16.43,16.43,0,0,1-32.74,2.84c-23.45-270.64,42.28-492.38,195.38-659C729.93,184.67,837.16,114,964.54,66.14,1078.16,23.46,1205,.91,1331.32.91h1.34C1452.57-4.47,1567.43,14.41,1674,57c105.62,42.24,198,105.64,274.41,188.47,167.25,181.16,239.76,436.71,204.17,719.59a16.44,16.44,0,0,1-9.82,13l-16.56,7.1c-3.26,30.67-16.81,125.47-66.42,227.79-28,57.82-27.49,118.51-26.86,188.78.61,68.7,1.31,146.56-26,235.43A16.44,16.44,0,0,1,1991.3,1648.87Z"/><path class="cls-2" d="M2081.44,1458.39a384.18,384.18,0,0,1-67.62-6.31,16.43,16.43,0,1,1,5.78-32.35c97.78,17.51,172.94-3.71,229.78-64.84,38-40.92,61.29-93.54,65.48-148.19,4.84-63.21-15.47-117.61-57.19-153.19-39.76-33.91-94.54-46.74-146.52-34.28a16.44,16.44,0,0,1-7.65-32c62.16-14.87,127.77.54,175.5,41.24,49.92,42.58,74.29,106.76,68.62,180.71-4.75,62-31.1,121.72-74.17,168C2223.26,1431.24,2158.87,1458.39,2081.44,1458.39Z"/><path class="cls-2" d="M2098,1342.61c-25.94,0-57.21-9.26-88.92-40.47a16.43,16.43,0,1,1,23.06-23.42c38.92,38.32,75.31,34.17,99,24,32.78-14.15,55.08-46.84,58.2-85.31,2.92-36.08-7.39-62.27-29-73.76-22.22-11.81-54-6.23-79,13.84a16.43,16.43,0,1,1-20.54-25.64c35.69-28.61,80.82-35.36,115-17.23,33.46,17.77,50.36,56.2,46.37,105.44-4.1,50.62-34,93.86-77.93,112.83A117,117,0,0,1,2098,1342.61Z"/><path class="cls-2" d="M1320.15,1819.12c-96.4,0-195.83-11.53-297.66-34.59a16.43,16.43,0,0,1,7.26-32c198.67,45,387.76,45,562,.11a16.43,16.43,0,0,1,8.2,31.83C1510.21,1807.55,1416.7,1819.12,1320.15,1819.12Z"/><path class="cls-3" d="M1560.79,486.55h0C1357.59,422.25,1130.35,463,1130.35,463V425.64c0-51.65,29.3-99.52,76.24-121,75.15-34.34,185.4-33.62,262.52-6a134,134,0,0,1,88.78,120.5Z"/><g class="cls-10"><path class="cls-2" d="M1555.92,401.11a134.49,134.49,0,0,0-60.31-43.38c-77.11-27.61-187.37-28.32-262.51,6-38.94,17.8-65.78,53.79-73.72,95.08-18.51,2.3-29,4.17-29,4.17V425.64c0-51.65,29.3-99.52,76.24-121,75.15-34.34,185.4-33.62,262.52-6A134,134,0,0,1,1555.92,401.11Z"/></g><path class="cls-2" d="M1560.79,503h0a16.36,16.36,0,0,1-5-.77c-196.74-62.28-420.3-23.44-422.54-23A16.43,16.43,0,0,1,1113.92,463V425.64c0-58.72,33.69-112.08,85.84-135.92,75.83-34.66,188.87-37.35,274.88-6.56a149.87,149.87,0,0,1,99.66,135.26l2.91,67.42A16.44,16.44,0,0,1,1560.79,503Zm-261.45-69.35c72.23,0,159.07,6.9,244,30.61l-1.91-44.41a117.15,117.15,0,0,0-77.89-105.73c-77.38-27.69-182.58-25.39-250.16,5.5-40.48,18.52-66.64,60.14-66.64,106v18.18A1129.37,1129.37,0,0,1,1299.34,433.63Z"/><path class="cls-2" d="M1088.67,659a16.33,16.33,0,0,1-5.86-1.09c-30.42-11.62-53.14-51.58-52.87-93,.17-24.91,9.73-86.21,94.75-117.4A16.43,16.43,0,0,1,1136,478.42c-63.35,23.24-73.06,64.34-73.21,86.77-.2,30.76,16.31,56.16,31.73,62a16.44,16.44,0,0,1-5.86,31.79Z"/><path class="cls-2" d="M1567.62,664a16.43,16.43,0,0,1-16.4-15.73l-6.84-161a16.43,16.43,0,1,1,32.83-1.39l6.84,161A16.43,16.43,0,0,1,1568.34,664Z"/><circle class="cls-2" cx="1178.75" cy="555.93" r="19.17"/><circle class="cls-2" cx="1296.51" cy="549.77" r="19.17"/><circle class="cls-2" cx="1415.63" cy="549.77" r="19.17"/><path class="cls-2" d="M1287.75,1390.25c-1.28,8.77-20.4,4.88-33.82-5s-17.75-22.13-12.49-29.26,15.16-7.59,26.41,4.72C1279.49,1373.41,1289,1381.44,1287.75,1390.25Z"/><path class="cls-2" d="M1369.46,1390.25c1.28,8.77,20.4,4.88,33.82-5s17.75-22.13,12.49-29.26-15.17-7.59-26.42,4.72C1377.71,1373.41,1368.17,1381.44,1369.46,1390.25Z"/><ellipse class="cls-2" cx="1052.27" cy="1214.09" rx="103.65" ry="130.43"/><path class="cls-2" d="M1702.73,1192.48c0,71-42.5,128.46-95,128.46s-95-57.51-95-128.46a165.09,165.09,0,0,1,10.46-58.52,371.51,371.51,0,0,0,110-33.81c9.91-4.89,18.88-9.91,26.89-14.87C1685.76,1108.23,1702.73,1147.67,1702.73,1192.48Z"/><ellipse class="cls-6" cx="1089.37" cy="1183.45" rx="38.38" ry="51.18"/><g class="cls-1"><ellipse class="cls-6" cx="1017.5" cy="1262.1" rx="30.68" ry="45.59" transform="translate(-293.64 308.63) rotate(-15.1)"/></g><g class="cls-1"><ellipse class="cls-6" cx="1645.84" cy="1237.5" rx="43.56" ry="29.31" transform="translate(-40.3 2419.5) rotate(-71.97)"/></g><path class="cls-6" d="M1617.87,1167.47c0,27.88-17,50.44-37.92,50.44s-37.86-22.56-37.86-50.44a65.22,65.22,0,0,1,2.3-17.31,258.7,258.7,0,0,0,56.06-25.16C1610.91,1134,1617.87,1149.63,1617.87,1167.47Z"/><path class="cls-2" d="M1449.29,1137.63c46.46-10.89,90.58-19.71,134.89-35,32.57-10.93,63.86-24.69,94.76-39.88,10.53-5.22,21-10.74,31.73-16.74a99.86,99.86,0,0,1-10,15.6c-57.51,71.65-163.8,103.1-251.35,76.06Z"/><path class="cls-12" d="M1434.34,1535.41c-5.86-16.78-12.77-32.4-22.17-45.25-9.58-13.1-13.22-30.07-9-45.74,15.81-58.8,124-47,108.78,51.28C1511.94,1495.7,1495.73,1529.93,1434.34,1535.41Z"/><path class="cls-2" d="M1434.34,1551.83a16.43,16.43,0,0,1-15.5-11c-6.27-17.94-12.61-30.95-19.93-41-12.67-17.31-17-39.63-11.61-59.7,9.17-34.13,43.93-54,80.9-46.17,36.68,7.75,69.45,43,60,104.22a16.31,16.31,0,0,1-1.38,4.52c-.83,1.74-21,42.8-91,49Q1435.06,1551.83,1434.34,1551.83Zm18-126.63c-14.54,0-29,7.31-33.35,23.48-2.83,10.55-.44,22.43,6.4,31.78,7.35,10,13.74,22,19.74,37,33.85-6,47.29-21.88,51-27.27,5.22-40.62-14.31-59.7-34.72-64A44,44,0,0,0,1452.38,1425.2Z"/><path class="cls-2" d="M1437.84,1551.46c-37,2.6-74.26.81-109.84-9.25-3.06-.87-2.3-5.59.91-5.4a250.21,250.21,0,0,0,52.16-4.47,341,341,0,0,0,49.78-13c23.77-7.16,31.62,28.72,7,32.11Z"/><path class="cls-2" d="M1464.39,1456.77c13,18.43,22.78,38.15,25.62,61.47a14,14,0,1,1-27.7,3.74c.85-10.74,3.87-21,2.41-32.93a145.48,145.48,0,0,0-5.23-29.89c-.92-2.88,3.22-4.86,4.9-2.39Z"/><g class="cls-10"><path class="cls-2" d="M1567.64,647.9c-95.47-17.3-196.41-24.81-297.52-22,1.81-.28,3.67-.44,5.59-.66,211.2-21.58,161.52-156,157.69-165.73,49.89,6.51,95.35,18.34,126.24,38.45Z"/></g><g class="cls-10"><path class="cls-2" d="M1078.9,629.64s-1.59,4.05-4.71,11.33c-109.92,18.52-215.63,50.28-310,96.18-99.19,48.25-185.67,112.17-251,192.74l10.9,45.73-57.34-45.73c-13.31-153.41,3.5-285.25,42.56-397.09h.05s-62.82,271.55,68.63,208.57S886.16,598.09,1046.37,565Z"/></g><g class="cls-10"><path class="cls-2" d="M2136.32,963.05l-25.58,11c-41.35-89.66-121.2-163.49-224.72-219.8-54.72-29.74-116.06-54.6-181.84-74.27a1241.86,1241.86,0,0,0-134.9-32V567.06s300.47,38.18,433.78,164.15c125.26,118.41,129-71.59,110.26-150.46C2144.48,695,2153.9,823.44,2136.32,963.05Z"/></g><g class="cls-1"><path class="cls-2" d="M741.75,1855.81c-79.69-25.3-155.33-108.06-150.62-186h7.94s65.67,138.24,200.57,130.9C814.38,1828.65,785.4,1861.29,741.75,1855.81Z"/></g><g class="cls-1"><path class="cls-2" d="M1872.38,1889.83c-57,7.17-89-50.67-31.49-78,0,0,140.27-8,175.15-140.54C2049,1757.23,1963.3,1861,1872.38,1889.83Z"/></g><path class="cls-2" d="M1031.78,2836.67a16.29,16.29,0,0,1-5.81-1.07c-101.49-38.35-177.05-121.15-218.52-239.47-31-88.35-32.13-164.5-32.17-167.7a16.43,16.43,0,0,1,16.25-16.61h.19a16.43,16.43,0,0,1,16.42,16.24h0c0,2.91,6.18,292.44,229.45,376.8a16.44,16.44,0,0,1-5.81,31.81Z"/><path class="cls-2" d="M1636.1,2834.16a16.44,16.44,0,0,1-8.1-30.74c1.24-.71,58.76-34,112.25-99.64,71.46-87.72,102.41-188.84,92-300.56a16.43,16.43,0,0,1,32.72-3.06c14.09,150.8-46.63,260.18-100,325.39-57.69,70.44-118.18,105-120.72,106.48A16.41,16.41,0,0,1,1636.1,2834.16Z"/><path class="cls-2" d="M1307.32,2753.42c-96.67,0-189.43-23.48-263.18-66.9-89.69-52.79-148.84-132.84-171.07-231.5a13.69,13.69,0,1,1,26.72-6c48.07,213.4,260.12,282.4,427.11,276.7,170.76-5.86,367.27-94.66,395.2-275.77a13.69,13.69,0,1,1,27.06,4.16c-13.59,88.13-64.84,163.46-148.21,217.84-74.87,48.85-171.86,77.66-273.11,81.13Q1317.57,2753.42,1307.32,2753.42Z"/><path class="cls-2" d="M950.53,2050a13.69,13.69,0,0,1-11.45-21.19c96.24-147.13,230.72-232.16,368.95-233.3h2.77c132.11,0,257.39,77.57,353,218.72a13.69,13.69,0,0,1-22.67,15.36c-91-134.3-209.33-207.72-332.92-206.69-128.92,1.06-255.13,81.57-346.26,220.9A13.68,13.68,0,0,1,950.53,2050Z"/><path class="cls-2" d="M641.34,2472.39a15.44,15.44,0,0,1-2.13-.14c-68.8-8.89-135.8-44.55-183.81-97.83-64.13-71.16-94.29-169-89.66-290.78.82-21.34-3.42-41.37-12.25-57.9-53.69-100.56-187.19-37.47-213.41-23.8a68.62,68.62,0,0,1-14.2,5.73c-43.33,11.55-87.8-4.64-110.64-40.25-28.64-44.64-16.45-106.77,32.6-166.21.23-.27.47-.54.71-.8,80.76-85.74,199.59-118.59,317.88-87.86,111,28.84,195.25,107.21,219.79,204.51a16.43,16.43,0,0,1-31.86,8c-21.61-85.66-96.78-154.92-196.19-180.74-106.31-27.61-212.93,1.61-285.32,78.19-39.23,47.71-50.42,95.21-29.95,127.13,15.1,23.53,45.05,34.09,74.52,26.24a37.57,37.57,0,0,0,7.47-3.12c31-16.18,189.3-90.42,257.59,37.46,11.57,21.67,17.14,47.47,16.1,74.63-9,237.33,126.25,339.44,244.85,354.78a16.43,16.43,0,0,1-2.09,32.72Z"/><path class="cls-2" d="M349.83,2005.42a13.69,13.69,0,0,1-13.37-10.76c-14.86-67.87-7.83-123.91,20.87-166.56,38.05-56.53,100-67.76,102.66-68.22a13.69,13.69,0,0,1,4.68,27c-.81.15-53.59,10.14-84.83,56.84-24.19,36.17-29.79,85-16.62,145.1a13.71,13.71,0,0,1-10.45,16.3A13.5,13.5,0,0,1,349.83,2005.42Z"/><g class="cls-1"><path class="cls-2" d="M2243.84,2784.72c-2.91,7.5-6.08,15.5-9.59,23.93-38.34,92.23-117.76,188.08-196.24,134.19a97.76,97.76,0,0,1-11.61-9.31l-1.92,6-150.89-104.12a127.77,127.77,0,0,0-72.57-22.62H1641.69c-183.37,49-423.16,50.82-607.41,0H805.12a127.44,127.44,0,0,0-72.51,22.62l-151,104.12-1.21-6.58a99.68,99.68,0,0,1-12.27,9.92c-78.54,53.89-157.95-42-196.29-134.19-9-21.58-15.72-40.2-20.76-56l6.19-11.55s125.2,155.27,202.16,78.65c16.92-16.76,31.43-44.53,41.9-87.47v-.05l-.28-.77-.11-.28-9.09-26.61,226.37-113.65c351.62,184.08,683.48,191,993.32,0l197.77,126.85.06.05.38-1.31,11.12-36.59v-.11l3.56-11.72s9.09,80.35,45.13,130.9c32.26,45.24,86,66.71,174.12-14.24C2243.78,2784.72,2243.78,2784.72,2243.84,2784.72Z"/></g><rect class="cls-7" x="1220.28" y="2203.83" width="154.42" height="104.36"/><g class="cls-5"><rect class="cls-6" x="1220.28" y="2203.83" width="154.4" height="31.99"/></g><path class="cls-2" d="M1374.7,2324.62H1220.28a16.44,16.44,0,0,1-16.43-16.43V2203.83a16.44,16.44,0,0,1,16.43-16.43H1374.7a16.44,16.44,0,0,1,16.43,16.43v104.36A16.44,16.44,0,0,1,1374.7,2324.62Zm-138-32.86h121.56v-71.5H1236.71Z"/><g class="cls-1"><path class="cls-2" d="M1704.55,2024.69s-19.17,33.77,20.08,69.38,50.21,65.72,50.21,65.72l-47.93,31.49-18.36-48.61s-48.73-68.46-52.16-73.94S1629.46,2003.24,1704.55,2024.69Z"/></g><g class="cls-1"><path class="cls-2" d="M2147.28,2198.35c-12.22,54.55-62.77,132.93-251.24,137.64-1.09,1.64-2.19,3.23-3.34,4.82a7.68,7.68,0,0,1-.55.76c-5.64,8.16-11.39,15.83-17.14,22.95a1.82,1.82,0,0,0-.22.28,339.88,339.88,0,0,1-26.23,29.08v0c-84.51,83.42-166.73,67.87-168.53,5.48v-5.48a113.1,113.1,0,0,1-28.32-.21l56.85-7.89c130.9,38,195.86-181.13,195.86-181.13,252.71,4.71,234.09-104.17,232.83-110.36a277.11,277.11,0,0,1,12,51.76S2153.9,2168.72,2147.28,2198.35Z"/></g><g class="cls-1"><path class="cls-2" d="M893.21,2029.48s19.17,33.78-20.08,69.38-50.21,65.72-50.21,65.72l47.93,31.5,18.35-48.61s48.74-68.47,52.16-73.94S968.29,2008,893.21,2029.48Z"/></g><g class="cls-1"><path class="cls-2" d="M450.48,2198.35c12.22,54.55,62.77,132.93,251.24,137.64,1.09,1.64,2.19,3.23,3.34,4.82a8.4,8.4,0,0,0,.54.76c5.65,8.16,11.4,15.83,17.15,22.95a1.82,1.82,0,0,1,.22.28,339.88,339.88,0,0,0,26.23,29.08v0c84.51,83.42,166.72,67.87,168.53,5.48v-5.48a113.1,113.1,0,0,0,28.32-.21l-56.85-7.89c-130.91,38-195.86-181.13-195.86-181.13-252.72,4.71-234.09-104.17-232.83-110.36a277.11,277.11,0,0,0-12,51.76S443.86,2168.72,450.48,2198.35Z"/></g><g class="cls-1"><path class="cls-2" d="M795.49,1913.57S729.36,1929,649.15,2044.75L774.38,2084l62.93-147.52"/></g></svg>