<svg width="2286" height="2606" viewBox="0 0 2286 2606" fill="none" xmlns="http://www.w3.org/2000/svg">
<path d="M1142.9 2605.35C1774.09 2605.35 2285.77 2523.81 2285.77 2423.22C2285.77 2391.55 2235.07 2361.78 2145.91 2335.83C2079.35 2367.1 1949.07 2376.04 1873.63 2378.57C1858.02 2379.09 1835.26 2379.53 1809.91 2379.53C1751.96 2379.53 1680.47 2377.2 1649.86 2368.1C1636.26 2374.65 1622.2 2380.94 1607.66 2386.94C1472.28 2442.93 1294.28 2475.05 1119.34 2475.05C896.914 2475.05 701.286 2430.09 559.544 2355.02C554.556 2372.42 544.54 2387.9 525.178 2397.32C513.624 2402.95 502.406 2405.89 491.66 2406.44C490.438 2406.5 489.235 2406.53 488.032 2406.53C456.584 2406.53 429.553 2385.68 410.96 2350.63C401.831 2333.42 396.252 2317.29 390.277 2302.55C388.109 2297.21 385.9 2292.06 383.455 2287.1C148.197 2320.47 0.0471191 2369.08 0.0471191 2423.22C0.0471191 2523.81 511.712 2605.35 1142.9 2605.35Z" fill="#56BFCF"/>
<path d="M1892.97 2091.17C1954.19 2076.01 2157.49 1877.04 2224.27 1920.51C2305.4 1973.32 2180.77 2145.84 1964.39 2241.16C1962.42 2242.02 1963.41 2244.94 1965.49 2244.42C2023.12 2229.94 2154.98 2194.32 2172.93 2274.68C2195.52 2375.88 1677.41 2370.63 1648.93 2348.6L1892.97 2091.17Z" fill="#AD5832"/>
<path d="M1897.14 2131.55C1956.34 2111.36 2120.94 1955.93 2200.94 1955.93C2209.86 1955.93 2217.73 1957.86 2224.28 1962.12C2226.82 1963.78 2229.16 1965.55 2231.3 1967.44C2231.26 1953.31 2225.74 1942.83 2214.5 1935.52C2210.74 1933.08 2205.98 1931.95 2200.39 1931.95C2157.96 1931.95 2068.23 1996.89 2012 2037.61C1968.18 2069.34 1932.45 2095.21 1907.16 2105.3C1904.15 2114.19 1900.81 2122.92 1897.14 2131.55Z" fill="#C68A70"/>
<path d="M1957.25 2262.32C1957.33 2262.32 1957.41 2262.31 1957.5 2262.3C1958.52 2262.18 1959.56 2262.06 1960.63 2261.92C1958.88 2261.53 1957.2 2260.89 1955.64 2260.04C1955.31 2261.05 1955.96 2262.32 1957.25 2262.32ZM1977.05 2259.99C1996.85 2257.73 2020.88 2255.44 2044.93 2255.44C2058.9 2255.44 2072.87 2256.22 2086.02 2258.22C2093.32 2253.39 2098.9 2248.16 2102.45 2242.48C2097.82 2242.08 2093.02 2241.9 2088.11 2241.9C2049.87 2241.9 2004.53 2253.06 1977.05 2259.99Z" fill="#C68A70"/>
<path d="M1809.25 2343.82C1834.01 2343.82 1860.66 2343.32 1888.28 2342.15C2019.45 2336.64 2116.32 2318.41 2147.39 2293.41C2148.4 2292.6 2149.28 2291.82 2150.07 2291.08C2137.41 2271.97 2113.53 2262.4 2086.02 2258.22C2030.46 2294.91 1874.75 2307.78 1750.77 2308.32C1735.52 2319.42 1719.36 2330.02 1702.23 2340.14C1729.18 2342.32 1766.39 2343.82 1809.25 2343.82Z" fill="#793D45"/>
<path d="M2150.07 2291.08C2156.8 2284.69 2155.9 2280.64 2155.44 2278.58C2152.79 2266.68 2147.06 2258.37 2137.39 2252.42C2128.09 2246.69 2116 2243.66 2102.45 2242.48C2098.9 2248.16 2093.32 2253.39 2086.02 2258.22C2113.53 2262.4 2137.41 2271.97 2150.07 2291.08Z" fill="#8A6071"/>
<path d="M1809.91 2379.53C1835.26 2379.53 1858.02 2379.08 1873.63 2378.56C1955.32 2375.83 2101.31 2365.58 2161.07 2327.59C2193.09 2307.23 2193.2 2283.25 2190.41 2270.78C2185.64 2249.4 2174.12 2232.96 2156.18 2221.91C2132.41 2207.27 2100.65 2204.32 2068.22 2206.66C2180.86 2136.8 2261.05 2046.33 2266.81 1975.35C2269.23 1945.63 2257.59 1920.82 2234.05 1905.5C2181.05 1870.99 2084.42 1940.93 1991 2008.58C1949.87 2038.37 1907.34 2069.15 1888.66 2073.78C1879.05 2076.16 1873.19 2085.88 1875.57 2095.48C1877.95 2105.08 1887.65 2110.96 1897.27 2108.56C1922.72 2102.26 1962.12 2073.73 2012 2037.61C2075.62 1991.54 2182.13 1914.45 2214.5 1935.52C2227.03 1943.68 2232.46 1955.75 2231.1 1972.45C2225.77 2038.12 2119.52 2153.25 1957.15 2224.77C1947.73 2228.92 1943.14 2239.4 1946.48 2249.14C1949.82 2258.86 1959.86 2264.32 1969.85 2261.8L1974.66 2260.59C2015.18 2250.36 2099.48 2229.09 2137.39 2252.41C2147.06 2258.36 2152.79 2266.68 2155.44 2278.58C2155.96 2280.88 2157.02 2285.66 2147.39 2293.41C2116.32 2318.41 2019.45 2336.64 1888.29 2342.15C1772.74 2347.01 1674.44 2340.32 1658.87 2333.7C1651.1 2328.5 1640.54 2330.16 1634.75 2337.65C1628.7 2345.48 1630.14 2356.73 1637.97 2362.78C1655.5 2376.33 1742.02 2379.53 1809.91 2379.53Z" fill="#000072"/>
<path d="M498.745 1294.51C498.745 1294.51 311.496 1364.32 286.695 1671.73C280.216 1751.98 293.732 1949.7 317.219 2026.71C343.37 2112.39 388.076 2222.21 503.172 2274.21L498.745 1294.51Z" fill="#7F7F7F"/>
<path d="M498.745 1294.51C498.745 1294.51 311.496 1364.32 286.695 1671.73C280.216 1751.98 293.732 1949.7 317.219 2026.71C343.37 2112.39 388.076 2222.21 503.172 2274.21L498.745 1294.51Z" fill="#AD5832"/>
<path d="M340.737 1529.58C385.297 1435.23 423.616 1399.68 479.245 1365.27C484.674 1355.28 490.192 1345.42 495.832 1335.73C485.803 1332.38 475.685 1328.82 465.55 1325.03C464.457 1326.63 463.082 1328.08 461.425 1329.31C460.42 1330.07 387.288 1386.21 340.737 1529.58Z" fill="#C68A70"/>
<path d="M503.192 2292.12C510.002 2292.12 516.522 2288.21 519.511 2281.58C523.586 2272.56 519.583 2261.95 510.564 2257.88C402.494 2209.06 369.894 2158.09 344.628 2075.28C311.159 1965.5 297.72 1849.43 304.729 1730.3C322.008 1436.33 460.033 1330.35 461.428 1329.32C469.361 1323.43 471.045 1312.22 465.177 1304.29C459.291 1296.35 448.134 1294.63 440.201 1300.45C433.953 1305.03 287.306 1415.98 268.96 1728.18C261.715 1851.59 275.643 1971.89 310.362 2085.73C338.145 2176.77 375.907 2236.37 495.803 2290.53C498.194 2291.61 500.711 2292.12 503.192 2292.12Z" fill="#000072"/>
<path d="M340.567 2039.03C340.567 2117.27 376.351 2188.31 439.105 2248.68C439.316 2248.91 439.58 2249.17 439.862 2249.4C569.777 2373.86 814.447 2453 1096.79 2456.98C1104.26 2457.12 1111.79 2457.16 1119.31 2457.16C1411.14 2457.16 1665.43 2365.97 1798.81 2231.12C1807.95 2221.9 1816.64 2212.81 1824.83 2203.8C1873.29 2150.6 1903.88 2100.08 1903.88 2032.89C1903.88 1872.24 1880.05 1721.59 1837.33 1586.55C1821.74 1537.34 1803.65 1490.17 1783.27 1445.34C1643.76 1138.69 1397.33 941.901 1119.31 941.901C854.584 941.901 620.703 1124.31 479.983 1402.53C478.643 1405.17 477.303 1407.81 475.999 1410.46C465.387 1431.8 455.357 1454.12 445.856 1477.23C379.576 1638.6 341.36 1838.71 340.602 2033.03V2033.88C340.567 2035.59 340.567 2037.33 340.567 2039.03Z" fill="#AD5832"/>
<path d="M340.618 2033.01V2033.86C342.275 2114.21 377.917 2186.99 439.101 2248.66C439.33 2248.89 439.594 2249.15 439.859 2249.38C567.374 2377.29 804.97 2457.14 1077.05 2457.14C1083.62 2457.14 1090.2 2457.1 1096.79 2456.96C1150.36 2456.11 1202.48 2451.68 1252.61 2444.15C1567.86 2396.64 1757.34 2038.74 1637.59 1718.75C1637.09 1717.49 1636.64 1716.24 1636.15 1714.99C1595.94 1608.31 1528.3 1525.4 1445.63 1481.25L1395.83 1454.65C1317.18 1412.68 1198.14 1407.3 1116.67 1441.6L993.334 1493.57C948.685 1512.38 902.149 1519.59 856.336 1515.37C813.872 1511.44 772.501 1496.69 733.756 1473.72L625.913 1409.82C604.549 1399.33 583.45 1391.63 562.544 1386.66C533.283 1379.72 503.775 1386.08 479.996 1402.51C478.656 1405.15 477.299 1407.8 476.012 1410.44C391.313 1581.17 341.464 1810.87 340.618 2033.01Z" fill="#FCD2AC"/>
<path d="M1426.78 2380.21C1585.38 2341.74 1716.95 2274.25 1800.75 2189.52C1809.88 2180.29 1818.57 2171.2 1826.77 2162.19C1841.84 2145.64 1855.19 2129.35 1866.41 2112.74C1871.64 2099.75 1876.05 2086.4 1879.63 2072.7C1873.26 2082.71 1866.34 2092.5 1858.86 2101.94C1858.86 2101.95 1858.85 2101.98 1858.85 2101.99C1858.84 2101.99 1858.84 2101.99 1858.84 2102C1847.31 2116.55 1834.51 2130.27 1820.44 2142.63C1820.44 2142.63 1820.44 2142.62 1820.44 2142.61C1820.44 2142.62 1820.43 2142.62 1820.42 2142.63C1820.42 2142.63 1831.47 2077.91 1835.1 2019.81C1833.01 2022.19 1830.88 2024.56 1828.71 2026.94C1820.51 2035.95 1811.83 2045.04 1802.68 2054.27C1795.6 2061.43 1788.18 2068.47 1780.41 2075.38C1747.92 2116.15 1698.81 2154.63 1624.82 2181.55C1624.82 2181.55 1624.44 2179.85 1623.77 2176.82C1618.55 2179.32 1613.26 2181.78 1607.91 2184.19C1565.14 2264.64 1503.15 2333.02 1426.78 2380.21Z" fill="#793D45"/>
<path d="M1181.86 2414.23C1268.21 2410.45 1350.61 2398.67 1426.79 2380.21C1503.15 2333.02 1565.15 2264.64 1607.92 2184.19C1514.47 2226.46 1403.55 2256.77 1282.26 2271.07C1274.13 2279.59 1265.69 2287.53 1257.48 2294.71C1261.8 2290.99 1264.15 2289.36 1264.76 2289.36C1266.6 2289.36 1253.92 2303.16 1232.99 2319.37C1213.61 2342.07 1198.65 2368.4 1188.93 2396.84C1186.94 2402.66 1184.61 2408.52 1181.86 2414.23ZM1039.46 2413.41C1037.1 2402.32 1036.27 2390.5 1036.38 2379.01C1036.38 2376.69 1036.38 2373.97 1036.33 2370.95C1035.47 2338.12 1027.76 2305.81 1013.37 2276.45C840.746 2264.21 686.319 2223.31 569.457 2161.22C567.776 2169.22 566.025 2176.53 564.396 2182.81C562.312 2190.77 560.876 2198.11 559.966 2205.07C559.966 2205.16 559.948 2205.25 559.931 2205.33V2205.32C557.549 2223.49 558.565 2239.04 560.106 2255.82C561.034 2265.71 562.137 2276.03 562.855 2287.6C562.978 2289.73 563.1 2291.93 563.24 2294.17C686.827 2360.91 853.407 2403.68 1039.46 2413.41ZM469.513 2152.39C469.513 2152.39 469.495 2152.23 469.46 2151.93L468.952 2152.07L469.513 2152.39ZM359.288 1989.73C361.968 1987.86 364.945 1986.25 368.237 1984.94C369.761 1984.33 371.337 1983.79 373.018 1983.31C373.614 1983.2 374.227 1983.08 374.839 1982.98C369.551 1972.9 364.945 1962.63 360.987 1952.19C360.269 1964.71 359.709 1977.24 359.288 1989.73Z" fill="#B0939A"/>
<path d="M1096.78 2456.98C814.444 2453 569.77 2373.86 439.852 2249.39C567.354 2377.3 804.947 2457.16 1077.04 2457.16C1083.62 2457.16 1090.19 2457.12 1096.78 2456.98Z" fill="#F8DEC3"/>
<path d="M1119.33 959.783C1290.35 959.783 1476.31 1063.81 1629.54 1245.22C1827.75 1479.83 1928.49 1792.68 1886.2 2042.21C1863.14 2178.33 1764.81 2283.19 1593.98 2353.84C1462.76 2408.09 1289.77 2439.22 1119.33 2439.22C911.318 2439.22 718.706 2398.23 576.965 2323.81C436.058 2249.82 358.474 2148.68 358.474 2039.01C358.474 1818.98 408.405 1586.98 492.056 1418.41C634.524 1131.23 869.032 959.783 1119.33 959.783ZM1119.33 2475.04C1294.27 2475.04 1472.28 2442.93 1607.66 2386.94C1788.08 2312.34 1896.62 2195.2 1921.53 2048.19C1944.05 1915.35 1929.22 1765.63 1878.66 1615.2C1830.96 1473.3 1754.28 1337.36 1656.91 1222.09C1496.86 1032.63 1300.92 923.953 1119.33 923.953C855.125 923.953 608.627 1102.84 459.968 1402.48C373.959 1575.77 322.626 1813.73 322.626 2039.01C322.626 2287.59 665.139 2475.04 1119.33 2475.04Z" fill="#000072"/>
<path d="M722.469 254.081C718.119 251.161 566.609 79.9442 536.099 42.9195C490.702 -12.1989 423.943 22.0279 453.228 172.986C453.228 172.986 383.569 98.3645 356.081 146.601C315.238 218.281 422.922 225.368 336.047 572.15L722.469 254.081Z" fill="#AD5832"/>
<path d="M470.053 217.152L440.139 185.217C425.755 169.881 398.076 148.266 382.254 148.266C381.632 148.266 381.03 148.305 380.466 148.364C378.794 148.558 375.334 148.966 371.641 155.458C361.281 173.652 363.206 184.789 369.62 208.114C369.795 208.58 369.95 209.028 370.125 209.475C377.667 202.263 388.669 199.6 400.778 199.6C425.774 199.6 455.572 210.932 470.053 217.152Z" fill="#C68A70"/>
<path d="M621.01 214.482C630.852 210.135 640.894 205.949 651.158 201.944C599.335 143.5 532.177 66.2991 522.275 54.3044C512.635 42.5914 502.13 36.1109 493.335 36.1109C490.96 36.1109 488.686 36.5939 486.593 37.5801C476.912 42.1485 468.761 56.9809 465.541 81.6144C470.412 79.0988 475.644 77.8511 481.018 77.8511C495.126 77.8511 510.401 86.344 523.784 102.625C538.355 120.296 580.478 168.556 621.01 214.482Z" fill="#C68A70"/>
<path d="M336.039 572.131L341.601 567.576C346.615 541.764 350.322 518.353 352.971 497.043C348.398 520.136 342.801 545.083 336.039 572.131Z" fill="#7F7F7F"/>
<path d="M446.313 117.523C441.034 127.278 437.128 140.192 435.166 156.265C445.96 165.175 453.202 172.967 453.202 172.967C449.218 152.32 447.039 133.872 446.313 117.523Z" fill="#7F7F7F"/>
<path d="M732.427 239.184C732.692 239.367 733.222 239.693 733.875 240.264C733.426 239.877 732.937 239.51 732.427 239.184ZM336.058 590.066C344.071 590.066 351.37 584.643 353.409 576.508C409.701 351.788 385.663 265.648 371.31 214.167C363.603 186.582 360.402 175.144 371.636 155.469C375.326 148.965 378.792 148.558 380.464 148.374C395.898 146.58 425.196 169.272 440.12 185.216L482.61 230.539L470.805 169.578C455.595 91.1647 468.338 46.1881 486.606 37.5638C496.351 32.9765 510.011 39.3989 522.265 54.3027C538.249 73.692 703.374 262.855 712.508 268.971C720.724 274.455 731.856 272.254 737.341 264.037C742.458 256.391 740.909 246.238 734.058 240.427C722.254 228.765 579.474 67.3919 549.932 31.5085C526.73 3.35223 496.596 -6.73981 471.335 5.16693C439.203 20.2951 424.36 65.4143 429.172 129.352C413.228 118.974 394.308 110.676 376.305 112.776C365.744 114.02 350.983 119.341 340.503 137.732C321.889 170.394 328.474 193.962 336.792 223.811C350.208 271.866 372.655 352.298 318.667 567.802C316.261 577.385 322.092 587.11 331.695 589.516C333.143 589.883 334.611 590.066 336.058 590.066Z" fill="#000072"/>
<path d="M881.688 1516.53C901.033 1516.53 920.444 1514.5 939.69 1510.43V1447.95L940.039 1426.24H946.066C946.564 1424.72 947.179 1423.22 947.909 1421.81C953.007 1411.35 963.651 1403.98 975.209 1402.76H925.193C802.796 1402.76 659.775 1383.07 542.608 1350.08C538.739 1349 534.854 1347.87 530.918 1346.72C522.782 1360.49 514.861 1374.59 507.189 1388.97C517.368 1385.64 528.045 1383.88 538.922 1383.88C546.726 1383.88 554.63 1384.78 562.535 1386.66C583.441 1391.62 604.546 1399.33 625.9 1409.82L733.752 1473.72C772.492 1496.68 813.872 1511.43 856.331 1515.38C864.767 1516.15 873.219 1516.53 881.688 1516.53ZM1673.5 1479.33L1675.9 1472.49C1673.34 1474.78 1670.69 1476.97 1667.95 1479.07L1673.5 1479.33ZM1218.09 1402.7H1237.49L1583.68 1402.48C1594.79 1401.44 1605.39 1395.92 1612.72 1387.4C1616.4 1383.17 1619.26 1378.26 1621.08 1372.99C1622 1370.37 1622.7 1367.64 1623.04 1364.89C1623.33 1363.53 1623.39 1362.13 1623.44 1360.72L1623.55 1358.63V1355.92V1353.08C1617.45 1354.81 1611.27 1356.5 1605 1358.16C1496.86 1386.66 1366.76 1401.62 1218.09 1402.7Z" fill="#793D45"/>
<path d="M925.219 1563.99H939.685V1510.44C920.442 1514.5 901.048 1516.53 881.687 1516.53C873.231 1516.53 864.757 1516.14 856.335 1515.38C813.866 1511.43 772.495 1496.7 733.757 1473.72L625.899 1409.82C604.546 1399.34 583.447 1391.64 562.534 1386.66C554.651 1384.79 546.735 1383.88 538.92 1383.88C528.049 1383.88 517.365 1385.65 507.204 1388.97C502.039 1398.64 496.992 1408.45 492.063 1418.41C481.682 1439.31 471.825 1461.2 462.524 1483.9C604.361 1538.84 791.805 1563.99 925.219 1563.99Z" fill="#B0939A"/>
<path d="M462.514 1483.9C471.803 1461.18 481.669 1439.29 492.045 1418.41C496.969 1408.44 502.03 1398.64 507.175 1388.96C514.868 1374.58 522.781 1360.48 530.916 1346.71C525.125 1345.01 519.232 1343.23 513.306 1341.38C501.69 1361.2 490.568 1381.59 479.971 1402.53C478.63 1405.16 477.288 1407.81 475.997 1410.46C465.384 1431.8 455.348 1454.12 445.855 1477.23C451.323 1479.51 456.876 1481.73 462.514 1483.9ZM1728.25 1339.32C1725.16 1334.06 1722.04 1328.86 1718.86 1323.68C1719.23 1325.92 1719.55 1328.17 1719.62 1330.44C1722.16 1333.01 1725.05 1335.96 1728.25 1339.32Z" fill="#000072"/>
<path d="M1855.61 572.143C1768.73 225.362 1861.62 218.26 1820.78 146.585C1793.3 98.3599 1723.63 172.994 1723.63 172.994C1752.91 22.032 1688.68 -10.0295 1640.75 42.91C1556.75 135.667 1429.53 206.667 1425.17 209.586C1425.17 209.586 1161.71 163.402 1128.92 162.708C1103.16 162.177 506.233 88.9105 341.536 528.162L329.781 565.53C270.29 757.186 239.249 912.719 241.841 1010.29C241.596 1014.82 241.494 1019.39 241.494 1024.03C241.494 1068.54 251.29 1116.38 274.821 1166.99C350.904 1318.75 708.991 1384.86 925.198 1384.86H1200.75C1308.88 1384.86 1915.06 1384.86 1930.9 1032.74C1935.27 935.455 1905.07 762.554 1860.82 592L1855.61 572.143Z" fill="#AD5832"/>
<path d="M369.28 507.418C369.924 506.633 370.568 505.849 371.212 505.064C482.332 271.496 812.635 229.768 1012.06 229.768C1055.42 229.768 1092.58 231.739 1119.98 234.134C1152.29 236.971 1412.8 280.449 1412.8 280.449C1417.1 277.592 1542.85 207.395 1625.89 115.73C1641.59 98.3668 1657.29 88.4879 1670.21 88.4879C1696.24 88.4879 1710.96 128.586 1691.63 228.319C1691.63 228.319 1692.86 227.534 1695.06 226.207L1706.05 169.57C1723.31 80.5407 1705.19 45.4322 1691.74 38.7122C1689.54 37.6057 1687.09 37.0624 1684.47 37.0624C1675.48 37.0624 1664.46 43.4 1654.02 54.9285C1585.38 130.759 1489.06 192.728 1437.76 222.927C1436.3 223.792 1435.32 224.356 1435.14 224.456L1429.17 228.46L1422.08 227.212C1316.73 208.763 1151.61 181.098 1128.53 180.616C1126.96 180.595 1123.52 180.334 1118.39 179.931C1089.78 177.658 1054.92 175.888 1015.88 175.888C811.388 175.888 493.197 224.657 369.28 507.418ZM1807.03 229.627C1807.81 225.402 1808.57 221.398 1809.31 217.595C1814.89 188.523 1817.2 176.491 1805.21 155.466C1801.52 148.967 1798.06 148.565 1796.4 148.364C1795.81 148.304 1795.21 148.263 1794.57 148.263C1778.75 148.263 1751.1 169.892 1736.73 185.203L1702.45 221.921C1718.85 212.726 1750.62 196.872 1774.51 196.872C1788.65 196.872 1800.02 202.425 1803.83 218.199C1804.86 222.464 1805.93 226.267 1807.03 229.627Z" fill="#C68A70"/>
<path d="M223.766 1013.87C223.803 1012.57 223.859 1011.3 223.915 1010.06C221.774 923.729 244.71 794.824 290.583 634.307C236.5 645.607 196.138 663.796 190.795 686.248C183.274 717.749 179.718 760.829 179.252 805.473C179.737 860.598 184.763 915.984 192.824 953.125C195.822 966.865 205.335 989.652 223.766 1013.87Z" fill="#4BA7C3"/>
<path d="M284.606 1019.25C274.514 986.579 267.883 952.643 265.093 917.946C262.955 935.485 261.433 952.009 260.545 967.482C264.586 978.987 269.333 990.637 274.823 1002.45C277.685 1008.18 280.965 1013.76 284.606 1019.25Z" fill="#793D45"/>
<path d="M275.936 773.263C215.659 1032.69 382.178 1291.64 643.535 1342.94C730.041 1359.93 828.172 1369.07 938.461 1369.07C1511.92 1369.07 1681.54 1045.79 1688.89 1029.45C1689.06 1029.05 1689.13 1028.86 1689.13 1028.86C1717.85 972.155 1733.92 908.218 1733.92 840.621C1733.92 606.082 1478.67 404.007 1240.01 415.963C1146.29 420.672 1047.85 464.946 969.749 521.893C894.794 576.523 790.833 570.913 724.633 505.946C694.173 476.019 661.58 453.487 630.034 443.554C540.677 415.467 430.48 435.553 377.892 497.08C260.209 634.813 282.502 745.102 276.69 770.007C276.432 771.092 276.193 772.177 275.936 773.263Z" fill="#FCD2AC"/>
<path d="M1164.67 1350.33H1200.73C1255.69 1350.33 1439.21 1350.33 1608.53 1304.15C1604.72 1300.79 1600.36 1298.08 1595.65 1296.22C1590.44 1294.16 1584.99 1293.13 1579.26 1293.09H1557.55H1514.11H1427.26H1366.35C1308.72 1316.7 1241.88 1336.76 1164.67 1350.33ZM478.564 1276.27C416.925 1236.24 366.081 1182.5 329.34 1120.27C306.648 1111.25 285.511 1100.29 266.617 1088.25C271.679 1111.03 279.418 1133.9 289.797 1156.67C326.917 1206.68 395.969 1246.26 478.564 1276.27ZM1699.2 1273.87C1775.58 1242.9 1842.69 1199.37 1884.82 1138.21C1901.85 1106 1911.27 1070.55 1913 1031.94C1914 1009.58 1913.13 982.599 1910.51 951.879C1862.92 1051.07 1730.35 1132.75 1560.08 1179.14C1541.08 1194.75 1519.61 1210.62 1495.54 1226.12H1507.17H1594.03H1604.89C1605.09 1226.12 1605.29 1226.12 1605.49 1226.12C1608.91 1226.12 1613.12 1226.44 1616.86 1226.6C1620.92 1226.88 1624.95 1227.73 1628.99 1228.29C1633 1229.14 1636.95 1230.24 1640.91 1231.29C1656.52 1236.24 1670.99 1244.65 1683.06 1255.66C1689.05 1261.14 1694.48 1267.25 1699.2 1273.87Z" fill="#793D45"/>
<path d="M310.09 1084.25C300.048 1063.3 291.493 1041.55 284.605 1019.24C280.944 1013.76 277.681 1008.18 274.818 1002.45C269.326 990.636 264.577 978.981 260.535 967.471C259.665 982.624 259.393 996.744 259.755 1009.81V1010.54L259.719 1011.24C259.52 1015.07 259.429 1019.24 259.429 1024.02C259.429 1033.47 259.9 1042.95 260.843 1052.44C274.763 1063.97 291.076 1074.86 310.09 1084.25Z" fill="#542B53"/>
<path d="M925.213 1350.33H1164.67C1241.88 1336.77 1308.73 1316.69 1366.36 1293.1H1079.82H992.963H982.109H979.395H977.975C977.238 1293.08 976.52 1293.08 975.783 1293.01C972.836 1292.81 969.906 1292.22 967.085 1291.25C955.817 1287.42 947.119 1277.25 945.125 1265.48C944.046 1259.74 944.658 1253.31 946.904 1247.74C949.078 1242.13 952.834 1237.42 957.273 1233.78C961.802 1230.24 967.139 1227.68 972.872 1226.69C975.208 1226.21 978.407 1226.12 980.024 1226.12C980.24 1226.12 980.437 1226.12 980.581 1226.12H986.008H1159.73H1495.54C1519.61 1210.61 1541.08 1194.74 1560.09 1179.14C1462.2 1205.81 1351.88 1220.84 1238.08 1220.84C1225.68 1220.84 1213.21 1220.67 1200.74 1220.3H925.213C796.021 1220.3 616.205 1196.7 476.123 1145.34C469.959 1145.74 463.777 1145.92 457.631 1145.92C412.794 1145.92 368.748 1135.98 329.338 1120.27C366.088 1182.5 416.945 1236.26 478.567 1276.28C618.29 1327.03 796.758 1350.33 925.213 1350.33ZM397.303 1111.02C347.937 1085.32 308.294 1054.82 284.608 1019.24C291.509 1041.56 300.063 1063.3 310.109 1084.26C334.549 1096.32 363.41 1105.86 397.303 1111.02Z" fill="#B0939A"/>
<path d="M337.328 2077.79C337.328 2077.79 295.955 2062.86 275.124 2103.96C256.052 2141.59 304.865 2214.37 354.821 2251.61C387.647 2276.07 389.607 2310.38 410.964 2350.63C436.55 2398.86 478.123 2420.21 525.157 2397.32C569.288 2375.85 564.951 2322.87 562.828 2287.6C560.487 2248.89 553.664 2223.91 564.389 2182.81C577.218 2133.73 596.434 2022.08 542.867 2004.09C450.269 1973 469.522 2152.39 469.522 2152.39L337.328 2077.79Z" fill="#FF8E06"/>
<path d="M559.929 2205.33C560.829 2198.3 562.268 2190.86 564.363 2182.8C574.932 2142.49 589.755 2059.95 565.033 2021.79C563.463 2028.73 561.892 2035.14 560.42 2040.87C546.938 2092.42 555.544 2123.77 558.456 2172.32C559.078 2182.4 559.798 2193.68 559.929 2205.33Z" fill="#EF8B01"/>
<path d="M491.656 2406.44C502.395 2405.89 513.617 2402.95 525.174 2397.32C544.53 2387.9 554.55 2372.42 559.544 2355.02H559.527C554.551 2372.42 544.513 2387.9 525.157 2397.32C513.601 2402.94 502.395 2405.89 491.656 2406.44Z" fill="#3C85B3"/>
<path d="M564.046 2316.85C564.046 2308.98 563.656 2301.31 563.233 2294.17C563.233 2294.16 563.233 2294.16 563.217 2294.16C563.639 2301.3 564.03 2308.98 564.046 2316.85Z" fill="#B0939A"/>
<path d="M563.239 2294.17C563.109 2291.93 562.979 2289.73 562.848 2287.6C562.148 2276.03 561.041 2265.71 560.113 2255.82C561.025 2265.71 562.116 2276.04 562.832 2287.6C562.946 2289.72 563.093 2291.92 563.223 2294.16C563.239 2294.16 563.239 2294.16 563.239 2294.17Z" fill="#7B678E"/>
<path d="M559.553 2355.03C563.054 2342.77 564.063 2329.56 564.063 2316.86H564.047C564.047 2329.55 563.054 2342.76 559.537 2355.03H559.553Z" fill="#000072"/>
<path d="M383.448 2287.1C378.006 2276.11 371.409 2266.09 361.628 2257.2C371.409 2266.09 378.006 2276.12 383.448 2287.1Z" fill="#4BA7C3"/>
<path d="M488.036 2406.53C489.241 2406.53 490.445 2406.5 491.667 2406.44C502.401 2405.9 513.613 2402.94 525.161 2397.32C544.521 2387.9 554.546 2372.42 559.541 2355.02C563.048 2342.76 564.04 2329.55 564.04 2316.86C564.04 2308.98 563.65 2301.3 563.225 2294.17C563.084 2291.92 562.96 2289.72 562.836 2287.6C562.127 2276.04 561.029 2265.71 560.108 2255.82C559.452 2248.65 558.886 2241.72 558.638 2234.71C555.095 2265.08 543.494 2294.19 511.257 2309.9C495.103 2317.76 479.481 2321.46 464.638 2321.46C425.21 2321.46 391.309 2295.33 367.982 2251.37C355.743 2228.24 341.75 2218.75 334.86 2218.75C326.73 2218.75 328.519 2232 354.821 2251.6C357.248 2253.41 359.515 2255.28 361.641 2257.2C371.418 2266.1 378.025 2276.12 383.445 2287.1C385.907 2292.06 388.103 2297.21 390.264 2302.55C396.251 2317.29 401.848 2333.42 410.97 2350.61C429.568 2385.67 456.597 2406.53 488.036 2406.53Z" fill="#B26327"/>
<path d="M558.625 2234.66C559.798 2224.9 560.059 2214.95 559.928 2205.33C558.593 2215.71 558.316 2225.25 558.625 2234.66Z" fill="#EF8B01"/>
<path d="M389.237 2175.68C353.337 2131.56 305.465 2002.78 373.018 1983.32C464.98 1965.48 480.004 2101.67 475.222 2150.23L389.237 2175.68Z" fill="#FF8E06"/>
<path d="M483.043 2202.69L483.629 2203C483.629 2203 483.629 2202.83 483.579 2202.51L483.043 2202.69Z" fill="#EF8B01"/>
<path d="M470.154 2075.63C473.521 2048.68 481.297 2021.87 498.063 2008.76C481.314 2021.86 473.521 2048.64 470.137 2075.57C470.154 2075.59 470.154 2075.61 470.154 2075.63ZM576.115 2052.7C572.479 2031.82 564.299 2014.76 548.964 2006.7C564.282 2014.79 572.479 2031.83 576.115 2052.7Z" fill="#FDE0C5"/>
<path d="M475.676 2119.32C484.109 2085.33 505.638 2051.58 538.882 2051.58C544.588 2051.58 550.597 2052.57 556.977 2054.71C557.061 2054.73 557.145 2054.76 557.212 2054.79C558.105 2050.3 559.165 2045.67 560.427 2040.88C561.909 2035.14 563.474 2028.74 565.04 2021.8C571.167 2031.25 574.87 2043.45 576.805 2057.04C576.587 2055.58 576.368 2054.12 576.115 2052.69C572.463 2031.82 564.282 2014.79 548.965 2006.7C548.931 2006.69 548.914 2006.68 548.897 2006.67C548.897 2006.66 548.88 2006.66 548.88 2006.66C546.978 2005.66 544.992 2004.81 542.871 2004.1C535.482 2001.61 528.799 2000.47 522.756 2000.47C512.994 2000.47 504.914 2003.48 498.248 2008.63C498.215 2008.65 498.198 2008.67 498.164 2008.69C498.147 2008.71 498.114 2008.72 498.097 2008.74C498.08 2008.75 498.08 2008.75 498.063 2008.76C481.298 2021.87 473.521 2048.68 470.155 2075.63C470.189 2075.83 470.222 2076.03 470.273 2076.23C471.013 2079.77 471.653 2083.32 472.242 2086.83C473.353 2093.69 474.195 2100.48 474.801 2107C475.188 2111.22 475.474 2115.35 475.676 2119.32ZM472.242 2086.83C473.858 2090.57 474.262 2095.33 474.127 2100.5C473.622 2096.01 473 2091.44 472.242 2086.83Z" fill="#FFB051"/>
<path d="M578.173 2070.97C577.896 2066.26 577.456 2061.65 576.82 2057.19C576.82 2057.19 576.82 2057.19 576.82 2057.18C576.82 2057.14 576.82 2057.09 576.804 2057.04C574.864 2043.45 571.181 2031.26 565.053 2021.8C563.472 2028.74 561.907 2035.15 560.424 2040.88C559.169 2045.67 558.11 2050.3 557.213 2054.79C566.096 2057.82 572.974 2063.46 578.173 2070.97Z" fill="#F4AE4E"/>
<path d="M475.979 2132.21C475.979 2128.15 475.877 2123.84 475.659 2119.35C475.675 2119.34 475.676 2119.33 475.676 2119.32C475.474 2115.35 475.187 2111.22 474.8 2107C475.625 2116.01 475.979 2124.55 475.979 2132.21ZM470.272 2076.23C470.239 2076.03 470.205 2075.83 470.154 2075.63C470.154 2075.61 470.154 2075.59 470.138 2075.57V2075.58C470.188 2075.8 470.239 2076.02 470.272 2076.23Z" fill="#FFB051"/>
<path d="M314.232 2075.44C316.225 2075.23 318.146 2075.14 319.978 2075.14C321.793 2075.14 323.5 2075.23 325.119 2075.37V2075.36C323.518 2075.23 321.81 2075.14 320.014 2075.14C318.164 2075.14 316.225 2075.23 314.232 2075.44Z" fill="#4D4D9D"/>
<path d="M345.057 2082.14C345.057 2082.14 345.057 2082.13 345.057 2082.12L337.347 2077.78C337.347 2077.78 332.421 2076 325.119 2075.37V2075.38C332.421 2076.01 337.33 2077.79 337.33 2077.79L345.057 2082.14Z" fill="#4D4D9D"/>
<path d="M285.126 2170.71C285.487 2164.84 286.771 2159.42 289.248 2154.54C301.309 2130.75 320.277 2125.74 334.092 2125.74C344.128 2125.74 351.451 2128.39 351.451 2128.39L359.208 2132.78L365.013 2136.03C364.579 2135.15 364.163 2134.25 363.729 2133.36C360.673 2126.9 357.762 2120.11 355.086 2113.2C351.288 2103.49 347.961 2093.41 345.375 2083.39C345.267 2082.98 345.159 2082.56 345.05 2082.13L337.329 2077.78C337.329 2077.78 332.411 2076.01 325.105 2075.37C323.496 2075.23 321.778 2075.14 319.97 2075.14C318.144 2075.14 316.209 2075.23 314.22 2075.43C301.237 2076.81 285.596 2083.32 275.126 2103.97C266.447 2121.12 271.871 2145.62 285.126 2170.71Z" fill="#FFB051"/>
<path d="M365.02 2136.04C364.597 2135.15 364.157 2134.25 363.735 2133.36C364.157 2134.25 364.58 2135.15 365.002 2136.03L365.02 2136.04ZM345.378 2083.39C345.255 2082.97 345.149 2082.54 345.044 2082.12V2082.11C345.044 2082.12 345.044 2082.13 345.044 2082.13C345.149 2082.56 345.255 2082.98 345.378 2083.39Z" fill="#FFB051"/>
<path d="M341.265 2064.52V2064.51C341.265 2064.52 341.265 2064.52 341.265 2064.52ZM341.229 2064.32C341.229 2064.28 341.229 2064.23 341.212 2064.19C341.229 2064.23 341.229 2064.27 341.229 2064.32Z" fill="#4D4D9D"/>
<path d="M359.287 1989.74C361.967 1987.87 364.944 1986.26 368.236 1984.94C364.944 1986.25 361.967 1987.86 359.287 1989.73V1989.74Z" fill="#C8B4B8"/>
<path d="M341.2 2064.15C335.938 2032.58 339.293 2003.75 359.279 1989.74V1989.73C339.293 2003.72 335.921 2032.58 341.2 2064.15Z" fill="#4D4D9D"/>
<path d="M464.516 2053.71C464.499 2053.69 464.499 2053.68 464.481 2053.66C464.499 2053.67 464.499 2053.7 464.516 2053.71ZM464.464 2053.57C457.62 2031.7 447.243 2011.44 432.087 1998.05C447.243 2011.44 457.62 2031.69 464.464 2053.57Z" fill="#FDE0C5"/>
<path d="M353.153 2086.69C353.877 2061.16 363.376 2040.78 387.158 2033.93C392.755 2032.85 398.069 2032.33 403.119 2032.33C435.182 2032.33 456.21 2053.21 469.558 2080.91C469.752 2079.12 469.964 2077.37 470.141 2075.58C468.622 2068.25 466.751 2060.89 464.526 2053.72C464.508 2053.71 464.509 2053.67 464.509 2053.66C464.491 2053.63 464.491 2053.6 464.473 2053.58C457.64 2031.69 447.259 2011.45 432.092 1998.06C432.092 1998.05 432.092 1998.05 432.092 1998.05C432.039 1998.01 432.004 1997.97 431.969 1997.93C431.933 1997.92 431.933 1997.9 431.916 1997.88C431.88 1997.87 431.863 1997.85 431.845 1997.84C420.422 1987.83 406.297 1981.72 388.941 1981.72C383.909 1981.72 378.595 1982.23 372.998 1983.33C371.356 1983.8 369.767 1984.34 368.249 1984.94C364.947 1986.26 361.981 1987.87 359.297 1989.75C339.311 2003.75 335.938 2032.59 341.218 2064.15C341.218 2064.16 341.218 2064.17 341.218 2064.19C341.235 2064.23 341.235 2064.28 341.253 2064.33C341.253 2064.39 341.27 2064.45 341.27 2064.51V2064.52C342.259 2070.33 343.53 2076.22 345.049 2082.13L353.153 2086.69Z" fill="#FFB051"/>
<path d="M469.476 2151.94L475.2 2150.25C475.2 2150.23 475.2 2150.23 475.2 2150.22L469.459 2151.93C469.476 2151.93 469.476 2151.94 469.476 2151.94ZM474.796 2107C474.207 2100.48 473.365 2093.69 472.254 2086.83C471.648 2083.32 471.025 2079.77 470.267 2076.23C472.422 2086.7 473.887 2097.13 474.796 2107Z" fill="#FFC886"/>
<path d="M469.449 2151.93L475.194 2150.22C475.699 2145.11 475.985 2139 475.985 2132.21C475.985 2124.55 475.615 2116.01 474.789 2107C473.896 2097.13 472.414 2086.7 470.274 2076.23C470.224 2076.02 470.19 2075.8 470.14 2075.58C469.954 2077.37 469.735 2079.12 469.55 2080.91C468.286 2093.14 467.865 2105.23 467.865 2115.87C467.865 2134.83 469.196 2149.25 469.449 2151.93Z" fill="#FFC886"/>
<path d="M355.097 2113.2C355.079 2113.2 355.079 2113.19 355.079 2113.18C351.331 2103.47 348.005 2093.42 345.383 2083.4C347.969 2093.41 351.296 2103.49 355.097 2113.2Z" fill="#FFC886"/>
<path d="M355.075 2113.18C353.808 2105.08 353.104 2097.15 353.122 2089.65C353.122 2088.66 353.122 2087.67 353.139 2086.69L345.043 2082.12C345.149 2082.54 345.254 2082.97 345.378 2083.39C348 2093.42 351.309 2103.47 355.075 2113.18Z" fill="#FFC886"/>
<path d="M469.473 2151.94L475.205 2150.25C476.688 2135.15 476.267 2111.59 472.255 2086.83C471.395 2084.81 470.502 2082.83 469.558 2080.91C466.017 2114.95 469.069 2147.82 469.473 2151.94Z" fill="#EF8B01"/>
<path d="M468.968 2152.08L469.507 2152.39C469.507 2152.39 469.507 2152.25 469.473 2151.94L468.968 2152.08Z" fill="#EF8B01"/>
<path d="M355.082 2113.2C356.117 2119.65 357.502 2126.19 359.204 2132.78L365.009 2136.04C361.484 2128.78 358.116 2121.08 355.082 2113.2Z" fill="#EF8B01"/>
<path d="M343.414 2060.93C340.56 2059.94 339.106 2059.59 337.07 2059.07C335.198 2058.63 333.307 2058.23 331.417 2057.94C327.672 2057.31 323.855 2057 319.983 2056.93C312.258 2056.82 304.205 2057.97 296.426 2060.64C288.555 2063.17 281.339 2067.8 275.122 2073.06C272.159 2075.84 269.142 2078.63 266.851 2081.78C265.634 2083.32 264.379 2084.86 263.234 2086.44L260.289 2091.29C259.326 2093.01 258.363 2094.32 257.417 2096.42C256.508 2098.46 255.472 2100.53 254.854 2102.63C253.4 2106.8 252.437 2111.05 251.982 2115.12C250.964 2123.35 251.473 2131.07 252.655 2138.28C255.054 2152.71 260.035 2165.23 265.724 2177.04C277.43 2200.44 292.627 2220.65 309.84 2239.13C318.493 2248.33 327.781 2257.01 337.833 2265.06L341.669 2268.05L344.45 2270.34C346.267 2271.7 347.849 2273.27 349.43 2274.82C351.103 2276.29 352.393 2278.13 353.938 2279.72C355.247 2281.57 356.719 2283.22 357.937 2285.22C368.244 2300.27 374.46 2323.19 384.948 2346.26C395.219 2369.04 409.742 2393.71 433.991 2410.61C445.988 2419.04 460.584 2425.19 475.889 2427.18C491.212 2429.26 506.681 2427.15 520.314 2422.46C523.84 2421.43 527.04 2419.95 530.312 2418.54C531.947 2417.8 533.529 2417.2 535.201 2416.33L540.254 2413.5C541.909 2412.51 543.617 2411.62 545.217 2410.52L549.961 2406.97C553.197 2404.71 556.014 2401.89 558.813 2399.04C569.992 2387.55 577.081 2372.97 580.626 2359.13C587.679 2331.11 585.061 2305.45 583.571 2282.04C582.68 2269.79 581.262 2257.94 580.281 2246.75C579.317 2235.61 578.899 2225.19 579.717 2214.96C580.081 2209.83 580.753 2204.74 581.698 2199.63C582.189 2197.08 582.626 2194.52 583.28 2191.96L585.298 2183.66C588.188 2171.72 590.678 2159.78 592.623 2147.7C596.495 2123.54 598.967 2098.98 597.749 2073.35C597.022 2060.52 595.44 2047.4 591.205 2033.88C589.024 2027.13 586.279 2020.3 582.189 2013.61C578.081 2006.95 572.61 2000.48 565.721 1995.34C562.34 1992.71 558.504 1990.61 554.651 1988.8L548.725 1986.46L543.435 1985.03L538.128 1983.66L532.438 1982.83C528.73 1982.15 524.604 1982.21 520.55 1982.25C504.064 1982.31 486.159 1992.1 476.998 2004.54C467.164 2016.86 462.438 2030.13 459.366 2042.84C456.403 2055.64 455.149 2068.23 455.04 2080.63C454.985 2105.42 458.402 2129.51 466.382 2152.72C466.964 2154.41 468.782 2155.3 470.472 2154.73C471.635 2154.32 472.435 2153.32 472.617 2152.19L472.635 2152.05C476.416 2128.52 479.434 2105.48 483.814 2083.52C486.105 2072.58 488.613 2061.9 492.03 2052.11C495.284 2042.31 499.574 2033.33 504.718 2027.43C505.881 2025.72 507.335 2024.84 508.553 2023.52C509.971 2022.7 511.189 2021.49 512.643 2021.02C513.934 2020.17 515.497 2019.97 516.915 2019.43C517.66 2019.19 518.533 2019.25 519.333 2019.11C520.132 2019.02 520.914 2018.76 521.859 2018.91C523.695 2019.02 525.44 2018.85 527.512 2019.37L530.53 2019.84L533.711 2020.78L536.91 2021.69C537.655 2022.04 538.382 2022.37 539.127 2022.66C540.527 2023.42 541.909 2024.12 543.108 2025.17C545.58 2027.13 547.816 2029.76 549.816 2033.11C551.779 2036.5 553.378 2040.63 554.723 2045.08C557.341 2054.03 558.523 2064.41 558.868 2075C559.45 2096.33 556.85 2118.72 552.779 2140.78C550.706 2151.82 548.361 2162.86 545.58 2173.71L543.345 2182.49C542.527 2185.61 541.909 2188.83 541.254 2192.03C540 2198.45 539.055 2205 538.51 2211.57C537.31 2224.75 537.746 2237.87 538.655 2250.1C539.6 2262.32 540.836 2273.79 541.509 2284.96C542.981 2308.17 544.035 2330.24 539.164 2347.94C536.855 2356.8 533.038 2363.88 527.803 2369.23C526.458 2370.55 525.204 2371.97 523.55 2373.01L521.277 2374.78C520.478 2375.33 519.514 2375.74 518.66 2376.25L516.042 2377.77C515.134 2378.27 513.952 2378.68 512.934 2379.15C510.789 2380.04 508.681 2381.1 506.536 2381.64C489.413 2387.5 473.199 2385.32 458.766 2375.22C451.568 2370.23 445.006 2363.31 439.226 2355.36C433.482 2347.42 428.592 2338.42 424.029 2328.5C419.467 2318.69 415.504 2308.16 410.942 2296.86C406.434 2285.64 401.09 2273.33 393.037 2261.48C391.147 2258.5 388.766 2255.68 386.584 2252.82C384.112 2250.13 381.84 2247.25 379.15 2244.8C376.533 2242.26 373.861 2239.77 371.007 2237.59L366.935 2234.36L363.772 2231.98C355.411 2225.51 347.34 2218.28 339.796 2210.5C324.728 2194.98 311.258 2177.37 301.606 2158.91C291.918 2140.71 286.664 2120.26 293.535 2110.46C297.607 2103.05 302.551 2098.08 309.041 2095.56C312.294 2094.3 315.984 2093.52 319.983 2093.41C321.983 2093.37 324.055 2093.43 326.091 2093.7C327.127 2093.8 328.109 2093.99 329.108 2094.17C329.908 2094.31 331.308 2094.69 331.253 2094.64C340.56 2097.99 350.83 2093.17 354.175 2083.86C357.537 2074.55 352.702 2064.28 343.414 2060.93Z" fill="#000072"/>
<path d="M486.424 2066.26C483.692 2053.53 479.931 2040.84 474.538 2028.42C469.146 2016.03 462.103 2003.79 452.311 1992.81C442.608 1981.9 429.375 1972.53 414.332 1968.06C399.307 1963.48 383.696 1963.93 369.789 1966.8L368.902 1966.99L368.334 1967.15C356.928 1970.49 345.362 1977.96 337.93 1988.17C330.266 1998.3 326.772 2009.83 325.282 2020.48C322.372 2042.01 326.097 2061.63 330.993 2080.2C336.226 2098.72 342.932 2116.53 352.369 2132.92C356.981 2141.16 362.232 2149.05 368.104 2156.46C373.922 2163.88 380.503 2170.88 388.096 2176.61C388.77 2177.13 389.728 2177 390.242 2176.32C390.579 2175.86 390.632 2175.26 390.419 2174.77L390.402 2174.73C382.863 2157.88 376.618 2141.32 370.853 2124.57C365.319 2107.8 359.908 2091.1 356.68 2074.19C353.505 2057.43 352.405 2040.19 355.332 2025.64C356.804 2018.41 359.5 2012.19 363.261 2008.03C367.004 2003.85 371.545 2001.09 377.647 1999.48L376.193 1999.83C386.091 1998.29 395.44 1998.77 403.617 2001.6C411.813 2004.3 419.086 2009.53 425.295 2016.87C431.61 2024.08 436.807 2033.15 441.1 2042.95C445.375 2052.78 448.763 2063.38 451.513 2074.29L451.531 2074.38C453.943 2083.98 463.682 2089.81 473.279 2087.4C482.663 2085.05 488.446 2075.64 486.424 2066.26Z" fill="#000072"/>
<path d="M1332.26 2038.32V2038.36C1351.3 2035.89 1371.97 2032 1394.32 2026.37L1332.26 2038.32Z" fill="#000072"/>
<path d="M1332.26 2038.32V2038.36C1351.3 2035.89 1371.97 2032 1394.32 2026.37L1332.26 2038.32Z" fill="#000072"/>
<path d="M1322.16 891.209C1322.16 982.435 1270.49 1056.4 1206.73 1056.4C1142.96 1056.4 1091.28 982.435 1091.28 891.209C1091.28 799.968 1142.96 726.002 1206.73 726.002C1270.49 726.002 1322.16 799.968 1322.16 891.209Z" fill="#000072"/>
<path d="M1215.36 924.553C1215.36 957.014 1201.58 983.342 1184.58 983.342C1167.59 983.342 1153.82 957.014 1153.82 924.553C1153.82 892.076 1167.59 865.748 1184.58 865.748C1201.58 865.748 1215.36 892.076 1215.36 924.553Z" fill="white"/>
<path d="M410.584 891.197C410.584 982.432 462.263 1056.4 526.033 1056.4C589.786 1056.4 641.466 982.432 641.466 891.197C641.466 799.962 589.786 725.994 526.033 725.994C462.263 725.994 410.584 799.962 410.584 891.197Z" fill="#000072"/>
<path d="M1794.57 148.27C1795.21 148.27 1795.81 148.31 1796.4 148.371C1798.06 148.575 1801.52 148.983 1805.21 155.465C1817.2 176.5 1814.89 188.526 1809.31 217.593C1799.42 269.142 1782.85 355.444 1838.24 576.5L1843.5 596.557C1891.03 779.741 1917.01 942.521 1913 1031.94C1906.72 1171.63 1800.03 1269.73 1595.87 1323.51C1486.52 1352.33 1353.59 1366.94 1200.76 1366.94H925.201C711.524 1366.94 362.339 1300.9 290.957 1159.19C270.023 1114.13 259.424 1068.65 259.424 1024.01C259.424 1019.24 259.526 1015.07 259.73 1011.25L259.771 1010.54L259.75 1009.83C257.223 914.474 287.349 762.68 346.888 570.854L358.486 534.022C494.972 170.976 935.331 165.432 1118.41 179.925C1123.53 180.332 1126.97 180.597 1128.54 180.618C1151.62 181.107 1316.73 208.767 1422.08 227.234L1429.17 228.477L1435.14 224.462C1435.33 224.36 1436.31 223.789 1437.76 222.933C1489.06 192.746 1585.38 130.76 1654.02 54.9348C1667.51 40.0347 1681.98 33.8179 1691.75 38.7098C1705.19 45.4363 1723.31 80.5565 1706.05 169.57L1694.18 230.801L1736.73 185.204C1751.1 169.896 1778.75 148.27 1794.57 148.27ZM925.201 1402.76H1200.76C1356.66 1402.76 1492.67 1387.76 1605 1358.16C1702.27 1332.53 1780.21 1296.21 1836.65 1250.19C1907.19 1192.7 1944.91 1119.79 1948.79 1033.53C1952.95 940.748 1926.56 774.013 1878.16 587.507L1872.96 567.715C1819.53 354.385 1835.17 272.994 1844.5 224.339C1850.53 192.949 1854.88 170.243 1836.34 137.731C1825.88 119.346 1811.1 114.026 1800.56 112.782C1782.62 110.703 1763.73 118.918 1747.83 129.252C1752.88 65.962 1738.98 22.2606 1707.78 6.66736C1682.61 -5.90906 1652.58 3.14111 1627.47 30.8826C1562.95 102.142 1471.77 161.192 1421.73 190.789C1374.87 182.615 1160.65 145.457 1129.3 144.804C1128.03 144.764 1125.28 144.539 1121.23 144.213C957.08 131.229 831.295 150.838 754.716 169.57C537.104 222.831 392.445 341.36 324.752 521.894L324.446 522.811L312.686 560.153C252.127 755.302 221.45 910.805 223.917 1010.05C223.713 1014.31 223.59 1018.9 223.59 1024.01C223.59 1073.99 235.372 1124.65 258.588 1174.54L258.812 1175.03C304.715 1266.57 438.47 1320.75 542.608 1350.08C659.771 1383.07 802.8 1402.76 925.201 1402.76Z" fill="#000072"/>
<path d="M192.818 953.12C201.117 991.104 259.425 1098.45 417.208 1113.47C617.125 1132.44 755.743 864.935 730.98 748.358C707.105 636.163 551.522 616.206 511.261 609.47C387.292 588.741 202.68 617.538 190.81 667.43C173.034 742.047 177.281 881.514 192.818 953.12ZM980.346 860.727C980.829 865.205 981.427 869.818 982.102 874.527C1005.11 1036.69 1135.89 1145.22 1272.58 1161.37C1374.02 1173.34 1576.9 1133.08 1638.35 914.923C1660.47 836.408 1661.77 755.384 1639.69 711.957C1601.22 636.259 1487.33 613.6 1436.9 604.876C1431.66 603.969 1426.02 603.12 1420.02 602.444C1316.07 590.401 1114.83 613.156 1046.01 673.799C1046.01 673.799 964.133 711.243 980.346 860.727ZM145.531 599.414C159.678 598.816 177.821 598.449 213.161 592.678C311.652 576.524 456.524 536.166 625.289 592.196C705.484 618.831 771.145 701.168 839.624 713.52C914.704 727.011 950.005 683.064 1015.61 639.116C1072.99 600.649 1153.59 562.202 1304.29 562.241C1439.72 562.28 1541.12 588.258 1622.81 602.309C1669.56 610.396 1687.11 609.219 1706.15 608.042C1715.89 607.443 1726.01 606.826 1740.64 607.463C1788.78 609.528 1823.58 634.214 1819.91 687.02C1815.75 747.104 1743.02 753.704 1707.77 834.266C1672.47 914.788 1654.52 1182.03 1328.92 1210.3C1328.92 1210.3 1140.6 1232.09 1015.99 1054.8C938.116 943.99 900.576 842.237 840.165 838.299C784.038 834.632 762.016 897.09 704.384 995.311C553.664 1252.17 259.463 1125.48 191.428 1017.84C123.354 910.272 180.562 768.701 125.381 713.173C67.8262 655.251 102.085 601.19 145.531 599.414Z" fill="#000072"/>
<path d="M849.094 1112.27C880.585 1112.27 924.59 1105.66 938.943 1099.04C979.446 1080.35 1001.11 1060.95 999.542 1030.67C992.366 1019.86 985.532 1009.19 979.01 998.764C978.995 999.169 978.979 999.558 978.963 999.947C978.948 999.947 978.948 999.947 978.948 999.932C977.718 1023.48 958.93 1039.25 925.649 1054.46C913.056 1060.22 874.467 1065.95 846.775 1065.95C844.268 1065.95 841.856 1065.9 839.552 1065.79C766.733 1062.71 729.778 1048.62 711.457 1031.97C708.577 1029.35 706.164 1026.67 704.141 1023.97C700.28 1018.83 697.852 1013.57 696.358 1008.42C689.975 1018.41 683.36 1027.76 676.542 1036.51C679.826 1067.44 706.476 1106.47 841.093 1112.12C843.646 1112.21 846.323 1112.27 849.094 1112.27Z" fill="#B0939A"/>
<path d="M676.537 1036.52C683.356 1027.76 689.973 1018.4 696.356 1008.4C694.644 1002.47 694.192 996.665 694.317 991.356C694.332 990.484 694.395 989.581 694.519 988.647C694.379 986.732 694.317 984.864 694.317 983.026C683.169 999.81 676.459 1015.61 676.179 1027.07C676.101 1030.09 676.194 1033.27 676.537 1036.52ZM999.531 1030.67C999.469 1029.39 999.36 1028.08 999.22 1026.78C997.819 1014.37 989.1 1000.48 978.933 990.749C978.902 991.465 978.871 992.197 978.809 992.913C978.996 994.921 979.058 996.867 978.996 998.767C985.535 1009.18 992.354 1019.85 999.531 1030.67Z" fill="#000072"/>
<path d="M694.318 991.356C693.669 1019.12 708.558 1060.22 839.546 1065.79C867.283 1066.98 911.904 1060.73 925.634 1054.45C962.787 1037.48 981.912 1019.79 978.635 991.356C976.857 975.957 962.091 957.914 949.15 951.389C916.635 935.047 920.64 935.078 908.704 918.596C884.924 885.741 867.608 880.314 847.415 875.676C778.288 859.797 695.215 953.198 694.318 991.356Z" fill="#FF8E06"/>
<path d="M978.944 990.746C979.083 987.639 978.974 984.409 978.65 981.07C978.14 976.124 976.578 970.93 974.337 965.891C973.363 968.039 972.251 970.126 970.983 972.166C974.801 978.025 977.599 984.347 978.495 990.313C978.65 990.452 978.789 990.592 978.944 990.746ZM694.313 983.033C695.025 981.982 695.736 980.915 696.477 979.864C697.606 976.309 699.167 972.537 701.084 968.596C700.017 966.525 699.105 964.438 698.317 962.367C695.813 969.353 694.422 975.66 694.329 981.07C694.329 981.719 694.313 982.368 694.313 983.033Z" fill="#000072"/>
<path d="M978.804 992.91C978.866 992.199 978.912 991.473 978.943 990.746C978.789 990.592 978.65 990.452 978.495 990.313C978.557 990.669 978.603 991.009 978.65 991.349C978.711 991.875 978.758 992.4 978.804 992.91ZM694.514 988.644C694.808 985.924 695.473 982.987 696.477 979.864C695.735 980.915 695.024 981.982 694.313 983.033C694.313 984.857 694.375 986.727 694.514 988.644Z" fill="#000072"/>
<path d="M846.898 1065.94C874.61 1065.94 913.08 1059.4 925.662 1052.87C955.353 1037.44 973.513 1021.47 977.949 999.156C973.359 996.328 964.193 998.831 962.153 994.983C960.824 992.479 959.077 990.222 956.975 988.151C948.722 995.307 938.227 1001.94 925.662 1008.49C913.049 1015.03 874.425 1021.55 846.697 1021.55C844.208 1021.55 841.813 1021.49 839.541 1021.38C781.859 1018.6 746.696 1007.97 725.444 994.256C717.701 1006.82 712.755 1018.57 711.673 1027.49C730.081 1046.36 767.006 1062.26 839.541 1065.76C841.874 1065.88 844.348 1065.94 846.898 1065.94ZM694.517 988.754C695.166 982.943 697.453 976.065 701.101 968.615C701.101 968.6 701.101 968.599 701.086 968.599C699.169 972.541 697.624 976.312 696.48 979.867C695.491 982.989 694.826 985.926 694.517 988.646C694.517 988.677 694.517 988.723 694.517 988.754Z" fill="#B26327"/>
<path d="M950.244 951.977C950.244 951.962 950.244 951.961 950.229 951.961C949.885 951.767 949.525 951.587 949.18 951.392C916.661 935.058 920.647 935.058 908.734 918.618C897.344 902.883 887.439 893.442 877.998 887.358C887.424 893.442 897.329 902.868 908.704 918.588C920.632 935.073 916.646 935.058 949.15 951.392C949.51 951.587 949.884 951.782 950.244 951.977ZM847.427 875.669C842.092 874.44 836.682 873.871 831.242 873.871C831.167 873.871 831.107 873.871 831.032 873.871C831.092 873.871 831.167 873.871 831.227 873.871C836.667 873.871 842.092 874.44 847.427 875.669Z" fill="#FDE2C9"/>
<path d="M970.993 972.166C965.394 963.578 957.574 955.991 950.234 951.958C950.248 951.973 950.249 951.973 950.249 951.973C957.603 956.006 965.408 963.593 970.993 972.166Z" fill="#5959A3"/>
<path d="M711.446 1031.96C708.582 1029.34 706.149 1026.66 704.132 1023.95C706.149 1026.68 708.582 1029.34 711.446 1031.96ZM978.954 999.947C978.969 999.546 978.985 999.146 979 998.761L978.969 998.73C978.969 999.115 978.954 999.531 978.938 999.916C978.938 999.931 978.938 999.931 978.954 999.947Z" fill="#CCB9BD"/>
<path d="M979.001 998.756C979.044 996.86 978.987 994.921 978.802 992.911C978.802 992.94 978.802 992.968 978.802 992.997C978.958 994.964 979.03 996.86 978.973 998.727C978.973 998.742 979.001 998.756 979.001 998.756Z" fill="#5959A3"/>
<path d="M711.453 1031.97V1030.41C711.484 1029.47 711.546 1028.49 711.669 1027.49C699.457 1014.95 695.407 1001.13 694.526 988.764C694.433 989.66 694.371 990.511 694.34 991.346C694.093 1001.25 695.84 1012.86 704.141 1023.96C706.166 1026.67 708.577 1029.36 711.453 1031.97ZM978.949 999.925C978.964 999.539 978.98 999.137 978.98 998.735C979.041 996.88 978.979 994.963 978.809 993C978.624 995.117 978.346 997.158 977.944 999.167C978.315 999.384 978.639 999.647 978.949 999.925ZM725.443 994.252C748.785 956.347 797.511 910.713 842.635 910.713C850.086 910.713 857.413 911.966 864.524 914.671C879.148 920.282 887.14 937.766 896.956 952.931C906.71 967.988 941.245 972.625 956.982 988.161C962.763 983.137 967.463 977.866 971.003 972.177C965.407 963.597 957.6 956.007 950.257 951.988C949.886 951.787 949.531 951.586 949.16 951.4C916.65 935.061 920.639 935.076 908.705 918.597C897.342 902.876 887.434 893.446 878.004 887.355C870.089 882.27 862.483 879.533 854.615 877.431C852.25 876.813 849.854 876.241 847.427 875.684C842.094 874.447 836.683 873.875 831.226 873.875C831.18 873.875 831.102 873.875 831.041 873.875C777.554 874.015 720.372 929.341 701.111 968.621C705.749 977.572 713.323 986.414 725.443 994.252Z" fill="#FFB55D"/>
<path d="M978.501 990.309C977.595 984.34 974.805 978.026 970.993 972.172C974.805 978.011 977.581 984.34 978.487 990.309C978.501 990.309 978.501 990.309 978.501 990.309Z" fill="#5959A3"/>
<path d="M978.802 992.996C978.802 992.968 978.802 992.939 978.802 992.91C978.759 992.397 978.702 991.869 978.645 991.341C978.602 991.012 978.545 990.67 978.502 990.313C978.502 990.313 978.502 990.313 978.488 990.299C978.545 990.656 978.588 991.012 978.631 991.355C978.688 991.911 978.745 992.454 978.802 992.996Z" fill="#5959A3"/>
<path d="M711.674 1027.49C712.755 1018.57 717.701 1006.82 725.445 994.256C713.327 986.42 705.738 977.579 701.102 968.614C697.454 976.064 695.167 982.942 694.517 988.754C695.398 1001.12 699.448 1014.95 711.674 1027.49ZM977.95 999.155C978.336 997.146 978.63 995.106 978.8 993.004C978.753 992.463 978.707 991.922 978.645 991.366C978.599 991.01 978.553 990.655 978.491 990.299C977.594 984.333 974.812 978.027 970.995 972.169C967.455 977.857 962.772 983.143 956.976 988.151C959.078 990.222 960.824 992.478 962.154 994.982C964.194 998.831 973.359 996.327 977.95 999.155Z" fill="#CD9972"/>
<path d="M831.1 891.767C835.212 891.767 839.324 892.188 843.42 893.122C859.338 896.798 873.122 899.96 894.196 929.102C895.94 931.5 897.311 933.541 898.526 935.316C907.731 948.867 912.061 952.807 941.109 967.402C949.738 971.747 959.878 985.127 960.843 993.428C962.23 1005.56 960.096 1019 918.198 1038.16C908.385 1042.65 866.955 1049 840.305 1047.9C754.531 1044.25 711.434 1025.37 712.228 991.777C712.54 978.725 733.395 944.63 766.664 918.775C780.48 908.028 805.618 891.767 831.1 891.767ZM846.239 1083.84C874.15 1083.84 916.391 1078.39 933.103 1070.74C965.251 1056.04 1001.51 1033.5 996.433 989.332C993.817 966.592 974.425 944.054 957.199 935.394C933.945 923.697 933.399 922.887 928.166 915.193C926.78 913.168 925.222 910.847 923.213 908.09C896.423 871.083 874.867 863.607 851.441 858.218C818.951 850.742 781.04 862.205 744.672 890.49C711.309 916.408 677.152 959.24 676.405 990.936C675.05 1048.66 728.162 1078.98 838.779 1083.69C841.115 1083.8 843.622 1083.84 846.239 1083.84Z" fill="#000072"/>
<path d="M990.998 1446.48H1655.98L1649.41 1262.7L990.998 1256.12L1014 1379.92L990.998 1446.48Z" fill="white"/>
<path d="M957.592 1444.14V2027.08H1706.96V1383.8L1673.5 1479.34L1633.96 1477.42L957.952 1444.14H957.592Z" fill="#2E65FF"/>
<path d="M957.598 1437.21V1492.51H1587.51C1653.2 1492.51 1706.93 1438.76 1706.93 1373.08V1338.97C1706.93 1283.84 1662.24 1239.12 1607.1 1239.12H978.945C967.386 1239.12 957.321 1248.58 957.612 1260.11C957.736 1265.57 960.007 1270.49 963.579 1274.08C967.303 1277.8 972.438 1280.09 978.101 1280.09H1579.54C1610.91 1280.09 1636.56 1305.75 1636.56 1337.12V1358.64C1636.56 1390.03 1610.88 1415.7 1579.5 1415.7H979.111C967.219 1415.7 957.598 1425.34 957.598 1437.21Z" fill="#2E65FF"/>
<path d="M1370.88 1496.85C1428.79 1503.21 1486.69 1504.98 1544.6 1505.84C1559.09 1506.09 1573.49 1506.3 1588.09 1506.32C1604.26 1506.43 1620.44 1503.25 1635.48 1497.36C1665.69 1485.66 1691.12 1462.61 1705.68 1433.8C1712.98 1419.44 1717.78 1403.74 1719.4 1387.71C1719.8 1383.72 1719.86 1379.68 1720.08 1375.67C1720.3 1371.53 1720.12 1368.28 1720.16 1364.55L1720.08 1342.84C1720.13 1339.41 1719.87 1335.14 1719.65 1331.08C1719.59 1326.99 1718.69 1322.96 1718.12 1318.91C1717.59 1314.86 1716.22 1310.96 1715.29 1306.98C1714.17 1303.03 1712.57 1299.25 1711.21 1295.4C1704.87 1280.29 1695.14 1266.68 1683.06 1255.67C1671 1244.65 1656.53 1236.25 1640.9 1231.3C1636.96 1230.24 1633.01 1229.15 1628.99 1228.29C1624.96 1227.73 1620.92 1226.88 1616.85 1226.62C1612.91 1226.43 1608.41 1226.09 1604.89 1226.13H1594.04H1507.17H1159.74H986.015H980.583C979.288 1226.11 975.528 1226.14 972.868 1226.69C967.13 1227.69 961.796 1230.22 957.269 1233.77C952.826 1237.41 949.066 1242.13 946.893 1247.74C944.651 1253.31 944.052 1259.75 945.125 1265.47C947.116 1277.26 955.821 1287.42 967.088 1291.24C969.901 1292.21 972.84 1292.81 975.778 1293.01C976.517 1293.08 977.241 1293.08 977.979 1293.09H979.386H982.101H992.951H1079.82H1427.26H1514.11H1557.55H1579.26C1584.98 1293.12 1590.44 1294.15 1595.65 1296.22C1606.03 1300.32 1614.79 1308.61 1619.44 1318.74C1621.79 1323.81 1623.15 1329.3 1623.44 1334.87L1623.55 1336.96V1339.62V1345.05V1355.92V1358.63L1623.44 1360.72C1623.4 1362.13 1623.34 1363.52 1623.05 1364.89C1622.7 1367.66 1622 1370.37 1621.08 1372.99C1619.26 1378.26 1616.4 1383.17 1612.73 1387.41C1605.39 1395.92 1594.79 1401.44 1583.68 1402.49L1237.49 1402.7H1063.77L975.583 1402.73C963.885 1403.83 953.063 1411.24 947.924 1421.81C946.559 1424.41 945.668 1427.24 944.985 1430.09C944.735 1431.54 944.442 1432.99 944.345 1434.44C944.247 1435.9 944.178 1437.54 944.178 1438.21L944.052 1449.06C943.815 1463.55 943.704 1478.02 943.718 1492.5L943.732 1506.28L957.603 1506.39C971.767 1506.5 985.945 1506.39 1000.12 1506.14C1014.29 1505.8 1028.47 1505.47 1042.64 1504.78C1056.81 1504.17 1070.99 1503.21 1085.16 1502C1099.33 1500.66 1113.49 1499.19 1127.67 1496.85C1130.06 1496.43 1131.68 1494.17 1131.29 1491.78C1130.97 1489.88 1129.48 1488.46 1127.67 1488.17C1113.49 1485.8 1099.33 1484.33 1085.16 1483C1070.99 1481.79 1056.81 1480.83 1042.64 1480.2C1028.47 1479.53 1014.29 1479.2 1000.12 1478.87C985.945 1478.63 971.767 1478.5 957.603 1478.62L971.475 1492.5C971.503 1478.02 971.377 1463.55 971.155 1449.06L971.015 1438.21L971.029 1436.56C971.015 1436.19 971.113 1435.87 971.127 1435.52C971.308 1434.88 971.405 1434.19 971.767 1433.6C972.909 1431.05 975.486 1429.24 978.23 1428.91C978.731 1428.92 978.634 1428.85 979.622 1428.84H982.338L987.756 1428.8L998.619 1428.71H1020.33H1063.77H1237.49H1411.2H1498.08H1541.49H1563.22H1574.07H1579.5L1586.15 1428.38C1603.94 1426.72 1620.81 1417.89 1632.36 1404.45C1638.19 1397.75 1642.73 1389.94 1645.64 1381.54C1647.11 1377.35 1648.21 1373.01 1648.8 1368.59C1649.2 1366.39 1649.33 1364.18 1649.41 1361.95L1649.57 1358.63V1355.92V1345.05V1339.62V1336.86L1649.41 1333.54C1648.97 1324.66 1646.78 1315.86 1643.03 1307.8C1635.57 1291.63 1621.82 1278.62 1605.26 1272.06C1597.03 1268.75 1588.02 1267.09 1579.26 1267.09H1557.55H1514.11H1427.26H1079.82H992.951H982.101H979.386H978.063C977.895 1267.07 977.728 1267.09 977.561 1267.06C976.893 1267.02 976.252 1266.89 975.639 1266.67C973.132 1265.83 971.141 1263.5 970.723 1260.93C970.277 1258.34 971.182 1256.13 973.522 1254.08C974.692 1253.2 976.085 1252.49 977.478 1252.3C977.812 1252.13 980.528 1252.13 983.327 1252.13C984.246 1252.13 985.165 1252.14 986.015 1252.13H1159.74H1507.17H1594.04H1604.89C1608.62 1252.1 1611.35 1252.44 1614.64 1252.53C1617.77 1252.72 1620.85 1253.43 1623.97 1253.82C1627.04 1254.48 1630.08 1255.33 1633.12 1256.11C1645.09 1259.93 1656.24 1266.39 1665.53 1274.89C1674.83 1283.37 1682.35 1293.84 1687.21 1305.46C1688.21 1308.42 1689.49 1311.32 1690.33 1314.34C1690.98 1317.42 1692.1 1320.39 1692.43 1323.54C1692.81 1326.66 1693.58 1329.73 1693.53 1332.89C1693.66 1336.07 1693.9 1339.01 1693.81 1342.84L1693.73 1364.55C1693.66 1368.06 1693.81 1372.06 1693.58 1375.15C1693.32 1378.35 1693.31 1381.58 1692.95 1384.77C1691.6 1397.57 1687.49 1409.97 1681.53 1421.32C1669.51 1443.96 1649.2 1462.14 1625.39 1471.35C1613.48 1475.91 1600.78 1478.42 1587.96 1478.63L1544.6 1479.16C1486.69 1480.02 1428.79 1481.78 1370.88 1488.17C1368.49 1488.42 1366.76 1490.59 1367.02 1492.97C1367.25 1495.05 1368.89 1496.62 1370.88 1496.85Z" fill="#000072"/>
<path d="M939.686 2045.01H1724.86V1376.15C1724.86 1366.26 1716.84 1358.24 1706.93 1358.24C1697.04 1358.24 1689.01 1366.26 1689.01 1376.15V2009.18H975.514V1446.66C975.64 1445.85 975.696 1445 975.696 1444.15C975.696 1434.26 967.841 1426.24 957.949 1426.24H940.035L939.686 1447.95V2045.01Z" fill="#000072"/>
<path d="M996.756 1428.72C1002.56 1428.72 1007.84 1424.81 1009.34 1418.93C1021.22 1372.47 1021.22 1323.34 1009.34 1276.87C1007.57 1269.92 1000.51 1265.7 993.525 1267.49C986.57 1269.27 982.367 1276.35 984.147 1283.32C994.949 1325.57 994.949 1370.24 984.147 1412.5C982.367 1419.45 986.57 1426.53 993.525 1428.31C994.606 1428.59 995.688 1428.72 996.756 1428.72Z" fill="#000072"/>
<path d="M891.471 1874.42C905.049 1844.01 921.461 1815.11 939.686 1787.93V1734.45C911.651 1773.34 887.141 1815.98 869.262 1861.85C869.262 1861.85 876.483 1867.21 891.471 1874.42Z" fill="#B0939A"/>
<path d="M975.516 1739.33C1070.84 1620.97 1194.03 1542.53 1242.56 1520.46C1251.97 1516.21 1264.66 1514.38 1279.54 1514.38C1337.48 1514.38 1428.59 1542.12 1488.45 1562.79C1504.26 1568.27 1520.69 1570.97 1537.03 1570.97C1565.49 1570.98 1593.67 1562.76 1617.88 1546.54C1650.15 1524.91 1673.04 1502.74 1689.02 1481.11V1458.96C1688.82 1459.21 1688.61 1459.45 1688.4 1459.7L1678.64 1487.56L1657.2 1486.5C1650.32 1490.79 1643.06 1494.43 1635.49 1497.35C1629.52 1499.7 1623.35 1501.61 1617.09 1503.07C1613.26 1505.85 1609.25 1508.64 1605.1 1511.43C1580.89 1527.65 1552.7 1535.84 1524.25 1535.84C1507.91 1535.84 1491.49 1533.15 1475.67 1527.69C1447.67 1517.99 1412.83 1506.77 1377.74 1497.57C1375.46 1497.33 1373.17 1497.09 1370.88 1496.85C1369.63 1496.69 1368.51 1496.02 1367.8 1495.02C1364.35 1494.15 1360.92 1493.32 1357.49 1492.51H1215.26C1162.42 1520.15 1060.17 1589.17 975.516 1688.78V1739.33Z" fill="#2047D4"/>
<path d="M1215.26 1492.49H1357.48C1324.49 1484.66 1292.42 1479.24 1266.83 1479.24C1251.91 1479.24 1239.19 1481.08 1229.78 1485.36C1225.5 1487.31 1220.64 1489.68 1215.26 1492.49Z" fill="#2047D4"/>
<path d="M1617.09 1503.05C1623.35 1501.62 1629.52 1499.7 1635.48 1497.36C1643.05 1494.42 1650.32 1490.78 1657.19 1486.51L1639.09 1485.63C1632.38 1491.46 1625.06 1497.27 1617.09 1503.05ZM1377.74 1497.57C1374.43 1496.7 1371.11 1495.85 1367.8 1495.01C1368.51 1496.02 1369.61 1496.69 1370.88 1496.84C1373.17 1497.09 1375.45 1497.33 1377.74 1497.57ZM1688.39 1459.7C1688.61 1459.45 1688.81 1459.21 1689.02 1458.96V1457.9L1688.39 1459.7Z" fill="#000072"/>
<path d="M939.685 1787.93C951 1771.06 963.013 1754.85 975.514 1739.33V1688.78C971.203 1693.85 966.947 1699 962.734 1704.24C954.837 1714.02 947.136 1724.11 939.685 1734.45V1787.93ZM1689.01 1481.11C1699.41 1467.07 1706.86 1453.26 1712.09 1439.99V1392.03L1689.01 1457.89V1458.95V1481.11Z" fill="#000072"/>
<path d="M1142.91 1964.59L1135.05 1956.44C1127.2 1956.84 1119.55 1957.08 1112.08 1957.21L1142.91 1964.59ZM1242.59 1530.88C1288.57 1510.03 1413.18 1547.21 1488.43 1573.2C1531.78 1588.18 1579.79 1582.47 1617.88 1556.95C1775.9 1451.1 1709.04 1331.82 1707.51 1329.13C1712.29 1333.44 1970.82 1567.53 1932.97 1928.74C1926.24 1993.18 1887.78 2083.47 1820.43 2142.63C1820.43 2142.63 1841.3 2020.34 1835.09 1961.08C1818.73 2032.68 1769.02 2129.09 1624.82 2181.53C1624.82 2181.53 1600.72 2073.31 1594.58 2037.75L1585.47 2038.72C1543.77 2087.4 1462.12 2151.92 1316.58 2165.7C1316.58 2165.7 1333.47 2050.33 1332.27 2038.37C1337.34 2037.7 1342.5 2036.97 1347.85 2036.09L1345.9 2035.72L1332.27 2038.33V2038.37C1152.76 2061.57 1112.04 1957.22 1112.04 1957.22C952.844 1960.02 882.031 1907.37 882.031 1907.37C962.014 1702.05 1174.91 1561.63 1242.59 1530.88Z" fill="#AD5832"/>
<path d="M1623.77 2176.82H1623.78C1622.95 2173.05 1621.65 2167.2 1620.06 2159.95V2159.96C1621.65 2167.2 1622.94 2173.06 1623.77 2176.82ZM1780.36 2075.43C1780.38 2075.41 1780.4 2075.4 1780.41 2075.38C1808.18 2040.55 1823.81 2004.06 1832.46 1971.68C1823.8 2004.07 1808.16 2040.58 1780.36 2075.43Z" fill="#793D45"/>
<path d="M1620.06 2159.96V2159.95C1618.05 2150.82 1615.56 2139.45 1612.92 2127.24C1615.56 2139.46 1618.05 2150.82 1620.06 2159.96Z" fill="#B0939A"/>
<path d="M1624.82 2181.55C1698.81 2154.63 1747.92 2116.15 1780.41 2075.38C1780.4 2075.4 1780.38 2075.41 1780.36 2075.43C1747.87 2116.17 1698.77 2154.63 1624.82 2181.53C1624.82 2181.53 1624.45 2179.84 1623.78 2176.82H1623.77C1624.44 2179.85 1624.82 2181.55 1624.82 2181.55ZM1820.44 2142.63C1834.51 2130.27 1847.32 2116.55 1858.83 2101.99C1847.32 2116.54 1834.51 2130.26 1820.44 2142.61C1820.44 2142.62 1820.44 2142.63 1820.44 2142.63ZM1858.84 2101.98C1858.84 2101.97 1858.86 2101.95 1858.86 2101.94C1858.85 2101.95 1858.85 2101.96 1858.84 2101.98Z" fill="#542B53"/>
<path d="M1131.98 1956.6C1133 1956.56 1134.02 1956.5 1135.07 1956.45H1135.06C1134.02 1956.5 1133 1956.55 1131.96 1956.59L1131.98 1956.6Z" fill="#2047D4"/>
<path d="M1624.83 2181.53C1698.78 2154.64 1747.87 2116.18 1780.36 2075.44C1808.16 2040.59 1823.8 2004.07 1832.46 1971.69C1833.42 1968.1 1834.3 1964.55 1835.1 1961.07C1841.28 2019.96 1820.73 2140.98 1820.45 2142.61C1834.51 2130.26 1847.32 2116.54 1858.84 2102C1858.84 2101.99 1858.84 2101.99 1858.85 2101.99C1858.86 2101.97 1858.86 2101.96 1858.87 2101.95C1902.47 2046.83 1927.64 1979.7 1932.95 1928.73C1935.73 1902.31 1936.89 1876.55 1936.72 1851.55C1918.4 1902.13 1886.2 1955.87 1840.97 1995.59C1840.97 1995.59 1837.78 1919.57 1831.6 1860.27C1815.21 1931.88 1789.55 1982.07 1645.39 2034.51C1645.39 2034.51 1672.51 1957.22 1662.89 1906.48C1662.89 1906.48 1530.02 1998.31 1384.46 2012.1C1384.46 2012.1 1264.59 2008.32 1299 1917.43C1285.61 1919.16 1272.49 1919.97 1259.64 1919.97C1143.8 1919.96 1050.94 1854.59 995.634 1813.99C970.999 1846.86 948.797 1882.53 930.958 1920.68C906.439 1911.8 891.475 1903.13 885.309 1899.19C884.208 1901.9 883.106 1904.63 882.048 1907.36C882.048 1907.36 948.211 1956.58 1096.44 1957.32C1097.5 1952.55 1100.51 1948.23 1105.1 1945.63C1107.87 1944.06 1110.91 1943.31 1113.9 1943.31C1120.13 1943.31 1126.2 1946.57 1129.5 1952.4L1129.85 1953.02C1130.52 1954.21 1131.24 1955.41 1131.98 1956.59C1133.01 1956.55 1134.04 1956.5 1135.07 1956.45V1956.46H1135.08L1141.66 1963.3L1142.91 1964.59L1142.92 1964.6L1136.34 1963.03C1140.43 1968.61 1145.17 1974.02 1150.29 1978.92C1154.15 1983.07 1158.86 1986.43 1163.21 1990.12C1165.54 1991.81 1167.99 1993.37 1170.35 1995.02C1172.74 1996.65 1175.02 1998.41 1177.67 1999.7C1182.85 2002.38 1187.7 2005.63 1193.28 2007.7C1198.71 2010 1203.98 2012.73 1209.79 2014.31C1221 2018.39 1232.92 2020.85 1244.85 2023.38L1263.13 2025.86C1266.17 2026.39 1269.27 2026.48 1272.39 2026.61L1281.72 2027.13C1286.21 2027.56 1290.74 2027.7 1295.29 2027.7C1303.27 2027.7 1311.31 2027.25 1319.37 2027.16L1324.1 2027.02L1328.84 2026.56L1338.34 2025.81C1344.7 2025.34 1351.1 2025.08 1357.56 2024.95C1366.28 2024.26 1375.04 2023.7 1384.04 2023.7C1388.31 2023.7 1392.61 2023.84 1397 2024.13L1397.12 2024.14C1397.6 2024.17 1398.08 2024.45 1398.33 2024.92C1398.75 2025.67 1398.49 2026.61 1397.75 2027.02C1385.96 2033.59 1373.54 2038.61 1360.95 2043.16C1357.33 2044.19 1353.67 2045.18 1350.01 2046.11C1349.18 2057.1 1347.95 2067.12 1346.73 2077.36L1342.8 2107.77L1337.62 2144.83C1344.92 2143.85 1352.23 2142.83 1359.47 2141.6L1381.37 2136.78L1392.33 2134.38C1395.97 2133.57 1399.46 2132.24 1403.03 2131.2L1424.37 2124.59C1427.97 2123.63 1431.35 2122.06 1434.8 2120.69L1445.11 2116.5C1459.12 2111.44 1471.96 2104.02 1485.1 2097.25C1510.39 2081.88 1533.31 2063.58 1555.35 2044.26L1563.62 2036.94L1571.53 2029.26C1577.15 2024.37 1581.96 2018.82 1587.32 2013.61C1597.45 2002.86 1607.74 1991.51 1617.28 1979.99L1617.71 1979.47C1618.84 1978.11 1620.54 1977.27 1622.37 1977.27C1622.77 1977.27 1623.17 1977.32 1623.57 1977.4C1626.85 1978.05 1628.98 1981.25 1628.32 1984.54C1624.96 2001.29 1618.21 2016.12 1610.13 2030.48C1605.99 2037.3 1601.8 2044.2 1596.95 2050.55C1600.9 2070.98 1607.27 2101.05 1612.93 2127.25C1615.56 2139.45 1618.05 2150.82 1620.07 2159.95C1621.66 2167.21 1622.96 2173.05 1623.79 2176.83C1624.45 2179.85 1624.83 2181.53 1624.83 2181.53Z" fill="#793D45"/>
<path d="M1712.52 1339.95C1709.92 1333.43 1707.78 1329.61 1707.51 1329.14L1707.5 1329.12C1707.75 1329.56 1709.89 1333.39 1712.52 1339.95ZM1714.93 1336.17C1712.17 1333.46 1710.09 1331.51 1708.84 1330.36C1710.09 1331.51 1712.15 1333.46 1714.93 1336.17Z" fill="#000072"/>
<path d="M1712.65 1340.29C1713.46 1339.04 1714.31 1337.85 1715.08 1336.62C1715.03 1336.47 1715 1336.32 1714.93 1336.18C1712.15 1333.47 1710.11 1331.52 1708.84 1330.36C1708.13 1329.7 1707.69 1329.3 1707.51 1329.14C1707.78 1329.62 1709.92 1333.43 1712.52 1339.96C1712.57 1340.07 1712.61 1340.18 1712.65 1340.29Z" fill="#793D45"/>
<path d="M885.309 1899.19C888.485 1891.45 891.846 1883.8 895.38 1876.25C894.021 1875.63 892.719 1875.02 891.475 1874.41C888.156 1881.85 885.008 1889.37 882.047 1896.99C882.047 1896.99 883.12 1897.79 885.309 1899.19Z" fill="#FDE0C5"/>
<path d="M1831.61 1476.81C1816.65 1451.7 1801.47 1429.33 1787.1 1409.87C1792.47 1419.42 1797.7 1429.01 1802.81 1438.7C1811.91 1450.02 1821.62 1462.75 1831.61 1476.81Z" fill="#98F4EE"/>
<path d="M1802.8 1438.68C1797.69 1429.01 1792.45 1419.4 1787.09 1409.87C1763.95 1378.51 1742.9 1354.72 1728.25 1339.33C1733.56 1348.33 1738.77 1357.49 1743.86 1366.75C1755.63 1380.03 1769.52 1396.73 1784.35 1416.56C1790.11 1423.21 1796.3 1430.59 1802.8 1438.68Z" fill="#4D4D9D"/>
<path d="M1743.87 1366.74C1738.77 1357.48 1733.55 1348.33 1728.25 1339.33C1725.06 1335.97 1722.17 1333 1719.62 1330.45C1719.64 1330.67 1719.65 1330.87 1719.65 1331.08C1719.83 1334.54 1720.06 1338.17 1720.09 1341.28C1726.23 1347.49 1734.37 1356.01 1743.87 1366.74Z" fill="#4D4D9D"/>
<path d="M1720.09 1341.29C1720.06 1338.17 1719.84 1334.54 1719.65 1331.09C1719.65 1330.88 1719.63 1330.67 1719.63 1330.45C1712.46 1323.24 1708.08 1319.27 1707.5 1318.75C1707.83 1319.33 1711.35 1325.61 1714.94 1336.17C1715.02 1336.26 1715.11 1336.33 1715.2 1336.43C1716.64 1337.84 1718.27 1339.47 1720.09 1341.29Z" fill="#4D4D9D"/>
<path d="M1712.09 1450.42C1720.92 1428 1723.39 1407.11 1722.74 1389.19C1722.22 1404.6 1719.26 1421.79 1712.09 1439.98V1450.42Z" fill="#4D4D9D"/>
<path d="M895.363 1876.25C900.507 1865.28 906.006 1854.49 911.805 1843.93C911.834 1843.9 911.848 1843.86 911.876 1843.83C911.933 1843.73 912.005 1843.59 912.062 1843.49C920.624 1827.95 929.886 1812.89 939.674 1798.3V1787.91C921.437 1815.09 905.037 1844 891.459 1874.41C892.713 1875.01 894.01 1875.62 895.363 1876.25Z" fill="#C8B4B8"/>
<path d="M975.516 1749.72C1070.84 1631.39 1194.06 1552.93 1242.59 1530.89C1252 1526.63 1264.7 1524.78 1279.6 1524.78C1337.52 1524.78 1428.59 1552.52 1488.44 1573.2C1504.24 1578.68 1520.68 1581.38 1537.02 1581.38C1565.49 1581.38 1593.69 1573.16 1617.89 1556.95C1650.16 1535.34 1673.04 1513.17 1689.02 1491.53V1481.11C1673.04 1502.74 1650.15 1524.91 1617.88 1546.54C1593.67 1562.76 1565.49 1570.99 1537.03 1570.97C1520.69 1570.97 1504.26 1568.27 1488.45 1562.79C1428.59 1542.12 1337.48 1514.38 1279.54 1514.38C1264.66 1514.38 1251.97 1516.21 1242.56 1520.47C1194.03 1542.53 1070.84 1620.97 975.516 1739.33V1749.72Z" fill="#637FE1"/>
<path d="M939.685 1798.31C940.201 1797.53 940.732 1796.74 941.262 1795.96C952.116 1779.95 963.599 1764.53 975.514 1749.73V1739.33C963.013 1754.85 951 1771.06 939.685 1787.93V1798.31ZM1689.01 1491.53C1699.39 1477.51 1706.86 1463.7 1712.09 1450.43V1439.99C1706.86 1453.26 1699.41 1467.07 1689.01 1481.11V1491.53Z" fill="#4D4D9D"/>
<path d="M885.303 1899.18C893.089 1880.2 902.003 1861.76 911.817 1843.94C906.003 1854.48 900.503 1865.27 895.36 1876.24C891.832 1883.8 888.475 1891.44 885.303 1899.18ZM911.874 1843.83C911.932 1843.71 912.003 1843.6 912.074 1843.48C912.003 1843.6 911.932 1843.73 911.874 1843.83ZM995.616 1813.97C1092.62 1684.52 1226.94 1598.43 1278.17 1575.15C1287.58 1570.89 1300.26 1569.06 1315.14 1569.06C1373.05 1569.06 1464.17 1596.8 1524.04 1617.47C1539.85 1622.94 1556.27 1625.66 1572.61 1625.66C1601.07 1625.66 1629.27 1617.43 1653.48 1601.22C1811.49 1495.37 1744.62 1376.08 1743.09 1373.43C1744.28 1374.48 1760.74 1389.36 1784.35 1416.56C1769.52 1396.72 1755.64 1380.02 1743.86 1366.73C1734.36 1356 1726.24 1347.49 1720.08 1341.28C1718.28 1339.46 1716.64 1337.83 1715.19 1336.42C1715.16 1336.49 1715.12 1336.55 1715.08 1336.62C1719.26 1349.06 1723.48 1367.33 1722.75 1389.19C1723.39 1407.12 1720.92 1428 1712.09 1450.42C1706.86 1463.69 1699.39 1477.5 1689.02 1491.53C1673.04 1513.16 1650.15 1535.33 1617.88 1556.95C1593.68 1573.15 1565.48 1581.37 1537.01 1581.37C1520.67 1581.37 1504.24 1578.66 1488.44 1573.19C1428.58 1552.52 1337.51 1524.77 1279.6 1524.77C1264.7 1524.77 1251.98 1526.62 1242.58 1530.89C1194.06 1552.93 1070.83 1631.39 975.516 1749.71C963.588 1764.53 952.117 1779.94 941.26 1795.96C944.103 1791.76 946.988 1787.6 949.931 1783.49C959.345 1786.96 974.845 1798.71 995.616 1813.97Z" fill="#C68A70"/>
<path d="M911.808 1843.94C911.837 1843.9 911.851 1843.87 911.865 1843.83C911.851 1843.87 911.822 1843.91 911.808 1843.94ZM912.063 1843.49C920.635 1827.95 929.886 1812.9 939.673 1798.3C929.886 1812.89 920.635 1827.95 912.063 1843.49Z" fill="#A395B0"/>
<path d="M939.685 1798.31C940.201 1797.54 940.732 1796.73 941.262 1795.96C940.732 1796.74 940.201 1797.53 939.685 1798.31Z" fill="#4D4D9D"/>
<path d="M930.946 1920.67C948.788 1882.51 970.988 1846.86 995.616 1813.97C974.845 1798.71 959.345 1786.96 949.931 1783.49C946.988 1787.6 944.103 1791.76 941.26 1795.96C940.731 1796.73 940.203 1797.53 939.674 1798.3C929.888 1812.9 920.646 1827.94 912.074 1843.48C912.003 1843.6 911.931 1843.71 911.874 1843.83C911.846 1843.87 911.846 1843.9 911.817 1843.94C902.003 1861.76 893.089 1880.2 885.303 1899.18C891.46 1903.12 906.417 1911.79 930.946 1920.67Z" fill="#A1787D"/>
<path d="M1715.08 1336.61C1715.11 1336.55 1715.16 1336.49 1715.19 1336.41C1715.1 1336.33 1715.02 1336.24 1714.93 1336.16C1714.98 1336.31 1715.02 1336.45 1715.08 1336.61Z" fill="#A1787D"/>
<path d="M1291.45 1930.99C1273.9 1932.55 1256.54 1934.52 1239.27 1936.6L1187.31 1940.6L1161.4 1941.54L1148.49 1942.18C1144.19 1942.34 1139.88 1942.18 1135.56 1942.2L1109.8 1942.07C1101.23 1941.99 1092.7 1941.36 1084.16 1941.04C1050.06 1939.07 1016.18 1935.16 983.376 1927.64C975.303 1925.43 967.099 1923.55 959.083 1921.24C951.183 1918.6 943.051 1916.46 935.425 1913.31C927.626 1910.52 920.144 1907.18 912.749 1903.77C909.211 1901.9 905.47 1900.19 902.105 1898.22C898.826 1896.4 894.97 1894.05 892.962 1892.62L899.115 1914.01C914.916 1875.38 935.252 1838.57 958.967 1803.88L977.426 1778.28L997.299 1753.69L1002.28 1747.55L1007.58 1741.66L1018.18 1729.89C1021.74 1725.99 1025.17 1721.97 1028.83 1718.14L1039.98 1706.86C1069.63 1676.71 1101.54 1648.66 1135.23 1622.96C1143.77 1616.71 1152.14 1610.21 1160.82 1604.16C1169.56 1598.25 1178.08 1591.91 1187.01 1586.34L1200.3 1577.76C1204.75 1574.95 1209.28 1572.34 1213.76 1569.62C1218.25 1566.89 1222.76 1564.24 1227.31 1561.83C1231.86 1559.44 1236.41 1556.65 1240.91 1554.57L1247.7 1551.25L1251.08 1549.61L1253.54 1548.86C1256.38 1547.54 1260.8 1547.05 1264.82 1546.26C1273.64 1545.42 1283.22 1545.2 1293.21 1546.05C1313.11 1547.5 1333.74 1551.22 1354.19 1555.76C1395.24 1564.97 1436.14 1577.6 1476.54 1591.46C1499.4 1599.39 1524.45 1602.96 1548.91 1601.13C1573.44 1599.28 1597.59 1592.31 1619.37 1580.72L1627.4 1576.14C1630.03 1574.51 1632.58 1572.77 1635.15 1571.08C1640.11 1567.67 1644.42 1564.17 1649.09 1560.7L1655.95 1555.5L1659.39 1552.89L1662.64 1550L1675.64 1538.37C1692.39 1522.14 1708.02 1504.08 1720.09 1483.02C1731.95 1461.97 1740.53 1438.28 1743.07 1413.61C1745.71 1388.96 1743.17 1363.91 1735.33 1340.37L1733.76 1335.95L1732.98 1333.75C1732.67 1332.97 1733.54 1335.2 1733.64 1335.91C1733.86 1336.89 1734.12 1338.25 1734.15 1339.44C1734.28 1341.94 1733.86 1344.66 1732.9 1347.07C1731.01 1351.94 1727.56 1355.32 1723.49 1357.27C1719.5 1359.23 1713.97 1359.78 1709.04 1357.95C1706.6 1357.06 1704.52 1355.71 1702.96 1354.32C1701.76 1353.17 1702.59 1353.95 1702.52 1353.89L1702.85 1354.23L1704.22 1355.62C1707.86 1359.26 1711.5 1363.02 1715.07 1366.84C1722.23 1374.44 1729.24 1382.28 1736.05 1390.27C1749.7 1406.26 1762.73 1422.85 1775.06 1439.94C1824.4 1508.33 1863.02 1584.54 1887.31 1664.99C1899.25 1705.27 1907.54 1746.57 1912.24 1788.27C1916.66 1829.99 1917.17 1872.12 1913.75 1914.01C1913.28 1919.16 1913.07 1924.69 1912.38 1929.53C1911.8 1934.43 1911.17 1939.34 1910.18 1944.28C1908.5 1954.13 1905.94 1963.97 1903.19 1973.75C1897.51 1993.3 1889.79 2012.43 1880.66 2030.79C1862.33 2067.47 1837.91 2101.3 1807.73 2128.17L1839.37 2145.86C1841.87 2130.4 1844.02 2115.32 1845.94 2099.98C1847.87 2084.7 1849.57 2069.36 1850.95 2053.96C1852.37 2038.55 1853.49 2023.06 1853.99 2007.36C1854.46 1991.62 1854.67 1975.88 1852.88 1959.12C1851.83 1949.28 1842.99 1942.16 1833.16 1943.21C1823.4 1944.25 1816.33 1952.93 1817.23 1962.67L1817.25 1962.88C1818.51 1976.43 1818.17 1991.2 1817.49 2005.85C1816.79 2020.56 1815.49 2035.43 1813.89 2050.31C1812.31 2065.18 1810.43 2080.08 1808.32 2094.96C1806.19 2109.79 1803.95 2124.82 1801.45 2139.39L1792.3 2192.81L1833.11 2157.07C1867.93 2126.57 1895.32 2089.1 1916.04 2048.62C1926.33 2028.31 1935.08 2007.21 1941.68 1985.24C1944.9 1974.23 1947.89 1963.11 1949.96 1951.64C1951.14 1945.96 1951.96 1940.16 1952.71 1934.31C1953.55 1928.43 1953.78 1923.13 1954.34 1917.51C1958.36 1873.14 1958.21 1828.34 1953.89 1783.92C1949.45 1739.51 1940.32 1695.64 1927.8 1652.89C1902.13 1567.47 1861.44 1487.11 1809.57 1415.05C1796.6 1397.03 1782.88 1379.54 1768.45 1362.58C1761.23 1354.1 1753.82 1345.78 1746.13 1337.62C1742.32 1333.54 1738.44 1329.51 1734.43 1325.49L1732.95 1324L1732.57 1323.63L1731.39 1322.49C1729.32 1320.65 1726.65 1318.92 1723.59 1317.84C1717.39 1315.53 1710.4 1316.16 1705.19 1318.72C1699.9 1321.25 1695.45 1325.67 1693.05 1331.79C1691.89 1334.84 1691.35 1338.23 1691.51 1341.41C1691.6 1342.94 1691.83 1344.64 1692.17 1345.94C1692.36 1346.98 1693.3 1349.54 1693.14 1349.08L1693.7 1350.7L1694.86 1353.93C1700.68 1371.48 1702.57 1390.44 1700.58 1408.84C1698.69 1427.3 1692.22 1445.18 1682.9 1461.81C1673.37 1478.4 1660.43 1493.38 1646.16 1507.22L1634.92 1517.22L1632.13 1519.72L1629.09 1522.02L1623.02 1526.61C1618.99 1529.59 1614.87 1532.92 1610.93 1535.64L1605.08 1539.44L1599.03 1542.92C1582.62 1551.74 1564.35 1557.13 1545.71 1558.65C1526.97 1560.08 1508.3 1557.58 1490.22 1551.44C1448.69 1537.43 1406.68 1524.63 1363.16 1515.07C1341.36 1510.38 1319.25 1506.41 1295.97 1504.8C1284.39 1503.89 1272.22 1504.04 1259.54 1505.4C1252.93 1506.61 1246.53 1507.4 1239.32 1510.28L1234.09 1512.18L1230.2 1514.11L1222.4 1517.95C1217.11 1520.46 1212.42 1523.35 1207.4 1526.04C1202.41 1528.72 1197.61 1531.58 1192.86 1534.5C1188.09 1537.4 1183.26 1540.22 1178.58 1543.22L1164.62 1552.34C1146.09 1564.54 1128.27 1577.66 1110.72 1591.12C1075.81 1618.24 1042.8 1647.78 1012.03 1679.62L1000.48 1691.55C996.693 1695.58 993.111 1699.82 989.414 1703.95L978.408 1716.41L972.919 1722.65L967.72 1729.15L947.008 1755.25L927.727 1782.49C902.913 1819.48 881.523 1858.96 864.914 1900.68L859.613 1914.05L871.081 1922.08C876.223 1925.68 879.963 1927.74 884.325 1930.18C888.557 1932.58 892.789 1934.5 897.035 1936.66C905.571 1940.53 914.136 1944.23 922.845 1947.27C931.468 1950.71 940.321 1953 949.088 1955.81C957.899 1958.26 966.781 1960.3 975.649 1962.47C1011.28 1970.2 1047.49 1972.86 1083.37 1972.71C1092.34 1972.54 1101.32 1972.71 1110.24 1972.26L1136.98 1970.1C1141.41 1969.7 1145.88 1969.46 1150.3 1968.93L1163.54 1967.13L1189.94 1963.18C1207.43 1960.06 1224.72 1955.99 1241.98 1952.18C1259.05 1947.39 1276.04 1942.46 1292.84 1937.13C1294.5 1936.61 1295.42 1934.83 1294.89 1933.16C1294.44 1931.73 1293.05 1930.86 1291.61 1930.98L1291.45 1930.99Z" fill="#000072"/>
<path d="M1097.97 1969.37C1105.11 1983.32 1114.28 1994.9 1124.91 2005.1C1130.06 2010.38 1135.96 2014.66 1141.63 2019.24C1144.57 2021.37 1147.68 2023.24 1150.71 2025.21C1153.77 2027.14 1156.76 2029.22 1160.01 2030.74C1172.66 2037.59 1185.94 2043.05 1199.52 2046.77L1209.72 2049.5C1211.41 2049.93 1213.1 2050.45 1214.8 2050.8L1219.95 2051.68C1226.83 2052.71 1233.69 2054.03 1240.56 2054.71L1261.13 2055.99C1267.99 2056.52 1274.78 2055.83 1281.57 2055.69C1295.21 2055.67 1308.52 2053.39 1321.87 2051.92C1325.2 2051.58 1328.51 2051.07 1331.76 2050.29L1341.56 2048.13C1348.08 2046.65 1354.54 2044.96 1360.94 2043.15C1373.53 2038.6 1385.94 2033.58 1397.74 2027.01C1398.48 2026.6 1398.74 2025.66 1398.32 2024.91C1398.06 2024.44 1397.6 2024.16 1397.1 2024.13L1397 2024.12C1383.37 2023.19 1370.4 2023.93 1357.56 2024.94C1351.08 2025.07 1344.68 2025.33 1338.33 2025.79L1328.83 2026.55L1324.09 2027.01L1319.36 2027.15C1306.73 2027.3 1294.12 2028.31 1281.7 2027.12L1272.37 2026.6C1269.26 2026.47 1266.16 2026.38 1263.11 2025.85L1244.84 2023.37C1232.91 2020.84 1220.99 2018.38 1209.77 2014.29C1203.97 2012.72 1198.7 2009.99 1193.26 2007.7C1187.69 2005.62 1182.83 2002.37 1177.65 1999.7C1175.01 1998.4 1172.72 1996.63 1170.33 1995.02C1167.96 1993.35 1165.52 1991.79 1163.2 1990.11C1158.84 1986.42 1154.13 1983.06 1150.27 1978.91C1142.13 1971.12 1134.95 1962.03 1129.84 1953.02L1129.49 1952.39C1124.61 1943.78 1113.68 1940.75 1105.08 1945.61C1096.69 1950.36 1093.62 1960.87 1097.97 1969.37Z" fill="#000072"/>
<path d="M1835.45 1871.58C1831.42 1904.69 1824.84 1937.01 1814.9 1967.46C1809.95 1982.72 1804.11 1997.56 1797.41 2011.97C1790.82 2026.45 1783.08 2040.42 1773.94 2053.5C1764.86 2066.6 1754.52 2078.91 1742.85 2089.92L1738.56 2094.14L1734.03 2098.09C1730.98 2100.71 1728 2103.42 1724.91 2105.99C1718.46 2110.82 1712.36 2116.08 1705.53 2120.45C1678.95 2138.83 1649.54 2153.45 1618.68 2164.69L1642.3 2177.64L1626.46 2104.98L1618.82 2068.65C1616.36 2056.6 1613.89 2044.39 1611.87 2032.73L1611.84 2032.53C1610.15 2022.78 1600.88 2016.24 1591.14 2017.93C1581.39 2019.61 1574.85 2028.88 1576.53 2038.63C1578.75 2051.45 1581.22 2063.57 1583.73 2075.86L1591.42 2112.46L1607.32 2185.42L1611.67 2205.37L1630.93 2198.36C1664.18 2186.25 1696.41 2170.32 1725.97 2149.87C1733.52 2145.01 1740.41 2139.14 1747.59 2133.72C1751.07 2130.85 1754.42 2127.83 1757.83 2124.87L1762.93 2120.41L1767.77 2115.65C1780.91 2103.23 1792.64 2089.3 1803.57 2074.81C1814.45 2060.27 1824.23 2044.77 1832.02 2028.29C1839.83 2011.83 1845.74 1994.51 1849.68 1976.82C1853.65 1959.15 1855.57 1941.1 1855.32 1923.14C1855.06 1905.13 1853.06 1887.44 1847.27 1869.9C1846.21 1866.71 1842.79 1865 1839.62 1866.05C1837.32 1866.81 1835.78 1868.8 1835.51 1871.05L1835.45 1871.58Z" fill="#000072"/>
<path d="M1617.27 1979.98C1607.73 1991.51 1597.45 2002.85 1587.32 2013.61C1581.95 2018.82 1577.14 2024.36 1571.53 2029.26L1563.61 2036.93L1555.36 2044.25C1533.3 2063.58 1510.39 2081.88 1485.1 2097.25C1471.96 2104.01 1459.12 2111.44 1445.11 2116.5L1434.79 2120.69C1431.35 2122.06 1427.97 2123.62 1424.36 2124.59L1403.02 2131.2C1399.46 2132.24 1395.96 2133.57 1392.33 2134.38L1381.37 2136.78L1359.47 2141.6C1344.71 2144.11 1329.75 2145.73 1314.9 2147.87L1334.32 2168.31L1342.8 2107.77L1346.72 2077.36C1347.96 2067.11 1349.17 2057.09 1350.01 2046.11C1350.75 2036.25 1343.37 2027.65 1333.51 2026.89C1323.63 2026.14 1315.03 2033.53 1314.28 2043.39V2043.41L1314.25 2043.7C1313.55 2052.96 1312.36 2063.11 1311.16 2073.02L1307.3 2103.01L1298.87 2163.11L1295.55 2186.75L1318.28 2183.55C1334.16 2181.31 1350.12 2179.53 1365.96 2176.84L1389.56 2171.66L1401.36 2169.04C1405.29 2168.16 1409.11 2166.74 1412.98 2165.62L1436.14 2158.42C1440.05 2157.36 1443.75 2155.67 1447.52 2154.18L1458.78 2149.61C1474.05 2144.04 1488.19 2135.87 1502.9 2128.9L1523.99 2116.48L1529.28 2113.37L1534.31 2109.86L1544.33 2102.74C1551.11 2098.13 1557.37 2092.81 1563.43 2087.27L1572.54 2079.01L1580.92 2069.97C1583.71 2066.94 1586.49 2063.95 1589.12 2060.81L1596.61 2051.01C1601.61 2044.52 1605.89 2037.45 1610.13 2030.47C1618.21 2016.11 1624.96 2001.3 1628.32 1984.54C1628.97 1981.24 1626.85 1978.05 1623.57 1977.39C1621.31 1976.94 1619.1 1977.81 1617.71 1979.47L1617.27 1979.98Z" fill="#000072"/>
<path d="M1572.66 1317.61C1528.98 1316.52 1485.29 1316.03 1441.61 1315.6L1310.55 1315L1179.47 1315.6L1113.95 1316.33L1048.42 1317.61L1113.95 1318.87L1179.47 1319.6L1310.55 1320.2L1441.61 1319.59C1485.29 1319.18 1528.98 1318.68 1572.66 1317.61Z" fill="#000072"/>
<path d="M1572.66 1376.14C1528.98 1375.08 1485.29 1374.56 1441.61 1374.15L1310.55 1373.55L1179.47 1374.15L1113.95 1374.87L1048.42 1376.14L1113.95 1377.42L1179.47 1378.15L1310.55 1378.73L1441.61 1378.13C1485.29 1377.72 1528.98 1377.22 1572.66 1376.14Z" fill="#000072"/>
<path d="M1572.66 1346.87C1528.98 1345.8 1485.29 1345.29 1441.61 1344.88L1310.55 1344.27L1179.47 1344.87L1113.95 1345.6L1048.42 1346.87L1113.95 1348.15L1179.47 1348.88L1310.55 1349.46L1441.61 1348.87C1485.29 1348.46 1528.98 1347.94 1572.66 1346.87Z" fill="#000072"/>
<path d="M1181.18 2215.89C1214.28 2173.55 1268.13 2037.93 1166.17 2008.41C1089.14 1986.12 1060.85 2135.3 1070.83 2193.87L1181.18 2215.89Z" fill="#FF8E06"/>
<path d="M1076.92 2100.88C1076.92 2100.88 1031.29 2032.16 974.451 2075.12C931.835 2107.34 960.801 2190.66 1002.03 2256.11C1025.15 2292.82 1036.74 2335.62 1036.39 2378.99C1036.05 2419.18 1046.89 2463.37 1095.37 2466.15C1151.73 2469.37 1176.72 2432.51 1188.92 2396.84C1202.3 2357.68 1225.6 2322.53 1256.78 2295.32C1299.69 2257.88 1349.2 2199.97 1328.64 2144.41C1295.57 2055.13 1223.01 2116.68 1223.01 2116.68L1076.92 2100.88Z" fill="#FF8E06"/>
<path d="M1048.12 2437.59C1044.1 2430.32 1041.32 2422.09 1039.48 2413.4H1039.46C1041.3 2422.09 1044.09 2430.32 1048.11 2437.59H1048.12Z" fill="#B0939A"/>
<path d="M1039.47 2413.4C1037.12 2402.31 1036.3 2390.48 1036.4 2378.99C1036.41 2376.3 1036.4 2373.62 1036.31 2370.95C1036.37 2373.96 1036.38 2376.69 1036.37 2379.01C1036.27 2390.49 1037.1 2402.32 1039.45 2413.4H1039.47Z" fill="#7B678E"/>
<path d="M1102.19 2466.36C1131.75 2466.36 1152.07 2454.77 1166.24 2438.44H1166.23C1152.07 2454.77 1131.74 2466.35 1102.17 2466.35C1099.97 2466.35 1097.7 2466.28 1095.38 2466.15C1071.63 2464.79 1056.92 2453.49 1048.12 2437.59H1048.11C1056.91 2453.5 1071.64 2464.8 1095.4 2466.16C1097.71 2466.3 1099.98 2466.36 1102.19 2466.36Z" fill="#000072"/>
<path d="M1233 2319.37C1253.92 2303.16 1266.6 2289.36 1264.76 2289.36C1264.14 2289.36 1261.8 2290.99 1257.48 2294.71C1257.25 2294.92 1257.02 2295.12 1256.79 2295.33C1248.26 2302.78 1240.31 2310.81 1233 2319.37Z" fill="#7B678E"/>
<path d="M1102.18 2466.35C1131.75 2466.35 1152.07 2454.77 1166.23 2438.44C1167.45 2437.04 1168.62 2435.62 1169.73 2434.15C1178.4 2422.87 1184.49 2409.78 1188.91 2396.83C1198.64 2368.41 1213.58 2342.09 1232.98 2319.39C1228.57 2322.81 1223.79 2326.34 1218.68 2329.87C1189.46 2350.13 1150.06 2370.39 1111.62 2370.39C1110.87 2370.39 1110.12 2370.38 1109.37 2370.37C1057.66 2369.29 1042.01 2323.43 1030.1 2296.91C1033.91 2312.82 1035.97 2349.47 1036.32 2370.95C1036.4 2373.62 1036.41 2376.31 1036.4 2378.99C1036.3 2390.49 1037.12 2402.32 1039.48 2413.41C1041.32 2422.09 1044.1 2430.32 1048.12 2437.59C1056.92 2453.49 1071.63 2464.79 1095.39 2466.15C1097.7 2466.28 1099.97 2466.35 1102.18 2466.35ZM1232.98 2319.39C1232.99 2319.38 1233 2319.38 1233 2319.37C1240.3 2310.81 1248.26 2302.78 1256.78 2295.33C1257.02 2295.12 1257.25 2294.92 1257.48 2294.71C1257.27 2294.9 1257.04 2295.1 1256.81 2295.31C1248.26 2302.77 1240.3 2310.82 1232.98 2319.39Z" fill="#B26327"/>
<path d="M1030.11 2323.43C1028 2314.43 1025.36 2305.55 1022.08 2296.92C1023.79 2306.23 1026.33 2315.15 1030.11 2323.43Z" fill="#EF8B01"/>
<path d="M1223.17 2115.75C1224.13 2109.73 1224.81 2103.72 1225.11 2097.77C1224.81 2103.71 1224.13 2109.72 1223.17 2115.72C1223.17 2115.73 1223.17 2115.74 1223.17 2115.75ZM1086.15 2070.08C1089.49 2061.15 1093.33 2052.67 1097.67 2045H1097.66C1093.31 2052.67 1089.47 2061.14 1086.15 2070.08Z" fill="#FDE0C5"/>
<path d="M1097.68 2045.01H1097.69C1106.61 2029.31 1117.66 2016.95 1130.96 2010.68C1130.95 2010.68 1130.95 2010.67 1130.95 2010.67C1117.63 2016.94 1106.58 2029.31 1097.68 2045.01Z" fill="#4D4D9D"/>
<path d="M1206.46 2032.76C1197.23 2022.07 1184.1 2013.59 1166.16 2008.39C1160.87 2006.87 1155.81 2006.14 1150.99 2006.14C1143.81 2006.14 1137.13 2007.74 1130.93 2010.65C1130.94 2010.65 1130.94 2010.67 1130.96 2010.67C1137.14 2007.75 1143.82 2006.16 1150.99 2006.16C1155.82 2006.16 1160.88 2006.88 1166.16 2008.42C1184.1 2013.61 1197.23 2022.08 1206.46 2032.76Z" fill="#4D4D9D"/>
<path d="M1223.17 2115.72C1224.14 2109.72 1224.8 2103.71 1225.11 2097.77C1226.38 2073.4 1221.54 2050.16 1206.46 2032.76C1197.22 2022.08 1184.1 2013.6 1166.16 2008.41C1160.88 2006.88 1155.82 2006.16 1151 2006.16C1143.82 2006.16 1137.14 2007.76 1130.95 2010.67C1117.63 2016.94 1106.59 2029.3 1097.68 2045C1093.33 2052.67 1089.48 2061.15 1086.14 2070.08C1082.47 2079.92 1079.42 2090.33 1076.94 2100.88L1078.04 2101L1090.93 2102.4C1104.36 2072.98 1124.02 2051.34 1150.44 2051.34C1155.27 2051.34 1160.33 2052.05 1165.61 2053.58C1201.61 2064.02 1218.18 2087.61 1223.17 2115.72Z" fill="#FFB051"/>
<path d="M1090.91 2102.41C1090.92 2102.4 1090.92 2102.4 1090.92 2102.4L1078.04 2101L1090.91 2102.41Z" fill="#FFB051"/>
<path d="M1223.03 2116.66C1223.06 2116.64 1223.12 2116.58 1223.22 2116.49C1223.14 2116.57 1223.06 2116.63 1223.03 2116.66ZM1306.51 2108.61V2108.6C1304.27 2106.58 1302.01 2104.84 1299.7 2103.35C1302.01 2104.84 1304.27 2106.58 1306.51 2108.61Z" fill="#FDE0C5"/>
<path d="M1333.44 2170.48C1333.36 2161.79 1331.86 2153.08 1328.64 2144.42C1322.42 2127.6 1314.8 2116.13 1306.51 2108.6V2108.61C1314.79 2116.15 1322.41 2127.61 1328.64 2144.42C1331.85 2153.08 1333.35 2161.79 1333.44 2170.48Z" fill="#4D4D9D"/>
<path d="M1329.99 2195.48C1332.29 2187.22 1333.52 2178.87 1333.44 2170.48C1333.34 2161.79 1331.85 2153.08 1328.64 2144.42C1322.41 2127.61 1314.79 2116.14 1306.51 2108.61C1304.28 2106.58 1302.01 2104.85 1299.7 2103.36C1291.44 2098.04 1282.77 2096.03 1274.34 2096.03C1249.07 2096.03 1226.04 2114.2 1223.26 2116.48C1223.25 2116.49 1223.24 2116.5 1223.23 2116.5C1223.13 2116.58 1223.06 2116.64 1223.03 2116.66C1223.01 2116.68 1222.99 2116.7 1222.99 2116.7C1220.49 2131.75 1216.14 2146.7 1210.82 2160.63L1222.45 2161.89C1222.45 2161.89 1246.85 2141.2 1273.78 2141.2C1293.31 2141.2 1314.17 2152.07 1328.06 2189.61C1328.77 2191.58 1329.41 2193.5 1329.99 2195.48Z" fill="#FFB051"/>
<path d="M1069.77 2185.57C1071.07 2172.77 1073.27 2159.28 1076.37 2146.07C1079.95 2130.76 1084.78 2115.8 1090.92 2102.41L1078.05 2101L1076.92 2100.88C1076.73 2100.59 1061.17 2077.33 1037.01 2066.47C1029.63 2063.16 1021.48 2061 1012.71 2061C1000.9 2061 988 2064.9 974.474 2075.13C954.365 2090.31 950.199 2116.92 955.754 2147.64C958.851 2136.62 964.711 2127.26 973.891 2120.32C987.417 2110.1 1000.33 2106.21 1012.12 2106.21C1039.4 2106.21 1060.78 2127.01 1070.53 2138.55C1069.45 2148.65 1068.92 2158.37 1068.92 2167.34C1068.92 2173.87 1069.21 2180 1069.77 2185.57Z" fill="#FFB051"/>
<path d="M1076.92 2100.88C1076.92 2100.88 1076.93 2100.87 1076.93 2100.86C1076.37 2100.04 1060.9 2077.19 1037 2066.46C1061.18 2077.33 1076.72 2100.59 1076.92 2100.88Z" fill="#FDE0C5"/>
<path d="M1078.05 2101L1076.95 2100.88C1076.95 2100.88 1076.95 2100.88 1076.93 2100.86C1076.93 2100.87 1076.92 2100.88 1076.92 2100.88L1078.05 2101Z" fill="#FFB051"/>
<path d="M1210.82 2160.63L1222.45 2161.89C1225.06 2146.39 1225.68 2130.84 1223.26 2116.48C1223.21 2116.25 1223.18 2115.98 1223.18 2115.76C1223.13 2116.07 1223.08 2116.38 1222.99 2116.7C1220.49 2131.75 1216.14 2146.7 1210.82 2160.63Z" fill="#EF8B01"/>
<path d="M1069.79 2185.58C1071.09 2172.77 1073.29 2159.29 1076.37 2146.08C1076.37 2146.08 1074.35 2142.99 1070.55 2138.56C1068.67 2156.02 1068.44 2172.37 1069.79 2185.58Z" fill="#EF8B01"/>
<path d="M1183.54 2217.73C1192.42 2211.5 1200.01 2203.72 1206.61 2195.38C1213.36 2187.06 1219.11 2178.04 1224.16 2168.61C1234.1 2149.66 1241.12 2128.87 1243.81 2106.52C1245.09 2095.35 1245.21 2083.74 1243.43 2071.96C1241.7 2060.21 1237.96 2048.24 1231.82 2037.18C1225.71 2026.11 1216.99 2016.28 1207.01 2008.76C1197.02 2001.2 1185.92 1995.85 1174.83 1992.3C1163.5 1988.41 1148.8 1986.31 1135.07 1989.66C1121.27 1993 1109.48 2000.73 1100.51 2009.41C1082.51 2027.08 1072.97 2047.96 1065.98 2068.55C1062.6 2078.93 1059.98 2089.4 1058.16 2099.95C1056.27 2110.46 1054.96 2121.04 1054.76 2131.71C1054.57 2142.35 1055.27 2153.04 1057.23 2163.62C1059.27 2174.16 1062.35 2184.76 1067.9 2194.38C1068.78 2195.9 1070.73 2196.43 1072.24 2195.54C1073.05 2195.08 1073.57 2194.34 1073.75 2193.5L1073.78 2193.38C1078.42 2173.05 1083.01 2154.47 1087.46 2135.72C1089.74 2126.42 1091.8 2117.14 1094.29 2108.03C1096.91 2098.96 1099.66 2090.01 1102.9 2081.39C1109.24 2064.26 1117.26 2047.68 1127.63 2036.53C1132.81 2031.01 1138.39 2027.26 1144.12 2025.49C1150.02 2023.99 1156.07 2024.1 1163.74 2026.62C1180.14 2031.3 1192.49 2041.19 1198.94 2054.61C1205.51 2068.09 1206.58 2085.2 1205.32 2102.82C1204.02 2120.53 1200.26 2138.9 1195.63 2157.41C1190.96 2176.04 1185.51 2194.67 1178.84 2214.05L1178.8 2214.16C1178.25 2215.79 1179.11 2217.57 1180.74 2218.13C1181.7 2218.46 1182.76 2218.27 1183.54 2217.73Z" fill="#000072"/>
<path d="M1102.03 2484.25C1138.36 2484.25 1183.19 2469.03 1205.87 2402.64C1218.33 2366.18 1240 2333.75 1268.56 2308.82C1337.8 2248.39 1364.39 2189.39 1345.43 2138.2C1333.53 2106.06 1315.25 2086.54 1291.08 2080.21C1251.2 2069.75 1213.03 2101.65 1211.43 2103.01C1203.87 2109.41 1202.95 2120.72 1209.34 2128.26C1215.76 2135.81 1227.06 2136.74 1234.59 2130.34C1241.65 2124.44 1264.06 2110.09 1282.09 2114.89C1294.24 2118.13 1304.26 2130.15 1311.83 2150.64C1329.58 2198.56 1277.58 2253.4 1245 2281.82C1211.7 2310.88 1186.45 2348.65 1171.98 2391.05C1157.9 2432.23 1133.85 2450.44 1096.41 2448.26C1085.85 2447.65 1053.75 2445.82 1054.3 2379.13C1054.69 2331.58 1041.87 2285.74 1017.19 2246.57C979.929 2187.41 954.044 2113.01 985.255 2089.41C996.615 2080.83 1007.58 2077.55 1018.74 2079.42C1043.35 2083.52 1061.86 2110.58 1062.03 2110.85C1067.54 2119.03 1078.68 2121.23 1086.87 2115.75C1095.07 2110.25 1097.31 2099.19 1091.84 2090.97C1090.77 2089.34 1064.86 2050.93 1024.89 2044.12C1003.69 2040.52 983.094 2046.14 963.666 2060.84C910.824 2100.78 941.003 2192.83 986.866 2265.67C1007.89 2299.02 1018.81 2338.16 1018.47 2378.84C1017.75 2466.54 1065.71 2482.39 1094.36 2484.03C1096.86 2484.18 1099.42 2484.25 1102.03 2484.25Z" fill="#000072"/>
<path d="M577.346 924.548C577.346 957.024 563.558 983.342 546.575 983.342C529.576 983.342 515.804 957.024 515.804 924.548C515.804 892.072 529.576 865.754 546.575 865.754C563.558 865.754 577.346 892.072 577.346 924.548Z" fill="white"/>
</svg>
