<svg id="Layer_1" data-name="Layer 1" xmlns="http://www.w3.org/2000/svg" viewBox="0 0 2525.04 2782.73"><defs><style>.cls-1{fill:#ff3939;}.cls-2{opacity:0.4;}.cls-3{fill:#fff;}.cls-4{opacity:0.3;}.cls-5{fill:#000076;}.cls-6{fill:#31a1f4;}.cls-7{fill:#ffd03b;}.cls-8{fill:#5f5f82;}.cls-9{opacity:0.35;}</style></defs><path class="cls-1" d="M1245.42,1373.21c-302.67-177.6-480.17,92.48-795.08,277.2-180.53,102.29-329.46,162.46-409.2,318.92s45.14,171.5,161,141.41c275.37-73.22,243.66-318.08,398.67-69.2,61.68,105.31,264.77,107.32,378.36,13S1556.07,1636.11,1245.42,1373.21Z"/><g class="cls-2"><path class="cls-3" d="M35.88,2014.09c99-140.09,399.32-290.83,614.93-446.8,181.65-135.41,290-222.29,329.46-244.85-112.41,6-447,293.32-552.48,340.61C310.35,1720.69,20.67,1886.26,35.88,2014.09Z"/></g><g class="cls-4"><path class="cls-5" d="M1139.64,1920.86c-80.29,42.42-429.52,298.12-526.82,44.7-40.62-79-85.78-92.35-85.78-92.35s-146.19,171.1-268.66,217.86C99.06,2143-17.09,2119.52,16,2016c228.76,69.3,463.94-252.9,693.14-434,182-149.69,441.86-210.38,498.49-187.56S1449.83,1642.22,1139.64,1920.86Z"/></g><path class="cls-5" d="M113,2139.45C9,2141.88-31.55,2066.84,26.81,1962,107.33,1799.6,283,1727.36,442.4,1636.39c149.45-79.19,395.89-306,531.68-335.45,247.93-9.18,380.86,89,392.89,275-9.47,213.88-251.72,387.48-377.55,491-68.94,57.21-173,83.72-265.17,67.51C579.52,2120.14,559.71,1951.42,482.63,1945,401.07,2034.79,259.9,2139.85,113,2139.45Zm905.5-810c-160,5.88-394.34,252.67-560.22,334.92-155.67,88.73-329.45,160.95-402.78,312.25-17.75,34.83-34.57,81.75-13.88,107.51,113.17,86.42,352.09-77.32,422.65-166,43.75-18.16,89,16,150.41,115.26,20.68,35.31,61.58,59.95,115.16,69.37,102,18.27,200.63-20.24,272.83-87.8,106.93-85.09,329.44-262.16,332.11-439.52C1325,1417.51,1217.75,1343.49,1018.49,1329.47Z"/><path class="cls-5" d="M472.9,1947.82c-68.43-.94,119.94-167.15,343.05-367.94,233.82-196.2,469.67-225,468.77-185.4,2.65,34.59-207.08-3.43-447.79,209.84C593.79,1809.17,497.31,1941.24,472.9,1947.82Z"/><path class="cls-6" d="M2200.71,1369.91c290,105.13,425.93,253.5,182,634,15.78,26.76,60.14,118.53-17.3,127.88,0,0,6,60.17-57.17,67.69-1.85-5.35,42,203.26,37.61,359.56,0,0,91.77,25.57,94.78,105.3s-55.66,97.79-211.37,97.79S1945,2784.72,1917.88,2726s2.26-194.06-60.93-270.79-110.57-74.47-180.52-74.47-139.91-2.25-187.3,51.91-40.62,214.37-65.44,257.25-40.62,76.47-255,76.47-279.82-26.83-282.07-108.06,92.52-92.53,92.52-92.53,36.1-279.81,81.23-403.93c0,0-133.14,28.21-164.67-160.21-176.59-176-204.36-549.52,219.31-658.94C1115,1342.75,1682.44,1497.11,2200.71,1369.91Z"/><path class="cls-7" d="M2179.52,1772.15c-8.9,2.77-338.45-8.19-334.94,9.52l-19.62,44h-128.4l56.59,97-65.71,103.4-115-224-7.72-9.8-14.65-5.24-370.82,10s-15.38-14.23-13-16.49,17.48-87.26,17.48-87.26l15.79-8.72,300.11-6.87.72-16L1465.06,1582h468.62l-36.11,80.93,12,3.75,250.86,1.07s18.78-.82,22.72,10.85,15.41,81.1,15.41,81.1Z"/><path class="cls-1" d="M816.63,1734.67c48.6-66.91,196.73-107.1,272.31-86.66,10.84,17.13,45.2,162.79,85.32,165.24,14,0,53.85,1.88,88.46,30.84s24.59,67,16.54,80.93-22.09,25.32-21.48,40.55c50.75,150-244.1,276.15-320.52,144.09-26.39-60-35.08-100-41.56-108C868.52,1976.42,778,1826.06,780,1781.9,781.12,1770.37,816.63,1734.67,816.63,1734.67Z"/><path class="cls-1" d="M2443.7,1901.84l28.27-65.48a50,50,0,0,0-8.62-33.6c-43.62-80.73-173.93-152.6-258.53-136.13l-10.88,31.74c3.76,47.4,35.8,212.05,57.17,301.05,12.72,45.7,51.44,181.26,51.44,181.26,34.84,29.11,59.36-24.89,63-44,68.16-32.06,50.77-77.11,17.9-123C2391.74,1992.24,2431.78,1922.92,2443.7,1901.84Z"/><path class="cls-1" d="M1099.92,2458.3s129.2-9.41,199.81,2.36c83.3,17.91,139.62,20.7,155.93,48.75,0,0-9.7,161.51-44.91,201.49-42,80.9-490,79.95-513.93-9-31.27-65.34,3.35-112.2,42.84-124.12s34.24-23.63,39.48-36.75,10.14-69.42,19.52-70.91S1099.92,2458.3,1099.92,2458.3Z"/><path class="cls-1" d="M1965.41,2478.06c55.83-29.62,306.17-39.21,369.19-15.27l8.86,15.44,3.93,65.78c-1.21,32.77,87.45,30.81,90.26,127.88.75,70.7-72.21,85.75-158,86.5s-315.8,29.35-346-13.16-26.66-126.14-35.29-173.89-7.46-60.82,5.61-71.15S1965.41,2478.06,1965.41,2478.06Z"/><g class="cls-2"><path class="cls-3" d="M1279.26,1909.15s-22-41.18-64.86-57.54-66.58,4.64-84.07-9.81c-23.77-21.06-101.69-227.76-66-268.31,6,1.88,66,243.49,124.68,234.87C1241.8,1812.11,1302.55,1853.67,1279.26,1909.15Z"/></g><g class="cls-2"><polygon class="cls-3" points="1181.1 1722.98 1525.53 1710.7 1515.73 1691.61 1499.28 1681.29 1203.67 1684.9 1183.76 1695.91 1181.1 1722.98"/></g><g class="cls-2"><path class="cls-3" d="M804.59,1573.49c53.29-64.79,301.49-198.53,385.54-207,0,0-41.36-15.27-49.71-17.3s-36-3.92-36-3.92S876,1409.32,804.59,1573.49Z"/></g><g class="cls-2"><path class="cls-3" d="M1475,1592.1l44.57,29.9h357.67l-83.49,193.88s8.27,9.78,11.28,9.78,5.27,4.51,11.28,0a96.58,96.58,0,0,1,12-7.61L1933.68,1582h-440C1491.38,1582,1475,1592.1,1475,1592.1Z"/></g><g class="cls-2"><path class="cls-3" d="M1887.42,1702.14l297.3,1.19s-10.71-33.94-14.66-34.5-15.24-3.13-15.24-3.13l-240.32,2-18.6,5.08Z"/></g><g class="cls-2"><path class="cls-3" d="M2151.06,1389.38s304.12,122.79,343.5,230.27c0,0,16.82-45.07-28.32-94-76.31-69.39-227.11-140-265.53-155.7Z"/></g><g class="cls-2"><path class="cls-3" d="M884.7,2666.24c68.35-75.95,90.72-62.69,195.61-55.64,30.09,1.11,39.42-11.6,39.42-11.6a243.63,243.63,0,0,0-49.32-17.69c-27.9-6.66-42-9.34-42-9.34,3.84-17,64.09-361.12,39.45-401,0,0-20.75,32.37-21.07,33.49-15.62,72.85-56.8,266.47-64.37,337,0,0-7.53,29.23-15,29S880.91,2598.17,884.7,2666.24Z"/></g><g class="cls-2"><path class="cls-3" d="M2440,2668.5c-96.51-115.62-183.94-43.54-221.25-87.21-.43-.27,49.16-25.11,80-22.49,10.59,9.38-41.67-491.62-38.92-473.63,0,0,37,56.38,58.33,194.07s27.79,251.23,27.79,251.23,0,28.59,6,32.35S2433.24,2583.88,2440,2668.5Z"/></g><g class="cls-4"><path class="cls-5" d="M1274.75,1918.93c-22.6-27.85-119.61-9-134.33,3l22.63,35.16c10.68.87,70.66-14.45,80.48-8.07,6.77,3.74,22.44-.29,22.17-2.38S1274.75,1918.93,1274.75,1918.93Z"/></g><g class="cls-4"><path class="cls-5" d="M1148.3,1949c17.92,107-145.68,183.89-197,27.81-25.58-46.36-199-213.06-116.07-455.55-109.29,108.35-65.48,328.89,27.19,435.81,27.68,37.71,30.65,41.61,37.84,67.45,31.23,248.43,404,118.26,354.93-51.47,0,0,.58-23.48-17.31-24s-51.9,0-51.9,0S1154.71,1953.38,1148.3,1949Z"/></g><g class="cls-4"><path class="cls-5" d="M887.2,2667.47c165.64,27.07,582.05,139,450.73-267.89-18-46.63-134.2-165.45-134.2-165.45s-58.13-52.53-59.3-59.82-8.48-17.43-8.48-17.43c21.81-25.91,73.24-33.37,111.73-98.25,25.13-64.29,8.67-79.16,12.82-105.58,103.09,404.38,842,359.07,963.53-49.1,17.06,64.06,37.33,56.56,10.53,166.41-49.31,117.12-73.23,134.89-131.11,188.14,0,0-99.07,78.4-91.54,219.56S2039,2683.92,2124.74,2693s279.82,7.52,312.91-21.06c27.56,145.53-517.57,86.82-517.51,72.21-19.18-20.31-12.64-188.11-41.3-252.58,0,0,21.87,10.1,25.22,8.67s16.07-6.6,16.07-6.6-47.38-132-154.57-147.78c-181.08-18.72-318.27-15.84-337.36,143.08l15.09,5.64,6.35,23.91s-7.15,144.42-42.5,194.06-136.15,54.16-281.32,50.4S889.29,2754.08,887.2,2667.47Z"/></g><g class="cls-4"><path class="cls-5" d="M2134,1533s52.76,64.15,59.91,65.84S2231,1592,2231,1592s49.06,316,93.06,317.12,168-200.46,174.27-320.25c0,0,23,149.72-43.9,290.18-34.08,66.22-76.64,126.31-71,134.63,28.45,36.3,49.53,95.55-11.35,117.23-3.64.61,1.17,34.07-22.38,49.27s-41.49,11-41.49,11C2269.9,2089,2178,1646.15,2134,1533Z"/></g><g class="cls-4"><path class="cls-5" d="M1178.28,1750.63l364.18-7,11.54,22.48-5.82,16.64L1179.24,1797s-3.35-14.23-5-15.93S1178.28,1750.63,1178.28,1750.63Z"/></g><g class="cls-4"><path class="cls-5" d="M1475,1592.1c2.83,2.26,44.57,29.9,44.57,29.9s169.25,318.75,169.81,317,59.9-23,59.9-23v10l-61.86,100L1475,1607.33Z"/></g><g class="cls-4"><path class="cls-5" d="M1667.4,1739.91l-11.28-37.8h125.24l12.41-29.33-7.9-6.15-173.71,1.07c-1.18,0,0,4,0,4l24.94,68.26Z"/></g><g class="cls-4"><path class="cls-5" d="M1875,1730.88h318.67s1.12,20,1.46,21.62,3.12,15.18-10.42,16.24-318.74,3.41-318.74,3.41-7.33-8.55-7.33-11.37S1875,1730.88,1875,1730.88Z"/></g><g class="cls-4"><path class="cls-5" d="M1068.86,1576.42s53.44,31.48,71.56,24.71,74-59.67,74-59.67l-48,228.89s-6.11,20-18.07,11.68C1125.19,1748.86,1073.14,1604.43,1068.86,1576.42Z"/></g><path class="cls-5" d="M2047.33,2782.52c-132.87,3.48-159-36.82-160.26-150.66,4.12-135.83-68.69-250.16-204.81-235C1421.17,2382.22,1496,2523.53,1437.62,2698c-31.29,53.95-57.21,84-268.93,84.5-195.47,0-295.26-19.13-298.17-123.71-1.89-68.15,55.16-98.14,94.22-106.81,7-51.6,35.93-255.37,72.75-372.58-83.71-2.42-142-73.47-156.91-170.76C684.05,1808,696.38,1422.7,1119.23,1327.21c3.55,6,586,146.79,1087.31,27.68,292.16,104.39,439.89,265.59,195.06,650.13,25.34,45.16,46.2,119.36-20.17,140.06-2.28,24.11-15.53,55.69-54.38,67C2335,2257.77,2362.34,2411,2363,2548c59.92,16.17,134.53,111.85,70.53,188.25-33.7,35-103.12,42-204.2,42C2167.59,2778.11,2105.52,2782.32,2047.33,2782.52Zm-986.95-636.73c10.9-.28,19,11.5,15.12,21.61-44,121-80,397.7-80.4,400.48A16.1,16.1,0,0,1,981,2581.81c-3.23.4-80.15,10.73-78.33,76.09,1.7,61.29,43.3,92.41,266,92.41,204.1-.66,217.43-28.17,241.07-68.44,50.57-201.57,1.94-327.14,272.48-317.18,148.63-16.43,242.74,111.27,237,265.3,2.09,35.63,4.06,69.29,13.3,89.3,24.49,52.23,213.34,22.74,296.79,26.76,106.57,0,159-9.32,181-32.17,51.14-75.82-38.41-134-68.78-139.32a16.16,16.16,0,0,1-11.68-16.84c4-152.28-38.93-360.14-37.34-355-2-8.9,4.8-18.3,13.87-19.17,68.07-11.43,23.37-63.57,59.07-67.82,45.71-6.13,28.63-58.27,3.27-103.87a16.11,16.11,0,0,1,.88-17.17c216.47-350.69,143.63-490.34-170-607.91-492.4,119-1033.32-14.15-1084.84-27.43C697.62,1472.59,746.89,1830.08,908,1991.26,927.16,2089.85,977.38,2159.83,1060.38,2145.79Z"/><path class="cls-5" d="M980,2549.75c38.86,1.4,123,18.64,146.4,51a1.51,1.51,0,0,1-1.19,2.4c-14.26.47-26.11-2.09-38.1-5-34.31-8.1-73.66-12.41-108.85-16.23C957.53,2579.83,959.2,2549.57,980,2549.75Z"/><path class="cls-5" d="M2344.93,2575.12c-20.85,0-43.35.49-64.44,2.4-11.76-1.21-63.79,14.15-67.61,5.17,26.77-33.12,76.15-36.94,115.72-40.2,13.16-.64,34.13-.89,33,17.82a16.13,16.13,0,0,1-16.67,14.81Z"/><path class="cls-5" d="M1459.43,2513.74c-174.9-79.38-462-32.37-464.3-30.48a12.36,12.36,0,0,1-14.42-9.94c-5.4-30.24,300.19-61.19,483.81,16.73C1476.53,2495,1472.31,2514.22,1459.43,2513.74Z"/><path class="cls-5" d="M1885.49,2521.32c-68.54-24.9,198.29-124.33,460.38-69.61A12.38,12.38,0,1,1,2341,2476C2065.81,2423.74,1899.41,2518.65,1885.49,2521.32Z"/><path class="cls-5" d="M1060.36,2178c-20.51-.12-21.35-31.17-.69-32.18,63.09,3.83,226.25-69.44,181-180.08a16.12,16.12,0,0,1,3.33-18.49c65.55-60.43,1.81-132.84-83-122.92a16.11,16.11,0,0,1-18.08-13.83c2-59.55,246.25,14.72,130.73,151.92C1319.08,2098.8,1134,2182.93,1060.36,2178Z"/><path class="cls-5" d="M1222.82,1528.2c-8,71.53-20.92,142.23-34.27,212.86-.17.08-14,70.44-14.17,70.55-2.72,14.41-22.78,17.19-29.38,4.25-10.35-19.62-19.34-39.24-28.09-59.26-25.75-60-48-122.68-55-188-.78-6.36,9-8.19,10.55-1.93,24,81.6,61.07,159.07,100.41,234.16l-29.44,4.51c17.56-94.4,38.74-188.24,69-279.49,2-5.92,11.15-4,10.47,2.33Z"/><path class="cls-5" d="M1165.32,1981.67c-15.21.58-22.24-21.21-9-29.45,60.82-39.72,128.8-10.49,112.52,15.13-21,24.92-36.64-25.61-94.52,11.57A16.11,16.11,0,0,1,1165.32,1981.67Z"/><path class="cls-5" d="M1134.26,1905.51c58.64,21.17,47.6,121.73,26,99.32C1160.34,1990.29,1108.21,1900.73,1134.26,1905.51Z"/><path class="cls-5" d="M777.07,1799.4c-48.58-2.45,88.79-198.12,309.42-164.54a12.39,12.39,0,1,1-3.37,24.54C857.63,1632,799.48,1796,777.07,1799.4Z"/><path class="cls-5" d="M1144,2140c68.09,101.81,171.63,169.07,284.44,213.11a1.38,1.38,0,0,1-.56,2.63c-95.64-4.12-182.53-60.12-250.16-124.55-22.67-22.73-43.91-47.14-61.14-74.33-11.1-18.46,15.81-35.17,27.42-16.86Z"/><path class="cls-5" d="M1690,2043.4a12.42,12.42,0,0,1-11-6.73L1448.42,1587.6a12.39,12.39,0,0,1,11-18h474.24c8.65-.23,15.11,9.58,11.31,17.43l-108.72,243.72A12.39,12.39,0,0,1,1825,1838H1718.11c2.06,8.46,55.7,82.8,45.74,90.89C1758.76,1932.76,1699.7,2051.45,1690,2043.4Zm-210.26-449.07,211,410.92,48.16-82.56c-88.64-147.76-69.65-101.73,78.1-109.41l97.68-219Z"/><path class="cls-5" d="M1765.18,1756.05H1637.1a12.38,12.38,0,0,1-11.44-7.65c-1-7.83-39.44-81.11-30.24-87.59-4.32-11.32,202.37-3.2,205.87-5.5a12.39,12.39,0,0,1,10.47,5.77c9.63,6.75-34.24,80.21-35.39,87.91A12.38,12.38,0,0,1,1765.18,1756.05Zm-119.8-24.76h112l24.34-51.21H1624.23Z"/><path class="cls-5" d="M2308.27,2215.61c-45.56-14.43-126.66-494.93-137.63-531.18l31.55-6.39c4.59,41.09,99.23,475.49,121.47,516.72C2327,2204.89,2318.88,2215.76,2308.27,2215.61Z"/><path class="cls-5" d="M2137.34,1526.07c29.42,52.79,49.29,109.89,67.24,167.34l-29.8,1.47c8.8-31.73,21.15-61.71,38.44-89.64,4.67-5.62,19.2-34,27.12-26.71a5.43,5.43,0,0,1,1.35,6.35,556.2,556.2,0,0,0-21.13,57.95c-5.8,19.29-11.38,39.56-15.56,59-3,15-24.41,16.4-29.53,2.22-4.6-10.72-71.37-203.24-38.13-178Z"/><path class="cls-5" d="M2476.46,1836.19a12.38,12.38,0,0,1-10.73-6.18c-98.49-170.38-258.69-151-265.45-150a12.42,12.42,0,0,1-13.94-10.6c-6.9-29.89,193.48-35.66,300.83,148.24C2492.05,1825.54,2485.7,1836.44,2476.46,1836.19Z"/><path class="cls-5" d="M2263.42,1983.73c1.33,196.3-179.94,350.47-365.51,372a1.36,1.36,0,0,1-.67-2.59c164.16-57.17,332.89-178.41,334-368.53.22-20.91,30.69-22,32.17-.9Z"/><path class="cls-5" d="M1161,1809.88c-15.86,0-16.4-24.3-.32-24.76l403.69-10.48c16.12-.46,16.9,24.3.65,24.76Z"/><path class="cls-5" d="M1183.75,1697.28c-15.89,0-16.37-24.35-.27-24.76.17,0,324.9-7.21,325.11-7.22a12.38,12.38,0,0,1,.27,24.76C1508.69,1690.08,1184,1697.27,1183.75,1697.28Z"/><path class="cls-5" d="M2179.52,1680.08,1895.85,1679c-16.07-.11-16.19-24.7.05-24.77l283.67,1.06C2195.64,1655.42,2195.76,1680,2179.52,1680.08Z"/><path class="cls-5" d="M2204.82,1784.53h-356a12.39,12.39,0,0,1,0-24.77h356C2220.9,1759.81,2221.11,1784.46,2204.82,1784.53Z"/><path class="cls-8" d="M989,615.72C794.74,657.26,569.19,336.27,790.86,118.38c133.55-143.09,417.41-118.27,499,60.08C1308.6,241.53,1143.33,529.56,989,615.72Z"/><g class="cls-2"><path class="cls-3" d="M700.07,401.75C720.66,158.24,1051.7-69.31,1277,215.58l14.3-12.41s20-18.53-42.83-86.56C1044.4-109.61,636.79,107.56,700.07,401.75Z"/></g><path class="cls-3" d="M1030.37,500.75c-244.47-58.59-122-422.06,135.28-215.7C1165.65,285.05,1136.52,467.36,1030.37,500.75Z"/><g class="cls-4"><path class="cls-5" d="M709.35,404s91.52,98.59,117.09,80.54S776.8,330,888.12,223s287.13-54,380.51,47.36c0,0-53.67,101.21-54.93,103.24s-63.57-26.9-63.57-26.9c-45.68-41.86-258.61-84.79-235.8,68.87l49.08,53.58,48.18,25.62c20.24,19.54,15.16-14.41,63.08,36.39l1.06,17.61s-64.41,61.5-86.71,67C867.77,631.2,720.83,524.59,709.35,404Z"/></g><path class="cls-5" d="M972.59,632.45c-226.46,22.88-406.32-324.61-193-525.59C899.7-10.34,1085-25.11,1220.19,71.79c139.32,93.33,82.66,184.41-2.32,325.35C1197.67,428.37,1063.66,626.6,972.59,632.45ZM989,615.72h0Zm32.51-575.56A313.79,313.79,0,0,0,802.1,129.91C601.34,326.11,788.74,633.6,984.1,600,1138,511.63,1289,231.91,1274.42,183,1242.74,99,1112.07,36.21,1021.53,40.16Z"/><path class="cls-5" d="M1030.37,516.85c-83.22-2.08-254.1-189.21-71-293.63C1013.69,196.7,1099.42,196,1177,273.67a16.1,16.1,0,0,1,4.51,13.92C1181.1,294.26,1146.66,488.9,1030.37,516.85Zm.78-278.1a130.63,130.63,0,0,0-57.7,13.41C835.59,327.57,956.93,475.22,1029.8,484c80.2-29.35,111.55-159.47,118.43-193.36C1111.84,256.51,1070.85,238.75,1031.15,238.75Z"/><path class="cls-8" d="M2231,563.76c180.23,38.55,389.48-259.24,183.83-461.38C2290.93-30.36,2027.59-7.33,1951.91,158.12,1934.52,216.63,2087.84,483.84,2231,563.76Z"/><g class="cls-2"><path class="cls-3" d="M2499.05,365.26c-19.1-225.9-326.2-437-535.22-172.7L1950.56,181s-18.58-17.19,39.74-80.29C2179.62-109.12,2557.75,92.35,2499.05,365.26Z"/></g><path class="cls-3" d="M2192.63,457.11c226.8-54.35,113.22-391.55-125.5-200.11C2067.13,257,2094.16,426.14,2192.63,457.11Z"/><g class="cls-4"><path class="cls-5" d="M2490.44,367.31s-84.9,91.46-108.62,74.71,46-143.31-57.22-242.62-266.37-50.07-353,43.94c0,0,49.79,93.89,51,95.77s59-24.95,59-24.95c42.37-38.83,239.91-78.66,218.75,63.9l-45.53,49.69-44.7,23.77c-18.77,18.14-14.06-13.36-58.51,33.77l-1,16.33s59.76,57.06,80.44,62.14C2343.48,578.12,2479.79,479.22,2490.44,367.31Z"/></g><path class="cls-5" d="M2246.19,580.45C2095.77,548.12,1910,204.14,1936.48,153.54c79.46-177.68,356.31-204.61,489.59-62.66C2624.78,278.23,2457.21,601.8,2246.19,580.45Zm-10.28-32.4c180.83,30.44,352.73-253.31,167.67-434.14C2285.86-11.33,2042.36,8.8,1967.34,162.71,1953.93,207.81,2093.58,466.14,2235.91,548.05Z"/><path class="cls-5" d="M2192.63,473.21c-108.78-25.67-140.9-207.42-141.39-213.67a16.1,16.1,0,0,1,4.5-13.92c72.44-72.48,152.52-71.8,203.31-47C2428.61,294.88,2273.79,471.47,2192.63,473.21ZM2084.56,262.55c6.6,32.2,35.56,150.65,108.65,177.75C2402,374.62,2275.11,107.18,2084.56,262.55Z"/><path class="cls-3" d="M1739.61,1457.83c-321.19-7.61-1075.65-39-767.21-778.52C1108.49-115.78,2178.59-102.85,2330.84,641,2577.66,1313.71,2238.67,1439.53,1739.61,1457.83Z"/><path class="cls-8" d="M1930.6,902.64c-198.31-111.09-97.92-407.54,167.23-321.17,213,49.73,387.5,492.42,97.67,487.23-76.91-6.18-105.75-58.09-179.58-111.15C1979.62,931.45,1950.66,913.82,1930.6,902.64Z"/><path class="cls-8" d="M1563,935.66c215-135.68,85.56-460.95-205.57-349-235,68-404.07,572.69-80.63,550,85.54-11.39,114.73-71.06,194.1-134.65C1510,970.71,1541.28,949.32,1563,935.66Z"/><g class="cls-4"><path class="cls-5" d="M943,795.47s13.11,384,371,489.36c515.55,152.33,1177.45-5.79,1049.23-516.37,151.17,376.61,27.22,721.07-741,685.78C1067.05,1404.76,786.35,1261,943,795.47Z"/></g><g class="cls-4"><path class="cls-5" d="M1572.51,1062.73c31.67,20.66,148.45,36,143.78-51,36.82,12.28,53.35,8.94,85.75-12,20.5,83,91,98.43,154.3,50.77,0,0-13.64,56.78-76.82,64.31s-105.47-42.53-127.36-28S1627.31,1152.79,1572.51,1062.73Z"/></g><path class="cls-5" d="M1757.66,1024.57s-110.57-60.93-85.75-85.75,127.5-25.74,151.64-4.52C1843.22,951.6,1757.66,1024.57,1757.66,1024.57Z"/><path class="cls-5" d="M1729.2,1474c-258.89,13.53-1037.39-86.32-811.55-646.74,52.81-191.31,75.74-379.86,247.81-565.75,237.39-267.48,730.43-260.27,975.05-2,141.84,133.63,197.85,323.2,239.31,508.63C2602.49,1381.61,2092.68,1466.92,1729.2,1474ZM1649.35,95.15c-571,32.86-620.76,460-700.69,740.64-229.5,566.57,620.6,614.23,790.75,605.94,318.12-2.73,833.65-89.94,609.34-665.15C2283.67,484.61,2163.4,117.47,1649.35,95.15Z"/><path class="cls-5" d="M1318.06,804.77c22.34,241.39,299.33,116.94,202.75-75.6,0,0-118.57-60.53-127.68-54.66C1356.36,698.2,1317.81,750.65,1318.06,804.77Z"/><path class="cls-3" d="M1429.09,797.19c1.13,55.74,73,55.66,73.65-.21C1501.61,741.24,1429.74,741.32,1429.09,797.19Z"/><g class="cls-9"><path class="cls-3" d="M1375,882.57c24.15,32.38,64.1,8.23,39.71-26.53C1390.52,823.67,1350.57,847.81,1375,882.57Z"/></g><path class="cls-5" d="M1344.56,642.56c57.19,27,115.69,45.61,172.88,72.8,13.54,6.81,25,14,39.3,17.07,5.66,2.45,20.3-.75,19.77,9-30.22,33.27-151.5-31.23-187.26-49.75C1382,687.77,1314.75,642.81,1344.56,642.56Z"/><path class="cls-5" d="M2156.56,800.51c-22.87,244.43-279.28,112.76-189-75.61,0,0,110.52-60.53,119-54.66C2120.87,693.93,2156.8,746.39,2156.56,800.51Z"/><path class="cls-3" d="M2053.07,792.92c-1.09,55.77-68,55.66-68.66-.21C1985.5,736.94,2052.44,737.06,2053.07,792.92Z"/><g class="cls-9"><path class="cls-3" d="M2103.52,878.31c-23.79,33.24-59.38,6.71-37-26.53C2090.3,818.53,2125.89,845.07,2103.52,878.31Z"/></g><path class="cls-5" d="M2138.56,646.73c-40.13,46.55-100.32,68.11-155.22,90.71-19,8.06-44,13.46-63.92,3.74-5-1.82-4.09-9.58,1.09-10.3,19.36-1.61,33.82-9.6,50.59-19.36,53.35-27,107.92-45.87,161.1-73,5-2.57,10.13,4,6.36,8.18Z"/><path class="cls-5" d="M1757.66,1040.66c-32.29-12.4-133.76-71.64-97.13-113.22,32.12-32.12,144.34-31,173.65-5.22,31.72,35.77-41.88,90.54-66.07,114.6A16.09,16.09,0,0,1,1757.66,1040.66Zm-72.78-91.86c4.55,10.93,35.82,35.63,70.8,56.12,26.48-23.72,49.26-49.42,53.88-60.8C1786.71,931.72,1705.81,932.11,1684.88,948.8Z"/><path class="cls-5" d="M1576.4,1056.73c28.64,63.64,130.48,55,172.71,10.47,6.7-8.69,19.67-8.23,26.55,0,35.18,32.35,104,49.61,144.95,19.39,14.24-10.57,25.58-27.13,32.74-44.48,2.18-5.78,11.41-3.14,10.26,2.88-14.36,103-151.63,105.3-213,42.53l24.66-1.79c-49.22,63.49-192.81,64.67-209.42-27.14-.51-6.64,8.73-8.19,10.57-1.87Z"/><path class="cls-5" d="M1762.16,1092.57a16.1,16.1,0,0,1-16-14.71l-4.51-51.9a16.1,16.1,0,1,1,32.07-2.79l4.51,51.91A16.12,16.12,0,0,1,1762.16,1092.57Z"/></svg>