<svg width="2034" height="3302" viewBox="0 0 2034 3302" fill="none" xmlns="http://www.w3.org/2000/svg">
<path d="M973.704 3301.03C477.69 3301.03 75.605 3227.44 75.605 3136.65C75.605 3078.84 238.645 3027.99 485.159 2998.68C486.314 3002.48 487.479 3006.26 488.654 3010.05C462.927 3023.82 441.758 3045.93 431.885 3073.98C420.971 3107.76 423.989 3144.71 442.287 3175.17C461.481 3205.79 501.617 3214.57 534.19 3216.76C555.922 3217.67 584.083 3218.71 615.044 3218.71C707.749 3218.71 825.583 3209.4 870.806 3159.38C874.028 3155.7 877.023 3151.56 879.562 3147.06C897.265 3200.65 958.2 3221.23 1010.17 3223.56C1034.81 3224.81 1059.81 3225.18 1084.49 3225.18C1088.35 3225.18 1092.22 3225.17 1096.09 3225.16C1152.4 3223.16 1225.05 3224.98 1269.63 3183.65C1293.83 3160.37 1303.15 3125.95 1303.93 3094.58C1304.35 3057.64 1304.99 3020.75 1305.73 2983.86C1637.38 3008.02 1871.8 3067.32 1871.8 3136.65C1871.8 3227.44 1469.7 3301.03 973.704 3301.03Z" fill="#58C6EA"/>
<path d="M1537.84 2916.91C1101.09 2944.57 881.712 2553.11 881.712 2553.11L970.277 2465.14C1066.58 2539.41 1158.87 2570.2 1240.06 2572.73C1262.48 2573.46 1284.02 2571.99 1304.56 2568.74C1378.17 2557.03 1439.02 2521.99 1480.04 2478.24C1524.61 2430.89 1545.95 2373.37 1535.36 2324.49C1527.33 2287.45 1499.66 2265.65 1468.6 2279.74C1411.09 2305.8 1456.44 2373.63 1418.14 2393.59C1384.23 2411.21 1310.95 2394.38 1279.57 2336.46C1275.97 2329.88 1272.71 2323.23 1269.72 2316.52V2316.45C1266.78 2310 1264.21 2303.55 1261.81 2297.03C1188.13 2095.08 1364.75 1870.25 1649.28 1901.91C1835.47 1922.59 1958.43 2076.53 2000.12 2258.67C2064.82 2541.34 1933.36 2891.91 1537.84 2916.91Z" fill="#FAA327"/>
<path d="M1480.04 2478.24C1524.6 2430.89 1545.95 2373.37 1535.36 2324.49C1527.32 2287.45 1499.67 2265.65 1468.61 2279.74C1411.09 2305.8 1456.44 2373.63 1418.14 2393.59C1384.22 2411.21 1310.95 2394.38 1279.56 2336.46C1275.97 2329.88 1272.71 2323.23 1269.72 2316.52V2316.45C1266.79 2310 1264.19 2303.55 1261.8 2297.03C1291.93 2329.62 1347.85 2380.69 1367.6 2335.2C1392.22 2278.47 1421.59 2131.52 1531.52 2166.96C1626.14 2197.55 1609.06 2398.71 1480.04 2478.24Z" fill="#FF9343"/>
<path d="M1537.84 2916.91C1101.09 2944.57 881.712 2553.11 881.712 2553.11L970.277 2465.14C1066.58 2539.41 1158.87 2570.2 1240.06 2572.73C1262.48 2573.46 1284.02 2571.99 1304.56 2568.74C1371.78 2627.12 1503.52 2703.93 1698.09 2652.86C1935.56 2590.55 1992.2 2399.24 2000.12 2258.67C2064.82 2541.34 1933.36 2891.91 1537.84 2916.91Z" fill="#EF7F25"/>
<path d="M2015.81 2398.31C2015.81 2645.47 1869.91 2895.9 1537.84 2916.91C1101.09 2944.57 881.712 2553.11 881.712 2553.11L970.284 2465.14C1066.57 2539.41 1158.87 2570.2 1240.07 2572.73C1311.34 2646.47 1419.93 2773.54 1644.17 2721.68C1747.18 2697.81 1813.34 2645.47 1850.71 2579.84C1962.02 2493.2 1994.27 2362.26 2000.12 2258.79C2000.32 2259.65 2000.52 2260.53 2000.72 2261.39C2001.59 2265.04 2002.39 2268.77 2003.12 2272.49C2004.19 2277.74 2005.18 2283 2006.11 2288.31C2006.63 2291.04 2007.11 2293.77 2007.5 2296.5C2008.3 2301.09 2008.97 2305.74 2009.63 2310.33C2010.42 2315.85 2011.09 2321.37 2011.69 2326.89C2011.83 2327.42 2011.89 2327.89 2011.89 2328.35C2012.5 2333.2 2012.96 2338.12 2013.35 2342.97L2013.55 2345.38C2014.09 2351.22 2014.49 2357.14 2014.82 2362.99C2015.14 2368.91 2015.42 2374.76 2015.56 2380.68C2015.76 2386.53 2015.81 2392.45 2015.81 2398.31Z" fill="#F9D3B7"/>
<path d="M1537.83 2916.91C1101.08 2944.57 881.714 2553.1 881.714 2553.1L970.284 2465.13C1066.56 2539.4 1158.87 2570.2 1240.07 2572.73C1311.36 2646.46 1419.97 2773.56 1644.16 2721.65C2015.85 2635.59 1907.76 2178.72 1698.9 2065.29C1528.2 1972.58 1232.76 2080.91 1269.72 2316.44C1176.88 2109.77 1355.57 1869.25 1649.3 1901.9C2124.54 1954.7 2188.12 2875.81 1537.83 2916.91Z" fill="white"/>
<path d="M1819.68 2623.49C1819.7 2623.47 1819.72 2623.44 1819.73 2623.42C1819.73 2623.43 1819.68 2623.48 1819.68 2623.49ZM1820.2 2622.9C1831.97 2609.38 1842.1 2594.96 1850.7 2579.84C1850.72 2579.83 1850.72 2579.83 1850.72 2579.83C1842.1 2594.96 1831.97 2609.37 1820.2 2622.9Z" fill="#D4B4AD"/>
<path d="M1493.2 2900.9C1429.3 2900.9 1367.48 2891.79 1307.98 2873.66C1308.81 2831.43 1309.54 2789.24 1309.93 2747.04C1317.02 2744.71 1324.08 2742.29 1331.11 2739.78C1336.53 2737.66 1340.74 2732.81 1341.74 2726.66C1345.1 2708.97 1348.06 2691.21 1350.66 2673.42C1400.1 2707.43 1462.45 2733.78 1543.99 2733.78C1574.58 2733.78 1607.85 2730.08 1644.18 2721.68C1723.09 2703.38 1780.4 2668.38 1819.67 2623.49C1819.69 2623.48 1819.73 2623.43 1819.75 2623.42C1819.81 2623.35 1819.86 2623.27 1819.92 2623.2C1820 2623.13 1820.06 2623.06 1820.12 2622.98C1820.14 2622.95 1820.18 2622.92 1820.2 2622.9C1831.98 2609.37 1842.1 2594.96 1850.73 2579.83C1940.34 2510.06 1978.72 2411.57 1993.32 2321.83C1997.29 2352.23 1998.93 2382.76 1998.22 2412.76C1993.2 2624.15 1869.32 2878.48 1536.73 2899.51C1522.11 2900.44 1507.6 2900.9 1493.2 2900.9Z" fill="#D9D9EA"/>
<path d="M1494.53 2935.77C1285.51 2935.77 1130.23 2841.12 1034.57 2758.59C924.085 2663.26 868.771 2565.73 866.476 2561.62C861.765 2553.2 864.759 2542.57 873.163 2537.86C881.587 2533.13 892.226 2536.13 896.937 2544.55C897.636 2545.78 952.271 2641.74 1058.31 2732.95C1199.76 2854.61 1360.73 2910.67 1536.73 2899.52C1869.31 2878.48 1993.19 2624.15 1998.2 2412.76C2003.41 2192.99 1882.24 1945.33 1647.38 1919.24C1503.59 1903.25 1376.8 1954.62 1308.15 2056.6C1252.53 2139.25 1247.58 2240.75 1294.93 2328.14C1322.22 2378.5 1385.94 2390.64 1410.07 2378.08C1417.36 2374.29 1418.22 2365.68 1418.58 2345.5C1419.01 2320.5 1419.67 2282.73 1461.37 2263.84C1478.76 2255.98 1497.06 2256.05 1512.97 2264.06C1532.34 2273.8 1546.71 2294.5 1552.42 2320.82C1568.45 2394.85 1519.58 2484.49 1433.61 2538.79C1378.67 2573.49 1317.13 2590.6 1252.79 2590.6C1157.22 2590.61 1055.41 2552.87 959.617 2478.94C951.992 2473.05 950.574 2462.08 956.463 2454.44C962.352 2446.82 973.331 2445.4 980.976 2451.3C1129.11 2565.65 1291.36 2587.32 1414.94 2509.27C1488.78 2462.64 1531.28 2388.2 1518.28 2328.21C1514.87 2312.48 1507.03 2300.15 1497.28 2295.25C1490.8 2291.99 1483.57 2292.12 1475.79 2295.65C1455.19 2304.97 1453.95 2320.13 1453.49 2346.11C1453.11 2368.02 1452.63 2395.3 1426.18 2409.06C1381.27 2432.44 1299.03 2408.97 1264.23 2344.77C1210.57 2245.74 1216.16 2130.73 1279.18 2037.11C1355.22 1924.13 1494.29 1867.11 1651.23 1884.53C1768.3 1897.54 1867.53 1960.66 1938.22 2067.08C2002.41 2163.76 2036.13 2286.81 2033.12 2413.59C2027.75 2639.75 1895.1 2911.84 1538.92 2934.37C1523.87 2935.31 1509.04 2935.77 1494.53 2935.77Z" fill="#000072"/>
<path d="M881.697 2330.12C878.66 2446.4 869.486 2516.21 866.088 2593.59C856.643 2726.7 888.493 3024.52 869.732 3124.02C861.191 3169.37 784.97 3201.17 611.055 3201.17C512.868 3201.17 458.122 3200.47 445.486 3135.78C428.12 3046.96 509.884 3019.47 509.884 3019.47C509.884 3019.47 406.942 2701.65 385.61 2446.97L881.697 2330.12Z" fill="#FFAD40"/>
<path d="M875.678 3009.66C876.142 3057.25 874.738 3097.61 869.754 3124.03C861.163 3169.37 784.97 3201.15 611.075 3201.15C512.896 3201.15 458.121 3200.5 445.473 3135.78C428.125 3046.94 509.908 3019.45 509.908 3019.45C509.908 3019.45 509.818 3019.22 509.689 3018.85C509.689 3018.71 509.625 3018.53 509.535 3018.34C502.915 2997.62 406.192 2692.88 385.611 2446.99L881.693 2330.11C878.666 2446.38 869.471 2516.19 866.109 2593.6C859.154 2691.4 874.519 2878.03 875.678 3009.66Z" fill="#FFAD40"/>
<path d="M881.71 2330.11C881.53 2337.26 881.311 2344.24 881.053 2351.05C881.053 2351.27 881.015 2351.49 881.053 2351.76C880.706 2362.01 880.319 2371.88 879.881 2381.43C879.572 2387.68 879.302 2393.84 879.006 2399.87C878.606 2406.19 878.271 2412.35 877.949 2418.41C877.615 2424.13 877.254 2429.72 876.919 2435.22C876.868 2435.56 876.816 2435.92 876.816 2436.3C873.03 2495.58 868.316 2542.95 866.126 2593.58C862.069 2650.59 865.559 2737.76 869.449 2826.63C869.539 2829.34 869.668 2832 869.797 2834.66C870.183 2843.96 870.621 2853.26 871.02 2862.56C871.111 2864.61 871.188 2866.66 871.278 2868.71C871.883 2882.59 872.463 2896.44 872.978 2910.05C873.03 2911.23 873.068 2912.46 873.12 2913.63C873.377 2920.27 873.635 2926.86 873.854 2933.36C873.854 2934.15 873.892 2934.93 873.944 2935.76C874.292 2946.41 874.639 2956.93 874.91 2967.19C875.077 2974.66 875.245 2981.99 875.387 2989.23C875.515 2996.17 875.644 3002.99 875.683 3009.67C876.121 3057.24 874.73 3097.63 869.758 3124.03C868.393 3131.1 865.392 3137.86 860.627 3144.2C858.708 3146.73 856.518 3149.21 854.084 3151.62C852.809 3152.83 851.508 3154.02 850.156 3155.2C816.927 3183.26 741.467 3201.16 611.077 3201.16C512.988 3201.16 458.199 3200.5 445.5 3135.9L445.461 3135.81V3135.77C442.834 3122.46 442.499 3110.49 443.748 3099.85C450.832 3039.3 509.884 3019.44 509.884 3019.44C509.884 3019.44 509.807 3019.23 509.665 3018.87C509.665 3018.7 509.626 3018.53 509.549 3018.35C506.226 3007.92 480.081 2925.68 452.313 2815.2C424.867 2705.99 395.876 2569.27 385.624 2447L881.672 2330.11H881.71Z" fill="#FFAD40"/>
<path d="M1094.79 1640.34C1067.03 1687.55 1055.31 1741.72 1052.84 1800.18C996.527 1803.55 933.951 1803.46 865.787 1797.86C741.294 1787.59 640.745 1751.71 563.937 1711.21C637.483 1587.43 704.667 1503.76 704.667 1503.76L1161.14 1478.56C1161.14 1478.56 1166.64 1518.14 1094.79 1640.34Z" fill="#F9D3B7"/>
<path d="M1216.24 1779.1C1128.43 1796.97 1009.59 1809.71 865.782 1797.85C726.305 1786.39 616.901 1742.71 537.255 1696.47C586.007 1638.1 684.078 1571.09 874.786 1582.81C1125.07 1598.16 1196.41 1721.06 1216.24 1779.1Z" fill="#EA5A1B"/>
<path d="M881.676 2330.09C881.496 2337.26 881.277 2344.24 881.058 2351.05C881.058 2351.27 881.02 2351.49 881.058 2351.74C880.672 2362.01 880.285 2371.87 879.886 2381.43C879.59 2387.72 879.268 2393.83 879.01 2399.86C878.624 2406.18 878.276 2412.34 877.967 2418.4C877.619 2424.13 877.259 2429.71 876.924 2435.22C876.872 2435.56 876.834 2435.91 876.834 2436.3C872.983 2495.58 868.282 2542.94 866.054 2593.57C861.997 2650.58 865.577 2737.75 869.454 2826.63C869.544 2829.33 869.673 2832 869.802 2834.66C870.188 2843.96 870.626 2853.3 871.025 2862.56C871.115 2864.61 871.206 2866.66 871.283 2868.71C871.901 2882.59 872.468 2896.43 872.983 2910.05C873.034 2911.23 873.073 2912.46 873.125 2913.63C873.382 2920.27 873.601 2926.81 873.859 2933.36C873.859 2934.15 873.91 2934.93 873.949 2935.76C874.297 2946.41 874.606 2956.89 874.915 2967.19C875.082 2974.66 875.263 2981.99 875.391 2989.23C875.52 2996.13 875.61 3002.94 875.649 3009.62C876.125 3057.2 874.696 3097.62 869.712 3123.98C868.359 3131.06 865.397 3137.82 860.645 3144.2C858.713 3146.73 856.536 3149.21 854.089 3151.62C852.814 3152.83 851.513 3154.02 850.161 3155.19C816.933 3183.26 741.474 3201.16 611.086 3201.16C512.947 3201.16 456.382 3174.62 445.512 3135.9L445.46 3135.81V3135.77C441.713 3122.37 441.107 3110.23 442.588 3099.24C442.975 3099.45 443.374 3099.67 443.76 3099.85C480.826 3119.88 575.733 3162.49 745.441 3130.36C864.38 3107.83 802.714 2858.15 788.959 2806.37C730.772 2840.34 552.151 2857.75 452.325 2815.19C424.867 2705.98 395.889 2569.26 385.624 2446.99L881.676 2330.09Z" fill="#EF7F25"/>
<path d="M869.717 3124.01C861.15 3169.35 784.94 3201.17 611.07 3201.17C512.87 3201.17 456.314 3174.58 445.46 3135.81C444.175 3131.2 443.25 3126.7 442.672 3122.39C442.377 3120.47 442.21 3118.6 442.094 3116.74C441.593 3110.62 441.837 3104.76 442.595 3099.24C478.754 3118.97 573.91 3162.81 745.416 3130.36C793.829 3121.22 812.326 3074.47 816.321 3018.7C839.878 3017.82 859.454 3014.46 875.652 3009.64C876.114 3057.22 874.701 3097.61 869.717 3124.01Z" fill="#F9D3B7"/>
<path d="M869.751 3124.03C861.17 3169.38 784.973 3201.15 611.074 3201.15C512.898 3201.15 458.126 3200.5 445.474 3135.78C428.12 3046.94 509.905 3019.45 509.905 3019.45C509.905 3019.45 509.815 3019.22 509.687 3018.85C509.635 3018.66 509.584 3018.53 509.533 3018.34C566.09 3000.98 640.644 2999.49 743.033 3014.23C802.134 3022.72 844.934 3018.76 875.685 3009.66C876.148 3057.25 874.748 3097.61 869.751 3124.03Z" fill="#FFF3E9"/>
<path d="M869.751 3124.03C861.171 3169.38 784.973 3201.15 611.075 3201.15C512.899 3201.15 458.127 3200.5 445.474 3135.78C442.866 3122.49 442.494 3110.53 443.753 3099.85C450.792 3039.29 509.906 3019.45 509.906 3019.45C509.906 3019.45 509.816 3019.22 509.687 3018.85C509.636 3018.66 509.585 3018.53 509.533 3018.34C566.091 3000.98 640.644 2999.49 743.033 3014.23C776.611 3019.06 804.909 3019.84 828.749 3017.96C829.61 3017.88 830.432 3017.81 831.28 3017.74C834.299 3017.47 837.24 3017.16 840.105 3016.81C840.811 3016.73 841.518 3016.64 842.211 3016.56C845.705 3016.1 849.109 3015.59 852.397 3015.02C853.798 3014.79 855.198 3014.55 856.547 3014.28C857.022 3014.18 857.484 3014.1 857.947 3014C859.629 3013.67 861.261 3013.35 862.841 3012.97C864.716 3012.56 866.579 3012.13 868.351 3011.66C868.775 3011.57 869.186 3011.47 869.559 3011.34C871.665 3010.83 873.669 3010.27 875.686 3009.66C876.148 3057.25 874.748 3097.61 869.751 3124.03Z" fill="white"/>
<path d="M597.794 3183.69C577.209 3183.69 556.675 3183.44 537.033 3181.95C512.805 3179.73 485.049 3176.31 471.483 3156C463.624 3143.39 459.879 3125.12 460.681 3108.05C496.093 3123.71 561.286 3144.81 641.422 3144.81C674.235 3144.81 709.545 3141.28 746.332 3132.37C794.253 3120.8 813.538 3065.98 816.328 3018.72C829.575 3018.19 841.575 3016.94 852.402 3015.02C853.79 3014.84 855.192 3014.55 856.555 3014.28C857.013 3014.18 857.484 3014.1 857.943 3014C858.147 3013.96 858.338 3013.92 858.529 3013.89C858.682 3047.7 857.497 3081.44 853.497 3115.07C846.937 3179.69 675.674 3182.7 624.263 3183.63C615.474 3183.65 606.634 3183.69 597.794 3183.69Z" fill="#D9D9EA"/>
<path d="M899.159 2330.57C897.458 2419.96 887.887 2508.21 883.368 2597.18C878.835 2685.22 885.199 2773.46 888.471 2861.88C891.237 2943.61 897.289 3026.63 889.588 3108.82C888.562 3117.06 887.588 3125.53 885.303 3133.69C882.342 3143.49 877.03 3152.28 870.81 3159.38C810.475 3226.09 620.978 3220.38 534.19 3216.76C501.62 3214.57 461.479 3205.79 442.285 3175.17C423.987 3144.71 420.974 3107.76 431.883 3073.98C443.701 3040.42 471.699 3015.33 504.321 3002.91L493.283 3024.84C463.648 2930.77 438.519 2836.11 416.39 2740.12C401.833 2680.72 390.859 2619.32 384.288 2558.41C380.132 2521.69 377.821 2484.66 376.912 2447.7C376.808 2437.37 392.028 2434.99 394.248 2445.89C398.56 2470.04 402.066 2494.15 406.715 2518.16C438.597 2685.08 474.777 2852.1 526.502 3014.09C529.359 3023.12 524.554 3032.75 515.71 3035.92C510.386 3037.85 504.321 3041.07 499.399 3044.18C483.894 3053.89 470.673 3068.43 464.829 3085.57C457.297 3106.78 459.947 3137.49 471.479 3156C485.049 3176.31 512.801 3179.73 537.034 3181.95C565.097 3184.07 594.992 3183.68 624.263 3183.63C675.676 3182.7 846.941 3179.69 853.499 3115.07C863.395 3031.67 856.096 2947.61 853.59 2863.39C850.278 2774.34 843.85 2684.76 848.512 2595.24C849.85 2565.76 851.992 2535.65 854.265 2506.21C858.927 2447.14 862.797 2388.55 864.252 2329.67C865.278 2307.13 898.925 2306.93 899.159 2330.57Z" fill="#000072"/>
<path d="M695.887 3023.55C636.525 3011.63 572.32 3014.34 515.474 3036.01C493.36 3044.27 480.838 3012.2 502.834 3003.38C535.604 2993.89 569.626 2989.98 603.578 2991.14C636.785 2992.21 668.858 2996.98 700.79 3006.79C705.385 3008.23 707.948 3013.12 706.507 3017.72C705.113 3022.24 700.364 3024.74 695.887 3023.55Z" fill="#000072"/>
<path d="M1068.39 2463.27C1009.73 2647.53 579.509 2695.21 442.684 2490.26C413.247 2446.13 394.916 2398.03 385.408 2347.61C435.532 2421.37 538.094 2513.74 739.824 2525.62C901.023 2535.08 1009.67 2494.75 1068.39 2463.27Z" fill="#F9D3B7"/>
<path d="M507.945 2625.06C363.529 2519.53 324.103 2365.13 347.098 2180.05C360.208 2074.46 417.088 1918.83 492.43 1776.76C492.43 1776.76 545.709 1562.61 874.805 1582.8C1203.92 1603 1223.62 1809.24 1223.62 1809.24C1287.81 2045 1285.53 2161.43 1289.39 2200.91C1311.37 2425.8 1277.47 2504.14 1261.94 2538.79C1261.94 2538.79 1193.83 2661.05 1056.71 2686.18C719.62 2747.95 507.945 2625.06 507.945 2625.06Z" fill="#F87B38"/>
<path d="M1261.91 2538.77C1261.91 2538.77 1193.85 2661.08 1056.71 2686.18C719.589 2747.95 507.945 2625.05 507.945 2625.05C411.828 2554.83 362.225 2462.9 346.601 2354.75C338.719 2300.4 339.418 2241.93 347.113 2180.06C360.224 2074.46 417.103 1918.8 492.399 1776.77C492.399 1776.77 545.678 1562.61 874.789 1582.82C1203.92 1603.02 1223.62 1809.25 1223.62 1809.25C1243.25 1881.28 1256.64 1942.23 1265.93 1993.2C1286.97 2109 1286.69 2173.53 1289.36 2200.91C1311.37 2425.82 1277.44 2504.15 1261.91 2538.77Z" fill="#FFAD40"/>
<path d="M1261.91 2538.77C1261.91 2538.77 1193.85 2661.08 1056.71 2686.18C719.59 2747.95 507.945 2625.05 507.945 2625.05C411.828 2554.83 362.225 2462.9 346.602 2354.75C346.602 2354.75 487.372 2558.94 769.332 2538.77C1081.25 2516.52 1145.36 2322.37 1153.34 2200.91C1161.28 2080.9 1131.13 1959.36 1131.13 1959.36L1265.93 1993.2C1286.97 2109 1286.69 2173.53 1289.36 2200.91C1311.37 2425.82 1277.44 2504.15 1261.91 2538.77Z" fill="#FF9343"/>
<path d="M1089.47 2388.9C1085.22 2410.41 1079.35 2431.36 1071.55 2451.65C1000.3 2637.13 582.378 2699.47 442.721 2490.25C427.236 2467.01 414.823 2442.7 405.156 2417.5C470.944 2475.68 592.356 2551.42 769.337 2538.77C939.269 2526.64 1035.67 2463.51 1089.47 2388.9Z" fill="#F9D3B7"/>
<path d="M1232.04 1806.96C1272.13 1924.54 1300.25 2047.74 1305.11 2172.29C1312.79 2280.58 1324.6 2393.65 1294.86 2500.36C1290.41 2515.93 1284.39 2531.53 1277.87 2545.94C1273.94 2554.78 1263.54 2558.75 1254.71 2554.74C1245.93 2550.77 1242.02 2540.44 1246.01 2531.66C1252.19 2517.95 1257.29 2504.68 1261.34 2490.56C1281.45 2418.27 1280.76 2341.29 1276.92 2266.63C1270.87 2175.78 1263.63 2083.06 1248.76 1992.67C1239.19 1932.24 1227.39 1871.98 1215.19 1811.54C1213.16 1801.41 1228.23 1796.45 1232.04 1806.96Z" fill="#512717"/>
<path d="M429.606 2564.9C331.994 2468.16 311.644 2320.53 326.927 2189.34C335.317 2109.48 361.387 2032.91 389.985 1959.75C416.233 1894.83 447.429 1831.93 484.701 1772.68C487.276 1768.58 492.687 1767.35 496.769 1769.93C500.495 1772.27 501.86 1776.95 500.127 1780.86C472.645 1844.35 445.863 1907.7 422.344 1972.15C364.093 2128.03 329.716 2306.52 393.699 2465.73C406.431 2496.57 422.866 2526.04 442.873 2553.54C449.079 2561.94 437.355 2572.57 429.606 2564.9Z" fill="#512717"/>
<path d="M1286.67 3036.12C1286.16 3079.42 1289.33 3107.28 1279.53 3135.22C1257.46 3198.31 1197.64 3211.98 1023.14 3206.7C930.1 3203.9 902.093 3166.25 894.075 3134.2C881.099 3082.31 908.813 3031.41 908.813 3031.41V3031.31C908.071 3024.36 873.499 2701.61 867.567 2700.13C858.144 2697.74 749.715 2704 619.01 2669.24C619.01 2669.24 919.07 2687.43 1124.53 2553.95C1247 2474.38 1300.39 2332.58 1300.39 2332.58C1289.9 2468.68 1295.44 2818.92 1287.24 3013.77C1286.9 3021.66 1286.71 3029.08 1286.67 3036.12Z" fill="#F87B38"/>
<path d="M1300.37 2332.58C1294.39 2410.14 1293.6 2557.25 1292.52 2705.54C1291.73 2817.43 1290.76 2929.97 1287.21 3013.78C1286.88 3021.66 1286.68 3029.08 1286.65 3036.12C1286.14 3079.42 1289.31 3107.28 1279.51 3135.22C1257.44 3198.31 1197.61 3211.98 1023.11 3206.7C930.07 3203.91 902.079 3166.26 894.046 3134.2C881.07 3082.31 908.799 3031.41 908.799 3031.41V3031.32C908.243 3026.09 888.686 2843.75 876.451 2751.87C872.357 2721.12 869.036 2700.5 867.553 2700.13C858.13 2697.75 749.686 2704 618.998 2669.24C618.998 2669.24 919.056 2687.44 1124.5 2553.94C1247 2474.39 1300.37 2332.58 1300.37 2332.58Z" fill="#FFAD40"/>
<path d="M1300.37 2332.59C1294.39 2410.12 1293.6 2557.26 1292.52 2705.55C1292.29 2735.58 1292.07 2765.66 1291.81 2795.16C1291.02 2875.74 1289.8 2952.44 1287.19 3013.76C1286.88 3021.67 1286.71 3029.09 1286.67 3036.12C1286.14 3079.42 1289.32 3107.27 1279.51 3135.2C1257.41 3198.33 1197.61 3211.99 1023.1 3206.7C930.07 3203.91 902.11 3166.24 894.077 3134.2C881.101 3082.3 908.783 3031.4 908.783 3031.4V3031.31C908.381 3027.3 896.687 2918.35 885.766 2826.51C882.506 2799 879.262 2773.03 876.482 2751.86C872.373 2721.13 869.051 2700.48 867.568 2700.14C858.145 2697.73 749.671 2704.02 618.982 2669.23C618.982 2669.23 919.087 2687.44 1124.5 2553.94C1247 2474.37 1300.37 2332.59 1300.37 2332.59Z" fill="#FFAD40"/>
<path d="M1300.37 2332.59C1294.39 2410.12 1293.6 2557.26 1292.52 2705.55C1292.29 2735.58 1292.07 2765.66 1291.81 2795.16C1125.24 2868.01 962.155 2842.61 885.766 2826.51C882.506 2799 879.262 2773.03 876.482 2751.86C872.373 2721.13 869.051 2700.48 867.568 2700.14C858.145 2697.73 749.671 2704.02 618.982 2669.23C618.982 2669.23 919.087 2687.44 1124.5 2553.94C1247 2474.37 1300.37 2332.59 1300.37 2332.59Z" fill="#EF7F25"/>
<path d="M1300.37 2332.58C1294.39 2410.14 1293.6 2557.25 1292.52 2705.54C1143.87 2649.27 942.722 2723.83 876.451 2751.87C872.357 2721.12 869.036 2700.5 867.553 2700.13C858.13 2697.75 749.686 2704 618.998 2669.24C618.998 2669.24 919.056 2687.44 1124.5 2553.94C1247 2474.39 1300.37 2332.58 1300.37 2332.58Z" fill="#FF9343"/>
<path d="M1279.55 3135.22C1257.46 3198.31 1197.65 3211.98 1023.15 3206.7C930.097 3203.9 902.105 3166.25 894.077 3134.2C881.111 3082.31 908.826 3031.41 908.826 3031.41V3031.31C1014.78 2989.37 1164.89 2971.08 1286.68 3036.12C1286.16 3079.42 1289.33 3107.28 1279.55 3135.22Z" fill="white"/>
<path d="M1085.72 3190.27C1075.06 3190.27 1064.43 3190.15 1053.91 3190.01C1006.23 3188.76 943.572 3190.21 916.972 3145.38C911.191 3133.93 908.492 3121.53 908.064 3108.88C924.964 3131.02 958.229 3149.93 1023.11 3151.89C1045.14 3152.55 1065.38 3152.92 1083.91 3152.92C1192.59 3152.92 1243.69 3140.42 1268.49 3103.06C1263.91 3155.73 1233.03 3177.74 1177.69 3185.01C1147.92 3189.27 1116.67 3190.27 1085.72 3190.27Z" fill="#D9D9EA"/>
<path d="M1317.79 2333.91C1310.74 2445.48 1311.54 2558.88 1310.26 2671.02C1310.48 2812.06 1305.54 2953.07 1303.93 3094.58C1303.15 3125.95 1293.83 3160.37 1269.63 3183.65C1225.04 3224.98 1152.41 3223.16 1096.08 3225.16C1067.65 3225.27 1038.66 3225 1010.17 3223.56C955.451 3221.1 890.785 3198.41 877.108 3138.25C867.772 3099.18 875.941 3058.46 893.477 3023.07L891.454 3033.27C882.102 2947.78 868.97 2827.05 857.658 2743.19C856.32 2733.08 853.924 2716.62 851.776 2707.13C851.621 2706.66 851.994 2707.66 852.01 2707.69C853.628 2711.24 856.444 2714.39 860.91 2716.26L863.524 2717.12C863.664 2717.16 863.82 2717.2 863.991 2717.22C864.535 2717.28 864.069 2717.24 863.929 2717.24C857.051 2716.8 842.41 2716.93 835.47 2716.73C761.234 2716.08 686.703 2702.15 616.778 2677.7C607.162 2674.21 610.523 2659.07 621.259 2660.82C689.94 2673.63 766.556 2678.56 836.388 2681.29C843.001 2681.36 857.954 2682.04 864.302 2682.22C866.371 2682.28 869.141 2682.6 871.537 2683.12C871.646 2683.16 871.631 2683.15 871.631 2683.14C871.646 2683.12 871.74 2683.09 874.291 2684.01C879.893 2686.35 883.114 2690.82 884.763 2695.65C888.529 2708.85 890.162 2725.08 892.232 2738.39C903.668 2822.72 916.692 2943.9 926.167 3029.56C927.085 3036.69 922.916 3041.22 920.426 3047.79C908.025 3078.24 901.692 3115.15 916.972 3145.38C943.563 3190.21 1006.24 3188.76 1053.91 3190.01C1094.96 3190.57 1137.67 3190.73 1177.71 3185.01C1236.38 3177.29 1267.56 3153.02 1269.03 3093.17C1272.87 2896.42 1275.59 2698.63 1277.04 2501.39C1278.04 2444.84 1279.03 2388.41 1282.97 2331.23C1283.62 2321.61 1291.98 2314.34 1301.59 2315.01C1311.32 2315.68 1318.62 2324.21 1317.79 2333.91Z" fill="#000072"/>
<path d="M1223.62 3033.46C1179.06 3018.94 1133.56 3016.56 1087.6 3017.37C1041.04 3018.37 997.064 3027.19 951.265 3038.56C1008.39 2992.42 1089.37 2980.91 1159.44 2999.62C1182.69 3006.16 1206.44 3016.07 1223.62 3033.46Z" fill="#000072"/>
<path d="M648.257 3056.88C628.413 3083.78 626.981 3118.92 637.637 3149.08C649.104 3178.14 678.792 3181.19 706.977 3181.94C725.15 3182.55 727.382 3208.5 709.745 3212.31C661.287 3222.5 611.648 3194.22 611.266 3141.37C610.073 3110.07 621.302 3074.2 648.257 3056.88Z" fill="#000072"/>
<path d="M541.09 3059.48C522.388 3079.73 516.591 3106.11 520.195 3131.92C522.243 3146.76 526.753 3162.73 538.381 3171.6C558.068 3185.29 580.977 3182.52 606.628 3185.87L606.024 3216.43C564.402 3220.68 513.066 3210.59 501.84 3163.22C492.562 3125.31 505.981 3078.32 541.09 3059.48Z" fill="#000072"/>
<path d="M704.672 1503.78C704.672 1503.78 201.942 2129.51 442.712 2490.26C582.341 2699.49 1000.31 2637.15 1071.55 2451.64C1167.83 2200.91 970.716 1851.26 1094.76 1640.35C1166.65 1518.12 1161.16 1478.56 1161.16 1478.56L704.672 1503.78Z" fill="#FFF3E9"/>
<path d="M1089.47 2388.9C1085.22 2410.41 1079.35 2431.36 1071.55 2451.65C1000.3 2637.13 582.378 2699.47 442.721 2490.25C427.236 2467.01 414.823 2442.7 405.156 2417.5C470.944 2475.68 592.356 2551.42 769.337 2538.77C939.269 2526.64 1035.67 2463.51 1089.47 2388.9Z" fill="#F9D3B7"/>
<path d="M1004.89 3066.56C988.035 3109.66 990.715 3167.98 1034.28 3193.26L1012.03 3220.18C968.307 3178.09 973.046 3113.71 1004.89 3066.56Z" fill="#000072"/>
<path d="M1131.64 3075.4C1128.04 3107.69 1128.93 3143.71 1144.51 3172.44C1149.4 3181.12 1155.83 3187.93 1163.01 3192.51L1139.71 3218.52C1104.49 3178.39 1114.63 3120.7 1131.64 3075.4Z" fill="#000072"/>
<path d="M437.312 2423.65C413.957 2403.96 399.921 2376.66 389.42 2348.97C317.756 2159.68 385.215 1932.87 473.579 1760.29C475.813 1756.01 481.094 1754.36 485.382 1756.6C489.348 1758.68 491.068 1763.38 489.492 1767.47C469.482 1820.52 451.157 1873.95 435.962 1928.08C406.085 2034.75 387.724 2147.45 403.696 2257.25C407.662 2284.27 413.754 2310.95 422.821 2336.57C432.079 2362.27 443.738 2386.2 451.838 2413.98C454.693 2422.32 443.954 2429.57 437.312 2423.65Z" fill="#512717"/>
<path d="M699.301 1516.62C555.417 1519.93 396.614 1634.62 356.924 1674.31C338.734 1692.5 295.719 1740.21 238.642 1850.21C183.389 1956.73 192.263 2101.35 191.512 2125.35C179.354 2514.19 569.465 2316.82 569.465 2316.82L699.301 1516.62Z" fill="white"/>
<path d="M699.288 1516.62L627.453 1959.59C440.662 1841.2 377.754 1735.63 366.588 1665.29C418.008 1619.6 565.149 1519.72 699.288 1516.62Z" fill="white"/>
<path d="M323.689 2067.59C316.041 2063.61 307.913 2060.1 299.507 2057.08C299.496 2057.08 299.496 2057.08 299.485 2057.08C292.728 2054.66 285.816 2052.53 278.814 2050.72C288.938 2027.71 324.258 1950.63 370.972 1884.27C350.87 1940.94 335.819 1999.44 325.239 2058.66C324.715 2061.63 324.202 2064.61 323.689 2067.59Z" fill="#D9D9EA"/>
<path d="M374.03 2384.42C334.871 2384.42 295.672 2376.72 262.189 2355.41C200.154 2315.93 170.508 2238.34 174.048 2124.79C174.129 2122.16 174.089 2117.94 174.035 2112.43C173.562 2065.3 172.332 1940.11 223.152 1842.17C264.607 1762.26 306.603 1699.94 344.573 1661.97C386.839 1619.71 549.324 1502.61 698.905 1499.16C708.647 1499.05 716.539 1506.58 716.755 1516.22C716.984 1525.86 709.35 1533.85 699.702 1534.08C562.472 1537.24 407.297 1648.64 369.273 1686.67C344.519 1711.4 304.468 1761.25 254.149 1858.25C207.342 1948.47 208.504 2067.34 208.937 2112.08C209.004 2118.24 209.045 2122.94 208.95 2125.89C205.815 2226.2 230.016 2293.5 280.876 2325.91C382.151 2390.43 559.796 2302.13 561.58 2301.24C570.187 2296.87 580.686 2300.35 585.037 2308.95C589.388 2317.55 585.943 2328.05 577.349 2332.4C571.619 2335.3 472.953 2384.42 374.03 2384.42Z" fill="#512717"/>
<path d="M400.131 1750.64C385.661 1726.83 376.336 1704.83 370.89 1685.06C378.696 1677.49 390.643 1667.36 405.79 1655.94C409.116 1670.5 415.981 1685.46 423.561 1698.8C412.028 1716.38 404.686 1734.04 400.131 1750.64Z" fill="#D9D9EA"/>
<path d="M374.03 2384.42C334.871 2384.42 295.672 2376.72 262.189 2355.41C200.154 2315.93 170.508 2238.34 174.048 2124.79C174.129 2122.16 174.089 2117.94 174.035 2112.43C173.562 2065.3 172.332 1940.11 223.152 1842.17C264.607 1762.26 306.603 1699.94 344.573 1661.97C386.839 1619.71 549.324 1502.61 698.905 1499.16C708.647 1499.05 716.539 1506.58 716.755 1516.22C716.984 1525.86 709.35 1533.85 699.702 1534.08C562.472 1537.24 407.297 1648.64 369.273 1686.67C344.519 1711.4 304.468 1761.25 254.149 1858.25C207.342 1948.47 208.504 2067.34 208.937 2112.08C209.004 2118.24 209.045 2122.94 208.95 2125.89C205.815 2226.2 230.016 2293.5 280.876 2325.91C382.151 2390.43 559.796 2302.13 561.58 2301.24C570.187 2296.87 580.686 2300.35 585.037 2308.95C589.388 2317.55 585.943 2328.05 577.349 2332.4C571.619 2335.3 472.953 2384.42 374.03 2384.42Z" fill="#000072"/>
<path d="M1282.75 1763.31C1335.32 1919.22 1379.75 2414.38 1324.56 2723.59C1324.56 2723.59 1102.07 2813.75 788.024 2765.64L739.806 2677.56L718.931 2766.35C501.932 2786.35 385.847 2742.46 385.847 2742.46C272.504 2341.23 332.25 2042.95 397.639 1839.16C397.639 1839.16 322.179 1566.25 810.652 1567.41C1308.36 1568.59 1282.75 1763.31 1282.75 1763.31Z" fill="white"/>
<path d="M1324.56 2723.62C1324.56 2723.62 1102.07 2813.76 788.043 2765.66L739.809 2677.56L718.951 2766.35C501.905 2786.34 385.837 2742.48 385.837 2742.48C272.479 2341.23 332.236 2042.96 397.628 1839.19C397.628 1839.19 322.197 1566.25 810.655 1567.42C824.534 1567.47 838.062 1567.65 851.161 1568C1163.88 1575.76 1250.66 1664.82 1274.27 1719.98C1285.14 1745.22 1282.74 1763.33 1282.74 1763.33C1335.3 1919.21 1379.73 2414.39 1324.56 2723.62Z" fill="white"/>
<path d="M772.027 2040.73C556.96 1932.99 449.093 1831.29 400.158 1750.62C420.413 1676.68 496.275 1581.38 749.417 1568.82L772.027 2040.73Z" fill="white"/>
<path d="M700.764 2003.13C532.508 1909.47 443.354 1821.84 400.166 1750.62C404.712 1734.03 412.06 1716.37 423.573 1698.8C433.316 1715.96 444.227 1730.46 450.235 1738C453.356 1741.92 458 1744.29 463.001 1744.56H463.185C465.495 1749.06 470.078 1751.69 474.846 1751.69C476.713 1751.69 478.618 1751.28 480.412 1750.44L489.946 1745.94L525.59 1747.78L481.96 1780.5C477.758 1783.65 475.202 1788.5 474.981 1793.75C474.772 1798.98 476.922 1804.03 480.829 1807.52L700.764 2003.13Z" fill="#D9D9EA"/>
<path d="M722.266 2137.46C722.515 2135.93 722.764 2134.35 723.012 2132.75C725.851 2131.77 728.442 2130.06 730.52 2127.69C757.418 2096.65 812.765 2040.95 880.171 1986.1C999.953 1888.65 1156.03 1834.36 1157.61 1833.81C1161.72 1832.41 1165.1 1829.53 1167.17 1825.82C1167.69 1840.55 1167.78 1855.41 1167.38 1870.4C1062.4 1914.39 858.249 2009.95 722.266 2137.46ZM1166.24 1807.31C1165.28 1805.91 1164.08 1804.65 1162.7 1803.57L1109.9 1762.18C1119.14 1761.89 1129.23 1761.71 1139.7 1761.71C1146.97 1761.71 1154.4 1761.8 1161.84 1762C1163.8 1776.93 1165.28 1792.03 1166.24 1807.31Z" fill="#D9D9EA"/>
<path d="M1298.23 1618.36C1299.11 1705.8 1256.07 1752.81 1225.17 1775.29L1030.04 1498.41C1140.13 1514.39 1232.32 1566.99 1298.23 1618.36Z" fill="#E3E4E5"/>
<path d="M630.392 1717.88C630.392 1717.88 661.945 1937.39 769.337 1941.77C876.73 1946.16 913.475 1916.01 973.365 1763.89C1033.24 1611.77 730.755 1548.06 630.392 1717.88Z" fill="#529ECC"/>
<path d="M1291.01 1760.54C1332.83 1875.81 1345.82 1998.23 1357.32 2119.4C1367.43 2240.59 1371.84 2362.29 1367 2483.87C1363.89 2565.21 1356.94 2646.48 1341.74 2726.66C1340.74 2732.81 1336.53 2737.66 1331.11 2739.78C1200.59 2786.44 1060.36 2800.97 922.469 2796.15C876.573 2794.19 830.789 2789.79 785.386 2782.9C779.826 2782.06 775.235 2778.58 772.709 2774.02L724.494 2685.95L756.807 2681.56C756.807 2681.67 735.868 2770.49 735.868 2770.63C734.121 2778.06 727.75 2783.19 720.522 2783.74L678.074 2786.92C585.568 2791.78 491.505 2788.72 401.367 2765.46C390.31 2761.44 373.311 2761.02 369.23 2747.86C347.383 2673.63 330.031 2597.89 319.023 2521.08C296.136 2367.95 298.228 2211.08 325.244 2058.66C338.832 1982.63 359.764 1907.79 389.325 1836.5C393.805 1827.05 408.007 1831.05 405.958 1841.84C388.88 1915.95 371.786 1989.6 359.835 2064.54C322.54 2288.65 343.628 2519.16 402.653 2737.71L392.025 2726.12C394.44 2727 397.84 2728.09 400.906 2729C489.933 2754.04 584.091 2756.72 676.025 2752.06L717.329 2748.96L701.935 2762.35L722.81 2673.56C725.018 2664.17 734.423 2658.36 743.812 2660.56C748.8 2661.74 752.819 2665 755.123 2669.18L803.338 2757.26L790.66 2748.39C834.808 2755.08 879.306 2759.35 923.898 2761.26C1056.66 2765.95 1192.42 2751.99 1317.99 2707.42L1307.36 2720.53C1320.26 2642.17 1325.9 2562.32 1329.05 2482.46C1335.53 2282.39 1324.12 2081.57 1296.64 1883.32C1290.84 1843.83 1284.53 1804.29 1274.48 1766.11C1273.11 1761.42 1275.92 1756.48 1280.66 1755.25C1284.99 1754.1 1289.44 1756.45 1291.01 1760.54Z" fill="#000072"/>
<path d="M739.786 2695.02C731.868 2695.02 724.689 2689.59 722.809 2681.53C660.224 2413.16 699.611 2116.83 700.023 2113.87C701.333 2104.32 710.113 2097.65 719.681 2098.95C729.236 2100.26 735.918 2109.06 734.621 2118.6C734.22 2121.51 695.731 2411.64 756.812 2673.6C759.007 2682.98 753.174 2692.38 743.776 2694.56C742.442 2694.87 741.108 2695.02 739.786 2695.02Z" fill="#000072"/>
<path d="M267.046 2047.95C300.677 2055.05 334.16 2068.95 355.389 2090.16C416.699 2151.4 466.469 2253.03 481.36 2348.04C491.343 2411.69 493.808 2551.82 416.165 2536.28C264.32 2505.92 162.826 2354.17 150.695 2259.99C134.169 2131.69 174.138 1989.72 238.64 1850.21L267.046 2047.95Z" fill="white"/>
<path d="M416.176 2536.31C264.309 2505.94 162.825 2354.16 150.684 2260C139.984 2176.93 152.955 2088.14 180.975 1998.01C196.218 1948.91 215.901 1899.41 238.64 1850.21L267.057 2047.94C300.666 2055.06 334.16 2068.95 355.411 2090.16C413.598 2148.3 461.347 2242.81 478.815 2333.51C479.724 2338.36 480.598 2343.21 481.337 2348.04C491.332 2411.69 493.819 2551.81 416.176 2536.31Z" fill="white"/>
<path d="M400.342 2532.67C385.449 2528.78 371.099 2523.73 357.293 2517.71C342.693 2511.34 328.72 2503.89 315.436 2495.54C220.466 2435.93 159.891 2331.4 150.683 2260C148.154 2240.37 146.952 2220.42 146.952 2200.21C146.963 2134.9 159.577 2066.85 180.981 1998.01C180.981 1998.01 168.105 2081.78 181.305 2081.78C181.399 2081.78 181.493 2081.78 181.588 2081.77C195.205 2080.63 216.024 2062.48 233.394 2057.55C233.394 2057.55 144.622 2150.05 215.763 2314.21C246.406 2384.89 318.07 2435.07 379.356 2435.07C407.731 2435.07 433.869 2424.32 452.692 2399.89C443.213 2448.61 425.237 2491.75 400.342 2532.67Z" fill="#D9D9EA"/>
<path d="M267.054 2047.95C306.947 2046.52 348.115 2060.23 376.597 2089.63C442.251 2156.98 482.673 2247.05 500.077 2339.02C512.142 2407.92 518.502 2576.7 409.016 2554.42C276.548 2525.67 159.416 2400.32 134.022 2268.21C121.957 2183.32 134.849 2095.87 157.82 2014.58C174.708 1955.4 197.22 1898.28 222.809 1842.88C226.839 1834.12 237.228 1830.3 245.976 1834.35C254.735 1838.38 258.547 1848.77 254.506 1857.52C229.502 1911.66 207.656 1967.2 191.411 2024.13C169.84 2100.36 158.13 2179.17 168.256 2257.54C169.484 2266 171.229 2274.42 173.514 2282.79C197.978 2364.34 256.251 2437.25 328.794 2481.67C353.12 2496.47 379.467 2507.5 406.709 2514.44C418.499 2516.9 428.165 2520.53 437.786 2515.82C475.348 2492.08 467.542 2386.12 460.654 2345.74C446.981 2267.4 414.515 2191.65 366.552 2128.12C358.022 2116.85 349.584 2105.28 339.998 2094.94C320.103 2074.6 293.24 2060.9 267.054 2047.95Z" fill="#000072"/>
<path d="M1030.06 1498.43C1235.08 1528.2 1377.97 1684.95 1404.81 1724.21C1504.89 1870.61 1610.13 2131.58 1580.98 2259.99C1538.46 2447.42 1307.77 2527.93 1210.58 2527.03C1131.39 2526.3 1119.42 2377.86 1129.41 2314.2C1149.81 2226.25 1279.11 2123.5 1317.98 2097.23C1317.98 2097.23 1307.51 1970.41 1273.33 1843.58L1030.06 1498.43Z" fill="white"/>
<path d="M1581.01 2260C1538.44 2447.43 1307.74 2527.93 1210.58 2527.02C1131.4 2526.31 1119.43 2377.86 1129.4 2314.21C1137.56 2279.12 1163.01 2241.67 1193.21 2207.66C1238.6 2156.41 1294.6 2113.02 1317.97 2097.23C1317.97 2097.23 1307.48 1970.41 1273.32 1843.62L1030.05 1498.42C1235.07 1528.18 1377.99 1684.93 1404.84 1724.22C1461.92 1807.73 1520.68 1928.55 1555.21 2040.74C1581.23 2125.24 1593.49 2204.82 1581.01 2260Z" fill="white"/>
<path d="M1581.01 2260C1538.44 2447.43 1307.74 2527.93 1210.58 2527.02C1131.4 2526.31 1119.43 2377.86 1129.4 2314.21C1137.56 2279.12 1163.01 2241.67 1193.21 2207.66C1238.6 2156.41 1294.6 2113.02 1317.97 2097.23C1317.97 2097.23 1317.92 2096.66 1317.83 2095.6C1316.49 2080.55 1305.22 1962.08 1273.32 1843.62L1030.05 1498.42C1235.07 1528.18 1377.99 1684.93 1404.84 1724.22C1461.92 1807.73 1520.68 1928.55 1555.21 2040.74C1581.23 2125.24 1593.49 2204.82 1581.01 2260Z" fill="white"/>
<path d="M1581.01 2260C1538.44 2447.43 1307.74 2527.93 1210.58 2527.02C1131.4 2526.31 1119.43 2377.86 1129.4 2314.21C1137.56 2279.12 1163.01 2241.67 1193.21 2207.66C1238.6 2156.41 1294.6 2113.02 1317.97 2097.23C1317.97 2097.23 1317.92 2096.66 1317.83 2095.6C1316.49 2080.55 1305.22 1962.08 1273.32 1843.62L1030.05 1498.42C1235.07 1528.18 1377.99 1684.93 1404.84 1724.22C1461.92 1807.73 1520.68 1928.55 1555.21 2040.74C1581.23 2125.24 1593.49 2204.82 1581.01 2260Z" fill="white"/>
<path d="M1233.02 1769.23C1232.13 1761.15 1231.12 1753.08 1229.98 1745.09C1250.84 1723.98 1285.73 1683.58 1297.43 1639.67C1297.46 1639.7 1297.49 1639.73 1297.54 1639.76C1292.4 1706.96 1260.1 1747.05 1233.02 1769.23Z" fill="#D9D9EA"/>
<path d="M1334.05 2087.67C1327.35 2047.22 1318.98 2007.76 1309.33 1968.02C1299.15 1926.04 1287.2 1884.46 1273.32 1843.61C1278.57 1843.98 1365.69 2011.21 1379.2 2067.55C1379.2 2067.55 1360.93 2074.81 1334.05 2087.67ZM1273.36 1843.79C1273.34 1843.74 1273.32 1843.68 1273.31 1843.61H1273.32C1273.32 1843.68 1273.34 1843.74 1273.36 1843.79Z" fill="#D9D9EA"/>
<path d="M1208.45 2508.81C1205.28 2508.5 1202.25 2507.85 1199.35 2506.9C1167.58 2446.16 1150.98 2379.28 1154.34 2296.13C1163.11 2275.83 1176.18 2255.85 1191.43 2236.76C1189.19 2301.14 1197.38 2394.87 1260.08 2418.8C1271.66 2423.23 1284.72 2425.28 1298.68 2425.28C1387.01 2425.28 1511.88 2343.43 1534.69 2264.85C1575.42 2124.33 1479.12 2055.32 1476.03 2053.09C1477.93 2053.49 1508.88 2060.38 1530.09 2085.23C1534.07 2089.85 1537.55 2091.99 1540.56 2091.99C1543.84 2091.99 1546.54 2089.47 1548.72 2084.89C1560.97 2133.5 1568.01 2181.79 1566.73 2227.06C1558.85 2333.16 1474.58 2415.47 1383.37 2460.95C1329.22 2487.51 1269.11 2508.37 1208.45 2508.81Z" fill="#D9D9EA"/>
<path d="M1031.31 1489.78C1181.5 1504.75 1319.84 1591.73 1414.44 1707.4C1436.33 1737.81 1455.56 1770.43 1473.62 1803.16C1537.79 1923.29 1609.59 2091.57 1604.02 2229.43C1598.87 2307.99 1553.75 2380.4 1495.33 2430.76C1421.29 2494.87 1304.78 2545.47 1206.21 2545C1147.52 2541.16 1122.87 2476.19 1114.46 2426.93C1107.94 2387.96 1106.17 2349.62 1112.08 2310.17C1125.75 2257.87 1159.47 2218.1 1194.59 2180.26C1229.68 2144.06 1266.68 2111.77 1308.2 2082.76L1300.57 2098.66C1298.96 2034.88 1293.3 1970.46 1284.14 1907.18C1281.16 1885.9 1277.35 1864.75 1273.32 1843.59C1287.2 1884.46 1299.15 1926.03 1309.33 1968.02C1319.63 2010.41 1328.46 2052.48 1335.38 2095.79C1336.27 2101.36 1333.98 2106.71 1329.88 2110C1310.25 2124 1290.42 2139.14 1271.74 2155.38C1222.26 2198.68 1163.32 2257.29 1146.95 2316.94C1139.18 2365.63 1145.7 2502.58 1208.45 2508.81C1269.12 2508.37 1329.22 2487.51 1383.37 2460.95C1474.59 2415.46 1558.85 2333.15 1566.73 2227.06C1570.47 2094.86 1503.35 1936.94 1442.12 1820.3C1416.28 1773.47 1390.23 1726.91 1351.49 1689.09C1313.89 1650.96 1271.83 1616.98 1226.58 1588.31C1166.23 1549.86 1099.46 1521.55 1028.78 1507.07C1018.66 1505.21 1019.9 1488.98 1031.31 1489.78Z" fill="#000072"/>
<path d="M810.642 2156.79C810.642 2167.44 801.994 2176.09 791.33 2176.09C780.666 2176.09 772.018 2167.44 772.018 2156.79C772.018 2146.12 780.666 2137.46 791.33 2137.46C801.994 2137.46 810.642 2146.12 810.642 2156.79Z" fill="#000072"/>
<path d="M810.642 2294.87C810.642 2305.54 801.994 2314.2 791.33 2314.2C780.666 2314.2 772.018 2305.54 772.018 2294.87C772.018 2284.21 780.666 2275.57 791.33 2275.57C801.994 2275.57 810.642 2284.21 810.642 2294.87Z" fill="#000072"/>
<path d="M810.642 2410.75C810.642 2421.42 801.994 2430.07 791.33 2430.07C780.666 2430.07 772.018 2421.42 772.018 2410.75C772.018 2400.08 780.666 2391.43 791.33 2391.43C801.994 2391.43 810.642 2400.08 810.642 2410.75Z" fill="#000072"/>
<path d="M826.649 2533.5C826.649 2544.16 818.008 2552.8 807.335 2552.8C796.663 2552.8 788.021 2544.16 788.021 2533.5C788.021 2522.83 796.663 2514.19 807.335 2514.19C818.008 2514.19 826.649 2522.83 826.649 2533.5Z" fill="#000072"/>
<path d="M849.271 2646.81C849.271 2657.47 840.623 2666.12 829.946 2666.12C819.294 2666.12 810.646 2657.47 810.646 2646.81C810.646 2636.13 819.294 2627.49 829.946 2627.49C840.623 2627.49 849.271 2636.13 849.271 2646.81Z" fill="#000072"/>
<path d="M438.461 2154.4C484.494 2342.65 454.804 2458.42 379.22 2564.65C379.22 2564.65 513.205 2719.52 525.798 2476.73C538.392 2233.96 438.461 2154.4 438.461 2154.4Z" fill="white"/>
<path d="M509.355 2631.82C417.101 2631.82 389.485 2576.8 389.485 2576.8C389.485 2576.8 390.619 2577.39 392.74 2578.34C408.3 2592.74 435.04 2613.32 460.534 2613.32C472.456 2613.32 484.086 2608.84 494.2 2597.14C531.83 2594.89 574.309 2581.2 612.208 2542.23C612.208 2542.23 590.429 2630.69 512.69 2631.79C511.567 2631.81 510.456 2631.82 509.355 2631.82Z" fill="#D9D9EA"/>
<path d="M460.532 2613.32C435.034 2613.32 408.306 2592.74 392.742 2578.35C403.318 2583.15 438.667 2597.5 482.461 2597.5C486.304 2597.5 490.232 2597.39 494.202 2597.15C484.088 2608.83 472.452 2613.32 460.532 2613.32Z" fill="#D9D9EA"/>
<path d="M652.702 2338.73C652.702 2338.73 640.975 2314.27 580.505 2265.4C531.704 2225.98 481.527 2198.69 481.527 2198.69C481.527 2198.69 626.54 2232.32 652.702 2338.73Z" fill="#D9D9EA"/>
<path d="M980.528 2338.72C1000.62 2201.98 1132.17 2167.99 1132.17 2167.99C1132.17 2167.99 1076.48 2199.78 1036.23 2253.35C989.524 2315.52 980.528 2338.72 980.528 2338.72Z" fill="#D9D9EA"/>
<path d="M438.451 2154.39C500.646 2288.51 491.875 2459.8 379.218 2564.65C453.398 2407.23 448.075 2322.33 438.451 2154.39Z" fill="#000072"/>
<path d="M1175.83 2154.41C1129.8 2342.65 1159.49 2458.42 1235.07 2564.66C1235.07 2564.66 1101.09 2719.52 1088.49 2476.74C1075.88 2233.97 1175.83 2154.41 1175.83 2154.41Z" fill="white"/>
<path d="M1175.83 2154.39C1166.18 2322.45 1160.94 2407.35 1235.07 2564.66C1122.39 2459.78 1113.65 2288.51 1175.83 2154.39Z" fill="#000072"/>
<path d="M697.501 1509.08L940.288 1511.73L859.381 1686.76L783.882 1686.47L697.501 1509.08Z" fill="#D33737"/>
<path d="M794.837 1669.04L848.258 1669.25L913.123 1528.87L725.58 1526.82L794.837 1669.04ZM859.39 1704.21H859.336L783.828 1703.93C777.17 1703.9 771.11 1700.09 768.195 1694.11L681.812 1516.71C679.155 1511.26 679.507 1504.83 682.748 1499.72C685.975 1494.6 691.697 1491.49 697.689 1491.6L940.484 1494.24C946.41 1494.31 951.901 1497.38 955.06 1502.38C958.219 1507.38 958.626 1513.66 956.145 1519.04L875.254 1694.07C872.393 1700.25 866.197 1704.21 859.39 1704.21Z" fill="#000072"/>
<path d="M795.524 1997.25C791.544 1997.25 787.524 1995.9 784.253 1993.11C776.897 1986.89 775.977 1975.86 782.217 1968.49L885.944 1846L845.076 1700.39C840.662 1699.65 833.121 1698.88 820.904 1698.88C808.674 1698.88 801.41 1699.61 797.324 1700.28L739.155 1853.72C735.726 1862.74 725.651 1867.26 716.639 1863.85C707.627 1860.45 703.082 1850.36 706.498 1841.34L767.57 1680.28C768.227 1678.52 769.185 1676.86 770.381 1675.4C775.031 1669.75 784.647 1663.96 820.904 1663.96C847.729 1663.96 864.255 1667.27 871.428 1674.1C873.7 1676.27 875.355 1679 876.196 1682.04L922.069 1845.5C923.646 1851.07 922.332 1857.07 918.588 1861.5L808.871 1991.06C805.403 1995.15 800.477 1997.25 795.524 1997.25Z" fill="#512717"/>
<path d="M722.839 1847.53L783.895 1686.47C783.895 1686.47 788.036 1681.43 820.908 1681.43C853.781 1681.43 859.381 1686.75 859.381 1686.75L905.264 1850.2L795.538 1979.79" fill="#D33737"/>
<path d="M766.604 1878.33C752.817 1843.61 790.928 1760.75 818.795 1763.88C860.704 1768.59 866.958 1871.72 857.583 1881.08C848.209 1890.45 789.483 1935.95 766.604 1878.33Z" fill="#F9572B"/>
<path d="M795.524 1997.25C791.544 1997.25 787.524 1995.9 784.253 1993.11C776.897 1986.89 775.977 1975.86 782.217 1968.49L885.944 1846L845.076 1700.39C840.662 1699.65 833.121 1698.88 820.904 1698.88C808.674 1698.88 801.41 1699.61 797.324 1700.28L739.155 1853.72C735.726 1862.74 725.651 1867.26 716.639 1863.85C707.627 1860.45 703.082 1850.36 706.498 1841.34L767.57 1680.28C768.227 1678.52 769.185 1676.86 770.381 1675.4C775.031 1669.75 784.647 1663.96 820.904 1663.96C847.729 1663.96 864.255 1667.27 871.428 1674.1C873.7 1676.27 875.355 1679 876.196 1682.04L922.069 1845.5C923.646 1851.07 922.332 1857.07 918.588 1861.5L808.871 1991.06C805.403 1995.15 800.477 1997.25 795.524 1997.25Z" fill="#000072"/>
<path d="M665.054 1745.04C668.479 1745.04 825.167 1612.04 825.167 1612.04L983.567 1749.32L1148.3 1567.95C1148.3 1567.95 1064.89 1443.47 1060.61 1446.56C1056.33 1449.65 576.861 1529.28 576.861 1529.28L665.054 1745.04Z" fill="#529ECC"/>
<path d="M1054.57 1430.19C1053.64 1430.51 1052.06 1431.2 1050.38 1432.41C1051.65 1431.49 1053.07 1430.74 1054.57 1430.19ZM1070.32 1461.07C1069.31 1461.73 1067.62 1462.46 1061.28 1463.93C1064.25 1463.85 1067.41 1463.02 1070.32 1461.07ZM983.546 1766.78C979.494 1766.78 975.426 1765.37 972.12 1762.52L825.046 1635.04C674.813 1762.5 673.379 1762.5 665.054 1762.5C655.412 1762.5 647.599 1754.68 647.599 1745.04C647.599 1738.3 651.403 1732.45 656.992 1729.54C669.004 1721.04 758.928 1645.35 813.868 1598.74C820.437 1593.15 830.094 1593.21 836.59 1598.85L982.098 1724.95L1126.17 1566.33C1097.6 1523.97 1067.13 1480.41 1054.96 1465.32C1022.9 1472.02 920.881 1489.85 579.724 1546.5C570.214 1548.07 561.216 1541.65 559.65 1532.14C558.07 1522.63 564.493 1513.64 574.003 1512.06C757.845 1481.53 1036.47 1434.69 1055.01 1430.04C1057.89 1429.06 1061.02 1428.78 1063.99 1429.32C1072.5 1430.84 1078.14 1431.87 1162.81 1558.21C1167.27 1564.88 1166.61 1573.73 1161.23 1579.67L996.481 1761.06C993.042 1764.85 988.302 1766.78 983.546 1766.78Z" fill="#000072"/>
<path d="M1466.25 2047.95C1416.14 2058.9 1366.73 2079.89 1327.44 2111.89L1308.52 2082.55C1357.95 2057.99 1412.16 2047.76 1466.25 2047.95Z" fill="#000072"/>
<path d="M394.551 2586.44C440.885 2604.01 485.383 2613.7 532.254 2627.5C485.813 2645.06 422.141 2629.13 394.551 2586.44Z" fill="#000072"/>
<path d="M595.117 1557.19C659.628 1763.88 814.77 1960.53 814.77 1960.53L764.782 2036.7L492.426 1794.47L574.629 1732.82L463.897 1727.11C463.897 1727.11 404.897 1653.08 425.491 1622.56C452.768 1566.23 563.939 1531.65 595.117 1557.19Z" fill="white"/>
<path d="M814.759 1960.54L764.771 2036.72L492.439 1794.5L574.63 1732.82L463.884 1727.15C463.884 1727.15 420.765 1673.02 421.111 1638.28C421.151 1632.34 422.509 1627.01 425.477 1622.55C452.755 1566.24 563.94 1531.63 595.104 1557.22C607.671 1597.45 623.699 1637.36 641.325 1675.51C714.184 1833.09 814.759 1960.54 814.759 1960.54Z" fill="white"/>
<path d="M496.712 1794.68L764.225 2032.61L811.417 1960.69C799.777 1945.64 706.731 1823.47 638.857 1676.65C619.961 1635.76 604.456 1596.11 592.764 1558.83C581.932 1550.58 559.899 1549.1 533.509 1554.88C494.566 1563.44 444.912 1588.63 427.91 1623.75C425.169 1627.91 423.845 1632.69 423.818 1638.3C423.514 1669.21 459.57 1717.15 465.25 1724.5L582.237 1730.5L496.712 1794.68ZM765.311 2040.84L488.144 1794.34L566.996 1735.16L462.523 1729.8L461.755 1728.85C459.967 1726.61 418.032 1673.56 418.389 1638.25C418.442 1631.57 420.058 1625.79 423.209 1621.06C440.833 1584.65 492.17 1558.4 532.331 1549.59C561.276 1543.23 584.779 1545.24 596.816 1555.12L597.451 1555.64L597.689 1556.4C609.342 1593.72 624.847 1633.4 643.782 1674.37C715.656 1829.84 815.879 1957.6 816.885 1958.89L818.09 1960.41L765.311 2040.84Z" fill="#000072"/>
<path d="M617.738 1665.84C584.991 1654.05 548.991 1647.09 514.74 1643.11C515.319 1631.16 517.196 1618.54 520.976 1605.85C546.51 1611.21 572.391 1615.83 598.581 1619.76C604.624 1635.32 611.039 1650.71 617.738 1665.84ZM445.286 1638.45C442.946 1638.39 440.658 1638.36 438.382 1638.32C438.459 1635.85 438.973 1633.8 439.976 1632.31C440.439 1631.62 440.85 1630.9 441.21 1630.15C442.74 1626.99 444.63 1623.9 446.816 1620.88C446.083 1626.81 445.569 1632.69 445.286 1638.45Z" fill="#D9D9EA"/>
<path d="M519.99 1795.63L761.279 2010.22L793.348 1961.34C761.105 1918.73 638.526 1749.68 580.432 1568.66C572.705 1565.52 557.491 1564.7 536.632 1569.29C499.945 1577.36 455.397 1600.86 441.211 1630.16C440.851 1630.9 440.437 1631.62 439.97 1632.32C432.817 1642.91 450.82 1680.53 472.813 1710.1L575.521 1715.39C582.861 1715.77 589.174 1720.71 591.322 1727.74C593.458 1734.77 590.975 1742.39 585.103 1746.8L519.99 1795.63ZM764.789 2054.17C760.531 2054.17 756.394 2052.61 753.178 2049.75L480.821 1807.52C476.91 1804.04 474.762 1798.98 474.975 1793.75C475.202 1788.5 477.751 1783.64 481.955 1780.51L525.582 1747.78L462.991 1744.57C457.986 1744.3 453.356 1741.92 450.233 1738.01C434.672 1718.48 386.214 1652.28 410.276 1613.91C430.708 1573.12 484.517 1545.01 529.118 1535.19C548.75 1530.86 584.863 1526.22 606.189 1543.69C608.832 1545.84 610.78 1548.73 611.781 1551.99C674.559 1753.09 826.939 1947.78 828.474 1949.72C833.118 1955.61 833.492 1963.84 829.355 1970.11L779.375 2046.28C776.599 2050.53 772.102 2053.36 767.071 2054.03C766.31 2054.12 765.549 2054.17 764.789 2054.17Z" fill="#000072"/>
<path d="M1124.77 1557.19C928.441 1771.44 747.312 1864.85 717.315 2116.25C746.652 2082.42 803.643 2025.87 869.139 1972.57C992.9 1871.89 1151.92 1817.3 1151.92 1817.3L1062.36 1747.11C1062.36 1747.11 1142.55 1740.69 1202.48 1747.11C1202.48 1747.11 1345 1624.7 1252.92 1550.81C1139.96 1460.16 1194.29 1481.32 1124.77 1557.19Z" fill="white"/>
<path d="M1283.49 1619.54C1277.16 1682.96 1202.52 1747.08 1202.52 1747.08C1142.59 1740.68 1062.35 1747.08 1062.35 1747.08L1151.93 1817.32C1151.93 1817.32 992.9 1871.89 869.153 1972.55C803.678 2025.85 746.666 2082.41 717.33 2116.25C740.061 1925.75 849.555 1825.97 986.695 1695.63C1030.53 1653.95 1077.19 1609.11 1124.77 1557.22C1194.3 1481.3 1139.96 1460.16 1252.93 1550.79C1278.39 1571.22 1285.89 1595.32 1283.49 1619.54Z" fill="white"/>
<path d="M1024.19 1683.96C1046.03 1663.02 1068.22 1641.38 1090.8 1618.35C1101.56 1616.73 1112.26 1615 1122.81 1613.17C1128.25 1626.44 1133.2 1640 1137.67 1653.84C1102.98 1661.05 1060.98 1672.82 1024.19 1683.96ZM1207.12 1641.94C1202.7 1627.49 1197.8 1613.27 1192.44 1599.33C1215.19 1594.19 1237.28 1588.57 1258.44 1582.49C1263.61 1590.87 1266.25 1600.01 1266.42 1610.04C1266.52 1615.76 1265.82 1621.64 1264.46 1627.57C1247.43 1633.65 1228.06 1638.1 1207.12 1641.94Z" fill="#D9D9EA"/>
<path d="M1178.09 1511.83C1177.45 1512.98 1176.78 1514.14 1176.16 1515.23C1169.33 1527.34 1159.02 1545.68 1137.66 1568.99C1086.02 1625.32 1036.53 1672.34 988.677 1717.79C873.087 1827.6 779.113 1916.86 744.68 2061.59C774.536 2031.57 813.839 1995.06 858.136 1959.02C952.126 1882.55 1064.31 1832.78 1116.74 1811.91L1051.57 1760.85C1045.92 1756.4 1043.56 1748.96 1045.64 1742.07C1047.71 1735.19 1053.8 1730.27 1060.96 1729.7C1064.16 1729.44 1136.92 1723.75 1196.54 1728.99C1220.43 1706.75 1267.2 1654 1266.43 1610.03C1266.13 1592.28 1258.12 1577.36 1242 1564.42C1224.34 1550.27 1210.93 1538.97 1200.17 1529.89C1191.7 1522.76 1183.55 1515.9 1178.09 1511.83ZM717.313 2133.71C714.932 2133.71 712.536 2133.23 710.263 2132.21C703.244 2129.11 699.069 2121.78 699.981 2114.18C722.895 1922.12 829.579 1820.77 964.634 1692.48C1012.05 1647.43 1061.1 1600.83 1111.9 1545.4C1130.55 1525.05 1139.69 1508.82 1145.75 1498.09C1152.32 1486.41 1158.01 1476.33 1170.6 1474.06C1185.02 1471.48 1195.26 1480.1 1222.65 1503.19C1233.29 1512.14 1246.53 1523.29 1263.84 1537.19C1288.26 1556.76 1300.87 1581.1 1301.35 1609.49C1302.59 1683.28 1217.49 1757.23 1213.87 1760.34C1210.22 1763.5 1205.43 1764.98 1200.62 1764.46C1171.49 1761.35 1136.97 1761.36 1109.89 1762.18L1162.7 1803.57C1167.74 1807.52 1170.19 1813.9 1169.14 1820.21C1168.08 1826.52 1163.64 1831.74 1157.59 1833.83C1156.03 1834.36 999.948 1888.66 880.169 1986.11C812.757 2040.95 757.42 2096.66 730.518 2127.69C727.116 2131.6 722.261 2133.71 717.313 2133.71Z" fill="#000072"/>
<path d="M1243.09 1990.05C1243.09 2039.67 1206.69 2079.89 1161.79 2079.89C1116.88 2079.89 1080.5 2039.67 1080.5 1990.05C1080.5 1940.44 1116.88 1900.22 1161.79 1900.22C1206.69 1900.22 1243.09 1940.44 1243.09 1990.05Z" fill="#E8E8E8"/>
<path d="M1243.1 1990.07C1243.1 2039.64 1206.71 2079.89 1161.78 2079.89C1123.49 2079.89 1091.41 2050.6 1082.82 2011.23V2011.19C1081.28 2004.42 1080.5 1997.34 1080.5 1990.07C1080.5 1940.43 1116.91 1900.21 1161.78 1900.21C1196.09 1900.21 1225.43 1923.67 1237.34 1956.84C1241.05 1967.09 1243.1 1978.32 1243.1 1990.07Z" fill="#E8E8E8"/>
<path d="M1243.1 1990.07C1243.1 2039.64 1206.71 2079.89 1161.78 2079.89C1123.5 2079.89 1091.42 2050.6 1082.83 2011.23C1084.14 2013.03 1096.65 2030.22 1112.32 2023.32C1130.23 2015.5 1108.19 1944.31 1167.46 1923.54C1192.61 1914.7 1220.19 1938.06 1237.34 1956.84C1241.05 1967.09 1243.1 1978.32 1243.1 1990.07Z" fill="#C6C8CE"/>
<path d="M1161.8 1913.32C1124.19 1913.32 1093.59 1947.74 1093.59 1990.05C1093.59 2032.37 1124.19 2066.79 1161.8 2066.79C1199.4 2066.79 1230 2032.37 1230 1990.05C1230 1947.74 1199.4 1913.32 1161.8 1913.32ZM1161.8 2092.98C1109.75 2092.98 1067.41 2046.8 1067.41 1990.05C1067.41 1933.29 1109.75 1887.12 1161.8 1887.12C1213.84 1887.12 1256.2 1933.29 1256.2 1990.05C1256.2 2046.8 1213.84 2092.98 1161.8 2092.98Z" fill="#000072"/>
<path d="M1218.89 1944.31L1175.55 1939.23C1194.37 1778.16 1161.41 1625.99 1082.68 1510.73C1055.81 1471.36 996.699 1456.94 951.862 1451.77C804.378 1434.79 598.342 1490.2 551.999 1532.7C479.01 1599.65 503.712 1697.47 514.307 1719.99L474.836 1738.6C458.243 1703.38 431.416 1584.08 522.49 1500.54C582.623 1445.38 804.076 1390.81 956.851 1408.41C1035.22 1417.44 1089.69 1443.59 1118.73 1486.12C1203.38 1610.06 1238.95 1772.78 1218.89 1944.31Z" fill="#6A6D75"/>
<path d="M1218.87 1944.32L1175.52 1939.21C1187.57 1836.41 1178.45 1737.24 1149.86 1648.97C1133.66 1598.95 1111.14 1552.41 1082.69 1510.73C1055.79 1471.35 996.687 1456.96 951.854 1451.76C804.36 1434.83 598.331 1490.21 552.011 1532.7C516.012 1565.73 503.737 1606.31 501.859 1641.64C499.936 1677.86 508.936 1708.6 514.299 1719.99L474.845 1738.59C466.762 1721.43 456.245 1684.28 458.123 1641.02C460.136 1595.59 475.792 1543.35 522.503 1500.56C582.615 1445.39 804.06 1390.82 956.827 1408.41C1035.22 1417.46 1089.66 1443.6 1118.75 1486.12C1150.73 1533 1175.75 1585.42 1193.3 1641.77C1222.32 1734.4 1231.35 1837.63 1218.87 1944.32Z" fill="#6A6D75"/>
<path d="M1193.3 1641.77C1180.55 1644.43 1165.92 1646.83 1149.87 1648.97C1133.66 1598.95 1111.15 1552.4 1082.68 1510.72C1055.79 1471.35 996.685 1456.96 951.868 1451.77C804.358 1434.81 598.335 1490.21 552.01 1532.69C516.009 1565.73 503.747 1606.32 501.854 1641.64C484.578 1640.5 470.039 1640.5 458.117 1641.03C460.129 1595.58 475.792 1543.34 522.502 1500.55C582.612 1445.38 804.062 1390.81 956.838 1408.41C1035.23 1417.45 1089.66 1443.59 1118.74 1486.11C1150.75 1532.98 1175.74 1585.42 1193.3 1641.77Z" fill="#4D535E"/>
<path d="M1189.96 1927.72L1207.31 1929.75C1223.75 1766.19 1188.66 1611.7 1107.92 1493.51C1081.11 1454.25 1029.78 1429.99 955.359 1421.43C808.374 1404.47 588.306 1457.93 531.346 1510.18C454.611 1580.56 467.233 1677.98 481.826 1720.82L497.827 1713.29C486.053 1675.98 473.855 1586.61 543.15 1523.06C592.291 1477.98 799.964 1421.09 953.359 1438.76C1000.91 1444.25 1063.82 1459.9 1093.51 1503.34C1171.87 1618.1 1205.93 1768.36 1189.96 1927.72ZM1218.89 1957.39C1218.4 1957.39 1217.89 1957.36 1217.37 1957.3L1174.02 1952.24C1166.84 1951.39 1161.7 1944.89 1162.53 1937.71C1181 1779.78 1148.8 1630.77 1071.87 1518.12C1047.78 1482.83 992.499 1469.64 950.358 1464.78C802.086 1447.72 600.914 1505.6 560.849 1542.35C493.751 1603.9 516.42 1693.73 526.163 1714.43C529.255 1720.96 526.436 1728.76 519.905 1731.84L480.401 1750.45C473.87 1753.52 466.066 1750.72 462.975 1744.17C445.322 1706.7 416.758 1579.75 513.647 1490.89C576.275 1433.43 798.191 1376.95 958.359 1395.41C1040.67 1404.88 1098.27 1432.91 1129.54 1478.74C1215.98 1605.28 1252.33 1771.17 1231.9 1945.81C1231.51 1949.27 1229.75 1952.42 1227.02 1954.57C1224.7 1956.41 1221.83 1957.39 1218.89 1957.39Z" fill="#000072"/>
<path d="M800.214 324.124L1089.55 446.688L1481.12 612.492C1565.81 502.817 1620.31 176.53 1540.87 60.3764C1516.89 25.3354 1480.71 9.45709 1429.45 24.4293C1300.46 62.1658 1094.24 273.907 800.214 324.124Z" fill="#FFAD40"/>
<path d="M1149.38 220.805C1144.73 218.961 1139.96 217.118 1135.19 215.364C1182.88 188.07 1226.9 159.765 1267.57 133.618C1333.4 91.3294 1390.21 54.7957 1434.59 41.8234C1445.7 38.5635 1455.99 36.9447 1465.57 36.9447C1484.88 36.9447 1501.16 43.577 1514.65 56.954C1512.63 57.1788 1510.53 57.5159 1508.44 57.9881C1497.47 52.8846 1485.2 50.1643 1471.53 50.1643C1460.38 50.1643 1448.28 51.9855 1435.2 55.8075C1364.04 76.6036 1269.34 150.413 1149.38 220.805Z" fill="#FFD6A0"/>
<path d="M1089.55 446.666L1481.14 612.48C1565.81 502.795 1620.32 176.536 1540.9 60.3832C1523.31 53.5797 1501.46 54.8552 1475.59 73.7217C1409.39 121.951 1248.75 382.703 1089.55 446.666Z" fill="#EF7F25"/>
<path d="M1481.12 630.619C1477.27 630.619 1473.38 629.39 1470.08 626.84C1462.16 620.739 1460.7 609.356 1466.8 601.434C1505.75 550.985 1540.2 447.038 1554.56 336.625C1569.88 218.79 1559.21 119.396 1525.97 70.7005C1504.68 39.5117 1474.79 30.0868 1434.59 41.8338C1390.22 54.8102 1333.39 91.3262 1267.58 133.625C1145.74 211.938 994.092 309.397 803.265 341.998C793.403 343.682 784.039 337.058 782.354 327.177C780.67 317.32 787.295 307.963 797.168 306.279C980.713 274.93 1128.91 179.679 1247.98 103.141C1316.16 59.3405 1375.01 21.5042 1424.41 7.0481C1480 -9.22925 1525.49 5.72778 1555.88 50.28C1594.58 106.943 1607.2 213.008 1590.49 341.292C1575.12 459.4 1538.72 567.559 1495.49 623.562C1491.91 628.183 1486.56 630.619 1481.12 630.619Z" fill="#000072"/>
<path d="M1467.15 552.713V552.757C1462.48 561.129 1457.62 568.504 1452.62 574.639L1176.58 304.399C1341.55 196.276 1452 91.5644 1485.13 106.912C1490.31 109.326 1495.58 115.816 1500.52 126.203C1513.77 153.953 1524.49 209.432 1524.07 287.456C1523.58 381.338 1500.32 493.004 1467.15 552.713Z" fill="#FFF3E9"/>
<path d="M1467.15 552.713V552.757C1462.48 561.129 1457.62 568.504 1452.62 574.639L1176.58 304.399C1341.55 196.276 1452 91.5644 1485.13 106.912C1490.31 109.326 1495.58 115.816 1500.52 126.203C1488.17 131.584 1471.27 144.873 1448.23 172.224C1375.68 258.399 1373.29 349.823 1402.79 435.488C1411.31 460.293 1441.04 510.7 1467.15 552.713Z" fill="#F9D3B7"/>
<path d="M1205.26 307.147L1449.82 546.615C1481.16 492.614 1505.42 383.389 1505.93 287.353C1506.51 179.84 1485.81 130.51 1477.58 123.504C1461.32 121.791 1400.22 166.94 1346.22 206.774C1306.86 235.821 1258.84 271.228 1205.26 307.147ZM1452.58 592.787C1447.86 592.787 1443.3 590.941 1439.92 587.605L1163.91 317.378C1160 313.53 1158.04 308.126 1158.55 302.654C1159.09 297.205 1162.07 292.29 1166.65 289.265C1226.94 249.721 1278.88 211.422 1324.69 177.616C1416.15 110.159 1462.05 76.2866 1492.74 90.4985C1529.91 107.691 1542.59 207.397 1542.16 287.553C1541.63 389.483 1513.23 529.045 1466.61 586.115C1463.41 590.051 1458.67 592.453 1453.6 592.743C1453.27 592.765 1452.91 592.787 1452.58 592.787Z" fill="#000072"/>
<path d="M1205.26 307.128L1300.95 400.816C1335.38 376.969 1357.95 356.133 1361.57 349.316C1365.82 341.231 1366.88 335.017 1364.68 330.867C1360.53 322.911 1343.55 315.836 1322.43 313.278C1321.23 313.127 1320.45 312.998 1320.19 312.933C1313.14 311.536 1307.53 306.031 1306 298.999C1303.42 287.237 1312.28 280.808 1316.07 278.056C1335.5 263.907 1340.19 255.048 1340.69 250.123C1340.82 248.962 1341.07 246.275 1336.92 241.716C1332.15 236.469 1320.19 235.136 1303.81 237.931C1276.97 257.456 1242.96 281.883 1205.26 307.128ZM1298.84 442.23C1294.24 442.23 1289.66 440.467 1286.18 437.048L1163.89 317.363C1159.98 313.514 1158 308.117 1158.54 302.655C1159.07 297.193 1162.04 292.269 1166.64 289.259C1212.74 259.047 1254.52 229.029 1285.77 206.236C1287.88 204.709 1290.31 203.634 1292.86 203.118C1325.33 196.581 1349.18 201.355 1363.72 217.31C1376.17 231.007 1377.67 244.705 1376.75 253.8C1375.48 266.186 1369.14 277.002 1361.7 285.754C1375.93 291.302 1389.5 300.118 1396.79 314.03C1402.31 324.588 1406.27 342.199 1393.63 366.218L1393.61 366.239C1380.1 391.785 1316.07 434.446 1308.82 439.241C1305.77 441.241 1302.28 442.23 1298.84 442.23Z" fill="#000072"/>
<path d="M886.591 324.124L597.266 446.688L205.678 612.492C121.006 502.817 66.4922 176.53 145.931 60.3764C169.923 25.3354 206.083 9.45709 257.342 24.4293C386.341 62.1658 592.575 273.907 886.591 324.124Z" fill="#FFAD40"/>
<path d="M537.441 220.805C417.482 150.413 322.78 76.6036 251.613 55.8075C238.546 51.9855 226.457 50.1643 215.295 50.1643C201.623 50.1643 189.359 52.8846 178.392 57.9881C176.281 57.5159 174.211 57.1788 172.183 56.954C185.676 43.577 201.936 36.9447 221.255 36.9447C230.825 36.9447 241.136 38.5635 252.246 41.8234C296.606 54.7957 353.439 91.3294 419.24 133.618C459.926 159.765 503.953 188.07 551.632 215.364C546.868 217.118 542.092 218.961 537.441 220.805Z" fill="#FFD6A0"/>
<path d="M597.271 446.666L205.68 612.48C121.009 502.795 66.4949 176.536 145.933 60.3832C163.504 53.5797 185.352 54.8552 211.225 73.7217C277.431 121.951 438.058 382.703 597.271 446.666Z" fill="#EF7F25"/>
<path d="M205.688 630.609C200.259 630.609 194.9 628.196 191.332 623.575C148.096 567.572 111.696 459.39 96.3206 341.283C79.6335 213 92.241 106.936 130.92 50.2726C161.339 5.74341 206.801 -9.21344 262.417 7.06384C311.791 21.4971 370.662 59.3333 438.827 103.157C557.901 179.671 706.095 274.922 889.651 306.293C899.513 307.978 906.14 317.334 904.453 327.192C902.768 337.049 893.416 343.674 883.543 341.989C692.716 309.389 541.08 211.93 419.237 133.64C353.436 91.3416 296.602 54.803 252.243 41.8267C212.044 30.0798 182.146 39.5273 160.852 70.7159C127.612 119.388 116.928 218.805 132.251 336.616C146.619 447.029 181.074 550.976 220.014 601.447C226.132 609.347 224.665 620.729 216.748 626.853C213.449 629.403 209.549 630.609 205.688 630.609Z" fill="#000072"/>
<path d="M219.651 552.713L219.662 552.757C224.342 561.129 229.201 568.504 234.204 574.639L510.244 304.399C345.27 196.276 234.828 91.5644 201.685 106.912C196.494 109.326 191.229 115.816 186.297 126.203C173.053 153.953 162.329 209.432 162.735 287.456C163.233 381.338 186.474 493.004 219.651 552.713Z" fill="#FFF3E9"/>
<path d="M219.651 552.713L219.662 552.757C224.341 561.129 229.2 568.504 234.203 574.639L510.244 304.399C345.269 196.276 234.828 91.5644 201.685 106.912C196.493 109.326 191.229 115.816 186.297 126.203C198.646 131.584 215.54 144.873 238.584 172.224C311.127 258.399 313.519 349.823 284.037 435.488C275.506 460.293 245.784 510.7 219.651 552.713Z" fill="#F9D3B7"/>
<path d="M209.093 123.519C201.435 129.502 180.295 178.721 180.869 287.345C181.379 383.381 205.659 492.606 236.983 546.606L481.543 307.14C427.967 271.221 379.967 235.813 340.6 206.767C286.408 166.8 224.957 121.518 209.093 123.519ZM234.216 592.756C233.885 592.756 233.551 592.756 233.217 592.734C228.131 592.445 223.407 590.043 220.193 586.106C173.585 529.036 145.175 389.475 144.634 287.523C144.207 207.39 156.9 107.684 194.069 90.4696C224.77 76.3022 270.66 110.153 362.103 177.609C407.93 211.415 459.853 249.714 520.162 289.258C524.748 292.26 527.723 297.198 528.255 302.647C528.784 308.118 526.818 313.523 522.897 317.348L246.898 587.596C243.506 590.932 238.949 592.756 234.216 592.756Z" fill="#000072"/>
<path d="M325.236 349.295C328.835 356.111 351.409 376.948 385.854 400.816L481.555 307.128C443.852 281.862 409.824 257.456 383.005 237.931C366.629 235.115 354.656 236.469 349.88 241.716C345.73 246.275 346.009 248.963 346.126 250.102C346.624 255.048 351.306 263.885 370.759 278.034C374.535 280.787 383.39 287.238 380.821 299C379.279 306.01 373.684 311.514 366.639 312.912C366.349 312.977 365.588 313.106 364.382 313.256C343.264 315.836 326.285 322.89 322.113 330.846C319.939 335.017 320.991 341.21 325.236 349.295ZM387.966 442.209C384.513 442.209 381.049 441.241 377.999 439.22C370.74 434.447 306.696 391.763 293.203 366.239L293.183 366.196C280.552 342.199 284.496 324.588 290.02 314.03C297.333 300.075 310.921 291.28 325.1 285.711C317.662 276.981 311.347 266.186 310.078 253.801C309.151 244.705 310.65 230.986 323.081 217.31C337.647 201.355 361.481 196.581 393.937 203.118C396.507 203.634 398.922 204.688 401.044 206.236C432.283 229.008 474.064 259.047 520.172 289.237C524.759 292.248 527.746 297.172 528.275 302.634C528.806 308.095 526.84 313.514 522.918 317.342L400.648 437.048C397.152 440.467 392.576 442.209 387.966 442.209Z" fill="#000072"/>
<path d="M1617.18 1320.68C1437.83 1610 957.317 1618.43 843.408 1618.43C729.503 1618.43 248.988 1610 69.6342 1320.68C-4.4675 1201.11 16.3492 1102.74 45.4482 1042.9C62.1453 1008.51 81.557 986.828 87.32 981.104C112.341 833.56 143.352 167.432 843.408 167.432C1543.46 167.432 1574.47 833.56 1599.49 981.104C1605.25 986.828 1624.66 1008.51 1641.38 1042.9C1670.45 1102.74 1691.27 1201.11 1617.18 1320.68Z" fill="#FAA327"/>
<path d="M261.063 439.441C261.063 439.441 261.063 439.441 261.053 439.421C271.757 424.308 283.192 409.459 295.364 395.016C295.364 395.016 295.364 395.016 295.364 395.036C283.192 409.459 271.757 424.308 261.063 439.441Z" fill="#FFF9F4"/>
<path d="M295.362 395.025C295.362 395.025 295.362 395.025 295.362 395.005C298.858 390.872 302.407 386.759 306.025 382.687C306.025 382.687 306.025 382.687 306.038 382.687C302.407 386.779 298.858 390.872 295.362 395.025Z" fill="#FCE9DB"/>
<path d="M330.847 356.32C360.425 326.659 393.839 299.225 431.594 275.008C393.83 299.246 360.435 326.659 330.847 356.32Z" fill="#FCE9DB"/>
<path d="M306.042 382.674C306.032 382.674 306.032 382.674 306.032 382.674C314.001 373.705 322.25 364.921 330.853 356.302C322.26 364.921 313.991 373.726 306.042 382.674Z" fill="#8080B9"/>
<path d="M431.733 274.902C431.902 274.818 432.057 274.713 432.213 274.608C432.068 274.692 431.891 274.818 431.733 274.902ZM432.452 274.461C432.534 274.398 432.587 274.356 432.671 274.314C432.619 274.356 432.505 274.419 432.452 274.461Z" fill="#FCE9DB"/>
<path d="M242.858 492.283C249.714 478.472 256.736 464.704 263.872 450.98C265.775 447.424 265.047 442.871 261.875 440.074C261.615 439.835 261.344 439.64 261.064 439.445C271.757 424.311 283.19 409.459 295.362 395.041C298.857 390.878 302.407 386.78 306.036 382.704C313.985 373.728 322.254 364.925 330.848 356.318C360.435 326.657 393.829 299.23 431.592 275.011C431.644 274.99 431.688 274.947 431.729 274.925C431.885 274.816 432.06 274.708 432.206 274.621C432.29 274.556 432.373 274.513 432.446 274.469C432.498 274.426 432.611 274.361 432.663 274.318C534.502 209.295 667.943 167.449 843.385 167.449C1142.32 167.449 1319.26 288.91 1425.85 439.597C1422.4 442.025 1420.47 446.557 1422.92 450.98C1427.45 460.411 1434.74 474.829 1442.35 490.007C1332.81 334.961 1150.9 209.923 843.385 209.923C534.387 209.923 352.196 336.197 242.858 492.283Z" fill="#FDD193"/>
<path d="M456.296 588.613C451.137 559.274 538.42 465.999 591.05 491.586C643.671 517.153 635.514 579.799 603.639 597.069C557.343 622.179 461.467 617.951 456.296 588.613Z" fill="#FFF3E9"/>
<path d="M1230.52 588.613C1235.68 559.274 1148.4 465.999 1095.78 491.586C1043.14 517.153 1051.32 579.799 1083.18 597.069C1129.47 622.179 1225.36 617.951 1230.52 588.613Z" fill="#FFF3E9"/>
<path d="M1617.26 1320.67C1437.9 1610 957.382 1618.42 843.485 1618.42C729.571 1618.42 249.059 1610 69.7072 1320.67C-4.39494 1201.12 16.4211 1102.73 45.5198 1042.89C108.491 965.154 219.452 891.019 390.001 968.991C447.77 995.421 476.402 1038.88 583.712 1027.88C624.224 1023.73 705.193 951.412 843.485 951.412C981.76 951.412 1062.73 1023.73 1103.24 1027.88C1210.55 1038.88 1239.2 995.421 1296.96 968.991C1467.51 891.019 1578.47 965.154 1641.44 1042.89C1670.54 1102.73 1691.35 1201.12 1617.26 1320.67Z" fill="white"/>
<path d="M836.425 1600.32C579.184 1600.32 299.444 1543.9 140.701 1382.48C91.752 1331 52.3877 1267.92 40.4443 1197.67C47.8819 1216.13 57.5047 1235.23 69.708 1254.92C249.06 1544.24 729.569 1552.67 843.486 1552.67C957.386 1552.67 1437.9 1544.24 1617.25 1254.92C1629.02 1235.96 1638.38 1217.54 1645.69 1199.72C1633.9 1266.51 1596.64 1330.45 1546.1 1382.48C1440.35 1490.89 1291.59 1543.59 1145.66 1572.66C1054.49 1589.8 947.567 1600.32 836.425 1600.32Z" fill="#D9D9EA"/>
<path d="M851.564 1110.08L849.513 1110.42V1109.77L851.564 1110.08Z" fill="#512717"/>
<path d="M853.584 1109.77V1110.42L851.564 1110.08L853.584 1109.77Z" fill="#512717"/>
<path d="M347.785 327.922C477.294 199.124 664.626 148.642 843.405 149.339C933.226 149.928 1023.85 160.674 1109.38 189.511C1194.81 217.891 1274.84 264.798 1339.04 327.922C1346.67 335.791 1336.09 348.281 1327.09 341.131C1226.3 257.561 1101.91 209.39 972.999 193.74C844.737 178.024 711.252 183.648 587.184 220.158C504.529 244.832 426.921 285.745 359.728 341.131C351.488 348.063 339.618 336.314 347.785 327.922Z" fill="#000072"/>
<path d="M1437.6 440.855C1543.58 562.156 1588.23 751.677 1608.57 908.271C1611.66 931.773 1614.24 955.516 1617.35 978.095L1612.26 968.27C1650.08 1008.72 1674.04 1060.55 1682.8 1115.02C1700.41 1223.76 1645.89 1331.23 1572.21 1407.61C1498.76 1483.73 1402.58 1534.57 1303.54 1568.44C971.725 1680.73 371.986 1673.35 114.6 1407.61C7.12395 1296.92 -42.7399 1138.44 48.4552 1001.22C56.5486 989.325 64.1948 978.857 74.5682 968.27L69.4708 978.095C72.571 955.516 75.1718 931.773 78.272 908.271C93.1994 789.557 120.831 671.305 171.39 562.276C191.906 518.701 217.299 477.031 249.218 440.855C252.495 437.146 258.163 436.785 261.877 440.073C265.052 442.861 265.78 447.413 263.877 450.982C220.921 533.52 182.064 617.883 158.003 708.042C132.347 798.721 120.249 891.426 105.111 984.573C102.865 994.158 94.4888 998.53 89.0384 1006.81C78.0835 1020.89 68.6686 1036.33 60.9602 1052.45C40.2795 1095.59 32.4649 1144.54 39.5096 1191.8C50.2138 1264.41 90.3921 1329.58 140.701 1382.48C368.022 1613.66 843.487 1629.46 1145.67 1572.65C1291.59 1543.59 1440.34 1490.89 1546.1 1382.48C1641.56 1284.2 1689.68 1143.39 1608.17 1021.27C1602.11 1011.86 1594.19 1001.76 1586.73 993.977C1583.88 991.21 1582.24 987.781 1581.62 984.152C1573.3 936.887 1567.72 891.045 1559.12 844.322C1540.85 741.37 1513.4 639.801 1468.8 545.131C1459.51 522.932 1433.59 473.141 1422.94 450.982C1418.05 442.179 1430.54 432.914 1437.6 440.855Z" fill="#000072"/>
<path d="M409.576 922.236C410.252 998.164 466.554 1057.9 535.33 1055.67C604.12 1053.43 659.335 990.094 658.654 914.166C657.972 838.239 601.663 778.505 532.885 780.728C464.099 782.97 408.889 846.309 409.576 922.236Z" fill="#000072"/>
<path d="M611.895 913.513C609.03 942.977 590.849 965.332 571.306 963.428C551.763 961.524 538.228 936.095 541.109 906.615C543.974 877.134 562.155 854.779 581.698 856.683C601.241 858.586 614.776 884.015 611.895 913.513Z" fill="white"/>
<path d="M495.84 1013.02C484.25 1013.02 470.44 1000.15 462.866 981.219C454.087 959.263 456.989 937.459 469.368 932.497C471.064 931.834 472.864 931.494 474.706 931.494C486.306 931.494 500.105 944.359 507.685 963.29C516.471 985.247 513.548 1007.05 501.176 1012.01C499.477 1012.69 497.692 1013.02 495.84 1013.02Z" fill="#5959A3"/>
<path d="M1277.39 922.236C1276.73 998.164 1220.42 1057.9 1151.63 1055.67C1082.85 1053.43 1027.64 990.094 1028.32 914.166C1029 838.239 1085.31 778.505 1154.08 780.728C1222.87 782.97 1278.07 846.309 1277.39 922.236Z" fill="#000072"/>
<path d="M1075.08 913.513C1077.95 942.977 1096.13 965.332 1115.67 963.428C1135.21 961.524 1148.75 936.095 1145.87 906.615C1143 877.134 1124.82 854.779 1105.28 856.683C1085.73 858.586 1072.2 884.015 1075.08 913.513Z" fill="white"/>
<path d="M1191.12 1013.02C1189.27 1013.02 1187.49 1012.69 1185.77 1012.01C1173.4 1007.05 1170.49 985.247 1179.28 963.29C1186.84 944.359 1200.66 931.494 1212.25 931.494C1214.1 931.494 1215.89 931.834 1217.58 932.497C1229.96 937.459 1232.88 959.263 1224.09 981.219C1216.51 1000.15 1202.71 1013.02 1191.12 1013.02Z" fill="#5959A3"/>
<path d="M1629.31 1120.51C1629.31 1194.88 1545.07 1255.17 1441.15 1255.17C1337.24 1255.17 1253.01 1194.88 1253.01 1120.51C1253.01 1046.12 1337.24 985.83 1441.15 985.83C1545.07 985.83 1629.31 1046.12 1629.31 1120.51Z" fill="#FF8080"/>
<path d="M451.576 1120.51C451.576 1194.88 367.332 1255.18 263.415 1255.18C159.507 1255.18 75.2612 1194.88 75.2612 1120.51C75.2612 1046.12 159.507 985.841 263.415 985.841C367.332 985.841 451.576 1046.12 451.576 1120.51Z" fill="#FF8080"/>
<path d="M982.583 1105.76C982.583 1105.76 997.541 1149.2 958.374 1171.46C920.655 1192.88 876.281 1165.07 855.416 1148.83C847.813 1142.93 843.403 1133.86 843.403 1124.24C843.403 1133.86 838.994 1142.93 831.407 1148.83C810.526 1165.07 766.168 1192.88 728.432 1171.46C689.249 1149.2 704.207 1105.76 704.207 1105.76C704.207 1105.76 713.524 989.505 843.453 989.505C973.365 989.505 982.583 1105.76 982.583 1105.76Z" fill="white"/>
<path d="M928.268 1179.25C917.897 1179.25 907.605 1176.9 897.968 1173.33C907.605 1176.88 917.881 1179.25 928.252 1179.25C938.384 1179.25 948.612 1177 958.377 1171.44C997.549 1149.19 982.598 1105.75 982.598 1105.75C982.598 1105.75 982.455 1103.93 981.944 1100.74C981.944 1100.74 981.944 1100.74 981.944 1100.73C982.455 1103.92 982.614 1105.74 982.614 1105.74C982.614 1105.74 997.581 1149.2 958.377 1171.46C948.612 1177 938.4 1179.25 928.268 1179.25ZM758.56 1179.25C748.412 1179.25 738.216 1177 728.451 1171.46C720.346 1166.85 714.554 1161.33 710.453 1155.47C714.554 1161.33 720.33 1166.83 728.451 1171.44C738.216 1177 748.428 1179.25 758.576 1179.25C787.568 1179.25 815.938 1160.86 831.399 1148.82C834.144 1146.7 836.457 1144.14 838.308 1141.33C836.457 1144.16 834.144 1146.7 831.415 1148.82C815.954 1160.85 787.568 1179.25 758.56 1179.25ZM852.094 1145.82C846.717 1140.23 843.59 1132.81 843.398 1124.96C843.414 1124.72 843.414 1124.49 843.414 1124.23C843.414 1132.34 846.558 1140.06 852.094 1145.82ZM702.268 1114.23C703.065 1109.14 704.166 1105.9 704.23 1105.74C704.214 1105.75 704.214 1105.75 704.214 1105.75C704.214 1105.75 703.097 1109.02 702.268 1114.23Z" fill="#D9D9EA"/>
<path d="M928.248 1179.24C917.892 1179.24 907.6 1176.9 897.966 1173.33C880.625 1166.91 865.355 1156.55 855.416 1148.83C854.244 1147.91 853.136 1146.92 852.108 1145.86C852.108 1145.84 852.092 1145.84 852.076 1145.83C846.553 1140.06 843.406 1132.34 843.406 1124.23C843.406 1124.49 843.406 1124.73 843.39 1124.97C843.39 1124.73 843.39 1124.47 843.39 1124.21C843.39 1130.38 841.591 1136.31 838.316 1141.33C836.453 1144.16 834.141 1146.69 831.395 1148.83C815.933 1160.86 787.561 1179.24 758.563 1179.24C748.432 1179.24 738.203 1176.99 728.441 1171.45C720.333 1166.84 714.536 1161.34 710.458 1155.48C700.23 1140.83 700.712 1124.07 702.269 1114.23C703.088 1109.03 704.212 1105.75 704.212 1105.75C704.212 1105.75 704.212 1105.75 704.228 1105.75C704.228 1105.73 704.228 1105.73 704.228 1105.73C704.228 1105.73 704.228 1105.54 704.276 1105.19C704.34 1104.43 704.517 1102.89 704.87 1100.72C708.531 1110.37 715.548 1119.96 728.457 1127.3C738.204 1132.85 748.432 1135.1 758.563 1135.1C787.561 1135.1 815.949 1116.68 831.411 1104.66C837.866 1099.65 841.977 1092.34 843.084 1084.35C843.325 1084.44 843.454 1084.49 843.454 1084.49C843.454 1084.49 843.534 1084.46 843.695 1084.39C844.819 1092.37 848.977 1099.66 855.416 1104.66C870.878 1116.68 899.266 1135.1 928.264 1135.1C938.396 1135.1 948.608 1132.85 958.37 1127.3C971.279 1119.96 978.28 1110.37 981.941 1100.76C982.455 1103.94 982.599 1105.75 982.599 1105.75C982.599 1105.75 997.548 1149.18 958.37 1171.45C948.608 1176.99 938.38 1179.24 928.248 1179.24Z" fill="#D9D9EA"/>
<path d="M991.022 1102.84C1013.78 1143.83 985.579 1189.44 940.985 1196.37C905.018 1202 871.796 1185.25 844.178 1164.83C840.767 1162.3 837.648 1159.31 834.967 1156.01C826.942 1146.25 823.157 1133.5 823.644 1120.92L823.579 1112.8L823.384 1080.29C824.018 1053.84 862.454 1053.53 863.445 1080.03C863.413 1086.4 863.234 1115.22 863.202 1120.92C863.998 1137.82 856.411 1154.84 842.667 1164.85C815.05 1185.3 781.812 1202.04 745.828 1196.4C710.153 1191.1 680.586 1157.75 689.017 1121.13C691.211 1112.47 695.321 1093.43 707.992 1099.49C711.485 1101.39 712.638 1105.05 712.638 1108.66C713.061 1124.43 717.252 1142.48 730.801 1151.67C757.216 1172.94 795.198 1152.54 818.754 1133.85C821.305 1132.02 823.14 1129.14 823.53 1126.01C823.806 1116.91 823.335 1089.76 823.384 1080.29H863.445C863.397 1089.02 863.186 1116.28 863.169 1124.51C863.153 1127.89 864.778 1131.2 867.393 1133.33C873.339 1137.98 879.594 1142.41 885.994 1146.3C900.908 1155.2 918.631 1162.72 935.364 1160.45C962.023 1156.32 974.321 1134.4 974.175 1108.66C973.753 1098.71 985.661 1094.26 991.022 1102.84Z" fill="#000072"/>
<path d="M941.841 1002.99C923.219 1055.1 843.451 1084.49 843.451 1084.49C843.451 1084.49 763.699 1055.1 745.078 1002.99C731.789 965.715 825.637 959.625 843.451 959.625C861.282 959.625 955.13 965.715 941.841 1002.99Z" fill="#000072"/>
<path d="M843.573 991.564C843.489 991.564 843.455 991.564 843.455 991.564C843.455 991.564 843.405 991.564 843.321 991.564C841.141 991.564 810.112 991.346 802.666 978.65C797.148 969.224 836.059 967.698 843.455 967.698C850.852 967.698 889.747 969.224 884.245 978.65C876.799 991.346 845.77 991.564 843.573 991.564Z" fill="#8080B9"/>
<path d="M603.29 2207.98C602.473 2208.26 601.631 2208.47 600.752 2208.63C567.82 2214.52 534.578 2207.15 507.118 2187.88C479.472 2168.47 461.125 2139.42 455.417 2106.13L417.991 1886.97C408.755 1832.93 431.671 1777.84 476.365 1746.61C484.474 1740.94 493.116 1735.74 502.042 1731.19C503.664 1730.36 505.41 1729.78 507.192 1729.47C517.084 1727.77 527.113 1726.74 537.005 1726.42C591.504 1724.64 642.858 1755.01 667.866 1803.79L769.275 2001.71C800.4 2062.46 777.335 2137.5 717.871 2168.99C709.094 2173.65 698.137 2170.3 693.469 2161.5C688.802 2152.69 692.169 2141.76 700.972 2137.09C743.09 2114.78 759.321 2061.44 737.148 2018.17L635.727 1820.24C617.069 1783.84 578.789 1761.16 538.181 1762.5C530.839 1762.73 523.398 1763.44 516.032 1764.6C509.446 1768.09 503.07 1771.98 497.04 1776.19C463.737 1799.46 446.676 1840.56 453.56 1880.88L491.011 2100.04C495.059 2123.78 508.158 2144.5 527.868 2158.34C547.379 2172.04 571.014 2177.28 594.401 2173.1C604.193 2171.34 613.578 2177.86 615.336 2187.68C616.933 2196.62 611.659 2205.2 603.29 2207.98Z" fill="#E8E8E8"/>
<path d="M541.559 1739.43C540.187 1739.43 538.815 1739.46 537.431 1739.49C528.164 1739.79 518.735 1740.76 509.431 1742.36C508.932 1742.45 508.458 1742.61 508.022 1742.83C499.591 1747.14 491.459 1752.01 483.876 1757.33C443.317 1785.69 422.514 1835.69 430.908 1884.75L468.336 2103.91C473.437 2133.74 489.888 2159.76 514.657 2177.15C539.239 2194.41 568.985 2201 598.443 2195.73C598.718 2195.68 598.942 2195.63 599.179 2195.54C601.474 2194.77 602.883 2192.39 602.459 2189.99C602.135 2188.22 601.038 2187.24 600.402 2186.79C599.778 2186.36 598.468 2185.66 596.71 2185.99C569.845 2190.78 542.744 2184.78 520.344 2169.05C497.757 2153.19 482.754 2129.47 478.102 2102.24L440.661 1883.08C432.928 1837.78 452.123 1791.61 489.551 1765.43C495.999 1760.93 502.858 1756.75 509.905 1753.01L511.838 1751.99L514.021 1751.64C521.916 1750.42 529.898 1749.66 537.755 1749.4C583.402 1747.8 626.43 1773.37 647.396 1814.27L748.805 2012.18C774.223 2061.79 755.527 2123.02 707.111 2148.66C704.692 2149.93 703.769 2152.94 705.054 2155.36C705.889 2156.94 707.249 2157.54 707.984 2157.76C708.708 2158 710.167 2158.25 711.738 2157.43C764.919 2129.25 785.498 2062.08 757.635 2007.66L656.213 1809.75C634.151 1766.69 589.476 1739.43 541.559 1739.43ZM578.538 2223.7C550.476 2223.7 523.125 2215.1 499.603 2198.58C469.072 2177.15 448.805 2145.09 442.519 2108.33L405.078 1889.17C395.001 1830.16 420.045 1769.99 468.86 1735.86C477.441 1729.88 486.607 1724.36 496.086 1719.51C498.905 1718.08 501.898 1717.08 504.991 1716.56C515.48 1714.75 526.119 1713.66 536.583 1713.31C596.074 1711.36 652.222 1744.54 679.523 1797.8L780.933 1995.73C815.306 2062.82 789.763 2145.73 724.011 2180.56C716.677 2184.45 708.246 2185.24 700.302 2182.81C692.332 2180.36 685.809 2174.96 681.906 2167.62C673.874 2152.44 679.673 2133.54 694.852 2125.52C730.671 2106.54 744.415 2061.06 725.495 2024.13L624.086 1826.21C607.735 1794.29 574.173 1774.46 538.615 1775.57C532.542 1775.77 526.38 1776.32 520.232 1777.2C514.806 1780.18 509.531 1783.43 504.555 1786.91C475.383 1807.3 460.441 1843.32 466.478 1878.67L503.919 2097.82C507.373 2118.12 518.561 2135.79 535.398 2147.6C552.035 2159.3 572.177 2163.76 592.095 2160.21C600.264 2158.72 608.546 2160.53 615.38 2165.3C622.202 2170.05 626.767 2177.18 628.239 2185.36C630.933 2200.47 622.003 2215.53 607.448 2220.4L607.411 2220.41C605.989 2220.87 604.542 2221.25 603.033 2221.51C594.876 2222.98 586.67 2223.7 578.538 2223.7Z" fill="#000072"/>
<path d="M655.598 1876.58L628.599 1823.9C611.343 1790.23 575.965 1769.28 538.456 1770.51C531.88 1770.72 525.219 1771.33 518.606 1772.3C512.724 1775.49 507.037 1778.99 501.642 1782.76C470.868 1804.27 455.109 1842.25 461.478 1879.52L471.452 1937.9C471.452 1937.9 467.665 1950.43 447.802 1954.51C428.159 1958.54 420.06 1946.68 420.06 1946.68L410.086 1888.3C400.344 1831.23 424.542 1773.02 471.781 1740.02C480.184 1734.15 489.135 1728.77 498.415 1724.04C500.753 1722.83 503.249 1721.99 505.843 1721.56C516.097 1719.79 526.485 1718.73 536.751 1718.39C594.33 1716.51 648.608 1748.59 675.01 1800.12L701.997 1852.81L655.598 1876.58Z" fill="#6A6D75"/>
<path d="M655.598 1876.58L628.599 1823.9C611.343 1790.23 575.965 1769.28 538.456 1770.51C531.88 1770.72 525.219 1771.33 518.606 1772.3C512.724 1775.49 507.037 1778.99 501.642 1782.76C470.868 1804.27 455.109 1842.25 461.478 1879.52L471.452 1937.9C471.452 1937.9 467.665 1950.43 447.802 1954.51C428.159 1958.54 420.06 1946.68 420.06 1946.68L410.086 1888.3C400.344 1831.23 424.542 1773.02 471.781 1740.02C480.184 1734.15 489.135 1728.77 498.415 1724.04C500.753 1722.83 503.249 1721.99 505.843 1721.56C516.097 1719.79 526.485 1718.73 536.751 1718.39C594.33 1716.51 648.608 1748.59 675.01 1800.12L701.997 1852.81L655.598 1876.58Z" fill="#6A6D75"/>
<path d="M702.013 1852.82L674.539 1866.87L655.602 1876.6L628.578 1823.92C611.346 1790.22 575.98 1769.28 538.435 1770.5C531.895 1770.71 525.221 1771.32 518.633 1772.32C512.727 1775.51 507.015 1779 501.644 1782.76C470.87 1804.28 455.123 1842.25 461.48 1879.53L471.442 1937.89C471.442 1937.89 468.3 1948.24 452.797 1953.22C451.226 1953.69 449.57 1954.13 447.78 1954.52C428.136 1958.54 420.062 1946.67 420.062 1946.67L410.064 1888.31C400.333 1831.25 424.556 1773.02 471.783 1740.01C480.174 1734.13 489.162 1728.76 498.417 1724.05C500.731 1722.82 503.264 1721.99 505.834 1721.55C516.088 1719.82 526.488 1718.73 536.742 1718.41C594.309 1716.5 648.575 1748.59 674.977 1800.13L702.013 1852.82Z" fill="#6A6D75"/>
<path d="M674.547 1866.87L655.61 1876.6L628.592 1823.92C611.35 1790.22 575.988 1769.27 538.438 1770.49C531.897 1770.7 525.224 1771.32 518.635 1772.32C512.731 1775.51 507.02 1779 501.645 1782.75C470.877 1804.27 455.125 1842.25 461.486 1879.52L471.442 1937.88C471.442 1937.88 468.303 1948.24 452.805 1953.21C447.478 1933.09 431.895 1868.18 441.851 1828.71C454.765 1777.08 514.09 1752.06 514.09 1752.06C514.09 1752.06 588.986 1741.68 622.821 1781.71C649.057 1812.7 665.782 1846.39 674.547 1866.87Z" fill="#565A63"/>
<path d="M432.246 1940.28C434.305 1941.58 438.351 1943.1 445.168 1941.68C452.389 1940.21 456.03 1937.39 457.758 1935.48L448.564 1881.73C441.355 1839.48 459.242 1796.41 494.146 1772.03C499.945 1767.97 506.075 1764.19 512.389 1760.78C513.725 1760.06 515.184 1759.57 516.68 1759.35C523.803 1758.29 530.987 1757.64 538.024 1757.42C580.603 1756.09 620.717 1779.77 640.26 1817.93L661.285 1858.96L684.383 1847.14L663.345 1806.08C639.242 1759.05 589.761 1729.75 537.178 1731.48C527.517 1731.8 517.722 1732.81 508.061 1734.46C506.761 1734.68 505.535 1735.1 504.371 1735.69C495.642 1740.15 487.207 1745.21 479.275 1750.75C436.193 1780.87 414.089 1834 423.002 1886.09L432.246 1940.28ZM440.031 1968.43C423.762 1968.43 413.267 1959.96 409.246 1954.05C408.179 1952.5 407.468 1950.73 407.15 1948.88L397.182 1890.51C386.577 1828.46 412.912 1765.18 464.268 1729.29C473.181 1723.06 482.671 1717.37 492.454 1712.37C495.973 1710.57 499.749 1709.32 503.647 1708.64C514.461 1706.79 525.458 1705.66 536.32 1705.29C599.079 1703.19 657.951 1738.13 686.663 1794.14L713.672 1846.85C716.97 1853.28 714.42 1861.17 707.971 1864.47L661.58 1888.25C658.49 1889.83 654.898 1890.13 651.588 1889.06C648.278 1887.99 645.531 1885.66 643.95 1882.57L616.941 1829.87C601.997 1800.7 571.482 1782.58 538.882 1783.6C533.586 1783.76 528.192 1784.21 522.81 1784.94C518.09 1787.58 513.504 1790.45 509.152 1793.48C482.511 1812.1 468.866 1845.01 474.395 1877.33L484.363 1935.68C484.706 1937.68 484.571 1939.74 483.995 1941.68C483.369 1943.73 477.166 1961.86 450.427 1967.34C446.737 1968.1 443.28 1968.43 440.031 1968.43Z" fill="#000072"/>
<path d="M616.823 2209.82L598.315 2218.06C589.614 2221.94 579.456 2217.45 576.45 2208.41L567.58 2181.76C564.574 2172.72 570.009 2163.06 579.297 2160.94L599.049 2156.44C603.964 2155.32 609.061 2157.48 611.682 2161.78L612.507 2163.13C618.665 2173.24 622.451 2184.62 623.581 2196.4L623.739 2198C624.213 2203 621.422 2207.77 616.823 2209.82Z" fill="#7C7C7C"/>
<path d="M601.001 2169.43L582.208 2173.71C581.127 2173.96 580.535 2174.65 580.239 2175.17C579.932 2175.72 579.647 2176.57 580 2177.63L588.879 2204.29C589.231 2205.34 589.96 2205.86 590.529 2206.1C591.087 2206.35 591.963 2206.56 592.988 2206.1L610.597 2198.25L610.54 2197.65C609.607 2187.89 606.419 2178.32 601.331 2169.95L601.001 2169.43ZM591.758 2232.54C587.729 2232.54 583.711 2231.72 579.954 2230.06C572.442 2226.75 566.625 2220.36 564.018 2212.55L555.151 2185.91C552.556 2178.09 553.376 2169.49 557.416 2162.33C561.446 2155.16 568.367 2150.01 576.392 2148.17L596.141 2143.68C606.545 2141.3 617.29 2145.83 622.856 2154.96L623.687 2156.31C630.836 2168.05 635.298 2181.48 636.618 2195.16L636.766 2196.73C637.779 2207.38 631.917 2217.45 622.139 2221.79L603.631 2230.03C599.863 2231.71 595.811 2232.54 591.758 2232.54Z" fill="#000072"/>
<path d="M702.226 2181.4L721.973 2176.89C731.265 2174.78 736.708 2165.12 733.699 2156.08L724.827 2129.42C721.805 2120.37 711.662 2115.9 702.957 2119.78L684.457 2128.02C679.841 2130.07 677.071 2134.83 677.539 2139.84L677.695 2141.44C678.822 2153.21 682.611 2164.59 688.773 2174.7L689.601 2176.06C692.226 2180.37 697.298 2182.51 702.226 2181.4Z" fill="#7C7C7C"/>
<path d="M690.665 2139.59L690.713 2140.19C691.654 2149.95 694.839 2159.53 699.942 2167.89L700.255 2168.4L719.05 2164.13C720.136 2163.88 720.727 2163.19 721.028 2162.66C721.318 2162.13 721.619 2161.28 721.258 2160.21L712.391 2133.55C712.041 2132.5 711.293 2131.99 710.726 2131.74C710.183 2131.5 709.303 2131.3 708.277 2131.74L690.665 2139.59ZM699.592 2194.79C691.075 2194.79 682.98 2190.4 678.408 2182.89L677.576 2181.53C670.434 2169.79 665.959 2156.37 664.644 2142.69L664.499 2141.12C663.486 2130.47 669.361 2120.4 679.12 2116.06L697.625 2107.82C705.141 2104.47 713.766 2104.46 721.306 2107.79C728.833 2111.1 734.636 2117.47 737.242 2125.29L746.108 2151.94C748.714 2159.76 747.881 2168.34 743.84 2175.51C739.811 2182.69 732.887 2187.84 724.864 2189.67L705.129 2194.17C703.271 2194.58 701.425 2194.79 699.592 2194.79Z" fill="#000072"/>
<path d="M1092.89 2625.94C1005.1 2625.94 1009.81 2521.24 1009.81 2521.24C1009.81 2521.24 1049.98 2582.39 1117.37 2593.78C1128.09 2608 1140.75 2613.32 1153.76 2613.32C1154.67 2613.32 1155.61 2613.29 1156.54 2613.24C1140.87 2619.53 1121.9 2624.44 1099.63 2625.74C1097.33 2625.87 1095.07 2625.94 1092.89 2625.94Z" fill="#D9D9EA"/>
<path d="M1153.74 2613.33C1140.74 2613.33 1128.08 2608 1117.36 2593.79C1124.27 2594.95 1131.48 2595.6 1138.95 2595.6C1161.23 2595.6 1185.92 2589.89 1212.67 2575.28C1212.67 2575.28 1194.01 2598.2 1156.53 2613.24C1155.59 2613.29 1154.67 2613.33 1153.74 2613.33Z" fill="#D9D9EA"/>
<path d="M1057.18 2624.04C1079.59 2619.86 1112.28 2614.22 1133.79 2608.3C1159.54 2601.99 1181.91 2592.59 1207.15 2582.71C1176.82 2629.78 1107.46 2646.78 1057.18 2624.04Z" fill="#000072"/>
<path d="M1254.23 1990.05C1254.23 2024.84 1228.71 2053.03 1197.22 2053.03C1165.74 2053.03 1140.23 2024.84 1140.23 1990.05C1140.23 1955.26 1165.74 1927.07 1197.22 1927.07C1228.71 1927.07 1254.23 1955.26 1254.23 1990.05Z" fill="#E8E8E8"/>
<path d="M1197.22 1940.17C1173 1940.17 1153.32 1962.55 1153.32 1990.06C1153.32 2017.56 1173 2039.94 1197.22 2039.94C1221.43 2039.94 1241.13 2017.56 1241.13 1990.06C1241.13 1962.55 1221.43 1940.17 1197.22 1940.17ZM1197.22 2066.13C1158.56 2066.13 1127.13 2032.01 1127.13 1990.06C1127.13 1948.1 1158.56 1913.97 1197.22 1913.97C1235.87 1913.97 1267.32 1948.1 1267.32 1990.06C1267.32 2032.01 1235.87 2066.13 1197.22 2066.13Z" fill="#000072"/>
<path d="M1179.48 1971.49C1184.11 1964.12 1191.43 1959.35 1199.67 1959.35C1213.65 1959.35 1224.99 1973.1 1224.99 1990.06C1224.99 2007.01 1213.65 2020.75 1199.67 2020.75C1188.02 2020.75 1178.21 2011.23 1175.26 1998.27C1175.26 1998.27 1174.12 1989.82 1175.26 1983.5C1176.56 1976.21 1179.48 1971.49 1179.48 1971.49Z" fill="#E8E8E8"/>
<path d="M1224.81 1986.74C1222.06 1974.79 1212.94 1965.96 1202.15 1965.96C1194.51 1965.96 1187.71 1970.41 1183.38 1977.27C1183.38 1977.27 1180.68 1981.68 1179.46 1988.44C1178.42 1994.3 1179.46 2002.15 1179.46 2002.15C1180.86 2008.26 1183.91 2013.58 1188.01 2017.34C1181.82 2013.42 1177.14 2006.57 1175.27 1998.27C1175.27 1998.27 1174.13 1989.8 1175.27 1983.51C1176.57 1976.23 1179.49 1971.51 1179.49 1971.51C1184.12 1964.13 1191.41 1959.38 1199.66 1959.38C1212.76 1959.38 1223.5 1971.33 1224.81 1986.74Z" fill="#C6C8CE"/>
<path d="M1179.51 1971.48C1184.37 1958.75 1201.32 1952.34 1213.37 1960.08C1231.93 1971.21 1234.34 1999.49 1220.15 2015.09C1211.01 2026.32 1191.86 2027.14 1182.65 2015.84C1178.21 2010.8 1175.7 2004.51 1175.26 1998.27C1185 2024.56 1215.55 2023.62 1220.24 1994.99C1224.65 1969.76 1198.72 1949.03 1179.51 1971.48Z" fill="#000072"/>
</svg>
