<svg id="Layer_1" data-name="Layer 1" xmlns="http://www.w3.org/2000/svg" viewBox="0 0 3379.22 2930.37"><defs><style>.cls-1{opacity:0.2;}.cls-2{fill:#000072;}.cls-3{fill:#fff;}.cls-4{fill:#390075;}.cls-5{fill:#4d1c54;}.cls-6{fill:#fef26b;}.cls-7{fill:#ffc55f;}.cls-8{fill:#fd6ccb;}.cls-9{fill:#f948c3;}.cls-10{fill:#39d5ff;}.cls-11{fill:#3bb4ff;}.cls-12{opacity:0.6;}.cls-13{fill:#e8d7ff;}.cls-14{fill:#fdc1e5;}.cls-15{fill:#f792d3;}.cls-16{fill:#ffccd9;}.cls-17{fill:#ffc5f4;}.cls-18{fill:#ffebf6;}.cls-19{fill:#e89abd;}.cls-20{fill:#f7b0de;}.cls-21{fill:#efa500;}.cls-22{fill:#fdd800;}.cls-23{opacity:0.35;}.cls-24{fill:#ffb3e8;}.cls-25{fill:#512717;}.cls-26{opacity:0.5;}.cls-27{fill:#ff3bc3;}</style></defs><g class="cls-1"><ellipse class="cls-2" cx="1680.59" cy="2883.16" rx="989.84" ry="47.21"/></g><path class="cls-3" d="M1641.31,2267c-5.62,71.89,10.53,226.1,122.17,275.38,77.55,34.23,194.79,21.56,289.28-57,0,0,49.56,171.93,193.79,114.51,155.14-61.77,27.6-327.68-38.35-378.13C2157.69,2183,2096.37,2189,2096.37,2189s173.36-326.73-101-547.65"/><path class="cls-4" d="M1650.29,2267.67c2.88,90.92,26.93,212.63,116.89,255.21,90.54,40.06,199.22,8.22,274.07-51.41l4.09-3.2a15.31,15.31,0,0,1,21.48,2.63c17.68,57.32,58.82,125.42,126.94,122.56,120.31-8.9,122.91-114,91.76-207.32-18.27-52.48-43.69-106-83-145.72-22.26-19.68-52.69-30.33-82.35-33.09a141.62,141.62,0,0,0-22.05-.46,18.1,18.1,0,0,1-17.63-26.36c5.15-10.07,10.21-21.88,14.5-32.7,48.62-122.54,55.67-269.65-15.2-384.78-24.79-41.19-57.93-77.23-95.75-107.74a18,18,0,1,1,22.62-28c40.72,32.88,76.87,72.08,104,117.16,76.86,124.89,70.57,284,17.85,416.61-5,12.59-9.86,24-16.17,36.33L2094.65,2171a173.17,173.17,0,0,1,28.83.45c75,7.62,116.21,43.82,152.67,107.27,58.29,98.34,114.95,283.8-25.81,338.9-93.31,36.93-167.87-15.61-205-101.23a230.72,230.72,0,0,1-9.88-26.11l28.82,8.85c-92.26,81.15-247.47,116.3-350.38,34.5-74.86-64.46-94.53-173.79-81.56-267.38,2-10.93,17.77-9.5,18,1.4Z"/><path class="cls-3" d="M2193.94,2421.63s-37.73,70.06-87.22,100"/><path class="cls-5" d="M2201.87,2425.89c-15.38,31.62-33.93,61-57.92,86.87a196.62,196.62,0,0,1-27.9,24.29,18,18,0,1,1-20.87-29.45,188.8,188.8,0,0,0,27.29-17.89c24.61-20.24,45.9-45.8,63.54-72.35,5.95-9.58,20.6-1.68,15.86,8.53Z"/><path class="cls-6" d="M3360.84,1528.89c-.63,5.84-2.09,10.56-4.38,13.9-44.34,64.6-217.77-50.07-323.19,46-164.32,149.67-26.77,391-303.23,468-185.08,51.57-314.38-34.68-391.16,46.7l13.07-78.86c40.51-14,106.22-31.72,183.47-33.92,129.51-3.67,279.61-84.78,313.83-285.13s113.54-282.82,231-313.3C3171.14,1368.76,3352.45,1419.51,3360.84,1528.89Z"/><path class="cls-7" d="M3360.84,1528.89c-.63,5.84-2.09,10.56-4.38,13.9-44.34,64.6-217.77-50.07-323.19,46-164.32,149.67-26.77,391-303.23,468-185.08,51.57-314.38-34.68-391.16,46.7l13.07-78.86c40.51-14,106.22-31.72,183.47-33.92a332.46,332.46,0,0,0,82.76-12.9c18.31,9.17,38.74,12.5,61.43,7.77,93.66-19.5,118.47-88.34,135.47-172.13,15.41-31.23,27.2-67.06,34.17-107.87,7.44-43.55,17-81.5,28.62-114.57a288.28,288.28,0,0,1,87-96.93c116.43-82.46,296.78,42.06,341.12-22.54,3.87-5.63,5.36-15.08,4.49-27.4C3338.81,1466.38,3358.24,1494.8,3360.84,1528.89Z"/><path class="cls-4" d="M2338.88,2121.53a18,18,0,0,1-17.76-21l13.06-78.86a18,18,0,0,1,11.89-14.07c42.5-14.68,109.76-32.64,188.84-34.9,116.1-3.28,263.43-76,296.59-270.16,32.68-191.28,108-292.34,244.24-327.69,69.59-18.05,174.15,3.54,238,49.16,39.53,28.24,62,64,65,103.45a18.92,18.92,0,0,1-.05,3.28c-.95,8.92-3.45,16.38-7.44,22.19-26,37.93-79.25,30.09-135.58,21.8-64.69-9.53-138-20.34-190.33,27.35-64.23,58.52-79.62,134-94.51,207-21.79,106.8-44.32,217.24-216,265.06-89.17,24.85-166.52,18.75-228.67,13.85-69.15-5.44-119.09-9.39-154.22,27.86A18,18,0,0,1,2338.88,2121.53Zm29.06-83.24-4.15,25c41-19.41,90.34-15.53,145.24-11.21,62.4,4.93,133.13,10.5,216.17-12.64,150.48-41.91,169-132.58,190.39-237.57,16-78.65,32.64-160,105.55-226.39,64.93-59.19,150.82-46.53,219.83-36.37,46.85,6.91,87.32,12.87,100.65-6.55h0a12.6,12.6,0,0,0,1.11-4.07c-2.75-28.19-19.53-53.46-49.91-75.16-61.88-44.21-156.18-57.07-208-43.62-122.28,31.73-187.41,121.12-217.78,298.9-36.83,215.63-201.37,296.43-331.07,300.1C2467.4,2010.7,2408.21,2025.2,2367.94,2038.29Z"/><path class="cls-8" d="M3289.56,1350.71l.05.07c50.3,70.65,74.91,143.9,71.23,178.11-8.39-109.38-189.7-160.13-280.58-136.57-117.47,30.48-196.79,113-231,313.3s-184.32,281.46-313.83,285.13c-77.25,2.2-143,19.93-183.47,33.92l15.9-96.06,0,0c28.37-5,74.68-12.47,148.07-22.15,152.94-20.26,213-102.39,215.54-230.28s29.82-229.68,101.16-295.92C2949.77,1271.47,3117.21,1232.82,3289.56,1350.71Z"/><path class="cls-9" d="M2618.18,1977.85a332.46,332.46,0,0,1-82.76,12.9c-77.25,2.2-143,19.93-183.47,33.92l15.9-96.06,0,0c28.37-5,74.68-12.47,148.07-22.15q16-2.15,30.77-5.17C2566,1935.32,2589.56,1963.63,2618.18,1977.85Z"/><path class="cls-4" d="M2352,2042.67a18,18,0,0,1-17.77-21l15.91-96a18.06,18.06,0,0,1,14.67-14.82c39-6.89,89.09-14.39,148.84-22.27,133.88-17.74,197.41-85.35,199.9-212.78,2.82-145.55,36.79-243.66,106.91-308.76,139.41-129.48,318.58-141.14,479.31-31.19a18,18,0,0,1,4.65,4.63l.05.08c48.43,68,79,146.34,74.31,190.26a18,18,0,0,1-35.85-.56c-2.21-28.88-19.05-54.75-50.06-76.89-61.88-44.21-156.18-57.07-208-43.62-122.28,31.73-187.41,121.12-217.78,298.9-36.83,215.63-201.37,296.43-331.07,300.1-74.52,2.12-138,19.08-178.11,32.93A18,18,0,0,1,2352,2042.67Zm31.58-98.53-9,54.44c41.5-12.18,97.16-24,160.39-25.83,116.1-3.28,263.43-76,296.59-270.16,32.68-191.28,108-292.34,244.24-327.69,69.06-17.91,172.56,3.22,236.55,48.13a471.41,471.41,0,0,0-35.55-59.26c-147.26-99.32-304.49-88.6-431.83,29.65-62.47,58-92.79,148-95.4,283.08-2.88,146.5-78.5,227.55-231.19,247.77C2465.3,1931.27,2420.05,1937.94,2383.53,1944.14Z"/><path class="cls-10" d="M3289.56,1350.71c-172.35-117.89-339.79-79.24-456.9,29.52-71.34,66.24-98.68,168-101.16,295.92s-62.6,210-215.54,230.28c-73.39,9.68-119.7,17.14-148.07,22.15l14.11-85.16s242.54,62.24,235.67-152c-5.42-170.72-1.7-467.13,327.38-509C3103.64,1162.18,3220.67,1254,3289.56,1350.71Z"/><path class="cls-11" d="M2519.76,1843.7a461.89,461.89,0,0,0,27,57.56q-14.7,3-30.77,5.17c-73.39,9.68-119.7,17.14-148.07,22.15l14.11-85.16S2455,1862.15,2519.76,1843.7Z"/><path class="cls-4" d="M2367.89,1946.58a18,18,0,0,1-17.76-20.94l14.11-85.17a18,18,0,0,1,22.24-14.49c1.08.28,111.23,27.56,172.2-21.42,28.85-23.19,42.65-61.07,41-112.6-4.59-144.19-15.32-481.84,343.1-527.44,137.66-17.52,269.42,46.52,361.44,175.74a18,18,0,0,1-24.83,25.31c-148-101.25-306.37-91.11-434.48,27.85-62.47,58-92.79,148-95.4,283.08-2.88,146.5-78.5,227.55-231.19,247.77-59.25,7.82-108.8,15.24-147.3,22A17.41,17.41,0,0,1,2367.89,1946.58Zm28.82-81.79-6.93,41.8c34.65-5.69,76.16-11.73,123.82-18,133.88-17.74,197.41-85.35,199.9-212.78,2.82-145.55,36.79-243.66,106.91-308.76,114-105.83,254.48-132.94,389.78-79.28-59.42-54.13-146.76-102.32-262.87-87.52-287.2,36.54-318.71,268.49-311.66,490.57,2,63.51-16.31,111.26-54.54,141.91C2522.74,1879.52,2435.23,1871.37,2396.71,1864.79Z"/><g class="cls-12"><path class="cls-3" d="M2709.93,1423.44c7.77,1.78,32.14-35.18,95.74-85.13,130-102.13,241.53-90,243.8-97.79,6.79-23.28-172.64-41.27-276.71,39.85C2692.1,1343.26,2702.16,1421.66,2709.93,1423.44Z"/></g><path class="cls-7" d="M2338.88,1743.87c-4.12,1.72-8.34,3.34-12.56,5-581.23,220.56-631.21-523.78-631.21-523.78s71.77-404.43,182.26-603.76c46.09,54.76,133.44,191,129.45,434.44C2002,1352.37,1900,1812.07,2338.88,1743.87Z"/><path class="cls-5" d="M2126.71,1807.69c-73.2,0-139.17-18.68-197.34-56-224.13-143.83-251.18-509.91-252.22-525.42a18.08,18.08,0,0,1,.23-4.35c3-16.64,73.57-409.69,184.24-609.34a18,18,0,0,1,29.52-2.87c51.65,61.36,137.7,200.94,133.68,446.33-.71,43.8-3.48,90.21-6.4,139.35-10.94,183.79-23.34,392.11,78.85,485.05,52.31,47.57,130.45,62.51,238.85,45.65a18,18,0,0,1,9.67,34.42c-4.12,1.71-8.33,3.33-12.53,5,0,0-.53.2-.56.21Q2222,1807.69,2126.71,1807.69ZM1713.24,1226c2.53,30.09,35.2,366.91,235.67,495.46,71,45.51,155.7,60.06,252.85,43.57-52-7.64-94.58-26.89-128.72-57.93-114.93-104.53-102-322-90.57-513.83,2.9-48.74,5.64-94.77,6.35-137.8,3.41-208.28-60.29-335.28-108.45-401.15C1783.79,847.62,1719,1194.72,1713.24,1226Z"/><path class="cls-8" d="M2606,1338c-.37,13.49-1.29,26-2.59,36.76-23.28,190.47-106.78,305.13-264.56,369.11-438.84,68.2-336.93-391.5-332.06-688.14,4-243.41-83.36-379.68-129.45-434.44,15.72-28.28,32.18-52.43,49.29-70.7,64.58,47.48,190.83,163.06,206.69,349.54,25.36,298.5-3.85,515.71,233.44,573C2505.05,1506.53,2573.16,1418.44,2606,1338Z"/><path class="cls-9" d="M2488.64,1646.23c-39.46,41-89.11,73.07-149.76,97.64-438.84,68.2-336.93-391.5-332.06-688.14,4-243.41-83.36-379.68-129.45-434.44,15.72-28.28,32.18-52.43,49.29-70.7,64.58,47.48,190.83,163.06,206.69,349.54,4.08,48.31,6.77,94.45,9.36,138.17-15.2,81.27-35.51,147.16-42.1,206.83C2079.1,1439.86,2099.73,1743.83,2488.64,1646.23Z"/><path class="cls-4" d="M2256.3,1768.78c-77.48,0-137.86-20.43-183.26-61.71-114.93-104.53-102-322-90.57-513.83,2.91-48.74,5.64-94.77,6.35-137.8,3.82-233.67-76.82-365-125.23-422.55a18,18,0,0,1-2-20.34c17.11-30.8,34.58-55.79,51.88-74.27a18,18,0,0,1,23.81-2.2c73,53.63,197.77,172,214,362.52,3.89,45.81,6.47,89.22,9,131.21,13.64,229.07,22.65,380.41,210.76,425.84,101.14,24.41,174.62-17.45,218.35-124.46a18,18,0,0,1,34.66,7.3c-.37,13.6-1.29,26.52-2.72,38.42-23.85,195.16-111.44,317-275.66,383.65a18.49,18.49,0,0,1-4,1.11Q2295.92,1768.77,2256.3,1768.78ZM1899.13,619.49c52,65.79,129.51,203.42,125.69,436.54-.71,43.8-3.48,90.21-6.4,139.35-10.94,183.79-23.33,392.11,78.85,485.05,52,47.27,129.45,62.32,236.78,46,137.06-56.17,213.63-150.81,243.55-303.27-52.63,65-126.72,88.86-215,67.52-99.08-23.93-161.07-76-195.08-164-30.29-78.33-36.26-178.61-43.17-294.73-2.49-41.77-5.06-85-8.91-130.3-14.06-165.35-117.3-272.58-186.21-326.53A363.75,363.75,0,0,0,1899.13,619.49Z"/><path class="cls-10" d="M2606,1338c-32.87,80.44-101,168.53-239.24,135.15-237.29-57.31-208.08-274.52-233.44-573-15.86-186.48-142.11-302.06-206.69-349.54,36.81-39.23,76.73-51.37,118.92-19.34,165.75,126,131.26,462.63,266.64,561.29,111.93,81.56,183.28-7,257.42,66.68C2598.29,1187.73,2607.89,1273.83,2606,1338Z"/><path class="cls-11" d="M2142.71,1038.3c-2.59-43.72-5.28-89.86-9.36-138.17-15.86-186.48-142.11-302.06-206.69-349.54,36.81-39.23,76.73-51.37,118.92-19.34,46.18,35.1,76.78,86.52,99.87,144.62C2171.41,827.29,2160.52,943.25,2142.71,1038.3Z"/><path class="cls-4" d="M2423.26,1498.26a258.54,258.54,0,0,1-60.69-7.61c-99.08-23.93-161.07-76-195.08-164-30.29-78.33-36.26-178.61-43.17-294.73-2.49-41.77-5.06-85-8.91-130.3C2100.41,725.34,1984,615.11,1916,565.1a18,18,0,0,1-2.47-26.83c58.83-62.68,110.22-46.21,142.95-21.35,91.84,69.83,124.16,195.43,155.42,316.9,26.6,103.38,51.72,201,110.94,244.17,52.4,38.2,94.34,35.36,134.88,32.62,40.77-2.75,82.93-5.6,124.62,35.83,44.65,44.44,42.14,177.1,41.7,192.08a17.89,17.89,0,0,1-1.33,6.29C2581.62,1445.35,2512,1498.26,2423.26,1498.26ZM1954.36,549.1c73.85,58.6,181.93,173.17,196.93,349.5,3.89,45.81,6.47,89.22,9,131.21,13.64,229.07,22.65,380.41,210.76,425.84,100.18,24.17,173.23-16.67,217.1-121.45,1.68-73.36-11.59-142.72-31.18-162.22-30.13-29.94-58.1-28-96.8-25.44-42.56,2.88-95.53,6.45-158.52-39.45-69.66-50.76-96.35-154.48-124.6-264.3-29.73-115.51-60.46-234.95-142.34-297.2C2015.79,531.24,1990.06,519.65,1954.36,549.1ZM2606,1338h0Z"/><g class="cls-12"><path class="cls-3" d="M2266.46,1120.23c7.56-3.82,34.9,56.18,120.54,63.27,81.6,6.76,152.73-21.55,160.36,28.36,6.58,43-92.18,79.1-179.45,39.82C2261.49,1203.8,2258.89,1124.05,2266.46,1120.23Z"/></g><path class="cls-13" d="M1485.35,1907.41c-11.56,45-74.69,76.17-126.7,94.67a597.82,597.82,0,0,1-71.73,20.6s-30.54,105.58-139,111.82c-107.07,6.15-136.3-102.4-125.7-181.54,20.55-153.67,182.15-148.48,182.15-148.48a8.4,8.4,0,0,0,2-1.39C1235.05,1778.65,1334,1513,1334,1513Z"/><path class="cls-14" d="M1358.65,2002.08a597.82,597.82,0,0,1-71.73,20.6s-30.54,105.58-139,111.82c-107.07,6.15-136.3-102.4-125.7-181.54,20.55-153.67,182.15-148.48,182.15-148.48a8.4,8.4,0,0,0,2-1.39C1265.41,1817.62,1331.9,1866,1358.65,2002.08Z"/><path class="cls-15" d="M1358.65,2002.08a597.82,597.82,0,0,1-71.73,20.6s-30.54,105.58-139,111.82c-105.85,6.07-135.65-100-126-178.84,16.89,46.34,52.93,82.29,115.8,78.67,108.46-6.24,139-111.83,139-111.83s22.21-4.54,51.84-13.92C1340.94,1933.85,1351.32,1964.65,1358.65,2002.08Z"/><path class="cls-4" d="M1139.5,2152.76c-37.63,0-69.82-13.36-93.55-39-40.86-44.07-48.27-113.23-41.58-163.25,19.74-147.48,158.29-162.52,192.81-164,19.1-24.79,74.7-158.33,120-279.89a18,18,0,1,1,33.74,12.57c-.26.7-26.43,70.88-55.42,141.65-61,149.07-74.46,155.51-83.33,159.76a17.15,17.15,0,0,1-8.37,1.77c-5.88-.08-145.62-2.44-163.72,132.87-5.35,40-.11,99.06,32.28,134,18.4,19.85,43.5,29,74.52,27.22,94-5.41,121.63-95.11,122.76-98.93a18.1,18.1,0,0,1,13.66-12.58c46.5-9.57,170.34-46.58,184.65-102.1a18,18,0,0,1,34.87,9c-20.17,78.27-160,116.36-202.11,126.14-16.16,42.41-63.53,109.35-151.76,114.43Q1144.17,2152.76,1139.5,2152.76Z"/><path class="cls-3" d="M1295.22,1859.13s-19.25-38-90.85-54.67"/><path class="cls-4" d="M1287.19,1863.2c-21-25.62-55.16-36.3-86.91-41.2a18.11,18.11,0,1,1,5.27-35.82c1.74.2,14.77,4.9,16.72,5.56,22.93,8.92,44.89,21,62.5,38.48,7.31,7.43,13.86,15.32,18.48,24.84,4.16,8.71-7.08,16.74-14,10.14l-2.1-2Z"/><path class="cls-3" d="M2335.27,2335.59c-76.31,94.85-161.65,156.2-184.95,161-439.36,89.92-904.06-370.16-801.49-930.28l589.53-226.79c6.24,39.48,17.11,73.77,31.37,103.92,72.34,153.1,233.25,198.74,334.65,266.06,97.25,87.78,131.24,106.24,155.49,223.3C2491.9,2087,2419,2231.49,2335.27,2335.59Z"/><path class="cls-13" d="M2335.27,2335.59c-76.31,94.85-161.65,156.2-184.95,161-439.36,89.92-904.06-370.16-801.49-930.28l589.53-226.79c6.24,39.48,17.11,73.77,31.37,103.92-27.27,75.7-114.79,180.63-370.63,288.4,0,0,75.43,187.08,223,196.16,0,0-27.22,261.21,159.16,389.31,170,116.8,312.31,33.29,312.31,33.29Z"/><path class="cls-4" d="M2039.84,2525.68c-168.33,0-339.55-72.69-475-205.35-197.72-193.66-285.09-476.76-233.72-757.28a18,18,0,1,1,35.42,6.49c-49.21,268.73,34.34,539.79,223.5,725.07,157.71,154.47,365.8,223.37,556.67,184.33,22.09-4.52,133.73-86.51,215.62-210.9,51.59-78.37,107.33-199.5,79.92-331.59-20.42-98.45-45.58-120.78-120.26-187.06-8.9-7.9-18.45-16.38-28.7-25.61-25-16.49-53.94-31.82-84.57-48-114.42-60.59-256.83-136-288.13-333.42a18,18,0,1,1,35.57-5.64c28.48,179.65,156.48,247.43,269.42,307.24,31.88,16.89,62,32.83,88.73,50.58a19.63,19.63,0,0,1,2.1,1.63c10.56,9.53,20.36,18.23,29.49,26.33,76.92,68.28,108.76,96.54,131.61,206.67,23.68,114.13-5.75,238.17-85.1,358.71-83.82,127.31-202,218.92-238.48,226.38A568.77,568.77,0,0,1,2039.84,2525.68Z"/><path class="cls-3" d="M2586.53,2650.16c-118.32,47.08-173-60.16-188.74-100.21-1.4-3.54-2.49-6.55-3.27-8.86-1.18-3.45-1.75-5.45-1.75-5.45-57.59,60.86-188.48,110.9-289.31,57.06-103.36-55.23-124.87-182.76-123-258.37.18-6,.48-11.74.87-17l323.09-607.81c341.84,214.62,132,529.8,132,529.8a118.9,118.9,0,0,1,14.88-.22c21.29.7,61.73,6,96.94,32.94C2614.15,2322.46,2741.68,2588.38,2586.53,2650.16Z"/><path class="cls-13" d="M2478.85,2435.72,2397.79,2550c-1.4-3.54-2.49-6.55-3.27-8.86-1.18-3.45-1.75-5.45-1.75-5.45-57.59,60.86-188.48,110.9-289.31,57.06-103.36-55.23-124.87-182.76-123-258.37,22.43,59.94,84.56,187.43,213.53,210.29C2365.07,2575,2475.8,2439.52,2478.85,2435.72Z"/><path class="cls-14" d="M2660.31,2531.14c-.52,52.45-20.42,97.78-73.78,119-128.71,51.23-182-80.19-192-109.07,17.88-16.89,55.67-55.41,80.49-101.22A225.52,225.52,0,0,0,2491.2,2403c32.64-99.52-20.42-149.48-40-163.88,21.29.7,61.73,6,96.94,32.94C2591.46,2305.14,2661.27,2431.05,2660.31,2531.14Z"/><path class="cls-15" d="M2660.31,2531.14c-.52,52.45-20.42,97.78-73.78,119-128.71,51.23-182-80.19-192-109.07,17.88-16.89,55.67-55.41,80.49-101.22-7.72,40.05-10.34,109.07,52.4,138.65C2596.57,2611.07,2643,2581.58,2660.31,2531.14Z"/><path class="cls-4" d="M1990.28,2318c2.66,95.68,30.46,208.23,120.67,256.87,65,34.76,145.61,22.79,209.46-9.7,21.92-11.14,42.39-25.3,59.27-41.91l3.8-3.74a15.62,15.62,0,0,1,26.57,11.13,206.62,206.62,0,0,0,8.2,21.52c15.3,34.17,39,68.33,73.7,83.73,39.08,17.29,91.51,4.66,121.91-24.39,20.89-21,28.25-51.29,28.44-80.91-.5-63.68-25.45-128.07-57.18-183.26-25.19-43-51.37-75-102.26-86a166.64,166.64,0,0,0-39.8-4.35c-1.72,0-3.94.13-5,.22a18.09,18.09,0,0,1-16.71-27.9,335.47,335.47,0,0,0,17.47-31.58c61.51-123.1,61.8-270.22-31.51-377.48-31.44-37.53-70.42-69-112.55-95.49a18,18,0,1,1,19.14-30.51c89.86,55.63,169.86,139.58,194.52,245.73,25.3,105.77-1.6,217.82-57.1,309.28l-16.71-27.9c19.15-1.32,37.75.71,56.36,4.9,61.06,13.63,94.85,50.65,125.14,102.82,35.26,61.86,61.37,129.14,62.17,201.81-.07,37.72-10.92,78.24-38.86,106-40.82,39.67-109.21,55.35-162,32-52.54-23.87-84.5-75.53-102-128.24l30.38,7.4c-59,61.49-146.28,93.15-230.94,86-88.63-7.88-159.92-72.78-187.73-155.38a341.06,341.06,0,0,1-14.83-162.08c2-10.9,17.76-9.49,18,1.41Z"/><path class="cls-3" d="M2479,2435.62s-39.08,50-87.21,100"/><path class="cls-4" d="M2486.05,2441.16c-25.56,37-52.46,72.46-81.34,107a18,18,0,1,1-25.94-25c32.32-29.41,63.59-60.78,93.09-93.09,7.48-8.29,20.45,1.85,14.19,11.09Z"/><path class="cls-3" d="M1203.93,514.88s-198.61-63.15-191.53-281.31c7.5-231,355.73-170.95,384.57,116.86"/><path class="cls-4" d="M1203.93,532.89a17.8,17.8,0,0,1-5.45-.85c-2.18-.69-53.86-17.45-104.89-62.51C1046.2,427.69,990.52,352.68,994.41,233c3-93.64,61.93-156.07,150-159,118.87-4,252.7,97.64,270.45,274.69a18,18,0,0,1-35.83,3.59c-17.24-172-147.12-245.19-233.4-242.29-69.73,2.35-112.81,48.79-115.27,124.22-6.53,201.48,171.45,261.14,179,263.58a18,18,0,0,1-5.49,35.16Z"/><path class="cls-16" d="M1202.82,406.65s-97.21-30.9-93.74-137.69c3.67-113.06,174.12-83.67,188.23,57.2"/><path class="cls-4" d="M1202.82,424.66a17.8,17.8,0,0,1-5.45-.85c-38.12-12.12-109.38-60.2-106.29-155.44,1.66-51.05,34-85.1,82.32-86.73,62.59-2.13,132.61,50.7,141.83,142.72A18,18,0,0,1,1279.4,328c-7-70.09-60-111.91-104.79-110.32-29.17,1-46.5,19.9-47.54,51.91-3,91.4,77.83,118.85,81.27,120a18,18,0,0,1-5.52,35.14Z"/><path class="cls-3" d="M2309,523.94C2254.32,658.3,2144.54,693.2,2077,701.52c26.9,177,41.45,448.3-59.41,681.89a406.44,406.44,0,0,1-42.15,75.25c-168.77,237.58-549.77,204-831,120.23-250.21-74.47-401.68-226.34-371.9-385.36a238.87,238.87,0,0,1,18.19-56.36,309.93,309.93,0,0,1,35.87-58.56c9.22-15.26,18.86-34.53,28.77-56.69C913.12,893.06,980,667.8,1025.73,584c141.1-258.82,212.61-358.06,458.15-353.89,130.94,2.28,342.46,35.86,477.68,175.65C2121.14,242.94,2386.77,332.5,2309,523.94Z"/><path class="cls-3" d="M2308.93,523.93c-16.23,39.92-37.37,71.08-60.78,95.37-55.36,57.4-123.7,76.36-171.14,82.2,26.9,177,41.45,448.3-59.39,681.89a403.58,403.58,0,0,1-42.14,75.25c-168.77,237.62-549.79,204-831,120.27-250.23-74.46-401.71-226.35-371.94-385.38A232.55,232.55,0,0,1,784,1153.28c15.49,101.12,96.44,244.76,405.69,327.15,670.94,178.73,812.49-131.31,844.39-424.7,32.92-302.44-145.21-638.11-145.21-638.11l45.85-37.47q13.85,12.11,26.85,25.55A289.46,289.46,0,0,1,2034,351.55C2189.12,270.18,2375.83,359.43,2308.93,523.93Z"/><path class="cls-13" d="M2077,701.5c26.9,177,41.45,448.3-59.39,681.89a403.58,403.58,0,0,1-42.14,75.25c-168.77,237.62-549.79,204-831,120.27-250.23-74.46-401.71-226.35-371.94-385.38A232.55,232.55,0,0,1,784,1153.28c15.49,101.12,96.44,244.76,405.69,327.15,670.94,178.73,812.49-131.31,844.39-424.7,32.92-302.44-145.21-638.11-145.21-638.11l45.85-37.47q13.85,12.11,26.85,25.55A289.46,289.46,0,0,1,2034,351.55c-21.47,62.26-33.24,148.27,18.64,225.93,47.75,71.45,126.85,71.63,195.52,41.82C2192.79,676.7,2124.45,695.66,2077,701.5Z"/><path class="cls-15" d="M2001.39,1385.8c-12.05,48.59-78.54,74.41-151.56,60.6,52.85-39,91.15-88.65,119-144.24C1995.32,1326.82,2008.49,1357.24,2001.39,1385.8Z"/><path class="cls-17" d="M1975.48,1458.64c-168.77,237.62-549.79,204-831,120.27-250.23-74.46-401.71-226.35-371.94-385.38.32-1.67.65-3.34,1-5.06.28-1.39.6-2.83.93-4.22,1-4.4,2.18-8.76,3.47-13.17.56-1.9,1.16-3.8,1.77-5.7.74-2.36,1.53-4.73,2.41-7.05.55-1.66,1.2-3.38,1.85-5,15.49,101.12,96.44,244.76,405.69,327.15,394.42,105.06,605.89,41.22,719.72-88.84A922.24,922.24,0,0,1,1975.48,1458.64Z"/><path class="cls-18" d="M1975.46,1458.66c-168.77,237.58-549.77,204-831,120.23-250.21-74.47-401.68-226.34-371.9-385.36a238.87,238.87,0,0,1,18.19-56.36c54.8-12.32,129-23.21,223.53-25.11,112.67-2.28,254.24,8.27,426.22,44.54C1702.63,1211.88,1871.7,1342,1975.46,1458.66Z"/><path class="cls-17" d="M1975.48,1458.64c-168.77,237.62-549.79,204-831,120.27-250.23-74.46-401.71-226.35-371.94-385.38.32-1.67.65-3.34,1-5.06.28-1.39.6-2.83.93-4.22,1-4.4,2.18-8.76,3.47-13.17.56-1.9,1.16-3.8,1.77-5.7.74-2.36,1.53-4.73,2.41-7.05.55-1.66,1.2-3.38,1.85-5,15.49,101.12,96.44,244.76,405.69,327.15,394.42,105.06,605.89,41.22,719.72-88.84A922.24,922.24,0,0,1,1975.48,1458.64Z"/><path class="cls-19" d="M1438.67,1339.5c-2.4,53.61-17.37,115.68-49.9,139.57-17,12.49-60.43,31.91-93.65-15-8-11.33-15.35-31.42-21.31-54.65C1288.83,1395.54,1339.07,1356,1438.67,1339.5Z"/><path class="cls-4" d="M1346.14,1509.63a71.08,71.08,0,0,1-11.38-.91c-20.47-3.31-38.14-15.28-52.5-35.55-8.7-12.3-16.67-32.43-23.71-59.84l-2.34-9.12,6.91-6.38c18-16.58,70.79-57,173-73.88l19.17-3.16-.87,19.41c-1.19,26.74-8.79,116.69-56.31,151.57C1391.88,1496.33,1371.57,1509.63,1346.14,1509.63Zm-54.53-94.74c7,24.41,13.12,35.48,16.37,40.07,9.29,13.12,20,20.74,31.82,22.66,14.7,2.37,30.12-4.25,39.63-11.25,21.06-15.45,36.87-56.59,42-107.62C1350.46,1373.72,1309.33,1400.68,1291.61,1414.89Z"/><path class="cls-4" d="M1438.67,1339.5c-99.6,16.46-149.84,56-164.86,69.91-17.08-66.63-22.7-159.58-.77-149.78,12.87,5.68,37,20.5,73.61,18.4,63.06-3.71,67.57-32.54,75.47-27.63C1434.2,1257.92,1440.54,1296,1438.67,1339.5Z"/><path class="cls-4" d="M1265.1,1438.89l-6.55-25.57c-7.44-29-29.64-142.06-2.43-165a21.73,21.73,0,0,1,23.35-3c1.86.83,4,1.86,6.41,3,12.9,6.23,32.36,15.66,59.87,14,37.2-2.19,50.24-13.69,57.24-19.87,4.47-4,14.94-13.18,27.45-5.41,25,15.54,25.08,77.31,24,103.15l-.54,12.79-12.63,2.08c-96.42,15.93-144.34,54.5-156.73,66Zm10.47-160.64c-2.8,17.7-.59,59.8,8.06,103.23,25.71-18,70.55-42,139.61-55.23.14-25.89-2.91-44.45-6.1-54.59-11.07,8.54-31,19.82-69.56,22.09C1314.54,1295.65,1290.71,1285.46,1275.57,1278.25Zm-8.9-4.22,0,0Zm146.57-10.67Z"/><path class="cls-20" d="M1351.43,1202.73c-7,8-9.14,17.58-4.71,21.49s13.72.64,20.75-7.32,9.14-17.58,4.71-21.5S1358.46,1194.77,1351.43,1202.73Z"/><ellipse class="cls-20" cx="1278.5" cy="1203.76" rx="10.7" ry="19.23" transform="translate(-448.81 887.52) rotate(-32.9)"/><ellipse class="cls-14" cx="1860.63" cy="1350.78" rx="95.74" ry="145.05" transform="translate(100.69 2830.38) rotate(-76.03)"/><path class="cls-15" d="M2001.39,1385.8c-12.05,48.59-78.54,74.41-151.56,60.6,52.85-39,91.15-88.65,119-144.24C1995.32,1326.82,2008.49,1357.24,2001.39,1385.8Z"/><path class="cls-14" d="M1021.16,1164.89c-13.64,54.79-92,82.46-175.09,61.83-28.13-7-53.23-18.64-73.5-33.19a238.87,238.87,0,0,1,18.19-56.36,309.93,309.93,0,0,1,35.87-58.56c9.22-15.26,18.86-34.53,28.77-56.69a225.77,225.77,0,0,1,40.06,6.28c56.61,14.1,100.74,47,118.83,83.86C1022.74,1129.32,1025.51,1147.43,1021.16,1164.89Z"/><path class="cls-4" d="M1538.14,1659.41c-121.2,0-259-21.63-398.8-63.25-199-59.25-336.3-164.71-376.66-289.33-25.92-80-9-162.44,49.05-238.39,33-55,72-164.18,109.72-269.79,32.52-91,63.24-177,88.46-223.3,66.37-121.74,122.79-219.71,194-280.64,70.22-60.08,154.09-84.83,280.26-82.65,93.73,1.63,324,21.54,477.55,168.45,103.14-94.35,235.7-94.5,311.7-44.62,64.94,42.62,84.45,115.45,52.19,194.83h0c-53.92,132.61-159.5,173.59-228.18,185.91,26.3,185.21,34.86,446.56-63.31,673.91-64.72,149.91-194.91,238.19-387,262.4A875.47,875.47,0,0,1,1538.14,1659.41ZM1468.47,247.93c-220.22,0-286.41,86.85-426.94,344.66-23.88,43.81-54.14,128.51-86.17,218.17C916.84,918.59,877,1030.09,842,1087.91c-.35.57-.73,1.12-1.13,1.65-51,66.35-66.17,137.65-44,206.17,36.11,111.51,168,210.92,352.68,265.92,160.36,47.74,695.66,175.48,851.46-185.38,98-226.91,85.7-490.71,58.14-672a18,18,0,0,1,15.6-20.57c71.92-8.86,168-44.95,217.45-166.5,25.66-63.12,11.6-118.22-38.59-151.16-68.18-44.75-191.29-37.41-279.27,52.33a18,18,0,0,1-12.85,5.4h-.06a18,18,0,0,1-12.88-5.49c-143.93-148.8-373.17-168.57-465-170.17Q1475.91,247.94,1468.47,247.93Zm840.48,276h0Z"/><path class="cls-16" d="M2035.57,544.06c23.74,49.57,87.9,64.42,130.27,29.42,15.66-12.94,30-31.09,40.38-56.53,32.79-80.66-59-124.37-135-84.15-39.85,21.09-55.1,70.6-35.63,111.26Z"/><path class="cls-4" d="M2112.75,610.64a104.29,104.29,0,0,1-22.32-2.44,102.87,102.87,0,0,1-71.09-56.37h0c-24-50.08-4.9-109.35,43.44-134.94,49.15-26,107.56-22.4,142,8.78,26.92,24.34,33.5,60.08,18.06,98.06-10.53,25.93-25.87,47.34-45.58,63.63A101,101,0,0,1,2112.75,610.64Zm17.86-175a109.18,109.18,0,0,0-51,13.13c-31.2,16.51-43.42,55-27.81,87.56h0A67.05,67.05,0,0,0,2098.18,573a65.5,65.5,0,0,0,56.2-13.43c15.06-12.45,26.88-29.08,35.16-49.43,9.68-23.81,6.62-43.8-8.86-57.79C2169.47,442.24,2151.43,435.59,2130.61,435.59Z"/><path class="cls-3" d="M1972.43,395.17c-18.64,68.31,57,245.45-12.44,340.3-148.31,202.71-638.33,84.27-779.19-9C988.7,599.24,973.32,454.14,973.32,454.14s53.78,4.17,99.17-16.84c33.15-15.34,38.25-49.07,97.07-110.27,128.78-134,288.47-135.88,467.06-108.95C1793.3,241.71,1909.16,316.78,1972.43,395.17Z"/><path class="cls-8" d="M1925.87,346.77c-149.67,41.17-167.7,353.72-440,353.39-283.65-.32-465.26-189.35-512.46-244.85-.1-.79-.14-1.16-.14-1.16a233.81,233.81,0,0,0,36.35-.88c43,22,89.3,39.13,137.51,47.43,82.63,14.28,171.14,2.74,259.32-54.11,96.07-61.94,152.77-227.09,413.16-171h0a504.9,504.9,0,0,1,103.07,68.53C1923.83,345,1924.85,345.89,1925.87,346.77Z"/><path class="cls-9" d="M1925.87,346.77c-149.67,41.17-167.7,353.72-440,353.39-283.65-.32-465.26-189.35-512.46-244.85-.1-.79-.14-1.16-.14-1.16a233.81,233.81,0,0,0,36.35-.88c43,22,89.3,39.13,137.51,47.43,4.87,17.71,20.5,44.32,64.64,77.61,43.35,32.74,288.8,132.56,429.52,4.08,152.07-138.76,165-236.78,281.43-238.31C1923.83,345,1924.85,345.89,1925.87,346.77Z"/><g class="cls-12"><path class="cls-3" d="M1925.87,346.77c-21.56,5.93-40.39,17.48-57.63,33-69.69-42.24-154.12-76.92-253.9-97.09,51.1-19.57,116.33-26.24,205.31-7.1h0C1860.82,296.33,1896.38,320.76,1925.87,346.77Z"/></g><path class="cls-4" d="M1486.31,718.18h-.41c-290.22-.33-476.11-192.37-526.17-251.22a18.06,18.06,0,0,1-4.13-9.24c-.2-1.48-.24-2.18-.24-2.18a18.32,18.32,0,0,1,5.32-14.1,18,18,0,0,1,14-5.26,215.64,215.64,0,0,0,33.21-.85,18,18,0,0,1,10,1.9c136.74,70,264.21,68.07,378.86-5.79,22.38-14.42,43.33-35.76,65.51-58.36,69.62-70.9,156.26-159.16,360.92-115.19a18.42,18.42,0,0,1,4.62,1.58c40.9,20.66,77.9,45.5,110,73.83a18,18,0,0,1-7.15,30.85c-53.51,14.72-89.59,70.75-131.35,135.64C1736.61,597.09,1658.66,718.18,1486.31,718.18ZM1018.56,477.71c73.37,74.1,235.3,204.19,467.38,204.46h.38c152.71,0,218.76-102.62,282.66-201.88,36.91-57.33,72.1-112,122.13-138.83a495.7,495.7,0,0,0-77.47-48.78c-183.85-38.84-259.19,37.9-325.69,105.63-23.63,24.07-46,46.8-71.7,63.4C1294.85,539.91,1161.15,545.27,1018.56,477.71Z"/><path class="cls-6" d="M1819.65,275.55c-53.28-11.45-98.06-13.67-136.36-9.36-148.88,16.6-200.39,131.16-276.8,180.4-139.69,90-280.09,66.44-396.83,6.68,18.54-1.81,41.63-6.12,62.82-16,22.81-10.52,32.36-29.72,55.13-60.55a497.39,497.39,0,0,1,42-49.7c128.75-133.95,288.48-135.9,467-108.91C1706,228.54,1767.35,249.08,1819.65,275.55Z"/><path class="cls-7" d="M1683.29,266.19c-148.88,16.6-200.39,131.16-276.8,180.4-139.69,90-280.09,66.44-396.83,6.68,18.54-1.81,41.63-6.12,62.82-16,22.81-10.52,32.36-29.72,55.13-60.55-1.58,20,5.33,55.41,70.8,62.22,188.42,19.57,278.14-175.35,422.29-174.84C1643.79,264.2,1664.56,264.94,1683.29,266.19Z"/><g class="cls-12"><path class="cls-3" d="M1819.65,275.55c-89-19.14-154.21-12.47-205.31,7.1-.78-.19-1.62-.33-2.45-.51-205-41-335.91,4.17-464.85,70,6.49-7.79,14-16.13,22.53-25.08,128.75-133.95,288.48-135.9,467-108.91C1706,228.54,1767.35,249.08,1819.65,275.55Z"/></g><path class="cls-4" d="M1210.72,524.66q-100.87,0-209.26-55.38a18,18,0,0,1,6.47-33.95c21.54-2.09,41.24-7.06,57-14.38,13.7-6.32,21.36-17.18,35.26-36.89,12.1-17.15,28.67-40.64,56.41-69.5,138-143.64,313.57-139.8,482.71-114.26,67.54,10.18,131,30.09,188.45,59.18a18,18,0,0,1-11.91,33.67c-185.43-39.92-261.13,37.16-327.89,105.16-23.63,24.07-46,46.8-71.7,63.4C1351.11,503.67,1282.42,524.66,1210.72,524.66Zm-144.26-65.43c118.43,46.53,229.32,37.25,330.28-27.79,22.38-14.42,43.33-35.76,65.51-58.36,52.37-53.34,114.41-116.49,229-125.8q-28.07-6.94-57.37-11.37c-184.4-27.85-331.72-20.89-451.37,103.61-25.85,26.88-40.87,48.18-52.94,65.29-15.15,21.49-27.13,38.47-49.56,48.82Q1073.51,456.68,1066.46,459.23Z"/><path class="cls-10" d="M1960,735.48c-148.3,202.7-638.33,84.24-779.15-9C998.64,605.85,975.38,469.11,973.45,455.3c47.2,55.49,228.8,244.55,512.47,244.87,272.26.3,290.29-312.24,439.93-353.38a397.68,397.68,0,0,1,46.58,48.37C1953.77,463.49,2029.39,640.61,1960,735.48Z"/><path class="cls-11" d="M1960,735.49c-148.32,202.71-638.35,84.24-779.15-9C998.62,605.86,975.39,469.13,973.45,455.31c26.29,30.92,94.3,103.3,198.44,161.39h0c113.83,77.48,477.28,222.88,664.68,89.53,119.67-85.12,33.34-211.14,132.79-278.74C1971.21,508.86,2020.22,653.1,1960,735.49Z"/><g class="cls-12"><path class="cls-3" d="M1971.54,456.47a670.77,670.77,0,0,0-103.3-76.73c17.24-15.49,36.07-27,57.63-33a395.36,395.36,0,0,1,46.55,48.4C1968.15,410.71,1968.8,431.9,1971.54,456.47Z"/></g><path class="cls-4" d="M1658.48,864.72q-44.18,0-92.68-4.85c-167.27-16.81-325.28-72.29-394.92-118.41C982.83,617,957.85,473.72,955.61,457.79a18,18,0,0,1,31.55-14.16c47.53,55.88,224,238.22,498.78,238.54h.38c152.71,0,218.76-102.62,282.66-201.88,43.87-68.13,85.3-132.5,152.09-150.86a18,18,0,0,1,16.68,3.85,416.05,416.05,0,0,1,48.7,50.58,18,18,0,0,1,3.35,16.05c-5.91,21.63,0,61.4,6.33,103.5,11.79,78.84,26.46,177-21.63,242.7h0C1917.71,823.74,1807.17,864.72,1658.48,864.72ZM1016.22,525.47c25.27,50.7,75.46,120.39,174.54,186,64.34,42.61,218.9,96.55,378.63,112.6,105.57,10.59,294.83,11.82,376-99.19h0c39.35-53.77,26.46-140,15.08-216.11-6.41-42.91-12-80.59-7.49-108.79a381.3,381.3,0,0,0-31.54-32.82c-48.59,18.27-82.88,71.54-122.23,132.67-62.65,97.3-140.6,218.39-313,218.39h-.41C1263.09,717.92,1101.8,604.7,1016.22,525.47Z"/><path class="cls-4" d="M1488.05,303.87a173.31,173.31,0,0,0,29.55,32.66l4.37,15.7c2.64-7.43-3.12-17.71-10.81-19.4l6.42,3.7c46.83,39.86,114.69,56.45,175,51,21.92-2.3,40-9.56,61.45-17.31,15.3-5,24.28,16.74,9.75,23.92-19.46,10.78-43.11,21.85-66.14,25.71-47.76,8.27-97.55.14-141.89-18.53a194.55,194.55,0,0,1-60-41.64l6.42,3.68c-5.78-1.32-11.45-8.26-11.39-14.43a16,16,0,0,1,.53-5.05l4.37,15.71c-12.65-13.25-23.47-27.92-30.62-45-5.73-15.05,15-24.57,23-10.71Z"/><path class="cls-21" d="M1714.83,391.33c-.4,1-.84,2.06-1.27,3.05a22.2,22.2,0,0,1-.92,2c-26.33,6.37-62.23,8.5-113.25-4.63-27.65-7.12-49.63-18.14-66.77-30,58-1.21,136.52-9.35,195.21-37.42-1.76,18.84-4.23,35.73-7.55,49.64A129.78,129.78,0,0,1,1714.83,391.33Z"/><path class="cls-22" d="M1727.83,324.35c-58.69,28.07-137.19,36.21-195.21,37.42a184.35,184.35,0,0,1-22.47-18.16s0,0,0,0c.1-1.27.25-2.56.39-3.86s.3-2.47.5-3.71c.38-2.48.81-5.06,1.37-7.68.26-1.3.56-2.62.87-4a281.26,281.26,0,0,1,8.41-27.87,2.5,2.5,0,0,1,.2-.58c1-3,2.19-6.15,3.36-9.34a7.71,7.71,0,0,0,.3-.8c1.23-3.28,2.54-6.61,3.88-10,.72-1.76,1.42-3.56,2.14-5.32,2.19-5.38,4.54-10.9,7-16.45.65-1.52,1.3-3,2-4.51l0-.07c.62,0,1.25,0,1.87.05.44,0,.91,0,1.4,0,.33,0,.66,0,1,0a2.26,2.26,0,0,0,.45,0c1.29,0,2.62,0,4,.05h7.56c2.19,0,4.42,0,6.73-.09,4.69-.08,9.53-.18,14.54-.35a4.72,4.72,0,0,1,.76,0c4.3-.15,8.72-.34,13.19-.55.86,0,1.69-.08,2.59-.12s2-.1,3.05-.17c.67,0,1.39-.08,2.11-.14,2-.11,4-.24,6-.41l0,0c1.54-.08,3.06-.2,4.6-.28,2.84-.23,5.68-.46,8.54-.72q3.35-.27,6.74-.65l1.24-.09,1.76-.16c.38,0,.77-.12,1.15-.16,4.54-.45,9.14-1,13.71-1.58,4.07-.51,8.15-1.06,12.22-1.68,1.47-.21,2.9-.43,4.33-.66s2.79-.43,4.16-.67,2.63-.4,4-.65,2.64-.43,4-.69c2.3-.42,4.6-.83,6.92-1.29,1.36-.24,2.77-.51,4.16-.82l1.77-.38c2.71-.53,5.36-1.11,8-1.71,3.24-.71,6.48-1.46,9.68-2.29,1.62-.35,3.23-.79,4.83-1.22.36-.08.72-.17,1-.26a7.07,7.07,0,0,0,1.05-.3c.87-.19,1.71-.43,2.55-.64l.57-.17c1-.27,2-.54,3-.88.83-.21,1.68-.45,2.5-.73a6.79,6.79,0,0,0,.72-.17c.48-.13.92-.26,1.41-.42,1.58-.47,3.16-.95,4.71-1.44.28-.07.56-.17.89-.26,1.74-.54,3.46-1.09,5.18-1.68,0,4.57.07,9.13,0,13.65,0,3.74,0,7.44-.06,11.13q0,4.11-.1,8.19c0,.67,0,1.34,0,2,0,2-.07,4-.11,6-.13,6.3-.31,12.54-.55,18.62-.15,3.63-.31,7.21-.49,10.71-.1,2.05-.23,4.05-.34,6-.11,1.67-.21,3.35-.27,5-.21,2.27-.37,4.52-.51,6.74-.13,2-.31,4-.46,5.91S1728,322.55,1727.83,324.35Z"/><path class="cls-22" d="M1679.07,238.32c-1.39.28-2.78.56-4.17.79,2.78-.46,5.56-1,8.34-1.57C1681.85,237.81,1680.46,238.09,1679.07,238.32Z"/><path class="cls-22" d="M1693.07,235.45c-1.34.32-2.69.6-4,.88,1.34-.32,2.69-.6,4-.93,1.62-.32,3.25-.69,4.87-1.06Z"/><path class="cls-22" d="M1729.42,303.79c-.05.84-.09,1.67-.14,2.5-.18,2.28-.32,4.5-.51,6.73-.09,2-.28,3.94-.46,5.93-.14,1.81-.28,3.62-.47,5.38-58.69,28.1-137.19,36.21-195.24,37.46a187,187,0,0,1-22.44-18.17s0,0,0-.05c.09-1.25.23-2.55.41-3.85s.28-2.5.47-3.71c.37-2.5.83-5.1,1.39-7.69.23-1.3.55-2.65.88-4a275.15,275.15,0,0,1,8.39-27.86,2.31,2.31,0,0,1,.19-.56c1.06-3.06,2.22-6.17,3.38-9.37.09-.28.19-.51.28-.79q1.88-4.94,3.89-10c.7-1.76,1.44-3.57,2.14-5.33,2.18-5.38,4.54-10.9,7-16.46.65-1.48,1.3-3,2-4.5l0,0h0c.61,0,1.21,0,1.81,0h1.9a1.91,1.91,0,0,1,.51.05.92.92,0,0,0,.37-.05c1.3.05,2.65.05,4,.05h7.56c2.22,0,4.45,0,6.77-.05,4.68-.09,9.5-.18,14.51-.37a3.45,3.45,0,0,1,.74-.05c4.31-.13,8.76-.32,13.22-.55.88,0,1.71,0,2.59-.1l2.37-.13c2.87-.19,5.79-.37,8.76-.61h0c1.53-.09,3.06-.23,4.59-.32a5.14,5.14,0,0,1,.88,0C1640,300.45,1706,304.21,1729.42,303.79Z"/><path class="cls-22" d="M1731.22,225c-3.42,1.13-6.89,2.24-10.4,3.27-1.66.47-3.34,1-5,1.43-1,.3-2,.57-3,.86a2.77,2.77,0,0,1-.48.11c-3.16.87-6.39,1.72-9.61,2.5s-6.46,1.56-9.69,2.3-6.45,1.4-9.7,2.06c0,0-.08,0-.13,0-2.76.54-5.53,1.09-8.32,1.59-.71.12-1.43.27-2.13.4-2.84.52-5.7,1-8.55,1.44-9.23,1.5-18.44,2.79-27.57,3.83-1.71.23-3.44.42-5.13.58-1,.12-1.92.21-2.88.33l-4.52.42-2.23.22c-2.29.21-4.51.4-6.75.58-3.18.27-6.29.48-9.37.71l0,0c-4.64.35-9.22.61-13.71.82s-8.91.41-13.23.56c-10.5.38-20.42.48-29.58.48-3,0-5.86-.05-8.67-.12,15.94-35.76,36.42-75.14,57.43-112.31v0a704.38,704.38,0,0,0,98.4-7.85c10.28-1.63,20.59-3.51,30.83-5.75C1729.43,155.74,1731,190.78,1731.22,225Z"/><path class="cls-22" d="M1611.24,247.23c-.33,0-.61,0-.88.09-1.53.09-3.06.23-4.59.32h0c-3,.24-5.89.42-8.76.61-1.67.09-3.34.18-5,.23-4.46.23-8.91.42-13.22.55-10.48.37-20.4.47-29.58.47-1.34,0-2.69,0-4-.05h-1.85c-.93,0-1.81,0-2.74,0h-.09c16-35.74,36.44-75.15,57.45-112.29v-.05c1.71,0,3.43,0,5.14-.09C1592.55,187.32,1597.88,222.56,1611.24,247.23Z"/><path class="cls-22" d="M1674.9,239.11c2.78-.46,5.56-1,8.34-1.57-1.39.27-2.78.55-4.17.78S1676.29,238.88,1674.9,239.11Z"/><path class="cls-22" d="M1697.94,234.34l-4.87,1.11c-1.34.32-2.69.6-4,.88,1.34-.32,2.69-.6,4-.93C1694.69,235.08,1696.32,234.71,1697.94,234.34Z"/><path class="cls-22" d="M1727.21,123.45c-10.24,2.24-20.55,4.12-30.83,5.75a704.38,704.38,0,0,1-98.4,7.85c18.22-32.21,36.8-62.78,53.15-87.81q4-6.16,7.83-11.82c21.29-31.66,57-23.06,61.68,14.77C1723.12,72.88,1725.42,97.27,1727.21,123.45Z"/><g class="cls-12"><path class="cls-3" d="M1731.13,257.91,1715.67,290s-2.72-25.68-6-49.64c-4.38-32.45-7-77.74-13.33-111.19-4.11-22.07-7.68-41.86-9.78-54.89-3.92-24.43-20.13-27.82-35.47-25.07q4-6.16,7.83-11.82c21.29-31.66,57-23.06,61.68,14.77,2.48,20.69,4.78,45.08,6.57,71.26,2.22,32.29,3.77,67.33,4,101.52C1731.3,236.08,1731.3,247.09,1731.13,257.91Z"/></g><path class="cls-21" d="M1729.42,303.79c-.05.84-.09,1.67-.14,2.5-.18,2.28-.32,4.5-.51,6.73-.09,2-.28,3.94-.46,5.93-.14,1.81-.28,3.62-.47,5.38-58.69,28.1-137.19,36.21-195.24,37.46a187,187,0,0,1-22.44-18.17s0,0,0-.05c.09-1.25.23-2.55.41-3.85s.28-2.5.47-3.71c.37-2.5.83-5.1,1.39-7.69.23-1.3.55-2.65.88-4a275.15,275.15,0,0,1,8.39-27.86,2.31,2.31,0,0,1,.19-.56c1.06-3.06,2.22-6.17,3.38-9.37.09-.28.19-.51.28-.79q1.88-4.94,3.89-10c.7-1.76,1.44-3.57,2.14-5.33,2.18-5.38,4.54-10.9,7-16.46.65-1.48,1.3-3,2-4.5l0,0h0c16-35.74,36.44-75.15,57.45-112.29v-.05c1.71,0,3.43,0,5.14-.09-10.57,50.35-5.24,85.59,8.12,110.26,0,0,0,0,0,0C1640,300.45,1706,304.21,1729.42,303.79Z"/><path class="cls-4" d="M1668.79,419.46c-22.86,0-47.35-3.41-73.88-10.24a225.28,225.28,0,0,1-72.54-32.64,18,18,0,0,1,9.87-32.81c44.24-.93,127.47-6.79,187.82-35.66A18,18,0,0,1,1745.75,326c-1.91,20.51-4.59,38.05-8,52.16a149.9,149.9,0,0,1-6.2,19.73c-.44,1.14-.93,2.27-1.4,3.37s-1,2.29-1.52,3.36a18,18,0,0,1-11.79,9.28A203.66,203.66,0,0,1,1668.79,419.46Zm43.86-23h0Zm-107-21.6c35.56,8.95,66.38,10.92,93.85,6,1.2-3.46,2.29-7.16,3.23-11.06q1.83-7.65,3.37-17C1673.91,364,1638.88,370.84,1605.7,374.82Z"/><path class="cls-4" d="M1532.62,379.78a18.05,18.05,0,0,1-10.18-3.15,203.92,203.92,0,0,1-24.66-19.94,18,18,0,0,1-5.58-14.46q.16-2.24.42-4.56l.17-1.29c.13-1.1.28-2.22.46-3.32.38-2.55.88-5.5,1.52-8.49l1-4.21q3.35-13.87,8.82-29.52c.12-.39.27-.81.42-1.23.91-2.59,1.87-5.25,2.87-7.95l.46-1.27c.07-.2.15-.39.22-.59l.14-.37c1.22-3.25,2.51-6.55,3.83-9.9l.26-.64,2.14-5.31c2.29-5.52,4.68-11.14,7.16-16.82q1-2.25,2-4.59a17.92,17.92,0,0,1,17.33-10.73H1543l.59,0c.35,0,.64,0,1,0s.78,0,1.16,0c1.16,0,2.36,0,3.57,0h7.43q3.07,0,6.38-.08c4.75,0,9.47-.17,14.28-.34a3.91,3.91,0,0,1,.69,0l.7,0c.89,0,2.23-.08,3.59-.13l8.71-.43.59,0,4.79-.24c.85-.05,1.35-.09,1.84-.13,2.22-.13,4-.25,5.9-.4l.56,0c1.42-.08,2.84-.18,4.25-.29,2.66-.21,5.44-.44,8.22-.69,2.28-.19,4.35-.39,6.44-.61l1.2-.12c.92-.08,1.86-.17,2.78-.28,4.71-.47,9.14-1,13.54-1.56,4-.5,7.89-1,11.79-1.62l4.3-.65c1.41-.2,2.61-.4,3.77-.6l.66-.11c1-.14,2.07-.31,3.11-.51l.51-.09c1.15-.19,2.31-.38,3.47-.6,2.34-.43,4.57-.83,6.8-1.27,1.43-.25,2.56-.46,3.68-.72l1.93-.41c2.87-.57,5.35-1.11,7.87-1.68,3.13-.68,6.14-1.37,9.11-2.14l.69-.17c1.32-.29,2.62-.64,3.92-1l.67-.17.76-.19c.47-.15.94-.27,1.41-.38l1.72-.44.71-.21c.68-.18,1.35-.35,2-.58.45-.15.9-.28,1.36-.39.31-.08.61-.16.91-.26a17.21,17.21,0,0,1,2.16-.6l.7-.22c1.5-.45,3-.9,4.46-1.36l.68-.2.66-.2c1.24-.39,2.8-.89,4.35-1.42a18,18,0,0,1,23.82,16.89c0,4.65.07,9.3,0,13.89,0,3.69,0,7.49,0,11.28,0,2.67,0,5.55-.11,8.4,0,.54,0,1.28,0,2.05,0,1.53,0,3.06-.08,4.59l0,1.3c-.12,6.39-.3,12.76-.56,19-.14,3.66-.31,7.32-.5,10.9-.07,1.66-.18,3.36-.27,5l-.07,1.12c-.1,1.57-.19,3.1-.25,4.62,0,.31,0,.62-.06.92-.19,2.14-.34,4.24-.48,6.32l-.11,1.45c-.14,1.69-.27,3.37-.43,5.06l0,.38c-.14,1.67-.27,3.34-.43,5a18,18,0,0,1-10.16,14.5c-63.12,30.2-145,38-202.6,39.18Zm-3.46-43.29c2.94,2.49,5.94,4.88,9,7.13,43-1.25,116-7.21,172.63-31.33l0-.71c.13-2,.29-4.19.48-6.45.07-1.64.17-3.29.28-4.94l.06-1.12c.09-1.53.18-3.08.26-4.66.18-3.5.34-7,.48-10.55.25-6,.43-12.11.54-18.27l0-1.41c0-1.44.07-2.9.08-4.34,0-.33,0-.65,0-1s0-.7,0-1.05c.07-2.9.11-5.49.11-8.09,0-.22,0-.43,0-.65l-.11,0-1.14.28c-1.7.46-3.35.9-5,1.27-3.32.86-6.69,1.63-10,2.37-2.75.61-5.56,1.23-8.44,1.79l-1.44.32c-1.49.33-3.18.65-4.81.94-2.06.41-4.44.85-6.83,1.28-1.32.25-2.75.49-4.17.72-1.22.23-2.69.48-4.17.69s-3,.5-4.44.71l-4.3.65c-4.07.63-8.32,1.19-12.55,1.72-4.69.6-9.46,1.17-14.16,1.64-.9.11-2.16.22-3.4.34l-.86.08c-2.16.24-4.57.47-7,.66-2.72.25-5.63.49-8.55.72-1.69.13-3.29.25-4.86.33-2.09.17-4.16.31-6.18.43-.58,0-1.49.11-2.35.15l-3.79.21-2,.08-8.83.43-4.39.15c-.4,0-.87.06-1.4,0-4.93.17-9.75.29-14.39.33-2.19.05-4.53.08-6.82.09h-4.54q-2.13,5-4.13,9.8l-2.12,5.26c-1.25,3.18-2.43,6.18-3.54,9.14-.16.46-.33.91-.51,1.36l-.34.92c-1,2.65-1.91,5.25-2.79,7.78l-.13.36c0,.1-.06.19-.1.29-3.29,9.39-5.94,18.19-7.85,26.14l-.85,3.74C1529.66,333.64,1529.4,335.06,1529.16,336.49Zm198.67-12.14h0Zm-189.7-20.75s0,0,0,0S1538.12,303.6,1538.13,303.6Zm-29.93-22.78s0,0,0,0S1508.2,280.83,1508.2,280.82Zm0,0v0Zm0,0h0Zm195-66.24h0Zm0,0h0Zm.44-.16-.44.16Zm2.71-.67-.07,0Zm0,0h0Zm7.13-2.08h0Zm0,0h0Zm0,0h0Zm0,0Z"/><path class="cls-4" d="M1552.81,267.52c-4.48,0-8.68,0-12.55-.1a18,18,0,0,1-16.15-25.33c14.91-33.51,35-72.88,58.18-113.87a18,18,0,0,1,15.45-9.15c31.65-.41,79.14-3,125.63-13.2a18,18,0,0,1,21.81,16.35c2.41,35,3.81,70.45,4,102.63a18,18,0,0,1-12.32,17.22C1672.1,263.62,1597.94,267.52,1552.81,267.52Zm55.82-112.65c-14.94,26.83-28.45,52.75-39.85,76.47,39.54-.82,94.3-5,144.28-19.55-.36-21.4-1.22-44-2.51-66.7C1673,151.72,1636.44,154.15,1608.63,154.87Z"/><path class="cls-4" d="M1598,155.07a18,18,0,0,1-15.67-26.86C1603.11,91.39,1625,55.57,1644,27.36c14.14-21,35.66-31,56.2-26.13S1735.42,24.84,1738.5,50c2.59,21.46,4.9,46.42,6.68,72.2A18,18,0,0,1,1731.07,141c-49.44,10.83-99.55,13.61-132.87,14ZM1689.8,36c-5.11,0-11,4.19-15.89,11.44C1660.25,67.74,1645,92.11,1629.78,118a627.81,627.81,0,0,0,78.31-9c-1.53-19.51-3.35-38.13-5.34-54.58-1.2-9.84-5.38-16.78-10.91-18.11A8.62,8.62,0,0,0,1689.8,36Z"/><path class="cls-4" d="M1041.53,866.74a77.81,77.81,0,0,0,4.47,28.09,91.09,91.09,0,0,0,14,25.25,114.69,114.69,0,0,0,17,17.6c4.8-7.55,9.32-13.94,12.8-18.7a94.6,94.6,0,0,1-15.43-11.72,74,74,0,0,1-14.45-18.41,65.59,65.59,0,0,1-7.33-22.57l0-.14a5.49,5.49,0,0,0-10.93.6Z"/><path class="cls-4" d="M990.71,915.85a97,97,0,0,0,12.09,22.39,123.11,123.11,0,0,0,16.94,19.16,111.53,111.53,0,0,0,21.3,15.46c6.22,3.26,12.94,6.3,21.1,7.62a202.54,202.54,0,0,1,7.81-26.92,17.8,17.8,0,0,0-2,.25c-4.25.83-10.92-.07-17.3-2.27a88.54,88.54,0,0,1-19.08-9.28c-12.24-7.88-23.43-18.31-30.91-31l0-.09a5.5,5.5,0,0,0-9.91,4.69Z"/><path class="cls-4" d="M976.75,972.69a5.42,5.42,0,0,0-.16,6.55l.62.89c.32.43,1.16,1.34,1.81,2.08l2.09,2.29c1.42,1.46,2.84,3,4.32,4.39,2.89,2.92,6,5.75,9.09,8.42a171.6,171.6,0,0,0,20.12,15,134.4,134.4,0,0,0,23.38,11.41,100.59,100.59,0,0,0,26.88,5.46,14.11,14.11,0,0,0,4.87-.51c-3.91-7.78-5.57-17-5.75-27a72.63,72.63,0,0,1-19.89-.55,109.83,109.83,0,0,1-20.66-6,153.79,153.79,0,0,1-20.09-10.06c-3.24-1.92-6.46-4-9.56-6.19-1.62-1-3.12-2.23-4.69-3.34l-2.27-1.72-2.43-2A5.49,5.49,0,0,0,976.75,972.69Z"/><ellipse class="cls-4" cx="1138.92" cy="1008.5" rx="124.8" ry="113.44" transform="translate(-15.08 1999.71) rotate(-82.18)"/><ellipse class="cls-3" cx="1159.64" cy="1040.52" rx="52.81" ry="37.82" transform="translate(-28.9 2047.9) rotate(-82.18)"/><g class="cls-23"><ellipse class="cls-3" cx="1100.29" cy="964.25" rx="40.67" ry="26.29" transform="translate(-284.92 1435.01) rotate(-60)"/></g><path class="cls-4" d="M1789.12,992.94a77.73,77.73,0,0,1-13.77,24.89,90.8,90.8,0,0,1-21.72,19,114.21,114.21,0,0,1-21.94,10.77c-1.93-8.73-4-16.27-5.66-21.94a94.32,94.32,0,0,0,18.5-5.76,74,74,0,0,0,19.86-12.39A65.53,65.53,0,0,0,1779,988.77l.09-.11a5.49,5.49,0,0,1,10.07,4.28Z"/><path class="cls-4" d="M1820.18,1056.42a97.05,97.05,0,0,1-19,16.94,123.86,123.86,0,0,1-22.46,12.25,111.7,111.7,0,0,1-25.29,7.28c-7,.95-14.31,1.51-22.43,0a202.86,202.86,0,0,0,1.82-28c.64.28,1.25.61,1.81.92,3.71,2.24,10.29,3.66,17,3.76a88.68,88.68,0,0,0,21.1-2.23c14.19-3.23,28.26-9.24,39.62-18.62l.06-.08a5.5,5.5,0,0,1,7.72,7.78Z"/><path class="cls-4" d="M1813.94,1114.62a5.41,5.41,0,0,1-2.07,6.21l-.89.63c-.45.29-1.55.87-2.41,1.34l-2.75,1.44c-1.83.89-3.68,1.84-5.55,2.65-3.72,1.77-7.55,3.39-11.41,4.83a172.73,172.73,0,0,1-24,7.22,133.79,133.79,0,0,1-25.87,2.76,99.83,99.83,0,0,1-27.13-4,14.1,14.1,0,0,1-4.41-2.13c6.33-6,11-14.12,14.58-23.38a72.81,72.81,0,0,0,18.89,6.25,108.77,108.77,0,0,0,21.46,1.42,153.76,153.76,0,0,0,22.32-2.61c3.7-.7,7.43-1.55,11.09-2.56,1.89-.44,3.7-1,5.55-1.55l2.72-.85,3-1A5.5,5.5,0,0,1,1813.94,1114.62Z"/><ellipse class="cls-4" cx="1649.27" cy="1093.06" rx="124.8" ry="113.44" transform="translate(234.86 2476.66) rotate(-77.9)"/><ellipse class="cls-3" cx="1618.89" cy="1116.11" rx="52.81" ry="37.82" transform="translate(188.31 2465.17) rotate(-77.9)"/><g class="cls-23"><ellipse class="cls-3" cx="1700.66" cy="1064.61" rx="26.29" ry="40.67" transform="translate(-160.2 314.37) rotate(-10.09)"/></g><path class="cls-8" d="M1794.88,2147.26l-659.73,132.33-158.46-40.75-89.36-23A55.83,55.83,0,0,1,834.8,2157L906.44,2122l47.47-23.17Z"/><path class="cls-24" d="M1442.74,2170.17l-466,68.67-89.36-23A55.83,55.83,0,0,1,834.8,2157L906.44,2122Z"/><path class="cls-4" d="M1135.15,2297.58a17.94,17.94,0,0,1-4.49-.56l-246.24-63.29a73.92,73.92,0,0,1-67.59-77.82,18,18,0,0,1,10.08-15.15L946,2082.66a18.09,18.09,0,0,1,8.93-1.79l841,48.44a18,18,0,0,1,2.51,35.62l-659.74,132.3A17.63,17.63,0,0,1,1135.15,2297.58ZM853.5,2167.86a37.88,37.88,0,0,0,34.85,30,17.46,17.46,0,0,1,3.45.54l243.84,62.67,518.24-103.93-696.29-40.1Z"/><path class="cls-25" d="M1114.12,2110c5.51,33.88,21,77.59,58.39,85.42,23.26,5.34,16.57,39.38-7,35.46a80,80,0,0,1-21-9.71c-36.29-24.12-47.8-69.46-48.36-110.44.18-11.37,16.89-12,18-.73Z"/><path class="cls-8" d="M1175.24,2321.29l-784.35-37.71a84.48,84.48,0,0,1-80.37-87.2h0l841,48.44,83.94,68.6Z"/><path class="cls-9" d="M1235.41,2313.41l-60.16,7.89-784.34-37.74a84.4,84.4,0,0,1-80.37-87.17l1,0a84.36,84.36,0,0,0,70.63,44.94l784.34,37.74,23.21-3.05Z"/><path class="cls-4" d="M1175.24,2339.3l-.86,0L390,2301.56c-55.62-2.67-99.35-50.12-97.49-105.78a18,18,0,0,1,19-17.37l841,48.44a18,18,0,0,1,10.36,4l83.94,68.6a18,18,0,0,1-9.06,31.79l-60.18,7.88A18.27,18.27,0,0,1,1175.24,2339.3ZM330.55,2215.57a66.83,66.83,0,0,0,61.2,50l782.75,37.63,17.25-2.25-47.13-38.52Z"/><path class="cls-8" d="M1771.68,2223.15,1220.41,2316a59.44,59.44,0,0,1-69.27-60.61l.35-10.52,641.34-97.31a25.94,25.94,0,0,1,29.83,26.87h0C1822.69,2198.7,1800,2218,1771.68,2223.15Z"/><path class="cls-9" d="M1822.67,2174.4c0,12.13-5.67,23-14.87,31.59s-22,14.57-36.13,17.15l-551.27,92.8a59.47,59.47,0,0,1-69.28-60.61l.35-10.51,19.85-3a59.47,59.47,0,0,0,60.82,29.71l552.71-83.59c14.22-2.32,27.09-8.21,36.43-16.58.44-.4.87-.79,1.26-1.18A32.71,32.71,0,0,1,1822.67,2174.4Z"/><path class="cls-4" d="M1210.44,2334.79a77.47,77.47,0,0,1-77.3-80.05l.36-10.52a18,18,0,0,1,15.29-17.2l641.34-97.31a43.94,43.94,0,0,1,50.53,45.07c-.19,32-27.17,59.11-65.77,66.09a1.66,1.66,0,0,0-.22,0l-551.27,92.8A77.82,77.82,0,0,1,1210.44,2334.79Zm-41.23-74.45a41.44,41.44,0,0,0,48.21,37.85l551.16-92.78c20.93-3.81,36.09-16.84,36.08-31,0-.29,0-.58,0-.87a7.84,7.84,0,0,0-2.62-6.27,7.76,7.76,0,0,0-6.51-2Z"/><ellipse class="cls-5" cx="1235.41" cy="2272.15" rx="10.84" ry="15.1"/><path class="cls-5" d="M1313.65,2253v9.63a6,6,0,0,0,6.92,5.87l42-6.9a5.94,5.94,0,0,0,5-5.87v-8.63a6,6,0,0,0-6.78-5.9l-42,5.9A6,6,0,0,0,1313.65,2253Z"/><path class="cls-5" d="M1640.39,2203.84h0a9,9,0,0,0,10.26,9.16l25-3.58a9,9,0,0,0,7.71-8.64l0-1a2.77,2.77,0,0,0-3.08-2.83l-37.45,4.25A2.77,2.77,0,0,0,1640.39,2203.84Z"/><path class="cls-3" d="M1822.13,1928s-25.35,306.37-360.08,188q-18.25-6.4-37.74-14.61s-123.08,76.87-193.23,37.74c-19-10.56-36-35.69-43.59-67.85-7.11-29.84-6.15-65.71,8.68-101.53,19.81-47.9,51.57-90.18,97.47-116.36,62.61-35.73,151.48-41.66,272.34,8.55,0,0,32.81-82.2,49.3-133.94l204.54,197.77Z"/><path class="cls-13" d="M1822.13,1928s-25.35,306.37-360.08,188q-18.25-6.4-37.74-14.61s-123.08,76.87-193.23,37.74c-19-10.56-36-35.69-43.59-67.85,15.71,12.39,42.54,24.17,86.69,20.64,76.44-6.11,158.21-62.57,192-60s58.46,57.46,187.83,34.38c103.27-18.45,148.77-98.56,165.79-140.49Z"/><path class="cls-13" d="M1462.05,2116q-18.25-6.4-37.74-14.61s-123.08,76.87-193.23,37.74a27.32,27.32,0,0,1-2.62-1.62,11,11,0,0,1-1.7-1.09c-1-.61-1.88-1.31-2.84-2s-1.88-1.48-2.79-2.31a73.87,73.87,0,0,1-6.24-6.06c-.7-.75-1.4-1.53-2.14-2.36-1.4-1.66-2.83-3.45-4.19-5.32l-1.7-2.36c-.65-.91-1.26-1.83-1.88-2.75-.91-1.44-1.83-2.92-2.7-4.45-.79-1.31-1.57-2.7-2.31-4.1-1-1.79-1.92-3.66-2.8-5.58-.82-1.66-1.57-3.41-2.31-5.15s-1.48-3.58-2.13-5.41c-.62-1.62-1.18-3.23-1.71-4.89-1.35-4-2.53-8.16-3.53-12.39,15.71,12.39,42.54,24.17,86.69,20.64,76.44-6.11,158.21-62.57,192-60C1465.06,2061.77,1461.44,2090.87,1462.05,2116Z"/><path class="cls-14" d="M1462.05,2116q-18.25-6.4-37.74-14.61s-123.08,76.87-193.23,37.74c-36.61-20.38-65.71-94.94-34.91-169.38,19.81-47.9,51.57-90.18,97.47-116.36,51-3.05,101.53,7.72,136.82,47.82C1486,1964.26,1460.48,2052.74,1462.05,2116Z"/><path class="cls-15" d="M1462.05,2116q-18.25-6.4-37.74-14.61s-123.08,76.87-193.23,37.74a27.32,27.32,0,0,1-2.62-1.62,11,11,0,0,1-1.7-1.09c-1-.61-1.88-1.31-2.84-2s-1.88-1.48-2.79-2.31a73.87,73.87,0,0,1-6.24-6.06c-.7-.75-1.4-1.53-2.14-2.36-1.4-1.66-2.83-3.45-4.19-5.32l-1.7-2.36c-.65-.91-1.26-1.83-1.88-2.75-.91-1.44-1.83-2.92-2.7-4.45-.79-1.31-1.57-2.7-2.31-4.1-1-1.79-1.92-3.66-2.8-5.58-.82-1.66-1.57-3.41-2.31-5.15s-1.48-3.58-2.13-5.41c-.62-1.62-1.18-3.23-1.71-4.89-1.35-4-2.53-8.16-3.53-12.39,15.71,12.39,42.54,24.17,86.69,20.64,76.44-6.11,158.21-62.57,192-60C1465.06,2061.77,1461.44,2090.87,1462.05,2116Z"/><path class="cls-4" d="M1831.12,1928.75c3.46,93.7-56.17,189.14-145.83,220.69-33.5,12.18-69.58,15-104.61,12.92-9.57-.28-24.74-2.69-34.36-3.89-44-7.32-88.09-22.62-129-40.46l16.51-1.33c-8.24,5-15.85,9.14-23.92,13.32-41.06,20.53-84.21,37.61-131.27,38.19-93,2.81-126.49-97.35-108.79-175,14.09-54,45-103.31,89.34-138.32,74.56-58.88,177.75-55.83,263.54-27.73,17.11,5.18,33.67,11.64,50.14,18.24l-23.63,10c14.42-45.23,36.33-87.56,57.42-130,4.49-9,18.75-4.75,17.16,5.45-5.67,36-15.32,70.63-27.18,104.8a302.87,302.87,0,0,1-14,33.12,18.21,18.21,0,0,1-23.64,9.95c-30.85-12.58-62.44-23.23-95.16-29.3-62.87-12.57-131.5-6.15-182.66,34-46.37,36.63-85.13,102.86-79.42,163.69,2.16,27.32,14.24,60.82,36.71,75.53,40.21,21.85,92.47,2.83,132.54-13.85a397.12,397.12,0,0,0,43.68-22.52,16.94,16.94,0,0,1,15.12-1.85c18.11,6.64,43.24,15.85,61.54,21.14,99.7,29.21,208.29,30.63,272.18-65,22.17-33.78,37.39-73.47,49.76-113.74,2.79-9.48,17.16-7.9,17.76,2.06Z"/><path class="cls-8" d="M1151.47,2227.85l-303.06-29.58-496.55-48.48a103.37,103.37,0,0,1-89-61.21L19.09,1539.49a101.49,101.49,0,0,1,100.66-89.35c1.83,0,3.71,0,5.54.13l705.45,37.48a158.36,158.36,0,0,1,140.19,103.4L1091.26,1918l83.38,226.48A74,74,0,0,1,1151.47,2227.85Z"/><g class="cls-26"><path class="cls-3" d="M1177.56,2185.48a73,73,0,0,0-2.92-10.16l-83.38-226.49L970.93,1622a158.37,158.37,0,0,0-140.19-103.41l-705.45-37.48c-1.83-.08-3.71-.13-5.54-.13a101.44,101.44,0,0,0-96,69l-4.63-10.43a101.49,101.49,0,0,1,100.66-89.35c1.83,0,3.71,0,5.54.13l705.45,37.48a158.36,158.36,0,0,1,140.19,103.4L1091.26,1918l83.38,226.48A73.7,73.7,0,0,1,1177.56,2185.48Z"/></g><path class="cls-9" d="M1151.47,2227.85l-303.06-29.58c74.18-110.52,183-284.12,183-284.12s53.14,69.41,59.82,3.88l83.38,226.48A74,74,0,0,1,1151.47,2227.85Z"/><path class="cls-4" d="M1151.49,2245.86a17.08,17.08,0,0,1-1.75-.08l-799.23-78a120.9,120.9,0,0,1-104.08-71.86L2.64,1546.81a18,18,0,0,1-1.42-9.47c7.51-62.25,62.43-108.4,125-105.07l705.45,37.49a176.18,176.18,0,0,1,156.11,115.16l203.72,553.36a92,92,0,0,1-28.79,103.62A18,18,0,0,1,1151.49,2245.86ZM37.67,1537l241.67,544.31a85,85,0,0,0,73.49,50.55c.26,0,.53,0,.79.06l791.72,77.28a56,56,0,0,0,12.41-58.45L954,1597.36a140.2,140.2,0,0,0-124.24-91.64l-705.44-37.49A83.86,83.86,0,0,0,37.67,1537Z"/><path class="cls-8" d="M1151.73,2240.81l-841.19-44.73a103.36,103.36,0,0,1-89-61.21L205.7,2091,22.85,1584.83c-16-44.29,18.36-90.54,65.35-88l697.74,37.09a163.51,163.51,0,0,1,144.85,106.85l104.4,283.55Z"/><path class="cls-9" d="M1151.73,2240.81l-841.19-44.73a103.36,103.36,0,0,1-89-61.21L205.7,2091c54.27,25.35,180.76,66.28,412.43,50.57,287.35-19.46,390.19-167.5,417.06-217.32Z"/><path class="cls-4" d="M786.42,1524.87c55.46-1.26,111.78,29,142.56,75.92,10.29,15,17.9,33.43,24,49.83,12.63,32.2,24.7,64.61,36.92,97,25.58,66.24,82.14,223.71,107.3,292.18l71.43,194.82c4.59,11.76-5.24,25.14-17.85,24.2l-841.18-44.71A121.39,121.39,0,0,1,205.1,2142.2c-.68-.52-79-218.71-79.55-219.52C97.79,1846,30,1662.62,3.87,1587.74c-18-57.16,29.44-115,89.17-108.81,70,4.6,140.17,10.15,209.64,20.23,10.83,1.78,9.76,17.46-.95,18-58.22,2.22-116.23,1.22-174.35-.73-7.71-.12-34.71-1.52-42.61-1.47-30.72-.86-55,32.45-44.58,61.41,26.12,72.86,92.87,258.76,119.57,334,.39-2,79.91,223.77,78.24,217.24a85.39,85.39,0,0,0,73.5,50.56l841.17,44.71-17.85,24.2-71.94-194.63c-25.69-69.62-84.08-224.56-107.78-292-11.67-32.55-23.5-65.05-34.77-97.76-5.9-17.08-10.5-30.87-18.71-44.45-24.49-41.37-67.75-69-116.15-75.33-11.13-1.47-9.94-17.77.95-18Z"/><path class="cls-4" d="M1574.71,1846.2c20.66,15.42,38.71,32.84,53.89,53.59,6.14,8.57-5.1,18.94-13.13,12.27-17.2-14.24-37.66-26-58.2-34.35-25.06-11.21-5.4-46.79,17.44-31.51Z"/><path class="cls-4" d="M2387.74,2302.57c10.11-25.41,20.66-49.72,34-73.86,12.32-20.54,42.71-3.61,31.65,17.69-8.54,11-18.32,21.2-26.8,32.89-7.89,10.33-15.64,21-23,31.72-6.08,8.76-19.75,1.41-15.89-8.44Z"/><path class="cls-10" d="M684.08,1943.85q2.4,10.25,4.42,20.22l-72.21.93c-1.65-8.44-3.34-15.67-4.4-20.21-6.5-27.92-22.36-54-44.65-73.55s-48.33-30.08-73.35-29.75-46,11.5-59.08,31.47-16.7,46.34-10.2,74.25c1.06,4.54,2.75,11.78,5,20.21l-72.21.94q-2.62-9.94-5-20.21a218.52,218.52,0,0,1-3.95-21.81c-11.77-92.07,41.65-164.32,126.63-165.42s171.67,69.33,202.76,161.16Q681.5,1932.79,684.08,1943.85Z"/><g class="cls-12"><path class="cls-3" d="M626.43,1842.65S562.3,1777,479.11,1778.09s-116.41,68-116.41,68c18-47.06,59.17-78.27,113.85-79S586.66,1796.34,626.43,1842.65Z"/></g><path class="cls-27" d="M660,1944.17c1.55,6.63,3.05,13.4,4.42,20.21l-48.15.62c-1.65-8.44-3.34-15.67-4.4-20.21-6.5-27.92-22.36-54-44.65-73.55s-48.33-30.08-73.35-29.75-46,11.5-59.08,31.47-16.7,46.34-10.2,74.25c1.06,4.54,2.75,11.78,5,20.21l-48.15.63c-1.8-6.81-3.46-13.57-5-20.21a184.24,184.24,0,0,1-3.66-21c-4-34.37,2.6-66.28,19.1-91.46,19.81-30.24,51.58-47.16,89.44-47.65s77.31,15.51,111,45a216.31,216.31,0,0,1,61.49,90.42A200.84,200.84,0,0,1,660,1944.17Z"/><path class="cls-3" d="M381.49,1970.29a2.25,2.25,0,0,1,0-4.5l45.26-.58c-1.89-7.17-3.3-13.21-4.27-17.37-6.68-28.64-2.95-55.63,10.48-76.12s35.15-32.15,60.93-32.48c25.47-.32,52.16,10.43,74.86,30.31s38.75,46.35,45.37,74.73c1.07,4.61,2.54,11,4,18.45l46.28-.6h0a2.25,2.25,0,0,1,0,4.5l-48.15.63c-.94.22-2-.76-2.24-1.82-1.61-8.21-3.23-15.19-4.3-19.8a139.49,139.49,0,0,0-44-72.7c-21.87-19.15-47.45-29.53-71.84-29.2s-44.56,11.13-57.22,30.46-16.26,45.19-9.89,72.5c1.11,4.78,2.75,11.81,5,20.14a2.25,2.25,0,0,1-2.14,2.83l-48.15.62Z"/><path class="cls-6" d="M636,1944.48c1.51,6.5,3,13.31,4.39,20.21l-24.06.31c-1.65-8.44-3.34-15.67-4.4-20.21-6.5-27.92-22.36-54-44.65-73.55s-48.33-30.08-73.35-29.75-46,11.5-59.08,31.47-16.7,46.34-10.2,74.25c1.06,4.54,2.75,11.78,5,20.21l-24.07.31c-1.84-6.9-3.51-13.7-5-20.2a144.77,144.77,0,0,1-3.91-37.45c.65-20.83,6.3-40,16.73-55.89,16.45-25.1,42.82-39.15,74.26-39.56s64.18,12.88,92.2,37.4a181.07,181.07,0,0,1,42.6,55.11A170.76,170.76,0,0,1,636,1944.48Z"/><path class="cls-3" d="M357.43,1970.61a2.26,2.26,0,0,1-2.18-1.68q-2.62-10-5-20.27c-12.61-54.13-3.6-105.94,24.75-142.14,23.76-30.33,59.31-47.32,100.1-47.85l2,0c91.81,0,185.37,82.41,209.21,184.7h0q2.4,10.28,4.44,20.27a2.26,2.26,0,0,1-2.18,2.7l-72.21.94c-.94.22-2-.76-2.24-1.82-1.67-8.53-3.36-15.8-4.38-20.14-6.4-27.46-22-53.16-43.94-72.36s-47.42-29.57-71.84-29.2c-24.24.31-44.57,11.13-57.23,30.46s-16.25,45.2-9.88,72.51c1,4.36,2.7,11.64,5,20.13a2.25,2.25,0,0,1-2.14,2.83l-72.21.94Zm119.64-207.45h-1.93c-39.4.51-73.72,16.89-96.62,46.13-27.5,35.12-36.21,85.54-23.9,138.34q2.17,9.34,4.54,18.44l67.56-.87c-2-7.35-3.39-13.58-4.3-17.48-6.65-28.52-2.92-55.52,10.5-76s35.16-32.15,60.94-32.48c25.47-.32,52.16,10.43,74.86,30.31s38.75,46.36,45.37,74.73c.94,4.06,2.48,10.65,4,18.45l67.62-.88c-1.19-5.75-2.48-11.59-3.86-17.48h0C658.5,1844,566.9,1763.16,477.07,1763.16Z"/><path class="cls-3" d="M381.49,1970.3a2.25,2.25,0,0,1,0-4.5l45.26-.59c-2-7.35-3.39-13.58-4.3-17.48-6.65-28.52-2.92-55.52,10.5-76s35.16-32.15,60.94-32.48c25.47-.32,52.16,10.43,74.86,30.31s38.75,46.36,45.37,74.73c.94,4.06,2.48,10.65,4,18.45l46.28-.6h0a2.25,2.25,0,0,1,0,4.5l-48.15.63c-.94.22-2-.76-2.24-1.82-1.67-8.53-3.36-15.8-4.38-20.14-6.4-27.46-22-53.16-43.94-72.36s-47.42-29.57-71.84-29.2c-24.24.31-44.57,11.13-57.23,30.46s-16.25,45.2-9.88,72.51c1,4.36,2.7,11.64,5,20.13a2.25,2.25,0,0,1-2.14,2.83l-48.15.63Z"/><path class="cls-3" d="M405.57,1970a2.26,2.26,0,0,1,0-4.51l21.18-.27c-2-7.35-3.39-13.58-4.3-17.48-6.65-28.52-2.92-55.52,10.5-76s35.16-32.15,60.94-32.48c25.47-.32,52.16,10.43,74.86,30.31s38.75,46.36,45.37,74.73c.94,4.06,2.48,10.65,4,18.45l22.2-.29h0a2.25,2.25,0,0,1,0,4.5l-24.06.32c-.94.22-2-.76-2.24-1.82-1.67-8.53-3.36-15.8-4.38-20.14-6.4-27.46-22-53.16-43.94-72.36s-47.42-29.57-71.84-29.2c-24.24.31-44.57,11.13-57.23,30.46s-16.25,45.2-9.88,72.51c1,4.36,2.7,11.64,5,20.13a2.25,2.25,0,0,1-2.14,2.83l-24.07.32Z"/><g class="cls-26"><path class="cls-3" d="M156.92,1559.52c94.92-14.7,495.24-5.51,584.85,20.11S77.43,1571.83,156.92,1559.52Z"/></g></svg>