<svg id="Layer_1" data-name="Layer 1" xmlns="http://www.w3.org/2000/svg" xmlns:xlink="http://www.w3.org/1999/xlink" viewBox="0 0 2439.67 3301.52"><defs><style>.cls-1{opacity:0.2;}.cls-2{fill:#591124;}.cls-3{fill:#80d3e0;}.cls-4{fill:#604747;}.cls-5{fill:#42477f;}.cls-6{fill:none;}.cls-7{opacity:0.25;}.cls-8{opacity:0.4;}.cls-9{fill:#fff;}.cls-10{fill:#668746;}.cls-11{fill:#5f566d;}.cls-12{fill:#ff8928;}.cls-13{fill:#ffd243;}.cls-14{fill:#ff9d33;}.cls-15,.cls-16,.cls-17,.cls-18{opacity:0.55;}.cls-15{fill:url(#linear-gradient);}.cls-16{fill:url(#linear-gradient-2);}.cls-17{fill:url(#linear-gradient-3);}.cls-18{fill:url(#linear-gradient-4);}</style><linearGradient id="linear-gradient" x1="1048.17" y1="669.43" x2="828.84" y2="981.43" gradientUnits="userSpaceOnUse"><stop offset="0" stop-color="#fff"/><stop offset="1" stop-color="#591124"/></linearGradient><linearGradient id="linear-gradient-2" x1="941.68" y1="700.37" x2="765.09" y2="881.15" xlink:href="#linear-gradient"/><linearGradient id="linear-gradient-3" x1="1644.43" y1="763.36" x2="1531.46" y2="1056.16" xlink:href="#linear-gradient"/><linearGradient id="linear-gradient-4" x1="1541.7" y1="743.8" x2="1389.47" y2="960.72" xlink:href="#linear-gradient"/></defs><g class="cls-1"><ellipse class="cls-2" cx="1204.87" cy="3161.42" rx="885" ry="140.1"/></g><path class="cls-3" d="M138.85,961.32a41.1,41.1,0,0,0-15,2.75c-48.69,19-51.6,132.9-6.36,248.67S242,1410.26,290.69,1391.23s51.6-132.9,6.36-248.66C256.23,1038.09,187.63,961.32,138.85,961.32Z"/><path class="cls-4" d="M328.13,1489.66l189.25,478.69c59.93-21.63,70.91-39.22,72.79-43.64L393.05,1465.06Z"/><path class="cls-5" d="M421.26,1184.28c-47.15-208.62-168.74-324.42-220.7-328-71.33-4.93-159.88,34.44-175.75,161.38-11,88.46,26.15,269.6,124.75,379.61,49.05,54.72,105.26,82.45,167.12,82.45h2l74.18-28.11C400.56,1443.32,462.93,1368.69,421.26,1184.28ZM295.29,1403a54,54,0,0,1-19.79,3.65c-55.18,0-125.91-76.93-169.82-189.3C56.31,1091,62.25,974.57,119.2,952.31S259.44,1011.62,308.81,1138,352.24,1380.74,295.29,1403Z"/><path class="cls-6" d="M322.61,1433.15c92.24-36.67,61.09-193.66,35.43-284.68,0,0,22.92-52.46,23.82-85.85-23.49-54.32-51.52-98.44-79.22-131.76C297,953,277.82,994.94,277.82,994.94S168.68,851.6,90.49,931.42s-32.58,288.15-32.58,288.15a19.25,19.25,0,0,1-7-4.38c13.21,41.67,31.27,83.72,54.51,122C108.56,1340.47,231.57,1469.34,322.61,1433.15ZM119.2,952.31c57-22.25,140.24,59.31,189.61,185.66s43.43,242.77-13.52,265a54,54,0,0,1-19.79,3.65c-55.18,0-125.91-76.93-169.82-189.3C56.31,1091,62.25,974.57,119.2,952.31Z"/><path class="cls-6" d="M290.69,1391.23c48.69-19,51.6-132.9,6.36-248.66q-5-12.79-10.55-25c-.2,1.69-27.32,230-36.32,270.37C264.89,1394.47,278.72,1395.91,290.69,1391.23Z"/><path class="cls-6" d="M170.1,1312.46,194,1343l.28.32,33.94-321.91c-13.27-16.24-26.86-29.72-40.17-39.75l-36.75,301.42C157.38,1293.48,163.67,1303.26,170.1,1312.46Z"/><path class="cls-6" d="M126.31,1234l43.8-263.84c-11-5.75-21.51-8.87-31.26-8.87a41.1,41.1,0,0,0-15,2.75c-48.69,19-51.6,132.9-6.36,248.67Q121.69,1223.59,126.31,1234Z"/><path class="cls-6" d="M284.76,1113.72c.44,1,.81,1.79,1.1,2.42C285.49,1115.34,285.13,1114.52,284.76,1113.72Z"/><path class="cls-6" d="M380.44,1507.24c-.3-1.81-27.16,6.43-41.08,10.83l145.17,367.19c10.67-2.74,30-8.94,37.22-16.6C531.53,1858.28,380.85,1509.69,380.44,1507.24Z"/><g class="cls-7"><path class="cls-2" d="M380.44,1507.24c.41,2.45,151.09,351,141.31,361.42-7.2,7.66-26.55,13.86-37.22,16.6l32.85,83.09c59.93-21.63,70.91-39.22,72.79-43.64L393.05,1465.06l-64.92,24.6,11.23,28.41C353.28,1513.67,380.14,1505.43,380.44,1507.24Z"/></g><g class="cls-7"><path class="cls-2" d="M322.61,1433.15c-91,36.19-214-92.68-217.22-96a406.76,406.76,0,0,0,44.17,60.14c49.05,54.72,105.26,82.45,167.12,82.45h2l74.18-28.11c7.66-8.29,70-82.92,28.36-267.33a689.41,689.41,0,0,0-39.4-121.66C381,1096,358,1148.47,358,1148.47,383.7,1239.49,414.85,1396.48,322.61,1433.15Z"/></g><g class="cls-8"><path class="cls-9" d="M57.91,1219.57S12.3,1011.23,90.49,931.42s187.33,63.52,187.33,63.52,19.2-42,24.82-64.08c-39.41-47.4-78.14-72.92-102.08-74.57-71.33-4.93-159.88,34.44-175.75,161.38-5.94,47.55,2.09,121.87,26.07,197.52A19.25,19.25,0,0,0,57.91,1219.57Z"/></g><g class="cls-8"><path class="cls-9" d="M250.18,1388c9-40.38,36.12-268.68,36.32-270.37l-.64-1.44c-.29-.63-.66-1.43-1.1-2.42-16.53-35.79-36.13-67.31-56.51-92.28l-33.94,321.91C213.1,1364.56,232.29,1380,250.18,1388Z"/></g><g class="cls-8"><path class="cls-9" d="M194,1343l-23.93-30.57A345.31,345.31,0,0,0,194,1343Z"/></g><g class="cls-8"><path class="cls-9" d="M151.33,1283.11l36.75-301.42a130.15,130.15,0,0,0-18-11.5L126.31,1234A494.85,494.85,0,0,0,151.33,1283.11Z"/></g><path class="cls-2" d="M513.75,1992.85a16.53,16.53,0,0,1-15.37-10.45L304.54,1492.09a16.53,16.53,0,0,1,9.51-21.52l76.56-29a16.53,16.53,0,0,1,21,8.94L612,1917.69a16.55,16.55,0,0,1,1.33,6.76c-.19,13.06-12.68,39.19-94.17,67.49A16.53,16.53,0,0,1,513.75,1992.85ZM341.43,1495.53l181.76,459.75c37.47-14.51,50.94-26.27,55.47-31.52L387.52,1478.07Z"/><path class="cls-2" d="M316.63,1502.57c-68.6,0-130.51-30.29-184.08-90.06C38,1307-11.2,1121.72,2.16,1014.84,20,872.08,121,827.9,202.13,833.51c69.25,4.76,194.59,138.59,241.4,345.73,47.14,208.63-32.32,286.57-35.72,289.79A16.52,16.52,0,0,1,385,1445.1c1.3-1.3,68.64-71.12,26.28-258.57-45.37-200.8-163.48-316.76-211.44-320-24.15-1.68-145.59-2.12-164.92,152.45-10.81,86.53,25.64,263.78,122.22,371.53,47.81,53.35,102.41,79.92,162.5,79a16.52,16.52,0,0,1,.49,33C319,1502.56,317.8,1502.57,316.63,1502.57Z"/><path class="cls-2" d="M275.9,1411.27c-57.31,0-130-78-174.6-192.22C51,1090.23,58.09,971.15,117.49,947.94s145.37,59.51,195.7,188.32h0c23.44,60,35.29,120.58,33.35,170.57-2.06,53.15-19.65,88.86-49.54,100.54A57.52,57.52,0,0,1,275.9,1411.27ZM138.7,966.08a36,36,0,0,0-13.19,2.37c-41.26,16.12-52.58,117.44-3.69,242.58S247.76,1403,289,1386.85c20.92-8.17,33.88-37.65,35.55-80.88,1.82-47-9.49-104.45-31.86-161.69C248.6,1031.49,181.68,966.08,138.7,966.08Z"/><path class="cls-10" d="M877.34,600.31c142.17-54.25,325.6-55.26,407.76-52.4-136.84-46.72-350-96.74-522-96.74-73.78,0-139.94,9.2-189.29,31.81-42.3,19.39-69.94,47.68-82.15,84.1C475.2,616.21,478.8,658.57,502.35,693c55.06,80.49,203.15,97.08,236.94,99.84C738.86,762.84,746.33,650.3,877.34,600.31Z"/><path class="cls-11" d="M2111.12,693.55c-4.74-21.66-13.73-74.34-32.47-204.86-284.1-132.54-593.83-146.43-804-134.66-211.85,11.86-367.32,51.37-390.31,57.47-4.16,10.54-8.26,21.17-12.27,32,163.65,15.78,340.17,62.91,451.73,104.79C1696.53,530,2013,651.13,2111.12,693.55Z"/><path class="cls-10" d="M2074.2,472.83c-27-88.26-79.48-216.53-170.47-291.38-155.11-127.58-331.3-157.56-370-158.6l-1,0c-21.8,0-56.9,18.58-90.86,36.57-33.31,17.64-64.81,34.32-85.39,34.32h-1.14c-16.95-.53-45.61-11-78.8-23.18C1231.45,54,1175.26,33.47,1139.79,36.27,1086.14,40.48,975.28,186.8,890.11,397c42.16-10.61,189.6-44.67,383.83-55.54C1483.15,329.72,1790.43,343.37,2074.2,472.83Z"/><path class="cls-10" d="M2104.25,573.83a2.38,2.38,0,0,1-.26-.05c9.27,61.1,18.65,119.21,21.56,127a6.36,6.36,0,0,1,.27,6.77c-1.32,2.26-2.86,3.12-4.75,3.12-2.24,0-5-1.21-8.5-2.75-87-38.24-393.29-159.32-759.43-148.17,56.48,23.14,121.28,52.78,189.88,84.17,205.17,93.88,437.72,200.28,612,212.92,104.82,7.6,206.77-47.6,244.76-105.37,13.29-20.2,25.7-50.87,9.35-82.28C2392.07,636.47,2329.8,580.53,2104.25,573.83Z"/><path class="cls-12" d="M966.13,1138.36c10.17-12.23,42.37-49.79,81.92-84.47-36.82-1.52-100.08-1.46-116.38,10.46s-24.87,46.66-28,66C936.62,1128.09,957.28,1134.59,966.13,1138.36Z"/><path class="cls-12" d="M1334.26,1093.06a6.31,6.31,0,0,1-4.82-2.36c-.71-.88-71.72-88.2-151.7-91.31-.81,0-1.61,0-2.43,0-32.31,0-71.44,24.46-106.66,53.68-.12.11-.25.2-.38.3-43,35.78-80.16,78.54-91.74,92.31,11.1,10.52,22.67,20.8,34.45,30.71,13.38,11.17,27,22.07,41.2,32.22s28.62,20,43.87,28.5,31,16.21,47.72,21.53c-17-4.31-33.35-11.09-49.19-18.74s-31-16.73-45.94-26.06-29.34-19.55-43.53-30c-13.9-10.34-27.47-21-40.78-32.31-2.43-1.33-28.18-14.39-78.57-6.36-47.33,7.54-48.47,83.92-48.44,92.92,1.83,5.5,13.43,37.77,35.51,44.33,2.53-7,10-13.55,16.51-18.16,16-11.36,40.33-21.11,56.14-15.64,4.52,1.56,11.08,6.13,21,13,41.5,28.86,136.36,94.73,269.31,69.67,3-.83,5.91-1.62,8.84-2.51,18.66-5.67,37.47-11.22,55.12-19.84,9-3.94,17.25-9.31,25.77-14.24,8-5.74,16.36-11,23.62-17.71,15.62-12.22,28.53-27.45,40.88-43.15l0,0a.63.63,0,0,1,1,.73c-11,16.71-22.81,33.31-37.71,47.14-7,7.37-15.3,13.31-23.18,19.77-8.43,5.65-16.68,11.75-25.76,16.44-14.17,7.93-29,15.25-44.64,20a6.23,6.23,0,0,1-2.93,1.81c-148,36.3-252.82-36.59-297.58-67.72-8.08-5.61-15.06-10.46-17.93-11.46-9-3.13-26.81,2.1-42.37,12.39-9.77,6.48-13.73,11.87-14.33,13.84a.64.64,0,0,0,.08.14c2.2,2.94,12.87,8.58,22.34,13.59,23.67,12.51,59.44,31.42,92.25,66.21C1046.81,1417,1111.85,1486,1255,1438.31c77-25.66,96.75-55.82,114.18-82.43,14.72-22.47,28.62-43.69,70.62-58.44,33.56-11.79,54.12-29.84,61.1-53.63,8-27.24-2.56-62.29-29-96.17C1431.07,1095.24,1335.22,1093.07,1334.26,1093.06Z"/><path class="cls-13" d="M1537.77,655.44c-69-31.58-134.2-61.4-190.73-84.52q-9.91-4-20.86-8.22c-17.28-1.34-264.68-19.14-444.34,49.41C740,666.22,752,797,752.18,798.94c.73,5.86,15.78,129.1-.1,204.8l-1.81,8.59c-16.12,76.08-43.11,203.42,43.5,322.37,47.46,65.18,105.15,116.7,202.86,152.22a779.81,779.81,0,0,0,91.8,25.95q15.43,3.33,31.92,6.31l.31,0c81.61,14.7,183,22.83,311.48,23.82q11.94.09,23.86.1c138-2.3,246.56-15.84,262.64-18,113.83-19.69,214.6-59.45,285.49-137.07,97.71-107,133.82-278.11,110.41-523C1943.59,841.08,1728.88,742.88,1537.77,655.44ZM1513,1247.36c-8.19,27.92-31.41,48.77-69,62-38,13.34-50.13,31.92-64.24,53.44-18.56,28.33-39.6,60.45-120.74,87.49-35.08,11.7-65.83,16.59-93,16.59-89.56,0-139.79-53.28-175.87-91.54-31.37-33.28-66-51.6-89-63.72-12.09-6.39-20.68-10.94-25.31-15.77-35.29-4.28-50.25-52.85-50.89-55a6.18,6.18,0,0,1-.26-1.65c-.11-4-1.89-96.86,59.07-106.58,2.36-.38,4.64-.69,6.9-1,2.23-15.15,10.68-60.78,33.53-77.49,24.78-18.15,118.3-13.42,137.92-12.2,36.74-30.09,78-55.25,113.28-55.25q1.41,0,2.82.06c79.24,3.07,147,79.2,159.18,93.75,17.39.74,103.67,7,144.46,59.35C1510.8,1177,1522.15,1216.17,1513,1247.36Z"/><path class="cls-6" d="M588.31,546.75c95.5-91.48,579.9,1.68,579.9,1.68l-.45,0c47.43-2.06,88.59-1.54,117.34-.54-85.76-29.28-201.51-59.85-318.3-78.6-98.22-6.89-340.74-15.44-408.42,60.95-85.52,96.52-16.61,201.61-16.61,201.61h0c18.08,12.76,38.75,22.9,59.85,31C601.62,762.83,492.81,638.23,588.31,546.75Z"/><path class="cls-6" d="M1537.57,52c-31.77,4.27-126.45,64.13-170.43,75.13-29.19,7.3-104.1-21.18-163.52-37.59,1.16,22-16.29,46.18-44.28,58.32-29.39,12.76-60.58,8-75.09-10-44.07,67.81-102.68,179.08-137,246.06l.25-.05c23.69-4.95,52.87-10.55,86.64-16.1h0c4.11-2.24,47.56-9.63,117.36-16.49v-7s378.73-32.12,499.68-85.88,75.74-127,75.74-127,113,30.1,192.42,116.45c70.88,77.07,113,187.46,121.26,210.32,11.22,4.73,22.43,9.58,33.59,14.68-27-88.26-79.48-216.53-170.47-291.38-67-55.15-138-92-200.14-116.25C1702.23,65,1569.17,47.71,1537.57,52ZM1235.71,176.72c-9.41,2-18.22-2.07-19.66-9s5-14.15,14.43-16.11,18.21,2.08,19.66,9S1245.12,174.76,1235.71,176.72Z"/><path class="cls-6" d="M925,1130.08l-.05,0c20.75.94,34.45,5.38,41.21,8.26a821.42,821.42,0,0,1,66.12-70.12c-15.59.27-64.25,3.73-77.84,9.75C938.32,1085.12,925,1130.08,925,1130.08Z"/><path class="cls-6" d="M996.35,622c-193,33.72-237.82,138.06-237.82,138.06a46,46,0,0,1-2.46-8.38c-5.74,26.91-4,46.51-3.89,47.25.63,5.13,12.24,100.13,4.49,174.51,0,0,10.15,198.48,70.72,274.18-1.47-3.73-2.28-6.32-2.42-6.76a6.18,6.18,0,0,1-.26-1.65c-.11-4-1.89-96.86,59.07-106.58,2.36-.38,4.64-.69,6.9-1,2.23-15.15,10.68-60.78,33.53-77.49,24.78-18.15,118.3-13.42,137.92-12.2,36.74-30.09,78-55.25,113.28-55.25q1.41,0,2.82.06c79.24,3.07,147,79.2,159.18,93.75,17.39.74,103.67,7,144.46,59.35,28.93,37.12,40.28,76.29,31.12,107.48-8.19,27.92-31.41,48.77-69,62-38,13.34-50.13,31.92-64.24,53.44-15.89,24.25-33.72,51.27-89.39,75.51,87.62-2.09,336.69,37,545.74-24.14,188.44-55.12,257-220.64,277.67-288.67,10-75.27,10.22-161.82.8-260.34-171-24.07-385.66-122.27-576.77-209.71-38.31-17.53-75.36-34.46-110.48-50.06C1426.24,605.3,1189,588.37,996.35,622Z"/><path class="cls-6" d="M1281.62,389.77C1032.4,408.7,920.47,444,920.46,444l2.39,5.35c84,11.08,169.21,29.26,245.54,49.78l-.18-.06s317.64-73.66,871.48,82.72L2060.85,673l-.29-.1c20.44,7.93,37.49,15,50.56,20.65-4.74-21.66-13.73-74.34-32.47-204.86-89.77-41.88-182.1-71.89-273-93C1798.82,395.07,1527.71,371.07,1281.62,389.77Z"/><path class="cls-6" d="M910.84,1207.69c46.42-8.55,81.85,60.27,212.16,73.71s236.2-50.9,290-81.85,74.94,25.66,63.53,48.46-76.56,36.24-103.84,55.38-34.62,90-132.35,114S1089.2,1417,1053,1385.25c-35.5-31.11-94.55-100.83-148.89-115.48-1.71,1-3.41,2-5.09,3.11-9.77,6.48-13.73,11.87-14.33,13.84a.64.64,0,0,0,.08.14c2.2,2.94,12.87,8.58,22.34,13.59,12,6.35,27.16,14.37,43.44,25.26,1,.32,1.43.59,1.35.9v0a281.31,281.31,0,0,1,47.45,40C1046.81,1417,1111.85,1486,1255,1438.31c77-25.66,96.75-55.82,114.18-82.43,14.72-22.47,28.62-43.69,70.62-58.44,33.56-11.79,54.12-29.84,61.1-53.63,8-27.24-2.56-62.29-29-96.17a97.16,97.16,0,0,0-14.14-14.53c-27.54-4.9-94.39-16.72-100.2-17-7.33-.41-48.46,24-48.46,24v-31.32c0-13.85-104.66-84.71-145.79-79.82-38.26,4.54-151.35,118.85-166.95,134.79,4.83,4.26,9.69,8.5,14.61,12.64,13.38,11.17,27,22.07,41.2,32.22s28.62,20,43.87,28.5,31,16.21,47.72,21.53a211.45,211.45,0,0,1-22.88-7.34l.36.19c-73.63-10.62-166.43-80.1-166.43-80.1s-34.52-8.86-59.87-4.58-52.12,60.14-52.12,60.14c-2-2.09-3.34-6.34-4-11.74a184.74,184.74,0,0,0-1.54,22.86,112.36,112.36,0,0,0,7.5,17.12C851.06,1244.93,872.42,1214.77,910.84,1207.69Z"/><path class="cls-6" d="M2104.25,573.83a2.38,2.38,0,0,1-.26-.05c9.27,61.1,18.65,119.21,21.56,127a6.36,6.36,0,0,1,.27,6.77c-1.32,2.26-2.86,3.12-4.75,3.12-2.24,0-5-1.21-8.5-2.75-87-38.24-393.29-159.32-759.43-148.17C1385,572.85,1419.59,588,1456,604.36l-.38-.19s558.87,211.36,737.24,164.12,163.7-113.18,163.7-113.18,73.31,131.1-143.34,174.26c-96.18,19.17-222.84-6.78-334-41.56,98.89,36.4,193.8,63.12,275.8,69.07,104.82,7.6,206.77-47.6,244.76-105.37,13.29-20.2,25.7-50.87,9.35-82.28C2392.07,636.47,2329.8,580.53,2104.25,573.83Z"/><g class="cls-7"><path class="cls-2" d="M877.34,600.31c92.43-35.27,202.28-48,290.42-51.86l.45,0s-484.4-93.16-579.9-1.68,13.31,216.08,13.31,216.08c57.25,21.87,117.61,28.38,137.67,30C738.86,762.84,746.33,650.3,877.34,600.31Z"/></g><path class="cls-14" d="M881.84,612.11c-87.6,33.43-116.5,96.08-125.77,139.58a46,46,0,0,0,2.46,8.38S803.33,655.73,996.35,622c192.61-33.64,429.89-16.71,430.94-16.63-28.16-12.51-55.1-24.17-80.25-34.46q-9.91-4-20.86-8.22C1308.9,561.36,1061.5,543.56,881.84,612.11Z"/><g class="cls-7"><path class="cls-2" d="M1240.29,1417.42c97.73-24,105.06-94.89,132.35-114s92.44-32.57,103.84-55.38-9.77-79.41-63.53-48.46-159.63,95.29-290,81.85-165.74-82.26-212.16-73.71c-38.42,7.08-59.78,37.24-66,47.46,5.89,10.88,15.16,23.39,28,27.21,2.53-7,10-13.55,16.51-18.16,16-11.36,40.33-21.11,56.14-15.64,4.52,1.56,11.08,6.13,21,13,41.5,28.86,136.36,94.73,269.31,69.67,3-.83,5.91-1.62,8.84-2.51,18.66-5.67,37.47-11.22,55.12-19.84,9-3.94,17.25-9.31,25.77-14.24,8-5.74,16.36-11,23.62-17.71,15.62-12.22,28.53-27.45,40.88-43.15l0,0a.63.63,0,0,1,1,.73c-11,16.71-22.81,33.31-37.71,47.14-7,7.37-15.3,13.31-23.18,19.77-8.43,5.65-16.68,11.75-25.76,16.44-14.17,7.93-29,15.25-44.64,20a6.23,6.23,0,0,1-2.93,1.81c-148,36.3-252.82-36.59-297.58-67.72-8.08-5.61-15.06-10.46-17.93-11.46-8-2.8-23.07,1.1-37.28,9.28,54.34,14.65,113.39,84.37,148.89,115.48C1089.2,1417,1142.55,1441.45,1240.29,1417.42Z"/></g><path class="cls-14" d="M1836.07,1414.16c-209,61.15-458.12,22-545.74,24.14-9.36,4.08-19.67,8.09-31.35,12-35.08,11.7-65.83,16.59-93,16.59-89.56,0-139.79-53.28-175.87-91.54-31.37-33.28-66-51.6-89-63.72-12.09-6.39-20.68-10.94-25.31-15.77-27.84-3.38-43-34.26-48.47-48.21-60.57-75.7-70.72-274.18-70.72-274.18a299.72,299.72,0,0,1-4.59,30.29l-1.81,8.59c-16.12,76.08-43.11,203.42,43.5,322.37,47.46,65.18,105.15,116.7,202.86,152.22a779.81,779.81,0,0,0,91.8,25.95q15.43,3.33,31.92,6.31l.31,0c81.61,14.7,183,22.83,311.48,23.82q11.94.09,23.86.1c138-2.3,246.56-15.84,262.64-18,113.83-19.69,214.6-59.45,285.49-137.07,58.4-63.94,94.78-150.82,109.61-262.64C2093.08,1193.52,2024.51,1359,1836.07,1414.16Z"/><g class="cls-7"><path class="cls-2" d="M950.51,1325.71l1.36.93v0C951.94,1326.3,951.46,1326,950.51,1325.71Z"/></g><g class="cls-7"><path class="cls-2" d="M2213.17,829.37c216.65-43.16,143.34-174.26,143.34-174.26s14.67,65.94-163.7,113.18-737.24-164.12-737.24-164.12l.38.19C1484,617,1513.13,630.28,1543,644c108.62,49.7,224.91,102.9,336.17,143.85C1990.33,822.59,2117,848.54,2213.17,829.37Z"/></g><g class="cls-7"><path class="cls-2" d="M2039.69,581.78c-553.84-156.38-871.48-82.72-871.48-82.72l.18.06c58.58,15.74,111.93,32.85,155.4,49.17,323.09-15.82,603.8,73,736.77,124.61l.29.1Z"/></g><g class="cls-7"><path class="cls-2" d="M1726.93,131.38s45.2,73.3-75.74,127.05-499.68,85.88-499.68,85.88v7q15.08-1.49,31.72-2.92c28.84-2.79,59.14-5.18,90.71-6.94,38.36-2.15,80-3.43,124.24-3.31h.73c21.23-.24,42.42.23,63.36,1.19,175,5.91,381.11,35.6,578.34,118.85-8.25-22.86-50.38-133.25-121.26-210.32C1839.94,161.48,1726.93,131.38,1726.93,131.38Z"/></g><g class="cls-8"><path class="cls-9" d="M895,1166.77c25.35-4.28,59.87,4.58,59.87,4.58s92.8,69.48,166.43,80.1l-.36-.19c-8.93-3.39-17.7-7.24-26.31-11.4-15.88-7.64-31-16.73-45.94-26.06s-29.34-19.55-43.53-30c-13.9-10.34-27.47-21-40.78-32.31-2.43-1.33-28.18-14.39-78.57-6.36-33,5.26-43.56,44-46.9,70.06.63,5.4,1.94,9.65,4,11.74C842.83,1226.91,869.6,1171,895,1166.77Z"/></g><g class="cls-8"><path class="cls-9" d="M1163.32,1028.92c41.13-4.89,145.79,66,145.79,79.82v31.32s41.13-24.4,48.46-24c5.81.32,72.66,12.14,100.2,17-45.35-38.26-122.64-40-123.51-40a6.31,6.31,0,0,1-4.82-2.36c-.71-.88-71.72-88.2-151.7-91.31-.81,0-1.61,0-2.43,0-32.31,0-71.44,24.46-106.66,53.68-.12.11-.25.2-.38.3-43,35.78-80.16,78.54-91.74,92.31,6.46,6.12,13.11,12.13,19.84,18.07C1012,1147.77,1125.06,1033.46,1163.32,1028.92Z"/></g><g class="cls-8"><path class="cls-9" d="M924.92,1130.1l.05,0s13.35-45,29.44-52.09c13.59-6,62.25-9.48,77.84-9.75q7.66-7.18,15.8-14.35c-36.82-1.52-100.08-1.46-116.38,10.46s-24.87,46.66-28,66A185.66,185.66,0,0,1,924.92,1130.1Z"/></g><g class="cls-8"><path class="cls-9" d="M1230.48,151.6c-9.41,2-15.87,9.17-14.43,16.11s10.25,11,19.66,9,15.87-9.17,14.43-16.11S1239.89,149.64,1230.48,151.6Z"/></g><g class="cls-8"><path class="cls-9" d="M1084.25,137.88c14.51,18,45.7,22.71,75.09,10,28-12.14,45.44-36.29,44.28-58.32C1263,105.92,1338,134.4,1367.14,127.1c44-11,138.66-70.86,170.43-75.13,31.6-4.26,164.66,13,166,13.23C1622,33.39,1555.7,23.44,1533.73,22.85l-1,0c-21.8,0-56.9,18.58-90.86,36.57-33.31,17.64-64.81,34.32-85.39,34.32h-1.14c-16.95-.53-45.61-11-78.8-23.18C1231.45,54,1175.26,33.47,1139.79,36.27,1086.14,40.48,975.28,186.8,890.11,397c11.57-2.91,31.13-7.6,57.37-13.08l-.25.05C981.57,317,1040.18,205.69,1084.25,137.88Z"/></g><g class="cls-8"><path class="cls-9" d="M1034.15,367.78h0c34.63-5.69,74.07-11.32,117.39-16.13v-.37C1081.71,358.15,1038.26,365.54,1034.15,367.78Z"/></g><g class="cls-8"><path class="cls-9" d="M1281.62,389.77c246.09-18.7,517.2,5.3,524,5.91C1608.75,350,1418.4,346,1274.64,354c-211.85,11.86-367.32,51.37-390.31,57.47-4.16,10.54-8.26,21.17-12.27,32q25.23,2.44,50.79,5.84L920.46,444S1032.4,408.7,1281.62,389.77Z"/></g><g class="cls-7"><path class="cls-2" d="M1398.91,338.11h-.73c20.82.05,42.22.44,64.09,1.18C1441.33,338.34,1420.14,337.87,1398.91,338.11Z"/></g><g class="cls-8"><path class="cls-9" d="M1398.91,338.11h-.73c20.82.05,42.22.44,64.09,1.18C1441.33,338.34,1420.14,337.87,1398.91,338.11Z"/></g><g class="cls-7"><path class="cls-2" d="M1151.51,351.66q15.54-1.73,31.72-3.29-16.65,1.42-31.72,2.92Z"/></g><g class="cls-8"><path class="cls-9" d="M1151.51,351.66q15.54-1.73,31.72-3.29-16.65,1.42-31.72,2.92Z"/></g><g class="cls-8"><path class="cls-9" d="M558.38,530.26c67.68-76.39,310.2-67.84,408.42-60.95-69.56-11.16-139.5-18.14-203.69-18.14-73.78,0-139.94,9.2-189.29,31.81-42.3,19.39-69.94,47.68-82.15,84.1C475.2,616.21,478.8,658.57,502.35,693c10.32,15.09,23.92,27.94,39.42,38.86h0S472.86,626.78,558.38,530.26Z"/></g><path class="cls-2" d="M2174.09,880.39q-10.44,0-20.76-.74C1975,866.72,1740.45,759.4,1533.52,664.72c-68.91-31.53-134-61.31-190.35-84.35q-9.15-3.74-19.22-7.6c-26-1.93-264.7-17.43-438.47,48.87-134.13,51.19-123.65,171.21-123.14,176.3a16.56,16.56,0,0,1-17.22,18.21c-7.86-.38-193.26-10.32-261.62-110.26C455.7,665.24,451.16,616.1,470,559.83c14.3-42.65,46-75.49,94.29-97.61,72.26-33.1,176.34-39.42,287.77-30.49C936.34,205.84,1063.42,19.35,1138,13.51c40.54-3.17,96.76,17.41,146.39,35.58,28.71,10.51,58.4,21.38,71.66,21.79,14.65.38,46.72-16.61,75.14-31.66C1470,18.68,1506.54-.73,1534.35,0c40.35,1.09,223.78,32.09,383.89,163.8,136.66,112.42,188.52,331,200,387.65,170.63,6.72,278.1,43.7,311.15,107.23,16.73,32.17,13,69.58-10.53,105.35C2373.79,832.54,2271.36,880.39,2174.09,880.39Zm-840.18-339.2q11.38,4.35,21.77,8.6c57,23.29,122.36,53.21,191.59,84.88,204.39,93.52,436.05,199.52,608.45,212,101.11,7.37,199.13-45.49,235.51-100.8,11.78-17.92,22.87-44.94,8.82-72-16-30.77-75.76-83.36-296.1-89.9a16.53,16.53,0,0,1-15.8-13.75c-.44-2.6-46-261.78-190.9-380.95C1745.92,64.86,1569.11,34,1533.46,33.05c-19-.26-55,18.55-86.81,35.37-36.69,19.44-68.39,36.37-91.63,35.49-18.59-.58-46.57-10.83-82-23.79-44.16-16.17-99.15-36.26-132.45-33.68-47.29,3.72-165.1,152.61-254.4,388.47,164,17.34,338.21,64.53,447,106ZM763.55,461.13c-72.37,0-137.19,9-185.48,31.13-39.63,18.16-65.44,44.43-76.72,78.07-15.6,46.55-12.53,84.78,9.39,116.86,48,70.21,172.62,89.62,218.6,94.47C731.46,738.93,750,638,873.7,590.78c112.94-43.1,248.54-53.24,342.3-54.16C1083.25,497.22,908.33,461.13,763.55,461.13Z"/><path class="cls-2" d="M2121.41,720.75c-5.11,0-10-2.17-12.94-3.44-88.8-39.06-407.81-165-784.9-146.17a16.52,16.52,0,0,1-1.65-33c355.2-17.79,659.8,90.53,775.34,138.46-5.59-30.06-13.94-83.71-27.92-181-280.81-129.5-586.37-143-794.13-131.39C1047.67,377,885.65,421.69,884,422.15a16.53,16.53,0,0,1-8.9-31.83c1.65-.46,167.14-46.15,398.23-59.09,213.54-11.94,528.82,2.33,818.07,138.23a16.53,16.53,0,0,1,9.33,12.61c13.46,93.86,29.8,199.47,34.2,214.64a16.54,16.54,0,0,1-.34,16C2131,718.89,2126.14,720.75,2121.41,720.75Zm8.87-29.58s0,0,0,0S2130.29,691.18,2130.28,691.17Zm0,0,0,0Z"/><path class="cls-2" d="M1458.69,1566c-8.92,0-17.8,0-26.72-.1-418.95-3.23-558-82.28-656.66-217.75C682.71,1221,711,1087.39,727.94,1007.58l1.8-8.52c15.14-72.21-.07-196.12-.22-197.37a16.52,16.52,0,1,1,32.78-4.09c.66,5.3,16,130.69-.22,208.24l-1.82,8.6c-15.77,74.42-42.18,199,41.76,314.25,92.43,126.94,225.18,201,630.2,204.16,219.7,1.68,440.07-15.51,564.37-151.6,96.31-105.44,131.42-275.54,107.34-520a16.52,16.52,0,0,1,32.88-3.23c25.05,254.34-12.84,432.78-115.82,545.53C1893.18,1543.46,1677,1566,1458.69,1566Z"/><path class="cls-2" d="M1165.47,1474.46c-92.12,0-143.7-54.71-180.76-94-30.53-32.38-64.53-50.35-87-62.24-10.91-5.76-19.53-10.32-25.26-15.33-38.23-6.72-53.92-57.59-54.6-59.87a13.59,13.59,0,0,1-.57-3.58c-.12-4.22-2-103.41,65.35-114.14,40.64-6.48,67.38-.74,81.26,4.17,28-33.06,135.36-153.18,214.65-150.12,78.44,3,145.4,74.22,162.48,93.92,23.77,1.41,106.2,10,146.75,62,30.42,39,42.23,80.65,32.4,114.17-8.91,30.35-33.71,52.87-73.72,66.92-35.57,12.5-46.56,29.27-60.47,50.5-19.23,29.35-41,62.61-124.62,90.48C1225.17,1469.41,1193.44,1474.46,1165.47,1474.46ZM894.9,1285.24c4.17,2.54,10.34,5.81,15.66,8.62,24.1,12.74,60.52,32,94.18,67.69,59.79,63.41,119.71,112.43,247.89,69.68,74.52-24.83,92.71-52.6,110.3-79.44,14.75-22.52,30-45.79,74.38-61.38,31.17-11,50.15-27.34,56.42-48.7,7.31-24.91-2.79-57.53-27.7-89.49-38.54-49.45-131-51.69-131.91-51.71a13.77,13.77,0,0,1-10.5-5.15c-.68-.85-69.66-85.55-146.17-88.52-63.07-2.41-165,106-198.89,148a13.78,13.78,0,0,1-17.85,3.13c-.08,0-24.23-13.41-73.77-5.51-39.72,6.33-42.07,72.09-42.16,84.29,2.2,6.18,10.75,27.81,24.76,36.07q5.15-7.33,15.48-14.71c13.47-9.59,41.88-23.88,62.9-16.6,5.49,1.9,12,6.43,22.82,14,42.54,29.58,142.15,98.84,281.33,64.69a13.77,13.77,0,0,1,6.57,26.74c-151.26,37.11-258-37.12-303.62-68.82-6.52-4.54-13.9-9.67-16.18-10.57C928.86,1264.05,904.24,1276.27,894.9,1285.24Z"/><path class="cls-2" d="M977.2,1136.1c48.71,48.32,101.69,97.12,166.57,122.5-17.19-3.71-33.85-9.95-50.06-17.09-32.39-14.58-62.78-33.28-92.06-53.34C987,1178,972.74,1167.7,958.5,1156.31a13.8,13.8,0,1,1,18.7-20.21Z"/><path class="cls-2" d="M1186.94,1341.66c24.48-9.43,45.91-16.93,69.36-24.59,13.52-4.51,27.72-7.28,40.7-13.45a249.2,249.2,0,0,0,72.06-48.46c6.57-5.82,14.19-15.41,20.35-21.76,1-1.29,3.18.08,2.29,1.53-19.52,35.92-48.8,67.59-84.51,88.22-22.12,14.07-46.57,25.77-73.22,27-16,.83-31.82.08-47.1-5.74a1.47,1.47,0,0,1,.07-2.75Z"/><path class="cls-2" d="M896.31,1151.1a13.38,13.38,0,0,1-1.54-.09,13.75,13.75,0,0,1-12.16-15.18c.74-6.74,8.11-66.39,37.2-87.68,27.69-20.27,126-14.76,145.42-13.45a13.77,13.77,0,0,1-1.85,27.47c-51.14-3.44-114.35-1.28-127.31,8.2-14.62,10.7-23.77,47.69-26.1,68.49A13.76,13.76,0,0,1,896.31,1151.1Z"/><ellipse class="cls-2" cx="1494.54" cy="908.94" rx="78.46" ry="114.15"/><ellipse class="cls-9" cx="1466.24" cy="885.79" rx="23.15" ry="38.91"/><ellipse class="cls-2" cx="953.91" cy="862.42" rx="63.02" ry="102.36"/><ellipse class="cls-9" cx="931.18" cy="841.66" rx="18.6" ry="34.89"/><path class="cls-10" d="M971.47,1632c38.49,32.35,48.11,41.48,47.68,48.84-.59,10.08-17.63,22.3-30,29.9,86.1,74.71,137.81,172.93,155.53,210.39,14.53-205.65-23.16-363.58-30-390q-9.93-1.89-19.73-4c-42.4-8.67-79.26-19.27-111.71-31.67-1.44-.54-2.9-1-4.33-1.59-5.16,3.22-17.84,11.42-35.2,24.54-6.31,25.08-15.61,64.53-16.14,73.4C930.75,1597.81,955.18,1618.34,971.47,1632Z"/><path class="cls-13" d="M1202.23,1785.74C1243,1714,1360.73,1593.06,1397.6,1556c-86.7-.74-180.86-6.59-269.29-22.33,8.92,36.42,38,170.43,31.25,345.56C1171.08,1848.59,1185.4,1815.37,1202.23,1785.74Z"/><path class="cls-13" d="M653.54,1712c-1.91-11.43-19.85-106.76-88.79-140.67-35-17.22-71.45-19.22-102.71-5.65a104.31,104.31,0,0,0-58.28,65.66c-11.53,38-10.34,70,3.19,85.59,7.65,8.82,19,12.14,33.79,9.87,41.31-6.36,69.63-44.91,73.43-50.34a6.36,6.36,0,0,1,11.7.78l.06.19h0l2.81,8.21a6.19,6.19,0,0,1-.16,4.25,397.07,397.07,0,0,1,6.85,51.35c1.13,8.91,1.9,17.89,2.21,26.92.31,15.28-.59,30.81-4.28,46s-9.77,30.13-19.81,42.71a72.51,72.51,0,0,1-17.87,16c-6.61,4-13.2,7.71-20.1,11a194.26,194.26,0,0,1-43.06,15.37,150.75,150.75,0,0,1-45.45,3C372,1901,357,1897.3,343.65,1890a.63.63,0,0,1,.57-1.12l.07,0c13.36,6.37,28.34,9.1,43,9.6A149.12,149.12,0,0,0,431,1893a186.64,186.64,0,0,0,40.7-16.61c6.45-3.47,12.76-7.4,18.78-11.42a61,61,0,0,0,14.81-14.49c8.3-11.25,12.91-25,15.72-39a253.23,253.23,0,0,0,4.28-43.27c.2-8.93,0-17.9-.37-26.89a390.57,390.57,0,0,0-8-47.77c-12.53,14.84-38.65,40.26-74.24,45.73-19.08,2.94-34.71-1.92-45.25-14.07-16.5-19-18.66-54.18-6-96.55-22.43-6.1-100.55-21.68-127,48-32.1,84.39-2.8,237.29,67.12,268.08,33.52,14.77,99.26,15.84,164.44-16.65C551,1900.6,622.93,1840.81,653.54,1712Z"/><path class="cls-10" d="M1046.65,2065.59v108.57c24.74-22.74,87.3-77.62,139.06-101.33l-9.24-6.09Z"/><g class="cls-7"><path class="cls-2" d="M1046.65,2065.59v108.57c24.74-22.74,87.3-77.62,139.06-101.33l-9.24-6.09Z"/></g><path class="cls-11" d="M899.47,2478.91c9.28,9.25,48.21,41.66,116.17,15.37,4.79-15.26,28.64-86.26,80.69-166.68l.18-.28c11.59-17.89,24.56-36.23,39-54.54,0,0,0,0,0-.05s0,0,0,0l.14-.16c33.3-38.77,69.13-82.66,73-90.74-.33-9.37-5-71-7.06-98.47l-3.32-2.19C1136.7,2106,1050.64,2187.6,1045,2193,1039.83,2199.64,936.56,2333.62,899.47,2478.91Z"/><path class="cls-10" d="M797.57,2037.2a6,6,0,0,1-.44-3.24,2.56,2.56,0,0,1,0-.27c5-24.1,10.82-47.73,17.18-71.34s13.33-47,21.28-70.08,16.38-46,26.61-68.18,21.46-43.9,35.55-63.78c-13.22,20.47-23.49,42.57-32.65,65s-16.55,45.62-23.49,68.85-12.75,46.81-18.11,70.45c-4.84,21.64-9.25,43.46-12.91,65.23a5.84,5.84,0,0,1,.18,1.92l-.42,4H961.25l28-41.21a6.29,6.29,0,0,1,3.58-2.55c2.74-.73,50.77-13.19,133.85-8.51a2.64,2.64,0,0,1,0-.49c.1-.44,4.37-17.76,12.32-43.64-7.22-16.8-62.06-138.88-164.85-224.74a6.31,6.31,0,0,1,1-10.36c14.94-8.34,28.86-18.93,31.1-23.55-3.93-6.26-26.36-25.12-42.95-39.06-38.11-32-48.43-41.76-48.43-49.16,0-8,7.56-40.47,12.68-61.54-54.2,43.56-137.49,123.83-193.19,240.13l57.93,65.75-69.55-60-.1-.07L663.57,1724c-32.92,127.34-105.86,187.4-162,215.41A266.86,266.86,0,0,1,420,1965c26.42,39.7,140.86,207,202.87,222.52,62.34,15.57,141.55-4.58,160-9.75Z"/><path class="cls-11" d="M1250.36,2238.79l8.35-200.43L1232.55,2010c-133-26.7-219.51-9.66-234.18-6.33l-28.56,42a6.34,6.34,0,0,1-5.22,2.76H809.08l-13.65,130.15,2.65,15,166.8,7.6a6.28,6.28,0,0,1,4.36,2l30.1,32.75c17.24-26.25,30.53-43.95,34.68-49.37V2059.22a6.33,6.33,0,0,1,1.87-4.48,6.49,6.49,0,0,1,4.5-1.83l138,1.22a6.28,6.28,0,0,1,3.42,1l29.32,19.32a6.29,6.29,0,0,1,2.83,4.79c.75,9.8,7.34,96,7.34,103.33,0,2.53,0,9.11-67.12,87.76h68.91Z"/><path class="cls-11" d="M1552.94,2513.54c-80.4-70.94-130-162.41-147.86-272.92l-38.84,27.9c11.44,34.32,88.67,260.08,155.8,306.77,26,18.13,49,23.29,68.31,15.37,16.89-6.94,25.7-21.7,28.4-27.77-1.79-1.24-4.37-2.93-6.9-4.58a515.72,515.72,0,0,1-55.3-41.73A6.24,6.24,0,0,1,1552.94,2513.54Z"/><polygon class="cls-11" points="1553.49 2080.01 1269.91 2072.99 1264.57 2200.92 1429.93 2206.75 1459.99 2175.91 1553.49 2080.01"/><path class="cls-10" d="M1074.79,2683.63c.35-24.69,3.47-216.62,16.39-323.75-45.8,77.4-64.09,140.06-64.32,140.88a6.33,6.33,0,0,1-3.7,4.12c-21.31,8.65-40.26,11.93-56.73,11.93-51.15,0-78.41-31.63-78.76-32.06a6.28,6.28,0,0,1-1.28-5.56c22.43-90.46,70.38-176.8,105.86-232.31l-30.54-33.24-169-7.69c-2.88,27.16-8.66,76.43-18.16,136.07C761.17,2426,725,2680,719.14,2720.8c27.93,7.3,158.16,39.58,228.8,26.15C1018.38,2733.56,1065.55,2692.26,1074.79,2683.63Z"/><path class="cls-10" d="M1569.15,1725c-25.56,4.27-117.09-14.29-147.62-20.75,6.9,30,21.38,103,3.41,119.37-19,17.35-254.15,153.82-264.15,159.62a6.32,6.32,0,0,1-6.34-10.93c67.8-39.32,247-144.37,262-158,11-10,1.06-74.35-9.51-116.81a6.32,6.32,0,0,1,7.49-7.69c34.64,7.63,129.62,26.56,152.66,22.75,25.91-4.32,136.59-95.74,152.71-113.66,13.17-14.62,17.94-49.9,18-50.25,0-.12.1-.22.12-.34-8.46-5.22-14.71-8.9-17.61-10.58l-.84.11c-82.44,14.14-171.37,18-260.73,18l-4.44,0c-12.73.2-25.72.3-38.9.3C1396.52,1574.82,1256.9,1715,1213.2,1792c-43.56,76.72-70.21,178.36-73.77,192.4a781.61,781.61,0,0,1,97.64,13.69,6.24,6.24,0,0,1,3.37,1.9l29.33,31.76a6.38,6.38,0,0,1,1.67,4.55l-1,24.1,295.38,7.31,29.87-26.49c-2.06-17.18-3.24-34.29-4.22-51.4-1-18.28-1.67-36.55-2.14-54.81-.94-36.52-1.15-73-.85-109.51q2.7,54.66,7.15,109.17c1.52,18.15,3.2,36.29,5.27,54.35s4.37,36.1,7.66,53.76a4.59,4.59,0,0,1,0,.83,6.17,6.17,0,0,1,0,.86,6,6,0,0,1-.53,2h0a6.13,6.13,0,0,1-2.48,2.85l-33,29.28L1466,2187.82l-6.42,6.58c1.23,23.42,15.67,199.79,171.67,262.68,22.52-12,190.37-103.76,291.46-230.85.66-4.44,3.42-13.32,10.93-36.44,12.32-37.85,32.93-101.21,32.93-130.57,0-44.63-37.8-313.9-77.72-381.63-27.09-46-98.11-95.69-139.41-122-2,11.29-7.77,37.89-20.28,51.78C1715.91,1622.09,1601.49,1719.61,1569.15,1725Z"/><path class="cls-11" d="M1233.94,3069.3c28.88-32.51,106.38-115.21,132.32-142.84l-2.34-.64a721.93,721.93,0,0,1-174.42,21.7c-148.37,0-248.83-47.41-268.51-57.5-53.36,37.31-179.45,131.47-200.19,173.18C759.66,3068.44,945.85,3090.08,1233.94,3069.3Z"/><path class="cls-9" d="M717.05,3075.43c-7,34.85-2.28,63.16,0,73.56,42.79,1.84,365.67,14.93,496.68-4.24.53-15.15,2.46-50.79,9-62-85.33,5.86-161.71,8.06-227.62,8.06C839.34,3090.77,741.28,3078.77,717.05,3075.43Z"/><path class="cls-11" d="M1591.49,2955.25c-95.54,0-176.65-16.81-211.27-25.22-48,51.1-115.32,123.3-138.51,149.47l-.08.09-1.65,1.88c52.42,10.69,302.2,54.36,554.08-23.59,2.6-34,1.46-77.64-8.49-130.48C1720.64,2948.13,1653.08,2955.25,1591.49,2955.25Z"/><path class="cls-11" d="M926.84,2762.21v116.64c25.11,12.88,195.15,93,430.78,35.54l-3.33-114.3c-172-1.9-254.41-82.4-273.81-104.53-14.91,13.39-61.55,50.75-130.18,63.79A196.52,196.52,0,0,1,926.84,2762.21Z"/><path class="cls-9" d="M1232.14,3092.73c-3.26,10.64-5.29,36.39-5.83,55.06,11.19,11.87,39,37.91,58.28,41.41,2.67.48,282.92,41.46,490.23-43.91,3.12-6.87,13.25-31.73,18-73.87-112.45,34.09-224.25,44.5-318.38,44.5C1348.79,3115.92,1254.62,3097.54,1232.14,3092.73Z"/><path class="cls-10" d="M1634.52,2469.63a6.36,6.36,0,0,1-5.18.26c-3.2-1.25-6.22-2.64-9.3-4-5.09,9.81-18.39,29.16-49.65,45.81a505.65,505.65,0,0,0,48.37,36c10.9,7.13,13.49,8.82,13.49,13.19,0,6.47-11.24,28.18-32.07,39.06a60.35,60.35,0,0,1-28.22,6.82c-15.3,0-34.35-5.3-57.14-21.15-75.8-52.73-158.55-306.84-162-317.63a6.31,6.31,0,0,1,2.33-7.07l50.84-36.52c.09-.06.18-.13.27-.18l7.58-5.45-149.76-5.28-1.17,28a6.35,6.35,0,0,1-1.52,3.85l-30.55,35.44A6.33,6.33,0,0,1,1226,2283h-82.45c-13.23,16.88-25.16,33.76-35.88,50.24-16.28,96.24-19.94,325.7-20.29,350.93,10.95,13.08,93.17,103.4,273,103.4,205.95,0,458.66-10.46,507.81-27.35,50.7-17.43,113-74.32,113-103.17,0-29.23-46-343.77-56.42-413.39C1814.31,2376.45,1636.35,2468.69,1634.52,2469.63Z"/><path class="cls-11" d="M1784.15,2914.74V2785.56c-109.33,9.83-287.48,14.46-417.23,14.61l3.34,114.29C1401.87,2923,1604,2973.27,1784.15,2914.74Z"/><path class="cls-13" d="M1608.52,2460.64c-131.31-64.25-156.07-208.3-160.62-254.23L1437,2217.56c-.13.14-.32.19-.46.31s-.22.3-.38.41l-19.61,14.09c16.37,109.64,64.49,200.31,143.34,270.48C1590.94,2487.5,1603.91,2469.19,1608.52,2460.64Z"/><path class="cls-6" d="M803.4,2132.82l206,7,5.7,66.9s.1,2.47.1,5.76c9.26-13.28,16.08-22.36,18.83-26V2059.22a6.33,6.33,0,0,1,1.87-4.48,6.49,6.49,0,0,1,4.5-1.83l138,1.22a6.28,6.28,0,0,1,3.42,1l29.32,19.32a6.29,6.29,0,0,1,2.83,4.79c.75,9.8,7.34,96,7.34,103.33,0,2.53,0,9.11-67.12,87.76h68.91l27.22-31.58,8.27-198.44c-4.59-1.16-40.64-10.1-90.42-16.58-53.35-7-150.68,1.24-150.68,0S987.4,2071,978,2074.05c-8.42,2.72-144.64,5.16-172.23,5.63l-5.59,53.37A7.15,7.15,0,0,1,803.4,2132.82Z"/><path class="cls-6" d="M1046.65,2065.59v108.57c24.74-22.74,87.3-77.62,139.06-101.33l-9.24-6.09Z"/><path class="cls-6" d="M1015.64,2494.28c1.49-4.73,4.82-14.86,10.26-29-2.72,6-4.32,9.72-4.7,10.5-1.43,2.85-2.65,5.9-2.65,5.9s-50.5,7.13-56.4-5.29,6.92-30.34,6.92-30.34,111.16-220.72,216.64-298.91l19.79-12.62c-1.38-18.7-2.88-38.58-3.85-51.23l-3.32-2.19c-3.85,1.55-7.8,3.33-11.81,5.29,0,0-72.89,57.1-132.43,142.45s-141.42,254.88-141.42,254.88l-2.6,3.82C927.49,2499.65,962.72,2514.76,1015.64,2494.28Z"/><path class="cls-6" d="M1266.88,2145.62l5.12,2s172.33,4.9,209,6.8l50.45-51.75L1268.86,2098Z"/><path class="cls-6" d="M1247.42,2882.65c6.62-20.7,10.71-47.25,12.66-62.24-154.11-22.64-187.68-74.59-187.68-74.59-52.43,32.6-129.23,45.21-145.56,47.6v85.43c19.35,9.92,124.8,59.73,279.95,55.79C1215.63,2926.19,1239.51,2907.35,1247.42,2882.65Z"/><path class="cls-6" d="M1590.35,2590.66c16.89-6.94,25.7-21.7,28.4-27.77-1.79-1.24-4.37-2.93-6.9-4.58q-7.77-5.08-15.22-10.36c-6.94,6-25.05,21-35.44,23.57-8.58,2.14-28,2.7-40.38,2.83.41.29.82.66,1.23.94C1548.08,2593.42,1571.08,2598.58,1590.35,2590.66Z"/><path class="cls-6" d="M1683,2882.65c14.84-18.36,20.27-41.53,22-60.74a2728.24,2728.24,0,0,1-337.12,7.93l2.47,84.62c22.35,6,129.92,32.89,254.69,27.45C1637.16,2931.43,1661.09,2909.68,1683,2882.65Z"/><path class="cls-6" d="M1357.62,2914.39l0-1.42c-3.25,1.12-6.86,2.43-9.77,3.66C1351.08,2915.88,1354.32,2915.2,1357.62,2914.39Z"/><path class="cls-6" d="M926.84,2762.21v.93l.94-1C927.46,2762.14,927.16,2762.18,926.84,2762.21Z"/><path class="cls-6" d="M727.94,2659.18c-1.05,7.39-2.05,14.33-3,20.74l4.6,1.06S728.8,2670.9,727.94,2659.18Z"/><path class="cls-6" d="M505.27,1850.49a79.53,79.53,0,0,0,10.51-20.28,140.91,140.91,0,0,1-14.71,25.41A60.94,60.94,0,0,0,505.27,1850.49Z"/><path class="cls-6" d="M310.17,1662.17c-21.29,12.32-39.1,52.75-48.15,76.81,2.4,31.28,17,77.45,78.28,97.89,82.44,27.48,161.76-30.39,183.88-48.53q.9-10,1.09-20.15c.2-8.93,0-17.9-.37-26.89a390.57,390.57,0,0,0-8-47.77c-12.53,14.84-38.65,40.26-74.24,45.73-19.08,2.94-34.71-1.92-45.25-14.07-13.79-15.91-17.53-43.12-11-76.37C373.42,1648.11,335.48,1647.51,310.17,1662.17Z"/><path class="cls-6" d="M941,1556.29s113.21,101.4,117.28,121.35-6.1,36.25-6.1,36.25,71.67,98.14,72.89,93.25,20.79-52,21-52.49c-4.67-89-16.92-158.27-25-195.93-80.92-26.65-137.85-63.24-137.85-63.24-1.44-.54-2.9-1-4.33-1.59-5.16,3.22-17.84,11.42-35.2,24.54-2.56,10.19-5.62,22.76-8.39,34.68Z"/><path class="cls-6" d="M809.84,2301.12c-.81,30.13-27.69,263.88-45.61,306.24S729.59,2681,729.58,2681c28.72,6.52,134,29,197.26,22.69,73.79-7.33,124.08-51.52,124.08-51.52l14.51-245c-27,54.14-38.38,93-38.57,93.6a6.33,6.33,0,0,1-3.7,4.12c-21.31,8.65-40.26,11.93-56.73,11.93-51.15,0-78.41-31.63-78.76-32.06a6.28,6.28,0,0,1-1.28-5.56c21.45-86.51,66.21-169.17,101.11-224.78-8.32-3.39-29-11.47-40-13.16-13.1-2-141.11-3.45-158.38-3.64-.48,4-1,8.22-1.54,12.58C790.75,2253.24,810.59,2273.39,809.84,2301.12Z"/><path class="cls-6" d="M1252.1,1585.2c-41.44-2.59-81.36-11.19-117.22-22.1,8.65,42.14,20.87,115.68,24.57,208.47a733,733,0,0,1,80.84-89.77c33.32-31.08,73.43-51.13,94.24-60.28,13.7-14.7,26.54-28.15,37.59-39.56C1330.08,1585.76,1288.39,1587.47,1252.1,1585.2Z"/><path class="cls-6" d="M1146.05,1755.06c0,2.14.16,11.63.89,19.33Q1146.57,1764.58,1146.05,1755.06Z"/><path class="cls-6" d="M1559.91,2502.85c31-15.35,44-33.66,48.61-42.21-6.91-3.38-13.46-7-19.8-10.83l-42.24,40.57C1550.86,2494.6,1555.32,2498.77,1559.91,2502.85Z"/><path class="cls-6" d="M1471.53,2394.42c9.07-3.22,25.17-15.9,34.28-23.45-31.67-46.46-46.36-96.71-53.14-132.11-7.53,6.08-18.81,15.18-30.4,24.57Q1437.39,2334.76,1471.53,2394.42Z"/><path class="cls-6" d="M1411.29,2272.33c-18.09,14.69-34.08,27.76-34,28.06,7.68,21.57,18.51,50.79,31.42,82.38.08,0,29.91,6.85,47.58,10.41Q1425.93,2337.65,1411.29,2272.33Z"/><path class="cls-6" d="M1514.3,3155.06c114.08-10.16,197.16-62.85,197.16-62.85l1.85-.43c-84.88,18-167,24.14-238.89,24.14-125.63,0-219.8-18.38-242.28-23.19-3.26,10.64-5.29,36.39-5.83,55.06,10.82,11.48,37.19,36.14,56.32,40.93l-21.17-44.22S1400.22,3165.21,1514.3,3155.06Z"/><path class="cls-6" d="M1751.36,3083l8.08-2.09s-8.16,57.89-17.27,76.64c11-3.75,21.95-7.8,32.65-12.21,3.12-6.87,13.25-31.73,18-73.87q-21,6.38-42,11.66Z"/><path class="cls-6" d="M1241.71,3079.5l-.08.09-1.65,1.88,5.26,1.05c-.92-1.25-2-2.55-3-3.63Z"/><path class="cls-6" d="M1750.49,3083.17c-2.22.56-4.43,1.06-6.65,1.61l3-.68Z"/><path class="cls-6" d="M784.69,2159.93c-21.87,2.57-121.29,13.2-161.77-.53-45.61-15.48-165-202.76-165-202.76l.24-.1A259.9,259.9,0,0,1,420,1965c26.42,39.7,140.86,207,202.87,222.52,62.34,15.57,141.55-4.58,160-9.75Z"/><path class="cls-6" d="M752.83,3115.24s96.51,4.42,175.92,5.64c65.15,1,139-23.21,165.28-31.72-35.09,1.11-68.15,1.61-98.85,1.61-155.84,0-253.9-12-278.13-15.34-7,34.85-2.28,63.16,0,73.56,5.75.25,16.62.7,31.38,1.25C749.21,3141.31,752.83,3115.24,752.83,3115.24Z"/><path class="cls-6" d="M667.31,2090.17c51.94,27.3,105.21,20.31,122.93,16.85l7.33-69.82a6,6,0,0,1-.44-3.24,2.56,2.56,0,0,1,0-.27c5-24.1,10.82-47.73,17.18-71.34s13.33-47,21.28-70.08,16.38-46,26.61-68.18,21.46-43.9,35.55-63.78c-13.22,20.47-23.49,42.57-32.65,65s-16.55,45.62-23.49,68.85-12.75,46.81-18.11,70.45c-4.84,21.64-9.25,43.46-12.91,65.23a5.84,5.84,0,0,1,.18,1.92l-.42,4H961.25l28-41.21a6.29,6.29,0,0,1,3.58-2.55c2.74-.73,50.77-13.19,133.85-8.51a2.64,2.64,0,0,1,0-.49c.08-.34,2.6-10.58,7.35-27-13.33-21-70.07-109-115.76-160.75-52.12-59-81.44-70.86-76.55-83.89s25.65-29.32,27.28-35.43-44.24-68.14-44.24-68.14c-7.34-7.36-9.92-11.64-9.92-15.34a90.34,90.34,0,0,1,1.85-13.29,902.87,902.87,0,0,0-70.27,71.93c-37,42.73-81.23,123.45-91.74,143l24.76,28.1h0l12.82,14.55-5.92-5.1,13.25,18.13s-17.51-.81-60.27-26.88c-34.49-21-74.21-48.91-88.29-58.92-24.5,67.12-60.9,111.8-97.28,141.46l.19-.13S603.78,2056.78,667.31,2090.17Z"/><path class="cls-6" d="M508,1936.05l-.14.08.07,0Z"/><path class="cls-6" d="M780.52,3068.35c1.63-1.23,59.05-42.94,94.07-46.32s177.15,11.29,237-1.74,74.53-33.8,74.53-33.8l131.12-7.66h0c20.28-21.73,38.72-41.41,49-52.38l-2.34-.64a721.93,721.93,0,0,1-174.42,21.7,679.42,679.42,0,0,1-127.9-12c25.21,7.33,47.76,13.68,47.76,13.68-142.52,4.44-182.52-18.26-182.52-18.26l-206,132.3c10.75,1.45,32.81,4.15,65.13,6.87Z"/><path class="cls-6" d="M1591.49,2955.25c-4.16,0-8.26-.07-12.36-.13,15,2.7,28.89,5.31,28.89,5.31-77,26.88-215.43,6.51-215.43,6.51-25.24,32.58-119.72,117.59-119.72,117.59s-1.39,1-3.25,2.37c12.74,2.12,28.29,4.44,46.22,6.66.09-.08,40.62-39.88,137.43-43.95s202.8-17.23,233.35-65.52l71.47-14.7s6.7,74.69,0,98.73c12-3.17,24-6.53,36-10.24,2.6-34,1.46-77.64-8.49-130.48C1720.64,2948.13,1653.08,2955.25,1591.49,2955.25Z"/><path class="cls-6" d="M1152.16,1980.94a6.26,6.26,0,0,1,.35-6.82c-2.1-.16-4.06-.33-4.56-.42a37.49,37.49,0,0,1-5.29-1.52c-1.6,5.83-2.69,10-3.23,12.19,5.81.43,11.89,1,18,1.62,0-.63,0-1.27,0-1.92A6.31,6.31,0,0,1,1152.16,1980.94Z"/><path class="cls-6" d="M1852.16,1678.66c-27.43-29.83-88.57-70.81-113.3-86.87a61.18,61.18,0,0,1-9.68,15.55c-11.78,13.09-103.24,91.37-146.25,112.56h0s-10,15.17-14.84,19.86-94.48,20.56-94.48,20.56-3.25,57-8.14,76.56-237.83,154.75-241.08,158.72l-.76,0c4.47.83,8.83,1.57,13.42,2.5a6.24,6.24,0,0,1,3.37,1.9l29.33,31.76a6.38,6.38,0,0,1,1.67,4.55l-1,24.1,295.38,7.31,29.87-26.49c-2.06-17.18-3.24-34.29-4.22-51.4-1-18.28-1.67-36.55-2.14-54.81-.27-10.49-.36-21-.51-31.48l-.34-6v-14.84q-.23-28.12,0-56.22v-14.87s13.85,68.42,25.66,118.91,37.06,114.44,36.24,123.4c-.76,8.42-166.78,158-186.58,175.78a366.85,366.85,0,0,0,27.74,90.53c.26,0,84,4.05,158.43-22.18s222.36-173.44,240.68-225.07,22-175.44,22-175.44,23.21,126.24,23.21,172.67-22.06,166.63-22.13,167q4.59-5.46,9-11c.66-4.44,3.42-13.32,10.93-36.44,12.32-37.85,32.93-101.21,32.93-130.57,0-27.8-14.67-142.76-35.38-241.88C1914.6,1781.66,1878.24,1707,1852.16,1678.66Z"/><path class="cls-6" d="M1373.45,1792.89c17.92-29.32-9.36-110.36,5.7-125s117.7,4.89,170.23,3.26,167.37-77.38,167.37-77.38-3.38,7.69-14.68,21.8c8.42-7.41,14.72-13.32,17.72-16.66,13.17-14.62,17.94-49.9,18-50.25,0-.12.1-.22.12-.34-8.46-5.22-14.71-8.9-17.61-10.58l-.84.11c-49.8,8.54-102,13.27-155.17,15.71-44.12,8.6-107.82,19.69-172.6,26.49C1345,1627.8,1248.27,1730.2,1213.2,1792c-28.43,50.07-49.65,110.74-62,150.76,1.71-1.2,3.07-2,3.07-2S1355.53,1822.21,1373.45,1792.89Z"/><path class="cls-6" d="M1634.52,2469.63a6.36,6.36,0,0,1-5.18.26c-3.2-1.25-6.22-2.64-9.3-4-5.09,9.81-18.39,29.16-49.65,45.81a505.65,505.65,0,0,0,48.37,36c10.9,7.13,13.49,8.82,13.49,13.19,0,6.47-11.24,28.18-32.07,39.06a60.35,60.35,0,0,1-28.22,6.82c-15.3,0-34.35-5.3-57.14-21.15-75.8-52.73-158.55-306.84-162-317.63a6.31,6.31,0,0,1,2.33-7.07l20.68-14.85h-87.15s-2.14,16.83-7.64,24.26-39.7,35.94-39.7,35.94-105.18,2.13-116.8,2.22q-8.85,12.45-16.81,24.7c-13.39,79.17-18.24,248.41-19.74,320,0,0,77.83,55.09,217.08,69.75s434.11-2.85,502.52-11.4,113.21-64.75,121.36-89.19c6.21-18.63,19.4-126,25.32-176-12-85-24.58-170.39-29.41-202.78C1814.31,2376.45,1636.35,2468.69,1634.52,2469.63Z"/><path class="cls-6" d="M485.07,1584.39c-48.07,11.2-77.57,62-88.83,85.45a110,110,0,0,0,0,16.53c4.81,1.56,42.23,13.15,52.52-.18,11-14.25,26.26-45.1,67.5-54.26s62.3,69,58.94,115.15c-2.58,35.42-30.51,62.67-43.35,73a116.4,116.4,0,0,1-8.31,21.29c5.58,9,21.11,39.32.29,70.58,49.44-32.61,104.1-92.06,129.74-200a266.35,266.35,0,0,0-25.49-74.6C627.42,1636.86,547.74,1569.78,485.07,1584.39Z"/><path class="cls-14" d="M1372.12,1582c10.34-10.68,19.13-19.6,25.48-26-86.7-.74-180.86-6.59-269.29-22.33,1.63,6.66,3.93,16.61,6.57,29.45,35.86,10.91,75.78,19.51,117.22,22.1C1288.39,1587.47,1330.08,1585.76,1372.12,1582Z"/><g class="cls-7"><path class="cls-2" d="M1458.72,1555.78l-4.44,0c-12.73.2-25.72.3-38.9.3-3.73,3.7-12.22,12.21-23.7,24,64.78-6.8,128.48-17.89,172.6-26.49C1529.4,1555.14,1494.1,1555.78,1458.72,1555.78Z"/></g><g class="cls-7"><path class="cls-2" d="M1114.67,1531.14q-9.93-1.89-19.73-4c-42.4-8.67-79.26-19.27-111.71-31.67,0,0,56.93,36.59,137.85,63.24C1118.24,1545.41,1115.93,1536,1114.67,1531.14Z"/></g><path class="cls-14" d="M523.51,1841.39a92.35,92.35,0,0,1-10,15.5,72.51,72.51,0,0,1-17.87,16c-6.61,4-13.2,7.71-20.1,11a194.26,194.26,0,0,1-43.06,15.37,150.75,150.75,0,0,1-45.45,3C372,1901,357,1897.3,343.65,1890a.63.63,0,0,1,.57-1.12l.07,0c13.36,6.37,28.34,9.1,43,9.6A149.12,149.12,0,0,0,431,1893a186.64,186.64,0,0,0,40.7-16.61c6.45-3.47,12.76-7.4,18.78-11.42a61,61,0,0,0,10.61-9.36,140.91,140.91,0,0,0,14.71-25.41,129.12,129.12,0,0,0,5.21-18.75,232.46,232.46,0,0,0,3.19-23.12c-22.12,18.14-101.44,76-183.88,48.53C279,1816.43,264.42,1770.26,262,1739c-4.12,10.93-6.42,18.48-6.42,18.48a288.2,288.2,0,0,1-2.41-32.13l0,.1c-9.56,84.71,20.44,193.8,78.31,219.28,33.52,14.77,99.26,15.84,164.44-16.65A268.58,268.58,0,0,0,523.8,1912C544.62,1880.71,529.09,1850.38,523.51,1841.39Z"/><path class="cls-14" d="M575.17,1747.08c3.36-46.12-17.71-124.31-58.94-115.15s-56.51,40-67.5,54.26c-10.29,13.33-47.71,1.74-52.52.18,1,12.92,4.58,23.45,10.74,30.55,7.65,8.82,19,12.14,33.79,9.87,41.31-6.36,69.63-44.91,73.43-50.34a6.36,6.36,0,0,1,11.7.78l.06.19h0l2.81,8.21a6.19,6.19,0,0,1-.16,4.25,397.07,397.07,0,0,1,6.85,51.35c1.13,8.91,1.9,17.89,2.21,26.92.31,15.28-.59,30.81-4.28,46q-.71,3-1.55,5.92C544.66,1809.75,572.59,1782.5,575.17,1747.08Z"/><g class="cls-7"><path class="cls-2" d="M622.92,2159.4c40.48,13.73,139.9,3.1,161.77.53l5.55-52.91c-17.72,3.46-71,10.45-122.93-16.85C603.78,2056.78,554,1905.43,554,1905.43l-.19.13A282.71,282.71,0,0,1,508,1936.05l-.07,0-.07,0c-2.11,1.11-4.2,2.2-6.27,3.23a272.56,272.56,0,0,1-43.42,17.18l-.24.1S577.31,2143.92,622.92,2159.4Z"/></g><g class="cls-7"><path class="cls-2" d="M1052.15,1713.89s10.18-16.29,6.1-36.25S941,1556.29,941,1556.29l-5.66-3.18c-4,17.41-7.44,33.46-7.75,38.72,3.19,6,27.62,26.51,43.91,40.2,38.49,32.35,48.11,41.48,47.68,48.84-.59,10.08-17.63,22.3-30,29.9,86.1,74.71,137.81,172.93,155.53,210.39a1353.88,1353.88,0,0,0,2.29-146.77c-.73-7.7-.87-17.19-.89-19.33,0-.14,0-.27,0-.41-.2.49-19.77,47.63-21,52.49S1052.15,1713.89,1052.15,1713.89Z"/></g><path class="cls-14" d="M1159.45,1771.57c1.34,33.56,1.57,69.63.11,107.64,11.52-30.62,25.84-63.84,42.67-93.47,26.23-46.22,84.36-112.76,132.3-164.22-20.81,9.15-60.92,29.2-94.24,60.28A733,733,0,0,0,1159.45,1771.57Z"/><g class="cls-7"><path class="cls-2" d="M1152.51,1974.12a6.24,6.24,0,0,1,1.94-1.81c67.8-39.32,247-144.37,262-158,11-10,1.06-74.35-9.51-116.81a6.32,6.32,0,0,1,7.49-7.69c34.64,7.63,129.62,26.56,152.66,22.75,21.08-3.52,98.26-64.67,135-97,11.3-14.11,14.68-21.8,14.68-21.8s-114.84,75.75-167.37,77.38-155.16-17.92-170.23-3.26,12.22,95.7-5.7,125-219.14,147.83-219.14,147.83-1.36.81-3.07,2c-3.66,11.94-6.54,22-8.58,29.45a37.49,37.49,0,0,0,5.29,1.52C1148.45,1973.79,1150.41,1974,1152.51,1974.12Z"/></g><g class="cls-7"><path class="cls-2" d="M1009.39,2139.85l-206-7a7.15,7.15,0,0,0-3.19.23l-4.78,45.53,2.65,15,166.8,7.6a6.28,6.28,0,0,1,4.36,2l30.1,32.75c5.82-8.86,11.13-16.65,15.85-23.42,0-3.29-.1-5.76-.1-5.76Z"/></g><g class="cls-7"><path class="cls-2" d="M969.07,2446.09s-12.83,17.92-6.92,30.34,56.4,5.29,56.4,5.29,1.22-3,2.65-5.9c.38-.78,2-4.47,4.7-10.5a763.17,763.17,0,0,1,70.43-137.72l.18-.28c11.59-17.89,24.56-36.23,39-54.54,0,0,0,0,0-.05s0,0,0,0l.14-.16c33.3-38.77,69.13-82.66,73-90.74-.18-5.06-1.61-25.34-3.21-47.24l-19.79,12.62C1080.23,2225.37,969.07,2446.09,969.07,2446.09Z"/></g><g class="cls-7"><path class="cls-2" d="M926.84,2703.67C863.56,2710,758.3,2687.5,729.58,2681h0l-4.6-1.06c-2.73,19.06-4.78,33.49-5.84,40.88,27.93,7.3,158.16,39.58,228.8,26.15,70.44-13.39,117.61-54.69,126.85-63.32.35-24.69,3.47-216.62,16.39-323.75-9.82,16.6-18.37,32.51-25.75,47.28l-14.51,245S1000.63,2696.34,926.84,2703.67Z"/></g><g class="cls-7"><path class="cls-2" d="M987.5,2254.41c1.6-2.55,3.2-5.11,4.75-7.53l-30.54-33.24-169-7.69c-.91,8.5-2.09,19.18-3.59,31.66,17.27.19,145.28,1.65,158.38,3.64C958.54,2242.94,979.18,2251,987.5,2254.41Z"/></g><g class="cls-7"><path class="cls-2" d="M1281,2270.37c5.5-7.43,7.64-24.26,7.64-24.26h87.15l30.16-21.67c.09-.06.18-.13.27-.18l7.58-5.45-149.76-5.28-1.17,28a6.35,6.35,0,0,1-1.52,3.85l-30.55,35.44A6.33,6.33,0,0,1,1226,2283h-82.45q-10,12.8-19.07,25.54c11.62-.09,116.8-2.22,116.8-2.22S1275.51,2277.8,1281,2270.37Z"/></g><g class="cls-7"><path class="cls-2" d="M1807.56,2711.61c-68.41,8.55-363.25,26.06-502.52,11.4s-217-69.73-217.08-69.75c-.32,15.44-.49,26.43-.55,30.9,10.95,13.08,93.17,103.4,273,103.4,205.95,0,458.66-10.46,507.81-27.35,50.7-17.43,113-74.32,113-103.17,0-15.64-13.17-112.87-27-210.61-5.92,50-19.11,157.36-25.32,176C1920.77,2646.86,1876,2703.06,1807.56,2711.61Z"/></g><g class="cls-7"><path class="cls-2" d="M1186.13,2986.49s-14.67,20.77-74.53,33.8-202-1.63-237,1.74-92.44,45.09-94.07,46.32l5.41,1.72c84.55,7.09,239.59,14.26,448-.77,17.42-19.6,52.49-57.43,83.3-90.46h0Z"/></g><g class="cls-7"><path class="cls-2" d="M928.75,3120.88c-79.41-1.22-175.92-5.64-175.92-5.64s-3.62,26.07-4.36,35c94.88,3.53,351.92,11.1,465.3-5.49.53-15.15,2.46-50.79,9-62-45.59,3.13-88.53,5.19-128.77,6.45C1067.77,3097.67,993.9,3121.88,928.75,3120.88Z"/></g><g class="cls-7"><path class="cls-2" d="M1758.09,2969.39l-71.47,14.7c-30.55,48.29-136.43,61.45-233.35,65.52s-137.34,43.87-137.43,43.95c98,12.15,267.32,21,442.27-25.44C1764.79,3044.08,1758.09,2969.39,1758.09,2969.39Z"/></g><g class="cls-7"><path class="cls-2" d="M1751.36,3083l-.52.13-.35.09-3.7.93-3,.68q-15.31,3.75-30.53,7l-1.85.43s-83.08,52.69-197.16,62.85-252.84-10.56-252.84-10.56l21.17,44.22c.65.16,1.32.36,2,.48,2.53.45,254.72,37.32,457.58-31.7,9.11-18.75,17.27-76.64,17.27-76.64Z"/></g><g class="cls-7"><path class="cls-2" d="M1366.92,2800.17l.87,29.67a2728.24,2728.24,0,0,0,337.12-7.93c-1.69,19.21-7.12,42.38-22,60.74-21.86,27-45.79,48.78-58,59.26,51.73-2.25,106.4-10,159.2-27.17V2813.42h0v-27.86C1674.82,2795.39,1496.67,2800,1366.92,2800.17Z"/></g><g class="cls-7"><path class="cls-2" d="M1080.48,2695.56c-14.91,13.39-61.55,50.75-130.18,63.79a194.69,194.69,0,0,1-22.52,2.77l-.94,1v30.28c16.33-2.39,93.13-15,145.56-47.6,0,0,33.57,51.95,187.68,74.59-1.95,15-6,41.54-12.66,62.24-7.91,24.7-31.79,43.54-40.63,52a709.59,709.59,0,0,0,141-18c2.91-1.23,6.52-2.54,9.77-3.66l-3.29-112.88C1182.33,2798.19,1099.88,2717.69,1080.48,2695.56Z"/></g><g class="cls-7"><path class="cls-2" d="M1596.63,2548q-21.15-14.94-40.08-31.37a6.24,6.24,0,0,1-3.61-3q-59.75-52.71-96.67-120.36c-17.67-3.56-47.5-10.39-47.58-10.41,30.7,75.12,73,163.18,112.12,191.58,12.34-.13,31.8-.69,40.38-2.83C1571.58,2568.92,1589.69,2553.93,1596.63,2548Z"/></g><path class="cls-14" d="M1546.48,2490.38l42.24-40.57c-36-21.58-62.87-49.42-82.91-78.84-9.11,7.55-25.21,20.23-34.28,23.45A428.39,428.39,0,0,0,1546.48,2490.38Z"/><g class="cls-7"><path class="cls-2" d="M1912.63,1897.55s-3.66,123.8-22,175.44S1724.49,2271.8,1650,2298.06s-158.17,22.2-158.43,22.18c24,52.22,66.13,107.16,139.74,136.84,21.87-11.63,180.69-98.48,282.44-219.83.07-.4,22.13-120.69,22.13-167S1912.63,1897.55,1912.63,1897.55Z"/></g><g class="cls-7"><path class="cls-2" d="M1266.88,2145.62l-2.31,55.3,165.36,5.83,30.06-30.83,21-21.53c-36.65-1.9-209-6.8-209-6.8Z"/></g><g class="cls-7"><path class="cls-2" d="M1465.49,1836.87c4.89-19.55,8.14-76.56,8.14-76.56s89.59-15.87,94.48-20.56,14.84-19.86,14.84-19.86h0c-5.44,2.68-10.15,4.5-13.78,5.1-25.56,4.27-117.09-14.29-147.62-20.75,6.9,30,21.38,103,3.41,119.37-19,17.35-254.15,153.82-264.15,159.62a6.28,6.28,0,0,1-3.16.85l-.17,0c0,.65,0,1.29,0,1.92,20.4,2,42.54,5.16,66.21,9.57l.76,0C1227.66,1991.62,1460.6,1856.42,1465.49,1836.87Z"/></g><g class="cls-7"><path class="cls-2" d="M969.07,1676c-1.63,6.11-22.4,22.4-27.28,35.43s24.43,24.84,76.55,83.89c45.69,51.75,102.43,139.78,115.76,160.75,1.45-5,3.11-10.61,5-16.68-7.22-16.8-62.06-138.88-164.85-224.74a6.31,6.31,0,0,1,1-10.36c14.94-8.34,28.86-18.93,31.1-23.55-3.93-6.26-26.36-25.12-42.95-39.06-19.05-16-31.16-26.46-38.51-33.82C924.83,1607.87,970.7,1669.9,969.07,1676Z"/></g><g class="cls-8"><path class="cls-9" d="M263.33,1707.52A124.4,124.4,0,0,0,262,1739c9.05-24.06,26.86-64.49,48.15-76.81,25.31-14.66,63.25-14.06,76.25-13.35,1.28-6.52,2.91-13.24,5-20.18-22.43-6.1-100.55-21.68-127,48-5.51,14.47-9.16,31-11.16,48.51v.19C255.74,1717.27,259.12,1711.09,263.33,1707.52Z"/></g><g class="cls-8"><path class="cls-9" d="M485.07,1584.39c62.67-14.61,142.35,52.47,143,53-13.56-25.68-33.73-51.52-63.3-66.07-35-17.22-71.45-19.22-102.71-5.65a104.31,104.31,0,0,0-58.28,65.66,178.3,178.3,0,0,0-7.52,38.51C407.5,1646.44,437,1595.59,485.07,1584.39Z"/></g><g class="cls-8"><path class="cls-9" d="M916.76,1579.24c2.57-13.61,7.28-33.65,10.83-48.25-54.2,43.56-137.49,123.83-193.19,240.13l20.35,23.1c10.51-19.6,54.71-100.32,91.74-143A902.87,902.87,0,0,1,916.76,1579.24Z"/></g><g class="cls-8"><path class="cls-9" d="M799.66,1849.9l-13.25-18.13-63.63-54.88-.1-.07L663.57,1724c-3.67,14.22-7.87,27.56-12.47,40.15,14.08,10,53.8,37.9,88.29,58.92C782.15,1849.09,799.66,1849.9,799.66,1849.9Z"/></g><g class="cls-8"><polygon class="cls-9" points="779.51 1822.32 779.51 1822.32 779.51 1822.32 779.51 1822.32"/></g><g class="cls-8"><path class="cls-9" d="M1017.53,2023.79c0,1.22,97.33-7,150.68,0,49.78,6.48,85.83,15.42,90.42,16.58l.08-2L1232.55,2010c-133-26.7-219.51-9.66-234.18-6.33l-28.56,42a6.34,6.34,0,0,1-5.22,2.76H809.08l-3.28,31.25c27.59-.47,163.81-2.91,172.23-5.63C987.4,2071,1017.53,2022.57,1017.53,2023.79Z"/></g><g class="cls-8"><polygon class="cls-9" points="1268.86 2098.02 1531.43 2102.64 1553.49 2080.01 1269.91 2072.99 1268.86 2098.02"/></g><g class="cls-8"><path class="cls-9" d="M1054.09,2228.88c59.54-85.35,132.4-142.43,132.43-142.45-60.27,29.43-136.23,101.5-141.49,106.54-5.2,6.67-108.47,140.65-145.56,285.94a79.19,79.19,0,0,0,10.6,8.67l2.6-3.82S994.54,2314.25,1054.09,2228.88Z"/></g><g class="cls-8"><path class="cls-9" d="M1588.81,1903.5c-.1-6.93-.28-13.86-.34-20.79v14.84Z"/></g><g class="cls-8"><path class="cls-9" d="M1411.29,2272.33c-2.34-10.4-4.47-20.94-6.21-31.71l-38.84,27.9c1.93,5.77,5.75,17,11,31.87C1377.21,2300.09,1393.2,2287,1411.29,2272.33Z"/></g><g class="cls-8"><path class="cls-9" d="M1437,2217.56c-.13.14-.32.19-.46.31s-.22.3-.38.41l-19.61,14.09c1.58,10.55,3.54,20.86,5.7,31.06,11.59-9.39,22.87-18.49,30.4-24.57-2.52-13.2-4-24.37-4.77-32.45Z"/></g><g class="cls-8"><path class="cls-9" d="M1650.37,2053.93c.82-9-24.43-72.9-36.24-123.4s-25.66-118.91-25.66-118.91v13.85q2.7,54.66,7.15,109.17c1.52,18.15,3.2,36.29,5.27,54.35s4.37,36.1,7.66,53.76a4.59,4.59,0,0,1,0,.83,6.17,6.17,0,0,1,0,.86,6,6,0,0,1-.53,2h0a6.13,6.13,0,0,1-2.48,2.85l-33,29.28L1466,2187.82l-6.42,6.58a314.56,314.56,0,0,0,4.19,35.31C1483.59,2211.9,1649.61,2062.35,1650.37,2053.93Z"/></g><g class="cls-8"><path class="cls-9" d="M1852.16,1678.66c26.08,28.37,62.44,103,79,138.68-12.54-60-27.29-114.21-42.34-139.75-27.09-46-98.11-95.69-139.41-122-1.37,7.83-4.59,23-10.6,36.23C1763.59,1607.85,1824.73,1648.83,1852.16,1678.66Z"/></g><g class="cls-8"><path class="cls-9" d="M1109.36,2949.16s-22.55-6.35-47.76-13.68c-77-14.76-127.31-38.63-140.61-45.46-53.36,37.31-179.45,131.47-200.19,173.18l206-132.3S966.84,2953.6,1109.36,2949.16Z"/></g><g class="cls-8"><path class="cls-9" d="M1392.59,2966.94s138.46,20.37,215.43-6.51c0,0-13.84-2.61-28.89-5.31A933.4,933.4,0,0,1,1380.22,2930c-47.67,50.73-114.32,122.22-138,148.86,1,1.08,2.06,2.38,3,3.63,6.32,1.23,14.53,2.74,24.38,4.38,1.86-1.33,3.25-2.37,3.25-2.37S1367.35,2999.52,1392.59,2966.94Z"/></g><g class="cls-8"><path class="cls-9" d="M727.94,2659.18c.86,11.72,1.64,21.79,1.64,21.8h0s16.74-31.28,34.65-73.62,44.8-276.11,45.61-306.24c.75-27.73-19.09-47.88-22.27-50.93-3.18,25.48-7.46,56.85-13,91.83C764.4,2405.67,741.14,2567.05,727.94,2659.18Z"/></g><g class="cls-7"><polygon class="cls-2" points="729.58 2680.98 729.58 2680.98 729.58 2680.98 729.58 2680.98"/></g><g class="cls-8"><polygon class="cls-9" points="729.58 2680.98 729.58 2680.98 729.58 2680.98 729.58 2680.98"/></g><path class="cls-2" d="M387.72,1977.51c-26,0-48.68-4.52-65.45-11.9C239,1928.94,206.5,1764.49,243,1668.51c30.57-80.4,119.16-74.21,161.72-59.7a16.52,16.52,0,0,1-10.64,31.28c-4.08-1.37-93.38-30.35-120.2,40.17-30.67,80.64-3.94,226.21,61.69,255.11,31.42,13.83,93.56,14.58,155.78-16.45,53.28-26.57,123-84.65,152.54-210.44a16.52,16.52,0,1,1,32.16,7.56c-32.48,138.26-110.35,202.72-169.95,232.44C464.57,1969.2,423,1977.51,387.72,1977.51Z"/><path class="cls-2" d="M535.85,1675c11.46,60.46,21,162.3-38.58,200.34-33.11,19.24-71.74,31.5-110.21,27.26C372,1900.9,357,1896.92,344,1889.4c27.31,12,58.72,10.78,86.75,2.55a185.64,185.64,0,0,0,39.92-17.57c11.85-7.14,24.16-14.24,32-26,28.76-45.13,14.8-116,1.34-164.88-6.36-22.07,26.27-31,31.91-8.56Z"/><path class="cls-2" d="M521.49,1678.84c34,60.53,43.86,156.89-21.52,200.59-33.91,19.75-73.82,31.6-113.1,26.25-15.46-2.07-30.54-6.52-43.74-14.85a1.65,1.65,0,0,1,1.67-2.85c13.37,5.41,28.36,7.33,42.72,7.18,28.83-.51,56.4-10.48,80.91-25.06,26.53-14.27,38.36-30.28,42.46-60.86,6.56-42.87,5.52-84.39,7.41-129.54a1.73,1.73,0,0,1,3.19-.86Z"/><path class="cls-2" d="M675.83,2216.16c-19.54,0-39.6-1.79-58.54-6.53-77.41-19.35-207.55-218.18-222.13-240.79a16.52,16.52,0,0,1,27.76-17.91c37.67,58.39,147.47,212.92,202.38,226.65,54.39,13.6,122.51-1.23,148.11-7.87l14.71-140.31a16.52,16.52,0,1,1,32.86,3.44l-15.88,151.5a16.54,16.54,0,0,1-11.52,14C790.55,2199.33,735.63,2216.16,675.83,2216.16Z"/><path class="cls-2" d="M738.5,1760.38l53.83,76.49-77.06-53c-20.69-16.17,6.84-44,23.23-23.48Z"/><path class="cls-2" d="M965.7,2524.5c-53.67,0-82.19-33.1-83.75-35a13.76,13.76,0,0,1-2.8-12.15C914.26,2335.81,1008.27,2208,1026.57,2184v-124.8a13.81,13.81,0,0,1,4.07-9.78,13.26,13.26,0,0,1,9.82-4l138,1.22A13.71,13.71,0,0,1,1186,2049l29.32,19.32a13.72,13.72,0,0,1,6.15,10.44c1.24,16,7.38,96.42,7.38,103.9,0,5,0,11.19-58.46,80.31h49.38l23.29-27,8.11-194.75-22.41-24.27c-123.46-24.39-205.75-10.7-225.86-6.51L976,2049.86a13.75,13.75,0,0,1-11.38,6H803.39a13.77,13.77,0,0,1,0-27.53H957.31l25.83-38a13.75,13.75,0,0,1,7.81-5.55c3.85-1,95.91-24.92,247.6,5.91a13.79,13.79,0,0,1,7.38,4.16l29.32,31.76a13.79,13.79,0,0,1,3.63,9.91l-8.55,205.24a13.81,13.81,0,0,1-3.32,8.42l-30.55,35.43a13.77,13.77,0,0,1-10.43,4.78h-78.81c-82,105.82-112.89,211.3-113.2,212.37a13.75,13.75,0,0,1-8,9C1003.26,2521,983.15,2524.5,965.7,2524.5Zm-57.89-48c11.89,10.26,45.92,32.36,101.79,12.12,8.36-26,42.72-122.62,120.1-220.42a1.58,1.58,0,0,1,.12-.15l.31-.38c30.64-35.67,64.26-76.64,71-87.66-.66-12.25-4.14-59.17-6.67-92.43l-20.3-13.38-120.1-1.06v115.61a13.74,13.74,0,0,1-3,8.53C1050.08,2198.6,946.19,2331.44,907.81,2476.47Z"/><path class="cls-2" d="M1040.34,2202.49a13.77,13.77,0,0,1-9.57-23.67c3.89-3.75,96-92.21,163.41-117.65a13.77,13.77,0,1,1,9.72,25.76c-62.09,23.43-153.09,110.82-154,111.7A13.72,13.72,0,0,1,1040.34,2202.49Z"/><path class="cls-2" d="M1432.5,2226.92H1432l-174.5-6.16a13.77,13.77,0,0,1,1-27.52l168.41,5.94L1536.23,2087l-271.44-6.72a13.77,13.77,0,0,1,.68-27.53l303,7.5a13.78,13.78,0,0,1,9.52,23.38l-135.61,139.11A13.78,13.78,0,0,1,1432.5,2226.92Z"/><path class="cls-2" d="M1000.12,2259.87a13.74,13.74,0,0,1-10.14-4.44L958.29,2221l-166.18-7.56A13.78,13.78,0,0,1,779.18,2202l-3.67-20.81a13.76,13.76,0,1,1,27.11-4.78l1.76,10,160.84,7.32a13.74,13.74,0,0,1,9.51,4.44l35.53,38.65a13.76,13.76,0,0,1-10.14,23.08Z"/><path class="cls-2" d="M1360.42,2810.39c-164.22,0-251-70.49-280.73-100.74-20.91,17.08-65.67,48-127.49,59.73-84.26,16-238-26.2-244.51-28a16.5,16.5,0,0,1-11.94-18.24c.42-2.92,41.72-293.59,56.24-384.7,14.39-90.31,20.16-156.57,20.22-157.23a16.52,16.52,0,1,1,32.92,2.83c-.06.67-5.92,68-20.51,159.59-12.6,79.06-45.48,309.23-54.08,369.56,39.45,9.89,152.56,35.69,215.49,23.74,75-14.26,122.81-61.69,123.28-62.17a16.54,16.54,0,0,1,25,1.7c.73,1,79,100.9,266.14,100.9,205.14,0,456.35-10.24,504.49-26.8,52.64-18.09,106.13-73.07,106.13-93.51,0-28.87-54.23-403.56-58.24-424.8-1.5-6.34-.11-11,11.16-45.61,12.12-37.28,32.42-99.68,32.42-127.41,0-42.9-38.1-311.61-76.31-376.45-33.45-56.77-138.34-120.6-161.9-134.46-55.82,7.28-469.76,56.63-738.09-43.08-30.66,19.89-162,111.91-238.25,273.93a16.52,16.52,0,0,1-26,5.27L649,1724.57a16.54,16.54,0,0,1-5.34-10c-.14-1-15.32-100.63-83.37-134.11-32.25-15.87-65.68-17.8-94.14-5.45a94.14,94.14,0,0,0-52.58,59.27c-12.37,40.76-7.52,66,1.13,75.93,1.94,2.23,7.82,9,24.53,6.47,39.59-6.09,66.66-46.14,66.92-46.55a16.54,16.54,0,0,1,29.41,3.77l2.88,8.43a16.54,16.54,0,0,1-17.25,21.79c-14.64,16.2-41.4,39.74-76.94,45.21-28.68,4.43-45.48-7.06-54.51-17.47-19-21.88-21.81-60.94-7.79-107.18a127.2,127.2,0,0,1,71-80c37.51-16.28,80.79-14.11,121.88,6.11,73.73,36.28,95.75,128.08,100.46,153l46.38,41.49c92.09-179.74,241.7-268.83,248.24-272.66a16.49,16.49,0,0,1,14.31-1.15c273.53,105.73,730.5,44,735.08,43.35a16.54,16.54,0,0,1,10.4,2c5.56,3.14,136.75,77.78,178.84,149.2,42.56,72.22,80.88,346.09,80.88,393.22,0,33-20.49,96-34.05,137.64-4.07,12.52-8.64,26.58-9.82,31.57,6.24,40.72,58.53,394.52,58.53,428.61,0,42.65-71.82,105.3-128.43,124.76C1815.07,2802.63,1527.47,2810.39,1360.42,2810.39ZM1945,2224.62c0,.11.16,1,.41,2.58A15.11,15.11,0,0,0,1945,2224.62Z"/><path class="cls-2" d="M1132.89,1998.3a13.76,13.76,0,0,1-13.39-17c1.13-4.64,28.19-114.6,76.24-199.22s201.16-236,207.65-242.4a13.77,13.77,0,0,1,19.33,19.61c-1.56,1.54-156.89,155.09-203,236.38s-73.16,191-73.42,192.14A13.79,13.79,0,0,1,1132.89,1998.3Z"/><path class="cls-2" d="M1157.63,1991.54a13.76,13.76,0,0,1-6.92-25.67c94-54.51,247.85-145.35,260.7-157.08,6-8.51.64-59.83-11.71-109.5a13.76,13.76,0,0,1,16.32-16.76c47.61,10.48,130.36,25.89,149.83,22.66,22.8-3.8,130.18-91,148.41-111.28,9.63-10.7,15-37.64,16.13-46.23a13.77,13.77,0,1,1,27.3,3.57c-.56,4.26-5.94,42.15-23,61.08-14.29,15.88-128.93,114.12-164.35,120-24.26,4.05-100.61-10.5-139-18.42,9.21,42.55,16.89,98.49-1.41,115.19-19.27,17.6-240.3,146-265.45,160.56A13.7,13.7,0,0,1,1157.63,1991.54Z"/><path class="cls-2" d="M1145.76,1952.76a13.79,13.79,0,0,1-12.76-8.58c-.54-1.33-55-133.15-163.57-223.8a13.78,13.78,0,0,1,2.12-22.59c9.61-5.37,19.7-12.37,24.9-17.08-7.89-8.09-25.48-22.87-37.9-33.31-41.42-34.81-51.1-44.05-51.1-54.87,0-11.79,13.3-65.26,17.37-81.36a13.77,13.77,0,1,1,26.69,6.75c-7,27.85-14.66,60.85-16.23,71.82,6.07,7.24,26.84,24.69,41,36.59,42,35.31,51,43.93,50.32,55-.22,3.73-.82,13.86-25.12,30.43,104.22,94,154.85,216.67,157,222.08a13.78,13.78,0,0,1-12.75,19Z"/><path class="cls-2" d="M1150.87,1936.74c-.34,0-.67,0-1,0a13.78,13.78,0,0,1-12.74-14.72c16.06-223.77-30.21-391.14-30.68-392.81a13.77,13.77,0,0,1,26.5-7.48c2,7,48.07,173.39,31.64,402.26A13.76,13.76,0,0,1,1150.87,1936.74Z"/><path class="cls-2" d="M787.12,2031.93a1238.93,1238.93,0,0,1,43.65-141.2c17.54-45.59,37.61-91.22,67-130.42-24.64,42-39.11,88.62-51.28,135.41a1214.78,1214.78,0,0,0-26.88,142.13c-3.69,22.74-37.06,16.78-32.52-5.92Z"/><path class="cls-2" d="M1081.06,2700.12h-.16a13.76,13.76,0,0,1-13.61-13.92c.13-10.39,3.22-255.55,20.85-357.68a13.76,13.76,0,1,1,27.13,4.67c-17.25,100-20.41,350.81-20.44,353.33A13.77,13.77,0,0,1,1081.06,2700.12Z"/><path class="cls-2" d="M1571.92,2617.07c-17.13,0-38.17-5.81-62.92-23-78.61-54.68-162.4-311.94-165.93-322.87a16.51,16.51,0,0,1,6.09-18.49l50.72-36.43c.17-.14.36-.27.54-.39l22.44-16.12a16.52,16.52,0,1,1,19.28,26.83L1427.62,2237c20.8,128.77,87,230.4,196.72,302.2,12.06,7.89,18.12,11.85,18.12,21.73,0,11.62-14.63,36.13-37.55,48.11A70.6,70.6,0,0,1,1571.92,2617.07Zm-193.64-344.63c26.44,78.82,94.74,256.32,149.58,294.48,22,15.31,41,20.4,56.52,15.08,9.69-3.31,16.55-10.27,20.69-15.93-112.59-74-182.21-177.46-207.22-307.69Z"/><path class="cls-2" d="M1631.64,2480.53a16.6,16.6,0,0,1-6-1.13c-183.32-71.62-188.92-285.05-189-287.19a16.52,16.52,0,0,1,4.69-11.81l114.92-117.88c.28-.29.57-.57.88-.84l34.2-30.3a16.52,16.52,0,1,1,21.91,24.73l-33.75,29.9-109.44,112.26c2.54,33.88,21.72,188.5,160.62,247.52,33.93-18.41,190.35-107.18,285.25-227.4a16.53,16.53,0,1,1,25.94,20.48C1831,2379.34,1647,2474.72,1639.18,2478.71A16.53,16.53,0,0,1,1631.64,2480.53Z"/><path class="cls-2" d="M1588.47,1825.47c7.46,72.07,14.64,145,30.16,215.68,4.43,21.42-26.49,28.85-32.23,7.68-5.81-74.56-1.25-148.95,2.07-223.36Z"/><path class="cls-2" d="M1558.49,2527.13a16.53,16.53,0,0,1-6.94-31.53c40.49-18.7,49.36-42.53,49.43-42.76a16.52,16.52,0,0,1,31.59,9.69c-1.17,3.82-13,38.06-67.16,63.07A16.43,16.43,0,0,1,1558.49,2527.13Z"/><path class="cls-2" d="M1187.31,2958.13c-164.7,0-269.2-57.86-274.93-61.11a16.53,16.53,0,0,1-8.37-14.37V2756.22a16.52,16.52,0,0,1,33,0v116.3c37.2,17.87,195.11,83.77,410.13,33.87l-3.27-112a16.52,16.52,0,1,1,33-1l3.67,125.43a16.51,16.51,0,0,1-12.49,16.5A740.48,740.48,0,0,1,1187.31,2958.13Z"/><path class="cls-2" d="M1590.18,2965.9c-125.18,0-224.58-28.92-230.8-30.77a16.52,16.52,0,0,1,9.41-31.67c2.17.64,215,62.4,405.15,3.8V2778.65a16.52,16.52,0,0,1,33,0V2919.3a16.52,16.52,0,0,1-11.27,15.66C1726.53,2958.16,1654.91,2965.9,1590.18,2965.9Z"/><path class="cls-2" d="M986.88,3178c-134.24,0-266.45-6-275.54-6.41a16.52,16.52,0,0,1-15.05-11.74c-.52-1.72-12.53-42.7-.27-95.26,12.23-52.4,181.31-172.05,215.09-195.51A16.52,16.52,0,1,1,930,2896.22c-79.64,55.31-194.89,146.46-201.76,175.88a177.67,177.67,0,0,0-2.56,67c63.8,2.62,350,13.16,478.27-3.33,1.06-21.63,3.79-49,10.83-59.51,7.51-11.27,117.74-128.79,151.35-164.55a16.52,16.52,0,1,1,24.07,22.63c-53,56.39-139.18,148.84-147.76,160-2.64,6.09-5.4,32-6,56.16a16.52,16.52,0,0,1-13.91,15.94C1167.19,3175.33,1076.58,3178,986.88,3178Z"/><path class="cls-2" d="M1442.23,3222.53c-77.22,0-138.4-6.63-161.73-10.87-31.47-5.73-68.66-45.8-72.8-50.35a16.52,16.52,0,0,1,24.44-22.23h0c13.7,15,39.59,37.4,54.27,40.07,2.63.48,276.26,40.55,480.69-41.74,7.74-19,31.76-91.88,7.16-214.87a16.52,16.52,0,0,1,32.4-6.48c31.34,156.69-10.79,238.48-12.6,241.89a16.65,16.65,0,0,1-8.23,7.5C1677.4,3210.68,1545.48,3222.53,1442.23,3222.53Z"/><path class="cls-2" d="M1473.44,3126.72c-141.14,0-241.86-23.53-248.82-25.2a16.52,16.52,0,0,1,7.71-32.13c2.79.66,282.37,65.76,562.83-22.52a16.52,16.52,0,0,1,9.93,31.51C1687,3115.54,1570.64,3126.72,1473.44,3126.72Z"/><path class="cls-2" d="M995.32,3101c-180.72,0-284.4-16.08-285.82-16.31a16.52,16.52,0,0,1,5.2-32.63c1.94.31,197.24,30.49,521,6.92a16.52,16.52,0,1,1,2.4,33C1146.65,3098.56,1065.21,3101,995.32,3101Z"/><path class="cls-2" d="M1713.13,828.3c-33.54-5.78-245.87-41.66-358-43.07,2.21,36.55,20,216.68,156.48,257.78,55.25,16.62,103.86,8.54,140.59-23.41C1698.27,979.55,1723,901.43,1713.13,828.3Z"/><path class="cls-4" d="M1151.87,726c4,17.07,7.21,42.55,4.09,74.58,21.14-6.19,73.27-17.38,120.09,4.67a279.26,279.26,0,0,1,13.23-68.37C1238.78,717.67,1173,723.47,1151.87,726Z"/><path class="cls-4" d="M1781.62,868.59c-1.85-57.21-18.47-102.19-40.43-109.37-58.42-19.1-390.18-37.55-431.53-39.79-8.54,18.85-44.39,109.62,1.92,217,53.82,124.77,208.71,219.5,353.48,161.57C1755.39,1061.86,1784.31,951.83,1781.62,868.59Zm-216.2,195.52c-18.23,0-37.44-3-57.43-9-160.16-48.23-165.72-273.83-165.76-276.11a6.32,6.32,0,0,1,6.32-6.41c120.1,0,368.77,43.63,371.27,44.08a6.3,6.3,0,0,1,5.14,5.25c10.26,66.33-5.69,156.13-64.45,207.23C1633.81,1052.35,1601.55,1064.11,1565.42,1064.11Z"/><path class="cls-2" d="M783.51,726.76c-6.76,25-39,158.15,22.32,223.73,29,31.06,81.83,39.36,134.45,21.12,82.56-28.6,137.82-109.52,148.57-217.05C1057.94,748.08,901.53,717.08,783.51,726.76Z"/><path class="cls-4" d="M756.23,671.28c-49.52,90.25-58.14,209.52-20.31,284.89,24.08,48,65.53,77,119.87,84,155.65,20,245-83.05,276.59-186.17,23.84-77.77,6-132.47,1.34-144.49C966.12,658.11,782.92,669.29,756.23,671.28ZM944.42,983.54a179.76,179.76,0,0,1-58.68,10.22c-35.75,0-67.9-12-89.13-34.64-72.51-77.52-26-233.51-24-240.11a6.3,6.3,0,0,1,5.46-4.45C911.28,702.4,1095.19,743,1097,743.4a6.3,6.3,0,0,1,4.91,6.69C1092.12,865.49,1033.24,952.76,944.42,983.54Z"/><path class="cls-6" d="M783.51,726.76c-3.81,14.06-15.7,62.44-14.41,113.74L875.22,726C844,724.47,812.57,724.38,783.51,726.76Z"/><path class="cls-6" d="M929.89,730.19,780.47,907.78c5.7,15.83,13.9,30.45,25.36,42.71,1.5,1.6,3.09,3.1,4.71,4.58C835.34,925.28,960.41,770,986.92,737,969,734.53,949.81,732.16,929.89,730.19Z"/><path class="cls-6" d="M1156.3,754.92a248.86,248.86,0,0,1-.34,45.69c21.14-6.19,73.27-17.38,120.09,4.67a281.86,281.86,0,0,1,5.85-41.15C1247,742.37,1174.82,752,1156.3,754.92Z"/><path class="cls-6" d="M1490.3,1035c12.31-24.39,91.9-195.11,106.76-225.08-23.59-3.45-49-7-74.91-10.27L1418.94,977.14C1437.1,1001,1460.4,1021.56,1490.3,1035Z"/><path class="cls-6" d="M1652.22,1019.6c46-40.05,70.77-118.17,60.91-191.3-7-1.21-21.78-3.72-41.73-6.95l-105.59,230C1598.75,1051.23,1628.07,1040.61,1652.22,1019.6Z"/><path class="cls-6" d="M1466.15,793c-40.76-4.34-79.77-7.41-111-7.81,1.1,18.22,6.09,72.1,27.7,126.66Z"/><path class="cls-6" d="M856.62,978.07c25.22,5.58,54.45,3.67,83.66-6.46,82.56-28.6,137.82-109.52,148.57-217.05-9.15-1.92-29.38-6-56.3-10.52C1011.26,774.85,876,952.6,856.62,978.07Z"/><path class="cls-6" d="M1115.7,728s-65.57-22.8-169-31.35-174.91-3.57-177.7-2-43.34,58.09-45.29,60.82a369.67,369.67,0,0,0-11,76.72c1.37,10.61,23.48,164.33,156.18,184.38,137.42,20.76,256.84-143.22,256.87-143.26,2.42-6.39,4.62-12.82,6.59-19.24,10.75-35.07,13-65.39,11.82-89.28ZM944.42,983.54a179.76,179.76,0,0,1-58.68,10.22c-35.75,0-67.9-12-89.13-34.64-72.51-77.52-26-233.51-24-240.11a6.3,6.3,0,0,1,5.46-4.45C911.28,702.4,1095.19,743,1097,743.4a6.3,6.3,0,0,1,4.91,6.69C1092.12,865.49,1033.24,952.76,944.42,983.54Z"/><path class="cls-6" d="M1601.12,1090c155.15-12.15,177.13-185.72,180.18-228-1.31-24.75-5.4-46.92-11.49-64.37-17.29-13.78-94.68-26.74-227.74-39.56s-214.2-11-214.2-11l-30.58,25.46-3.48-2a277.32,277.32,0,0,0,7.35,137.79C1336.63,957.29,1454.16,1101.52,1601.12,1090ZM1344.05,774.45a6.28,6.28,0,0,1,4.5-1.88c120.1,0,368.77,43.63,371.27,44.08a6.3,6.3,0,0,1,5.14,5.25c10.26,66.33-5.69,156.13-64.45,207.23-26.7,23.22-59,35-95.09,35-18.23,0-37.44-3-57.43-9-160.16-48.23-165.72-273.83-165.76-276.11A6.35,6.35,0,0,1,1344.05,774.45Z"/><g class="cls-7"><path class="cls-2" d="M868.92,1016.5c-132.7-20-154.81-173.77-156.18-184.38-1.6,45.88,5.87,89.57,23.18,124,24.08,48,65.53,77,119.87,84,146,18.78,233.57-70.68,270-166.93C1125.76,873.28,1006.34,1037.26,868.92,1016.5Z"/></g><g class="cls-7"><path class="cls-2" d="M1601.12,1090c-147,11.52-264.49-132.71-300-181.67a290.56,290.56,0,0,0,10.42,28.09c53.82,124.77,208.71,219.5,353.48,161.57,90.33-36.13,119.25-146.16,116.56-229.4-.07-2.21-.2-4.37-.32-6.55C1778.25,904.28,1756.27,1077.85,1601.12,1090Z"/></g><g class="cls-7"><path class="cls-2" d="M1722.19,1076.06c41-32.88,57.81-78.54,63.63-120C1775.56,1000.9,1755.47,1044.62,1722.19,1076.06Z"/></g><path class="cls-15" d="M986.92,737C960.41,770,835.34,925.28,810.54,955.07c12.37,11.29,28.2,19,46.08,23C876,952.6,1011.26,774.85,1032.55,744,1018.89,741.74,1003.5,739.33,986.92,737Z"/><path class="cls-16" d="M875.22,726,769.1,840.5c.57,22.77,3.74,46.11,11.37,67.28L929.89,730.19C912,728.42,893.66,727,875.22,726Z"/><path class="cls-17" d="M1511.63,1043a185.83,185.83,0,0,0,54.18,8.35l105.59-230c-20.27-3.28-45.91-7.3-74.34-11.46-14.86,30-94.45,200.69-106.76,225.08A177.48,177.48,0,0,0,1511.63,1043Z"/><path class="cls-18" d="M1418.94,977.14l103.21-177.52c-18.66-2.37-37.51-4.61-56-6.58l-83.3,118.85C1391.75,934.35,1403.52,956.89,1418.94,977.14Z"/><g class="cls-8"><path class="cls-9" d="M1327.87,747.11s81-1.83,214.2,11,210.45,25.78,227.74,39.56c-7.21-20.64-17.18-34.71-28.62-38.45-58.42-19.1-390.18-37.55-431.53-39.79-3.31,7.3-10.71,25.43-15.85,51.11l3.48,2Z"/></g><g class="cls-8"><path class="cls-9" d="M769,694.58c2.79-1.53,74.26-6.52,177.7,2s169,31.35,169,31.35l28.5,36.75c-1.43-29.08-7.93-48.61-10.48-55.21-167.6-51.4-350.8-40.22-377.49-38.23a354.7,354.7,0,0,0-32.52,84.12C725.66,752.67,766.27,696.07,769,694.58Z"/></g><g class="cls-8"><path class="cls-9" d="M1281.9,764.13a270.12,270.12,0,0,1,7.38-27.22c-50.5-19.24-116.28-13.44-137.41-10.88a209.12,209.12,0,0,1,4.43,28.89C1174.82,752,1247,742.37,1281.9,764.13Z"/></g><path class="cls-2" d="M894.62,1062.8a322.94,322.94,0,0,1-41.4-2.72c-61.26-7.87-108-40.69-135.24-94.9-41.69-83-32.49-209.14,22.37-306.67a13.79,13.79,0,0,1,10.76-7c8.35-.75,206.44-17.91,391.39,39.66a13.77,13.77,0,0,1,8.37,7.3c1.24,2.63,30,65.77.7,161.37C1120.45,961.38,1037.25,1062.8,894.62,1062.8ZM760.84,678.43c-46.73,87.8-54.58,202-18.26,274.39,23.25,46.31,61.65,73.2,114.15,80a292,292,0,0,0,37.06,2.43c128.36,0,203.33-91.68,231.46-183.4,21.4-69.78,8.22-120.23,2.73-136.25C969.47,667.83,797.8,676,760.84,678.43Z"/><path class="cls-2" d="M1573.5,1135.79c-44,0-88.34-10.9-130.32-32.53-66.6-34.32-121.28-92.24-150-158.89-55.73-129.19-1.84-233.54.48-237.91a13.79,13.79,0,0,1,12.88-7.3c15.34.8,376.41,19.88,440.93,41,37.4,12.22,52.61,76.49,54.26,127.81,2.9,89.72-29.2,208.69-129.17,248.68A265.69,265.69,0,0,1,1573.5,1135.79ZM1314.44,727.15c-10.47,25.28-38.09,108.77,4,206.32,52.44,121.56,203.13,213.89,343.87,157.6,86.74-34.7,114.48-141.4,111.87-222.23-1.93-59.73-19.62-97.41-35.29-102.53C1691.16,750.71,1445.79,734.19,1314.44,727.15Z"/><path class="cls-2" d="M1297.28,747.11a13.71,13.71,0,0,1-5.42-1.12c-58.95-25.27-144.81-11.81-145.67-11.67a13.77,13.77,0,0,1-4.41-27.18c3.83-.62,94.54-14.91,160.93,13.55a13.77,13.77,0,0,1-5.43,26.42Z"/><path class="cls-2" d="M1282.06,829.28a13.65,13.65,0,0,1-6.88-1.85c-52.58-30.43-121-5.17-121.7-4.91a13.77,13.77,0,0,1-9.79-25.74c3.29-1.25,81.2-30.26,145.28,6.82a13.77,13.77,0,0,1-6.91,25.68Z"/><path class="cls-2" d="M885.78,998.45c-37,0-70.47-12.47-92.6-36.12-74.35-79.48-27.14-238-25.09-244.7a11,11,0,0,1,9.53-7.75c134-12.25,312.88,27.24,320.43,28.93a11,11,0,0,1,8.58,11.68C1096.64,867.8,1036.58,956.58,946,988A184.51,184.51,0,0,1,885.78,998.45ZM787.2,731.18c-8,31-35.39,154.68,22.07,216.1,27.79,29.71,78.6,37.52,129.47,19.89,79.7-27.62,133.42-105.32,145-208.87C1045.44,750.45,899.59,722.72,787.2,731.18Z"/><path class="cls-2" d="M1565.44,1068.85c-17.59,0-37.15-2.73-58.81-9.25-163.42-49.22-168.94-271.12-169.1-280.54a11,11,0,0,1,11-11.19c120.52,0,361.87,42.34,372.09,44.14a11,11,0,0,1,9,9.17c10.45,67.6-5.91,159.22-66,211.5C1642.78,1050.78,1610.66,1068.85,1565.44,1068.85ZM1360.19,790c3.42,44.94,24.67,209.9,152.8,248.49,53.61,16.14,100.69,8.38,136.14-22.45,44.21-38.45,68.23-113.07,59.78-183.72C1667.09,825.18,1469.75,792.33,1360.19,790Z"/><path class="cls-6" d="M485.4,1885.26c10.67-2.74,30-8.94,37.22-16.6"/><path class="cls-4" d="M518.61,1847.78a277.29,277.29,0,0,1-35.47,31.77l2.26,5.71c10.67-2.74,30-8.94,37.22-16.6C523.93,1867.27,522.33,1859.73,518.61,1847.78Z"/><g class="cls-7"><polygon class="cls-2" points="485.4 1885.26 518.25 1968.35 485.4 1885.26 485.4 1885.26"/></g><path class="cls-4" d="M542.73,1812.07c-4.93,12.54-14.11,24.88-24.12,35.71,3.72,12,5.32,19.49,4,20.88-7.2,7.66-26.55,13.86-37.22,16.6l32.85,83.09c59.93-21.63,70.91-39.22,72.79-43.64Z"/><g class="cls-7"><path class="cls-2" d="M542.73,1812.07c-4.93,12.54-14.11,24.88-24.12,35.71,3.72,12,5.32,19.49,4,20.88-7.2,7.66-26.55,13.86-37.22,16.6l32.85,83.09c59.93-21.63,70.91-39.22,72.79-43.64Z"/></g><path class="cls-2" d="M518.52,1998.39A16.48,16.48,0,0,1,503.17,1988l-38.75-97.26a16.52,16.52,0,0,1,8.53-21.16c44.37-20.11,47.51-78.41,47.54-79A16.53,16.53,0,0,1,552,1784.4l60.7,132.95a16.38,16.38,0,0,1,1.49,7.1c-.15,10.24-9.13,37.81-89.11,72.57A16.38,16.38,0,0,1,518.52,1998.39Zm-18-106.37,26.93,67.62c35.43-17.06,48-29.74,52.15-35.31l-37.94-83.09C534,1859.2,521.31,1878.41,500.51,1892Z"/></svg>