<svg width="25" height="24" viewBox="0 0 25 24" fill="none" xmlns="http://www.w3.org/2000/svg">
<path d="M6.71289 22C6.16289 22 5.69189 21.804 5.29989 21.412C4.90789 21.02 4.71223 20.5493 4.71289 20V8.825C4.71289 8.55833 4.76289 8.30433 4.86289 8.063C4.96289 7.82167 5.10456 7.609 5.28789 7.425L10.1379 2.575C10.3212 2.39167 10.5339 2.25 10.7759 2.15C11.0179 2.05 11.2719 2 11.5379 2H18.7129C19.2629 2 19.7339 2.196 20.1259 2.588C20.5179 2.98 20.7136 3.45067 20.7129 4V20C20.7129 20.55 20.5169 21.021 20.1249 21.413C19.7329 21.805 19.2622 22.0007 18.7129 22H6.71289ZM12.7129 16.575C12.8462 16.575 12.9712 16.554 13.0879 16.512C13.2046 16.47 13.3129 16.3993 13.4129 16.3L16.0379 13.675C16.2212 13.4917 16.3129 13.2667 16.3129 13C16.3129 12.7333 16.2129 12.5 16.0129 12.3C15.8296 12.1167 15.5962 12.0207 15.3129 12.012C15.0296 12.0033 14.7962 12.0993 14.6129 12.3L13.7129 13.15V10C13.7129 9.71667 13.6169 9.479 13.4249 9.287C13.2329 9.095 12.9956 8.99933 12.7129 9C12.4296 9 12.1919 9.096 11.9999 9.288C11.8079 9.48 11.7122 9.71733 11.7129 10V13.15L10.8129 12.275C10.6129 12.0917 10.3796 12 10.1129 12C9.84623 12 9.61289 12.1 9.41289 12.3C9.22956 12.4833 9.13789 12.7167 9.13789 13C9.13789 13.2833 9.22956 13.5167 9.41289 13.7L12.0129 16.3C12.1129 16.4 12.2212 16.471 12.3379 16.513C12.4546 16.555 12.5796 16.5757 12.7129 16.575Z" fill="white"/>
</svg>
