<svg width="111" height="20" viewBox="0 0 111 20" fill="none" xmlns="http://www.w3.org/2000/svg">
<path d="M10.3494 11.3164C10.1583 11.6474 9.90391 11.9375 9.6007 12.1701C9.29749 12.4028 8.95143 12.5734 8.58227 12.6723C8.21312 12.7712 7.8281 12.7964 7.44919 12.7465C7.07029 12.6966 6.70492 12.5726 6.37396 12.3815C5.70554 11.9956 5.21782 11.3599 5.01809 10.6143C4.81835 9.86879 4.92296 9.07444 5.30891 8.40602L9.96841 0.335938C12.7523 1.94317 13.706 5.50298 12.0988 8.28688L10.3494 11.3164Z" fill="url(#paint0_linear_124_97)"/>
<path d="M10.3494 11.318C10.015 11.8992 9.48955 12.3465 8.86244 12.5838C8.36064 12.4814 7.86925 12.3333 7.3944 12.1414C6.66097 11.8465 5.94937 11.5587 5.28671 11.2806C5.04153 10.8409 4.91467 10.345 4.91854 9.84161C4.92242 9.33817 5.0569 8.84437 5.30883 8.40849L6.02044 7.17578C6.06006 7.24116 6.09419 7.30972 6.12248 7.38074C6.12248 7.38074 5.46248 8.91661 8.45783 8.91661C9.58958 8.91549 10.7204 8.85179 11.8451 8.7258L10.3494 11.318Z" fill="#021B8D"/>
<path d="M6.72607 5.94866L7.71578 4.23438C7.82501 4.42942 7.89683 4.64316 7.92752 4.86459C8.08116 5.94512 7.49401 7.22707 7.49401 7.22707C7.48574 7.17021 7.47412 7.11388 7.45921 7.05839C7.39168 6.80005 7.205 6.29665 6.72607 5.94866Z" fill="#021B8D"/>
<path d="M10.3496 11.3176C9.99332 11.934 9.42352 12.3984 8.74797 12.623C8.07242 12.8476 7.33798 12.8168 6.68359 12.5365C7.88238 10.0413 9.88774 6.05563 9.93817 5.93501C11.1685 3.00336 9.96766 0.335938 9.96766 0.335938C12.7516 1.94317 13.7053 5.50297 12.0981 8.28688L10.3496 11.3176Z" fill="#021B8D"/>
<path d="M7.38279 10.668L18.4821 17.076C16.5712 19.0775 12.3455 20.3951 10.4634 17.7917L7.25244 13.3498L7.38279 10.668Z" fill="url(#paint1_linear_124_97)"/>
<path d="M7.38328 10.6641L14.7931 14.9434C13.8431 15.5711 12.7293 15.905 11.5907 15.9034H9.10051L7.25293 13.3474L7.38328 10.6655V10.6641Z" fill="#021B8D"/>
<path d="M18.4826 17.0745C16.5716 19.076 12.3459 20.3936 10.4639 17.7902L7.25293 13.3484L7.33373 11.6848C7.39006 11.6326 7.42221 11.6055 7.42221 11.6055C7.42221 11.6055 9.62928 13.8641 12.2846 16.3641C14.9399 18.864 18.4826 17.0745 18.4826 17.0745Z" fill="#020C6A"/>
<path d="M13.7222 9.53484H7.03937C6.78998 9.53492 6.54606 9.46165 6.338 9.32415C6.12993 9.18664 5.9669 8.99098 5.86921 8.76152C5.77151 8.53205 5.74347 8.27892 5.78856 8.03364C5.83365 7.78835 5.94989 7.56174 6.12281 7.38203C5.62678 7.68519 5.19798 7.27557 5.14048 6.73088L5.06498 6.01779L4.93345 4.77182C4.86592 4.13335 5.20536 3.77091 5.66217 3.67536C5.08739 2.94223 3.81753 3.27252 3.1941 3.74466C2.38219 4.35777 1.72374 5.15103 1.27063 6.06196C0.817526 6.97288 0.582136 7.97659 0.58301 8.99398C0.58301 12.6284 3.52911 15.5748 7.16353 15.5748C10.6157 15.5745 13.4471 12.9162 13.7222 9.53484Z" fill="url(#paint2_linear_124_97)"/>
<path d="M10.3804 9.52806H7.03916C6.78976 9.52814 6.54585 9.45487 6.33778 9.31737C6.12972 9.17986 5.96669 8.9842 5.869 8.75474C5.7713 8.52527 5.74325 8.27214 5.78834 8.02686C5.83344 7.78157 5.94968 7.55496 6.12259 7.37525C5.65959 7.65777 5.25616 7.32039 5.15678 6.83203C4.83007 7.17651 4.58799 7.59227 4.44967 8.04644C4.31135 8.50061 4.28058 8.98073 4.35981 9.44884C4.43904 9.91695 4.62608 10.3602 4.90615 10.7436C5.18623 11.1269 5.55164 11.4399 5.97351 11.6576C6.39538 11.8754 6.86213 11.9921 7.33686 11.9984C7.81158 12.0047 8.28126 11.9004 8.70875 11.6939C9.13625 11.4874 9.50983 11.1842 9.79997 10.8084C10.0901 10.4326 10.2888 9.99449 10.3804 9.52865V9.52806Z" fill="#021B8D"/>
<path d="M7.09243 9.53244H7.03994C7.0016 9.53244 6.96356 9.53067 6.9261 9.52742C6.31314 9.52325 5.71031 9.68386 5.18066 9.99246C4.65102 10.301 4.21403 10.7463 3.91539 11.2816C3.61674 11.8169 3.46742 12.4226 3.48304 13.0354C3.49867 13.6482 3.67865 14.2455 4.00418 14.7649C4.97263 15.296 6.0596 15.5737 7.16409 15.5721C10.4909 15.5721 13.2391 13.1037 13.6815 9.89841L7.09273 9.53244H7.09243Z" fill="#020C6A"/>
<path d="M6.22952 7.30484L6.52443 7.06597C6.81314 6.83299 7.23869 6.77106 7.42861 7.07245C7.23839 6.66843 6.59904 5.66103 5.06494 6.01581L5.14044 6.72889C5.19794 7.27358 5.62674 7.6832 6.12277 7.38004C6.15985 7.35717 6.1955 7.33206 6.22952 7.30484Z" fill="url(#paint3_linear_124_97)"/>
<path d="M5.06491 6.01251C6.59842 5.65862 7.23836 6.66514 7.42858 7.06916C7.45356 7.12088 7.47543 7.17406 7.49405 7.22841C7.49405 7.22841 7.83407 5.86005 7.48314 4.8264C7.17879 3.92959 6.30351 3.53619 5.66209 3.67008C5.20529 3.76563 4.86585 4.12807 4.93338 4.76654L5.06491 6.01251Z" fill="url(#paint4_linear_124_97)"/>
<path d="M7.49446 7.23231C7.49446 7.23231 7.83448 5.86395 7.48355 4.83031C7.1792 3.9335 6.30392 3.5401 5.6625 3.67398C5.31068 3.74741 5.02875 3.97951 4.94824 4.3735C6.67314 4.72739 7.49829 5.17623 7.49446 7.23231Z" fill="#FEF7A2"/>
<path d="M5.31757 3.81057C4.68175 3.68494 3.17832 3.64955 2.43457 5.68647C4.04387 5.32049 3.52071 8.58715 5.45145 7.35681C5.28365 7.22204 5.16893 6.98995 5.14092 6.72601L5.06542 6.01292L4.93389 4.76695C4.88494 4.30454 5.0495 3.98692 5.31727 3.81057H5.31757Z" fill="white"/>
<path d="M4.21236 5.33684C4.48012 5.33684 4.69719 5.11977 4.69719 4.85201C4.69719 4.58425 4.48012 4.36719 4.21236 4.36719C3.9446 4.36719 3.72754 4.58425 3.72754 4.85201C3.72754 5.11977 3.9446 5.33684 4.21236 5.33684Z" fill="#01052D"/>
<path d="M3.92882 4.81467C4.02003 4.81467 4.09397 4.74073 4.09397 4.64952C4.09397 4.55831 4.02003 4.48438 3.92882 4.48438C3.83761 4.48438 3.76367 4.55831 3.76367 4.64952C3.76367 4.74073 3.83761 4.81467 3.92882 4.81467Z" fill="white"/>
<path d="M7.09206 15.3518C6.32528 15.3441 5.59253 15.0341 5.05305 14.4891C4.51356 13.9442 4.21094 13.2083 4.21094 12.4415C4.21094 11.6747 4.51356 10.9389 5.05305 10.3939C5.59253 9.84899 6.32528 9.53897 7.09206 9.53125H16.4111C16.4111 12.7457 13.8053 15.3518 10.5908 15.3518H7.09206Z" fill="url(#paint5_linear_124_97)"/>
<path d="M4.22429 12.9326C4.15239 12.5147 4.17264 12.0862 4.28361 11.677C4.39457 11.2677 4.59358 10.8877 4.86673 10.5633C5.13987 10.239 5.48056 9.97828 5.86496 9.79933C6.24937 9.62039 6.66822 9.52756 7.09224 9.52734H16.4113C15.9984 10.8465 14.6123 13.0146 9.71424 13.0146C7.60921 13.0146 5.70825 12.9763 4.22488 12.9326H4.22429Z" fill="#8EFFC1"/>
<path d="M26.0756 14.0053C25.7486 14.0053 25.4121 13.9726 25.0659 13.9072C24.7198 13.8457 24.3986 13.7707 24.1024 13.6822C23.8063 13.5899 23.5717 13.5014 23.3986 13.4168L23.5717 11.8476C23.8409 11.9783 24.1217 12.0995 24.414 12.211C24.7063 12.3226 25.0063 12.413 25.314 12.4822C25.6217 12.5514 25.9332 12.586 26.2486 12.586C26.641 12.586 26.9563 12.5091 27.1948 12.3553C27.4333 12.2014 27.5525 11.9668 27.5525 11.6514C27.5525 11.4091 27.4852 11.2149 27.3506 11.0687C27.216 10.9187 27.0102 10.786 26.7333 10.6706C26.4563 10.5514 26.1025 10.4168 25.6717 10.2668C25.2409 10.1168 24.8544 9.94752 24.5121 9.75906C24.1698 9.56675 23.8986 9.32444 23.6986 9.03212C23.4986 8.73981 23.3986 8.36673 23.3986 7.91287C23.3986 7.46671 23.5082 7.07055 23.7274 6.72439C23.9467 6.37438 24.2736 6.1013 24.7082 5.90514C25.1467 5.70514 25.6909 5.60514 26.3409 5.60514C26.8333 5.60514 27.3025 5.66091 27.7487 5.77245C28.1948 5.88014 28.5756 5.99745 28.891 6.12438L28.741 7.63594C28.2871 7.43209 27.8602 7.27824 27.4602 7.1744C27.064 7.0667 26.6602 7.01286 26.2486 7.01286C25.8179 7.01286 25.4852 7.08401 25.2505 7.22632C25.0159 7.36863 24.8986 7.5821 24.8986 7.86672C24.8986 8.09364 24.964 8.27634 25.0948 8.4148C25.2255 8.55327 25.4121 8.6725 25.6544 8.7725C25.8967 8.86866 26.1871 8.97058 26.5256 9.07828C27.1102 9.2629 27.6006 9.46675 27.9967 9.68983C28.3968 9.90906 28.6968 10.1764 28.8968 10.4918C29.1006 10.8033 29.2025 11.1899 29.2025 11.6514C29.2025 11.8822 29.166 12.1341 29.0929 12.4072C29.0198 12.6764 28.8756 12.9322 28.6602 13.1745C28.4448 13.4168 28.1294 13.6168 27.714 13.7745C27.3025 13.9284 26.7563 14.0053 26.0756 14.0053ZM30.0458 13.8438L31.165 5.76668H32.3766L34.3497 9.44752L36.3113 5.76668H37.5228L38.6421 13.8438H37.1074L36.3343 7.77441L36.7382 7.85518L34.3497 12.1476L31.9496 7.86672L32.3535 7.78595L31.5804 13.8438H30.0458ZM44.4461 11.9283H41.0653V10.636H44.4461V11.9283ZM42.5653 7.20901H42.9461L40.6153 13.8438H39.1845L42.0576 5.76668H43.4538L46.3269 13.8438H44.8961L42.5653 7.20901ZM47.25 13.8438V5.76668H50.2039C50.7616 5.76668 51.2482 5.85514 51.6636 6.03207C52.0828 6.20899 52.4078 6.47823 52.6386 6.83977C52.8693 7.20132 52.9847 7.65902 52.9847 8.21288C52.9847 8.8052 52.8578 9.27636 52.604 9.62636C52.354 9.97252 52.0232 10.2475 51.6116 10.4514L53.4347 13.8438H51.7847L50.227 10.8437C50.2155 10.8437 50.2058 10.8437 50.1981 10.8437C50.1905 10.8437 50.1808 10.8437 50.1693 10.8437H48.727V13.8438H47.25ZM48.727 9.60906H49.8116C50.4193 9.60906 50.8424 9.48598 51.0809 9.23982C51.3193 8.98981 51.4386 8.67442 51.4386 8.29365C51.4386 7.88979 51.3212 7.5744 51.0866 7.34748C50.852 7.1167 50.4462 7.00132 49.8693 7.00132H48.727V9.60906ZM55.9633 13.8438V7.19747H53.6787V5.76668H59.7249V7.19747H57.4403V13.8438H55.9633ZM67.7826 11.9283H64.4018V10.636H67.7826V11.9283ZM65.9018 7.20901H66.2826L63.9518 13.8438H62.521L65.3941 5.76668H66.7903L69.6634 13.8438H68.2326L65.9018 7.20901ZM70.5865 13.8438V5.76668H72.0404L75.4905 10.9822V5.76668H76.9674V13.8438H75.7559L72.0635 8.30519V13.8438H70.5865ZM78.7447 13.8438V5.76668H80.2217V13.8438H78.7447ZM81.5641 13.8438L82.6834 5.76668H83.8949L85.8681 9.44752L87.8296 5.76668H89.0412L90.1604 13.8438H88.6258L87.8527 7.77441L88.2566 7.85518L85.8681 12.1476L83.468 7.86672L83.8719 7.78595L83.0988 13.8438H81.5641ZM95.9645 11.9283H92.5837V10.636H95.9645V11.9283ZM94.0837 7.20901H94.4645L92.1336 13.8438H90.7029L93.576 5.76668H94.9722L97.8453 13.8438H96.4145L94.0837 7.20901ZM98.7684 13.8438V5.76668H100.245V12.5283H103.568V13.8438H98.7684ZM106.88 14.0053C106.553 14.0053 106.217 13.9726 105.87 13.9072C105.524 13.8457 105.203 13.7707 104.907 13.6822C104.611 13.5899 104.376 13.5014 104.203 13.4168L104.376 11.8476C104.645 11.9783 104.926 12.0995 105.219 12.211C105.511 12.3226 105.811 12.413 106.119 12.4822C106.426 12.5514 106.738 12.586 107.053 12.586C107.445 12.586 107.761 12.5091 107.999 12.3553C108.238 12.2014 108.357 11.9668 108.357 11.6514C108.357 11.4091 108.29 11.2149 108.155 11.0687C108.02 10.9187 107.815 10.786 107.538 10.6706C107.261 10.5514 106.907 10.4168 106.476 10.2668C106.045 10.1168 105.659 9.94752 105.317 9.75906C104.974 9.56675 104.703 9.32444 104.503 9.03212C104.303 8.73981 104.203 8.36673 104.203 7.91287C104.203 7.46671 104.313 7.07055 104.532 6.72439C104.751 6.37438 105.078 6.1013 105.513 5.90514C105.951 5.70514 106.495 5.60514 107.145 5.60514C107.638 5.60514 108.107 5.66091 108.553 5.77245C108.999 5.88014 109.38 5.99745 109.696 6.12438L109.546 7.63594C109.092 7.43209 108.665 7.27824 108.265 7.1744C107.869 7.0667 107.465 7.01286 107.053 7.01286C106.622 7.01286 106.29 7.08401 106.055 7.22632C105.82 7.36863 105.703 7.5821 105.703 7.86672C105.703 8.09364 105.769 8.27634 105.899 8.4148C106.03 8.55327 106.217 8.6725 106.459 8.7725C106.701 8.86866 106.992 8.97058 107.33 9.07828C107.915 9.2629 108.405 9.46675 108.801 9.68983C109.201 9.90906 109.501 10.1764 109.701 10.4918C109.905 10.8033 110.007 11.1899 110.007 11.6514C110.007 11.8822 109.971 12.1341 109.897 12.4072C109.824 12.6764 109.68 12.9322 109.465 13.1745C109.249 13.4168 108.934 13.6168 108.519 13.7745C108.107 13.9284 107.561 14.0053 106.88 14.0053Z" fill="white"/>
<defs>
<linearGradient id="paint0_linear_124_97" x1="6.06829" y1="8.97431" x2="14.241" y2="2.98861" gradientUnits="userSpaceOnUse">
<stop stop-color="#0049E7"/>
<stop offset="0.55" stop-color="#1A85F8"/>
<stop offset="1" stop-color="#8EFFC1"/>
</linearGradient>
<linearGradient id="paint1_linear_124_97" x1="10.604" y1="13.0605" x2="20.0563" y2="23.7774" gradientUnits="userSpaceOnUse">
<stop stop-color="#0049E7"/>
<stop offset="0.55" stop-color="#1A85F8"/>
<stop offset="1" stop-color="#8EFFC1"/>
</linearGradient>
<linearGradient id="paint2_linear_124_97" x1="8.9713" y1="12.7776" x2="0.0745932" y2="0.984055" gradientUnits="userSpaceOnUse">
<stop stop-color="#0049E7"/>
<stop offset="0.55" stop-color="#1A85F8"/>
<stop offset="1" stop-color="#8EFFC1"/>
</linearGradient>
<linearGradient id="paint3_linear_124_97" x1="6.85502" y1="10.8399" x2="5.70547" y2="2.90868" gradientUnits="userSpaceOnUse">
<stop stop-color="#FFFF00"/>
<stop offset="1" stop-color="#E60040"/>
</linearGradient>
<linearGradient id="paint4_linear_124_97" x1="8.73501" y1="3.92576" x2="2.09698" y2="8.46612" gradientUnits="userSpaceOnUse">
<stop stop-color="#FFFF00"/>
<stop offset="1" stop-color="#E60040"/>
</linearGradient>
<linearGradient id="paint5_linear_124_97" x1="1.65548" y1="21.4295" x2="14.9318" y2="6.22212" gradientUnits="userSpaceOnUse">
<stop stop-color="#0049E7"/>
<stop offset="0.55" stop-color="#1A85F8"/>
<stop offset="1" stop-color="#8EFFC1"/>
</linearGradient>
</defs>
</svg>
